<?xml version="1.0" encoding="UTF-8" standalone="no"?>
<!-- Created with Inkscape (http://www.inkscape.org/) -->

<svg
   width="225mm"
   height="90mm"
   viewBox="0 0 225 90"
   version="1.1"
   style="background-color: #000000;"
   id="svg1"
   inkscape:version="1.2.2 (b0a8486541, 2022-12-01)"
   sodipodi:docname="mug_20_Queen_of_Pies.svg"
   xml:space="preserve"
   xmlns:inkscape="http://www.inkscape.org/namespaces/inkscape"
   xmlns:sodipodi="http://sodipodi.sourceforge.net/DTD/sodipodi-0.dtd"
   xmlns="http://www.w3.org/2000/svg"
   xmlns:svg="http://www.w3.org/2000/svg"><sodipodi:namedview
     id="namedview1"
     pagecolor="#ffffff"
     bordercolor="#000000"
     borderopacity="0.25"
     inkscape:showpageshadow="2"
     inkscape:pageopacity="0.0"
     inkscape:pagecheckerboard="0"
     inkscape:deskcolor="#d1d1d1"
     inkscape:document-units="mm"
     inkscape:zoom="1.684603"
     inkscape:cx="448.47362"
     inkscape:cy="182.53559"
     inkscape:window-width="1854"
     inkscape:window-height="1131"
     inkscape:window-x="66"
     inkscape:window-y="32"
     inkscape:window-maximized="1"
     inkscape:current-layer="layer1"
     showgrid="false" /><defs
     id="defs1" /><g
     inkscape:label="Layer 1"
     inkscape:groupmode="layer"
     id="layer1"><rect
       style="fill:#000000;fill-opacity:1;stroke-width:0.213856"
       id="rect1"
       width="225.0"
       height="90.0"
       x="0"
       y="0" /><text
       xml:space="preserve"
       style="font-size:6.35px;font-family:'Abyssinica SIL';-inkscape-font-specification:'Abyssinica SIL';text-align:center;writing-mode:lr-tb;direction:ltr;text-anchor:middle;fill:#ffffff;stroke-width:0.264583"
       x="51.913441"
       y="13.795106"
       id="text1"><tspan
         sodipodi:role="line"
         id="tspan1"
         style="font-size:6.35px;stroke-width:0.264583"
         x="51.913441"
         y="13.795106">Think BIG</tspan><tspan
         sodipodi:role="line"
         style="font-size:6.35px;stroke-width:0.264583"
         x="51.913441"
         y="21.732605"
         id="tspan2">Take CHANCES</tspan><tspan
         sodipodi:role="line"
         style="font-size:6.35px;stroke-width:0.264583"
         x="51.913441"
         y="29.670105"
         id="tspan13">Test against REALITY</tspan><tspan
         sodipodi:role="line"
         style="font-size:6.35px;stroke-width:0.264583"
         x="51.913441"
         y="37.607605"
         id="tspan5">Fail FAST</tspan><tspan
         sodipodi:role="line"
         style="font-size:6.35px;stroke-width:0.264583"
         x="51.913441"
         y="45.545105"
         id="tspan23">Try AGAIN</tspan><tspan
         sodipodi:role="line"
         style="font-size:6.35px;stroke-width:0.264583"
         x="51.913441"
         y="53.482605"
         id="tspan3">Do it RIGHT</tspan><tspan
         sodipodi:role="line"
         style="font-size:6.35px;stroke-width:0.264583"
         x="51.913441"
         y="61.420105"
         id="tspan24">Disrupt EVERYTHING</tspan><tspan
         sodipodi:role="line"
         style="font-size:6.35px;stroke-width:0.264583"
         x="51.913441"
         y="69.357605"
         id="tspan12" /><tspan
         sodipodi:role="line"
         style="font-size:6.35px;stroke-width:0.264583"
         x="51.913441"
         y="77.295105"
         id="tspan22" /></text><text
       xml:space="preserve"
       style="font-size:7.05556px;font-family:'Abyssinica SIL';-inkscape-font-specification:'Abyssinica SIL';text-align:center;writing-mode:lr-tb;direction:ltr;text-anchor:middle;fill:#ffffff;stroke-width:0.264583"
       x="175.90259"
       y="72.352333"
       id="text6"><tspan
         sodipodi:role="line"
         id="tspan6"
         style="text-align:center;text-anchor:middle;stroke-width:0.264583"
         x="175.90259"
         y="72.352333">Queen of Pies</tspan></text><text
       xml:space="preserve"
       style="font-size:3.175px;font-family:'Abyssinica SIL';-inkscape-font-specification:'Abyssinica SIL';text-align:center;writing-mode:lr-tb;direction:ltr;text-anchor:middle;fill:#ffffff;stroke-width:0.264583"
       x="15.705943"
       y="-121.59789"
       id="text7"
       transform="rotate(90)"><tspan
         sodipodi:role="line"
         style="font-size:3.175px;text-align:start;text-anchor:start;stroke-width:0.264583"
         x="15.705943"
         y="-121.59789"
         id="tspan11">multiply by -1 for no reason</tspan><tspan
         sodipodi:role="line"
         style="font-size:3.175px;text-align:start;text-anchor:start;stroke-width:0.264583"
         x="15.705943"
         y="-117.62914"
         id="tspan8">invert matrices without reason</tspan><tspan
         sodipodi:role="line"
         style="font-size:3.175px;text-align:start;text-anchor:start;stroke-width:0.264583"
         x="15.705943"
         y="-113.66039"
         id="tspan9">use the words røvlogik or Titanic</tspan><tspan
         sodipodi:role="line"
         style="font-size:3.175px;text-align:start;text-anchor:start;stroke-width:0.264583"
         x="15.705943"
         y="-109.69164"
         id="tspan33">accept the mediocre</tspan><tspan
         sodipodi:role="line"
         style="font-size:3.175px;text-align:start;text-anchor:start;stroke-width:0.264583"
         x="15.705943"
         y="-105.72289"
         id="tspan36">be afraid of complexity nor simplicity</tspan><tspan
         sodipodi:role="line"
         style="font-size:3.175px;text-align:start;text-anchor:start;stroke-width:0.264583"
         x="15.705943"
         y="-101.75414"
         id="tspan15">purspone it </tspan><tspan
         sodipodi:role="line"
         style="font-size:3.175px;text-align:start;text-anchor:start;stroke-width:0.264583"
         x="15.705943"
         y="-97.785393"
         id="tspan10" /></text><text
       xml:space="preserve"
       style="font-size:7.05556px;font-family:'Abyssinica SIL';-inkscape-font-specification:'Abyssinica SIL';text-align:center;writing-mode:lr-tb;direction:ltr;text-anchor:middle;fill:#ffffff;stroke-width:0.264583"
       x="112.40353"
       y="10.999269"
       id="text29"><tspan
         sodipodi:role="line"
         style="stroke-width:0.264583"
         x="112.40353"
         y="10.999269"
         id="tspan29">don't</tspan></text><text
       xml:space="preserve"
       style="font-size:3.175px;font-family:'Abyssinica SIL';-inkscape-font-specification:'Abyssinica SIL';text-align:start;writing-mode:lr-tb;direction:ltr;text-anchor:start;fill:#ffffff;stroke-width:0.264583"
       x="112.46899"
       y="83.071396"
       id="text34"><tspan
         sodipodi:role="line"
         id="tspan34"
         style="text-align:center;text-anchor:middle;stroke-width:0.264583"
         x="112.46899"
         y="83.071396">Veo Labs</tspan><tspan
         sodipodi:role="line"
         style="text-align:center;text-anchor:middle;stroke-width:0.264583"
         x="112.46899"
         y="87.040146"
         id="tspan35">2025</tspan></text><path
       style="fill:#fefefe;stroke-width:0.0989478;fill-opacity:1"
       d="m 198.12095,54.786705 c -1.52384,-0.25293 -2.85848,-1.48067 -3.10888,-2.85985 -0.10524,-0.57965 -0.0889,-33.15306 0.0169,-33.56905 0.2508,-0.98672 1.13426,-1.95506 2.24168,-2.45706 l 0.49474,-0.22427 8.01477,-0.0731 c 5.01943,-0.0458 8.2476,-0.0375 8.63776,0.022 1.04126,0.15899 1.66934,0.45516 2.37851,1.1216 0.52529,0.49363 0.85247,1.11135 1.00135,1.89052 0.0824,0.43109 0.10488,5.00903 0.0834,16.96626 l -0.0294,16.37586 -0.23147,0.57358 c -0.44827,1.11077 -1.60306,1.99303 -2.92829,2.2372 -0.72159,0.13296 -15.76799,0.12955 -16.57105,-0.004 z m 17.07514,-0.26632 c 1.01963,-0.31829 1.75568,-0.93295 2.2723,-1.89755 0.17894,-0.33412 0.18642,-0.93883 0.21237,-17.16744 0.0297,-18.60178 0.0725,-17.29546 -0.59601,-18.22628 -0.34222,-0.47654 -1.09049,-1.02553 -1.75616,-1.28846 -0.41193,-0.16271 -1.05916,-0.17794 -8.64477,-0.20337 -7.14373,-0.024 -8.27658,-0.008 -8.79812,0.12586 -1.26863,0.32501 -2.22728,1.15124 -2.61015,2.24961 -0.17363,0.49812 -0.18179,1.26929 -0.18179,17.19421 v 16.67271 l 0.26075,0.55609 c 0.47354,1.00991 1.33881,1.75585 2.35438,2.02968 0.3403,0.0918 2.48934,0.12359 8.68085,0.12862 7.69552,0.006 8.26601,-0.005 8.80635,-0.17368 z m -13.00282,0.007 c 1.34693,-0.0155 3.55099,-0.0155 4.89792,0 1.34692,0.0155 0.24489,0.0283 -2.44896,0.0283 -2.69386,0 -3.79589,-0.0127 -2.44896,-0.0283 z m 10.61215,-0.0218 c 2.1143,-0.0758 2.43063,-0.14256 3.26266,-0.68893 0.50083,-0.32888 1.11119,-1.12835 1.25162,-1.6394 0.0598,-0.21769 0.14524,-0.79653 0.18982,-1.28633 l 0.0811,-0.89053 -0.0329,0.98948 c -0.0198,0.59627 -0.0991,1.17542 -0.19959,1.45738 -0.24069,0.67554 -0.95137,1.38421 -1.78218,1.77715 l -0.69263,0.32759 -2.02843,0.0122 -2.02843,0.0122 z m -15.29836,-0.14849 c -0.8428,-0.31021 -1.55533,-0.94105 -1.99022,-1.76207 -0.19818,-0.37415 -0.22285,-0.57277 -0.23624,-1.90199 l -0.0149,-1.48422 0.0684,1.38527 c 0.0772,1.56296 0.21684,2.0093 0.84651,2.70628 0.45741,0.5063 0.89825,0.7821 1.61804,1.01229 0.3294,0.10535 0.45844,0.17855 0.31303,0.17758 -0.13605,-8.9e-4 -0.40812,-0.0608 -0.60461,-0.13314 z m 0.45619,-0.96492 c -0.58807,-0.20849 -1.11144,-0.65645 -1.41945,-1.21492 -0.1505,-0.27289 -0.16371,-1.64266 -0.16371,-16.96955 v -16.67239 l 0.26585,-0.45221 c 0.26766,-0.45529 0.78359,-0.88263 1.29902,-1.07595 0.42648,-0.15997 16.38899,-0.14362 16.9262,0.0173 0.54818,0.16423 1.29633,0.89957 1.43648,1.41187 0.0764,0.27917 0.10844,5.24389 0.10883,16.84904 4.9e-4,14.65184 -0.0163,16.49353 -0.15312,16.82113 -0.21402,0.51235 -0.60215,0.89682 -1.18213,1.17101 l -0.49474,0.23389 -8.16319,-0.007 c -5.49868,-0.005 -8.26009,-0.0412 -8.46004,-0.11209 z m 6.08529,-0.13111 c 0,-0.0297 -0.19402,-0.39709 -0.43115,-0.81632 -1.02881,-1.81884 -1.96273,-3.5961 -1.91485,-3.64397 0.0285,-0.0285 0.26473,0.34104 0.5249,0.82125 0.26018,0.48021 0.81695,1.49648 1.23727,2.25838 l 0.76422,1.38527 h 5.22825 5.22825 l 0.47222,-0.27757 c 0.25972,-0.15267 0.59367,-0.46099 0.74211,-0.68515 l 0.26989,-0.40757 0.0303,-2.79184 0.0303,-2.79185 -0.33223,-0.62934 c -0.18273,-0.34614 -1.2819,-2.33414 -2.44262,-4.41778 -1.16071,-2.08364 -2.0874,-3.81142 -2.05931,-3.83951 0.0281,-0.0281 0.76279,1.23145 1.63267,2.79896 2.44203,4.40049 2.90665,5.22085 2.98713,5.27425 0.041,0.0272 0.1,0.11626 0.13107,0.19789 0.0311,0.0816 0.06,-3.97596 0.0643,-9.01687 0.007,-8.03265 -0.0105,-9.18051 -0.14061,-9.28847 -0.0816,-0.0678 -0.14842,-0.18982 -0.14842,-0.27128 0,-0.0814 -0.14956,-0.39882 -0.33235,-0.70526 -0.64948,-1.08879 -1.7645,-3.19331 -1.71703,-3.24077 0.0265,-0.0265 0.32636,0.45513 0.66631,1.07033 1.474,2.66747 1.4193,2.58064 1.50425,2.38792 0.0598,-0.13562 0.068,-0.11878 0.0329,0.0673 -0.0258,0.1365 -0.004,0.31461 0.0487,0.39579 0.0621,0.0959 0.0867,-1.38357 0.0701,-4.22246 l -0.0255,-4.37006 -0.29746,-0.42891 c -0.19475,-0.28081 -0.48274,-0.52287 -0.83406,-0.70102 l -0.53661,-0.2721 h -2.60437 c -1.43241,0 -2.60437,0.023 -2.60437,0.0512 0,0.0282 0.42874,0.83131 0.95275,1.7848 0.52402,0.95349 0.93005,1.75633 0.9023,1.78408 -0.0278,0.0277 -0.49553,-0.76428 -1.03949,-1.76007 l -0.98903,-1.81052 -5.28119,-0.028 c -5.54587,-0.0294 -5.83458,-0.0109 -6.36202,0.40971 l -0.27133,0.21634 0.7196,1.28417 c 0.39577,0.70629 0.92931,1.66264 1.18563,2.12522 0.25633,0.46258 0.5373,0.85545 0.62439,0.87304 0.17118,0.0346 0.21397,0.17835 0.069,0.23187 -0.0491,0.0181 0.16477,0.47825 0.47534,1.02246 1.54036,2.69923 1.7707,3.12664 1.66625,3.09182 -0.0621,-0.0207 -0.42966,-0.61351 -0.81679,-1.31736 -0.38712,-0.70384 -1.05509,-1.90309 -1.48437,-2.66499 -0.42928,-0.76189 -1.16113,-2.07127 -1.62634,-2.90973 -0.4652,-0.83845 -0.88839,-1.5224 -0.94043,-1.51989 -0.052,0.003 -0.17448,0.15351 -0.2721,0.33555 -0.16786,0.31298 -0.1775,0.97069 -0.1775,12.10148 0,10.70564 0.014,11.75313 0.15516,11.57844 0.14899,-0.18444 0.15295,-0.18165 0.0995,0.0702 -0.0543,0.25591 0.55552,1.47559 1.82156,3.64335 0.21859,0.37428 0.39744,0.70877 0.39744,0.7433 0,0.20767 -0.28504,-0.23459 -1.07914,-1.67435 -0.49254,-0.89301 -1.00781,-1.78911 -1.14504,-1.99134 l -0.24951,-0.36768 v 4.66927 c 0,4.10406 0.0194,4.7076 0.15999,4.98593 0.29727,0.58837 0.75148,0.9601 1.42253,1.16422 0.2807,0.0854 5.83856,0.12191 5.83856,0.0384 z m 1.73159,-0.5396 c -0.0774,-0.12523 0.0536,-0.12523 0.24737,0 0.12791,0.0827 0.12529,0.0961 -0.0189,0.0974 -0.092,8.3e-4 -0.19484,-0.043 -0.22847,-0.0974 z m 0.72355,0.0314 c 0.0714,-0.0286 0.15678,-0.0251 0.18965,0.008 0.0329,0.0329 -0.0256,0.0563 -0.12986,0.052 -0.11527,-0.005 -0.13872,-0.0282 -0.0598,-0.0598 z m 0.66172,-0.1303 c 0.0336,-0.0544 0.10568,-0.099 0.1601,-0.099 0.0544,0 0.0714,0.0445 0.0378,0.099 -0.0336,0.0544 -0.10568,0.099 -0.1601,0.099 -0.0544,0 -0.0714,-0.0445 -0.0378,-0.099 z m -4.40959,-0.66865 c -1.16362,-2.20088 -2.23424,-4.01711 -2.39234,-4.05845 -0.11607,-0.0304 -0.14729,-0.0854 -0.0897,-0.15816 0.057,-0.0719 -0.18911,-0.60432 -0.69183,-1.49687 -0.99935,-1.77429 -1.42948,-2.61162 -1.24531,-2.42422 0.12481,0.12698 0.58547,0.93623 2.47831,4.3537 0.16579,0.29932 0.78305,1.40839 1.3717,2.46461 0.58866,1.05622 1.07028,1.93562 1.07028,1.95422 0,0.0186 -0.0334,0.0335 -0.0742,0.0331 -0.0408,-4e-4 -0.23294,-0.30097 -0.42694,-0.6679 z m 2.48011,0.5697 c -0.0892,-0.0576 -0.10139,-0.0965 -0.0306,-0.0974 0.0648,-7.9e-4 0.14536,0.043 0.179,0.0974 0.0759,0.12285 0.0417,0.12285 -0.14842,0 z m 2.47369,-0.18621 c 0,-0.0544 0.0445,-0.12647 0.099,-0.1601 0.0544,-0.0336 0.099,-0.0166 0.099,0.0378 0,0.0544 -0.0445,0.12647 -0.099,0.1601 -0.0544,0.0336 -0.099,0.0166 -0.099,-0.0378 z m -3.02198,-0.21616 c -0.10649,-0.17231 0.0148,-0.2088 0.15051,-0.0453 0.078,0.094 0.0855,0.15081 0.0199,0.15081 -0.0579,0 -0.13457,-0.0475 -0.17045,-0.10553 z m 3.46725,-0.29026 c 0.0336,-0.0544 0.10567,-0.099 0.1601,-0.099 0.0544,0 0.0714,0.0445 0.0378,0.099 -0.0336,0.0544 -0.10568,0.099 -0.1601,0.099 -0.0544,0 -0.0714,-0.0445 -0.0378,-0.099 z m -3.74353,-0.16491 c -0.0363,-0.0363 -0.066,-0.11198 -0.066,-0.16822 0,-0.062 0.0461,-0.0562 0.11709,0.0148 0.0644,0.0644 0.0941,0.14009 0.066,0.16821 -0.0281,0.0281 -0.0808,0.0214 -0.11709,-0.0148 z m 3.9909,-0.37346 c 0,-0.0848 0.0445,-0.15427 0.0989,-0.15427 0.0544,0 0.099,0.0419 0.099,0.0931 0,0.0512 -0.0445,0.12063 -0.099,0.15426 -0.0544,0.0336 -0.0989,-0.008 -0.0989,-0.0931 z m -4.148,-0.31093 c 0.005,-0.11527 0.0282,-0.13872 0.0598,-0.0598 0.0286,0.0714 0.0251,0.15677 -0.008,0.18965 -0.0329,0.0329 -0.0563,-0.0256 -0.052,-0.12987 z m 4.25476,-0.29685 c 0.005,-0.11527 0.0282,-0.13871 0.0598,-0.0598 0.0286,0.0714 0.0251,0.15677 -0.008,0.18965 -0.0329,0.0329 -0.0563,-0.0256 -0.052,-0.12987 z m -4.26257,-0.28859 c 0,-0.0816 0.0431,-0.14843 0.0958,-0.14843 0.0527,0 0.0702,0.0668 0.0389,0.14843 -0.0313,0.0816 -0.0745,0.14842 -0.0958,0.14842 -0.0214,0 -0.0389,-0.0668 -0.0389,-0.14842 z m 4.12282,-0.21439 c -0.0363,-0.0363 -0.066,-0.11198 -0.066,-0.16821 0,-0.062 0.0461,-0.0562 0.11709,0.0148 0.0644,0.0644 0.0941,0.14009 0.066,0.16821 -0.0281,0.0281 -0.0808,0.0214 -0.11709,-0.0148 z m -3.86176,-0.3793 c 0.0313,-0.0816 0.0953,-0.14842 0.14221,-0.14842 0.0469,0 0.0596,0.0668 0.0283,0.14842 -0.0313,0.0816 -0.0953,0.14842 -0.14221,0.14842 -0.0469,0 -0.0596,-0.0668 -0.0283,-0.14842 z m 3.44948,-0.24737 c -0.0336,-0.0544 -0.014,-0.099 0.0436,-0.099 0.0576,0 0.10479,0.0445 0.10479,0.099 0,0.0544 -0.0196,0.099 -0.0436,0.099 -0.024,0 -0.0712,-0.0445 -0.10479,-0.099 z m -3.06738,-0.1979 c 0.0336,-0.0544 0.10568,-0.0989 0.1601,-0.0989 0.0544,0 0.0714,0.0445 0.0378,0.0989 -0.0336,0.0544 -0.10568,0.099 -0.1601,0.099 -0.0544,0 -0.0714,-0.0445 -0.0378,-0.099 z m 2.47369,-0.19789 c -0.0774,-0.12523 0.0536,-0.12523 0.24737,0 0.12791,0.0827 0.1253,0.0961 -0.0189,0.0974 -0.092,8.3e-4 -0.19484,-0.043 -0.22848,-0.0974 z m -1.92948,-0.10206 c 0,-0.0527 0.0668,-0.0958 0.14842,-0.0958 0.0816,0 0.14842,0.0175 0.14842,0.0389 0,0.0214 -0.0668,0.0645 -0.14842,0.0958 -0.0816,0.0313 -0.14842,0.0138 -0.14842,-0.0389 z m 0.67408,-0.16343 c 0.0714,-0.0286 0.15677,-0.0251 0.18965,0.008 0.0329,0.0329 -0.0256,0.0563 -0.12987,0.052 -0.11527,-0.005 -0.13871,-0.0282 -0.0598,-0.0598 z m 0.69264,0 c 0.0714,-0.0286 0.15677,-0.0251 0.18965,0.008 0.0329,0.0329 -0.0256,0.0563 -0.12987,0.052 -0.11527,-0.005 -0.13872,-0.0282 -0.0598,-0.0598 z m -10.00382,-1.21863 c -0.0284,-0.10879 -0.0114,-0.22273 0.0379,-0.25321 0.0493,-0.0305 0.0897,-0.002 0.0897,0.0632 0,0.0652 0.0779,0.17777 0.17316,0.25007 0.16122,0.12238 0.15861,0.13166 -0.0379,0.13459 -0.12948,0.002 -0.23108,-0.0733 -0.26281,-0.19465 z m 0.72128,0.0988 c 0,-0.0544 0.0642,-0.099 0.14258,-0.099 0.0784,0 0.1701,0.0445 0.20373,0.099 0.0336,0.0544 -0.0305,0.099 -0.14258,0.099 -0.11205,0 -0.20373,-0.0445 -0.20373,-0.099 z m 0.69263,0 c 0,-0.0544 0.0668,-0.099 0.14842,-0.099 0.0816,0 0.14842,0.0445 0.14842,0.099 0,0.0544 -0.0668,0.099 -0.14842,0.099 -0.0816,0 -0.14842,-0.0445 -0.14842,-0.099 z m 0.69264,0 c 0,-0.0544 0.0419,-0.099 0.0931,-0.099 0.0512,0 0.12063,0.0445 0.15426,0.099 0.0336,0.0544 -0.008,0.099 -0.0931,0.099 -0.0849,0 -0.15426,-0.0445 -0.15426,-0.099 z m 0.64316,0 c 0.0336,-0.0544 0.12531,-0.099 0.20373,-0.099 0.0784,0 0.14258,0.0445 0.14258,0.099 0,0.0544 -0.0917,0.099 -0.20373,0.099 -0.11206,0 -0.17622,-0.0445 -0.14258,-0.099 z m 1.33579,0 c 0,-0.12398 0.10501,-0.12398 0.29684,0 0.12002,0.0776 0.10582,0.0962 -0.0742,0.0974 -0.12244,8.3e-4 -0.22263,-0.043 -0.22263,-0.0974 z m 0.74211,0 c 0.0336,-0.0544 0.10305,-0.099 0.15426,-0.099 0.0512,0 0.0931,0.0445 0.0931,0.099 0,0.0544 -0.0694,0.099 -0.15426,0.099 -0.0849,0 -0.12674,-0.0445 -0.0931,-0.099 z m 0.64316,0 c 0,-0.0544 0.0419,-0.099 0.0931,-0.099 0.0512,0 0.12063,0.0445 0.15426,0.099 0.0336,0.0544 -0.008,0.099 -0.0931,0.099 -0.0848,0 -0.15426,-0.0445 -0.15426,-0.099 z m 0.67285,-0.0198 c 0.0923,-0.0924 0.14512,-0.0924 0.23747,0 0.0924,0.0923 0.066,0.11874 -0.11874,0.11874 -0.1847,0 -0.21108,-0.0264 -0.11873,-0.11874 z m 0.69263,0 c 0.0924,-0.0924 0.14512,-0.0924 0.23748,0 0.0924,0.0923 0.066,0.11874 -0.11874,0.11874 -0.1847,0 -0.21109,-0.0264 -0.11874,-0.11874 z m 0.66028,0.0241 c 0.0322,-0.052 0.12385,-0.0695 0.20374,-0.0389 0.20453,0.0785 0.18043,0.13352 -0.0585,0.13352 -0.11205,0 -0.17742,-0.0426 -0.14525,-0.0946 z m 0.6963,-0.006 c 0.0342,-0.0553 0.1036,-0.0749 0.15426,-0.0436 0.13725,0.0848 0.11166,0.14419 -0.0622,0.14419 -0.0848,0 -0.12629,-0.0453 -0.0921,-0.10056 z m 0.64217,0.002 c 0,-0.0544 0.0419,-0.099 0.0931,-0.099 0.0512,0 0.12063,0.0445 0.15427,0.099 0.0336,0.0544 -0.008,0.099 -0.0931,0.099 -0.0848,0 -0.15426,-0.0445 -0.15426,-0.099 z m 0.64049,0.004 c 0.0322,-0.052 0.12384,-0.0695 0.20373,-0.0389 0.20454,0.0785 0.18044,0.13352 -0.0585,0.13352 -0.11206,0 -0.17742,-0.0426 -0.14525,-0.0946 z m 0.72499,-0.0241 c 0.0924,-0.0924 0.14512,-0.0924 0.23747,0 0.0924,0.0923 0.066,0.11874 -0.11874,0.11874 -0.1847,0 -0.21108,-0.0264 -0.11873,-0.11874 z m 0.69263,0 c 0.0924,-0.0924 0.14512,-0.0924 0.23748,0 0.0924,0.0923 0.066,0.11874 -0.11874,0.11874 -0.1847,0 -0.21109,-0.0264 -0.11874,-0.11874 z m 0.66295,0.0198 c 0.0336,-0.0544 0.10305,-0.099 0.15426,-0.099 0.0512,0 0.0931,0.0445 0.0931,0.099 0,0.0544 -0.0694,0.099 -0.15426,0.099 -0.0848,0 -0.12674,-0.0445 -0.0931,-0.099 z m 0.64316,0 c 0,-0.0544 0.0419,-0.099 0.0931,-0.099 0.0512,0 0.12063,0.0445 0.15426,0.099 0.0336,0.0544 -0.008,0.099 -0.0931,0.099 -0.0848,0 -0.15426,-0.0445 -0.15426,-0.099 z m 0.67285,-0.0198 c 0.0924,-0.0924 0.14512,-0.0924 0.23747,0 0.0924,0.0923 0.066,0.11874 -0.11874,0.11874 -0.1847,0 -0.21108,-0.0264 -0.11873,-0.11874 z m 0.69263,0 c 0.0924,-0.0924 0.14513,-0.0924 0.23748,0 0.0923,0.0923 0.066,0.11874 -0.11874,0.11874 -0.1847,0 -0.21109,-0.0264 -0.11874,-0.11874 z m 0.69264,0 c 0.0924,-0.0924 0.14512,-0.0924 0.23747,0 0.0924,0.0923 0.066,0.11874 -0.11874,0.11874 -0.1847,0 -0.21108,-0.0264 -0.11873,-0.11874 z m 0.66295,0.0198 c 0.0336,-0.0544 0.10305,-0.099 0.15426,-0.099 0.0512,0 0.0931,0.0445 0.0931,0.099 0,0.0544 -0.0694,0.099 -0.15427,0.099 -0.0848,0 -0.12674,-0.0445 -0.0931,-0.099 z m 0.64316,0 c 0,-0.0544 0.0419,-0.099 0.0931,-0.099 0.0512,0 0.12062,0.0445 0.15426,0.099 0.0336,0.0544 -0.008,0.099 -0.0931,0.099 -0.0848,0 -0.15426,-0.0445 -0.15426,-0.099 z m 0.67284,-0.0198 c 0.0923,-0.0924 0.14513,-0.0924 0.23748,0 0.0924,0.0923 0.066,0.11874 -0.11874,0.11874 -0.1847,0 -0.21109,-0.0264 -0.11874,-0.11874 z m 0.69264,0 c 0.0924,-0.0924 0.14512,-0.0924 0.23747,0 0.0924,0.0923 0.066,0.11874 -0.11873,0.11874 -0.18471,0 -0.21109,-0.0264 -0.11874,-0.11874 z m 0.66028,0.0241 c 0.0322,-0.052 0.12384,-0.0695 0.20373,-0.0389 0.20454,0.0785 0.18044,0.13352 -0.0585,0.13352 -0.11205,0 -0.17742,-0.0426 -0.14525,-0.0946 z m 0.6953,-0.004 c 0.0336,-0.0544 0.10305,-0.099 0.15426,-0.099 0.0512,0 0.0931,0.0445 0.0931,0.099 0,0.0544 -0.0694,0.099 -0.15426,0.099 -0.0848,0 -0.12674,-0.0445 -0.0931,-0.099 z m 0.64316,0.007 c 0,-0.0584 0.0694,-0.1062 0.15427,-0.1062 0.0848,0 0.12864,-0.0414 0.0973,-0.0921 -0.0313,-0.0507 -0.008,-0.12239 0.052,-0.1594 0.0702,-0.0434 0.0971,0.0153 0.0758,0.16531 -0.0323,0.22702 -0.37938,0.40306 -0.37938,0.1924 z m -18.89122,-0.85656 c 0.005,-0.11526 0.0282,-0.13871 0.0598,-0.0598 0.0286,0.0714 0.0251,0.15677 -0.008,0.18965 -0.0329,0.0329 -0.0563,-0.0256 -0.052,-0.12987 z m 19.14282,0.0646 c -0.0313,-0.0507 -0.0117,-0.12008 0.0436,-0.15426 0.0553,-0.0342 0.10056,0.007 0.10056,0.0921 0,0.1738 -0.0594,0.1994 -0.14419,0.0622 z m -19.19588,-0.59369 c -0.0313,-0.0507 -0.0117,-0.12007 0.0436,-0.15426 0.0553,-0.0342 0.10056,0.007 0.10056,0.0921 0,0.17381 -0.0594,0.1994 -0.1442,0.0622 z m 19.19588,0 c -0.0313,-0.0507 -0.0117,-0.12007 0.0436,-0.15426 0.0553,-0.0342 0.10056,0.007 0.10056,0.0921 0,0.17381 -0.0594,0.1994 -0.14419,0.0622 z m -19.14282,-0.65824 c 0.005,-0.11527 0.0282,-0.13871 0.0598,-0.0598 0.0286,0.0714 0.0251,0.15677 -0.008,0.18965 -0.0329,0.0329 -0.0563,-0.0256 -0.052,-0.12987 z m 19.1535,-0.58227 c -0.0307,-0.0799 -0.0132,-0.17157 0.0389,-0.20374 0.052,-0.0322 0.0946,0.0332 0.0946,0.14526 0,0.23891 -0.055,0.26301 -0.13351,0.0585 z m -19.20656,-0.0458 c -0.0313,-0.0507 -0.0117,-0.12007 0.0436,-0.15426 0.0553,-0.0342 0.10056,0.007 0.10056,0.0921 0,0.17381 -0.0594,0.1994 -0.1442,0.0622 z m 0.009,-0.64999 c 0.0313,-0.0816 0.0745,-0.14843 0.0959,-0.14843 0.0214,0 0.0389,0.0668 0.0389,0.14843 0,0.0816 -0.0431,0.14842 -0.0958,0.14842 -0.0527,0 -0.0702,-0.0668 -0.0389,-0.14842 z m 19.19588,0 c 0.0313,-0.0816 0.0744,-0.14843 0.0958,-0.14843 0.0214,0 0.0389,0.0668 0.0389,0.14843 0,0.0816 -0.0431,0.14842 -0.0958,0.14842 -0.0527,0 -0.0702,-0.0668 -0.0389,-0.14842 z m -19.19588,-0.59369 c -0.0313,-0.0816 -0.0138,-0.14842 0.0389,-0.14842 0.0527,0 0.0958,0.0668 0.0958,0.14842 0,0.0816 -0.0175,0.14842 -0.0389,0.14842 -0.0214,0 -0.0645,-0.0668 -0.0959,-0.14842 z m 19.19039,0.0627 c -0.0426,-0.069 -0.0508,-0.15211 -0.0181,-0.18477 0.0885,-0.0886 0.18511,0.0417 0.13728,0.18517 -0.0335,0.10055 -0.0568,0.10047 -0.11917,-3.9e-4 z m -19.19587,-0.59368 c -0.0426,-0.069 -0.0508,-0.15212 -0.0181,-0.18478 0.0886,-0.0885 0.18511,0.0417 0.13728,0.18518 -0.0335,0.10054 -0.0568,0.10047 -0.11916,-4e-4 z m 19.19189,-0.006 c -0.0313,-0.0507 -0.0117,-0.12007 0.0436,-0.15426 0.0553,-0.0342 0.10056,0.007 0.10056,0.0921 0,0.17381 -0.0594,0.1994 -0.1442,0.0622 z m -0.01,-0.60914 c -0.0366,-0.0592 -0.0169,-0.15712 0.0436,-0.21769 0.0808,-0.0808 0.11011,-0.0523 0.11011,0.10757 0,0.23891 -0.0514,0.27573 -0.15375,0.11012 z m 0.01,-0.67718 c -0.0313,-0.0507 -0.0117,-0.12008 0.0436,-0.15426 0.0553,-0.0342 0.10056,0.007 0.10056,0.0921 0,0.17381 -0.0594,0.1994 -0.1442,0.0622 z m -19.14281,-0.65824 c 0.005,-0.11527 0.0282,-0.13872 0.0598,-0.0598 0.0286,0.0714 0.0251,0.15677 -0.008,0.18965 -0.0329,0.0329 -0.0563,-0.0256 -0.052,-0.12987 z m 19.08911,0.0636 c 0,-0.0512 0.0445,-0.12063 0.099,-0.15426 0.0544,-0.0336 0.0989,0.008 0.0989,0.0931 0,0.0848 -0.0445,0.15427 -0.0989,0.15427 -0.0544,0 -0.099,-0.0419 -0.099,-0.0931 z m -3.42718,-0.48034 c -0.0577,-0.0928 -0.88533,-1.57125 -1.83913,-3.28552 -0.95381,-1.71427 -2.00693,-3.60562 -2.34028,-4.203 -0.55298,-0.991 -0.80371,-1.56963 -0.47143,-1.08799 0.30773,0.44607 4.83891,8.66203 4.79913,8.70181 -0.0238,0.0238 -0.0906,-0.0325 -0.14829,-0.1253 z m -15.715,-0.11235 c -0.0313,-0.0507 -0.0117,-0.12008 0.0436,-0.15426 0.0553,-0.0342 0.10056,0.007 0.10056,0.0921 0,0.1738 -0.0594,0.19939 -0.1442,0.0622 z m 19.19588,0 c -0.0313,-0.0507 -0.0117,-0.12008 0.0436,-0.15426 0.0553,-0.0342 0.10056,0.007 0.10056,0.0921 0,0.1738 -0.0594,0.19939 -0.14419,0.0622 z m -19.14282,-0.65824 c 0.005,-0.11527 0.0282,-0.13872 0.0598,-0.0598 0.0286,0.0714 0.0251,0.15677 -0.008,0.18965 -0.0329,0.0329 -0.0563,-0.0256 -0.052,-0.12986 z m 19.1468,0.071 c -0.0426,-0.069 -0.0508,-0.15211 -0.0181,-0.18477 0.0886,-0.0886 0.18511,0.0417 0.13728,0.18517 -0.0335,0.10055 -0.0568,0.10047 -0.11916,-3.9e-4 z m 0.007,-0.65327 c -0.0307,-0.0799 -0.0132,-0.17157 0.0389,-0.20373 0.052,-0.0322 0.0946,0.0332 0.0946,0.14525 0,0.23892 -0.055,0.26302 -0.13351,0.0585 z m -19.20656,-0.0458 c -0.0313,-0.0507 -0.0117,-0.12008 0.0436,-0.15426 0.0553,-0.0342 0.10056,0.007 0.10056,0.0921 0,0.1738 -0.0594,0.19939 -0.1442,0.0622 z m 0,-0.59369 c -0.0313,-0.0507 -0.0117,-0.12008 0.0436,-0.15426 0.0553,-0.0342 0.10056,0.007 0.10056,0.0921 0,0.1738 -0.0594,0.19939 -0.1442,0.0622 z m 19.19588,0 c -0.0313,-0.0507 -0.0117,-0.12008 0.0436,-0.15426 0.0553,-0.0342 0.10056,0.007 0.10056,0.0921 0,0.1738 -0.0594,0.19939 -0.14419,0.0622 z m -19.19588,-0.59369 c -0.0313,-0.0507 -0.0117,-0.12008 0.0436,-0.15426 0.0553,-0.0342 0.10056,0.007 0.10056,0.0921 0,0.17381 -0.0594,0.1994 -0.1442,0.0622 z m 19.19986,0.006 c -0.0426,-0.069 -0.0508,-0.15211 -0.0181,-0.18477 0.0886,-0.0886 0.18511,0.0417 0.13728,0.18517 -0.0335,0.10055 -0.0568,0.10047 -0.11916,-3.9e-4 z m -19.19986,-0.60012 c -0.0313,-0.0507 -0.0117,-0.12008 0.0436,-0.15427 0.0553,-0.0342 0.10056,0.007 0.10056,0.0921 0,0.1738 -0.0594,0.19939 -0.1442,0.0622 z m 19.19588,0 c -0.0313,-0.0507 -0.0117,-0.12008 0.0436,-0.15427 0.0553,-0.0342 0.10056,0.007 0.10056,0.0921 0,0.1738 -0.0594,0.19939 -0.14419,0.0622 z m -19.2001,-0.69948 c 0.0336,-0.0544 0.0808,-0.0989 0.10478,-0.0989 0.024,0 0.0436,0.0445 0.0436,0.0989 0,0.0544 -0.0472,0.099 -0.10479,0.099 -0.0576,0 -0.0773,-0.0445 -0.0436,-0.099 z m 19.2001,0.007 c -0.0313,-0.0507 -0.0117,-0.12008 0.0436,-0.15426 0.0553,-0.0342 0.10056,0.007 0.10056,0.0921 0,0.17381 -0.0594,0.1994 -0.14419,0.0622 z m -19.24958,-0.59468 c 0,-0.0512 0.0445,-0.12063 0.099,-0.15426 0.0544,-0.0336 0.099,0.008 0.099,0.0931 0,0.0848 -0.0445,0.15427 -0.099,0.15427 -0.0544,0 -0.099,-0.0419 -0.099,-0.0931 z m 19.24958,10e-4 c -0.0313,-0.0507 -0.0117,-0.12008 0.0436,-0.15426 0.0553,-0.0342 0.10056,0.007 0.10056,0.0921 0,0.1738 -0.0594,0.19939 -0.14419,0.0622 z m -19.19588,-0.59369 c -0.0313,-0.0507 -0.0117,-0.12008 0.0436,-0.15426 0.0553,-0.0342 0.10056,0.007 0.10056,0.0921 0,0.1738 -0.0594,0.19939 -0.1442,0.0622 z m 19.19588,0 c -0.0313,-0.0507 -0.0117,-0.12008 0.0436,-0.15426 0.0553,-0.0342 0.10056,0.007 0.10056,0.0921 0,0.1738 -0.0594,0.19939 -0.14419,0.0622 z m -19.19588,-0.59369 c -0.0313,-0.0507 -0.0117,-0.12008 0.0436,-0.15426 0.0553,-0.0342 0.10056,0.007 0.10056,0.0921 0,0.17381 -0.0594,0.1994 -0.1442,0.0622 z m 19.19588,0 c -0.0313,-0.0507 -0.0117,-0.12008 0.0436,-0.15426 0.0553,-0.0342 0.10056,0.007 0.10056,0.0921 0,0.17381 -0.0594,0.1994 -0.14419,0.0622 z m -7.80829,-1.02273 c -0.21064,-0.39363 -0.68605,-1.25001 -1.05646,-1.90307 -1.56657,-2.76194 -3.45468,-6.22102 -3.41652,-6.25918 0.0226,-0.0226 0.106,0.0629 0.18522,0.19004 0.14173,0.22751 2.78709,4.9654 3.58201,6.41546 0.22375,0.40816 0.59767,1.08719 0.83093,1.50895 0.23326,0.42177 0.38669,0.76609 0.34095,0.76517 -0.0457,-8.9e-4 -0.25549,-0.32374 -0.46613,-0.71737 z m -11.37691,0.3759 c -0.0307,-0.0799 -0.0131,-0.17157 0.0389,-0.20373 0.0521,-0.0322 0.0946,0.0332 0.0946,0.14525 0,0.23892 -0.055,0.26302 -0.13352,0.0585 z m 19.17564,0.0377 c -0.0366,-0.0592 -0.0169,-0.15713 0.0436,-0.21769 0.0808,-0.0809 0.11011,-0.0523 0.11011,0.10757 0,0.23891 -0.0514,0.27572 -0.15375,0.11012 z m -19.18632,-0.67718 c -0.0313,-0.0507 -0.0117,-0.12008 0.0436,-0.15426 0.0553,-0.0342 0.10056,0.007 0.10056,0.0921 0,0.1738 -0.0594,0.19939 -0.1442,0.0622 z m 19.19588,0 c -0.0313,-0.0507 -0.0117,-0.12008 0.0436,-0.15426 0.0553,-0.0342 0.10056,0.007 0.10056,0.0921 0,0.1738 -0.0594,0.19939 -0.14419,0.0622 z m -19.14282,-0.65824 c 0.005,-0.11527 0.0282,-0.13872 0.0598,-0.0598 0.0286,0.0714 0.0251,0.15677 -0.008,0.18966 -0.0329,0.0329 -0.0563,-0.0256 -0.052,-0.12987 z m 19.14282,0.0645 c -0.0313,-0.0507 -0.0117,-0.12008 0.0436,-0.15426 0.0553,-0.0342 0.10056,0.007 0.10056,0.0921 0,0.17381 -0.0594,0.1994 -0.14419,0.0621 z m -19.19588,-0.59368 c -0.0313,-0.0507 -0.0117,-0.12008 0.0436,-0.15427 0.0553,-0.0342 0.10056,0.007 0.10056,0.0921 0,0.17381 -0.0594,0.1994 -0.1442,0.0622 z m 19.19986,0.006 c -0.0426,-0.069 -0.0508,-0.15212 -0.0181,-0.18478 0.0886,-0.0885 0.18511,0.0417 0.13728,0.18518 -0.0335,0.10054 -0.0568,0.10047 -0.11916,-4e-4 z m -19.19986,-0.60013 c -0.0313,-0.0507 -0.0117,-0.12008 0.0436,-0.15426 0.0553,-0.0342 0.10056,0.007 0.10056,0.0921 0,0.1738 -0.0594,0.19939 -0.1442,0.0622 z m 9.11326,-0.2301 c -0.14455,-0.25266 -2.60316,-4.6544 -4.4349,-7.93993 -0.27315,-0.48995 -0.36648,-0.77628 -0.1919,-0.58874 0.0481,0.0517 0.78897,1.363 1.64631,2.91401 1.3966,2.52658 2.37693,4.28178 3.08103,5.51634 0.13191,0.23129 0.20456,0.42025 0.16145,0.4199 -0.0431,-2.9e-4 -0.161,-0.14505 -0.26199,-0.32158 z m 10.09208,0.17379 c -0.0313,-0.0816 -0.0138,-0.14842 0.0389,-0.14842 0.0527,0 0.0958,0.0668 0.0958,0.14842 0,0.0816 -0.0175,0.14842 -0.0389,0.14842 -0.0214,0 -0.0645,-0.0668 -0.0958,-0.14842 z m -19.25904,-0.64316 c 0,-0.0544 0.0445,-0.099 0.099,-0.099 0.0544,0 0.099,0.0445 0.099,0.099 0,0.0544 -0.0445,0.0989 -0.099,0.0989 -0.0544,0 -0.099,-0.0445 -0.099,-0.0989 z m 19.19588,0.006 c 0,-0.0512 0.0445,-0.12062 0.099,-0.15426 0.0544,-0.0336 0.0989,0.008 0.0989,0.0931 0,0.0848 -0.0445,0.15426 -0.0989,0.15426 -0.0544,0 -0.099,-0.0419 -0.099,-0.0931 z m -19.14218,-0.59268 c -0.0313,-0.0507 -0.0117,-0.12008 0.0436,-0.15426 0.0553,-0.0342 0.10056,0.007 0.10056,0.0921 0,0.1738 -0.0594,0.19939 -0.1442,0.0622 z m 19.14218,-0.001 c 0,-0.0512 0.0445,-0.12063 0.099,-0.15426 0.0544,-0.0336 0.0989,0.008 0.0989,0.0931 0,0.0848 -0.0445,0.15426 -0.0989,0.15426 -0.0544,0 -0.099,-0.0419 -0.099,-0.0931 z m -19.14218,-0.59269 c -0.0313,-0.0507 -0.0117,-0.12008 0.0436,-0.15426 0.0553,-0.0342 0.10056,0.007 0.10056,0.0921 0,0.1738 -0.0594,0.19939 -0.1442,0.0622 z m 19.19588,0 c -0.0313,-0.0507 -0.0117,-0.12008 0.0436,-0.15426 0.0553,-0.0342 0.10056,0.007 0.10056,0.0921 0,0.1738 -0.0594,0.19939 -0.14419,0.0622 z m -19.19588,-0.59369 c -0.0313,-0.0507 -0.0117,-0.12008 0.0436,-0.15426 0.0553,-0.0342 0.10056,0.007 0.10056,0.0921 0,0.17381 -0.0594,0.1994 -0.1442,0.0622 z m 19.19986,0.006 c -0.0426,-0.069 -0.0508,-0.15211 -0.0181,-0.18477 0.0886,-0.0886 0.18511,0.0417 0.13728,0.18517 -0.0335,0.10055 -0.0568,0.10047 -0.11916,-3.9e-4 z m -19.19171,-0.58695 c -0.0268,-0.0434 -0.008,-0.1436 0.0421,-0.22263 0.071,-0.11219 0.0912,-0.0949 0.0924,0.0789 0.002,0.22887 -0.0487,0.28257 -0.13453,0.1437 z m 19.13403,-0.11896 c 0,-0.0544 0.0445,-0.099 0.099,-0.099 0.0544,0 0.0989,0.0445 0.0989,0.099 0,0.0544 -0.0445,0.099 -0.0989,0.099 -0.0544,0 -0.099,-0.0445 -0.099,-0.099 z m -19.19588,-0.58785 c 0,-0.0512 0.0445,-0.12062 0.099,-0.15426 0.0544,-0.0336 0.099,0.008 0.099,0.0931 0,0.0848 -0.0445,0.15426 -0.099,0.15426 -0.0544,0 -0.099,-0.0419 -0.099,-0.0931 z m 19.24958,0.001 c -0.0313,-0.0507 -0.0117,-0.12008 0.0436,-0.15426 0.0553,-0.0342 0.10056,0.007 0.10056,0.0921 0,0.17381 -0.0594,0.1994 -0.14419,0.0622 z m -19.19588,-0.59368 c -0.0313,-0.0507 -0.0117,-0.12008 0.0436,-0.15426 0.0553,-0.0342 0.10056,0.007 0.10056,0.0921 0,0.1738 -0.0594,0.19939 -0.1442,0.0622 z m 19.14218,-0.001 c 0,-0.0512 0.0445,-0.12063 0.099,-0.15426 0.0544,-0.0336 0.0989,0.008 0.0989,0.0931 0,0.0849 -0.0445,0.15427 -0.0989,0.15427 -0.0544,0 -0.099,-0.0419 -0.099,-0.0931 z m -19.14218,-0.59269 c -0.0313,-0.0507 -0.0117,-0.12008 0.0436,-0.15426 0.0553,-0.0342 0.10056,0.007 0.10056,0.0921 0,0.1738 -0.0594,0.19939 -0.1442,0.0621 z m 17.2127,-2.64782 c -0.77259,-1.40367 -1.35548,-2.3553 -1.45948,-2.38275 -0.18919,-0.0499 -0.23932,-0.2205 -0.0648,-0.2205 0.0596,0 -0.0162,-0.2115 -0.16831,-0.47001 -0.76691,-1.30286 -1.91138,-3.42956 -1.86862,-3.47232 0.0647,-0.0647 0.0264,-0.12624 0.76037,1.22126 0.88659,1.62762 3.92427,7.07356 4.09606,7.3434 0.0767,0.12053 0.13953,0.24298 0.13953,0.2721 0,0.2444 -0.32345,-0.27213 -1.43474,-2.29118 z m -17.2664,1.94835 c 0,-0.0544 0.0445,-0.099 0.099,-0.099 0.0544,0 0.099,0.0445 0.099,0.099 0,0.0544 -0.0445,0.0989 -0.099,0.0989 -0.0544,0 -0.099,-0.0445 -0.099,-0.0989 z m 0.0632,-0.64316 c 0.0313,-0.0816 0.0745,-0.14843 0.0958,-0.14843 0.0214,0 0.0389,0.0668 0.0389,0.14843 0,0.0816 -0.0431,0.14842 -0.0958,0.14842 -0.0527,0 -0.0702,-0.0668 -0.0389,-0.14842 z m 19.13271,0.0553 c 0,-0.0512 0.0445,-0.12063 0.099,-0.15426 0.0544,-0.0336 0.0989,0.008 0.0989,0.0931 0,0.0848 -0.0445,0.15426 -0.0989,0.15426 -0.0544,0 -0.099,-0.0419 -0.099,-0.0931 z m -19.08912,-0.65725 c 0.005,-0.11527 0.0282,-0.13871 0.0598,-0.0598 0.0286,0.0714 0.0251,0.15677 -0.008,0.18965 -0.0329,0.0329 -0.0563,-0.0256 -0.052,-0.12987 z m 19.08912,0.0636 c 0,-0.0512 0.0445,-0.12063 0.099,-0.15426 0.0544,-0.0336 0.0989,0.008 0.0989,0.0931 0,0.0848 -0.0445,0.15426 -0.0989,0.15426 -0.0544,0 -0.099,-0.0419 -0.099,-0.0931 z m -19.14218,-0.59269 c -0.0313,-0.0507 -0.0117,-0.12008 0.0436,-0.15426 0.0553,-0.0342 0.10056,0.007 0.10056,0.0921 0,0.17381 -0.0594,0.1994 -0.1442,0.0622 z m 19.19588,0 c -0.0313,-0.0507 -0.0117,-0.12008 0.0436,-0.15426 0.0553,-0.0342 0.10056,0.007 0.10056,0.0921 0,0.17381 -0.0594,0.1994 -0.14419,0.0622 z m -19.19588,-0.59368 c -0.0313,-0.0507 -0.0117,-0.12008 0.0436,-0.15427 0.0553,-0.0342 0.10056,0.007 0.10056,0.0921 0,0.17381 -0.0594,0.1994 -0.1442,0.0622 z m 19.19588,0 c -0.0313,-0.0507 -0.0117,-0.12008 0.0436,-0.15427 0.0553,-0.0342 0.10056,0.007 0.10056,0.0921 0,0.17381 -0.0594,0.1994 -0.14419,0.0622 z m -0.01,-0.60915 c -0.0366,-0.0592 -0.0169,-0.15712 0.0436,-0.21768 0.0809,-0.0809 0.11012,-0.0523 0.11012,0.10756 0,0.23891 -0.0514,0.27573 -0.15375,0.11012 z m -19.13326,-0.74173 c 0.005,-0.11527 0.0282,-0.13872 0.0598,-0.0598 0.0286,0.0714 0.0251,0.15677 -0.008,0.18965 -0.0329,0.0329 -0.0563,-0.0256 -0.052,-0.12987 z m 19.14282,0.0645 c -0.0313,-0.0507 -0.0117,-0.12007 0.0436,-0.15426 0.0553,-0.0342 0.10056,0.007 0.10056,0.0921 0,0.17381 -0.0594,0.1994 -0.14419,0.0622 z m -19.1797,-0.63319 c -0.08,-0.20849 0.18744,-0.34304 0.35294,-0.17754 0.0835,0.0835 0.0713,0.11208 -0.0479,0.11208 -0.088,0 -0.17777,0.0534 -0.19953,0.11868 -0.0244,0.0733 -0.0648,0.0529 -0.10553,-0.0532 z m 19.22553,0.05 c 0,-0.0635 -0.0668,-0.11544 -0.14842,-0.11544 -0.0816,0 -0.14843,-0.0445 -0.14843,-0.099 0,-0.0544 0.0682,-0.0989 0.15153,-0.0989 0.16144,0 0.31024,0.26385 0.20701,0.36707 -0.0339,0.0339 -0.0617,0.01 -0.0617,-0.0537 z m -18.45277,-0.216 c 0.0342,-0.0553 0.1036,-0.0749 0.15426,-0.0436 0.13724,0.0848 0.11165,0.14419 -0.0622,0.14419 -0.0849,0 -0.1263,-0.0452 -0.0921,-0.10056 z m 0.64216,0.002 c 0,-0.0544 0.0668,-0.0989 0.14842,-0.0989 0.0816,0 0.14842,0.0445 0.14842,0.0989 0,0.0544 -0.0668,0.099 -0.14842,0.099 -0.0816,0 -0.14842,-0.0445 -0.14842,-0.099 z m 0.69264,0 c 0,-0.0544 0.0668,-0.0989 0.14842,-0.0989 0.0816,0 0.14842,0.0445 0.14842,0.0989 0,0.0544 -0.0668,0.099 -0.14842,0.099 -0.0816,0 -0.14842,-0.0445 -0.14842,-0.099 z m 1.38526,0 c 0,-0.0544 0.0445,-0.0989 0.099,-0.0989 0.0544,0 0.099,0.0445 0.099,0.0989 0,0.0544 -0.0445,0.099 -0.099,0.099 -0.0544,0 -0.099,-0.0445 -0.099,-0.099 z m 0.64317,0 c 0.0336,-0.0544 0.10305,-0.0989 0.15426,-0.0989 0.0512,0 0.0931,0.0445 0.0931,0.0989 0,0.0544 -0.0694,0.099 -0.15426,0.099 -0.0848,0 -0.12674,-0.0445 -0.0931,-0.099 z m 0.69263,0 c 0.0336,-0.0544 0.10305,-0.0989 0.15426,-0.0989 0.0512,0 0.0931,0.0445 0.0931,0.0989 0,0.0544 -0.0694,0.099 -0.15426,0.099 -0.0849,0 -0.12674,-0.0445 -0.0931,-0.099 z m 0.64316,0 c 0,-0.0544 0.0419,-0.0989 0.0931,-0.0989 0.0512,0 0.12063,0.0445 0.15426,0.0989 0.0336,0.0544 -0.008,0.099 -0.0931,0.099 -0.0848,0 -0.15426,-0.0445 -0.15426,-0.099 z m 0.67285,-0.0198 c 0.0923,-0.0923 0.14512,-0.0923 0.23747,0 0.0924,0.0924 0.066,0.11874 -0.11874,0.11874 -0.1847,0 -0.21108,-0.0264 -0.11873,-0.11874 z m 0.66295,0.0198 c 0.0336,-0.0544 0.10305,-0.0989 0.15426,-0.0989 0.0512,0 0.0931,0.0445 0.0931,0.0989 0,0.0544 -0.0694,0.099 -0.15427,0.099 -0.0848,0 -0.12674,-0.0445 -0.0931,-0.099 z m 0.69263,0 c 0.0336,-0.0544 0.10305,-0.0989 0.15426,-0.0989 0.0512,0 0.0931,0.0445 0.0931,0.0989 0,0.0544 -0.0694,0.099 -0.15426,0.099 -0.0848,0 -0.12674,-0.0445 -0.0931,-0.099 z m 0.69264,0 c 0.0336,-0.0544 0.10305,-0.0989 0.15426,-0.0989 0.0512,0 0.0931,0.0445 0.0931,0.0989 0,0.0544 -0.0694,0.099 -0.15427,0.099 -0.0848,0 -0.12674,-0.0445 -0.0931,-0.099 z m 0.64316,0 c 0,-0.0544 0.0668,-0.0989 0.14842,-0.0989 0.0816,0 0.14842,0.0445 0.14842,0.0989 0,0.0544 -0.0668,0.099 -0.14842,0.099 -0.0816,0 -0.14842,-0.0445 -0.14842,-0.099 z m 0.67284,-0.0198 c 0.0924,-0.0923 0.14513,-0.0923 0.23748,0 0.0923,0.0924 0.066,0.11874 -0.11874,0.11874 -0.1847,0 -0.21109,-0.0264 -0.11874,-0.11874 z m 0.66295,0.0198 c 0.0336,-0.0544 0.10305,-0.0989 0.15426,-0.0989 0.0512,0 0.0931,0.0445 0.0931,0.0989 0,0.0544 -0.0694,0.099 -0.15426,0.099 -0.0848,0 -0.12674,-0.0445 -0.0931,-0.099 z m 0.69264,0 c 0.0336,-0.0544 0.10305,-0.0989 0.15426,-0.0989 0.0512,0 0.0931,0.0445 0.0931,0.0989 0,0.0544 -0.0694,0.099 -0.15427,0.099 -0.0848,0 -0.12674,-0.0445 -0.0931,-0.099 z m 0.69263,0 c 0.0336,-0.0544 0.10305,-0.0989 0.15426,-0.0989 0.0512,0 0.0931,0.0445 0.0931,0.0989 0,0.0544 -0.0694,0.099 -0.15426,0.099 -0.0848,0 -0.12674,-0.0445 -0.0931,-0.099 z m 0.69264,0 c 0.0336,-0.0544 0.10305,-0.0989 0.15426,-0.0989 0.0512,0 0.0931,0.0445 0.0931,0.0989 0,0.0544 -0.0694,0.099 -0.15427,0.099 -0.0848,0 -0.12674,-0.0445 -0.0931,-0.099 z m 0.64316,0 c 0,-0.0544 0.0668,-0.0989 0.14842,-0.0989 0.0816,0 0.14842,0.0445 0.14842,0.0989 0,0.0544 -0.0668,0.099 -0.14842,0.099 -0.0816,0 -0.14842,-0.0445 -0.14842,-0.099 z m 0.67284,-0.0198 c 0.0924,-0.0923 0.14513,-0.0923 0.23748,0 0.0923,0.0924 0.066,0.11874 -0.11874,0.11874 -0.1847,0 -0.21109,-0.0264 -0.11874,-0.11874 z m 0.66295,0.0198 c 0.0336,-0.0544 0.10305,-0.0989 0.15426,-0.0989 0.0512,0 0.0931,0.0445 0.0931,0.0989 0,0.0544 -0.0694,0.099 -0.15426,0.099 -0.0848,0 -0.12674,-0.0445 -0.0931,-0.099 z m 0.64316,0 c 0,-0.0544 0.0668,-0.0989 0.14842,-0.0989 0.0816,0 0.14843,0.0445 0.14843,0.0989 0,0.0544 -0.0668,0.099 -0.14843,0.099 -0.0816,0 -0.14842,-0.0445 -0.14842,-0.099 z m 1.38527,0 c 0,-0.0544 0.0419,-0.0989 0.0931,-0.0989 0.0512,0 0.12063,0.0445 0.15426,0.0989 0.0336,0.0544 -0.008,0.099 -0.0931,0.099 -0.0848,0 -0.15426,-0.0445 -0.15426,-0.099 z m 0.67285,-0.0198 c 0.0924,-0.0923 0.14512,-0.0923 0.23747,0 0.0924,0.0924 0.066,0.11874 -0.11873,0.11874 -0.18471,0 -0.21109,-0.0264 -0.11874,-0.11874 z m 0.66295,0.0198 c 0.0336,-0.0544 0.10305,-0.0989 0.15426,-0.0989 0.0512,0 0.0931,0.0445 0.0931,0.0989 0,0.0544 -0.0694,0.099 -0.15426,0.099 -0.0848,0 -0.12675,-0.0445 -0.0931,-0.099 z m 0.69263,0 c 0.0336,-0.0544 0.10305,-0.0989 0.15426,-0.0989 0.0512,0 0.0931,0.0445 0.0931,0.0989 0,0.0544 -0.0694,0.099 -0.15426,0.099 -0.0848,0 -0.12674,-0.0445 -0.0931,-0.099 z m -10.63689,-2.37474 c 0,-0.0544 0.0419,-0.099 0.0931,-0.099 0.0512,0 0.12063,0.0445 0.15426,0.099 0.0336,0.0544 -0.008,0.0989 -0.0931,0.0989 -0.0848,0 -0.15426,-0.0445 -0.15426,-0.0989 z m 0.69264,0 c 0,-0.0544 0.0419,-0.099 0.0931,-0.099 0.0512,0 0.12062,0.0445 0.15426,0.099 0.0336,0.0544 -0.008,0.0989 -0.0931,0.0989 -0.0848,0 -0.15426,-0.0445 -0.15426,-0.0989 z m 0.69263,0.003 c 0,-0.0527 0.0668,-0.0702 0.14842,-0.0389 0.0816,0.0313 0.14843,0.0745 0.14843,0.0958 0,0.0214 -0.0668,0.0389 -0.14843,0.0389 -0.0816,0 -0.14842,-0.0431 -0.14842,-0.0958 z m 0.64316,-0.003 c 0.0336,-0.0544 0.10306,-0.099 0.15426,-0.099 0.0512,0 0.0931,0.0445 0.0931,0.099 0,0.0544 -0.0694,0.0989 -0.15426,0.0989 -0.0848,0 -0.12674,-0.0445 -0.0931,-0.0989 z m 0.72356,0.0313 c 0.0714,-0.0286 0.15677,-0.0251 0.18965,0.008 0.0329,0.0329 -0.0256,0.0563 -0.12987,0.052 -0.11527,-0.005 -0.13871,-0.0282 -0.0598,-0.0598 z m 0.66271,-0.033 c 0.0342,-0.0553 0.1036,-0.0749 0.15426,-0.0436 0.13725,0.0848 0.11166,0.14419 -0.0622,0.14419 -0.0848,0 -0.12629,-0.0453 -0.0921,-0.10056 z m 0.54322,-0.14097 c 0,-0.0848 0.0445,-0.15426 0.0989,-0.15426 0.0544,0 0.099,0.0419 0.099,0.0931 0,0.0512 -0.0445,0.12063 -0.099,0.15426 -0.0544,0.0336 -0.0989,-0.008 -0.0989,-0.0931 z m -4.24695,-0.31092 c 0.005,-0.11527 0.0282,-0.13872 0.0598,-0.0598 0.0286,0.0714 0.0251,0.15677 -0.008,0.18965 -0.0329,0.0329 -0.0563,-0.0256 -0.052,-0.12987 z m 4.29235,-0.24571 c -0.0359,-0.058 -0.044,-0.12675 -0.0181,-0.15269 0.0259,-0.0259 0.0735,0.0215 0.10575,0.10553 0.0669,0.17436 0.01,0.20503 -0.0877,0.0472 z m -4.05279,-0.19131 c 0.0336,-0.0544 0.10568,-0.099 0.1601,-0.099 0.0544,0 0.0714,0.0445 0.0378,0.099 -0.0336,0.0544 -0.10567,0.0989 -0.1601,0.0989 -0.0544,0 -0.0714,-0.0445 -0.0378,-0.0989 z m 0.72355,-0.0676 c 0.0714,-0.0286 0.15678,-0.0251 0.18966,0.008 0.0329,0.0329 -0.0256,0.0563 -0.12987,0.052 -0.11527,-0.005 -0.13872,-0.0282 -0.0598,-0.0598 z m 0.69264,0 c 0.0714,-0.0286 0.15677,-0.0251 0.18965,0.008 0.0329,0.0329 -0.0256,0.0563 -0.12987,0.052 -0.11527,-0.005 -0.13871,-0.0282 -0.0598,-0.0598 z m 0.5875,0.002 c 0.068,-0.0275 0.17934,-0.0275 0.24737,0 0.068,0.0274 0.0124,0.0499 -0.12368,0.0499 -0.13606,0 -0.19171,-0.0225 -0.12369,-0.0499 z m 0.79777,-0.002 c 0.0714,-0.0286 0.15677,-0.0251 0.18965,0.008 0.0329,0.0329 -0.0256,0.0563 -0.12987,0.052 -0.11527,-0.005 -0.13871,-0.0282 -0.0598,-0.0598 z m 0.59369,0 c 0.0714,-0.0286 0.15677,-0.0251 0.18965,0.008 0.0329,0.0329 -0.0256,0.0563 -0.12987,0.052 -0.11527,-0.005 -0.13872,-0.0282 -0.0598,-0.0598 z m 9.76067,25.20034 c 0,-2.25848 0.013,-3.18241 0.0289,-2.05317 0.0159,1.12925 0.0159,2.9771 0,4.10634 -0.0159,1.12924 -0.0289,0.20532 -0.0289,-2.05317 z m -22.27282,2.77054 c 0,-0.517 0.0167,-0.7285 0.0371,-0.47 0.0204,0.2585 0.0204,0.6815 0,0.94 -0.0204,0.2585 -0.0371,0.047 -0.0371,-0.47 z m 0.0104,-6.97582 c 2e-5,-2.88433 0.0127,-4.05002 0.0281,-2.59042 0.0154,1.4596 0.0154,3.81951 -3e-5,5.24424 -0.0154,1.42472 -0.0281,0.23051 -0.0281,-2.65382 z m 22.26329,-7.66846 c 0,-2.91154 0.0126,-4.10262 0.028,-2.64685 0.0154,1.45577 0.0154,3.83794 0,5.29371 -0.0154,1.45577 -0.028,0.26468 -0.028,-2.64686 z m -22.28678,-6.29548 c -0.0248,-7.93764 -0.0478,-7.59768 0.57572,-8.50393 0.17021,-0.24739 0.48838,-0.5794 0.70705,-0.73781 0.49862,-0.36119 1.41801,-0.71067 1.75421,-0.6668 0.18843,0.0246 0.11281,0.0652 -0.28903,0.15537 -1.10567,0.248 -2.00421,0.9858 -2.43335,1.99806 -0.17827,0.42052 -0.19163,0.84951 -0.24039,7.71793 l -0.0516,7.27267 z m 22.20305,-1.8408 c -0.0463,-0.42057 -0.0468,-0.84357 -10e-4,-0.94 0.0992,-0.20978 0.16647,0.49972 0.11702,1.23467 -0.0287,0.42702 -0.0393,0.40007 -0.11579,-0.29467 z m 0.0261,-3.53956 c -0.0605,-2.06257 -0.11426,-2.31684 -0.65565,-3.10073 -0.14422,-0.20881 -0.45697,-0.51366 -0.69501,-0.67743 -0.23804,-0.16378 -0.40861,-0.32195 -0.37906,-0.35151 0.063,-0.063 0.64567,0.36731 1.01195,0.74748 0.1406,0.14593 0.37263,0.51023 0.51562,0.80955 0.24205,0.50668 0.2624,0.6568 0.2951,2.17685 0.0193,0.89795 0.019,1.78848 -6e-4,1.97896 -0.0197,0.19047 -0.0612,-0.52195 -0.0923,-1.58317 z m -17.4033,-4.5494 c 0,-0.0616 1.58185,-0.0961 4.3537,-0.0949 2.71166,0.001 4.35371,0.0376 4.35371,0.0967 0,0.0591 -1.64077,0.0949 -4.35371,0.0949 -2.77059,0 -4.3537,-0.0352 -4.3537,-0.0967 z m 10.09268,-0.002 c 0,-0.1168 3.84521,-0.1168 4.30423,0 0.16479,0.0419 -0.72657,0.0807 -2.0037,0.0872 -1.47553,0.008 -2.30053,-0.0238 -2.30053,-0.0872 z m -38.93597,30.87172 c -0.0336,-0.0544 0.008,-0.099 0.0931,-0.099 0.0848,0 0.15426,0.0445 0.15426,0.099 0,0.0544 -0.0419,0.099 -0.0931,0.099 -0.0512,0 -0.12062,-0.0445 -0.15426,-0.099 z m 0.72356,0.0314 c 0.0714,-0.0286 0.15677,-0.0251 0.18965,0.008 0.0329,0.0329 -0.0256,0.0563 -0.12987,0.052 -0.11527,-0.005 -0.13872,-0.0282 -0.0598,-0.0598 z m 0.5875,0.002 c 0.068,-0.0274 0.17934,-0.0274 0.24737,0 0.068,0.0274 0.0124,0.0499 -0.12369,0.0499 -0.13605,0 -0.19171,-0.0225 -0.12368,-0.0499 z m 0.61842,-0.0334 c 0,-0.0544 0.0694,-0.099 0.15427,-0.099 0.0848,0 0.12674,0.0445 0.0931,0.099 -0.0336,0.0544 -0.10305,0.099 -0.15426,0.099 -0.0512,0 -0.0931,-0.0445 -0.0931,-0.099 z m -2.59119,-0.16654 c 0.0714,-0.0286 0.15677,-0.0251 0.18965,0.008 0.0329,0.0329 -0.0256,0.0563 -0.12987,0.052 -0.11527,-0.005 -0.13872,-0.0282 -0.0598,-0.0598 z m 3.3333,-0.0314 c 0.0336,-0.0544 0.10305,-0.0989 0.15426,-0.0989 0.0512,0 0.0931,0.0445 0.0931,0.0989 0,0.0544 -0.0694,0.099 -0.15426,0.099 -0.0848,0 -0.12674,-0.0445 -0.0931,-0.099 z m -3.95791,-0.0989 c -0.0336,-0.0544 0.008,-0.099 0.0931,-0.099 0.0848,0 0.15426,0.0445 0.15426,0.099 0,0.0544 -0.0419,0.0989 -0.0931,0.0989 -0.0512,0 -0.12063,-0.0445 -0.15426,-0.0989 z m 4.50213,-0.0389 c 0,-0.0214 0.0668,-0.0645 0.14842,-0.0958 0.0816,-0.0313 0.14842,-0.0138 0.14842,0.0389 0,0.0527 -0.0668,0.0958 -0.14842,0.0958 -0.0816,0 -0.14842,-0.0175 -0.14842,-0.0389 z m -4.9474,-0.15901 c 0,-0.0544 0.0419,-0.099 0.0931,-0.099 0.0512,0 0.12063,0.0445 0.15426,0.099 0.0336,0.0544 -0.008,0.099 -0.0931,0.099 -0.0848,0 -0.15427,-0.0445 -0.15427,-0.099 z m 5.54108,-0.0405 c 0,-0.0188 0.0668,-0.0897 0.14842,-0.15743 0.0855,-0.071 0.14843,-0.0806 0.14843,-0.0227 0,0.0553 -0.0668,0.12611 -0.14843,0.15744 -0.0816,0.0313 -0.14842,0.0415 -0.14842,0.0227 z m -6.03581,-0.15743 c -0.0785,-0.0485 -0.12043,-0.11046 -0.0932,-0.13767 0.0272,-0.0272 0.11368,-0.01 0.19216,0.0387 0.0785,0.0485 0.12043,0.11045 0.0932,0.13766 -0.0272,0.0272 -0.11368,0.01 -0.19216,-0.0387 z m 6.6295,-0.19042 c 0,-0.0469 0.0668,-0.11088 0.14842,-0.14221 0.0816,-0.0313 0.14842,-0.0186 0.14842,0.0283 0,0.0469 -0.0668,0.11089 -0.14842,0.14221 -0.0816,0.0313 -0.14842,0.0186 -0.14842,-0.0283 z m -7.32214,-0.10643 c -0.12791,-0.0827 -0.1253,-0.0961 0.0189,-0.0974 0.092,-7.9e-4 0.19484,0.043 0.22847,0.0974 0.0774,0.12523 -0.0536,0.12523 -0.24737,0 z m 7.59787,-0.18013 c -0.10544,-0.0418 -0.14033,-0.11454 -0.0923,-0.19226 0.0425,-0.0687 0.0632,-0.30249 0.046,-0.51945 -0.0241,-0.30448 0.004,-0.39448 0.12287,-0.39448 0.0907,0 0.12831,0.0509 0.0914,0.12369 -0.0345,0.068 6.9e-4,0.0464 0.0781,-0.0479 0.0774,-0.0944 0.1698,-0.14263 0.20523,-0.10719 0.0354,0.0354 0.0644,-0.0246 0.0644,-0.13347 0,-0.26679 0.10214,-0.35141 0.263,-0.21791 0.0988,0.082 0.13279,0.0791 0.13279,-0.0114 0,-0.0675 0.0661,-0.0963 0.14842,-0.0647 0.0816,0.0313 0.14843,0.0138 0.14843,-0.0389 0,-0.0527 -0.0467,-0.0958 -0.10387,-0.0958 -0.0697,0 -0.0721,-0.0567 -0.007,-0.17241 0.0531,-0.0948 0.17773,-0.17274 0.27702,-0.17315 0.11224,-5e-4 0.19264,-0.086 0.21251,-0.22606 0.0176,-0.12392 0.0844,-0.21883 0.14842,-0.21091 0.25165,0.0311 0.34281,-0.017 0.39249,-0.20694 0.0976,-0.37315 0.24631,-0.19795 0.231,0.2721 -0.0186,0.5704 -0.11501,0.74522 -0.36696,0.66525 -0.15329,-0.0487 -0.18484,-0.0163 -0.16483,0.16914 0.022,0.20371 -0.0222,0.2327 -0.39577,0.25973 -0.23129,0.0167 -0.42053,0.0771 -0.42053,0.13427 0,0.0571 0.0624,0.0799 0.13875,0.0506 0.19406,-0.0745 0.27685,0.0374 0.14512,0.19612 -0.0669,0.0807 -0.32882,0.13526 -0.66704,0.13907 -0.47093,0.005 -0.51889,0.0214 -0.31088,0.10438 0.13528,0.054 0.32452,0.0776 0.42053,0.0525 0.096,-0.0251 0.17457,-0.0142 0.17457,0.0242 0,0.14348 -0.24485,0.30737 -0.45921,0.30737 -0.12196,0 -0.24895,0.044 -0.2822,0.0978 -0.0363,0.0588 0.0107,0.0711 0.11785,0.0309 0.15666,-0.0588 0.16182,-0.0466 0.0425,0.10009 -0.0747,0.0918 -0.14148,0.16381 -0.14843,0.15999 -0.007,-0.004 -0.0889,-0.0372 -0.18215,-0.0742 z m -8.19156,-0.11671 c -0.1279,-0.0827 -0.12529,-0.0961 0.0189,-0.0974 0.092,-8e-4 0.19484,0.043 0.22847,0.0974 0.0774,0.12523 -0.0536,0.12523 -0.24737,0 z m -0.64316,-0.29684 c -0.0336,-0.0544 -0.0166,-0.099 0.0378,-0.099 0.0544,0 0.12646,0.0445 0.1601,0.099 0.0336,0.0544 0.0166,0.0989 -0.0378,0.0989 -0.0544,0 -0.12646,-0.0445 -0.1601,-0.0989 z m 4.5516,-0.16315 c -0.74396,-0.11919 -1.56188,-0.38633 -2.66487,-0.87036 -3.19053,-1.40011 -4.35112,-1.86389 -4.38793,-1.75344 -0.0596,0.17885 -0.23217,0.13596 -0.19946,-0.0496 0.0309,-0.17553 -0.0317,-0.20495 -5.11621,-2.40315 -3.56918,-1.54308 -10.34121,-4.4818 -13.55585,-5.88256 -1.5238,-0.66399 -3.69845,-1.60563 -4.83256,-2.09254 -2.25108,-0.96645 -2.75908,-1.29855 -2.9473,-1.92679 -0.0637,-0.21271 -0.15379,-0.36332 -0.20013,-0.33468 -0.1458,0.0901 -0.0914,-0.12735 0.0642,-0.25645 0.0816,-0.0678 0.14842,-0.2016 0.14842,-0.29744 0,-0.0959 0.18072,-0.33754 0.4016,-0.53709 0.46018,-0.41574 3.52323,-1.96987 3.72775,-1.89139 0.0848,0.0325 0.10912,0.009 0.0648,-0.0626 -0.0477,-0.0773 -0.0155,-0.0934 0.099,-0.0495 0.0934,0.0358 0.14661,0.0276 0.11828,-0.0182 -0.0694,-0.11225 0.42382,-0.33002 0.55868,-0.24667 0.0588,0.0363 0.0793,0.0214 0.0456,-0.0331 -0.06,-0.0971 6.0633,-3.15674 7.3528,-3.67391 0.57188,-0.22936 0.78024,-0.25816 1.88001,-0.25988 l 1.23685,-0.002 2.57264,0.85615 c 2.33926,0.77848 9.56079,3.14053 13.25901,4.33681 0.81631,0.26406 3.7328,1.21456 6.48108,2.11222 2.74827,0.89767 5.6425,1.83739 6.4316,2.08828 0.78911,0.25089 1.66706,0.5646 1.951,0.69713 0.59954,0.27985 1.24575,0.8343 1.56877,1.346 0.2649,0.41962 0.41828,1.07714 0.25126,1.07714 -0.0605,0 -0.10996,0.0777 -0.10996,0.17255 0,0.15213 -2.1265,2.30115 -2.27704,2.30115 -0.0324,0 -0.21233,0.15857 -0.39987,0.35238 -0.22385,0.23133 -0.27593,0.32753 -0.1516,0.28003 0.13704,-0.0523 0.16846,-0.0385 0.11367,0.0502 -0.0416,0.0674 -0.13899,0.0982 -0.21634,0.0685 -0.18562,-0.0712 -0.98,0.63968 -0.82312,0.73663 0.0752,0.0464 0.0797,0.0921 0.0133,0.13314 -0.0556,0.0344 -0.11627,0.0168 -0.13486,-0.0389 -0.0186,-0.0558 -0.25616,0.1031 -0.52793,0.35306 -0.27177,0.24996 -0.4099,0.42788 -0.30697,0.39537 0.16066,-0.0507 0.1689,-0.0371 0.0582,0.0963 -0.0922,0.11113 -0.14904,0.12286 -0.19952,0.0412 -0.0826,-0.13363 -0.23685,0.06 -0.24112,0.30273 -0.002,0.0904 -0.0832,0.14035 -0.20868,0.12778 -0.13384,-0.0134 -0.35924,0.14258 -0.64316,0.44509 -0.2404,0.25615 -0.37254,0.41015 -0.29363,0.34222 0.20225,-0.1741 0.35131,-0.15397 0.20099,0.0271 -0.0688,0.0829 -0.19848,0.12734 -0.28826,0.0988 -0.10669,-0.0339 -0.31604,0.10929 -0.60445,0.41332 -0.24268,0.25582 -0.36223,0.40537 -0.26568,0.33232 0.23118,-0.1749 0.26621,-0.11147 0.10615,0.19223 -0.0717,0.13606 -0.13102,0.19914 -0.13182,0.14018 -0.004,-0.28372 -0.43444,-0.0269 -1.36784,0.81597 -1.08967,0.98393 -1.93152,1.47233 -3.03679,1.76178 -0.62242,0.163 -2.06574,0.26753 -2.57265,0.18631 z m 2.51659,-0.29375 c 1.14754,-0.29119 1.88385,-0.75639 3.54625,-2.24053 2.64941,-2.36531 6.46068,-5.82226 7.22595,-6.5542 0.86329,-0.82568 1.0151,-1.22033 0.72231,-1.8778 -0.20384,-0.45773 -0.90452,-1.13755 -1.45963,-1.41617 -0.20948,-0.10515 -2.251,-0.80096 -4.53669,-1.54625 -2.2857,-0.74529 -6.20403,-2.0256 -8.70741,-2.84514 -2.50338,-0.81954 -5.41987,-1.76977 -6.48108,-2.11162 -1.06122,-0.34185 -3.99997,-1.29909 -6.53056,-2.1272 -3.9809,-1.30272 -4.70777,-1.51191 -5.39266,-1.55201 -0.43537,-0.0255 -0.96968,-7.5e-4 -1.18737,0.055 -0.34422,0.0881 -0.30554,0.0944 0.29684,0.048 1.21988,-0.094 1.13544,-0.11835 12.41795,3.5812 1.87754,0.61565 5.15024,1.68263 7.27267,2.37107 2.12243,0.68843 5.21702,1.69704 6.87687,2.24134 1.65985,0.54431 3.64128,1.19307 4.40318,1.4417 1.51211,0.49345 1.67106,0.57417 1.94307,0.9867 0.41996,0.63693 0.22694,1.06488 -0.93945,2.08292 -0.49757,0.43428 -1.83973,1.60384 -2.98258,2.59902 -1.14284,0.99517 -2.69276,2.34821 -3.44426,3.00675 -0.7515,0.65853 -1.60994,1.35846 -1.90763,1.55541 -0.74539,0.49312 -1.70222,0.79298 -2.71235,0.85 -1.46858,0.0829 -0.61348,0.40652 -14.0582,-5.32034 -2.15383,-0.91743 -4.03367,-1.71278 -4.17743,-1.76744 -0.25311,-0.0962 -3.39575,-1.42931 -11.37521,-4.82525 -2.51715,-1.07126 -3.8857,-1.70457 -3.98265,-1.84299 -0.1963,-0.28025 -0.1878,-0.84909 0.016,-1.07433 0.27522,-0.30412 -0.0334,-0.20252 -0.42242,0.13908 -0.49457,0.43424 -0.6668,0.86489 -0.53767,1.34444 0.18894,0.70169 0.50608,0.88541 4.55635,2.6395 2.09522,0.9074 4.14344,1.79698 4.5516,1.97684 0.885,0.39 5.59081,2.43296 9.67701,4.20114 1.61636,0.69943 4.34142,1.88141 6.05569,2.62663 5.9544,2.58844 7.37355,3.19608 7.7226,3.30664 0.99243,0.31433 2.4249,0.33368 3.55087,0.048 z m -2.51659,0.0148 c -0.0544,-0.0169 -0.35843,-0.0841 -0.67557,-0.14942 -0.31715,-0.0653 -0.55894,-0.1364 -0.53732,-0.15801 0.0216,-0.0216 0.39241,0.0305 0.82399,0.1158 0.52863,0.1045 1.09144,0.13956 1.7247,0.10744 0.54134,-0.0274 0.81411,-0.0148 0.64316,0.0297 -0.28837,0.0752 -1.77999,0.11624 -1.97896,0.0545 z m 3.50196,-0.64881 c 0.34786,-0.16457 0.65489,-0.2768 0.68228,-0.2494 0.063,0.063 -0.96673,0.54652 -1.16633,0.54772 -0.0816,4.9e-4 0.13619,-0.13376 0.48405,-0.29832 z m -6.42092,-0.35131 c -0.24489,-0.13526 -0.33395,-0.21665 -0.19789,-0.18086 0.34881,0.0918 0.97045,0.42702 0.79158,0.4269 -0.0816,-6e-5 -0.34879,-0.11077 -0.59369,-0.24604 z m -6.01108,-2.59196 c -2.5714,-1.11746 -4.67528,-2.06637 -4.67528,-2.10869 0,-0.0423 0.65676,0.21246 1.45948,0.56616 0.80271,0.35371 2.90659,1.26807 4.67528,2.03192 1.76869,0.76385 3.23436,1.40639 3.25704,1.42787 0.20996,0.19888 -0.67254,-0.15986 -4.71652,-1.91726 z m 14.81744,1.1687 c 1.02292,-0.98793 1.68693,-1.55219 1.67372,-1.42229 -0.009,0.0933 -1.81313,1.73932 -2.29762,2.09686 -0.17386,0.1283 0.1069,-0.17525 0.6239,-0.67457 z m 2.1791,-2.0145 c 0.13481,-0.1262 0.69038,-0.62713 1.2346,-1.11316 0.54421,-0.48603 1.01174,-0.90596 1.03895,-0.93317 0.0401,-0.0401 1.00242,-0.90483 2.11855,-1.9037 0.10578,-0.0947 0.20961,-0.15483 0.23073,-0.13371 0.0468,0.0468 -0.37527,0.44241 -2.79455,2.61901 -1.034,0.93028 -1.92352,1.69205 -1.9767,1.69281 -0.0532,7.9e-4 0.0136,-0.10187 0.14842,-0.22808 z m -24.54131,-2.43052 c -0.84353,-0.37104 -2.90426,-1.26617 -4.5794,-1.98918 -1.67513,-0.72301 -3.02369,-1.33657 -2.99679,-1.36347 0.0269,-0.0269 0.75183,0.25256 1.61096,0.62101 5.19271,2.22699 7.85938,3.43227 7.54345,3.40946 -0.0245,-0.002 -0.73469,-0.30679 -1.57822,-0.67782 z m 30.18907,-2.76173 c 0.14928,-0.2986 0.1958,-0.52714 0.15654,-0.76906 -0.0331,-0.20383 -0.0179,-0.32075 0.0372,-0.28668 0.0512,0.0316 0.0929,0.24414 0.0926,0.47222 -4e-4,0.29806 -0.0706,0.49817 -0.24963,0.71153 l -0.24914,0.29684 z m -39.37535,-1.22374 c -0.23618,-0.10844 -0.40891,-0.21767 -0.38387,-0.24271 0.025,-0.025 0.28507,0.0638 0.57783,0.1974 0.29276,0.13362 0.46549,0.24284 0.38386,0.24272 -0.0816,-1e-4 -0.34165,-0.089 -0.57782,-0.19741 z m 39.03247,-0.39633 c -0.15589,-0.15988 -0.26396,-0.31017 -0.24016,-0.33397 0.0238,-0.0238 0.17036,0.0894 0.32569,0.25152 0.15532,0.16212 0.26339,0.31241 0.24015,0.33396 -0.0232,0.0216 -0.1698,-0.0916 -0.32568,-0.25151 z m -42.7484,-1.21861 c -2.10878,-0.91237 -2.37646,-1.0407 -2.17073,-1.0407 0.10478,0 4.07014,1.7021 4.36331,1.87291 0.50541,0.29447 -0.25924,0.004 -2.19258,-0.83221 z m -3.75486,-1.83174 c -0.13713,-0.16298 -0.27915,-0.39027 -0.3156,-0.50511 -0.0745,-0.23471 0.12449,-1.05019 0.27965,-1.14609 0.0655,-0.0405 0.0739,0.0213 0.0239,0.17571 -0.0424,0.13096 -0.0979,0.42124 -0.12342,0.64507 -0.04,0.35107 -0.003,0.45639 0.26965,0.76685 0.17379,0.19793 0.2708,0.35987 0.21558,0.35987 -0.0552,0 -0.2126,-0.13333 -0.34973,-0.2963 z m 35.40768,12.34806 c 0.32653,-0.10698 0.81632,-0.32241 1.08843,-0.47873 0.38587,-0.22168 5.04247,-4.18311 5.92042,-5.03658 0.17538,-0.17049 0.14431,-0.2366 -0.92817,-1.97474 -0.61029,-0.98909 -1.08643,-1.82153 -1.05809,-1.84988 0.0284,-0.0283 0.39879,0.51872 0.8232,1.2157 1.37373,2.25596 1.419,2.3206 1.56572,2.2361 0.0748,-0.0431 0.78434,-0.64473 1.57672,-1.33698 1.24894,-1.09112 1.44989,-1.30767 1.50979,-1.62692 0.0931,-0.49615 -0.10094,-0.81993 -0.6548,-1.09275 -0.33412,-0.16458 -6.21912,-2.11528 -7.68295,-2.54667 -0.28875,-0.0851 -0.2529,0.10509 0.13331,0.70727 0.1674,0.26099 0.51628,0.80848 0.7753,1.21664 0.25903,0.40816 0.49823,0.76441 0.53157,0.79166 0.10289,0.0841 0.41543,0.71705 0.37435,0.75813 -0.0431,0.0431 -0.5611,-0.61024 -0.5611,-0.70776 0,-0.0339 -0.31699,-0.56009 -0.70442,-1.16923 -1.28333,-2.01774 -0.97715,-1.75864 -2.76001,-2.33566 -1.06145,-0.34354 -1.65551,-0.48877 -1.82515,-0.44619 -0.15276,0.0383 -0.2515,0.0213 -0.2515,-0.0434 0,-0.0586 0.0668,-0.0809 0.14843,-0.0496 0.0816,0.0313 0.14842,0.0317 0.14842,8.9e-4 0,-0.047 -1.21395,-0.45985 -1.35206,-0.45985 -0.0247,0 -0.0174,0.0445 0.0163,0.099 0.0336,0.0544 -0.013,0.099 -0.10369,0.099 -0.10588,0 -0.14448,-0.0531 -0.10789,-0.14842 0.0313,-0.0816 0.0175,-0.14843 -0.0308,-0.14843 -0.0483,0 -0.16549,-0.0298 -0.2605,-0.0663 -0.12381,-0.0475 -0.15081,-0.0308 -0.0953,0.059 0.0534,0.0864 0.0223,0.11466 -0.10041,0.091 -0.0978,-0.0188 -0.16608,-0.0738 -0.15169,-0.12214 0.031,-0.10422 -0.18442,-0.25477 -0.36765,-0.25691 -0.0712,-8e-4 -0.0984,0.0488 -0.0604,0.11027 0.0396,0.0641 0.0179,0.0947 -0.0511,0.0717 -0.0661,-0.022 -0.11281,-0.0795 -0.10386,-0.12762 0.0292,-0.15682 -0.31409,-0.28938 -0.39795,-0.15368 -0.0419,0.0677 -0.12634,0.0921 -0.18773,0.0542 -0.0614,-0.0379 -0.0889,-0.10578 -0.0611,-0.15073 0.0278,-0.045 -0.0197,-0.10867 -0.10543,-0.14159 -0.23273,-0.0893 -0.35712,-0.0724 -0.28818,0.0391 0.0712,0.11525 0.029,0.12286 -0.1981,0.0357 -0.12009,-0.0461 -0.13216,-0.0834 -0.0445,-0.1376 0.082,-0.0507 0.0493,-0.0969 -0.103,-0.14524 -0.12794,-0.0406 -0.25086,-0.0263 -0.28779,0.0334 -0.0413,0.0668 -0.11698,0.0711 -0.21028,0.0121 -0.12781,-0.0808 -0.12748,-0.0928 0.003,-0.0967 0.1151,-0.004 0.1087,-0.0276 -0.0285,-0.10749 -0.0973,-0.0566 -0.31994,-0.0777 -0.49473,-0.0467 -0.1966,0.0348 -0.24869,0.0265 -0.13658,-0.0218 0.1762,-0.0759 0.10419,-0.10724 -1.12123,-0.48769 -0.13193,-0.041 -0.13193,-0.0342 0,0.0607 0.1283,0.0923 0.12495,0.10697 -0.0247,0.10828 -0.0952,7.9e-4 -0.17315,-0.0653 -0.17315,-0.14691 0,-0.0816 -0.0409,-0.14842 -0.0909,-0.14842 -0.05,0 -0.17242,-0.0265 -0.27211,-0.0588 -0.15335,-0.0497 -0.1584,-0.0413 -0.0328,0.0548 0.12531,0.0959 0.1176,0.108 -0.0495,0.0777 -0.10884,-0.0198 -0.18676,-0.0889 -0.17316,-0.15375 0.0136,-0.0648 -0.0162,-0.1178 -0.0661,-0.1178 -0.05,0 -0.16859,-0.0298 -0.2636,-0.0663 -0.12571,-0.0482 -0.15111,-0.0313 -0.0933,0.0623 0.0537,0.0869 0.0349,0.11241 -0.058,0.0786 -0.0756,-0.0275 -0.12632,-0.10003 -0.11272,-0.16125 0.0136,-0.0612 -0.0161,-0.11132 -0.0661,-0.11132 -0.05,0 -0.1686,-0.0298 -0.26361,-0.0663 -0.11777,-0.0452 -0.14998,-0.0294 -0.1012,0.0495 0.0864,0.13986 -0.0334,0.14836 -0.23697,0.0168 -0.13193,-0.0853 -0.13193,-0.0968 0,-0.1037 0.0816,-0.004 0.0406,-0.0509 -0.0912,-0.10356 -0.15531,-0.0621 -0.26067,-0.0617 -0.29946,0.001 -0.0375,0.0607 -0.11423,0.0624 -0.20564,0.005 -0.12783,-0.0808 -0.12751,-0.0932 0.003,-0.1 0.0816,-0.004 0.0406,-0.0509 -0.0912,-0.10356 -0.1553,-0.0621 -0.26067,-0.0617 -0.29945,0.001 -0.0375,0.0607 -0.11423,0.0624 -0.20565,0.005 -0.12782,-0.0808 -0.1275,-0.0932 0.003,-0.1 0.0816,-0.004 0.0425,-0.0502 -0.087,-0.102 -0.15755,-0.0631 -0.27842,-0.0585 -0.36552,0.0138 -0.0981,0.0814 -0.16072,0.059 -0.2544,-0.091 -0.0914,-0.14628 -0.19389,-0.18506 -0.38709,-0.14642 -0.18533,0.0371 -0.28096,0.005 -0.32436,-0.10781 -0.0442,-0.11506 -0.13179,-0.14274 -0.31016,-0.098 -0.17992,0.0452 -0.26601,0.0171 -0.31156,-0.10163 -0.0471,-0.12265 -0.13465,-0.14827 -0.34724,-0.10158 -0.22394,0.0492 -0.2843,0.0276 -0.2843,-0.10171 0,-0.12929 -0.0604,-0.15088 -0.2843,-0.1017 -0.21259,0.0467 -0.30017,0.0211 -0.34724,-0.10158 -0.0455,-0.1187 -0.13164,-0.14678 -0.31156,-0.10162 -0.17741,0.0445 -0.26601,0.0171 -0.30933,-0.0958 -0.0422,-0.11009 -0.13253,-0.14019 -0.29684,-0.0989 -0.16432,0.0412 -0.2546,0.0111 -0.29685,-0.099 -0.0414,-0.1078 -0.13297,-0.14008 -0.28751,-0.10129 -0.13651,0.0343 -0.28582,-0.002 -0.37503,-0.0913 -0.0815,-0.0815 -0.22082,-0.12038 -0.30954,-0.0863 -0.1,0.0384 -0.2418,-0.0245 -0.3729,-0.16521 -0.11638,-0.12492 -0.22734,-0.17989 -0.24658,-0.12217 -0.0192,0.0577 -0.1214,0.0824 -0.22702,0.0547 -0.10562,-0.0276 -0.16996,-0.0859 -0.14297,-0.12962 0.0559,-0.0904 -1.22297,-0.54048 -1.30439,-0.45905 -0.0404,0.0404 2.01297,3.40292 3.40906,5.58255 0.0784,0.12244 0.10408,0.22172 0.057,0.22062 -0.0471,-10e-4 -0.75227,-1.0696 -1.56709,-2.37443 -1.28887,-2.06397 -1.50747,-2.36417 -1.68133,-2.30899 -0.17396,0.0552 -0.18285,0.0429 -0.0686,-0.0947 0.11176,-0.13466 0.0835,-0.23785 -0.19069,-0.69626 -0.25552,-0.42721 -0.39855,-0.56114 -0.6937,-0.64957 -0.99971,-0.29952 -2.41633,-0.30195 -3.3153,-0.006 -0.21215,0.0699 -1.40983,0.62373 -2.66152,1.23071 -1.25169,0.60697 -2.77673,1.34264 -3.38897,1.63483 -0.61223,0.29219 -1.11316,0.56639 -1.11316,0.60934 0,0.0887 0.15146,0.36273 0.88484,1.60102 0.28462,0.48057 0.49796,0.89329 0.47409,0.91716 -0.0239,0.0239 -0.37278,-0.51333 -0.77537,-1.19376 -0.40259,-0.68044 -0.76219,-1.23787 -0.79911,-1.23873 -0.0369,-8.9e-4 -0.93537,0.42672 -1.99656,0.9502 -1.56029,0.76968 -1.95059,1.00283 -2.03998,1.21865 -0.22764,0.54957 -0.0506,0.71041 1.53262,1.39238 1.49268,0.64296 1.56534,0.66458 1.84382,0.54851 0.1189,-0.0496 0.15925,-0.0191 0.14842,0.1119 -0.0106,0.12829 0.0649,0.18911 0.26307,0.21183 0.15288,0.0175 0.30235,0.0954 0.33217,0.17316 0.0298,0.0777 0.1804,0.14128 0.33463,0.14128 0.15423,0 0.30794,0.0445 0.34157,0.099 0.0336,0.0544 0.14213,0.099 0.2411,0.099 0.099,0 0.23537,0.0668 0.30312,0.14842 0.0677,0.0816 0.23044,0.14842 0.36154,0.14842 0.13109,0 0.26449,0.0681 0.29644,0.15137 0.0352,0.0916 0.12748,0.12935 0.23384,0.0956 0.0967,-0.0307 0.24405,0.0125 0.32753,0.096 0.0835,0.0835 0.23856,0.15178 0.34463,0.15178 0.10607,0 0.24996,0.0688 0.31976,0.15293 0.0698,0.0841 0.18626,0.13015 0.25878,0.10232 0.0725,-0.0278 0.21451,0.0381 0.31553,0.14655 0.10102,0.10843 0.25004,0.17167 0.33117,0.14054 0.0811,-0.0311 0.20462,0.0122 0.27442,0.0963 0.13483,0.16246 0.30058,0.20424 0.30058,0.0758 0,-0.0424 -0.51572,-0.89957 -1.14605,-1.90475 -0.83628,-1.33359 -1.19066,-1.81867 -1.31106,-1.79459 -0.12679,0.0254 -0.13824,0.005 -0.0494,-0.0859 0.0886,-0.0912 0.0176,-0.27173 -0.30497,-0.77512 -0.23128,-0.36093 -0.47981,-0.76755 -0.55228,-0.9036 -0.11844,-0.22234 -0.11593,-0.23431 0.0248,-0.11825 0.12966,0.10693 0.50338,0.67489 1.11267,1.69099 0.0544,0.0908 0.67348,1.08198 1.3757,2.20272 1.07104,1.70941 1.31416,2.03772 1.50895,2.03772 0.12771,0 0.2322,-0.0107 0.2322,-0.0239 0,-0.0384 -1.88535,-3.04099 -2.10101,-3.34606 -0.108,-0.15279 -0.16925,-0.30493 -0.13611,-0.33807 0.0756,-0.0756 -0.0745,-0.29573 1.34748,1.9764 0.67265,1.07483 1.28298,1.95422 1.35627,1.95422 0.0733,0 0.1589,0.0668 0.19023,0.14843 0.0313,0.0816 0.15805,0.14842 0.28162,0.14842 0.12357,0 0.2779,0.0641 0.34296,0.14254 0.0651,0.0784 0.17609,0.12036 0.24673,0.0932 0.0706,-0.0271 0.19778,0.0201 0.28254,0.10483 0.0848,0.0848 0.2409,0.15412 0.34696,0.15412 0.10607,0 0.24828,0.0668 0.31603,0.14842 0.0678,0.0816 0.23044,0.14842 0.36154,0.14842 0.1311,0 0.2645,0.0681 0.29644,0.15137 0.0352,0.0916 0.12748,0.12935 0.23384,0.0956 0.0967,-0.0307 0.24405,0.0125 0.32753,0.096 0.0835,0.0835 0.23857,0.15178 0.34463,0.15178 0.10607,0 0.24911,0.0678 0.31788,0.15065 0.0724,0.0872 0.20274,0.126 0.30945,0.0921 0.11683,-0.0371 0.20624,-0.002 0.24398,0.0967 0.0344,0.0896 0.1761,0.15524 0.33525,0.15524 0.16169,0 0.30085,0.0656 0.33656,0.15869 0.0335,0.0873 0.12371,0.13459 0.20047,0.10513 0.0768,-0.0295 0.23378,0.0281 0.34891,0.128 0.11776,0.10213 0.29388,0.15944 0.4026,0.13101 0.12114,-0.0317 0.21613,0.009 0.25453,0.10911 0.0337,0.0878 0.16305,0.15965 0.28746,0.15965 0.12441,0 0.25301,0.0699 0.28577,0.15524 0.0386,0.10058 0.12669,0.13394 0.25019,0.0947 0.12465,-0.0396 0.25916,0.0131 0.3887,0.15212 0.11743,0.12604 0.24758,0.18203 0.31962,0.13751 0.0714,-0.0441 0.17461,-0.003 0.2502,0.10083 0.0731,0.0999 0.19452,0.15068 0.28112,0.11744 0.0872,-0.0334 0.23429,0.0293 0.34349,0.14654 0.10507,0.11277 0.23495,0.1779 0.28863,0.14472 0.13346,-0.0825 0.42429,0.0388 0.35641,0.14859 -0.0566,0.0915 0.0763,0.12442 0.37814,0.0936 0.0956,-0.01 0.20154,0.0545 0.2354,0.14271 0.0339,0.0883 0.12261,0.13702 0.19722,0.10839 0.17929,-0.0688 0.44615,0.0375 0.37662,0.15 -0.0566,0.0915 0.0763,0.12442 0.37813,0.0936 0.0956,-0.01 0.20056,0.0519 0.23322,0.13703 0.0342,0.0891 0.17628,0.15475 0.33506,0.15475 0.15915,0 0.30085,0.0656 0.33524,0.15525 0.0397,0.10333 0.12607,0.13413 0.25845,0.0921 0.13237,-0.042 0.21879,-0.0112 0.25844,0.0921 0.0344,0.0896 0.1761,0.15524 0.33524,0.15524 0.16169,0 0.30085,0.0656 0.33657,0.15869 0.0378,0.0985 0.12257,0.13502 0.22342,0.0963 0.0993,-0.0381 0.23757,0.0182 0.35558,0.14486 0.10619,0.11398 0.25632,0.18296 0.33363,0.1533 0.0773,-0.0297 0.23695,0.0425 0.35476,0.16026 0.12925,0.12925 0.22901,0.16981 0.25152,0.10226 0.0205,-0.0616 0.10097,-0.0875 0.17878,-0.0576 0.0778,0.0299 0.11971,0.0895 0.0931,0.13249 -0.0632,0.1022 0.23644,0.21633 0.36283,0.13822 0.0537,-0.0332 0.18151,0.0298 0.28407,0.13984 0.11743,0.12605 0.26117,0.18063 0.38821,0.14741 0.13681,-0.0358 0.20174,-0.005 0.20174,0.0957 0,0.0816 0.0891,0.17173 0.19803,0.20021 0.10892,0.0285 0.17308,0.0114 0.14258,-0.0379 -0.0725,-0.11724 0.0651,-0.11223 0.25308,0.009 0.1222,0.079 0.12366,0.0962 0.008,0.0974 -0.25897,0.003 -0.002,0.14309 0.2687,0.14653 0.147,0.002 0.27441,0.0439 0.28314,0.0935 0.0247,0.14013 0.34644,0.28968 0.41644,0.19357 0.0343,-0.0471 0.16167,-0.0892 0.28298,-0.0934 0.17437,-0.006 0.19732,0.0204 0.10958,0.12608 -0.061,0.0735 -0.0935,0.15021 -0.0721,0.17039 0.10004,0.0945 1.30256,0.55833 1.34291,0.51798 0.0693,-0.0693 -0.59626,-1.05037 -0.71392,-1.05241 -0.0564,-9.9e-4 -0.10295,-0.0797 -0.10352,-0.17493 -6e-4,-0.0952 -0.56977,-1.07917 -1.26488,-2.18652 -0.6951,-1.10735 -1.24222,-2.03497 -1.21582,-2.06137 0.0523,-0.0523 0.0476,-0.0596 2.18046,3.34342 l 1.46418,2.33607 0.70841,0.29982 c 1.12047,0.47423 1.27406,0.52233 1.95027,0.61086 0.82362,0.10782 1.67454,0.0339 2.4192,-0.21004 z m -5.73897,-2.45382 c 0.0336,-0.0544 0.10568,-0.099 0.1601,-0.099 0.0544,0 0.0714,0.0445 0.0378,0.099 -0.0336,0.0544 -0.10567,0.099 -0.1601,0.099 -0.0544,0 -0.0714,-0.0445 -0.0378,-0.099 z m 0.49474,-0.39579 c 0.0336,-0.0544 0.10568,-0.099 0.1601,-0.099 0.0544,0 0.0714,0.0445 0.0378,0.099 -0.0336,0.0544 -0.10568,0.0989 -0.1601,0.0989 -0.0544,0 -0.0714,-0.0445 -0.0378,-0.0989 z m 0.49474,-0.39579 c 0.0336,-0.0544 0.10568,-0.099 0.1601,-0.099 0.0544,0 0.0714,0.0445 0.0378,0.099 -0.0336,0.0544 -0.10568,0.099 -0.1601,0.099 -0.0544,0 -0.0714,-0.0445 -0.0378,-0.099 z m 0.49474,-0.39579 c 0.0336,-0.0544 0.10568,-0.099 0.1601,-0.099 0.0544,0 0.0714,0.0445 0.0378,0.099 -0.0336,0.0544 -0.10568,0.099 -0.1601,0.099 -0.0544,0 -0.0714,-0.0445 -0.0378,-0.099 z m -3.78117,-0.56325 c -0.10514,-0.1528 -0.76676,-1.20222 -1.47027,-2.33206 -0.70352,-1.12984 -1.44858,-2.32585 -1.65571,-2.65781 -0.20712,-0.33196 -0.35825,-0.6219 -0.33584,-0.64431 0.048,-0.048 0.55173,0.72498 2.38634,3.66196 0.74365,1.19051 1.33287,2.18379 1.30937,2.20729 -0.0235,0.0235 -0.12875,-0.0823 -0.23389,-0.23507 z m 4.32538,0.16746 c 0,-0.0544 0.0471,-0.099 0.10479,-0.099 0.0576,0 0.0773,0.0445 0.0436,0.099 -0.0336,0.0544 -0.0808,0.0989 -0.10479,0.0989 -0.024,0 -0.0436,-0.0445 -0.0436,-0.0989 z m 0.5673,-0.40807 c 0.0671,-0.0676 0.14696,-0.098 0.17743,-0.0676 0.0305,0.0305 -0.0245,0.0858 -0.12204,0.12295 -0.14102,0.0537 -0.15238,0.0423 -0.0554,-0.0554 z m 6.21062,0.0123 c -0.0336,-0.0544 0.0109,-0.099 0.099,-0.099 0.0881,0 0.13258,0.0445 0.099,0.099 -0.0336,0.0544 -0.0782,0.0989 -0.099,0.0989 -0.0208,0 -0.0653,-0.0445 -0.099,-0.0989 z m -0.66789,-0.0655 c 0.068,-0.0274 0.17934,-0.0274 0.24737,0 0.068,0.0275 0.0124,0.0499 -0.12369,0.0499 -0.13605,0 -0.19171,-0.0225 -0.12368,-0.0499 z m 1.39145,-0.002 c 0.0714,-0.0286 0.15677,-0.0251 0.18965,0.008 0.0329,0.0329 -0.0256,0.0563 -0.12987,0.052 -0.11527,-0.005 -0.13871,-0.0282 -0.0598,-0.0598 z m 0.58585,-0.14259 c 0.0671,-0.0676 0.14696,-0.098 0.17743,-0.0676 0.0305,0.0305 -0.0245,0.0858 -0.12204,0.12295 -0.14102,0.0537 -0.15238,0.0423 -0.0554,-0.0554 z m -2.56481,-0.0553 c 0.0714,-0.0286 0.15678,-0.0251 0.18965,0.008 0.0329,0.0329 -0.0256,0.0563 -0.12986,0.052 -0.11527,-0.005 -0.13872,-0.0282 -0.0598,-0.0598 z m -4.48357,-0.13031 c 0.0336,-0.0544 0.10568,-0.0989 0.1601,-0.0989 0.0544,0 0.0714,0.0445 0.0378,0.0989 -0.0336,0.0544 -0.10568,0.099 -0.1601,0.099 -0.0544,0 -0.0714,-0.0445 -0.0378,-0.099 z m 3.8549,-0.10553 c -0.1065,-0.17231 0.0148,-0.2088 0.1505,-0.0453 0.078,0.094 0.0856,0.15081 0.0199,0.15081 -0.0579,0 -0.13457,-0.0475 -0.17044,-0.10553 z m 3.76408,-0.0924 c 0.0336,-0.0544 0.0808,-0.099 0.10479,-0.099 0.024,0 0.0436,0.0445 0.0436,0.099 0,0.0544 -0.0471,0.099 -0.10478,0.099 -0.0576,0 -0.0773,-0.0445 -0.0436,-0.099 z m -7.07278,-0.24976 c 0.0688,-0.083 0.14554,-0.13044 0.17044,-0.10553 0.0686,0.0686 -0.0708,0.25634 -0.19038,0.25634 -0.0656,0 -0.0581,-0.0568 0.0199,-0.15081 z m 2.8675,-0.15187 c 0,-0.0576 0.0445,-0.0773 0.099,-0.0436 0.0544,0.0336 0.0989,0.0808 0.0989,0.10479 0,0.024 -0.0445,0.0436 -0.0989,0.0436 -0.0544,0 -0.099,-0.0472 -0.099,-0.10479 z m 4.46828,-0.19206 c 0,-0.13605 0.0224,-0.19171 0.0499,-0.12368 0.0274,0.068 0.0274,0.17934 0,0.24737 -0.0275,0.068 -0.0499,0.0124 -0.0499,-0.12369 z m -6.84104,-0.0519 c 0.0688,-0.0829 0.14554,-0.13044 0.17044,-0.10553 0.0686,0.0686 -0.0708,0.25634 -0.19038,0.25634 -0.0656,0 -0.0581,-0.0568 0.0199,-0.15081 z m 2.27533,-0.2144 c 8.3e-4,-0.044 0.0447,-0.14684 0.0974,-0.22848 0.0827,-0.12791 0.0961,-0.12529 0.0974,0.0189 8e-4,0.092 -0.043,0.19484 -0.0974,0.22847 -0.0544,0.0336 -0.0983,0.0251 -0.0974,-0.0189 z m -1.78059,-0.18139 c 0.0688,-0.0829 0.14554,-0.13044 0.17044,-0.10554 0.0686,0.0686 -0.0708,0.25635 -0.19038,0.25635 -0.0656,0 -0.0581,-0.0568 0.0199,-0.15081 z m 6.03669,-0.0432 c -0.08,-0.0506 -0.11979,-0.11782 -0.0883,-0.1493 0.0315,-0.0315 0.11357,0.0106 0.18241,0.0936 0.14274,0.17199 0.11537,0.1882 -0.0941,0.0557 z m -5.54394,-0.28276 c 0,-0.11958 0.18773,-0.259 0.25635,-0.19038 0.0249,0.0249 -0.0226,0.1016 -0.10554,0.17044 -0.094,0.078 -0.15081,0.0856 -0.15081,0.0199 z m 1.73159,-0.1169 c 0.0336,-0.0544 0.10568,-0.099 0.1601,-0.099 0.0544,0 0.0714,0.0445 0.0378,0.099 -0.0336,0.0544 -0.10568,0.099 -0.1601,0.099 -0.0544,0 -0.0714,-0.0445 -0.0378,-0.099 z m 3.2158,0 c -0.12791,-0.0827 -0.12529,-0.0961 0.0189,-0.0974 0.092,-7.9e-4 0.19484,0.043 0.22847,0.0974 0.0774,0.12523 -0.0536,0.12523 -0.24737,0 z m 1.55616,-0.26276 c -1.79421,-2.8535 -2.75985,-4.41413 -2.80655,-4.53582 -0.12953,-0.33756 0.0655,-0.10712 0.45515,0.53777 0.28195,0.46665 0.46028,0.66914 0.55669,0.63214 0.0984,-0.0377 0.12339,-0.006 0.0816,0.1025 -0.0658,0.17147 -0.004,0.28336 1.22358,2.22105 0.45895,0.72435 0.81066,1.34079 0.78157,1.36988 -0.0291,0.0291 -0.16052,-0.11829 -0.29207,-0.32752 z m -2.14984,0.0649 c -0.12685,-0.082 -0.12325,-0.0961 0.0247,-0.0974 0.0952,-7.9e-4 0.17316,0.043 0.17316,0.0974 0,0.12067 -0.0112,0.12067 -0.19789,0 z m -3.85897,-0.081 c 0,-0.11958 0.18772,-0.259 0.25634,-0.19038 0.0249,0.0249 -0.0226,0.1016 -0.10553,0.17044 -0.094,0.078 -0.15081,0.0856 -0.15081,0.0199 z m 1.86146,0.0134 c 0.0714,-0.0286 0.15677,-0.0251 0.18965,0.008 0.0329,0.0329 -0.0256,0.0563 -0.12987,0.052 -0.11527,-0.005 -0.13872,-0.0282 -0.0598,-0.0598 z m 0.69263,-0.0989 c 0.0714,-0.0286 0.15677,-0.0251 0.18965,0.008 0.0329,0.0329 -0.0256,0.0563 -0.12987,0.052 -0.11527,-0.005 -0.13871,-0.0282 -0.0598,-0.0598 z m 0.59369,0 c 0.0714,-0.0286 0.15677,-0.0251 0.18965,0.008 0.0329,0.0329 -0.0256,0.0563 -0.12987,0.052 -0.11527,-0.005 -0.13872,-0.0282 -0.0598,-0.0598 z m -2.65304,-0.31762 c 0,-0.0486 0.0731,-0.1164 0.16242,-0.15068 0.1358,-0.0521 0.14192,-0.0376 0.0374,0.0884 -0.1425,0.1717 -0.19978,0.18957 -0.19978,0.0623 z m 0.49474,-0.44526 c 0,-0.0214 0.0668,-0.0645 0.14842,-0.0958 0.0816,-0.0313 0.14842,-0.0138 0.14842,0.0389 0,0.0527 -0.0668,0.0959 -0.14842,0.0959 -0.0816,0 -0.14842,-0.0175 -0.14842,-0.0389 z m 0.49474,-0.29842 c 0,-0.0188 0.0668,-0.0897 0.14842,-0.15743 0.0855,-0.071 0.14842,-0.0806 0.14842,-0.0227 0,0.0553 -0.0668,0.1261 -0.14842,0.15743 -0.0816,0.0313 -0.14842,0.0415 -0.14842,0.0227 z m -12.9199,-0.81713 c -0.20355,-0.31743 -0.81549,-1.28958 -1.35986,-2.16032 -0.54438,-0.87074 -1.20844,-1.93252 -1.47571,-2.35952 -0.26726,-0.427 -0.46514,-0.79715 -0.43973,-0.82256 0.0392,-0.0392 0.8838,1.25494 1.86212,2.8534 0.14395,0.2352 0.6242,1.00118 1.06722,1.70218 0.44302,0.701 0.78537,1.29467 0.76077,1.31926 -0.0246,0.0246 -0.21125,-0.215 -0.41481,-0.53244 z m 13.56306,0.26391 c 0.0336,-0.0544 0.0808,-0.099 0.10479,-0.099 0.024,0 0.0436,0.0445 0.0436,0.099 0,0.0544 -0.0472,0.0989 -0.10479,0.0989 -0.0576,0 -0.0773,-0.0445 -0.0436,-0.0989 z m 0.49474,-0.3958 c 0.0336,-0.0544 0.10568,-0.0989 0.1601,-0.0989 0.0544,0 0.0714,0.0445 0.0378,0.0989 -0.0336,0.0544 -0.10568,0.099 -0.1601,0.099 -0.0544,0 -0.0714,-0.0445 -0.0378,-0.099 z m 0.44526,-0.27888 c 0,-0.11959 0.18773,-0.25901 0.25635,-0.19039 0.0249,0.0249 -0.0226,0.10161 -0.10553,0.17045 -0.094,0.078 -0.15082,0.0855 -0.15082,0.0199 z m -17.81076,-3.75373 c -0.94393,-1.50992 -1.78044,-2.8455 -1.8589,-2.96794 -0.0785,-0.12245 -0.10226,-0.22264 -0.0529,-0.22264 0.0494,0 0.25605,0.27829 0.45928,0.61843 0.20323,0.34013 0.86129,1.39764 1.46237,2.35001 1.52143,2.41062 1.7991,2.87472 1.74956,2.92427 -0.0238,0.0237 -0.81549,-1.19221 -1.75942,-2.70213 z m 19.39393,2.44945 c 0,-0.0544 0.0471,-0.099 0.10479,-0.099 0.0576,0 0.0773,0.0445 0.0436,0.099 -0.0336,0.0544 -0.0808,0.099 -0.10479,0.099 -0.024,0 -0.0436,-0.0445 -0.0436,-0.099 z m 0.54421,-0.39579 c 0.0336,-0.0544 0.10568,-0.099 0.1601,-0.099 0.0544,0 0.0714,0.0445 0.0378,0.099 -0.0336,0.0544 -0.10568,0.0989 -0.1601,0.0989 -0.0544,0 -0.0714,-0.0445 -0.0378,-0.0989 z m -0.14842,-0.49474 c -0.12684,-0.082 -0.12325,-0.0961 0.0247,-0.0974 0.0952,-8e-4 0.17315,0.043 0.17315,0.0974 0,0.12068 -0.0112,0.12068 -0.19789,0 z m -0.61224,-0.26549 c 0.0714,-0.0286 0.15677,-0.0251 0.18965,0.008 0.0329,0.0329 -0.0256,0.0563 -0.12987,0.052 -0.11527,-0.005 -0.13871,-0.0282 -0.0598,-0.0598 z m -0.72356,-0.22925 c -0.0336,-0.0544 -0.0166,-0.099 0.0378,-0.099 0.0544,0 0.12646,0.0445 0.1601,0.099 0.0336,0.0544 0.0166,0.099 -0.0378,0.099 -0.0544,0 -0.12646,-0.0445 -0.1601,-0.099 z m -0.64316,-0.19479 c 0,-0.0527 0.0668,-0.0702 0.14842,-0.0389 0.0816,0.0313 0.14843,0.0745 0.14843,0.0958 0,0.0214 -0.0668,0.0389 -0.14843,0.0389 -0.0816,0 -0.14842,-0.0431 -0.14842,-0.0958 z m -0.59368,-0.1979 c 0,-0.0527 0.0668,-0.0702 0.14842,-0.0389 0.0816,0.0313 0.14842,0.0744 0.14842,0.0958 0,0.0214 -0.0668,0.0389 -0.14842,0.0389 -0.0816,0 -0.14842,-0.0431 -0.14842,-0.0958 z m -33.197,-0.10205 c 0.0336,-0.0544 0.10568,-0.099 0.16011,-0.099 0.0544,0 0.0714,0.0445 0.0378,0.099 -0.0336,0.0544 -0.10568,0.099 -0.1601,0.099 -0.0544,0 -0.0714,-0.0445 -0.0378,-0.099 z m 0.59369,-0.29684 c 0.0336,-0.0544 0.10568,-0.099 0.1601,-0.099 0.0544,0 0.0714,0.0445 0.0378,0.099 -0.0336,0.0544 -0.10568,0.099 -0.1601,0.099 -0.0544,0 -0.0714,-0.0445 -0.0378,-0.099 z m 31.31698,0 c -0.1279,-0.0827 -0.12529,-0.0961 0.0189,-0.0974 0.092,-7.9e-4 0.19484,0.043 0.22847,0.0974 0.0774,0.12523 -0.0536,0.12523 -0.24737,0 z m -0.59368,-0.1979 c -0.12684,-0.082 -0.12325,-0.0961 0.0247,-0.0974 0.0952,-7.9e-4 0.17316,0.043 0.17316,0.0974 0,0.12068 -0.0112,0.12068 -0.19789,0 z m -30.17909,-0.099 c 0.0816,-0.0528 0.19295,-0.0959 0.24737,-0.0959 0.0544,0 0.0322,0.0432 -0.0495,0.0959 -0.0816,0.0528 -0.19295,0.0959 -0.24737,0.0959 -0.0544,0 -0.0322,-0.0432 0.0495,-0.0959 z m 29.5854,-0.0989 c -0.12684,-0.082 -0.12324,-0.0961 0.0247,-0.0974 0.0952,-7.9e-4 0.17316,0.043 0.17316,0.0974 0,0.12067 -0.0112,0.12067 -0.1979,0 z m -29.04118,-0.1979 c 0.0336,-0.0544 0.13644,-0.0983 0.22847,-0.0974 0.14419,0.001 0.14681,0.0148 0.0189,0.0974 -0.19378,0.12523 -0.32477,0.12523 -0.24737,0 z m 28.42894,-0.0676 c 0.0714,-0.0286 0.15677,-0.0251 0.18965,0.008 0.0329,0.0329 -0.0256,0.0563 -0.12987,0.052 -0.11527,-0.005 -0.13871,-0.0282 -0.0598,-0.0598 z m -0.69263,-0.1979 c 0.0714,-0.0286 0.15677,-0.0251 0.18965,0.008 0.0329,0.0329 -0.0256,0.0563 -0.12987,0.052 -0.11527,-0.005 -0.13872,-0.0282 -0.0598,-0.0598 z m -26.54894,-0.3282 c 0.0336,-0.0544 0.10568,-0.0989 0.1601,-0.0989 0.0544,0 0.0714,0.0445 0.0378,0.0989 -0.0336,0.0544 -0.10568,0.099 -0.1601,0.099 -0.0544,0 -0.0714,-0.0445 -0.0378,-0.099 z m 25.23169,-0.0989 c -0.0336,-0.0544 -0.0166,-0.099 0.0378,-0.099 0.0544,0 0.12646,0.0445 0.1601,0.099 0.0336,0.0544 0.0166,0.0989 -0.0378,0.0989 -0.0544,0 -0.12646,-0.0445 -0.1601,-0.0989 z m -24.638,-0.1979 c 0.0336,-0.0544 0.10568,-0.099 0.1601,-0.099 0.0544,0 0.0714,0.0445 0.0378,0.099 -0.0336,0.0544 -0.10568,0.099 -0.1601,0.099 -0.0544,0 -0.0714,-0.0445 -0.0378,-0.099 z m 0.59368,-0.29684 c 0.0336,-0.0544 0.10568,-0.099 0.16011,-0.099 0.0544,0 0.0714,0.0445 0.0378,0.099 -0.0336,0.0544 -0.10568,0.0989 -0.1601,0.0989 -0.0544,0 -0.0714,-0.0445 -0.0378,-0.0989 z m 0.54422,-0.28937 c 0,-0.0469 0.0668,-0.11088 0.14842,-0.14221 0.0816,-0.0313 0.14842,-0.0186 0.14842,0.0283 0,0.0469 -0.0668,0.11088 -0.14842,0.14221 -0.0816,0.0313 -0.14842,0.0186 -0.14842,-0.0283 z m 0.59368,-0.24584 c 0,-0.0188 0.0668,-0.0897 0.14843,-0.15743 0.0856,-0.071 0.14842,-0.0806 0.14842,-0.0227 0,0.0553 -0.0668,0.12611 -0.14842,0.15743 -0.0816,0.0313 -0.14843,0.0415 -0.14843,0.0227 z m 0.59369,-0.34784 c 0,-0.0469 0.0668,-0.11089 0.14842,-0.14221 0.0816,-0.0313 0.14843,-0.0186 0.14843,0.0283 0,0.0469 -0.0668,0.11088 -0.14843,0.14221 -0.0816,0.0313 -0.14842,0.0186 -0.14842,-0.0283 z m 17.29732,-0.27297 c 0.0714,-0.0286 0.15677,-0.0251 0.18965,0.008 0.0329,0.0329 -0.0256,0.0563 -0.12987,0.052 -0.11527,-0.005 -0.13872,-0.0282 -0.0598,-0.0598 z m -16.70363,-0.0702 c 0,-0.0214 0.0691,-0.0654 0.15356,-0.0978 0.0881,-0.0338 0.12777,-0.0172 0.0931,0.0389 -0.0581,0.094 -0.24667,0.13906 -0.24667,0.0589 z m -3.49616,-0.32393 c -0.0363,-0.0363 -0.066,-0.11197 -0.066,-0.16821 0,-0.062 0.0461,-0.0562 0.11709,0.0148 0.0644,0.0644 0.0941,0.1401 0.066,0.16822 -0.0281,0.0281 -0.0808,0.0214 -0.11709,-0.0148 z m 4.08985,0.0271 c 0,-0.0214 0.0691,-0.0654 0.15356,-0.0978 0.088,-0.0338 0.12777,-0.0172 0.0931,0.0389 -0.0581,0.094 -0.24666,0.13907 -0.24666,0.0589 z m -3.6116,-0.15901 c 0.0336,-0.0544 0.10568,-0.0989 0.1601,-0.0989 0.0544,0 0.0714,0.0445 0.0378,0.0989 -0.0336,0.0544 -0.10568,0.099 -0.1601,0.099 -0.0544,0 -0.0714,-0.0445 -0.0378,-0.099 z m 4.25476,-0.19789 c 0.0336,-0.0544 0.10568,-0.099 0.1601,-0.099 0.0544,0 0.0714,0.0445 0.0378,0.099 -0.0336,0.0544 -0.10568,0.099 -0.1601,0.099 -0.0544,0 -0.0714,-0.0445 -0.0378,-0.099 z m -3.63799,-0.11123 c 0.0671,-0.0676 0.14697,-0.098 0.17743,-0.0676 0.0305,0.0305 -0.0245,0.0858 -0.12203,0.12295 -0.14102,0.0537 -0.15239,0.0423 -0.0554,-0.0554 z m -1.06203,-0.12555 c 0,-0.0214 0.0691,-0.0654 0.15356,-0.0978 0.0881,-0.0338 0.12777,-0.0172 0.0931,0.0389 -0.0581,0.094 -0.24666,0.13906 -0.24666,0.0589 z m 5.24423,-0.0601 c 0.19378,-0.12522 0.32476,-0.12522 0.24737,0 -0.0336,0.0544 -0.13645,0.0983 -0.22847,0.0974 -0.1442,-10e-4 -0.14681,-0.0148 -0.0189,-0.0974 z m -3.66107,-0.0915 c 0,-0.0469 0.0668,-0.11089 0.14842,-0.14221 0.0816,-0.0313 0.14842,-0.0186 0.14842,0.0283 0,0.0469 -0.0668,0.11088 -0.14842,0.14221 -0.0816,0.0313 -0.14842,0.0186 -0.14842,-0.0283 z m -0.94,-0.20538 c 0.0336,-0.0544 0.10568,-0.099 0.1601,-0.099 0.0544,0 0.0714,0.0445 0.0378,0.099 -0.0336,0.0544 -0.10568,0.0989 -0.1601,0.0989 -0.0544,0 -0.0714,-0.0445 -0.0378,-0.0989 z m 5.19476,0 c 0.19377,-0.12523 0.32476,-0.12523 0.24737,0 -0.0336,0.0544 -0.13645,0.0983 -0.22848,0.0974 -0.14419,-0.001 -0.1468,-0.0148 -0.0189,-0.0974 z m -3.66107,-0.0849 c 0,-0.10169 0.2997,-0.24209 0.36895,-0.17283 0.0241,0.0241 -0.0491,0.0935 -0.16258,0.15423 -0.11358,0.0608 -0.20637,0.0692 -0.20637,0.0186 z m -0.94001,-0.21196 c 0.0336,-0.0544 0.10568,-0.099 0.1601,-0.099 0.0544,0 0.0714,0.0445 0.0378,0.099 -0.0336,0.0544 -0.10568,0.099 -0.1601,0.099 -0.0544,0 -0.0714,-0.0445 -0.0378,-0.099 z m 5.14529,0 c 0.0336,-0.0544 0.12794,-0.099 0.20957,-0.099 0.0816,0 0.12091,0.0445 0.0873,0.099 -0.0336,0.0544 -0.12794,0.099 -0.20957,0.099 -0.0816,0 -0.12091,-0.0445 -0.0873,-0.099 z m -4.5516,-0.29685 c 0.0336,-0.0544 0.10568,-0.0989 0.1601,-0.0989 0.0544,0 0.0714,0.0445 0.0378,0.0989 -0.0336,0.0544 -0.10568,0.099 -0.16011,0.099 -0.0544,0 -0.0714,-0.0445 -0.0378,-0.099 z m 0.61018,0.033 c -0.0363,-0.0363 -0.066,-0.11198 -0.066,-0.16821 0,-0.062 0.0461,-0.0562 0.11709,0.0148 0.0644,0.0644 0.0941,0.14009 0.066,0.16821 -0.0281,0.0281 -0.0808,0.0214 -0.11709,-0.0148 z m 4.53511,-0.033 c 0.0336,-0.0544 0.10305,-0.0989 0.15426,-0.0989 0.0512,0 0.0931,0.0445 0.0931,0.0989 0,0.0544 -0.0694,0.099 -0.15427,0.099 -0.0848,0 -0.12674,-0.0445 -0.0931,-0.099 z m 0.59368,-0.29684 c 0.0336,-0.0544 0.13645,-0.0983 0.22848,-0.0974 0.14419,0.001 0.1468,0.0148 0.0189,0.0974 -0.19377,0.12523 -0.32476,0.12523 -0.24737,0 z m 0.59369,-0.29684 c 0.0336,-0.0544 0.13645,-0.0983 0.22847,-0.0974 0.1442,0.001 0.14681,0.0148 0.0189,0.0974 -0.19378,0.12523 -0.32477,0.12523 -0.24737,0 z m 1.18737,-0.59369 c 0.0336,-0.0544 0.10568,-0.0989 0.1601,-0.0989 0.0544,0 0.0714,0.0445 0.0378,0.0989 -0.0336,0.0544 -0.10568,0.099 -0.1601,0.099 -0.0544,0 -0.0714,-0.0445 -0.0378,-0.099 z m -13.55655,2.87062 c 0.0347,-0.0561 -0.005,-0.0727 -0.0931,-0.0389 -0.17141,0.0658 -0.20278,0.13671 -0.0605,0.13671 0.0512,0 0.12031,-0.044 0.15356,-0.0978 z m 8.36179,-4.05799 c 0.0816,-0.0528 0.1039,-0.0959 0.0495,-0.0959 -0.0544,0 -0.16574,0.0432 -0.24737,0.0959 -0.0816,0.0528 -0.1039,0.0959 -0.0495,0.0959 0.0544,0 0.16574,-0.0432 0.24737,-0.0959 z m 0.76479,-0.25768 c -0.0329,-0.0329 -0.11823,-0.0364 -0.18965,-0.008 -0.0789,0.0316 -0.0555,0.055 0.0598,0.0598 0.10431,0.004 0.16275,-0.0191 0.12987,-0.052 z m 15.642,22.25545 c 0.0714,-0.0286 0.15677,-0.0251 0.18965,0.008 0.0329,0.0329 -0.0256,0.0563 -0.12987,0.052 -0.11527,-0.005 -0.13872,-0.0282 -0.0598,-0.0598 z m -0.57514,-0.22925 c -0.0892,-0.0576 -0.10138,-0.0965 -0.0306,-0.0974 0.0648,-7.9e-4 0.14536,0.043 0.179,0.0974 0.0759,0.12284 0.0417,0.12284 -0.14843,0 z m -0.64316,-0.29685 c -0.0336,-0.0544 -0.0166,-0.099 0.0378,-0.099 0.0544,0 0.12646,0.0445 0.1601,0.099 0.0336,0.0544 0.0166,0.099 -0.0378,0.099 -0.0544,0 -0.12646,-0.0445 -0.1601,-0.099 z m -0.69263,-0.29684 c -0.0336,-0.0544 0.006,-0.0989 0.0873,-0.0989 0.0816,0 0.17594,0.0445 0.20957,0.0989 0.0336,0.0544 -0.006,0.099 -0.0873,0.099 -0.0816,0 -0.17594,-0.0445 -0.20957,-0.099 z m -0.44527,-0.1979 c -0.12684,-0.082 -0.12324,-0.0961 0.0247,-0.0974 0.0952,-7.9e-4 0.17316,0.043 0.17316,0.0974 0,0.12068 -0.0112,0.12068 -0.1979,0 z m -0.69263,-0.29684 c -0.12791,-0.0827 -0.1253,-0.0961 0.0189,-0.0974 0.092,-7.9e-4 0.19483,0.043 0.22847,0.0974 0.0774,0.12523 -0.0536,0.12523 -0.24737,0 z m 0.89834,-0.0577 c 0.005,-0.11527 0.0282,-0.13871 0.0598,-0.0598 0.0286,0.0714 0.0251,0.15677 -0.008,0.18965 -0.0329,0.0329 -0.0563,-0.0256 -0.052,-0.12987 z m 14.04278,-0.17169 c 0,-0.18473 0.16138,-0.30551 0.23944,-0.17921 0.0304,0.0491 -0.0111,0.14438 -0.0921,0.21163 -0.11979,0.0994 -0.14733,0.0934 -0.14733,-0.0324 z m -15.58428,-0.0674 c -0.0774,-0.12523 0.0536,-0.12523 0.24737,0 0.12791,0.0827 0.12529,0.0961 -0.0189,0.0974 -0.092,8.3e-4 -0.19484,-0.043 -0.22847,-0.0974 z m -0.64316,-0.28758 c 0,-0.0493 0.089,-0.0664 0.19789,-0.0379 0.10884,0.0285 0.1979,0.0688 0.1979,0.0897 0,0.0209 -0.0891,0.0379 -0.1979,0.0379 -0.10884,0 -0.19789,-0.0404 -0.19789,-0.0897 z m 2.08571,-0.067 c 0.005,-0.11527 0.0282,-0.13871 0.0598,-0.0598 0.0286,0.0714 0.0251,0.15677 -0.008,0.18965 -0.0329,0.0329 -0.0563,-0.0256 -0.052,-0.12987 z m 14.24902,-0.16491 c -0.10672,-0.28209 -0.0747,-0.31456 0.17739,-0.17967 0.12061,0.0645 0.17986,0.16797 0.14631,0.25539 -0.082,0.21382 -0.22699,0.17992 -0.3237,-0.0757 z m 0.48838,0.0718 c 0.0688,-0.0829 0.14554,-0.13044 0.17045,-0.10553 0.0686,0.0686 -0.0708,0.25634 -0.19039,0.25634 -0.0656,0 -0.0581,-0.0568 0.0199,-0.15081 z m -17.31785,-0.0471 c -0.12684,-0.082 -0.12325,-0.0961 0.0247,-0.0974 0.0952,-7.9e-4 0.17316,0.043 0.17316,0.0974 0,0.12068 -0.0112,0.12068 -0.19789,0 z m -0.64316,-0.29685 c -0.0336,-0.0544 -0.0166,-0.0989 0.0378,-0.0989 0.0544,0 0.12647,0.0445 0.1601,0.0989 0.0336,0.0544 0.0166,0.099 -0.0378,0.099 -0.0544,0 -0.12647,-0.0445 -0.1601,-0.099 z m 18.17619,-0.17164 c 0.0726,-0.0874 0.13598,-0.1047 0.15667,-0.0427 0.0191,0.0573 0.10596,0.0769 0.193,0.0435 0.0964,-0.037 0.13329,-0.0203 0.0944,0.0427 -0.0351,0.0569 -0.17686,0.1034 -0.31492,0.1034 -0.21077,0 -0.23147,-0.0236 -0.12911,-0.14691 z m -18.81935,-0.1252 c 0,-0.0544 0.0419,-0.0989 0.0931,-0.0989 0.0512,0 0.12063,0.0445 0.15427,0.0989 0.0336,0.0544 -0.008,0.099 -0.0931,0.099 -0.0849,0 -0.15426,-0.0445 -0.15426,-0.099 z m -0.49474,-0.19789 c -0.0892,-0.0576 -0.10139,-0.0965 -0.0306,-0.0974 0.0648,-7.9e-4 0.14536,0.043 0.179,0.0974 0.0759,0.12284 0.0417,0.12284 -0.14842,0 z m 19.69061,-0.0107 c 0,-0.13622 0.23445,-0.22596 0.27472,-0.10516 0.0215,0.0644 0.0909,0.0874 0.15426,0.0511 0.0634,-0.0363 0.0809,-0.0282 0.039,0.0179 -0.0982,0.10797 -0.46799,0.13653 -0.46799,0.0361 z m -20.38325,-0.28615 c -0.12791,-0.0827 -0.12529,-0.0961 0.0189,-0.0974 0.092,-7.9e-4 0.19484,0.043 0.22847,0.0974 0.0774,0.12523 -0.0536,0.12523 -0.24737,0 z m 21.17483,-0.09 c 0,-0.0559 -0.0741,-0.0733 -0.16465,-0.0385 -0.10635,0.0408 -0.1407,0.0244 -0.097,-0.0463 0.0372,-0.0602 0.15583,-0.10283 0.2636,-0.0947 0.21081,0.0159 0.25717,0.12103 0.097,0.22002 -0.0544,0.0336 -0.099,0.0154 -0.099,-0.0405 z m -1.23684,-0.10789 c 0.0336,-0.0544 0.0808,-0.099 0.10478,-0.099 0.024,0 0.0436,0.0445 0.0436,0.099 0,0.0544 -0.0472,0.0989 -0.10479,0.0989 -0.0576,0 -0.0773,-0.0445 -0.0436,-0.0989 z m -20.53167,-0.0959 c 0,-0.0527 0.0668,-0.0702 0.14842,-0.0389 0.0816,0.0313 0.14842,0.0745 0.14842,0.0958 0,0.0214 -0.0668,0.0389 -0.14842,0.0389 -0.0816,0 -0.14842,-0.0431 -0.14842,-0.0959 z m 21.96641,-0.30287 c 0,-0.12582 0.25698,-0.18194 0.40476,-0.0884 0.15348,0.0971 0.14207,0.10591 -0.18213,0.1399 -0.12245,0.0128 -0.22263,-0.0103 -0.22263,-0.0515 z m -23.15379,-0.19497 c -0.12791,-0.0827 -0.1253,-0.0961 0.0189,-0.0974 0.092,-8e-4 0.19484,0.043 0.22847,0.0974 0.0774,0.12523 -0.0536,0.12523 -0.24737,0 z m 22.65905,-0.19206 c 0,-0.0512 0.044,-0.12031 0.0978,-0.15356 0.0561,-0.0347 0.0727,0.005 0.0389,0.0931 -0.0658,0.17142 -0.1367,0.20278 -0.1367,0.0605 z m 1.08843,-0.006 c -0.16302,-0.10525 -0.15334,-0.11333 0.17696,-0.14763 0.12454,-0.0129 0.21081,0.0234 0.19171,0.0806 -0.0501,0.15036 -0.19793,0.17721 -0.36867,0.067 z m -24.39064,-0.0988 c -0.0774,-0.12523 0.0536,-0.12523 0.24737,0 0.12791,0.0827 0.1253,0.0961 -0.0189,0.0974 -0.092,8.3e-4 -0.19483,-0.043 -0.22847,-0.0974 z m -0.59369,-0.29685 c -0.0336,-0.0544 -0.0166,-0.099 0.0378,-0.099 0.0544,0 0.12647,0.0445 0.1601,0.099 0.0336,0.0544 0.0166,0.099 -0.0378,0.099 -0.0544,0 -0.12646,-0.0445 -0.1601,-0.099 z m 25.47861,-2.9e-4 c -0.1899,-0.11737 -0.0711,-0.22162 0.20618,-0.18088 0.18781,0.0276 0.20026,0.0512 0.0794,0.15076 -0.0895,0.0737 -0.19671,0.085 -0.28557,0.0301 z m -26.02282,-0.1976 c -0.12684,-0.082 -0.12324,-0.0961 0.0247,-0.0974 0.0952,-7.9e-4 0.17316,0.043 0.17316,0.0974 0,0.12067 -0.0112,0.12067 -0.1979,0 z m -0.64316,-0.29685 c -0.0336,-0.0544 -0.0166,-0.0989 0.0378,-0.0989 0.0544,0 0.12646,0.0445 0.1601,0.0989 0.0336,0.0544 0.0166,0.099 -0.0378,0.099 -0.0544,0 -0.12647,-0.0445 -0.1601,-0.099 z m 27.06223,0.0165 c 0,-0.13924 0.11139,-0.2034 0.25647,-0.14772 0.076,0.0292 0.11355,0.0929 0.0834,0.1416 -0.0691,0.11175 -0.33991,0.11663 -0.33991,0.006 z m -27.70539,-0.31333 c 0,-0.0544 0.0419,-0.099 0.0931,-0.099 0.0512,0 0.12062,0.0445 0.15426,0.099 0.0336,0.0544 -0.008,0.099 -0.0931,0.099 -0.0848,0 -0.15426,-0.0445 -0.15426,-0.099 z m 28.13086,-0.14001 c 0.0194,-0.059 0.13695,-0.12224 0.2612,-0.14042 0.14732,-0.0216 0.2115,0.0101 0.18449,0.0912 -0.0228,0.0683 -0.14031,0.13151 -0.26119,0.14042 -0.12088,0.009 -0.20391,-0.0321 -0.1845,-0.0912 z m -28.6256,-0.0579 c -0.0785,-0.0485 -0.12043,-0.11045 -0.0932,-0.13766 0.0272,-0.0272 0.11369,-0.01 0.19217,0.0387 0.0785,0.0485 0.12043,0.11045 0.0932,0.13766 -0.0272,0.0272 -0.11368,0.01 -0.19216,-0.0387 z m 27.65591,0 c 0.0336,-0.0544 0.10568,-0.0989 0.1601,-0.0989 0.0544,0 0.0714,0.0445 0.0378,0.0989 -0.0336,0.0544 -0.10568,0.099 -0.1601,0.099 -0.0544,0 -0.0714,-0.0445 -0.0378,-0.099 z m -28.34854,-0.29684 c -0.12791,-0.0827 -0.1253,-0.0961 0.0189,-0.0974 0.092,-7.9e-4 0.19484,0.043 0.22848,0.0974 0.0774,0.12523 -0.0536,0.12523 -0.24737,0 z m 29.78329,-0.10662 c 0,-0.14867 0.19566,-0.20132 0.37027,-0.0996 0.19041,0.11089 0.18033,0.12153 -0.14764,0.15591 -0.12245,0.0128 -0.22263,-0.0125 -0.22263,-0.0563 z m -30.42646,-0.19022 c -0.0336,-0.0544 -0.0166,-0.099 0.0378,-0.099 0.0544,0 0.12647,0.0445 0.1601,0.099 0.0336,0.0544 0.0166,0.0989 -0.0378,0.0989 -0.0544,0 -0.12647,-0.0445 -0.16011,-0.0989 z m 29.9337,-0.24976 c 0.0688,-0.0829 0.14554,-0.13044 0.17045,-0.10553 0.0686,0.0686 -0.0708,0.25634 -0.19039,0.25634 -0.0656,0 -0.0581,-0.0568 0.0199,-0.15081 z m 1.18539,0.055 c 0,-0.0527 -0.0779,-0.0666 -0.17316,-0.031 -0.15122,0.0567 -0.15607,0.0439 -0.0383,-0.10096 0.0742,-0.0912 0.16537,-0.14703 0.20262,-0.12401 0.15519,0.0959 0.29423,-0.12386 0.34168,-0.54011 0.0278,-0.24416 0.0534,-0.45591 0.0568,-0.47055 0.003,-0.0146 0.11195,-7e-5 0.24126,0.0324 0.20959,0.0526 0.22982,0.0313 0.18636,-0.19601 -0.0405,-0.21185 -0.0117,-0.25502 0.16995,-0.25502 0.13748,0 0.23845,-0.0756 0.27191,-0.20349 0.0304,-0.11632 0.10905,-0.18207 0.18356,-0.15347 0.072,0.0276 0.15795,-0.0369 0.19202,-0.14427 0.0339,-0.10685 0.10414,-0.16803 0.15605,-0.13595 0.0519,0.0321 0.14117,-0.0759 0.19835,-0.23991 0.0621,-0.17801 0.1553,-0.27856 0.23129,-0.2494 0.10037,0.0385 0.10324,0.1158 0.0135,0.36504 -0.26068,0.72431 -0.51536,1.0469 -1.63619,2.07251 -0.53899,0.49319 -0.59773,0.52996 -0.59773,0.37416 z m -31.76225,-0.10206 c 0,-0.0544 0.0419,-0.0989 0.0931,-0.0989 0.0512,0 0.12063,0.0445 0.15426,0.0989 0.0336,0.0544 -0.008,0.099 -0.0931,0.099 -0.0848,0 -0.15427,-0.0445 -0.15427,-0.099 z m -0.49474,-0.19789 c -0.12684,-0.082 -0.12324,-0.0961 0.0247,-0.0974 0.0952,-8e-4 0.17316,0.043 0.17316,0.0974 0,0.12068 -0.0112,0.12068 -0.1979,0 z m -0.64316,-0.29685 c -0.0336,-0.0544 -0.0166,-0.0989 0.0378,-0.0989 0.0544,0 0.12647,0.0445 0.1601,0.0989 0.0336,0.0544 0.0166,0.099 -0.0378,0.099 -0.0544,0 -0.12646,-0.0445 -0.1601,-0.099 z m 32.72527,-0.0989 c -0.067,-0.10735 -0.0792,-0.21275 -0.0281,-0.2443 0.0494,-0.0305 0.11933,0.0376 0.15543,0.15129 0.0878,0.27655 0.0188,0.32696 -0.12732,0.093 z m 0.28164,-0.0578 c 0.005,-0.11527 0.0282,-0.13872 0.0598,-0.0598 0.0286,0.0714 0.0251,0.15677 -0.008,0.18965 -0.0329,0.0329 -0.0563,-0.0256 -0.052,-0.12987 z m -33.60059,-0.14018 c -0.0336,-0.0544 -0.0166,-0.099 0.0378,-0.099 0.0544,0 0.12647,0.0445 0.1601,0.099 0.0336,0.0544 0.0166,0.099 -0.0378,0.099 -0.0544,0 -0.12647,-0.0445 -0.1601,-0.099 z m -0.64316,-0.29374 c 0,-0.0527 0.0668,-0.0702 0.14842,-0.0389 0.0816,0.0313 0.14842,0.0745 0.14842,0.0958 0,0.0214 -0.0668,0.0389 -0.14842,0.0389 -0.0816,0 -0.14842,-0.0431 -0.14842,-0.0959 z m -0.49474,-0.201 c -0.0892,-0.0576 -0.10139,-0.0965 -0.0306,-0.0974 0.0648,-7.9e-4 0.14536,0.043 0.179,0.0974 0.0759,0.12285 0.0417,0.12285 -0.14842,0 z m -0.69264,-0.29684 c -0.12791,-0.0827 -0.12529,-0.0961 0.0189,-0.0974 0.092,-8e-4 0.19484,0.043 0.22847,0.0974 0.0774,0.12523 -0.0536,0.12523 -0.24737,0 z m -0.64316,-0.29684 c -0.0774,-0.12523 0.0536,-0.12523 0.24737,0 0.12791,0.0827 0.1253,0.0961 -0.0189,0.0974 -0.092,8.3e-4 -0.19483,-0.043 -0.22847,-0.0974 z m -0.54609,-0.24964 c -0.10457,-0.12599 -0.0984,-0.14047 0.0374,-0.0884 0.0893,0.0343 0.16241,0.10209 0.16241,0.15069 0,0.12724 -0.0573,0.10937 -0.19977,-0.0623 z m -0.56707,-0.21845 c -0.23938,-0.0835 -0.13283,-0.2978 0.12368,-0.24877 0.13606,0.026 0.24737,0.0819 0.24737,0.12412 0,0.10413 -0.21898,0.17769 -0.37105,0.12465 z m -0.71936,-0.37536 c -0.0688,-0.083 -0.0976,-0.17835 -0.064,-0.212 0.0719,-0.0719 0.36281,0.14945 0.36281,0.27598 0,0.13629 -0.16127,0.10176 -0.29883,-0.064 z m -0.80283,-0.47331 c -0.3982,-0.37615 -0.43614,-0.44559 -0.29597,-0.54171 0.14169,-0.0971 0.14315,-0.12243 0.0124,-0.2128 -0.12864,-0.0889 -0.12612,-0.10276 0.0189,-0.10407 0.23246,-0.002 0.31903,0.17607 0.17176,0.35352 -0.10077,0.12142 -0.0888,0.17325 0.0657,0.28447 0.48806,0.35134 0.55982,0.42463 0.52324,0.53438 -0.0226,0.068 -0.2322,-0.0646 -0.49598,-0.31379 z m 1.89324,0.2778 c -0.071,-0.0855 -0.0806,-0.14842 -0.0227,-0.14842 0.0553,0 0.12611,0.0668 0.15743,0.14842 0.0313,0.0816 0.0415,0.14842 0.0227,0.14842 -0.0188,0 -0.0897,-0.0668 -0.15744,-0.14842 z m 38.98544,-0.19205 c 0,-0.0848 0.0445,-0.15426 0.099,-0.15426 0.0544,0 0.099,0.0419 0.099,0.0931 0,0.0512 -0.0445,0.12063 -0.099,0.15427 -0.0544,0.0336 -0.099,-0.008 -0.099,-0.0931 z m -41.21176,-0.0553 c -0.0336,-0.0544 -0.0166,-0.0989 0.0378,-0.0989 0.0544,0 0.12647,0.0445 0.1601,0.0989 0.0336,0.0544 0.0166,0.099 -0.0378,0.099 -0.0544,0 -0.12647,-0.0445 -0.1601,-0.099 z m 1.83053,-0.10478 c 0,-0.0576 0.0445,-0.0773 0.099,-0.0436 0.0544,0.0336 0.0989,0.0808 0.0989,0.10479 0,0.024 -0.0445,0.0436 -0.0989,0.0436 -0.0544,0 -0.099,-0.0472 -0.099,-0.10478 z m -2.42422,-0.19206 c -0.0336,-0.0544 -0.0166,-0.099 0.0378,-0.099 0.0544,0 0.12646,0.0445 0.1601,0.099 0.0336,0.0544 0.0166,0.099 -0.0378,0.099 -0.0544,0 -0.12647,-0.0445 -0.1601,-0.099 z m 1.14938,-0.12368 c -0.0122,-0.29001 0.048,-0.32656 0.28536,-0.17316 0.12818,0.0828 0.1258,0.0961 -0.0175,0.0974 -0.0912,7.9e-4 -0.18626,0.0794 -0.21115,0.17467 -0.0278,0.10654 -0.0497,0.0685 -0.0567,-0.0989 z m 0.68116,0.12368 c -0.12791,-0.0827 -0.1253,-0.0961 0.0189,-0.0974 0.092,-7.9e-4 0.19484,0.043 0.22847,0.0974 0.0774,0.12523 -0.0536,0.12523 -0.24736,0 z m -2.51492,-0.36048 c -0.0807,-0.21023 -0.0109,-0.27438 0.20734,-0.19063 0.13756,0.0528 0.14659,0.0844 0.0425,0.14866 -0.10967,0.0678 -0.10919,0.0908 0.003,0.13529 0.0987,0.0392 0.0913,0.0557 -0.0277,0.0614 -0.0894,0.004 -0.19065,-0.0653 -0.22496,-0.15477 z m 0.68438,0.0636 c -0.16132,-0.0693 -0.16697,-0.0863 -0.0306,-0.092 0.092,-0.004 0.19484,0.0376 0.22848,0.092 0.0703,0.11377 0.0669,0.11377 -0.1979,0 z m -1.21273,-0.16469 c -0.1559,-0.0628 -0.0611,-0.2311 0.13014,-0.2311 0.0784,0 0.14259,0.0668 0.14259,0.14842 0,0.15257 -0.0567,0.16977 -0.27273,0.0827 z m -0.61503,-0.32624 c -0.12535,-0.0793 -0.12257,-0.10097 0.02,-0.15568 0.19553,-0.075 0.40074,0.027 0.31932,0.15871 -0.0711,0.11511 -0.15367,0.11437 -0.33932,-0.003 z m 1.87723,-0.004 c -0.0892,-0.0576 -0.10138,-0.0965 -0.0306,-0.0974 0.0648,-7.9e-4 0.14536,0.043 0.179,0.0974 0.0759,0.12284 0.0417,0.12284 -0.14843,0 z m -0.88901,-0.0742 c 0.005,-0.23432 0.17797,-0.3384 0.38169,-0.22937 0.11577,0.0619 0.21048,0.16106 0.21048,0.22023 0,0.0662 -0.0633,0.0553 -0.16451,-0.0282 -0.12826,-0.10587 -0.17369,-0.10854 -0.20614,-0.0121 -0.0447,0.13269 -0.22404,0.17276 -0.22152,0.0495 z m -1.724,-0.37106 c -0.0891,-0.13605 -0.13723,-0.24737 -0.10685,-0.24737 0.11269,0 0.54301,0.32268 0.54301,0.40717 0,0.18091 -0.28018,0.0783 -0.43616,-0.1598 z m -0.55332,-0.14531 c 0,-0.0527 0.0668,-0.0702 0.14843,-0.0389 0.0816,0.0313 0.14842,0.0745 0.14842,0.0958 0,0.0214 -0.0668,0.0389 -0.14842,0.0389 -0.0816,0 -0.14843,-0.0431 -0.14843,-0.0958 z m 1.96041,0.0282 c 0.0714,-0.0286 0.15677,-0.0251 0.18965,0.008 0.0329,0.0329 -0.0256,0.0563 -0.12987,0.052 -0.11527,-0.005 -0.13872,-0.0282 -0.0598,-0.0598 z m -2.45514,-0.22925 c -0.12685,-0.082 -0.12325,-0.0961 0.0247,-0.0974 0.0952,-8.3e-4 0.17316,0.043 0.17316,0.0974 0,0.12067 -0.0112,0.12067 -0.19789,0 z m 1.78106,0 c -0.12791,-0.0827 -0.1253,-0.0961 0.0189,-0.0974 0.092,-7.9e-4 0.19484,0.043 0.22848,0.0974 0.0774,0.12522 -0.0536,0.12522 -0.24737,0 z m -0.98948,-0.18889 c 0,-0.17924 0.28622,-0.24361 0.52494,-0.11806 0.21373,0.11241 0.21334,0.11346 -0.0251,0.0663 -0.13323,-0.0263 -0.3002,2e-4 -0.37106,0.059 -0.0931,0.0773 -0.12883,0.0753 -0.12883,-0.007 z m -1.43475,-0.10796 c -0.0336,-0.0544 -0.0166,-0.099 0.0378,-0.099 0.0544,0 0.12647,0.0445 0.1601,0.099 0.0336,0.0544 0.0166,0.099 -0.0378,0.099 -0.0544,0 -0.12647,-0.0445 -0.16011,-0.099 z m 0.45139,-0.14842 c -0.10466,-0.49721 -0.10476,-0.58349 -5.7e-4,-0.4793 0.0606,0.0606 0.0902,0.21548 0.0658,0.3442 -0.0244,0.12873 -0.0538,0.18952 -0.0652,0.1351 z m -1.24879,-0.20597 c -0.18378,-0.14975 -0.18399,-0.15392 -0.005,-0.0967 0.1584,0.0506 0.16794,0.0367 0.0621,-0.0909 -0.16771,-0.20207 0.0356,-0.19797 0.23842,0.005 0.321,0.32101 0.0669,0.47811 -0.2956,0.18275 z m -0.59193,-0.34483 c -0.1065,-0.17231 0.0148,-0.2088 0.1505,-0.0453 0.0781,0.094 0.0856,0.15081 0.0199,0.15081 -0.0579,0 -0.13457,-0.0475 -0.17044,-0.10553 z m 1.38933,-0.0924 c -0.0336,-0.0544 -0.014,-0.099 0.0436,-0.099 0.0576,0 0.10479,0.0445 0.10479,0.099 0,0.0544 -0.0196,0.099 -0.0436,0.099 -0.024,0 -0.0712,-0.0445 -0.10479,-0.099 z m -0.84105,-0.29684 c 0,-0.0544 0.0864,-0.0989 0.19205,-0.0989 0.10564,0 0.21958,0.0445 0.25321,0.0989 0.0347,0.0561 -0.0484,0.0989 -0.19205,0.0989 -0.13927,0 -0.25321,-0.0445 -0.25321,-0.0989 z m -0.98948,-0.10479 c 0,-0.0576 0.0445,-0.0773 0.0989,-0.0436 0.0544,0.0336 0.099,0.0808 0.099,0.10479 0,0.024 -0.0445,0.0436 -0.099,0.0436 -0.0544,0 -0.0989,-0.0472 -0.0989,-0.10479 z m -0.33263,-0.53837 c -0.0313,-0.0816 -0.0138,-0.14843 0.0389,-0.14843 0.0527,0 0.0958,0.0668 0.0958,0.14843 0,0.0816 -0.0175,0.14842 -0.0389,0.14842 -0.0214,0 -0.0645,-0.0668 -0.0958,-0.14842 z m -0.1543,-0.60194 c 0.005,-0.11527 0.0282,-0.13871 0.0598,-0.0598 0.0286,0.0714 0.0251,0.15677 -0.008,0.18965 -0.0329,0.0329 -0.0563,-0.0256 -0.052,-0.12987 z m 0,-0.59368 c 0.005,-0.11527 0.0282,-0.13872 0.0598,-0.0598 0.0286,0.0714 0.0251,0.15677 -0.008,0.18965 -0.0329,0.0329 -0.0563,-0.0256 -0.052,-0.12986 z"
       id="path15351" /></g></svg>
