<?xml version="1.0" encoding="UTF-8" standalone="no"?>
<!-- Created with Inkscape (http://www.inkscape.org/) -->

<svg
   width="225mm"
   height="90mm"
   viewBox="0 0 225 90"
   version="1.1"
   style="background-color: #000000;"
   id="svg1"
   inkscape:version="1.2.2 (b0a8486541, 2022-12-01)"
   sodipodi:docname="mug_02_Jesper_Molbech_Taxbøl.svg"
   xml:space="preserve"
   xmlns:inkscape="http://www.inkscape.org/namespaces/inkscape"
   xmlns:sodipodi="http://sodipodi.sourceforge.net/DTD/sodipodi-0.dtd"
   xmlns="http://www.w3.org/2000/svg"
   xmlns:svg="http://www.w3.org/2000/svg"><sodipodi:namedview
     id="namedview1"
     pagecolor="#ffffff"
     bordercolor="#000000"
     borderopacity="0.25"
     inkscape:showpageshadow="2"
     inkscape:pageopacity="0.0"
     inkscape:pagecheckerboard="0"
     inkscape:deskcolor="#d1d1d1"
     inkscape:document-units="mm"
     inkscape:zoom="1.4184197"
     inkscape:cx="457.55145"
     inkscape:cy="192.82022"
     inkscape:window-width="1854"
     inkscape:window-height="1131"
     inkscape:window-x="66"
     inkscape:window-y="32"
     inkscape:window-maximized="1"
     inkscape:current-layer="layer1"
     showgrid="false" /><defs
     id="defs1" /><g
     inkscape:label="Layer 1"
     inkscape:groupmode="layer"
     id="layer1">[[[BACKGROUND]]][[[BACKGROUND]]]<text
   xml:space="preserve"
   style="font-style:normal;font-variant:normal;font-weight:normal;font-stretch:normal;font-size:6.35px;font-family:'Noto Looped Lao';-inkscape-font-specification:'Noto Looped Lao';text-align:center;writing-mode:lr-tb;direction:ltr;text-anchor:middle;fill:#000000;fill-opacity:1;stroke-width:0.264583"
   x="51.913441"
   y="13.795106"
   id="text1"><tspan
     sodipodi:role="line"
     id="tspan1"
     style="font-style:normal;font-variant:normal;font-weight:normal;font-stretch:normal;font-size:6.35px;font-family:FreeSerif;-inkscape-font-specification:FreeSerif;fill:#000000;fill-opacity:1;stroke-width:0.264583"
     x="51.913441"
     y="13.795106">Think BIG</tspan><tspan
     sodipodi:role="line"
     style="font-style:normal;font-variant:normal;font-weight:normal;font-stretch:normal;font-size:6.35px;font-family:FreeSerif;-inkscape-font-specification:FreeSerif;fill:#000000;fill-opacity:1;stroke-width:0.264583"
     x="51.913441"
     y="21.851667"
     id="tspan2">Take CHANCES</tspan><tspan
     sodipodi:role="line"
     style="font-style:normal;font-variant:normal;font-weight:normal;font-stretch:normal;font-size:6.35px;font-family:FreeSerif;-inkscape-font-specification:FreeSerif;fill:#000000;fill-opacity:1;stroke-width:0.264583"
     x="51.913441"
     y="29.90823"
     id="tspan13">Test against REALITY</tspan><tspan
     sodipodi:role="line"
     style="font-style:normal;font-variant:normal;font-weight:normal;font-stretch:normal;font-size:6.35px;font-family:FreeSerif;-inkscape-font-specification:FreeSerif;fill:#000000;fill-opacity:1;stroke-width:0.264583"
     x="51.913441"
     y="37.964794"
     id="tspan5">Fail FAST</tspan><tspan
     sodipodi:role="line"
     style="font-style:normal;font-variant:normal;font-weight:normal;font-stretch:normal;font-size:6.35px;font-family:FreeSerif;-inkscape-font-specification:FreeSerif;fill:#000000;fill-opacity:1;stroke-width:0.264583"
     x="51.913441"
     y="46.021355"
     id="tspan23">Try AGAIN</tspan><tspan
     sodipodi:role="line"
     style="font-style:normal;font-variant:normal;font-weight:normal;font-stretch:normal;font-size:6.35px;font-family:FreeSerif;-inkscape-font-specification:FreeSerif;fill:#000000;fill-opacity:1;stroke-width:0.264583"
     x="51.913441"
     y="54.077919"
     id="tspan3">Do it RIGHT</tspan><tspan
     sodipodi:role="line"
     style="font-style:normal;font-variant:normal;font-weight:normal;font-stretch:normal;font-size:6.35px;font-family:FreeSerif;-inkscape-font-specification:FreeSerif;fill:#000000;fill-opacity:1;stroke-width:0.264583"
     x="51.913441"
     y="62.13448"
     id="tspan24">Disrupt EVERYTHING</tspan><tspan
     sodipodi:role="line"
     style="font-style:normal;font-variant:normal;font-weight:normal;font-stretch:normal;font-size:6.35px;font-family:FreeSerif;-inkscape-font-specification:FreeSerif;fill:#000000;fill-opacity:1;stroke-width:0.264583"
     x="51.913441"
     y="70.19104"
     id="tspan12" /><tspan
     sodipodi:role="line"
     style="font-style:normal;font-variant:normal;font-weight:normal;font-stretch:normal;font-size:6.35px;font-family:FreeSerif;-inkscape-font-specification:FreeSerif;fill:#000000;fill-opacity:1;stroke-width:0.264583"
     x="51.913441"
     y="78.12854"
     id="tspan22" /></text><text
   xml:space="preserve"
   style="font-size:7.05556px;font-family:'Abyssinica SIL';-inkscape-font-specification:'Abyssinica SIL';text-align:center;writing-mode:lr-tb;direction:ltr;text-anchor:middle;fill:#000000;fill-opacity:1;stroke-width:0.264583"
   x="177.96748"
   y="83.575027"
   id="text6"><tspan
     sodipodi:role="line"
     id="tspan6"
     style="font-style:normal;font-variant:normal;font-weight:normal;font-stretch:normal;font-family:FreeSerif;-inkscape-font-specification:FreeSerif;text-align:center;text-anchor:middle;fill:#000000;fill-opacity:1;stroke-width:0.264583"
     x="177.96748"
     y="83.575027">Jesper Molbech Taxbøl</tspan></text><text
   xml:space="preserve"
   style="font-size:3.175px;font-family:'Abyssinica SIL';-inkscape-font-specification:'Abyssinica SIL';text-align:center;writing-mode:lr-tb;direction:ltr;text-anchor:middle;fill:#000000;fill-opacity:1;stroke-width:0.264583"
   x="15.705943"
   y="-121.59789"
   id="text7"
   transform="rotate(90)"><tspan
     sodipodi:role="line"
     style="font-style:normal;font-variant:normal;font-weight:normal;font-stretch:normal;font-size:3.175px;font-family:FreeSerif;-inkscape-font-specification:FreeSerif;text-align:start;text-anchor:start;fill:#000000;fill-opacity:1;stroke-width:0.264583"
     x="15.705943"
     y="-121.59789"
     id="tspan11">multiply by -1 for no reason</tspan><tspan
     sodipodi:role="line"
     style="font-style:normal;font-variant:normal;font-weight:normal;font-stretch:normal;font-size:3.175px;font-family:FreeSerif;-inkscape-font-specification:FreeSerif;text-align:start;text-anchor:start;fill:#000000;fill-opacity:1;stroke-width:0.264583"
     x="15.705943"
     y="-117.58112"
     id="tspan8">invert matrices without reason</tspan><tspan
     sodipodi:role="line"
     style="font-style:normal;font-variant:normal;font-weight:normal;font-stretch:normal;font-size:3.175px;font-family:FreeSerif;-inkscape-font-specification:FreeSerif;text-align:start;text-anchor:start;fill:#000000;fill-opacity:1;stroke-width:0.264583"
     x="15.705943"
     y="-113.56435"
     id="tspan9">use the words røvlogik or Titanic</tspan><tspan
     sodipodi:role="line"
     style="font-style:normal;font-variant:normal;font-weight:normal;font-stretch:normal;font-size:3.175px;font-family:FreeSerif;-inkscape-font-specification:FreeSerif;text-align:start;text-anchor:start;fill:#000000;fill-opacity:1;stroke-width:0.264583"
     x="15.705943"
     y="-109.54758"
     id="tspan33">accept the mediocre</tspan><tspan
     sodipodi:role="line"
     style="font-style:normal;font-variant:normal;font-weight:normal;font-stretch:normal;font-size:3.175px;font-family:FreeSerif;-inkscape-font-specification:FreeSerif;text-align:start;text-anchor:start;fill:#000000;fill-opacity:1;stroke-width:0.264583"
     x="15.705943"
     y="-105.53081"
     id="tspan36">be afraid of complexity nor simplicity</tspan><tspan
     sodipodi:role="line"
     style="font-style:normal;font-variant:normal;font-weight:normal;font-stretch:normal;font-size:3.175px;font-family:FreeSerif;-inkscape-font-specification:FreeSerif;text-align:start;text-anchor:start;fill:#000000;fill-opacity:1;stroke-width:0.264583"
     x="15.705943"
     y="-101.51404"
     id="tspan15">purspone it </tspan><tspan
     sodipodi:role="line"
     style="font-style:normal;font-variant:normal;font-weight:normal;font-stretch:normal;font-size:3.175px;font-family:FreeSerif;-inkscape-font-specification:FreeSerif;text-align:start;text-anchor:start;fill:#000000;fill-opacity:1;stroke-width:0.264583"
     x="15.705943"
     y="-97.545288"
     id="tspan10" /></text><text
   xml:space="preserve"
   style="font-size:3.175px;font-family:'Abyssinica SIL';-inkscape-font-specification:'Abyssinica SIL';text-align:center;writing-mode:lr-tb;direction:ltr;text-anchor:middle;white-space:pre;inline-size:54.8385;display:inline;fill:#000000;fill-opacity:1;stroke-width:0.264583"
   x="119.67953"
   y="26.543098"
   id="text18"
   transform="translate(-67.795703,53.426339)"><tspan
     x="119.67953"
     y="26.543098"
     id="tspan4224"><tspan
   style="font-family:FreeSerif;-inkscape-font-specification:FreeSerif"
   id="tspan4218">I conceptualized &amp; de-risked Veo GO</tspan><tspan
   style="font-family:FreeSerif;-inkscape-font-specification:FreeSerif"
   id="tspan4220"> </tspan><tspan
   style="font-family:FreeSerif;-inkscape-font-specification:FreeSerif"
   id="tspan4222">&amp; all</tspan><tspan
   y="26.543098"
   id="tspan4226"> </tspan></tspan><tspan
     x="119.67953"
     y="30.55987"
     id="tspan4230"><tspan
       style="font-family:FreeSerif;-inkscape-font-specification:FreeSerif"
       id="tspan4228">the fame I got was this mug.</tspan></tspan></text><text
   xml:space="preserve"
   style="font-size:7.05556px;font-family:'Abyssinica SIL';-inkscape-font-specification:'Abyssinica SIL';text-align:center;writing-mode:lr-tb;direction:ltr;text-anchor:middle;fill:#000000;fill-opacity:1;stroke-width:0.264583"
   x="112.20755"
   y="10.999269"
   id="text29"><tspan
     sodipodi:role="line"
     style="font-style:normal;font-variant:normal;font-weight:normal;font-stretch:normal;font-family:FreeSerif;-inkscape-font-specification:FreeSerif;fill:#000000;fill-opacity:1;stroke-width:0.264583"
     x="112.20755"
     y="10.999269"
     id="tspan29">don't</tspan></text><text
   xml:space="preserve"
   style="font-size:3.175px;font-family:'Abyssinica SIL';-inkscape-font-specification:'Abyssinica SIL';text-align:start;writing-mode:lr-tb;direction:ltr;text-anchor:start;fill:#000000;fill-opacity:1;stroke-width:0.264583"
   x="112.33543"
   y="80.293289"
   id="text34"><tspan
     sodipodi:role="line"
     id="tspan34"
     style="font-style:normal;font-variant:normal;font-weight:normal;font-stretch:normal;font-family:FreeSerif;-inkscape-font-specification:FreeSerif;text-align:center;text-anchor:middle;fill:#000000;fill-opacity:1;stroke-width:0.264583"
     x="112.33543"
     y="80.293289">Veo Labs</tspan><tspan
     sodipodi:role="line"
     style="font-style:normal;font-variant:normal;font-weight:normal;font-stretch:normal;font-family:FreeSerif;-inkscape-font-specification:FreeSerif;text-align:center;text-anchor:middle;fill:#000000;fill-opacity:1;stroke-width:0.264583"
     x="112.33543"
     y="84.310059"
     id="tspan35">2025</tspan></text><path
   style="fill:#000000;fill-opacity:1;stroke-width:0.119021"
   d="m 193.59494,72.77978 c -0.001,-0.117948 -4.52118,-0.154641 -21.99096,-0.178532 l -21.98912,-0.03007 -0.027,-9.806545 c -0.0149,-5.393601 -0.0417,-9.820817 -0.0596,-9.838258 -0.0179,-0.01744 -0.3271,-0.05369 -0.68714,-0.08055 l -0.65462,-0.04885 v -2.006652 -2.006649 l 0.65462,-0.04883 c 0.36004,-0.02686 0.66924,-0.06311 0.68714,-0.08055 0.0179,-0.01744 0.0447,-4.444657 0.0596,-9.838258 l 0.027,-9.806545 14.60984,-0.03022 c 10.67436,-0.02208 14.60982,-0.06608 14.60982,-0.163351 0,-0.09815 0.0421,-0.09815 0.1604,5e-6 0.11595,0.09623 4.26513,0.141505 14.96689,0.163349 l 14.80648,0.03022 0.0596,9.873774 0.0596,9.873774 0.65461,0.005 0.65462,0.005 v 2.015002 2.015003 l -0.65462,0.04885 c -0.36003,0.02686 -0.66825,0.06211 -0.68491,0.07832 -0.0167,0.01622 -0.0434,4.443434 -0.0596,9.838258 l -0.0292,9.808769 -7.49185,0.03066 c -5.81206,0.02378 -7.51291,0.06381 -7.58576,0.178532 -0.0747,0.117642 -0.0943,0.117522 -0.0958,-5.95e-4 z m -41.79668,-0.543392 c 0.3147,-0.379199 -0.66748,-1.611901 -1.42711,-1.791115 -0.38181,-0.09008 -0.45874,0.05979 -0.45874,0.893743 0,0.933355 0.11431,1.05363 1.0013,1.05363 0.47797,0 0.80245,-0.05731 0.88455,-0.156258 z m 27.08734,0.08351 c 0.16736,-0.06422 0.18695,-0.909976 0.18695,-8.069123 0,-6.061489 -0.0346,-8.031952 -0.14282,-8.140204 -0.0786,-0.07856 -0.32905,-0.142824 -0.55666,-0.142824 -0.23889,0 -0.82587,-0.199442 -1.38859,-0.471818 -1.38637,-0.671039 -2.19051,-1.591177 -2.80102,-3.205108 -0.19403,-0.512923 -0.19061,-2.494318 0.006,-3.013533 0.58001,-1.53794 1.4104,-2.511908 2.67415,-3.136483 0.47459,-0.234559 1.09898,-0.456521 1.38755,-0.493252 0.28856,-0.03674 0.5916,-0.119666 0.67342,-0.184303 0.11636,-0.09192 0.14879,-1.852101 0.14879,-8.0803 v -7.962779 l -0.3053,-0.116075 c -0.33318,-0.126674 -26.07793,-0.169409 -26.40518,-0.04384 -0.10356,0.03974 -0.18827,0.19436 -0.18827,0.343611 0,0.149253 -0.17406,0.527322 -0.38681,0.840154 -0.37053,0.544823 -0.80088,0.856755 -1.5352,1.112739 l -0.33939,0.118309 v 4.519255 c 0,2.48559 0.0326,4.603976 0.0722,4.707521 0.0639,0.166474 0.53232,0.188267 4.04671,0.188267 2.5703,0 3.97448,0.04204 3.97448,0.11902 0,0.07694 -1.38719,0.119021 -3.92351,0.119021 -3.75724,0 -3.92873,0.0098 -4.04671,0.230218 -0.14798,0.276492 -0.16488,4.161581 -0.0191,4.391528 0.0746,0.117584 0.41945,0.153245 1.33716,0.138248 0.68019,-0.01111 1.35722,-0.01547 1.50451,-0.0097 l 0.2678,0.01056 v 4.701329 c 0,3.923449 -0.0272,4.70133 -0.16465,4.70133 -0.0906,0 -0.19267,0.107114 -0.22691,0.238042 -0.0342,0.130922 -0.12583,0.238042 -0.20355,0.238042 -0.0778,0 -0.16931,-0.107114 -0.20356,-0.238042 -0.0566,-0.216461 -0.16234,-0.238042 -1.16633,-0.238042 -0.89698,0 -1.11764,0.03531 -1.17633,0.188266 -0.12446,0.324327 -0.0801,4.097322 0.051,4.342357 0.10778,0.201326 0.2571,0.230217 1.1902,0.230217 0.8691,0 1.06701,-0.03311 1.06701,-0.178531 0,-0.09918 0.10578,-0.178532 0.23804,-0.178532 0.13225,0 0.23803,0.07935 0.23803,0.178532 0,0.153511 0.38304,0.178531 2.73329,0.178531 3.19395,0 2.97971,0.103192 2.97971,-1.435305 v -0.97487 l -0.32731,0.06606 c -0.18002,0.03634 -0.43442,0.09824 -0.56534,0.13758 l -0.23805,0.07152 0.23805,-0.12082 c 0.13092,-0.06645 0.38532,-0.173901 0.56534,-0.238777 l 0.32731,-0.117958 v -7.679841 c 0,-6.747142 0.0217,-7.6798 0.17854,-7.6798 0.15123,0 0.17854,0.290305 0.17854,1.898618 v 1.898618 l 0.52741,0.362877 0.52742,0.362875 0.23879,-0.33536 c 0.25497,-0.358059 0.64289,-1.807208 0.48377,-1.807208 -0.0522,0 -0.12907,0.107114 -0.17061,0.238042 -0.0631,0.198776 -0.41657,0.355023 -0.41657,0.184131 0,-0.241112 0.33467,-0.674766 0.65308,-0.846241 0.4775,-0.257154 0.74795,-0.165613 0.91347,0.309179 0.0909,0.260708 0.22414,0.383761 0.4685,0.432635 0.18783,0.03757 0.31352,0.113583 0.27931,0.168931 -0.0809,0.130892 -0.80058,-0.0093 -0.91404,-0.178086 -0.051,-0.07577 -0.0882,-0.02597 -0.0892,0.11929 -9.6e-4,0.137143 0.10766,0.34843 0.24146,0.469526 0.19766,0.178876 0.23673,0.338863 0.20829,0.852963 -0.0419,0.756583 -0.25732,0.844217 -0.31108,0.126526 -0.0549,-0.732362 -0.61658,-1.24688 -0.61658,-0.564783 0,0.304802 -0.70741,1.096354 -0.91025,1.018518 -0.0886,-0.03397 -0.16094,-0.0099 -0.16094,0.05352 0,0.0634 0.10234,0.115286 0.22747,0.115286 0.46142,0 1.26142,1.305069 1.5462,2.522391 0.15476,0.661509 0.17034,1.286281 0.0321,1.286281 -0.0961,0 -0.37751,-1.032547 -0.37751,-1.385321 0,-0.264157 -0.68125,-1.606222 -0.98846,-1.947267 -0.45202,-0.501799 -1.17016,-1.085612 -1.28734,-1.046551 -0.15771,0.05257 -0.14781,8.351948 0.01,8.404558 0.18429,0.06143 1.50747,-1.251994 1.72669,-1.713977 0.23587,-0.497069 0.30104,-0.510688 0.30104,-0.06291 0,0.405844 -0.81114,1.36979 -1.62222,1.927831 l -0.52016,0.357876 v 1.124982 c 0,0.890965 0.035,1.124982 0.16853,1.124982 0.0927,0 0.33821,0.214238 0.54558,0.476084 0.2074,0.261846 0.32431,0.476084 0.25981,0.476084 -0.0646,0 -0.22787,-0.187459 -0.36306,-0.416573 -0.13517,-0.229116 -0.32792,-0.416574 -0.42831,-0.416574 -0.1499,0 -0.18502,0.196882 -0.19628,1.100944 -0.008,0.605519 -0.0209,1.181283 -0.0298,1.279476 -0.0137,0.152637 -0.45194,0.183143 -3.02131,0.21033 l -3.00528,0.0318 v 0.47404 c 0,0.394693 -0.0399,0.474041 -0.23804,0.474041 -0.19838,0 -0.23804,-0.07935 -0.23804,-0.476084 v -0.476084 h -1.12844 c -1.07156,0 -1.13172,0.01349 -1.19361,0.267797 -0.0359,0.147289 -0.0502,2.269343 -0.032,4.715677 l 0.0331,4.447879 0.47608,0.19394 c 0.26185,0.10667 0.62558,0.295267 0.80827,0.41911 0.38681,0.262199 0.91754,1.113301 0.91754,1.471417 0,0.136082 0.0669,0.274303 0.14878,0.30716 0.21415,0.08599 26.3392,0.09226 26.56301,0.0063 z M 172.84055,69.6916 c -0.17781,-0.177819 -0.0692,-1.138358 0.16193,-1.432213 0.25533,-0.324603 0.31279,-0.627583 0.11902,-0.627583 -0.0654,0 -0.11902,0.04731 -0.11902,0.105147 0,0.143116 -0.58483,0.245816 -0.66462,0.116713 -0.0351,-0.0568 0.0718,-0.154848 0.23756,-0.217871 0.16922,-0.06433 0.33407,-0.244787 0.3759,-0.411468 0.12051,-0.480129 0.3431,-0.592846 0.70389,-0.356443 0.26732,0.175149 0.6565,0.730353 0.6565,0.936545 0,0.18447 -0.25329,0.02527 -0.41666,-0.261887 l -0.18622,-0.327307 0.0553,0.357062 c 0.17258,1.112924 0.23051,1.322634 0.43827,1.586751 0.26428,0.335993 0.29003,0.496455 0.0794,0.495305 -0.17981,-9.52e-4 -0.68436,-0.715103 -0.68436,-0.968639 0,-0.267757 -0.13525,-0.355461 -0.31635,-0.205153 -0.0886,0.07345 -0.15973,0.361767 -0.15973,0.646559 0,0.491096 -0.11776,0.727683 -0.28095,0.564484 z m -6.23545,-2.513665 c -0.54418,-0.05247 -0.50049,-0.343512 0.0596,-0.396531 0.66329,-0.0628 1.10094,0.013 1.10094,0.190669 0,0.171151 -0.53539,0.266129 -1.16046,0.205862 z m -14.18491,-0.190707 c -0.21082,-0.254024 -0.11818,-1.557314 0.11067,-1.557314 0.13386,0 0.18746,0.171253 0.21423,0.68437 l 0.0357,0.684371 h 0.58917 c 0.44435,0 0.58917,0.04388 0.58917,0.178532 0,0.245746 -1.3361,0.254464 -1.53895,0.01 z m 2.72915,-0.01 c 0,-0.140384 0.16531,-0.178531 0.77364,-0.178531 0.60833,0 0.77364,0.03815 0.77364,0.178531 0,0.140384 -0.16531,0.178532 -0.77364,0.178532 -0.60833,0 -0.77364,-0.03815 -0.77364,-0.178532 z m 2.73748,0 c 0,-0.140384 0.16531,-0.178531 0.77364,-0.178531 0.60833,0 0.77364,0.03815 0.77364,0.178531 0,0.140384 -0.16531,0.178532 -0.77364,0.178532 -0.60833,0 -0.77364,-0.03815 -0.77364,-0.178532 z m 2.73749,0 c 0,-0.141692 0.17192,-0.178531 0.83315,-0.178531 0.66122,0 0.83314,0.03683 0.83314,0.178531 0,0.141692 -0.17192,0.178532 -0.83314,0.178532 -0.66123,0 -0.83315,-0.03685 -0.83315,-0.178532 z m 2.8565,0 c 0,-0.140384 0.1653,-0.178531 0.77363,-0.178531 0.60834,0 0.77365,0.03815 0.77365,0.178531 0,0.140384 -0.16531,0.178532 -0.77365,0.178532 -0.60833,0 -0.77363,-0.03815 -0.77363,-0.178532 z m 5.47497,0 c 0,-0.140384 0.16531,-0.178531 0.77363,-0.178531 0.60833,0 0.77364,0.03815 0.77364,0.178531 0,0.140384 -0.16531,0.178532 -0.77364,0.178532 -0.60832,0 -0.77363,-0.03815 -0.77363,-0.178532 z m 1.63327,-0.370248 c -0.0473,-0.0473 -0.086,-0.309789 -0.086,-0.583311 0,-0.33087 -0.073,-0.563322 -0.21795,-0.694547 -0.23608,-0.21365 -0.37716,-0.153669 -0.37716,0.16035 0,0.299203 -0.76134,1.129605 -0.93645,1.021386 -0.108,-0.06677 -0.0661,-0.196183 0.15895,-0.491312 0.16808,-0.22037 0.35762,-0.674949 0.4212,-1.010177 0.0636,-0.335225 0.14613,-0.658921 0.18346,-0.719318 0.0373,-0.0604 0.0148,-0.109814 -0.0501,-0.109814 -0.0649,0 -0.15203,0.107114 -0.19357,0.238042 -0.0712,0.224326 -0.41658,0.344961 -0.41658,0.145505 0,-0.368831 0.89639,-1.038258 1.22264,-0.913066 0.0915,0.03514 0.25478,0.249004 0.36267,0.47524 0.12791,0.268235 0.27965,0.411343 0.43613,0.411343 0.21927,0 0.23996,0.07696 0.23996,0.892656 0,0.74794 -0.0317,0.892658 -0.19516,0.892658 -0.10734,0 -0.25611,0.08334 -0.33058,0.185184 -0.0744,0.101848 -0.17411,0.146482 -0.2214,0.09918 z m 0.55086,-1.859573 c 0.0752,-0.04809 -0.0329,-0.08827 -0.24013,-0.08927 -0.20729,-9.53e-4 -0.40391,-0.06877 -0.43693,-0.150599 -0.033,-0.08182 -0.0642,-0.04511 -0.0694,0.08159 -0.006,0.126704 0.11112,0.359313 0.2584,0.516909 l 0.26779,0.286537 0.0418,-0.278866 c 0.023,-0.153377 0.10334,-0.318216 0.17854,-0.36631 z m 1.86258,1.587939 c 0,-0.226079 0.27172,-0.41547 0.40493,-0.282248 0.17079,0.170782 0.06,0.507556 -0.16689,0.507556 -0.1542,0 -0.23804,-0.07935 -0.23804,-0.225308 z m -12.40794,-0.319065 c -0.1571,-0.159104 -0.0956,-1.187205 0.0855,-1.426477 0.0961,-0.127069 0.17645,-0.36178 0.17853,-0.521581 0.003,-0.251387 -0.0162,-0.26566 -0.14499,-0.105903 -0.19393,0.240695 -0.53871,0.357313 -0.62821,0.212491 -0.0388,-0.06272 0.0667,-0.166178 0.23423,-0.229898 0.16759,-0.06372 0.30472,-0.1856 0.30472,-0.270846 0,-0.08525 0.084,-0.274905 0.18664,-0.42146 0.18121,-0.258721 0.19667,-0.260533 0.53219,-0.06233 0.27296,0.161243 0.59039,0.671059 0.59039,0.948213 0,0.163794 -0.22565,-0.01491 -0.34242,-0.271183 -0.0784,-0.172113 -0.16327,-0.292238 -0.18856,-0.266943 -0.10089,0.100937 0.25974,1.62294 0.44845,1.892361 0.23982,0.342375 0.25447,0.473354 0.0528,0.471356 -0.20235,-0.002 -0.68438,-0.767246 -0.68438,-1.086492 0,-0.248398 -0.009,-0.250218 -0.23205,-0.04816 -0.1493,0.135119 -0.24479,0.400291 -0.2678,0.743629 -0.0197,0.293493 -0.0759,0.492942 -0.125,0.44322 z m 3.10313,-1.610235 c -0.26264,-0.467305 -0.29499,-0.485797 -0.7515,-0.429722 -0.26237,0.03222 -0.58416,0.0921 -0.71509,0.133048 -0.13092,0.04095 -0.0773,-0.0042 0.11902,-0.100503 0.19638,-0.09622 0.52953,-0.177373 0.74033,-0.180326 0.32474,-0.0046 0.42469,0.06718 0.65461,0.469799 0.25928,0.454034 0.59014,0.612494 0.74744,0.35798 0.0404,-0.06546 0.13735,-0.117318 0.21531,-0.115236 0.22319,0.006 -0.2959,0.353279 -0.52799,0.353279 -0.11922,0 -0.32459,-0.208005 -0.48213,-0.488319 z m 1.91608,-0.07704 c 0.0594,-0.429094 0.0636,-0.432556 0.10589,-0.08966 0.0242,0.196171 0.10623,0.396199 0.18211,0.444506 0.0852,0.05423 0.0448,0.08852 -0.1059,0.08966 -0.21368,0.0016 -0.23624,-0.05347 -0.1821,-0.444507 z m 0.65024,0.274749 c -0.10478,-0.273148 10e-4,-0.602058 0.19396,-0.602058 0.11258,0 0.19046,0.140641 0.2142,0.386819 0.028,0.290296 -0.01,0.386819 -0.15251,0.386819 -0.10444,0 -0.21944,-0.07721 -0.25565,-0.17158 z m 0.31135,-0.244994 c 0,-0.163655 -0.0536,-0.297553 -0.11901,-0.297553 -0.0654,0 -0.11903,0.133898 -0.11903,0.297553 0,0.163654 0.0536,0.297553 0.11903,0.297553 0.0654,0 0.11901,-0.133899 0.11901,-0.297553 z m 0.40278,0.244994 c -0.10389,-0.270759 -3.6e-4,-0.598103 0.1937,-0.612151 0.10356,-0.0074 0.11532,0.0079 0.0284,0.03711 -0.0818,0.02747 -0.14878,0.185645 -0.14878,0.351503 0,0.219154 0.0488,0.282838 0.17854,0.23305 0.0982,-0.03768 0.17853,-0.01663 0.17853,0.04678 0,0.181283 -0.35714,0.13457 -0.43037,-0.05629 z m -14.68529,-1.197154 c 0,-0.69429 0.0245,-0.773638 0.23804,-0.773638 0.21363,0 0.23804,0.07935 0.23804,0.773638 0,0.694288 -0.0244,0.773636 -0.23804,0.773636 -0.21363,0 -0.23804,-0.07935 -0.23804,-0.773636 z m 20.28412,0.682548 c -0.0705,-0.04809 -0.22923,-0.261512 -0.35298,-0.474262 -0.16863,-0.289926 -0.30799,-0.386818 -0.55639,-0.386818 -0.22585,0 -0.33139,0.06128 -0.33139,0.192412 0,0.141457 -0.0709,0.173409 -0.2678,0.120647 -0.14729,-0.03947 -0.44187,-0.0725 -0.65462,-0.07339 -0.30299,-0.0012 -0.38681,-0.05169 -0.38681,-0.232641 0,-0.127061 0.0488,-0.261132 0.10833,-0.29794 0.17021,-0.105192 0.48683,0.06005 0.48683,0.254056 0,0.09665 0.0669,0.153654 0.14877,0.126687 0.0868,-0.02858 0.16378,-0.305709 0.18475,-0.664533 0.0258,-0.441327 0.0848,-0.615505 0.20829,-0.615505 0.12488,0 0.17231,0.14745 0.17231,0.535594 0,0.510241 0.0161,0.535595 0.34125,0.535595 0.26739,0 0.41081,0.105125 0.66268,0.485722 0.20796,0.314251 0.38161,0.461312 0.49191,0.416574 0.4414,-0.179058 0.56013,-0.188113 0.28948,-0.02208 -0.34488,0.21156 -0.37343,0.216801 -0.54456,0.09988 z m 1.60631,-0.474262 c 0.0594,-0.429093 0.0636,-0.432555 0.10589,-0.08965 0.0242,0.196171 0.10623,0.3962 0.18211,0.444507 0.0852,0.05424 0.0448,0.08852 -0.10589,0.08965 -0.21369,0.0016 -0.23625,-0.05347 -0.18211,-0.444507 z m 0.75331,0.371258 c 0.12428,-0.03663 0.20829,-0.177898 0.20829,-0.350229 0,-0.362999 -0.21086,-0.375547 -0.35336,-0.02103 -0.0601,0.149559 -0.11011,0.188971 -0.11336,0.08927 -0.01,-0.299375 0.19127,-0.515903 0.40317,-0.434593 0.29119,0.11174 0.19805,0.722569 -0.11498,0.754049 -0.18555,0.01866 -0.19212,0.01045 -0.0298,-0.03747 z m 0.61106,-0.0965 c -0.10389,-0.270759 -3.6e-4,-0.598103 0.1937,-0.612152 0.10356,-0.0076 0.11532,0.0079 0.0283,0.03711 -0.0818,0.02747 -0.14877,0.185645 -0.14877,0.351502 0,0.219155 0.0488,0.282839 0.17853,0.233051 0.0982,-0.03768 0.17853,-0.01663 0.17853,0.04678 0,0.181283 -0.35714,0.134569 -0.43037,-0.05629 z m -21.3599,-0.869855 c 0.0595,-0.429093 0.0635,-0.432555 0.10589,-0.08966 0.0242,0.196173 0.10623,0.3962 0.1821,0.444507 0.0852,0.05423 0.0448,0.08852 -0.10589,0.08966 -0.21369,0.0016 -0.23625,-0.05347 -0.18211,-0.444507 z m 0.75331,0.371258 c 0.12428,-0.03663 0.20829,-0.177896 0.20829,-0.350228 0,-0.362999 -0.21085,-0.375548 -0.35336,-0.02103 -0.0601,0.149558 -0.11011,0.18897 -0.11336,0.08927 -0.01,-0.299375 0.19127,-0.515904 0.40317,-0.434594 0.29119,0.111741 0.19805,0.722569 -0.11498,0.754049 -0.18555,0.01866 -0.19212,0.01044 -0.0298,-0.03747 z m 0.80522,-0.0054 c -9.6e-4,-0.07702 -0.0956,-0.164542 -0.21011,-0.194479 -0.19837,-0.05184 -0.19837,-0.05509 0,-0.06824 0.11456,-0.0076 0.20828,-0.07052 0.20828,-0.139852 0,-0.06932 -0.0536,-0.09295 -0.11901,-0.05249 -0.17636,0.108993 -0.14428,-0.0094 0.0451,-0.166597 0.13076,-0.108514 0.17553,-0.07673 0.22007,0.156264 0.0308,0.160873 0.0112,0.36291 -0.0433,0.448968 -0.0671,0.105781 -0.0998,0.111103 -0.101,0.01642 z m 1.6361,-0.0037 c 0.14805,-0.02847 0.36229,-0.02739 0.47608,0.0024 0.1138,0.02979 -0.008,0.05308 -0.26917,0.05177 -0.26186,-0.0013 -0.35496,-0.0257 -0.20691,-0.05417 z m -0.89178,-0.117323 c 0.1158,-0.03018 0.27648,-0.02819 0.35706,0.0044 0.0806,0.0326 -0.0142,0.05729 -0.21055,0.05487 -0.19638,-0.0024 -0.26232,-0.0291 -0.14651,-0.05928 z m 1.85,0.0012 c 0.0859,-0.03438 0.18857,-0.03016 0.22813,0.0093 0.0395,0.03955 -0.0308,0.06768 -0.15622,0.06251 -0.13866,-0.0057 -0.16686,-0.03391 -0.0719,-0.0719 z m 0.66481,-0.34749 c 0.1897,-0.189663 0.53152,-0.639419 0.7596,-0.999457 0.63948,-1.009507 0.96455,-1.312084 1.38742,-1.291398 l 0.36454,0.01783 -0.35706,0.05221 c -0.48503,0.07092 -0.59542,0.179857 -1.31944,1.30204 -0.34539,0.535337 -0.75218,1.038652 -0.90399,1.118476 -0.23762,0.124947 -0.22803,0.09717 0.0689,-0.199703 z m 1.73793,-0.278323 c 0,-0.12706 0.0474,-0.26037 0.10555,-0.296242 0.14495,-0.08958 0.40924,0.24935 0.31427,0.403026 -0.13028,0.210795 -0.4198,0.13715 -0.4198,-0.106781 z m 4.47988,-0.803734 c -0.18058,-0.180583 -0.0701,-1.202204 0.16193,-1.497166 0.29851,-0.379486 0.31278,-0.619508 0.0298,-0.500546 -0.39581,0.166375 -0.74388,0.203261 -0.74388,0.07883 0,-0.06868 0.11023,-0.15984 0.24482,-0.202577 0.13465,-0.04273 0.33203,-0.260583 0.43861,-0.484104 0.21008,-0.440529 0.43366,-0.503881 0.82096,-0.232612 0.2868,0.200887 0.59449,0.864573 0.45918,0.99048 -0.0506,0.047 -0.1132,0.0261 -0.13932,-0.04645 -0.0261,-0.07255 -0.12469,-0.233221 -0.21901,-0.357063 -0.2895,-0.380092 -0.0878,0.862613 0.25017,1.541379 0.33306,0.668888 0.33408,0.673853 0.1382,0.671913 -0.16931,-0.0017 -0.68438,-0.745786 -0.68438,-0.988699 0,-0.248564 -0.14043,-0.330434 -0.31635,-0.184432 -0.0885,0.07345 -0.15973,0.361768 -0.15973,0.646559 0,0.491097 -0.11775,0.727683 -0.28095,0.564484 z m 7.76662,-0.566754 c -0.13347,-0.226214 -0.34993,-0.445341 -0.48103,-0.486953 -0.13111,-0.04161 -0.21214,-0.10188 -0.18009,-0.133941 0.12061,-0.120607 0.53656,0.208065 0.77522,0.61254 0.13618,0.230807 0.22081,0.419649 0.18808,0.419649 -0.0327,0 -0.16871,-0.185083 -0.30218,-0.411295 z m 0.77015,0.232031 c 0.43407,-0.226387 0.54425,-0.227747 0.24718,-0.003 -0.12707,0.09611 -0.31137,0.176119 -0.40956,0.177798 -0.0982,0.0017 -0.0251,-0.07696 0.16238,-0.174747 z m 1.13742,-0.267065 c 0.0594,-0.429092 0.0634,-0.432555 0.10589,-0.08966 0.0242,0.196172 0.10623,0.3962 0.18211,0.444507 0.0852,0.05423 0.0448,0.08852 -0.10589,0.08966 -0.21369,0.0016 -0.23624,-0.05347 -0.1821,-0.444507 z m 0.65024,0.27475 c -0.10478,-0.273147 0.001,-0.602057 0.19397,-0.602057 0.11258,0 0.19046,0.14064 0.21419,0.386818 0.028,0.290295 -0.01,0.386818 -0.15252,0.386818 -0.10444,0 -0.21944,-0.07721 -0.25564,-0.171579 z m 0.31136,-0.244994 c 0,-0.163654 -0.0536,-0.297552 -0.11903,-0.297552 -0.0654,0 -0.11902,0.133898 -0.11902,0.297552 0,0.163654 0.0536,0.297552 0.11902,0.297552 0.0654,0 0.11903,-0.133898 0.11903,-0.297552 z m 0.35705,0 c 0,-0.337226 0.0453,-0.416574 0.23803,-0.416574 0.19271,0 0.23805,0.07935 0.23805,0.416574 0,0.337225 -0.0453,0.416573 -0.23805,0.416573 -0.19269,0 -0.23803,-0.07935 -0.23803,-0.416573 z m 0.35706,0.178532 c 0,-0.06546 -0.0536,-0.119022 -0.11903,-0.119022 -0.0654,0 -0.11901,0.05356 -0.11901,0.119022 0,0.06546 0.0536,0.11902 0.11901,0.11902 0.0654,0 0.11903,-0.05356 0.11903,-0.11902 z m 0,-0.357064 c 0,-0.06546 -0.0536,-0.11902 -0.11903,-0.11902 -0.0654,0 -0.11901,0.05356 -0.11901,0.11902 0,0.06546 0.0536,0.119021 0.11901,0.119021 0.0654,0 0.11903,-0.05356 0.11903,-0.119021 z m -13.56838,0.0072 c -0.19408,-0.05745 -0.0226,-0.08436 0.4932,-0.0774 0.43492,0.0059 0.76651,0.05085 0.73685,0.09994 -0.0667,0.11037 -0.8282,0.09641 -1.23005,-0.02253 z m 8.39369,-0.114581 c 0.064,-0.06261 0.27699,-0.151937 0.47337,-0.198509 0.46058,-0.109226 0.35712,-0.0078 -0.17582,0.172417 -0.22761,0.07696 -0.36152,0.0887 -0.29755,0.02609 z m -9.13757,-0.09048 c 0.0818,-0.03301 0.21572,-0.03301 0.29755,0 0.0818,0.03302 0.0149,0.06003 -0.14878,0.06003 -0.16365,0 -0.23061,-0.02701 -0.14877,-0.06003 z m -0.59511,-0.119022 c 0.0818,-0.03301 0.21573,-0.03301 0.29755,0 0.0818,0.03302 0.0149,0.06003 -0.14879,0.06003 -0.16365,0 -0.23059,-0.02701 -0.14876,-0.06003 z m 9.31339,-0.69481 c 0,-0.60833 0.0381,-0.773637 0.17854,-0.773637 0.14038,0 0.17853,0.165307 0.17853,0.773637 0,0.608329 -0.0381,0.773636 -0.17853,0.773636 -0.14039,0 -0.17854,-0.165307 -0.17854,-0.773636 z m -6.90543,0.216697 c -0.26764,-0.694954 -0.26697,-0.731288 0.004,-0.238094 0.13759,0.250079 0.23229,0.508271 0.21047,0.573761 -0.0219,0.06549 -0.1185,-0.08556 -0.21483,-0.335667 z m -1.82601,-0.120749 c -0.0419,-0.04187 -0.0761,-0.299901 -0.0761,-0.573423 0,-0.330869 -0.073,-0.563322 -0.21794,-0.694548 -0.23609,-0.21365 -0.37717,-0.153669 -0.37717,0.160351 0,0.299203 -0.76135,1.129605 -0.93645,1.021386 -0.108,-0.06675 -0.0658,-0.19672 0.16024,-0.493017 0.17422,-0.228399 0.36044,-0.691962 0.43072,-1.072133 0.12346,-0.66785 0.0806,-1.005185 -0.0682,-0.536401 -0.0651,0.205155 -0.41942,0.368277 -0.41942,0.1931 0,-0.219522 0.31546,-0.654626 0.59386,-0.819075 0.49668,-0.2934 0.69687,-0.245057 0.91964,0.222079 0.11599,0.243239 0.31573,0.449225 0.47416,0.488987 0.15056,0.03779 0.27374,0.115118 0.27374,0.171848 0,0.140184 -0.75168,-0.01469 -0.86108,-0.17742 -0.0509,-0.07577 -0.0882,-0.02597 -0.0892,0.11929 -9.4e-4,0.137143 0.10534,0.346292 0.23623,0.464775 0.18085,0.163668 0.23804,0.366582 0.23804,0.84457 0,0.591825 -0.10789,0.852728 -0.28095,0.679631 z m 1.05459,-0.512522 c -0.0931,-0.150633 0.0645,-0.150633 0.29754,0 0.15387,0.09943 0.15072,0.115628 -0.0228,0.117199 -0.11067,0.001 -0.23435,-0.05174 -0.27482,-0.117199 z m 0.89266,0 c 0.23307,-0.150633 0.39064,-0.150633 0.29754,0 -0.0404,0.06546 -0.16411,0.118201 -0.27483,0.117199 -0.17344,-0.0016 -0.17658,-0.01777 -0.0228,-0.117199 z m 11.75332,0.05074 c -0.16846,-0.170607 -0.0989,-1.322803 0.0892,-1.478982 0.0982,-0.08149 0.17853,-0.279334 0.17853,-0.439647 0,-0.264983 -0.017,-0.274479 -0.18703,-0.104448 -0.20929,0.209297 -0.64612,0.253286 -0.64612,0.06507 0,-0.06708 0.13391,-0.172876 0.29755,-0.235096 0.16366,-0.06222 0.29756,-0.184558 0.29756,-0.271858 0,-0.328847 0.30521,-0.593785 0.58263,-0.505738 0.41272,0.130994 0.95217,1.134659 0.60984,1.134659 -0.0642,0 -0.15036,-0.133899 -0.19144,-0.297553 -0.0411,-0.163653 -0.11381,-0.297552 -0.16163,-0.297552 -0.15786,0 0.13028,1.480403 0.36181,1.858873 0.25566,0.417912 0.27798,0.521547 0.1123,0.521547 -0.19137,0 -0.71824,-0.868119 -0.72106,-1.188083 l -0.002,-0.29968 -0.22951,0.297553 c -0.12623,0.163654 -0.24555,0.530155 -0.26515,0.814448 -0.0196,0.284291 -0.0758,0.476213 -0.12491,0.426491 z m -12.19913,-0.425119 c -0.15929,-0.159284 -0.0625,-0.458749 0.14826,-0.458749 0.21975,0 0.31049,0.317171 0.13291,0.46455 -0.10545,0.0875 -0.1896,0.08577 -0.28117,-0.0058 z m -0.62538,-0.32568 c 0,-0.06546 0.0536,-0.152121 0.11902,-0.192579 0.0654,-0.04046 0.11902,-0.02 0.11902,0.04546 0,0.06546 -0.0536,0.152122 -0.11902,0.192579 -0.0654,0.04046 -0.11902,0.02 -0.11902,-0.04546 z m 1.38858,0.02562 c -0.0437,-0.04365 -0.0793,-0.134691 -0.0793,-0.202335 0,-0.07458 0.0554,-0.06755 0.14084,0.01786 0.0774,0.07747 0.11317,0.168515 0.0793,0.202336 -0.0338,0.03382 -0.0972,0.02579 -0.14083,-0.01786 z m -12.21949,-1.051323 c 0,-0.694289 0.0245,-0.773637 0.23804,-0.773637 0.21363,0 0.23804,0.07935 0.23804,0.773637 0,0.694288 -0.0244,0.773636 -0.23804,0.773636 -0.21363,0 -0.23804,-0.07935 -0.23804,-0.773636 z m 7.98432,0.730247 c 0.0273,-0.02387 0.18349,-0.107159 0.34715,-0.185097 0.28056,-0.133619 0.28435,-0.13114 0.0666,0.04339 -0.18961,0.151902 -0.577,0.284613 -0.41367,0.141709 z m 5.18982,-0.03348 c -0.18335,-0.18335 -0.077,-0.518238 0.16449,-0.518238 0.18514,0 0.23687,0.0642 0.20828,0.258475 -0.0395,0.268428 -0.2308,0.401736 -0.37277,0.259763 z m -10.21131,-0.150813 c 0.0971,-0.0615 0.13875,-0.208644 0.10045,-0.355123 -0.036,-0.137559 -0.0227,-0.276509 0.0296,-0.30878 0.0522,-0.03227 0.11677,0.128353 0.14346,0.356944 0.0416,0.355802 0.0134,0.415358 -0.19538,0.413796 -0.18712,-0.0014 -0.20529,-0.02627 -0.0781,-0.106836 z m 0.6535,-0.06292 c -0.10478,-0.273147 0.001,-0.602057 0.19397,-0.602057 0.11258,0 0.19046,0.14064 0.2142,0.386818 0.028,0.290296 -0.01,0.386818 -0.15252,0.386818 -0.10445,0 -0.21943,-0.07721 -0.25565,-0.171579 z m 0.31135,-0.244994 c 0,-0.163654 -0.0536,-0.297553 -0.11901,-0.297553 -0.0655,0 -0.11903,0.133899 -0.11903,0.297553 0,0.163653 0.0536,0.297553 0.11903,0.297553 0.0654,0 0.11901,-0.1339 0.11901,-0.297553 z m 0.40278,0.244994 c -0.10389,-0.270758 -3.5e-4,-0.598103 0.1937,-0.612151 0.10356,-0.0074 0.11533,0.0079 0.0283,0.03711 -0.0818,0.02747 -0.14877,0.185646 -0.14877,0.351502 0,0.219155 0.0488,0.28284 0.17853,0.23305 0.0982,-0.03768 0.17853,-0.01663 0.17853,0.04678 0,0.181284 -0.35714,0.13457 -0.43037,-0.05629 z m 7.19226,-0.02875 c 0.0859,-0.03438 0.18857,-0.03016 0.22812,0.0094 0.0396,0.03955 -0.0308,0.06768 -0.15622,0.06251 -0.13865,-0.0057 -0.16685,-0.03391 -0.0719,-0.0719 z m 7.16357,-1.108906 c 0,-0.661228 0.0369,-0.833147 0.17854,-0.833147 0.14169,0 0.17853,0.171919 0.17853,0.833147 0,0.661229 -0.0368,0.833147 -0.17853,0.833147 -0.14169,0 -0.17854,-0.171918 -0.17854,-0.833147 z m -5.51788,0.512523 c -0.0419,-0.04187 -0.0761,-0.299902 -0.0761,-0.573424 0,-0.334432 -0.0728,-0.563205 -0.22232,-0.698507 -0.2115,-0.191415 -0.22564,-0.185077 -0.29058,0.130329 -0.0919,0.446204 -0.71108,1.171898 -0.90019,1.055025 -0.108,-0.06678 -0.073,-0.188268 0.13438,-0.466408 0.15424,-0.206861 0.34439,-0.661384 0.42252,-1.010052 0.19216,-0.857442 0.1764,-0.964915 -0.0905,-0.617558 -0.12499,0.162676 -0.25969,0.263326 -0.29936,0.223668 -0.1534,-0.153401 0.21776,-0.674346 0.61563,-0.864076 0.47713,-0.22753 0.63807,-0.152047 0.87009,0.408091 0.0888,0.214264 0.23418,0.353116 0.36987,0.353116 0.12298,0 0.22359,0.05717 0.22359,0.127042 0,0.0702 -0.10645,0.09683 -0.23804,0.05951 -0.13091,-0.03715 -0.34515,-0.09793 -0.47608,-0.135062 -0.29841,-0.08466 -0.29841,0.0431 0,0.424594 0.34942,0.446711 0.30908,1.935699 -0.0429,1.583711 z m -3.68641,-0.829912 c -0.13884,-0.138846 -0.0854,-0.487964 0.0847,-0.553234 0.1834,-0.07038 0.43108,0.128475 0.43108,0.3461 0,0.07809 -0.0848,0.174503 -0.18827,0.214237 -0.23311,0.08946 -0.23088,0.0895 -0.32749,-0.0071 z m 6.31804,-0.346007 c -0.16846,-0.170608 -0.0989,-1.322803 0.0892,-1.478981 0.0982,-0.08149 0.17854,-0.279334 0.17854,-0.439649 0,-0.264982 -0.017,-0.274478 -0.18704,-0.104447 -0.20929,0.209297 -0.64611,0.253286 -0.64611,0.06507 0,-0.06708 0.1339,-0.172875 0.29756,-0.235096 0.16365,-0.06222 0.29755,-0.184557 0.29755,-0.271858 0,-0.328846 0.30522,-0.593784 0.58263,-0.505737 0.41272,0.130994 0.95216,1.134658 0.60984,1.134658 -0.0642,0 -0.15036,-0.133898 -0.19143,-0.297552 -0.0411,-0.163654 -0.11381,-0.297553 -0.16163,-0.297553 -0.15787,0 0.13027,1.480404 0.36182,1.858874 0.25565,0.417911 0.27796,0.521547 0.11229,0.521547 -0.19136,0 -0.71824,-0.86812 -0.72107,-1.188084 l -0.002,-0.29968 -0.22951,0.297554 c -0.12622,0.163653 -0.24554,0.530154 -0.26515,0.814447 -0.0196,0.284292 -0.0758,0.476213 -0.1249,0.426492 z m 8.0553,-0.20813 c -0.0421,-0.109814 -0.0421,-0.289511 0,-0.399325 0.0717,-0.18687 0.0894,-0.18687 0.27629,0 0.18686,0.186869 0.18686,0.212456 0,0.399325 -0.18687,0.18687 -0.20457,0.18687 -0.27629,0 z m -5.03346,-0.503187 c -0.13131,-0.16694 -0.25715,-0.358719 -0.27964,-0.426175 -0.0224,-0.06746 -0.22689,-0.166406 -0.45426,-0.219887 l -0.41336,-0.09724 0.38532,-0.01218 c 0.32589,-0.01033 0.43168,0.06126 0.68586,0.4639 0.32152,0.509317 0.40647,0.546021 0.81122,0.350498 0.25114,-0.121316 0.25211,-0.119293 0.0289,0.05951 -0.32213,0.258073 -0.48817,0.232336 -0.76408,-0.118426 z m 1.75607,0.07585 c 0.0971,-0.0615 0.13873,-0.208644 0.10044,-0.355124 -0.036,-0.137559 -0.0227,-0.27651 0.0296,-0.30878 0.0522,-0.03227 0.11677,0.128354 0.14346,0.356944 0.0416,0.355803 0.0134,0.415357 -0.19538,0.413797 -0.18713,-0.0014 -0.2053,-0.02627 -0.078,-0.106836 z m 0.65349,-0.06292 c -0.10389,-0.270759 -3.5e-4,-0.598103 0.1937,-0.612151 0.10356,-0.0076 0.11533,0.0079 0.0284,0.03711 -0.2283,0.07664 -0.18129,0.601641 0.0596,0.664571 0.19521,0.05101 0.19497,0.0553 -0.003,0.06823 -0.11662,0.0076 -0.24165,-0.0634 -0.27787,-0.157773 z m 0.71297,-0.003 c -0.0369,-0.09604 -0.0395,-0.243321 -0.006,-0.327308 0.0338,-0.08399 0.0656,-0.03219 0.0708,0.115094 0.006,0.162722 0.0845,0.267798 0.20066,0.267798 0.13303,0 0.16712,-0.06343 0.11197,-0.208287 -0.0604,-0.158813 -0.0461,-0.175412 0.0602,-0.06988 0.0768,0.07613 0.10356,0.196631 0.0596,0.267798 -0.11537,0.18667 -0.41907,0.159067 -0.49745,-0.04521 z m -0.27321,-0.251886 c 0.006,-0.138654 0.0339,-0.166856 0.0719,-0.07191 0.0343,0.08591 0.0301,0.188573 -0.009,0.228123 -0.0395,0.03955 -0.0677,-0.03075 -0.0625,-0.156215 z m -4.47268,-0.287638 c 0.3272,-0.140601 0.51512,-0.140601 0.29756,0 -0.0982,0.06346 -0.25888,0.112433 -0.35707,0.108837 -0.11773,-0.0043 -0.0974,-0.04139 0.0596,-0.108837 z m 4.91705,-0.0813 c 0.0859,-0.03438 0.18858,-0.03016 0.22813,0.0094 0.0396,0.03954 -0.0308,0.06768 -0.15622,0.06251 -0.13865,-0.0057 -0.16686,-0.03391 -0.0719,-0.0719 z m -3.46215,-0.516371 c -0.0717,-0.533899 0.0503,-1.143486 0.21995,-1.099453 0.0608,0.01578 0.1263,0.377299 0.14565,0.803393 0.0275,0.604944 -0.002,0.774714 -0.1331,0.774714 -0.10656,0 -0.19186,-0.175735 -0.2325,-0.478654 z m -8.2225,-0.08001 c -0.0419,-0.04187 -0.0761,-0.299903 -0.0761,-0.573424 0,-0.33087 -0.0729,-0.563322 -0.21794,-0.694549 -0.23609,-0.213649 -0.37717,-0.153669 -0.37717,0.160352 0,0.299202 -0.76134,1.129605 -0.93644,1.021386 -0.108,-0.06677 -0.0661,-0.196184 0.15895,-0.491313 0.16808,-0.220369 0.35762,-0.674949 0.42119,-1.010176 0.0636,-0.335227 0.14614,-0.658921 0.18346,-0.71932 0.0373,-0.0604 0.0148,-0.109814 -0.0501,-0.109814 -0.0649,0 -0.15201,0.107114 -0.19357,0.238043 -0.0712,0.224325 -0.41658,0.34496 -0.41658,0.145504 0,-0.368831 0.89639,-1.038258 1.22264,-0.913066 0.0916,0.03514 0.25479,0.249004 0.36267,0.475241 0.12792,0.268234 0.27964,0.411341 0.43614,0.411341 0.13197,0 0.23995,0.04428 0.23995,0.0984 0,0.140806 -0.75641,0.01378 -0.86107,-0.144606 -0.0517,-0.07819 -0.0882,-0.03031 -0.0892,0.117017 -9.5e-4,0.137143 0.10534,0.346292 0.23622,0.464776 0.18085,0.163669 0.23804,0.366581 0.23804,0.84457 0,0.591824 -0.10789,0.852728 -0.28095,0.679631 z m 2.23775,-0.166881 c -0.1049,-0.169779 0.24243,-0.517141 0.41222,-0.412212 0.22681,0.140183 0.15223,0.542654 -0.10056,0.542654 -0.12706,0 -0.2673,-0.0587 -0.31163,-0.130442 z m 3.3313,-1.217168 c -0.0421,-0.109815 -0.0421,-0.289511 0,-0.399326 0.0717,-0.18687 0.0894,-0.18687 0.27627,0 0.18687,0.186869 0.18687,0.212457 0,0.399326 -0.18688,0.18687 -0.20457,0.18687 -0.27627,0 z m 2.68632,-1.568405 c 0,-0.608329 0.0381,-0.773636 0.17854,-0.773636 0.14038,0 0.17853,0.165307 0.17853,0.773636 0,0.608329 -0.0381,0.773637 -0.17853,0.773637 -0.14039,0 -0.17854,-0.165308 -0.17854,-0.773637 z m -8.80755,-0.401271 c 0,-0.290195 0.14983,-0.398746 0.41168,-0.298265 0.27534,0.105658 0.17416,0.453978 -0.14511,0.499528 -0.20031,0.02858 -0.26658,-0.02146 -0.26657,-0.201263 z m -5.92576,-0.27566 c -0.19528,-0.195285 -0.18148,-0.393781 0.0402,-0.577746 0.26392,-0.219038 0.64553,0.151651 0.45959,0.446434 -0.16717,0.265015 -0.3247,0.306402 -0.49978,0.131312 z m 10.28662,-0.06027 c -0.17783,-0.177818 -0.0692,-1.138358 0.16193,-1.432213 0.25534,-0.324602 0.31279,-0.627582 0.11901,-0.627582 -0.0654,0 -0.11901,0.04731 -0.11901,0.105147 0,0.143116 -0.58483,0.245815 -0.66462,0.116713 -0.0351,-0.0568 0.0718,-0.154848 0.23756,-0.217871 0.16921,-0.06434 0.33407,-0.244789 0.3759,-0.411469 0.12051,-0.480128 0.34309,-0.592846 0.70389,-0.356443 0.26731,0.17515 0.6565,0.730354 0.6565,0.936546 0,0.184469 -0.25329,0.02527 -0.41666,-0.261887 l -0.18621,-0.327308 0.0553,0.357063 c 0.17258,1.112922 0.23051,1.322634 0.43826,1.58675 0.26429,0.335994 0.29004,0.496456 0.0794,0.495304 -0.17982,-9.52e-4 -0.68436,-0.715101 -0.68436,-0.968637 0,-0.267757 -0.13525,-0.355461 -0.31637,-0.205153 -0.0884,0.07345 -0.15972,0.361766 -0.15972,0.646558 0,0.491097 -0.11775,0.727683 -0.28096,0.564484 z m 6.30812,-0.119021 c -0.0419,-0.04187 -0.0761,-0.299902 -0.0761,-0.573423 0,-0.330871 -0.073,-0.563323 -0.21795,-0.694548 -0.23607,-0.21365 -0.37716,-0.153669 -0.37716,0.16035 0,0.299203 -0.76134,1.129605 -0.93645,1.021386 -0.108,-0.06676 -0.0661,-0.196183 0.15895,-0.491312 0.16808,-0.22037 0.35762,-0.674949 0.4212,-1.010177 0.0636,-0.335225 0.14613,-0.658921 0.18346,-0.719319 0.0373,-0.0604 0.0148,-0.109814 -0.0501,-0.109814 -0.0649,0 -0.15202,0.107114 -0.19358,0.238042 -0.0416,0.130923 -0.15227,0.238042 -0.24606,0.238042 -0.11552,0 -0.17051,0.134343 -0.17051,0.416573 0,0.29094 -0.0539,0.416574 -0.17853,0.416574 -0.14039,0 -0.17854,-0.165307 -0.17854,-0.773637 0,-0.608329 0.0381,-0.773636 0.17854,-0.773636 0.10512,0 0.17853,0.108737 0.17853,0.264526 v 0.264523 l 0.18576,-0.265204 c 0.2774,-0.396048 0.83895,-0.654157 1.1089,-0.509687 0.12173,0.06515 0.25796,0.08179 0.30277,0.037 0.0448,-0.0448 0.0477,0.0064 0.007,0.113908 -0.10644,0.277401 0.14688,0.690044 0.42364,0.690044 0.12861,0 0.23385,0.04637 0.23385,0.103036 0,0.05667 -0.21424,0.06386 -0.47608,0.01598 -0.54144,-0.099 -0.63222,0.05986 -0.23804,0.416573 0.18085,0.163668 0.23804,0.366581 0.23804,0.84457 0,0.591824 -0.10789,0.852727 -0.28095,0.679631 z M 164.033,50.410315 c -0.0419,-0.04187 -0.0761,-0.299902 -0.0761,-0.573423 0,-0.330871 -0.073,-0.563323 -0.21795,-0.694548 -0.23609,-0.21365 -0.37716,-0.153669 -0.37716,0.16035 0,0.299203 -0.76136,1.129605 -0.93645,1.021387 -0.108,-0.06677 -0.0661,-0.196183 0.15895,-0.491313 0.16808,-0.22037 0.35762,-0.674949 0.42119,-1.010177 0.0636,-0.335226 0.14614,-0.65892 0.18346,-0.719318 0.0373,-0.0604 0.0148,-0.109815 -0.0501,-0.109815 -0.0649,0 -0.15203,0.107115 -0.19358,0.238042 -0.0712,0.224326 -0.41657,0.344961 -0.41657,0.145504 0,-0.368831 0.89638,-1.038256 1.22262,-0.913066 0.0916,0.03515 0.2548,0.249004 0.36268,0.475242 0.12791,0.268234 0.27964,0.411341 0.43612,0.411341 0.13199,0 0.23998,0.05222 0.23998,0.116046 0,0.150505 -0.74498,0.0082 -0.86108,-0.164517 -0.051,-0.07577 -0.0882,-0.02597 -0.0892,0.11929 -9.5e-4,0.137143 0.10534,0.346292 0.23622,0.464775 0.18085,0.163668 0.23804,0.366582 0.23804,0.84457 0,0.591825 -0.10789,0.852728 -0.28095,0.679631 z m 2.66138,-2.761188 c 0,-0.226079 0.27171,-0.41547 0.40493,-0.282248 0.17079,0.170781 0.06,0.507557 -0.16689,0.507557 -0.15422,0 -0.23804,-0.07935 -0.23804,-0.225309 z m 5.59399,-0.116452 c 0,-0.290196 0.14981,-0.398747 0.41167,-0.298266 0.27534,0.105659 0.17416,0.453979 -0.14511,0.499528 -0.2003,0.02858 -0.26657,-0.02146 -0.26656,-0.201262 z m -8.80756,-0.478652 c 0,-0.26 0.24812,-0.391665 0.47447,-0.251777 0.22113,0.13667 0.0551,0.477085 -0.23269,0.477085 -0.15788,0 -0.24178,-0.07819 -0.24178,-0.225308 z m 7.49832,-0.905393 c 0,-0.67747 0.0278,-0.773636 0.22347,-0.773636 0.32146,0 0.47398,-0.236669 0.60802,-0.943424 0.0649,-0.342243 0.14855,-0.671676 0.18588,-0.732075 0.0373,-0.0604 0.0148,-0.109814 -0.0501,-0.109814 -0.0649,0 -0.15019,0.101336 -0.18949,0.225191 -0.0606,0.190926 -0.37715,0.362227 -0.68056,0.368289 -0.0448,9.52e-4 -0.0983,-0.145664 -0.11901,-0.325683 -0.027,-0.234354 -0.11372,-0.338109 -0.30547,-0.365341 -0.14728,-0.02092 -0.26779,-0.117882 -0.26779,-0.215472 0,-0.132229 0.11358,-0.168026 0.4458,-0.140499 0.38981,0.0323 0.45415,0.08178 0.51238,0.394004 0.0582,0.311947 0.077,0.32648 0.14916,0.115018 0.0906,-0.265404 0.66251,-0.650613 0.96606,-0.650613 0.10556,0 0.28205,0.189127 0.39227,0.420283 0.11599,0.243238 0.31573,0.449224 0.47416,0.488986 0.15056,0.03779 0.27374,0.107181 0.27374,0.154211 0,0.131638 -0.76213,-0.0078 -0.86108,-0.15751 -0.0517,-0.07819 -0.0882,-0.03031 -0.0892,0.117017 -9.5e-4,0.137143 0.10767,0.34843 0.24147,0.469524 0.19765,0.178878 0.23672,0.338865 0.20828,0.852963 -0.0431,0.778719 -0.2591,0.885788 -0.31108,0.154183 -0.0377,-0.530052 -0.31445,-1.006045 -0.51346,-0.883042 -0.0567,0.03505 -0.10312,0.158046 -0.10312,0.273323 0,0.115276 -0.18746,0.428596 -0.41658,0.696266 -0.3084,0.360295 -0.41657,0.597661 -0.41657,0.91408 0,0.300573 -0.053,0.42741 -0.17852,0.42741 -0.1404,0 -0.17854,-0.165307 -0.17854,-0.773638 z m -18.60447,-1.326587 c -0.12054,-0.12055 -0.0997,-1.564341 0.0237,-1.640602 0.22604,-0.139694 0.38199,0.289083 0.34705,0.954143 -0.0332,0.63302 -0.17036,0.886849 -0.37075,0.686459 z m 8.68605,-0.954649 c -0.13885,-0.138845 -0.0854,-0.487963 0.0847,-0.553233 0.18341,-0.07038 0.43108,0.128475 0.43108,0.346098 0,0.0781 -0.0847,0.174505 -0.18827,0.214239 -0.23312,0.08946 -0.23087,0.0895 -0.32749,-0.0071 z m -7.2206,-0.575268 c 0,-0.140383 0.1653,-0.178531 0.77363,-0.178531 0.60833,0 0.77364,0.03815 0.77364,0.178531 0,0.140384 -0.16531,0.178532 -0.77364,0.178532 -0.60833,0 -0.77363,-0.03815 -0.77363,-0.178532 z m 2.73748,0 c 0,-0.140383 0.1653,-0.178531 0.77363,-0.178531 0.60833,0 0.77365,0.03815 0.77365,0.178531 0,0.140384 -0.16532,0.178532 -0.77365,0.178532 -0.60833,0 -0.77363,-0.03815 -0.77363,-0.178532 z m 2.73748,0 c 0,-0.140383 0.16532,-0.178531 0.77365,-0.178531 0.60833,0 0.77363,0.03815 0.77363,0.178531 0,0.140384 -0.1653,0.178532 -0.77363,0.178532 -0.60833,0 -0.77365,-0.03815 -0.77365,-0.178532 z m 2.76681,0.02976 c 0.0311,-0.09419 0.34042,-0.161687 0.84307,-0.183969 0.65195,-0.0289 0.7939,-0.0023 0.7939,0.148775 0,0.148632 -0.16194,0.18397 -0.84306,0.18397 -0.62133,0 -0.83014,-0.03913 -0.79391,-0.148776 z m 2.82718,-0.02976 c 0,-0.140383 0.16531,-0.178531 0.77363,-0.178531 0.60833,0 0.77365,0.03815 0.77365,0.178531 0,0.140384 -0.16532,0.178532 -0.77365,0.178532 -0.60832,0 -0.77363,-0.03815 -0.77363,-0.178532 z m 2.73748,0 c 0,-0.140383 0.16531,-0.178531 0.77364,-0.178531 0.60833,0 0.77364,0.03815 0.77364,0.178531 0,0.140384 -0.16531,0.178532 -0.77364,0.178532 -0.60833,0 -0.77364,-0.03815 -0.77364,-0.178532 z m 4.72118,-0.49592 c -0.12497,-0.124968 -0.0927,-0.493498 0.0511,-0.582327 0.0718,-0.04435 0.21443,0.0033 0.31709,0.106025 0.15374,0.153753 0.15966,0.219151 0.0336,0.371145 -0.16593,0.199935 -0.27766,0.229186 -0.40169,0.105159 z m -12.61947,-0.59834 c -0.0419,-0.04187 -0.0761,-0.273123 -0.0761,-0.513913 0,-0.272978 -0.082,-0.511958 -0.21766,-0.634778 -0.29326,-0.265398 -0.37745,-0.248173 -0.37745,0.07722 0,0.329612 -0.75044,1.100187 -0.95083,0.97634 -0.0979,-0.06048 -0.0704,-0.160027 0.0939,-0.340689 0.34396,-0.378214 0.46142,-0.665456 0.5424,-1.32643 0.0602,-0.491987 0.0494,-0.548702 -0.0625,-0.327307 -0.11398,0.225439 -0.45609,0.385872 -0.45609,0.213886 0,-0.219522 0.31547,-0.654626 0.59386,-0.819075 0.49761,-0.293946 0.69692,-0.24496 0.92176,0.226533 0.14017,0.293923 0.30393,0.445014 0.53174,0.490576 0.18106,0.03621 0.30564,0.103947 0.27687,0.150523 -0.0767,0.123958 -0.82154,-0.0049 -0.92391,-0.159865 -0.0517,-0.07819 -0.0882,-0.03031 -0.0892,0.117017 -9.5e-4,0.137143 0.10533,0.346292 0.23622,0.464775 0.17488,0.158261 0.23804,0.366582 0.23804,0.785059 0,0.539668 -0.11269,0.788387 -0.28095,0.620122 z m 8.56951,0 c -0.0419,-0.04187 -0.0761,-0.273123 -0.0761,-0.513913 0,-0.273187 -0.0819,-0.511962 -0.21794,-0.635038 -0.2352,-0.212845 -0.37717,-0.15381 -0.37717,0.156834 0,0.107169 -0.18283,0.372062 -0.40629,0.588647 -0.50524,0.489702 -0.80332,0.387374 -0.37038,-0.127149 0.16536,-0.196523 0.32967,-0.500474 0.36513,-0.675447 0.0354,-0.174974 0.11078,-0.492204 0.16736,-0.704953 0.11,-0.413601 -0.0457,-0.547974 -0.17239,-0.148777 -0.0631,0.198777 -0.41658,0.355023 -0.41658,0.184131 0,-0.241113 0.33467,-0.674767 0.65308,-0.846241 0.4775,-0.257153 0.74797,-0.165613 0.91347,0.30918 0.0909,0.260706 0.22414,0.38376 0.46852,0.432634 0.18782,0.03757 0.31794,0.106414 0.28916,0.152984 -0.0767,0.123958 -0.82152,-0.0049 -0.92391,-0.159865 -0.0517,-0.07819 -0.0882,-0.03031 -0.0892,0.117017 -9.6e-4,0.137143 0.10534,0.346292 0.23622,0.464775 0.17487,0.158262 0.23804,0.366582 0.23804,0.785059 0,0.539668 -0.11269,0.788387 -0.28095,0.620122 z m 2.97552,-1.19021 c -0.17781,-0.177819 -0.0692,-1.138358 0.16194,-1.432214 0.25533,-0.324602 0.31279,-0.627582 0.11902,-0.627582 -0.0654,0 -0.11902,0.04731 -0.11902,0.105148 0,0.143115 -0.58483,0.245815 -0.66462,0.116712 -0.0351,-0.0568 0.0718,-0.154848 0.23755,-0.217871 0.16921,-0.06433 0.33407,-0.244787 0.3759,-0.411468 0.12052,-0.480128 0.3431,-0.592846 0.7039,-0.356444 0.2673,0.17515 0.6565,0.730354 0.6565,0.936546 0,0.18447 -0.25329,0.02527 -0.41666,-0.261887 l -0.18621,-0.327307 0.0553,0.357063 c 0.1726,1.112923 0.23052,1.322634 0.43827,1.586749 0.2643,0.335995 0.29004,0.496456 0.0795,0.495305 -0.17983,-9.51e-4 -0.68438,-0.715101 -0.68438,-0.968638 0,-0.267757 -0.13524,-0.35546 -0.31635,-0.205153 -0.0886,0.07345 -0.15973,0.361767 -0.15973,0.64656 0,0.491095 -0.11775,0.727681 -0.28095,0.564483 z m -5.44133,-2.181062 c -0.23422,-0.260612 -0.39084,-0.473839 -0.34805,-0.473839 0.0769,0 0.39906,0.339984 0.70485,0.743882 0.27741,0.366381 0.0828,0.219101 -0.3568,-0.270043 z m 1.12383,0.299065 c 0.43408,-0.226387 0.54426,-0.227747 0.24718,-0.003 -0.12707,0.09611 -0.31137,0.176118 -0.40957,0.177797 -0.0982,0.0017 -0.0251,-0.07696 0.16239,-0.174746 z m -10.16142,-0.445596 -0.37833,-0.505839 0.39809,0.446333 c 0.41386,0.464015 0.7359,0.549429 1.2093,0.320736 0.25113,-0.121315 0.25212,-0.119292 0.0289,0.05951 -0.42543,0.340845 -0.84275,0.234443 -1.25799,-0.32074 z m 2.42473,0.327308 c -0.0933,-0.243147 0.044,-0.566083 0.21632,-0.508653 0.0771,0.0257 0.19759,0.138802 0.26774,0.251329 0.0968,0.155292 0.0846,0.232013 -0.051,0.318399 -0.25035,0.159597 -0.35397,0.144982 -0.43305,-0.06108 z m 2.44697,-0.267798 c 0.0594,-0.429093 0.0636,-0.432555 0.1059,-0.08965 0.0242,0.196171 0.10622,0.396198 0.18209,0.444506 0.0852,0.05423 0.0448,0.08852 -0.10589,0.08965 -0.21369,0.0016 -0.23624,-0.05347 -0.18211,-0.444506 z m 0.75332,0.371258 c 0.12428,-0.03664 0.20828,-0.177897 0.20828,-0.350229 0,-0.362998 -0.21085,-0.375547 -0.35336,-0.02103 -0.0601,0.149559 -0.11011,0.188972 -0.11335,0.08927 -0.01,-0.299375 0.19127,-0.515903 0.40316,-0.434593 0.29119,0.11174 0.19805,0.722569 -0.11498,0.754049 -0.18555,0.01866 -0.19211,0.01045 -0.0298,-0.03747 z m 0.70681,0.0014 c 0.11055,-0.033 0.22796,-0.15043 0.26096,-0.260963 0.0436,-0.145747 0.0533,-0.135936 0.0357,0.03571 -0.0142,0.138724 -0.12224,0.246727 -0.26097,0.260963 -0.17164,0.01761 -0.18145,0.0078 -0.0357,-0.03571 z m 4.66241,-0.10487 c -0.0933,-0.243147 0.044,-0.566082 0.21632,-0.508653 0.0771,0.0257 0.19759,0.138802 0.26774,0.251329 0.0968,0.155292 0.0845,0.232014 -0.051,0.318399 -0.25035,0.159597 -0.35397,0.144983 -0.43305,-0.06108 z m -15.20762,-0.298215 c 0.0153,-0.518155 0.13224,-0.558156 0.18982,-0.06495 0.0288,0.247001 -0.002,0.42268 -0.0756,0.422684 -0.0687,5e-6 -0.12011,-0.160976 -0.11428,-0.357734 z m 0.57071,0.186146 c -0.10389,-0.270759 -3.6e-4,-0.598103 0.1937,-0.612151 0.10356,-0.0074 0.11533,0.0079 0.0285,0.03711 -0.22831,0.07664 -0.18129,0.601641 0.0596,0.664571 0.1952,0.05101 0.19497,0.0553 -0.003,0.06824 -0.11661,0.0076 -0.24165,-0.0634 -0.27786,-0.157772 z m 0.71296,-0.003 c -0.0369,-0.09604 -0.0394,-0.243321 -0.006,-0.327307 0.0338,-0.08399 0.0656,-0.03219 0.0708,0.115094 0.006,0.162721 0.0845,0.267797 0.20066,0.267797 0.13301,0 0.16712,-0.06343 0.11197,-0.208286 -0.0604,-0.158814 -0.0462,-0.175412 0.0602,-0.06988 0.0768,0.07612 0.10356,0.19663 0.0596,0.267797 -0.11537,0.18667 -0.41907,0.159067 -0.49746,-0.04521 z m 9.00105,-0.06343 c 0,-0.06546 0.0567,-0.11902 0.12604,-0.11902 0.0693,0 0.0929,0.05356 0.0524,0.11902 -0.0404,0.06546 -0.0972,0.119021 -0.12605,0.119021 -0.0289,0 -0.0524,-0.05356 -0.0524,-0.119021 z m -9.27423,-0.188449 c 0.006,-0.138654 0.0339,-0.166856 0.0719,-0.07191 0.0343,0.08591 0.0301,0.188573 -0.009,0.228123 -0.0396,0.03955 -0.0677,-0.03075 -0.0626,-0.156214 z m 10.34542,-0.04959 c 0.0982,-0.06346 0.25886,-0.112432 0.35705,-0.108837 0.11773,0.0043 0.0975,0.04139 -0.0596,0.108837 -0.32719,0.140602 -0.51512,0.140602 -0.29754,0 z m -9.07316,-0.139071 c 0.0691,-0.06916 0.196,-0.102336 0.28187,-0.07371 0.0891,0.02971 0.0352,0.08367 -0.12576,0.125751 -0.19797,0.05177 -0.24444,0.03628 -0.15611,-0.05205 z m 8.20827,0.0053 c 0.0808,-0.08133 0.17677,-0.11791 0.21341,-0.08127 0.0367,0.03665 -0.0294,0.103192 -0.14679,0.147894 -0.16963,0.06459 -0.1833,0.05092 -0.0667,-0.06663 z m 1.54926,-0.06406 c 0.0818,-0.03301 0.21573,-0.03301 0.29755,0 0.0818,0.03301 0.0149,0.06003 -0.14878,0.06003 -0.16366,0 -0.2306,-0.02701 -0.14877,-0.06003 z m -10.58542,-0.1215 c 0.0859,-0.03438 0.18857,-0.03016 0.22811,0.0094 0.0396,0.03955 -0.0308,0.06768 -0.15621,0.06251 -0.13865,-0.0057 -0.16685,-0.03391 -0.0719,-0.0719 z m 1.42825,0 c 0.0859,-0.03438 0.18857,-0.03016 0.22812,0.0094 0.0396,0.03955 -0.0308,0.06768 -0.15622,0.06251 -0.13865,-0.0057 -0.16685,-0.03391 -0.0719,-0.0719 z m 0.46864,-0.116543 c 0.0819,-0.03301 0.21573,-0.03301 0.29755,0 0.0819,0.03301 0.0149,0.06003 -0.14877,0.06003 -0.16366,0 -0.23061,-0.02701 -0.14878,-0.06003 z m 15.50249,-0.503546 c 0,-0.226079 0.27171,-0.41547 0.40494,-0.282248 0.17077,0.170782 0.06,0.507557 -0.1669,0.507557 -0.15421,0 -0.23804,-0.07935 -0.23804,-0.225309 z m 21.94664,34.533112 c -0.0617,-0.198368 -0.0583,-0.198368 0.0691,0 0.12468,0.193927 0.55541,0.208287 6.24785,0.208287 3.36264,0 6.19865,-0.03251 6.30219,-0.07225 0.10356,-0.03974 0.18827,-0.19436 0.18827,-0.343612 0,-0.149252 0.17406,-0.527321 0.38682,-0.840153 0.37053,-0.544824 0.80087,-0.856756 1.5352,-1.11274 l 0.33938,-0.118309 -0.001,-4.439724 c -9.6e-4,-2.441848 -0.0338,-4.559579 -0.073,-4.706069 l -0.0714,-0.266343 -4.36052,-0.03121 -4.36052,-0.03121 -0.0237,-2.439931 -0.0237,-2.43993 -0.32937,-0.238043 c -1.65531,-1.196377 -2.54127,-2.779967 -2.53804,-4.536607 0.003,-1.723603 0.90345,-3.323828 2.53673,-4.508989 l 0.32805,-0.238041 0.025,-2.439931 0.025,-2.43993 4.36052,-0.03121 4.36051,-0.03121 0.0714,-0.266344 c 0.0392,-0.14649 0.0721,-2.264222 0.073,-4.706069 l 0.001,-4.439724 -0.33937,-0.118309 c -0.73432,-0.255985 -1.16468,-0.567916 -1.5352,-1.112739 -0.21275,-0.312833 -0.38683,-0.690902 -0.38683,-0.840154 0,-0.149251 -0.0847,-0.303878 -0.18826,-0.343611 -0.10356,-0.03974 -6.09565,-0.07225 -13.31578,-0.07225 -10.55995,0 -13.15238,0.02997 -13.25468,0.153221 -0.20036,0.241423 -0.19476,15.960968 0.006,16.119508 0.0834,0.06601 0.38788,0.150072 0.67644,0.186802 1.3375,0.170249 3.04015,1.4315 3.65859,2.71011 0.47766,0.987558 0.55054,1.309644 0.55054,2.43267 0,1.123027 -0.0729,1.445113 -0.55054,2.43267 -0.61844,1.278611 -2.32109,2.539863 -3.65859,2.71011 -0.28856,0.03673 -0.59159,0.119666 -0.67343,0.184303 -0.21202,0.167474 -0.21783,15.920528 -0.006,16.132404 0.10778,0.107814 1.84267,0.142825 7.07802,0.142825 6.55027,0 6.93158,-0.01156 6.87042,-0.208287 z M 183.5656,58.398938 c -0.1571,-0.159105 -0.0954,-1.187207 0.0854,-1.426478 0.0961,-0.12707 0.17645,-0.361781 0.17853,-0.521581 0.003,-0.251388 -0.0162,-0.265659 -0.14499,-0.105903 -0.19393,0.240694 -0.53871,0.357312 -0.62821,0.21249 -0.0388,-0.06272 0.0667,-0.166178 0.23423,-0.229897 0.16759,-0.06371 0.30472,-0.1856 0.30472,-0.270846 0,-0.08525 0.084,-0.274904 0.18664,-0.42146 0.18121,-0.258722 0.19667,-0.260533 0.53219,-0.06234 0.27295,0.161244 0.5904,0.671058 0.5904,0.948213 0,0.163795 -0.22566,-0.01491 -0.34241,-0.271184 -0.0785,-0.172112 -0.16329,-0.292236 -0.18858,-0.266942 -0.101,0.100936 0.25974,1.622939 0.44846,1.892362 0.23981,0.342374 0.25446,0.473353 0.0528,0.471356 -0.20235,-0.002 -0.68436,-0.767246 -0.68436,-1.086494 0,-0.248397 -0.009,-0.250218 -0.23207,-0.04816 -0.14929,0.135119 -0.24479,0.400292 -0.26779,0.743629 -0.0197,0.293493 -0.0759,0.492943 -0.12501,0.443221 z m 0.14878,-3.376293 c 0,-0.127059 0.0474,-0.260369 0.10555,-0.296242 0.14495,-0.08958 0.40924,0.24935 0.31427,0.403025 -0.13028,0.210795 -0.4198,0.137152 -0.4198,-0.106781 z m 5.07499,-6.040658 c -0.17781,-0.177818 -0.0692,-1.138357 0.16193,-1.432212 0.25534,-0.324603 0.3128,-0.627582 0.11902,-0.627582 -0.0654,0 -0.11902,0.04731 -0.11902,0.105147 0,0.143116 -0.58482,0.245815 -0.66461,0.116712 -0.0351,-0.0568 0.0718,-0.154847 0.23755,-0.21787 0.16922,-0.06434 0.33407,-0.244789 0.3759,-0.411469 0.12052,-0.480128 0.3431,-0.592846 0.7039,-0.356443 0.26731,0.175148 0.6565,0.730354 0.6565,0.936546 0,0.184468 -0.25329,0.02527 -0.41666,-0.261887 l -0.18622,-0.327308 0.0553,0.357063 c 0.17259,1.112922 0.23052,1.322634 0.43827,1.58675 0.26429,0.335994 0.29004,0.496456 0.0794,0.495304 -0.17982,-9.52e-4 -0.68437,-0.715102 -0.68437,-0.968637 0,-0.267757 -0.13524,-0.355462 -0.31636,-0.205153 -0.0884,0.07345 -0.15972,0.361766 -0.15972,0.646558 0,0.491097 -0.11775,0.727683 -0.28096,0.564484 z m 3.07795,-2.535878 c -0.32116,-0.50874 -0.58586,-0.586837 -1.19897,-0.353733 -0.17699,0.06729 -0.34638,0.09778 -0.3764,0.06776 -0.10823,-0.108258 0.90587,-0.338674 1.18371,-0.26894 0.16991,0.04265 0.36526,0.240709 0.48494,0.491694 0.20907,0.438436 0.40014,0.50571 0.83696,0.294695 0.25113,-0.121316 0.25212,-0.119292 0.0289,0.05951 -0.37312,0.298933 -0.63739,0.218763 -0.95918,-0.290985 z m 1.95441,0.02976 c 0.0594,-0.429094 0.0634,-0.432556 0.10589,-0.08965 0.0242,0.196171 0.10623,0.396199 0.1821,0.444506 0.0852,0.05424 0.0448,0.08853 -0.10589,0.08965 -0.21369,0.0016 -0.23624,-0.05347 -0.18211,-0.444507 z m 0.75331,0.371257 c 0.12429,-0.03663 0.20829,-0.177897 0.20829,-0.350229 0,-0.362998 -0.21085,-0.375546 -0.35336,-0.02102 -0.0601,0.149557 -0.11011,0.18897 -0.11336,0.08927 -0.01,-0.299375 0.19128,-0.515903 0.40317,-0.434593 0.29119,0.111741 0.19805,0.722569 -0.11498,0.754049 -0.18555,0.01866 -0.19212,0.01044 -0.0298,-0.03747 z m 0.70681,0.0014 c 0.11056,-0.033 0.22797,-0.15043 0.26097,-0.260962 0.0436,-0.145748 0.0533,-0.135936 0.0357,0.0357 -0.0142,0.138724 -0.12223,0.246727 -0.26096,0.260963 -0.17164,0.01761 -0.18145,0.0078 -0.0357,-0.03571 z m -0.26047,-0.283396 c 0,-0.06546 0.0567,-0.11902 0.12604,-0.11902 0.0693,0 0.093,0.05356 0.0524,0.11902 -0.0404,0.06546 -0.0972,0.119021 -0.12605,0.119021 -0.0289,0 -0.0524,-0.05356 -0.0524,-0.119021 z m 0.20629,-0.371832 c 0.0808,-0.08134 0.17678,-0.117911 0.21342,-0.08127 0.0367,0.03665 -0.0294,0.103203 -0.14678,0.147893 -0.16964,0.06459 -0.18331,0.05092 -0.0667,-0.06662 z m -6.27637,-0.567602 c 0,-0.226079 0.27172,-0.41547 0.40494,-0.282248 0.17079,0.170782 0.06,0.507556 -0.16689,0.507556 -0.15422,0 -0.23805,-0.07935 -0.23805,-0.225308 z m -6.32017,-5.748472 c -0.0283,-0.645248 0.0417,-1.125174 0.19984,-1.37158 0.0931,-0.144985 0.16928,-0.382848 0.16928,-0.528587 0,-0.231114 -0.019,-0.241379 -0.14878,-0.08033 -0.19393,0.240695 -0.5387,0.357313 -0.62821,0.21249 -0.0388,-0.06272 0.0667,-0.166178 0.23423,-0.229898 0.1676,-0.06372 0.30472,-0.185599 0.30472,-0.270845 0,-0.08525 0.084,-0.274905 0.18664,-0.42146 0.18122,-0.258722 0.19668,-0.260533 0.5322,-0.06234 0.27296,0.161244 0.59039,0.671058 0.59039,0.948213 0,0.163794 -0.22565,-0.01492 -0.34241,-0.271184 -0.0784,-0.172113 -0.16328,-0.292236 -0.18857,-0.266942 -0.101,0.100936 0.25974,1.622939 0.44846,1.892361 0.2398,0.342374 0.25446,0.473354 0.0528,0.471357 -0.20235,-0.002 -0.68437,-0.767247 -0.68437,-1.086493 0,-0.250619 -0.007,-0.251868 -0.23805,-0.04274 -0.1675,0.151592 -0.23804,0.366582 -0.23804,0.725549 0,0.524955 -0.22851,0.874369 -0.2501,0.382421 z m 0.2501,-3.302833 c 0,-0.12706 0.0474,-0.26037 0.10556,-0.296242 0.14495,-0.08958 0.40923,0.24935 0.31426,0.403025 -0.13028,0.210796 -0.4198,0.137151 -0.4198,-0.106781 z m 15.32794,-1.166099 c 0.34587,-0.02412 0.88146,-0.02387 1.19022,5.96e-4 0.30874,0.02443 0.0258,0.04416 -0.62885,0.04384 -0.65462,-3.56e-4 -0.90723,-0.0203 -0.56137,-0.04441 z m -0.26119,-0.507883 c 0.0153,-0.518154 0.13223,-0.558154 0.18981,-0.06495 0.0288,0.247 -0.002,0.422679 -0.0755,0.422683 -0.0687,6e-6 -0.12012,-0.160975 -0.11428,-0.357734 z m 0.57071,0.186147 c -0.10389,-0.270758 -3.5e-4,-0.598104 0.1937,-0.612152 0.10356,-0.0074 0.11534,0.0079 0.0284,0.03711 -0.2283,0.07665 -0.18129,0.601643 0.0596,0.664571 0.19521,0.05101 0.19496,0.0553 -0.003,0.06824 -0.11662,0.0076 -0.24165,-0.0634 -0.27787,-0.157773 z m 0.82851,-0.04608 c 0.25394,-0.280605 0.25003,-0.465149 -0.0113,-0.533444 -0.15673,-0.04096 -0.14201,-0.05785 0.0596,-0.06824 0.19047,-0.0098 0.2678,0.05289 0.2678,0.21721 0,0.127061 -0.0634,0.270199 -0.14088,0.318086 -0.0969,0.05985 -0.0689,0.115235 0.0892,0.17719 0.18868,0.07389 0.16786,0.09163 -0.11561,0.09849 -0.32756,0.0079 -0.33538,-0.0031 -0.14879,-0.209293 z m -0.38874,-0.208833 c 0.006,-0.138653 0.0339,-0.166856 0.0719,-0.07191 0.0343,0.08591 0.0301,0.188574 -0.009,0.228124 -0.0396,0.03955 -0.0677,-0.03074 -0.0626,-0.156215 z m 9.38908,37.330826 c 0.1338,-0.249995 0.16741,-1.301413 0.0513,-1.604027 -0.17037,-0.444006 -1.18922,0.137951 -1.66609,0.95167 -0.41991,0.716531 -0.2813,0.882575 0.73672,0.882575 0.62451,0 0.77615,-0.03976 0.87809,-0.230218 z m 0,-12.140142 c 0.13112,-0.244997 0.17134,-3.80328 0.0482,-4.262825 -0.0698,-0.260145 -0.1156,-0.267797 -1.60517,-0.267797 h -1.53338 l -4.8e-4,-2.88626 c -3.6e-4,-2.667373 -0.0183,-2.915594 -0.2363,-3.273077 -0.18265,-0.299568 -0.32349,-0.390842 -0.62441,-0.404652 -0.37764,-0.01733 -0.37903,-0.01926 -0.0489,-0.06861 0.23779,-0.03555 0.42527,0.02959 0.62488,0.217112 l 0.28519,0.267891 v -1.627532 -1.627529 h 1.53339 c 1.48956,0 1.53543,-0.0077 1.60515,-0.267798 0.12315,-0.459546 0.0829,-4.017829 -0.0482,-4.262825 -0.1181,-0.220666 -0.29077,-0.230218 -4.16156,-0.230218 -3.87077,0 -4.04344,0.0096 -4.16154,0.230218 -0.0818,0.152872 -0.12321,3.254437 -0.12321,9.231952 0,5.977514 0.0415,9.079079 0.12321,9.231952 0.1181,0.220665 0.29077,0.230217 4.16154,0.230217 3.87079,0 4.04346,-0.0096 4.16156,-0.230217 z m -6.63569,-8.956716 c -0.19529,-0.195284 -0.18149,-0.39378 0.0402,-0.577745 0.26392,-0.219039 0.64553,0.151651 0.45959,0.446434 -0.16717,0.265015 -0.3247,0.306401 -0.49978,0.131311 z m -0.87113,-1.395575 c 0.0971,-0.0615 0.13874,-0.208644 0.10045,-0.355123 -0.036,-0.137559 -0.0227,-0.276509 0.0296,-0.308779 0.0522,-0.03227 0.11677,0.128352 0.14346,0.356944 0.0416,0.355801 0.0135,0.415357 -0.19538,0.413796 -0.18713,-0.0014 -0.2053,-0.02627 -0.078,-0.106836 z m 0.6535,-0.06292 c -0.10478,-0.273147 10e-4,-0.602057 0.19396,-0.602057 0.11258,0 0.19046,0.14064 0.21419,0.386818 0.028,0.290296 -0.01,0.386818 -0.1525,0.386818 -0.10445,0 -0.21944,-0.07721 -0.25565,-0.171579 z m 0.31135,-0.244994 c 0,-0.163654 -0.0536,-0.297552 -0.11903,-0.297552 -0.0654,0 -0.11901,0.133898 -0.11901,0.297552 0,0.163653 0.0536,0.297553 0.11901,0.297553 0.0654,0 0.11903,-0.1339 0.11903,-0.297553 z m 0.40277,0.244994 c -0.10389,-0.270758 -3.6e-4,-0.598103 0.1937,-0.612151 0.10356,-0.0076 0.11533,0.0079 0.0283,0.03711 -0.0818,0.02747 -0.14878,0.185646 -0.14878,0.351502 0,0.219155 0.0488,0.28284 0.17853,0.23305 0.0982,-0.03768 0.17853,-0.01663 0.17853,0.04678 0,0.181285 -0.35713,0.134571 -0.43038,-0.05629 z m 1.00316,-0.50483 c 0.0859,-0.03438 0.18858,-0.03016 0.22813,0.0093 0.0396,0.03954 -0.0308,0.06768 -0.15622,0.06251 -0.13864,-0.0057 -0.16685,-0.03391 -0.0719,-0.0719 z m 0.47609,-0.119021 c 0.0859,-0.03438 0.18858,-0.03016 0.22812,0.0094 0.0396,0.03954 -0.0308,0.06768 -0.15621,0.06251 -0.13865,-0.0057 -0.16685,-0.03391 -0.0719,-0.0719 z m -24.80329,6.674236 c 0.16159,-0.06201 0.18826,-0.362857 0.18826,-2.123931 0,-1.900531 -0.0176,-2.067558 -0.23804,-2.267112 -0.13093,-0.118484 -0.23804,-0.332722 -0.23804,-0.476084 0,-0.143362 0.10711,-0.357599 0.23804,-0.476084 0.22051,-0.199554 0.23804,-0.366581 0.23804,-2.267112 0,-2.32751 0.0171,-2.28975 -0.93098,-2.060859 -2.22374,0.536889 -3.82986,2.551558 -3.82986,4.804055 0,2.202995 1.51849,4.171639 3.67685,4.766856 0.68532,0.18899 0.66922,0.187188 0.89573,0.100269 z m 1.45581,-0.09378 c 1.72195,-0.458487 3.02196,-1.735516 3.59562,-3.532076 0.0747,-0.233763 0.13571,-0.792572 0.13571,-1.241796 0,-2.261468 -1.58851,-4.253075 -3.82985,-4.801676 -0.94767,-0.231956 -0.93099,-0.26884 -0.93099,2.059006 0,1.900531 0.0176,2.067557 0.23804,2.267112 0.13093,0.118484 0.23804,0.332722 0.23804,0.476084 0,0.143362 -0.10711,0.3576 -0.23804,0.476085 -0.22053,0.199574 -0.23804,0.36658 -0.23804,2.269926 0,2.389206 -0.0392,2.311904 1.02951,2.027335 z m -28.0247,-0.756387 c 0.0488,-0.589965 0.36506,-0.610091 0.4676,-0.02976 0.0404,0.229116 0.0708,-1.565126 0.0672,-3.987203 -0.003,-2.422077 -0.0261,-4.119225 -0.0503,-3.771438 -0.036,0.517241 -0.0807,0.625359 -0.24579,0.59399 -0.15156,-0.0288 -0.21067,-0.186256 -0.2374,-0.63234 l -0.0356,-0.59399 h -1.06944 c -0.821,0 -1.09572,0.04148 -1.18255,0.178531 -0.1588,0.250653 -0.15277,8.160814 0.007,8.458317 0.10767,0.201149 0.25704,0.230218 1.18303,0.230218 h 1.05981 z m -0.0226,-2.469686 c 0,-0.694288 0.0245,-0.773636 0.23804,-0.773636 0.21363,0 0.23803,0.07935 0.23803,0.773636 0,0.694289 -0.0244,0.773636 -0.23803,0.773636 -0.21363,0 -0.23804,-0.07935 -0.23804,-0.773636 z m -0.51899,-0.02307 c -0.0419,-0.04187 -0.0761,-0.299903 -0.0761,-0.573423 0,-0.330871 -0.0729,-0.563323 -0.21795,-0.694548 -0.23607,-0.21365 -0.37715,-0.153669 -0.37715,0.16035 0,0.299202 -0.76135,1.129605 -0.93645,1.021386 -0.10801,-0.06677 -0.0661,-0.196184 0.15895,-0.491312 0.16808,-0.22037 0.35762,-0.674949 0.4212,-1.010177 0.0636,-0.335226 0.14613,-0.65892 0.18346,-0.719318 0.0373,-0.0604 0.0148,-0.109815 -0.0501,-0.109815 -0.0649,0 -0.15203,0.107115 -0.19359,0.238042 -0.0631,0.198777 -0.41656,0.355023 -0.41656,0.184131 0,-0.241113 0.33466,-0.674767 0.65307,-0.846241 0.47325,-0.254861 0.74782,-0.165991 0.90816,0.293936 0.0669,0.191997 0.19828,0.378482 0.29191,0.414406 0.13588,0.05215 0.17022,-0.07793 0.17022,-0.645072 0,-0.631043 0.0266,-0.710391 0.23804,-0.710391 0.21321,0 0.23804,0.07935 0.23804,0.760902 0,0.51851 -0.0498,0.780011 -0.15632,0.820888 -0.22293,0.08555 -0.83928,-0.04588 -0.94281,-0.201031 -0.0512,-0.0768 -0.0882,-0.02783 -0.0892,0.118312 -9.6e-4,0.137143 0.10534,0.346291 0.23622,0.464775 0.18085,0.163668 0.23804,0.366582 0.23804,0.844569 0,0.591826 -0.10789,0.852729 -0.28094,0.679632 z m -0.47285,-3.210333 c -0.13885,-0.138845 -0.0854,-0.487963 0.0847,-0.553233 0.18339,-0.07038 0.43107,0.128475 0.43107,0.3461 0,0.07809 -0.0847,0.174502 -0.18826,0.214237 -0.23312,0.08946 -0.23089,0.0895 -0.32749,-0.0071 z m 57.03418,5.941133 c 0.1531,-0.287674 0.15979,-8.212592 0.007,-8.497756 -0.10756,-0.200993 -0.23478,-0.216511 -1.33424,-0.162754 -0.66845,0.03268 -1.28229,0.05983 -1.36411,0.06033 -0.11195,7.14e-4 -0.14878,0.416702 -0.14878,1.680712 v 1.679804 l 0.3273,-0.05619 c 0.18003,-0.0309 0.43444,-0.09424 0.56536,-0.140751 0.15475,-0.05498 0.13392,-0.02069 -0.0596,0.09797 -0.16366,0.100392 -0.41807,0.184433 -0.56535,0.186752 l -0.2678,0.0042 v 2.608545 c 0,1.97547 0.0361,2.623111 0.14877,2.668575 0.0818,0.03302 0.69588,0.06426 1.36455,0.06942 1.04228,0.0081 1.23161,-0.02032 1.32663,-0.198889 z m -1.81168,-2.373737 c -0.17782,-0.177819 -0.0692,-1.138358 0.16192,-1.432213 0.25535,-0.324603 0.31279,-0.627583 0.11903,-0.627583 -0.0654,0 -0.11903,0.04731 -0.11903,0.105147 0,0.143117 -0.58482,0.245817 -0.66461,0.116713 -0.0351,-0.0568 0.0718,-0.154847 0.23755,-0.21787 0.16922,-0.06433 0.33408,-0.244788 0.3759,-0.411469 0.12053,-0.480129 0.34311,-0.592847 0.7039,-0.356443 0.26731,0.175149 0.6565,0.730353 0.6565,0.936545 0,0.18447 -0.25328,0.02527 -0.41665,-0.261886 l -0.18622,-0.327308 0.0553,0.357062 c 0.17259,1.112924 0.23052,1.322635 0.43827,1.586751 0.26429,0.335993 0.29004,0.496456 0.0794,0.495305 -0.17984,-9.53e-4 -0.68437,-0.715103 -0.68437,-0.968639 0,-0.267757 -0.13524,-0.355461 -0.31636,-0.205153 -0.0884,0.07345 -0.15972,0.361768 -0.15972,0.646559 0,0.491096 -0.11775,0.727683 -0.28096,0.564484 z m 0.16192,-3.356293 c 0,-0.226079 0.27172,-0.41547 0.40494,-0.282248 0.17078,0.170782 0.06,0.507556 -0.16689,0.507556 -0.15422,0 -0.23805,-0.07935 -0.23805,-0.225308 z m -7.12196,1.475029 c 0,-2.590094 -0.0437,-4.173866 -0.1158,-4.197904 -0.0637,-0.02123 -0.43663,0.258418 -0.82873,0.621441 -2.11564,1.958719 -2.12285,5.138227 -0.0162,7.147635 0.38814,0.370226 0.7631,0.654011 0.83321,0.630633 0.0874,-0.02914 0.12752,-1.35006 0.12752,-4.201805 z m -50.00811,0 v -1.725701 h -0.45228 c -0.24876,0 -0.51655,0.06427 -0.59511,0.142825 -0.19744,0.197445 -0.19744,2.968514 0,3.165959 0.0786,0.07856 0.34635,0.142826 0.59511,0.142826 h 0.45228 z m 60.31984,1.582979 c 0.0953,-0.09535 0.14281,-0.621554 0.14281,-1.582979 0,-0.961426 -0.0474,-1.487632 -0.14281,-1.58298 -0.0786,-0.07856 -0.34636,-0.142825 -0.59511,-0.142825 h -0.45228 v 1.725805 1.725805 h 0.45228 c 0.24875,0 0.51655,-0.06427 0.59511,-0.142826 z m -58.8175,-21.588773 c 0.20442,-0.152029 0.48384,-0.503157 0.62096,-0.780283 0.33544,-0.677998 0.20578,-0.816381 -0.76495,-0.816381 -0.62451,0 -0.77616,0.03976 -0.87808,0.230217 -0.13379,0.249995 -0.16742,1.301414 -0.0513,1.604028 0.0933,0.243316 0.56805,0.13825 1.07337,-0.237581 z m 57.34079,0.238426 c 0.11639,-0.303309 0.083,-1.354543 -0.051,-1.604873 -0.10189,-0.190459 -0.25358,-0.230217 -0.8781,-0.230217 -1.01801,0 -1.15662,0.166044 -0.73671,0.882575 0.3915,0.668043 0.84642,1.006002 1.51699,1.126975 0.0421,0.0076 0.10901,-0.07091 0.14877,-0.17446 z m 9.42016,39.94899 c -0.0379,-0.06122 0.10211,-0.128171 0.31112,-0.148777 0.20895,-0.0206 0.40268,-0.106747 0.43048,-0.191431 0.0363,-0.11067 -0.0337,-0.132824 -0.24902,-0.07878 -0.23604,0.05925 -0.34157,0.01111 -0.49759,-0.227024 -0.34036,-0.519434 0.0498,-1.101678 0.63561,-0.948492 0.22563,0.059 0.25729,0.150515 0.25729,0.743722 0,0.372042 -0.0642,0.740712 -0.14283,0.819265 -0.16946,0.169462 -0.64732,0.189674 -0.74506,0.03151 z m 0.74665,-1.049142 c 0.0332,-0.344828 0.004,-0.386819 -0.26553,-0.386819 -0.22187,0 -0.32233,0.07774 -0.3758,0.290788 -0.0952,0.379462 0.0288,0.564827 0.34747,0.519411 0.19292,-0.02749 0.26582,-0.132533 0.29386,-0.42338 z m -2.71527,-0.148777 v -0.833147 h 0.54263 c 0.33143,0 0.51398,0.04632 0.46906,0.119021 -0.0404,0.06546 -0.23107,0.119022 -0.42359,0.119022 -0.26689,0 -0.35003,0.05477 -0.35003,0.2305 0,0.170858 0.10011,0.242921 0.3868,0.278505 l 0.38682,0.048 -0.38682,0.01905 c -0.3591,0.01769 -0.3868,0.0489 -0.3868,0.435622 0,0.229116 -0.0536,0.416574 -0.11904,0.416574 -0.068,0 -0.11903,-0.357063 -0.11903,-0.833147 z m 1.34491,0.238043 c 0,-0.36004 0.0223,-0.507328 0.0496,-0.327309 0.0272,0.18002 0.0272,0.474596 0,0.654616 -0.0272,0.180019 -0.0496,0.03273 -0.0496,-0.327307 z m 2.01049,0.467157 c 0.0234,-0.07037 0.0936,-0.127948 0.15573,-0.127948 0.0622,0 0.13226,0.05758 0.15572,0.127948 0.0234,0.07037 -0.0466,0.127947 -0.15572,0.127947 -0.10911,0 -0.17918,-0.05758 -0.15573,-0.127947 z m 1.79227,-5.96e-4 c 0.29409,-0.171296 0.30008,-1.180676 0.007,-1.180676 -0.17551,0 -0.1717,-0.02237 0.0298,-0.174746 0.36762,-0.278061 0.40957,-0.224214 0.40957,0.525895 0,0.548924 0.0469,0.735498 0.20828,0.829527 0.16361,0.09529 0.0933,0.121316 -0.32731,0.121316 -0.4207,0 -0.49091,-0.02602 -0.3273,-0.121316 z m -3.83843,-1.41873 c 0,-0.06546 0.0567,-0.119021 0.12604,-0.119021 0.0693,0 0.093,0.05356 0.0524,0.119021 -0.0404,0.06546 -0.0972,0.119022 -0.12605,0.119022 -0.0289,0 -0.0524,-0.05356 -0.0524,-0.119022 z m -40.4671,-41.895288 c -0.41033,-0.51809 -0.65073,-0.574985 -1.46917,-0.347724 -0.25162,0.06987 -0.48338,0.101126 -0.51507,0.06945 -0.1059,-0.105914 1.24084,-0.350014 1.5252,-0.276444 0.15428,0.03991 0.41108,0.265998 0.57066,0.502406 0.2978,0.441176 0.46892,0.47718 1.1381,0.239456 0.15475,-0.05498 0.13392,-0.02069 -0.0596,0.09797 -0.49166,0.301615 -0.78027,0.232481 -1.1902,-0.285113 z m 3.36235,0.394038 c 0.11455,-0.02993 0.30201,-0.02993 0.41657,0 0.11455,0.02993 0.0208,0.05443 -0.20829,0.05443 -0.22912,0 -0.32284,-0.0245 -0.20828,-0.05443 z m 0.91905,-0.16947 c 0.1618,-0.06457 0.33505,-0.181687 0.38499,-0.260252 0.0703,-0.110581 0.0912,-0.110181 0.0927,0.0018 0.002,0.161154 -0.37334,0.395114 -0.61522,0.383461 -0.0861,-0.0041 -0.0242,-0.06038 0.13759,-0.124949 z m -8.61508,-0.463274 c 0.0153,-0.518154 0.13225,-0.558154 0.18983,-0.06495 0.0288,0.247 -0.002,0.422679 -0.0756,0.422684 -0.0687,5e-6 -0.12012,-0.160975 -0.11429,-0.357735 z m 0.71413,0 c 0.0153,-0.518154 0.13224,-0.558154 0.18982,-0.06495 0.0288,0.247 -0.002,0.422679 -0.0756,0.422684 -0.0687,5e-6 -0.1201,-0.160975 -0.11428,-0.357735 z m 0.60899,0.27505 c -0.0314,-0.05272 -0.0499,-0.229753 -0.0409,-0.393408 0.0115,-0.210145 0.0846,-0.297552 0.24866,-0.297552 0.30651,0 0.34948,0.68998 0.0466,0.74863 -0.10845,0.021 -0.22294,-0.005 -0.25442,-0.05767 z m 0.3921,-0.155365 c 0,-0.06546 -0.0803,-0.119022 -0.17853,-0.119022 -0.0982,0 -0.17854,0.05356 -0.17854,0.119022 0,0.06546 0.0803,0.119021 0.17854,0.119021 0.0982,0 0.17853,-0.05356 0.17853,-0.119021 z m -0.0596,-0.357063 c 0.0404,-0.06546 -0.0131,-0.119021 -0.11902,-0.119021 -0.10589,0 -0.15948,0.05356 -0.11902,0.119021 0.0404,0.06546 0.094,0.11902 0.11902,0.11902 0.025,0 0.0786,-0.05356 0.11902,-0.11902 z m 7.02159,-7.15e-4 c -0.11885,-0.131323 -0.19411,-0.259977 -0.16723,-0.285895 0.0269,-0.02592 0.14509,0.08152 0.26271,0.238772 0.25974,0.347269 0.20195,0.375792 -0.0954,0.04712 z m -0.17788,-0.553195 c 0,-0.130599 0.29716,-0.417944 0.5951,-0.575453 0.0982,-0.05191 0.0714,0.0069 -0.0596,0.130673 -0.13092,0.123779 -0.30498,0.302239 -0.38682,0.396578 -0.0818,0.09434 -0.14877,0.11603 -0.14877,0.0482 z m 1.37933,-0.517942 c 0.0153,-0.518154 0.13224,-0.558156 0.18982,-0.06495 0.0288,0.247 -0.002,0.422679 -0.0756,0.422683 -0.0687,5e-6 -0.1201,-0.160976 -0.11428,-0.357734 z m 0.68509,0.140067 c 0.25394,-0.280605 0.25003,-0.465148 -0.0113,-0.533443 -0.15674,-0.04096 -0.14201,-0.05785 0.0596,-0.06824 0.19049,-0.0098 0.2678,0.05289 0.2678,0.217211 0,0.12706 -0.0634,0.270198 -0.14087,0.318085 -0.0969,0.05986 -0.0689,0.115235 0.0892,0.17719 0.18869,0.07389 0.16786,0.09163 -0.11562,0.09849 -0.32754,0.0079 -0.33538,-0.0031 -0.14877,-0.209292 z m 0.59859,0.04306 c -0.0369,-0.09604 -0.0393,-0.243321 -0.006,-0.327308 0.0338,-0.08399 0.0656,-0.03219 0.0708,0.115094 0.006,0.162722 0.0845,0.267798 0.20066,0.267798 0.13302,0 0.16712,-0.06344 0.11197,-0.208287 -0.0604,-0.158813 -0.0462,-0.175412 0.0602,-0.06988 0.0768,0.07612 0.10355,0.196631 0.0596,0.267798 -0.11537,0.18667 -0.41907,0.159067 -0.49746,-0.04521 z m -15.92326,-0.659205 c 0.0153,-0.518154 0.13224,-0.558155 0.18982,-0.06495 0.0288,0.247 -0.002,0.422679 -0.0756,0.422683 -0.0687,5e-6 -0.12011,-0.160975 -0.11428,-0.357734 z m 0.75361,-0.0886 c 0.0594,-0.429093 0.0636,-0.432556 0.1059,-0.08965 0.0242,0.196172 0.10622,0.3962 0.18209,0.444507 0.0852,0.05423 0.0448,0.08852 -0.10589,0.08965 -0.21368,0.0016 -0.23624,-0.05347 -0.18211,-0.444507 z m 0.84441,0.36579 c -9.6e-4,-0.07702 -0.0956,-0.164544 -0.21012,-0.194479 -0.19836,-0.05185 -0.19836,-0.05509 0,-0.06823 0.11456,-0.0076 0.2083,-0.07052 0.2083,-0.139852 0,-0.06932 -0.0536,-0.09295 -0.11903,-0.05249 -0.17635,0.108993 -0.14428,-0.0094 0.0451,-0.166597 0.13076,-0.108525 0.17553,-0.07673 0.22006,0.156264 0.0308,0.160873 0.0112,0.362909 -0.0433,0.448968 -0.0671,0.10578 -0.0998,0.111103 -0.101,0.01642 z m 14.49642,-0.238808 c 0.0859,-0.03438 0.18857,-0.03016 0.22812,0.0094 0.0395,0.03955 -0.0308,0.06768 -0.15621,0.06251 -0.13866,-0.0057 -0.16686,-0.03391 -0.0719,-0.0719 z m -13.36754,-0.264701 0.59509,-0.07057 -0.0147,-0.458706 c -0.01,-0.29655 0.0215,-0.401736 0.0875,-0.297552 0.14718,0.232279 0.12875,0.626149 -0.0371,0.791965 -0.0786,0.07856 -0.38652,0.13441 -0.68438,0.124127 l -0.54154,-0.0187 z m 17.42388,-0.119717 c 0.0971,-0.0615 0.13874,-0.208644 0.10045,-0.355123 -0.036,-0.137558 -0.0227,-0.27651 0.0296,-0.30878 0.0522,-0.03227 0.11677,0.128354 0.14346,0.356944 0.0416,0.355803 0.0134,0.415357 -0.19538,0.413797 -0.18713,-0.0014 -0.20529,-0.02627 -0.078,-0.106837 z m 0.6078,-0.01033 c 0,-0.149123 0.1263,-0.149123 0.35705,0 0.14437,0.09329 0.1273,0.115725 -0.0892,0.117199 -0.1473,10e-4 -0.2678,-0.05174 -0.2678,-0.117199 z m 1.07301,0.02976 c -0.001,-0.08183 -0.0821,-0.148776 -0.18036,-0.148776 -0.2422,0 -0.22452,-0.159532 0.0447,-0.403148 0.21218,-0.19201 0.226,-0.187416 0.27958,0.09288 0.031,0.162183 0.0117,0.365291 -0.0429,0.451349 -0.0754,0.118906 -0.0997,0.120753 -0.101,0.0077 z m -0.002,-0.386818 c 0,-0.06546 -0.0237,-0.119022 -0.0524,-0.119022 -0.0289,0 -0.0856,0.05356 -0.12605,0.119022 -0.0404,0.06546 -0.0169,0.119021 0.0524,0.119021 0.0693,0 0.12604,-0.05356 0.12604,-0.119021 z m -0.78144,0.02459 c 0.0556,-0.174926 0.0173,-0.258825 -0.13603,-0.298651 -0.16651,-0.04326 -0.15456,-0.05841 0.0546,-0.06919 0.19047,-0.0098 0.2678,0.05289 0.2678,0.217212 0,0.127059 -0.0593,0.267666 -0.13177,0.312457 -0.0879,0.05432 -0.10612,4.76e-4 -0.0546,-0.161827 z m -2.50294,-0.292382 c -0.22481,-0.265517 -0.22471,-0.266156 0.0113,-0.07505 0.13093,0.106015 0.31839,0.222298 0.41658,0.258401 0.15153,0.05571 0.14982,0.06707 -0.0113,0.07504 -0.10445,0.0051 -0.29187,-0.111114 -0.41657,-0.2584 z m -15.39024,-0.52697 c -0.0131,-0.285881 0.45616,-0.71609 0.90356,-0.828376 0.27464,-0.06894 0.26828,-0.08495 -0.25738,-0.646931 -0.71258,-0.761809 -0.69315,-0.860382 0.0263,-0.133545 0.31095,0.314122 0.69924,0.663628 0.8629,0.77668 0.26912,0.185909 0.27118,0.193023 0.0214,0.07446 -0.38361,-0.182135 -1.35258,0.293345 -1.46587,0.719315 -0.0717,0.269654 -0.0802,0.273254 -0.091,0.03839 z m 5.07767,0.115469 c 0.14805,-0.02847 0.3623,-0.02739 0.47609,0.0024 0.11379,0.02979 -0.008,0.05308 -0.26918,0.05176 -0.26184,-0.0013 -0.35495,-0.0257 -0.20691,-0.05417 z m -1.19159,-0.113667 c 0.0818,-0.03301 0.21573,-0.03301 0.29755,0 0.0818,0.03302 0.0149,0.06003 -0.14878,0.06003 -0.16366,0 -0.2306,-0.02701 -0.14877,-0.06003 z m 11.40709,-0.253358 c 0.0873,-0.490556 -0.10223,-0.733435 -0.59075,-0.756839 -0.35137,-0.01683 -0.35424,-0.02058 -0.0508,-0.06685 0.66586,-0.101536 0.97622,0.343093 0.68218,0.977338 -0.0832,0.179571 -0.0932,0.14183 -0.0407,-0.153651 z m -11.99476,0.131857 c 0.0859,-0.03438 0.18857,-0.03016 0.22812,0.0094 0.0395,0.03955 -0.0308,0.06768 -0.15622,0.06251 -0.13865,-0.0057 -0.16685,-0.03391 -0.0719,-0.07191 z m 6.57028,-0.365024 c 10e-4,-0.14091 0.0311,-0.16222 0.0923,-0.06588 0.0498,0.07832 0.43729,0.161732 0.86108,0.185354 l 0.77055,0.04294 -0.86291,0.02293 c -0.7518,0.01998 -0.86266,-0.0039 -0.86108,-0.185354 z m 2.62658,-0.192165 c 0.0272,-0.02387 0.18349,-0.107158 0.34715,-0.185096 0.28056,-0.13362 0.28436,-0.131142 0.0666,0.04339 -0.18959,0.151901 -0.57699,0.284612 -0.41365,0.141709 z m 9.63078,-0.288223 c 0,-0.06547 0.33111,-0.17736 0.7358,-0.248646 0.85727,-0.151005 1.05099,-0.285933 0.83769,-0.583473 -0.41296,-0.576051 -0.43436,-0.730404 -0.14413,-1.039334 0.15314,-0.163007 0.32988,-0.296376 0.39276,-0.296376 0.0629,0 -0.0268,0.111004 -0.19928,0.246681 -0.37598,0.295742 -0.39019,0.456996 -0.0756,0.856986 0.43628,0.554641 0.31981,0.717178 -0.65461,0.913501 -0.26184,0.05276 -0.56982,0.135021 -0.68438,0.182809 -0.11744,0.04899 -0.20828,0.03498 -0.20828,-0.03214 z m -8.92658,-0.05693 c 0,-0.02623 0.22762,-0.228592 0.50585,-0.449689 0.27821,-0.221096 0.43026,-0.3079 0.33788,-0.192895 -0.17401,0.216615 -0.84373,0.72668 -0.84373,0.642584 z m 0.81083,-0.168839 c 0.0859,-0.03438 0.18858,-0.03016 0.22812,0.0094 0.0396,0.03956 -0.0308,0.06768 -0.15621,0.06251 -0.13866,-0.0057 -0.16686,-0.03391 -0.0719,-0.07191 z m -18.48422,-0.746253 c -0.0425,-0.193311 -0.18857,-0.493065 -0.32469,-0.66612 -0.22809,-0.289977 -0.29977,-0.309829 -0.91419,-0.253212 l -0.66668,0.06143 0.62848,-0.126783 c 0.57775,-0.116548 0.65094,-0.105681 0.90672,0.134603 0.29523,0.277362 0.71639,1.201553 0.54755,1.201553 -0.055,0 -0.13472,-0.158164 -0.17718,-0.351474 z m 18.90084,-0.472032 c 0.14134,-0.258062 0.27507,-0.451118 0.2972,-0.429014 0.0577,0.05761 -0.31148,0.748198 -0.44348,0.829779 -0.0609,0.03765 0.004,-0.142703 0.14628,-0.400765 z m -4.19948,0.115895 c -0.30858,-0.576586 -2.2717,-6.14782 -2.24006,-6.35716 0.0191,-0.126193 0.54331,1.175546 1.16496,2.892753 0.62165,1.717205 1.16349,3.175938 1.20409,3.241627 0.0602,0.09754 1.65535,-0.414263 3.23341,-1.037496 0.15139,-0.05979 0.18936,-0.156045 0.13305,-0.337363 -0.0433,-0.139536 -0.12561,-0.271666 -0.18283,-0.293622 -0.0572,-0.02196 -0.0773,-0.08311 -0.0447,-0.135908 0.10934,-0.176963 -0.34115,-1.192853 -0.52984,-1.194737 -0.13461,-0.0013 -0.14383,-0.02646 -0.0351,-0.09553 0.21359,-0.135647 -1.42482,-4.617242 -1.67153,-4.572192 -0.24557,0.04485 -3.30938,1.191274 -3.38455,1.26645 -0.19794,0.19794 -2.2774,6.161757 -2.21196,6.343826 0.0421,0.117329 0.0332,0.173989 -0.0198,0.12591 -0.0531,-0.04808 -0.1614,0.0014 -0.24078,0.109947 -0.13126,0.179517 -0.3099,0.137431 -1.97561,-0.46544 -1.64489,-0.595337 -1.83219,-0.691334 -1.84003,-0.943095 -0.004,-0.15416 0.0277,-0.33385 0.0722,-0.399312 0.0445,-0.06546 0.23067,-0.516454 0.4137,-1.002205 l 0.33278,-0.883186 -0.32236,-0.27727 c -0.17728,-0.152498 -0.26788,-0.277269 -0.20132,-0.277269 0.0666,0 0.21747,0.103525 0.33536,0.230059 0.20836,0.223657 0.23543,0.171506 0.97285,-1.874582 0.41719,-1.157552 0.79499,-2.145645 0.83955,-2.195761 0.0446,-0.05011 0.91419,0.210094 1.93252,0.578246 l 1.85151,0.669368 1.82399,-0.667905 c 1.0032,-0.367349 1.86372,-0.627559 1.91227,-0.578246 0.0486,0.04931 0.46108,1.124199 0.91675,2.388639 0.45566,1.264437 0.84726,2.317507 0.87022,2.340154 0.0962,0.09489 0.72073,-0.100781 0.77528,-0.242935 0.0327,-0.08504 -0.0577,-0.312859 -0.20064,-0.506259 -0.31147,-0.421292 -0.24402,-0.746321 0.21566,-1.039168 l 0.32267,-0.205561 -0.34743,0.371207 c -0.36336,0.388217 -0.35505,0.516459 0.0719,1.109585 0.17481,0.242874 -0.0486,0.575327 -0.38659,0.575327 -0.36513,0 -0.37197,0.196833 -0.0393,1.13368 0.18502,0.521189 0.27509,0.942675 0.21333,0.998295 -0.0588,0.05295 -0.82993,0.353872 -1.71367,0.668728 -0.88374,0.314856 -1.66999,0.620352 -1.74725,0.678881 -0.0929,0.07032 -0.18529,0.02269 -0.27261,-0.14048 z m -4.87956,-0.433077 c 0.0643,-0.169147 0.0894,-0.35203 0.0558,-0.406408 -0.0335,-0.05438 -0.0143,-0.116832 0.0428,-0.138788 0.10856,-0.04172 2.21176,-5.685964 2.14034,-5.744093 -0.0225,-0.01831 -0.79073,-0.303538 -1.70719,-0.633835 -1.11699,-0.402566 -1.69296,-0.55764 -1.74718,-0.470408 -0.0444,0.07157 -0.41517,1.061545 -0.82374,2.199943 -0.61969,1.726556 -0.71484,2.089732 -0.57374,2.189916 0.13719,0.09741 0.13143,0.108081 -0.0305,0.05644 -0.15977,-0.05097 -0.27328,0.139993 -0.56896,0.95716 -0.20316,0.561453 -0.34839,1.041824 -0.32272,1.067492 0.0599,0.05988 3.20332,1.217347 3.32587,1.224638 0.0507,0.003 0.14482,-0.132906 0.20912,-0.302053 z m -1.36066,-2.168639 c -0.43919,-0.1973 -0.45317,-0.21958 -0.2593,-0.413452 0.17501,-0.174998 0.18075,-0.229083 0.0393,-0.370452 -0.11771,-0.117703 -0.22592,-0.131747 -0.37449,-0.0486 -0.11493,0.06431 -0.23343,0.09246 -0.26335,0.06254 -0.0299,-0.02992 0.10211,-0.119214 0.29332,-0.198431 0.2776,-0.114989 0.40666,-0.304208 0.64005,-0.938434 0.28568,-0.776329 0.30197,-0.794401 0.71602,-0.794401 0.23302,0 0.46257,-0.03829 0.5101,-0.08508 0.0703,-0.06927 0.45223,0.05893 0.63243,0.21233 0.0918,0.0781 -0.74735,2.101691 -0.89497,2.158338 -0.0871,0.03343 -0.1584,0.188955 -0.1584,0.345605 0,0.345599 -0.22718,0.363663 -0.88079,0.07004 z m 0.64274,-0.197157 c 0,-0.09565 0.10089,-0.26971 0.22411,-0.386818 0.25738,-0.244543 0.89751,-1.938728 0.73253,-1.938728 -0.0602,0 -0.14056,0.05036 -0.1786,0.111912 -0.0426,0.06891 -0.20768,0.06364 -0.42967,-0.01376 -0.19829,-0.06912 -0.39641,-0.08977 -0.44029,-0.04589 -0.0439,0.04388 -0.19935,0.409972 -0.34548,0.813539 -0.19954,0.551072 -0.23002,0.755977 -0.12243,0.823004 0.1109,0.06911 0.10912,0.144416 -0.008,0.333735 -0.13333,0.215109 -0.11903,0.257543 0.11903,0.35315 0.38346,0.154007 0.44908,0.146678 0.44908,-0.05015 z m -11.66739,2.071994 c -0.0719,-0.134354 -0.11396,-0.325202 -0.0934,-0.424107 0.0206,-0.0989 0.0962,0.011 0.16831,0.244279 0.14727,0.476732 0.11961,0.543184 -0.0749,0.179828 z m 31.77251,-0.202049 c 0.0594,-0.429094 0.0636,-0.432557 0.10589,-0.08965 0.0242,0.196171 0.10623,0.396199 0.1821,0.444506 0.0852,0.05423 0.0448,0.08853 -0.10589,0.08965 -0.21369,0.0016 -0.23624,-0.05347 -0.18211,-0.444506 z m 0.70281,0.17086 c 0.31314,-0.33333 0.32076,-0.40501 0.0504,-0.475634 -0.18779,-0.04907 -0.18847,-0.05579 -0.007,-0.06824 0.30287,-0.02078 0.38293,0.211297 0.15848,0.45932 -0.18672,0.206332 -0.18559,0.223596 0.0181,0.276246 0.13619,0.0352 0.0874,0.06131 -0.13079,0.06997 l -0.34805,0.01381 z m 0.61585,-0.141105 c 0,-0.337227 0.0453,-0.416574 0.23804,-0.416574 0.19271,0 0.23804,0.07935 0.23804,0.416574 0,0.337226 -0.0453,0.416574 -0.23804,0.416574 -0.19269,0 -0.23804,-0.07935 -0.23804,-0.416574 z m 0.35707,0.178531 c 0,-0.06546 -0.0536,-0.11902 -0.11903,-0.11902 -0.0654,0 -0.11901,0.05356 -0.11901,0.11902 0,0.06546 0.0536,0.119021 0.11901,0.119021 0.0654,0 0.11903,-0.05356 0.11903,-0.119021 z m 0,-0.357063 c 0,-0.06546 -0.0536,-0.11902 -0.11903,-0.11902 -0.0654,0 -0.11901,0.05356 -0.11901,0.11902 0,0.06546 0.0536,0.119021 0.11901,0.119021 0.0654,0 0.11903,-0.05356 0.11903,-0.119021 z M 170.512,20.549125 c 0.006,-0.138652 0.0339,-0.166855 0.0719,-0.0719 0.0343,0.08591 0.0301,0.188573 -0.009,0.228123 -0.0396,0.03955 -0.0677,-0.03074 -0.0626,-0.156215 z m 15.10627,-0.394938 c 0,-0.123596 0.2264,-0.302519 0.29347,-0.231922 0.0218,0.02292 -0.0353,0.110737 -0.12695,0.195143 -0.0916,0.08441 -0.16652,0.100958 -0.16652,0.03678 z M 161.9204,19.319684 c 0.0971,-0.0615 0.13875,-0.208644 0.10045,-0.355123 -0.036,-0.137558 -0.0227,-0.276509 0.0296,-0.30878 0.0522,-0.03227 0.11677,0.128354 0.14346,0.356945 0.0416,0.355803 0.0134,0.415356 -0.19537,0.413796 -0.18713,-0.0014 -0.2053,-0.02627 -0.0781,-0.106837 z m 0.71413,0 c 0.0971,-0.0615 0.13874,-0.208644 0.10044,-0.355123 -0.036,-0.137558 -0.0227,-0.276509 0.0296,-0.30878 0.0522,-0.03227 0.11677,0.128354 0.14345,0.356945 0.0416,0.355803 0.0134,0.415356 -0.19537,0.413796 -0.18713,-0.0014 -0.2053,-0.02627 -0.078,-0.106837 z m 0.65234,-0.06595 c -0.0369,-0.09604 -0.0393,-0.243321 -0.006,-0.327308 0.0338,-0.08399 0.0656,-0.03219 0.0708,0.115095 0.006,0.16272 0.0845,0.267798 0.20066,0.267798 0.13302,0 0.16712,-0.06344 0.11197,-0.208288 -0.0604,-0.158813 -0.0462,-0.175412 0.0602,-0.06988 0.0768,0.07613 0.10356,0.196632 0.0596,0.267797 -0.11537,0.18667 -0.41906,0.159067 -0.49745,-0.04521 z m 18.28469,-0.599031 c 0,-0.167768 -0.0619,-0.284575 -0.14202,-0.267797 -0.14579,0.03055 -0.64154,-1.061258 -0.76722,-1.689714 -0.0613,-0.306431 -0.0301,-0.362077 0.24088,-0.430097 0.19012,-0.04771 0.31128,-0.160744 0.31128,-0.290364 0,-0.199899 0.54415,-0.447713 0.68149,-0.310365 0.16161,0.161608 0.7241,2.097209 0.66979,2.304862 -0.0345,0.132019 -0.004,0.276021 0.0666,0.320004 0.23372,0.144443 0.13644,0.275296 -0.3491,0.469568 -0.63675,0.254775 -0.71172,0.2436 -0.71172,-0.106103 z m 0.78684,-0.549229 c 0.0141,-0.432017 -0.54916,-2.246941 -0.69757,-2.247456 -0.0491,-1.67e-4 -0.0892,0.08468 -0.0892,0.188561 0,0.103881 -0.16068,0.24952 -0.35707,0.323647 -0.42505,0.160442 -0.42575,0.167287 -0.107,1.041557 0.16065,0.440606 0.33089,0.70699 0.47608,0.744958 0.1298,0.03394 0.22601,0.163555 0.22601,0.304452 0,0.204442 0.0447,0.228832 0.2678,0.146285 0.20098,-0.07435 0.27109,-0.199605 0.281,-0.502004 z m -18.90036,0.527435 c 0.0859,-0.03438 0.18858,-0.03016 0.22812,0.0094 0.0395,0.03955 -0.0308,0.06768 -0.15622,0.06251 -0.13865,-0.0057 -0.16685,-0.03391 -0.0719,-0.07191 z m 5.24982,-1.317193 c 0.0594,-0.429093 0.0636,-0.432555 0.10589,-0.08965 0.0242,0.196171 0.10623,0.396199 0.18211,0.444505 0.0852,0.05424 0.0448,0.08853 -0.10589,0.08966 -0.21369,0.0016 -0.23625,-0.05347 -0.18211,-0.444507 z m 0.71086,0.337669 c 0.0971,-0.0615 0.13875,-0.208644 0.10044,-0.355123 -0.036,-0.137558 -0.0227,-0.276509 0.0296,-0.30878 0.0522,-0.03227 0.11677,0.128354 0.14346,0.356945 0.0416,0.355803 0.0135,0.415356 -0.19537,0.413796 -0.18713,-0.0014 -0.2053,-0.02627 -0.0781,-0.106837 z m 0.60779,-0.01033 c 0,-0.149124 0.12632,-0.149124 0.35706,0 0.14437,0.09329 0.12729,0.115725 -0.0892,0.117198 -0.14729,0.001 -0.26778,-0.05174 -0.26778,-0.117198 z m 0.28974,-0.332479 c 0.0556,-0.174925 0.0173,-0.258825 -0.13602,-0.29865 -0.16651,-0.04324 -0.15456,-0.05841 0.0546,-0.06919 0.19047,-0.0098 0.26778,0.05289 0.26778,0.21721 0,0.127061 -0.0593,0.267666 -0.13177,0.312458 -0.0879,0.05432 -0.106,4.28e-4 -0.0546,-0.161828 z m 0.78146,-0.02458 c 0.0982,-0.06346 0.25886,-0.112432 0.35707,-0.108837 0.11771,0.0043 0.0974,0.04139 -0.0596,0.108837 -0.3272,0.140602 -0.51514,0.140602 -0.29755,0 z m 18.41073,-0.101914 c -0.20161,-0.07948 -0.19824,-0.100825 0.0502,-0.318943 0.14645,-0.128568 0.22949,-0.170641 0.18453,-0.09349 -0.0503,0.08646 0.0217,0.160143 0.18783,0.192078 0.25622,0.04925 0.25483,0.0527 -0.028,0.06985 -0.23802,0.01442 -0.26183,0.04111 -0.11903,0.133407 0.20523,0.132624 0.043,0.142698 -0.27555,0.01711 z m -17.72638,-0.09594 c 0.0819,-0.03301 0.21573,-0.03301 0.29756,0 0.0818,0.03302 0.0149,0.06003 -0.14877,0.06003 -0.16366,0 -0.23061,-0.02701 -0.14879,-0.06003 z m 18.57472,-0.240522 c 0.0859,-0.03438 0.18858,-0.03016 0.22812,0.0094 0.0396,0.03955 -0.0308,0.06768 -0.15621,0.06251 -0.13865,-0.0057 -0.16685,-0.03391 -0.0719,-0.07191 z m 0.59511,-0.119021 c 0.0859,-0.03438 0.18858,-0.03016 0.22812,0.0094 0.0396,0.03955 -0.0308,0.06768 -0.15622,0.06251 -0.13865,-0.0057 -0.16685,-0.03391 -0.0719,-0.07191 z m 0.59512,-0.119021 c 0.0859,-0.03438 0.18857,-0.03016 0.22811,0.0094 0.0395,0.03955 -0.0308,0.06768 -0.15622,0.06251 -0.13864,-0.0057 -0.16685,-0.03391 -0.0719,-0.07191 z m 0.59509,-0.119021 c 0.0859,-0.03438 0.18859,-0.03016 0.22813,0.0094 0.0396,0.03955 -0.0308,0.06768 -0.15621,0.06251 -0.13865,-0.0057 -0.16686,-0.03391 -0.0719,-0.07191 z m -6.29522,-0.484044 c 0.0594,-0.429094 0.0636,-0.432556 0.1059,-0.08966 0.0242,0.196171 0.10622,0.396199 0.1821,0.444505 0.0852,0.05424 0.0448,0.08853 -0.10589,0.08965 -0.21368,0.0016 -0.23624,-0.05347 -0.18211,-0.444505 z m 0.70281,0.170859 c 0.31315,-0.333329 0.32076,-0.405008 0.0505,-0.475634 -0.18778,-0.04907 -0.18847,-0.05579 -0.007,-0.06823 0.30287,-0.02078 0.38294,0.211297 0.15847,0.45932 -0.18671,0.206332 -0.1856,0.223595 0.0181,0.276246 0.13619,0.0352 0.0874,0.06131 -0.1308,0.06997 l -0.34806,0.01381 z m 0.71412,0 c 0.31316,-0.333329 0.32077,-0.405008 0.0505,-0.475634 -0.18778,-0.04907 -0.18848,-0.05579 -0.007,-0.06823 0.30287,-0.02078 0.38295,0.211297 0.15849,0.45932 -0.18673,0.206332 -0.18561,0.223595 0.0181,0.276246 0.1362,0.0352 0.0874,0.06131 -0.13079,0.06997 l -0.34806,0.01381 z m 5.47339,0.194164 c 0.0859,-0.03438 0.18857,-0.03016 0.22813,0.0094 0.0396,0.03955 -0.0308,0.06768 -0.15622,0.06251 -0.13866,-0.0057 -0.16686,-0.03391 -0.0719,-0.0719 z m 0.59512,-0.11902 c 0.0859,-0.03438 0.18857,-0.03016 0.22812,0.0094 0.0395,0.03955 -0.0308,0.06768 -0.15622,0.06251 -0.13865,-0.0057 -0.16686,-0.03391 -0.0719,-0.07191 z m 1.32212,-0.365025 c 0.0594,-0.429093 0.0634,-0.432556 0.10589,-0.08965 0.0242,0.196172 0.10622,0.3962 0.18209,0.444507 0.0852,0.05423 0.0448,0.08852 -0.10589,0.08965 -0.21368,0.0016 -0.23624,-0.05347 -0.18211,-0.444507 z m 0.71413,0 c 0.0594,-0.429093 0.0634,-0.432556 0.10589,-0.08965 0.0242,0.196172 0.10622,0.3962 0.1821,0.444507 0.0852,0.05423 0.0448,0.08852 -0.10589,0.08965 -0.21368,0.0016 -0.23625,-0.05347 -0.1821,-0.444507 z m 0.65023,0.27475 c -0.10478,-0.273147 0.001,-0.602057 0.19397,-0.602057 0.11257,0 0.19046,0.14064 0.2142,0.386818 0.028,0.290297 -0.01,0.386818 -0.15252,0.386818 -0.10445,0 -0.21944,-0.07721 -0.25565,-0.171579 z m 0.31136,-0.244994 c 0,-0.163654 -0.0536,-0.297552 -0.11903,-0.297552 -0.0654,0 -0.11902,0.133898 -0.11902,0.297552 0,0.163654 0.0536,0.297552 0.11902,0.297552 0.0654,0 0.11903,-0.133898 0.11903,-0.297552 z"
   id="path2099" /></g></svg>
