<?xml version="1.0" encoding="UTF-8" standalone="no"?>
<!-- Created with Inkscape (http://www.inkscape.org/) -->

<svg
   width="225mm"
   height="90mm"
   viewBox="0 0 225 90"
   version="1.1"
   style="background-color: #000000;"
   id="svg1"
   inkscape:version="1.2.2 (b0a8486541, 2022-12-01)"
   sodipodi:docname="mug_02_Jesper_Molbech_Taxbøl.svg"
   xml:space="preserve"
   xmlns:inkscape="http://www.inkscape.org/namespaces/inkscape"
   xmlns:sodipodi="http://sodipodi.sourceforge.net/DTD/sodipodi-0.dtd"
   xmlns="http://www.w3.org/2000/svg"
   xmlns:svg="http://www.w3.org/2000/svg"><sodipodi:namedview
     id="namedview1"
     pagecolor="#ffffff"
     bordercolor="#000000"
     borderopacity="0.25"
     inkscape:showpageshadow="2"
     inkscape:pageopacity="0.0"
     inkscape:pagecheckerboard="0"
     inkscape:deskcolor="#d1d1d1"
     inkscape:document-units="mm"
     inkscape:zoom="2.3823884"
     inkscape:cx="547.9795"
     inkscape:cy="104.30709"
     inkscape:window-width="1854"
     inkscape:window-height="1131"
     inkscape:window-x="66"
     inkscape:window-y="32"
     inkscape:window-maximized="1"
     inkscape:current-layer="layer1"
     showgrid="false" /><defs
     id="defs1" /><g
     inkscape:label="Layer 1"
     inkscape:groupmode="layer"
     id="layer1"><rect
       style="fill:#000000;fill-opacity:1;stroke-width:0.213856"
       id="rect1"
       width="225.0"
       height="90.0"
       x="0"
       y="0" /><text
       xml:space="preserve"
       style="font-size:6.35px;font-family:'Abyssinica SIL';-inkscape-font-specification:'Abyssinica SIL';text-align:center;writing-mode:lr-tb;direction:ltr;text-anchor:middle;fill:#ffffff;stroke-width:0.264583"
       x="51.913441"
       y="13.795106"
       id="text1"><tspan
         sodipodi:role="line"
         id="tspan1"
         style="font-size:6.35px;stroke-width:0.264583"
         x="51.913441"
         y="13.795106">Think BIG</tspan><tspan
         sodipodi:role="line"
         style="font-size:6.35px;stroke-width:0.264583"
         x="51.913441"
         y="21.732605"
         id="tspan2">Take CHANCES</tspan><tspan
         sodipodi:role="line"
         style="font-size:6.35px;stroke-width:0.264583"
         x="51.913441"
         y="29.670105"
         id="tspan13">Test against REALITY</tspan><tspan
         sodipodi:role="line"
         style="font-size:6.35px;stroke-width:0.264583"
         x="51.913441"
         y="37.607605"
         id="tspan5">Fail FAST</tspan><tspan
         sodipodi:role="line"
         style="font-size:6.35px;stroke-width:0.264583"
         x="51.913441"
         y="45.545105"
         id="tspan23">Try AGAIN</tspan><tspan
         sodipodi:role="line"
         style="font-size:6.35px;stroke-width:0.264583"
         x="51.913441"
         y="53.482605"
         id="tspan3">Do it RIGHT</tspan><tspan
         sodipodi:role="line"
         style="font-size:6.35px;stroke-width:0.264583"
         x="51.913441"
         y="61.420105"
         id="tspan24">Disrupt EVERYTHING</tspan><tspan
         sodipodi:role="line"
         style="font-size:6.35px;stroke-width:0.264583"
         x="51.913441"
         y="69.357605"
         id="tspan12" /><tspan
         sodipodi:role="line"
         style="font-size:6.35px;stroke-width:0.264583"
         x="51.913441"
         y="77.295105"
         id="tspan22" /></text><text
       xml:space="preserve"
       style="font-size:7.05556px;font-family:'Abyssinica SIL';-inkscape-font-specification:'Abyssinica SIL';text-align:center;writing-mode:lr-tb;direction:ltr;text-anchor:middle;fill:#ffffff;stroke-width:0.264583"
       x="175.90259"
       y="72.352333"
       id="text6"><tspan
         sodipodi:role="line"
         id="tspan6"
         style="text-align:center;text-anchor:middle;stroke-width:0.264583"
         x="175.90259"
         y="72.352333">Jesper Molbech Taxbøl</tspan></text><text
       xml:space="preserve"
       style="font-size:3.175px;font-family:'Abyssinica SIL';-inkscape-font-specification:'Abyssinica SIL';text-align:center;writing-mode:lr-tb;direction:ltr;text-anchor:middle;fill:#ffffff;stroke-width:0.264583"
       x="15.705943"
       y="-121.59789"
       id="text7"
       transform="rotate(90)"><tspan
         sodipodi:role="line"
         style="font-size:3.175px;text-align:start;text-anchor:start;stroke-width:0.264583"
         x="15.705943"
         y="-121.59789"
         id="tspan11">multiply by -1 for no reason</tspan><tspan
         sodipodi:role="line"
         style="font-size:3.175px;text-align:start;text-anchor:start;stroke-width:0.264583"
         x="15.705943"
         y="-117.62914"
         id="tspan8">invert matrices without reason</tspan><tspan
         sodipodi:role="line"
         style="font-size:3.175px;text-align:start;text-anchor:start;stroke-width:0.264583"
         x="15.705943"
         y="-113.66039"
         id="tspan9">use the words røvlogik or Titanic</tspan><tspan
         sodipodi:role="line"
         style="font-size:3.175px;text-align:start;text-anchor:start;stroke-width:0.264583"
         x="15.705943"
         y="-109.69164"
         id="tspan33">accept the mediocre</tspan><tspan
         sodipodi:role="line"
         style="font-size:3.175px;text-align:start;text-anchor:start;stroke-width:0.264583"
         x="15.705943"
         y="-105.72289"
         id="tspan36">be afraid of complexity nor simplicity</tspan><tspan
         sodipodi:role="line"
         style="font-size:3.175px;text-align:start;text-anchor:start;stroke-width:0.264583"
         x="15.705943"
         y="-101.75414"
         id="tspan15">purspone it </tspan><tspan
         sodipodi:role="line"
         style="font-size:3.175px;text-align:start;text-anchor:start;stroke-width:0.264583"
         x="15.705943"
         y="-97.785393"
         id="tspan10" /></text><text
       xml:space="preserve"
       style="font-size:3.175px;font-family:'Abyssinica SIL';-inkscape-font-specification:'Abyssinica SIL';text-align:center;writing-mode:lr-tb;direction:ltr;text-anchor:middle;white-space:pre;inline-size:54.8385;display:inline;fill:#ffffff;stroke-width:0.264583"
       x="119.67953"
       y="26.543098"
       id="text18"
       transform="translate(-67.795703,50.972081)"><tspan
         x="119.67953"
         y="26.543098"
         id="tspan4129">I conceptualized &amp; de-risked Veo GO<tspan
   y="26.543098"
   id="tspan4131"> </tspan></tspan><tspan
         x="119.67953"
         y="30.511849"
         id="tspan4133">&amp; all the fame I got was this mug.</tspan></text><text
       xml:space="preserve"
       style="font-size:7.05556px;font-family:'Abyssinica SIL';-inkscape-font-specification:'Abyssinica SIL';text-align:center;writing-mode:lr-tb;direction:ltr;text-anchor:middle;fill:#ffffff;stroke-width:0.264583"
       x="112.40353"
       y="10.999269"
       id="text29"><tspan
         sodipodi:role="line"
         style="stroke-width:0.264583"
         x="112.40353"
         y="10.999269"
         id="tspan29">don't</tspan></text><text
       xml:space="preserve"
       style="font-size:3.175px;font-family:'Abyssinica SIL';-inkscape-font-specification:'Abyssinica SIL';text-align:start;writing-mode:lr-tb;direction:ltr;text-anchor:start;fill:#ffffff;stroke-width:0.264583"
       x="112.46899"
       y="83.071396"
       id="text34"><tspan
         sodipodi:role="line"
         id="tspan34"
         style="text-align:center;text-anchor:middle;stroke-width:0.264583"
         x="112.46899"
         y="83.071396">Veo Labs</tspan><tspan
         sodipodi:role="line"
         style="text-align:center;text-anchor:middle;stroke-width:0.264583"
         x="112.46899"
         y="87.040146"
         id="tspan35">2025</tspan></text><path
       style="fill:#ffffff;fill-opacity:1;stroke-width:0.107116"
       d="m 190.58228,62.202669 c -0.001,-0.10615 -4.06894,-0.139173 -19.79127,-0.160674 l -19.78963,-0.02706 -0.0243,-8.825627 c -0.0134,-4.854097 -0.0375,-8.838472 -0.0536,-8.854169 -0.0161,-0.0157 -0.29438,-0.04832 -0.61841,-0.07249 l -0.58914,-0.04396 v -1.805933 -1.80593 l 0.58914,-0.04395 c 0.32403,-0.02417 0.60231,-0.0568 0.61841,-0.07249 0.0161,-0.0157 0.0402,-4.000072 0.0536,-8.854168 l 0.0243,-8.825628 13.14846,-0.0272 c 9.60664,-0.01987 13.14845,-0.05947 13.14845,-0.147011 0,-0.08833 0.0379,-0.08833 0.14436,4e-6 0.10435,0.0866 3.8385,0.127351 13.4698,0.14701 l 13.32544,0.0272 0.0536,8.886132 0.0536,8.886132 0.58913,0.0045 0.58914,0.0045 v 1.813448 1.813449 l -0.58914,0.04396 c -0.32402,0.02417 -0.60141,0.0559 -0.6164,0.07049 -0.015,0.0146 -0.0391,3.998972 -0.0536,8.854169 l -0.0263,8.827629 -6.74247,0.02759 c -5.23069,0.0214 -6.76142,0.05743 -6.82699,0.160674 -0.0672,0.105874 -0.0849,0.105766 -0.0862,-5.36e-4 z m -37.61589,-0.489038 c 0.28322,-0.341269 -0.60072,-1.450668 -1.28437,-1.611956 -0.34362,-0.08107 -0.41285,0.05381 -0.41285,0.804345 0,0.839994 0.10287,0.948239 0.90114,0.948239 0.43016,0 0.72218,-0.05158 0.79608,-0.140628 z m 24.37788,0.07516 c 0.15062,-0.0578 0.16825,-0.818954 0.16825,-7.261994 0,-5.455178 -0.0311,-7.228542 -0.12854,-7.325966 -0.0707,-0.0707 -0.29613,-0.128538 -0.50098,-0.128538 -0.215,0 -0.74326,-0.179492 -1.2497,-0.424623 -1.24769,-0.603917 -1.97139,-1.432017 -2.52084,-2.884511 -0.17462,-0.461617 -0.17154,-2.24482 0.005,-2.712099 0.52199,-1.384105 1.26932,-2.26065 2.40666,-2.822751 0.42712,-0.211097 0.98906,-0.410857 1.24876,-0.443914 0.25969,-0.03306 0.53242,-0.107696 0.60607,-0.165867 0.10472,-0.08273 0.13389,-1.666842 0.13389,-7.272054 v -7.166287 l -0.27476,-0.104465 c -0.29985,-0.114003 -23.46944,-0.152463 -23.76395,-0.03945 -0.0932,0.03576 -0.16944,0.174919 -0.16944,0.309241 0,0.134323 -0.15665,0.474575 -0.34812,0.756116 -0.33347,0.490326 -0.72077,0.771056 -1.38164,1.001435 l -0.30544,0.106475 v 4.067208 c 0,2.236965 0.0293,4.143455 0.065,4.236643 0.0575,0.149822 0.47907,0.169435 3.64193,0.169435 2.3132,0 3.57692,0.03784 3.57692,0.107115 0,0.06924 -1.24843,0.107116 -3.53105,0.107116 -3.38142,0 -3.53575,0.0088 -3.64193,0.20719 -0.13318,0.248835 -0.14839,3.745311 -0.0172,3.952257 0.0671,0.105823 0.37749,0.137917 1.20341,0.12442 0.61215,-0.01 1.22146,-0.01392 1.35402,-0.0087 l 0.24101,0.0095 v 4.23107 c 0,3.530999 -0.0245,4.231071 -0.14818,4.231071 -0.0815,0 -0.17339,0.0964 -0.20421,0.214231 -0.0308,0.117827 -0.11325,0.214232 -0.18319,0.214232 -0.07,0 -0.15238,-0.0964 -0.1832,-0.214232 -0.0509,-0.194809 -0.1461,-0.214231 -1.04967,-0.214231 -0.80726,0 -1.00584,0.03178 -1.05866,0.169434 -0.11201,0.291886 -0.0721,3.68748 0.0459,3.908005 0.097,0.181188 0.23139,0.207189 1.07115,0.207189 0.78217,0 0.96028,-0.0298 0.96028,-0.160673 0,-0.08926 0.0952,-0.160674 0.21423,-0.160674 0.11902,0 0.21423,0.07141 0.21423,0.160674 0,0.138156 0.34473,0.160673 2.45989,0.160673 2.87447,0 2.68166,0.09287 2.68166,-1.291736 v -0.877357 l -0.29457,0.05945 c -0.16201,0.0327 -0.39097,0.08841 -0.50879,0.123818 l -0.21424,0.06437 0.21424,-0.108735 c 0.11782,-0.0598 0.34678,-0.156506 0.50879,-0.214893 l 0.29457,-0.106159 v -6.911651 c 0,-6.072247 0.0195,-6.911614 0.16068,-6.911614 0.1361,0 0.16067,0.261267 0.16067,1.708705 v 1.708706 l 0.47467,0.326579 0.47466,0.326578 0.21491,-0.301815 c 0.22946,-0.322244 0.57857,-1.626439 0.43537,-1.626439 -0.047,0 -0.11615,0.0964 -0.15355,0.214232 -0.0568,0.178893 -0.3749,0.319511 -0.3749,0.165713 0,-0.216995 0.30119,-0.607272 0.58775,-0.761595 0.42974,-0.231431 0.67314,-0.149047 0.8221,0.278253 0.0818,0.23463 0.20172,0.345375 0.42164,0.38936 0.16904,0.03381 0.28216,0.102222 0.25137,0.152033 -0.0728,0.1178 -0.7205,-0.0084 -0.82261,-0.160272 -0.0459,-0.06819 -0.0794,-0.02337 -0.0803,0.107358 -8.6e-4,0.123425 0.0969,0.313577 0.21731,0.42256 0.17789,0.160984 0.21305,0.304968 0.18746,0.767644 -0.0377,0.680905 -0.23158,0.759773 -0.27997,0.11387 -0.0494,-0.659106 -0.5549,-1.122158 -0.5549,-0.508289 0,0.274313 -0.63665,0.986689 -0.8192,0.916639 -0.0797,-0.03057 -0.14484,-0.0089 -0.14484,0.04817 0,0.05706 0.0921,0.103754 0.20471,0.103754 0.41527,0 1.13525,1.174527 1.39154,2.270084 0.13928,0.595341 0.1533,1.157619 0.0289,1.157619 -0.0865,0 -0.33975,-0.929265 -0.33975,-1.246752 0,-0.237734 -0.61311,-1.445557 -0.88959,-1.752488 -0.4068,-0.451606 -1.05311,-0.977022 -1.15857,-0.941868 -0.14193,0.04731 -0.13302,7.516529 0.009,7.563877 0.16586,0.05529 1.35668,-1.126761 1.55398,-1.542533 0.21228,-0.447349 0.27093,-0.459606 0.27093,-0.05662 0,0.365248 -0.73001,1.232774 -1.45996,1.734996 l -0.46813,0.322079 v 1.012453 c 0,0.801845 0.0315,1.012454 0.15167,1.012454 0.0834,0 0.30438,0.192808 0.49102,0.428463 0.18665,0.235654 0.29186,0.428463 0.23382,0.428463 -0.0581,0 -0.20508,-0.168708 -0.32674,-0.374905 -0.12166,-0.206198 -0.29513,-0.374905 -0.38548,-0.374905 -0.13491,0 -0.1665,0.177188 -0.17665,0.99082 -0.007,0.544951 -0.0188,1.063123 -0.0268,1.151494 -0.0123,0.137369 -0.40672,0.164824 -2.7191,0.189291 l -2.70467,0.02862 v 0.426624 c 0,0.355213 -0.0359,0.426624 -0.21423,0.426624 -0.17853,0 -0.21423,-0.07141 -0.21423,-0.428463 v -0.428463 h -1.01556 c -0.96438,0 -1.01852,0.01214 -1.07422,0.24101 -0.0323,0.132556 -0.0452,2.042348 -0.0288,4.243983 l 0.0298,4.002972 0.42846,0.174541 c 0.23566,0.096 0.563,0.265732 0.72742,0.377188 0.34812,0.235972 0.82576,1.001941 0.82576,1.324235 0,0.122471 0.0602,0.246866 0.1339,0.276436 0.19273,0.07739 23.70457,0.08303 23.906,0.0057 z m -5.44038,-2.365398 c -0.16003,-0.160032 -0.0623,-1.024491 0.14573,-1.288953 0.22979,-0.292134 0.2815,-0.564808 0.10712,-0.564808 -0.0589,0 -0.10712,0.04258 -0.10712,0.09463 0,0.1288 -0.52633,0.221227 -0.59814,0.105038 -0.0316,-0.05112 0.0646,-0.139359 0.2138,-0.196078 0.15229,-0.0579 0.30065,-0.220302 0.3383,-0.37031 0.10845,-0.432103 0.30878,-0.533546 0.63348,-0.320789 0.24058,0.157629 0.59083,0.657298 0.59083,0.842865 0,0.166018 -0.22795,0.02274 -0.37498,-0.235691 l -0.16759,-0.294568 0.0498,0.321347 c 0.15532,1.001601 0.20745,1.190335 0.39443,1.428033 0.23785,0.302385 0.26102,0.446796 0.0715,0.445761 -0.16183,-8.57e-4 -0.61591,-0.643573 -0.61591,-0.871749 0,-0.240974 -0.12172,-0.319905 -0.28471,-0.184632 -0.0797,0.0661 -0.14375,0.32558 -0.14375,0.581886 0,0.441973 -0.10598,0.654895 -0.25285,0.50802 z m -5.61174,-2.262231 c -0.48975,-0.04722 -0.45044,-0.309151 0.0536,-0.356867 0.59695,-0.05652 0.99082,0.0117 0.99082,0.171597 0,0.154031 -0.48184,0.239509 -1.04438,0.18527 z M 153.5261,56.989531 c -0.18973,-0.228615 -0.10636,-1.401541 0.0996,-1.401541 0.12047,0 0.16871,0.154123 0.1928,0.615915 l 0.0321,0.615915 h 0.53023 c 0.39991,0 0.53024,0.03949 0.53024,0.160674 0,0.221165 -1.20245,0.229011 -1.38501,0.009 z m 2.45616,-0.009 c 0,-0.126342 0.14878,-0.160673 0.69626,-0.160673 0.54748,0 0.69625,0.03433 0.69625,0.160673 0,0.126342 -0.14877,0.160674 -0.69625,0.160674 -0.54748,0 -0.69626,-0.03433 -0.69626,-0.160674 z m 2.46366,0 c 0,-0.126342 0.14878,-0.160673 0.69626,-0.160673 0.54748,0 0.69625,0.03433 0.69625,0.160673 0,0.126342 -0.14877,0.160674 -0.69625,0.160674 -0.54748,0 -0.69626,-0.03433 -0.69626,-0.160674 z m 2.46367,0 c 0,-0.127519 0.15472,-0.160673 0.74981,-0.160673 0.59508,0 0.74981,0.03315 0.74981,0.160673 0,0.127519 -0.15473,0.160674 -0.74981,0.160674 -0.59509,0 -0.74981,-0.03316 -0.74981,-0.160674 z m 2.57077,0 c 0,-0.126342 0.14877,-0.160673 0.69625,-0.160673 0.54749,0 0.69626,0.03433 0.69626,0.160673 0,0.126342 -0.14877,0.160674 -0.69626,0.160674 -0.54748,0 -0.69625,-0.03433 -0.69625,-0.160674 z m 4.92733,0 c 0,-0.126342 0.14877,-0.160673 0.69625,-0.160673 0.54748,0 0.69625,0.03433 0.69625,0.160673 0,0.126342 -0.14877,0.160674 -0.69625,0.160674 -0.54748,0 -0.69625,-0.03433 -0.69625,-0.160674 z m 1.4699,-0.333213 c -0.0426,-0.04257 -0.0774,-0.278802 -0.0774,-0.524964 0,-0.297774 -0.0657,-0.506975 -0.19615,-0.625074 -0.21246,-0.192279 -0.33943,-0.138298 -0.33943,0.144311 0,0.269274 -0.68519,1.016614 -0.84278,0.91922 -0.0972,-0.06009 -0.0595,-0.17656 0.14305,-0.442168 0.15127,-0.198327 0.32185,-0.607436 0.37907,-0.909132 0.0572,-0.301694 0.13151,-0.593011 0.16511,-0.647367 0.0336,-0.05436 0.0133,-0.09883 -0.0451,-0.09883 -0.0584,0 -0.13682,0.0964 -0.17421,0.214232 -0.0641,0.201887 -0.37491,0.310455 -0.37491,0.13095 0,-0.331938 0.80673,-0.934404 1.10034,-0.821735 0.0824,0.03163 0.2293,0.224097 0.3264,0.427704 0.11511,0.241404 0.25167,0.370197 0.3925,0.370197 0.19734,0 0.21596,0.06926 0.21596,0.803367 0,0.673126 -0.0285,0.803368 -0.17564,0.803368 -0.0966,0 -0.23049,0.075 -0.29751,0.166661 -0.067,0.09166 -0.1567,0.13183 -0.19926,0.08926 z m 0.49576,-1.673566 c 0.0677,-0.04328 -0.0296,-0.07944 -0.21611,-0.08034 -0.18656,-8.57e-4 -0.36351,-0.06189 -0.39323,-0.135535 -0.0297,-0.07364 -0.0578,-0.0406 -0.0625,0.07343 -0.005,0.11403 0.1,0.323372 0.23255,0.465204 l 0.24101,0.257876 0.0376,-0.250972 c 0.0207,-0.138035 0.093,-0.286386 0.16068,-0.329669 z m 1.67627,1.429103 c 0,-0.203465 0.24454,-0.373912 0.36443,-0.254016 0.1537,0.153699 0.054,0.456787 -0.1502,0.456787 -0.13878,0 -0.21423,-0.07141 -0.21423,-0.202771 z m -11.16681,-0.28715 c -0.14139,-0.14319 -0.086,-1.068453 0.0769,-1.283791 0.0865,-0.114359 0.1588,-0.325593 0.16067,-0.469409 0.003,-0.226242 -0.0146,-0.239087 -0.13049,-0.09531 -0.17453,0.216619 -0.48482,0.321572 -0.56537,0.191236 -0.0349,-0.05645 0.06,-0.149556 0.2108,-0.206902 0.15083,-0.05735 0.27424,-0.167035 0.27424,-0.243754 0,-0.07672 0.0756,-0.247407 0.16797,-0.379303 0.16309,-0.232842 0.177,-0.234473 0.47896,-0.0561 0.24566,0.145115 0.53134,0.603935 0.53134,0.853367 0,0.14741 -0.20308,-0.01342 -0.30817,-0.244058 -0.0706,-0.154897 -0.14694,-0.263006 -0.1697,-0.240241 -0.0908,0.09084 0.23376,1.460602 0.40359,1.703074 0.21583,0.308128 0.22902,0.426006 0.0475,0.424208 -0.18211,-0.0018 -0.61592,-0.690501 -0.61592,-0.977814 0,-0.223552 -0.008,-0.22519 -0.20884,-0.04334 -0.13437,0.121603 -0.22031,0.360251 -0.24101,0.669246 -0.0177,0.264136 -0.0683,0.443635 -0.1125,0.398886 z m 2.79273,-1.449169 c -0.23637,-0.420562 -0.26548,-0.437204 -0.67633,-0.386738 -0.23613,0.029 -0.52573,0.08289 -0.64356,0.11974 -0.11783,0.03685 -0.0696,-0.0038 0.10711,-0.09045 0.17674,-0.0866 0.47657,-0.159631 0.66628,-0.162289 0.29226,-0.0041 0.38221,0.06046 0.58913,0.422807 0.23335,0.408618 0.53111,0.551228 0.67268,0.322172 0.0364,-0.05891 0.12361,-0.105583 0.19377,-0.103709 0.20087,0.0054 -0.2663,0.317941 -0.47518,0.317941 -0.10729,0 -0.29212,-0.187199 -0.4339,-0.439474 z m 1.72442,-0.06933 c 0.0535,-0.386173 0.0572,-0.389289 0.0953,-0.08069 0.0218,0.176549 0.0956,0.356569 0.16389,0.400044 0.0767,0.04881 0.0403,0.07967 -0.0953,0.08069 -0.19231,0.0014 -0.21261,-0.04812 -0.16389,-0.400044 z m 0.5852,0.247267 c -0.0943,-0.245826 0.001,-0.541836 0.17456,-0.541836 0.10132,0 0.17141,0.126573 0.19277,0.348126 0.0252,0.261259 -0.009,0.348127 -0.13725,0.348127 -0.094,0 -0.19749,-0.06949 -0.23008,-0.154417 z m 0.28021,-0.220488 c 0,-0.147285 -0.0482,-0.26779 -0.10711,-0.26779 -0.0589,0 -0.10712,0.120505 -0.10712,0.26779 0,0.147284 0.0482,0.267789 0.10712,0.267789 0.0589,0 0.10711,-0.120505 0.10711,-0.267789 z m 0.36249,0.220488 c -0.0935,-0.243676 -3.3e-4,-0.538277 0.17432,-0.55092 0.0932,-0.0067 0.10379,0.0071 0.0256,0.0334 -0.0736,0.02472 -0.1339,0.167076 -0.1339,0.316343 0,0.197233 0.0439,0.254547 0.16068,0.209739 0.0884,-0.03391 0.16067,-0.01497 0.16067,0.0421 0,0.16315 -0.32141,0.121109 -0.38732,-0.05066 z m -13.21637,-1.077414 c 0,-0.624842 0.022,-0.696253 0.21423,-0.696253 0.19226,0 0.21423,0.07141 0.21423,0.696253 0,0.624841 -0.022,0.696252 -0.21423,0.696252 -0.19226,0 -0.21423,-0.07141 -0.21423,-0.696252 z m 18.25516,0.614275 c -0.0634,-0.04328 -0.2063,-0.235354 -0.31767,-0.426823 -0.15176,-0.260926 -0.27718,-0.348126 -0.50073,-0.348126 -0.20326,0 -0.29825,0.05515 -0.29825,0.173166 0,0.127307 -0.0638,0.156063 -0.24101,0.108579 -0.13256,-0.03552 -0.39767,-0.06525 -0.58914,-0.06605 -0.27268,-0.0011 -0.34812,-0.04652 -0.34812,-0.209371 0,-0.114351 0.0439,-0.235012 0.0975,-0.268138 0.15318,-0.09467 0.43813,0.05404 0.43813,0.228644 0,0.08698 0.0602,0.138284 0.13389,0.114015 0.0781,-0.02572 0.1474,-0.27513 0.16627,-0.598062 0.0232,-0.397183 0.0763,-0.553938 0.18745,-0.553938 0.11239,0 0.15508,0.132701 0.15508,0.48202 0,0.459203 0.0145,0.482021 0.30711,0.482021 0.24065,0 0.36972,0.09461 0.5964,0.437137 0.18716,0.282817 0.34344,0.415168 0.4427,0.374905 0.39725,-0.161147 0.50411,-0.169296 0.26053,-0.01987 -0.31038,0.190398 -0.33608,0.195115 -0.49009,0.08989 z m 1.44564,-0.426823 c 0.0535,-0.386172 0.0572,-0.389288 0.0953,-0.08068 0.0218,0.176549 0.0956,0.356569 0.16389,0.400044 0.0767,0.04881 0.0403,0.07967 -0.0953,0.08068 -0.19231,0.0014 -0.21261,-0.04812 -0.16389,-0.400044 z m 0.67796,0.334122 c 0.11185,-0.03297 0.18745,-0.160103 0.18745,-0.315197 0,-0.326689 -0.18976,-0.337982 -0.31801,-0.01893 -0.0541,0.134599 -0.0991,0.170069 -0.10202,0.08034 -0.009,-0.269429 0.17214,-0.464299 0.36284,-0.391122 0.26206,0.100563 0.17824,0.650293 -0.10348,0.678624 -0.16699,0.01679 -0.1729,0.0094 -0.0268,-0.03372 z m 0.54994,-0.08685 c -0.0935,-0.243676 -3.3e-4,-0.538277 0.17432,-0.55092 0.0932,-0.0068 0.10379,0.0071 0.0255,0.0334 -0.0736,0.02472 -0.13389,0.167076 -0.13389,0.316343 0,0.197233 0.0439,0.254547 0.16067,0.209739 0.0884,-0.03391 0.16067,-0.01497 0.16067,0.0421 0,0.16315 -0.32141,0.121109 -0.38732,-0.05066 z m -19.22334,-0.782846 c 0.0535,-0.386172 0.0571,-0.389288 0.0953,-0.08069 0.0218,0.17655 0.0956,0.356569 0.16388,0.400044 0.0767,0.04881 0.0403,0.07967 -0.0953,0.08069 -0.19231,0.0014 -0.21261,-0.04812 -0.16389,-0.400044 z m 0.67796,0.334122 c 0.11185,-0.03297 0.18745,-0.160102 0.18745,-0.315196 0,-0.326689 -0.18976,-0.337983 -0.31801,-0.01893 -0.0541,0.134598 -0.0991,0.170068 -0.10202,0.08034 -0.009,-0.26943 0.17214,-0.4643 0.36284,-0.391123 0.26206,0.100564 0.17824,0.650293 -0.10348,0.678624 -0.16699,0.01679 -0.1729,0.0094 -0.0268,-0.03372 z m 0.72467,-0.0049 c -8.6e-4,-0.06932 -0.086,-0.148084 -0.18909,-0.175026 -0.17853,-0.04665 -0.17853,-0.04958 0,-0.06141 0.1031,-0.0068 0.18745,-0.06347 0.18745,-0.125863 0,-0.06239 -0.0482,-0.08365 -0.10711,-0.04724 -0.15872,0.09809 -0.12985,-0.0085 0.0406,-0.149933 0.11768,-0.09766 0.15797,-0.06906 0.19806,0.140633 0.0277,0.144782 0.0101,0.326609 -0.039,0.404059 -0.0604,0.0952 -0.0898,0.09999 -0.0909,0.01478 z m 1.47245,-0.0033 c 0.13324,-0.02562 0.32605,-0.02465 0.42846,0.0022 0.10242,0.02681 -0.007,0.04777 -0.24225,0.04659 -0.23566,-0.0012 -0.31945,-0.02313 -0.18621,-0.04875 z m -0.80258,-0.105587 c 0.10422,-0.02716 0.24883,-0.02537 0.32135,0.004 0.0725,0.02934 -0.0128,0.05156 -0.18949,0.04938 -0.17674,-0.0022 -0.23608,-0.02619 -0.13186,-0.05335 z m 1.66495,0.0011 c 0.0773,-0.03094 0.16971,-0.02714 0.20531,0.0084 0.0356,0.03559 -0.0277,0.06091 -0.14059,0.05626 -0.12479,-0.0051 -0.15017,-0.03052 -0.0647,-0.06471 z m 0.59831,-0.312732 c 0.17073,-0.170692 0.47836,-0.57546 0.68362,-0.899485 0.57552,-0.908529 0.86807,-1.18084 1.24864,-1.162223 l 0.32808,0.01605 -0.32134,0.04699 c -0.43652,0.06383 -0.53587,0.161867 -1.18746,1.171801 -0.31085,0.481789 -0.67695,0.934759 -0.81357,1.006599 -0.21385,0.112449 -0.20522,0.08745 0.062,-0.179728 z m 1.56409,-0.250483 c 0,-0.114351 0.0427,-0.234326 0.095,-0.26661 0.13045,-0.08062 0.3683,0.224408 0.28283,0.362712 -0.11725,0.18971 -0.37781,0.123432 -0.37781,-0.0961 z m 4.03178,-0.723339 c -0.16252,-0.16252 -0.0631,-1.081952 0.14573,-1.34741 0.26865,-0.341527 0.28149,-0.55754 0.0268,-0.450478 -0.35622,0.149733 -0.66947,0.18293 -0.66947,0.07095 0,-0.06181 0.0992,-0.143852 0.22033,-0.182314 0.12118,-0.03846 0.29882,-0.234518 0.39474,-0.435681 0.18906,-0.396464 0.39028,-0.453479 0.73884,-0.209344 0.25811,0.180793 0.53502,0.778092 0.41325,0.891405 -0.0455,0.0423 -0.10188,0.02349 -0.12539,-0.0418 -0.0235,-0.06529 -0.11221,-0.209893 -0.1971,-0.321347 -0.26054,-0.342073 -0.079,0.776328 0.22515,1.3872 0.29974,0.601981 0.30066,0.606449 0.12437,0.604703 -0.15237,-0.0015 -0.61592,-0.671187 -0.61592,-0.889802 0,-0.223701 -0.12638,-0.297382 -0.28471,-0.165984 -0.0796,0.0661 -0.14375,0.325581 -0.14375,0.581886 0,0.441974 -0.10597,0.654895 -0.25285,0.50802 z m 6.98975,-0.510064 c -0.12012,-0.203586 -0.31493,-0.400795 -0.43292,-0.438244 -0.11799,-0.03745 -0.19092,-0.09169 -0.16207,-0.120544 0.10854,-0.108543 0.48289,0.187253 0.69767,0.55127 0.12256,0.20772 0.19873,0.377673 0.16927,0.377673 -0.0294,0 -0.15183,-0.16657 -0.27195,-0.370155 z m 0.69311,0.208822 c 0.39065,-0.203742 0.48981,-0.204966 0.22246,-0.0027 -0.11436,0.0865 -0.28023,0.158502 -0.3686,0.160013 -0.0884,0.0015 -0.0226,-0.06926 0.14614,-0.157267 z m 1.02365,-0.240351 c 0.0535,-0.386172 0.0571,-0.389288 0.0953,-0.08069 0.0218,0.176549 0.0956,0.356569 0.16389,0.400044 0.0767,0.04881 0.0403,0.07967 -0.0953,0.08069 -0.19231,0.0014 -0.21261,-0.04812 -0.16388,-0.400044 z m 0.5852,0.247267 c -0.0943,-0.245825 0.001,-0.541835 0.17456,-0.541835 0.10132,0 0.17141,0.126572 0.19277,0.348126 0.0252,0.261258 -0.009,0.348126 -0.13726,0.348126 -0.094,0 -0.19748,-0.06949 -0.23007,-0.154417 z m 0.28021,-0.220488 c 0,-0.147284 -0.0482,-0.267789 -0.10712,-0.267789 -0.0589,0 -0.10711,0.120505 -0.10711,0.267789 0,0.147284 0.0482,0.267789 0.10711,0.267789 0.0589,0 0.10712,-0.120505 0.10712,-0.267789 z m 0.32134,0 c 0,-0.303494 0.0408,-0.374905 0.21423,-0.374905 0.17343,0 0.21424,0.07141 0.21424,0.374905 0,0.303494 -0.0408,0.374905 -0.21424,0.374905 -0.17342,0 -0.21423,-0.07141 -0.21423,-0.374905 z m 0.32135,0.160674 c 0,-0.05891 -0.0482,-0.107116 -0.10712,-0.107116 -0.0589,0 -0.10711,0.0482 -0.10711,0.107116 0,0.05891 0.0482,0.107115 0.10711,0.107115 0.0589,0 0.10712,-0.0482 0.10712,-0.107115 z m 0,-0.321348 c 0,-0.05891 -0.0482,-0.107115 -0.10712,-0.107115 -0.0589,0 -0.10711,0.0482 -0.10711,0.107115 0,0.05891 0.0482,0.107116 0.10711,0.107116 0.0589,0 0.10712,-0.0482 0.10712,-0.107116 z m -12.21119,0.0065 c -0.17465,-0.0517 -0.0203,-0.07592 0.44387,-0.06966 0.39142,0.0053 0.68984,0.04576 0.66315,0.08994 -0.06,0.09933 -0.74536,0.08677 -1.10702,-0.02028 z m 7.5541,-0.10312 c 0.0576,-0.05635 0.24928,-0.136739 0.42602,-0.178653 0.41451,-0.0983 0.32141,-0.007 -0.15823,0.155171 -0.20485,0.06926 -0.32536,0.07983 -0.26779,0.02348 z m -8.22357,-0.08143 c 0.0736,-0.02971 0.19414,-0.02971 0.26779,0 0.0736,0.02972 0.0134,0.05403 -0.1339,0.05403 -0.14728,0 -0.20754,-0.02431 -0.13389,-0.05403 z m -0.53558,-0.107116 c 0.0736,-0.02971 0.19415,-0.02971 0.26779,0 0.0736,0.02972 0.0134,0.05403 -0.1339,0.05403 -0.14728,0 -0.20753,-0.02431 -0.13389,-0.05403 z m 8.3818,-0.625311 c 0,-0.54748 0.0343,-0.696252 0.16068,-0.696252 0.12634,0 0.16067,0.148772 0.16067,0.696252 0,0.54748 -0.0343,0.696252 -0.16067,0.696252 -0.12635,0 -0.16068,-0.148772 -0.16068,-0.696252 z m -6.2147,0.195022 c -0.24087,-0.62544 -0.24027,-0.65814 0.004,-0.214278 0.12383,0.225064 0.20906,0.45743 0.18942,0.516369 -0.0197,0.05894 -0.10665,-0.077 -0.19334,-0.302091 z m -1.64336,-0.108671 c -0.0377,-0.03768 -0.0685,-0.269903 -0.0685,-0.516065 0,-0.297774 -0.0657,-0.506975 -0.19614,-0.625075 -0.21247,-0.192279 -0.33944,-0.138298 -0.33944,0.144312 0,0.269274 -0.68519,1.016614 -0.84278,0.91922 -0.0972,-0.06007 -0.0592,-0.177043 0.14422,-0.443702 0.15679,-0.205553 0.32439,-0.622748 0.38764,-0.964891 0.11111,-0.601047 0.0725,-0.90464 -0.0614,-0.482747 -0.0586,0.184634 -0.37747,0.33144 -0.37747,0.173785 0,-0.197564 0.28391,-0.589146 0.53446,-0.737146 0.447,-0.264052 0.62717,-0.220544 0.82765,0.199866 0.10439,0.218908 0.28415,0.40429 0.42673,0.440075 0.1355,0.03401 0.24636,0.103603 0.24636,0.154658 0,0.126162 -0.67649,-0.01322 -0.77495,-0.159673 -0.0458,-0.06819 -0.0794,-0.02337 -0.0803,0.107358 -8.5e-4,0.123425 0.0948,0.311653 0.2126,0.418285 0.16276,0.147297 0.21423,0.329914 0.21423,0.76009 0,0.532627 -0.0971,0.767433 -0.25285,0.61165 z m 0.9491,-0.461256 c -0.0838,-0.135566 0.058,-0.135566 0.26779,0 0.13847,0.08948 0.13564,0.104062 -0.0205,0.105476 -0.0996,9.02e-4 -0.21092,-0.04656 -0.24733,-0.105476 z m 0.80337,0 c 0.20977,-0.135566 0.35157,-0.135566 0.26779,0 -0.0364,0.05891 -0.14771,0.106378 -0.24734,0.105476 -0.15609,-0.0014 -0.15892,-0.01599 -0.0205,-0.105476 z m 10.57767,0.04566 c -0.15161,-0.153542 -0.089,-1.190487 0.0803,-1.331044 0.0884,-0.07334 0.16067,-0.251393 0.16067,-0.395671 0,-0.238477 -0.0153,-0.247023 -0.16832,-0.094 -0.18836,0.188362 -0.58149,0.227951 -0.58149,0.05856 0,-0.06037 0.12051,-0.155583 0.26779,-0.21158 0.14729,-0.056 0.26779,-0.166097 0.26779,-0.244665 0,-0.295953 0.27469,-0.53439 0.52435,-0.45515 0.37144,0.117891 0.85693,1.021162 0.54885,1.021162 -0.0578,0 -0.13532,-0.120505 -0.17229,-0.267789 -0.037,-0.147284 -0.10242,-0.267789 -0.14546,-0.267789 -0.14207,0 0.11725,1.332323 0.32562,1.672936 0.23009,0.376109 0.25017,0.469378 0.10107,0.469378 -0.17223,0 -0.6464,-0.781284 -0.64894,-1.069243 l -0.002,-0.269704 -0.20655,0.26779 c -0.1136,0.147284 -0.22099,0.477125 -0.23863,0.732981 -0.0176,0.255855 -0.0682,0.428579 -0.11241,0.383831 z m -10.97889,-0.382596 c -0.14335,-0.143351 -0.0562,-0.412861 0.13343,-0.412861 0.19777,0 0.27944,0.285445 0.11962,0.418082 -0.0949,0.07875 -0.17064,0.07719 -0.25305,-0.0052 z m -0.56282,-0.293103 c 0,-0.05891 0.0482,-0.136905 0.10711,-0.173316 0.0589,-0.03641 0.10712,-0.018 0.10712,0.04091 0,0.05891 -0.0482,0.136906 -0.10712,0.173316 -0.0589,0.03641 -0.10711,0.018 -0.10711,-0.04091 z m 1.24968,0.02306 c -0.0393,-0.03928 -0.0714,-0.121218 -0.0714,-0.182096 0,-0.06712 0.0499,-0.06079 0.12675,0.01607 0.0697,0.06972 0.10185,0.151659 0.0714,0.182097 -0.0304,0.03044 -0.0875,0.02321 -0.12675,-0.01607 z m -10.99721,-0.946188 c 0,-0.624841 0.022,-0.696252 0.21423,-0.696252 0.19226,0 0.21423,0.07141 0.21423,0.696252 0,0.624841 -0.022,0.696252 -0.21423,0.696252 -0.19226,0 -0.21423,-0.07141 -0.21423,-0.696252 z m 7.18567,0.657203 c 0.0246,-0.02148 0.16514,-0.09644 0.31243,-0.166582 0.2525,-0.120254 0.25591,-0.118023 0.0599,0.03905 -0.17064,0.136707 -0.51928,0.256144 -0.37229,0.127534 z m 4.6707,-0.03013 c -0.16501,-0.16501 -0.0693,-0.4664 0.14804,-0.4664 0.16662,0 0.21318,0.05778 0.18745,0.23262 -0.0356,0.241578 -0.20772,0.361552 -0.33549,0.23378 z m -9.1899,-0.135728 c 0.0874,-0.05535 0.12487,-0.187774 0.0904,-0.319601 -0.0324,-0.123799 -0.0204,-0.248851 0.0266,-0.277894 0.047,-0.02904 0.10509,0.115515 0.12911,0.32124 0.0374,0.320213 0.0121,0.373811 -0.17583,0.372406 -0.16841,-0.0013 -0.18476,-0.02364 -0.0703,-0.09615 z m 0.58813,-0.05663 c -0.0943,-0.245825 0.001,-0.541835 0.17457,-0.541835 0.10132,0 0.17141,0.126572 0.19277,0.348126 0.0252,0.261259 -0.009,0.348126 -0.13726,0.348126 -0.094,0 -0.19748,-0.06949 -0.23008,-0.154417 z m 0.28021,-0.220488 c 0,-0.147284 -0.0482,-0.267789 -0.10711,-0.267789 -0.0589,0 -0.10712,0.120505 -0.10712,0.267789 0,0.147284 0.0482,0.26779 0.10712,0.26779 0.0589,0 0.10711,-0.120506 0.10711,-0.26779 z m 0.36249,0.220488 c -0.0935,-0.243675 -3.2e-4,-0.538276 0.17432,-0.550919 0.0932,-0.0067 0.1038,0.0071 0.0255,0.0334 -0.0736,0.02472 -0.13389,0.167076 -0.13389,0.316342 0,0.197234 0.0439,0.254548 0.16067,0.209739 0.0884,-0.03391 0.16067,-0.01497 0.16067,0.0421 0,0.16315 -0.32141,0.121109 -0.38732,-0.05066 z m 6.47284,-0.02587 c 0.0773,-0.03094 0.16971,-0.02714 0.2053,0.0085 0.0356,0.03559 -0.0277,0.06091 -0.14059,0.05626 -0.12478,-0.0051 -0.15016,-0.03052 -0.0647,-0.06471 z m 6.44702,-0.997986 c 0,-0.595087 0.0332,-0.74981 0.16068,-0.74981 0.12752,0 0.16067,0.154723 0.16067,0.74981 0,0.595088 -0.0331,0.74981 -0.16067,0.74981 -0.12752,0 -0.16068,-0.154722 -0.16068,-0.74981 z m -4.96594,0.461257 c -0.0377,-0.03768 -0.0685,-0.269904 -0.0685,-0.516066 0,-0.30098 -0.0655,-0.50687 -0.20008,-0.628638 -0.19035,-0.172268 -0.20307,-0.166564 -0.26152,0.117293 -0.0827,0.401571 -0.63995,1.054677 -0.81014,0.949494 -0.0972,-0.0601 -0.0657,-0.169436 0.12093,-0.419755 0.13882,-0.186169 0.30995,-0.595228 0.38026,-0.909019 0.17294,-0.771675 0.15876,-0.868398 -0.0814,-0.555786 -0.11249,0.146404 -0.23372,0.236986 -0.26942,0.201295 -0.13805,-0.138057 0.19598,-0.606893 0.55405,-0.777645 0.42941,-0.204771 0.57425,-0.136838 0.78306,0.367271 0.0799,0.192832 0.21076,0.317795 0.33287,0.317795 0.11068,0 0.20123,0.05145 0.20123,0.114334 0,0.06318 -0.0958,0.08714 -0.21423,0.05356 -0.11782,-0.03343 -0.31063,-0.08813 -0.42846,-0.121552 -0.26856,-0.07619 -0.26856,0.03879 0,0.382123 0.31447,0.402028 0.27816,1.742078 -0.0386,1.425298 z m -3.31767,-0.746899 c -0.12496,-0.124957 -0.0769,-0.439154 0.0762,-0.497895 0.16505,-0.06334 0.38796,0.115624 0.38796,0.31148 0,0.07028 -0.0763,0.157048 -0.16944,0.192808 -0.20979,0.08051 -0.20779,0.08055 -0.29473,-0.0064 z m 5.68606,-0.311397 c -0.15161,-0.153542 -0.089,-1.190487 0.0803,-1.331043 0.0884,-0.07334 0.16068,-0.251393 0.16068,-0.395672 0,-0.238477 -0.0153,-0.247023 -0.16833,-0.094 -0.18836,0.188362 -0.58148,0.227951 -0.58148,0.05856 0,-0.06037 0.1205,-0.155583 0.26779,-0.21158 0.14728,-0.056 0.26779,-0.166097 0.26779,-0.244665 0,-0.295953 0.27469,-0.53439 0.52435,-0.45515 0.37144,0.117891 0.85692,1.021162 0.54884,1.021162 -0.0578,0 -0.13532,-0.120505 -0.17228,-0.267789 -0.037,-0.147284 -0.10243,-0.26779 -0.14546,-0.26779 -0.14208,0 0.11724,1.332324 0.32562,1.672937 0.23008,0.376109 0.25016,0.469378 0.10106,0.469378 -0.17222,0 -0.64639,-0.781284 -0.64894,-1.069243 l -0.002,-0.269704 -0.20655,0.26779 c -0.1136,0.147284 -0.22098,0.477125 -0.23863,0.732981 -0.0176,0.255855 -0.0682,0.428579 -0.11241,0.383831 z m 7.24956,-0.187311 c -0.0379,-0.09883 -0.0379,-0.260552 0,-0.359382 0.0645,-0.168178 0.0805,-0.168178 0.24865,0 0.16817,0.168177 0.16817,0.191205 0,0.359382 -0.16818,0.168178 -0.18411,0.168178 -0.24865,0 z m -4.52998,-0.452855 c -0.11818,-0.150241 -0.23143,-0.322837 -0.25167,-0.383546 -0.0202,-0.06071 -0.2042,-0.149761 -0.40882,-0.197892 l -0.37202,-0.08751 0.34678,-0.01096 c 0.29329,-0.0093 0.3885,0.05513 0.61726,0.417498 0.28936,0.458371 0.36581,0.491404 0.73007,0.315438 0.22602,-0.109181 0.2269,-0.10736 0.026,0.05356 -0.2899,0.232258 -0.43934,0.209096 -0.68765,-0.106581 z m 1.58041,0.06826 c 0.0874,-0.05535 0.12486,-0.187774 0.0904,-0.319602 -0.0324,-0.123799 -0.0204,-0.248851 0.0266,-0.277893 0.047,-0.02904 0.10509,0.115515 0.12911,0.32124 0.0374,0.320213 0.0121,0.37381 -0.17584,0.372406 -0.16841,-0.0013 -0.18476,-0.02364 -0.0702,-0.09615 z m 0.58813,-0.05663 c -0.0935,-0.243676 -3.2e-4,-0.538277 0.17432,-0.55092 0.0932,-0.0068 0.1038,0.0071 0.0256,0.0334 -0.20547,0.06897 -0.16316,0.541461 0.0536,0.598096 0.17568,0.04591 0.17547,0.04977 -0.003,0.06141 -0.10495,0.0068 -0.21748,-0.05706 -0.25007,-0.141992 z m 0.64165,-0.0027 c -0.0332,-0.08643 -0.0355,-0.218983 -0.005,-0.294569 0.0304,-0.07559 0.059,-0.02897 0.0637,0.103582 0.005,0.146445 0.076,0.241011 0.18059,0.241011 0.11972,0 0.1504,-0.05709 0.10077,-0.187453 -0.0544,-0.142927 -0.0415,-0.157866 0.0542,-0.06289 0.0691,0.06851 0.0932,0.176963 0.0536,0.241011 -0.10383,0.167998 -0.37715,0.143156 -0.44769,-0.04069 z M 172.915,46.795674 c 0.005,-0.124785 0.0305,-0.150166 0.0647,-0.06472 0.0309,0.07732 0.0271,0.169711 -0.008,0.205305 -0.0356,0.03559 -0.0609,-0.02767 -0.0563,-0.140589 z m -4.02529,-0.258866 c 0.29447,-0.126538 0.46359,-0.126538 0.26779,0 -0.0884,0.05711 -0.23298,0.101186 -0.32135,0.09795 -0.10595,-0.0039 -0.0877,-0.03725 0.0536,-0.09795 z m 4.42521,-0.07317 c 0.0773,-0.03094 0.16972,-0.02714 0.20531,0.0085 0.0356,0.03559 -0.0277,0.06091 -0.14059,0.05626 -0.12478,-0.0051 -0.15017,-0.03052 -0.0647,-0.06471 z m -3.11584,-0.46472 c -0.0645,-0.480495 0.0453,-1.029107 0.19795,-0.989478 0.0547,0.0142 0.11366,0.339559 0.13108,0.723032 0.0247,0.544433 -0.002,0.697222 -0.11979,0.697222 -0.0959,0 -0.17267,-0.158157 -0.20924,-0.430776 z m -7.40003,-0.07201 c -0.0377,-0.03768 -0.0685,-0.269904 -0.0685,-0.516066 0,-0.297774 -0.0656,-0.506975 -0.19614,-0.625075 -0.21247,-0.192279 -0.33944,-0.138298 -0.33944,0.144312 0,0.269274 -0.68519,1.016614 -0.84277,0.91922 -0.0972,-0.06009 -0.0595,-0.17656 0.14305,-0.442168 0.15127,-0.198327 0.32185,-0.607436 0.37906,-0.909132 0.0572,-0.301695 0.13152,-0.593011 0.16511,-0.647368 0.0336,-0.05436 0.0133,-0.09883 -0.0451,-0.09883 -0.0584,0 -0.13681,0.0964 -0.17421,0.214232 -0.0641,0.201887 -0.37491,0.310455 -0.37491,0.13095 0,-0.331938 0.80673,-0.934404 1.10034,-0.821735 0.0824,0.03163 0.22931,0.224097 0.3264,0.427704 0.11512,0.241404 0.25167,0.370196 0.3925,0.370196 0.11878,0 0.21596,0.03985 0.21596,0.08856 0,0.126722 -0.68076,0.0124 -0.77495,-0.130141 -0.0465,-0.07037 -0.0794,-0.02728 -0.0803,0.105312 -8.6e-4,0.123425 0.0948,0.311653 0.21259,0.418286 0.16276,0.147297 0.21423,0.329913 0.21423,0.76009 0,0.532626 -0.0971,0.767432 -0.25285,0.61165 z m 2.01391,-0.150188 c -0.0944,-0.152797 0.21818,-0.465413 0.37098,-0.37098 0.20413,0.126161 0.137,0.488374 -0.0905,0.488374 -0.11435,0 -0.24056,-0.05283 -0.28046,-0.117394 z m 2.99807,-1.095419 c -0.0379,-0.09883 -0.0379,-0.260552 0,-0.359382 0.0645,-0.168178 0.0805,-0.168178 0.24864,0 0.16818,0.168177 0.16818,0.191205 0,0.359382 -0.16818,0.168178 -0.18411,0.168178 -0.24864,0 z m 2.41762,-1.411522 c 0,-0.54748 0.0343,-0.696252 0.16068,-0.696252 0.12634,0 0.16067,0.148772 0.16067,0.696252 0,0.54748 -0.0343,0.696252 -0.16067,0.696252 -0.12635,0 -0.16068,-0.148772 -0.16068,-0.696252 z m -7.92656,-0.361133 c 0,-0.261168 0.13484,-0.358861 0.3705,-0.268431 0.2478,0.09509 0.15675,0.408568 -0.13058,0.449562 -0.18028,0.02572 -0.23992,-0.01931 -0.23992,-0.181131 z m -5.33302,-0.248087 c -0.17575,-0.175751 -0.16333,-0.354392 0.0362,-0.519956 0.23752,-0.197128 0.58096,0.136482 0.41362,0.401779 -0.15045,0.238506 -0.29222,0.275753 -0.44979,0.118177 z m 9.25768,-0.05424 c -0.16003,-0.160032 -0.0623,-1.024492 0.14574,-1.288954 0.22979,-0.292133 0.2815,-0.564807 0.10711,-0.564807 -0.0589,0 -0.10711,0.04258 -0.10711,0.09463 0,0.1288 -0.52633,0.221227 -0.59814,0.105038 -0.0316,-0.05112 0.0646,-0.139359 0.2138,-0.196078 0.15228,-0.0579 0.30065,-0.220303 0.3383,-0.370311 0.10845,-0.432102 0.30877,-0.533545 0.63348,-0.320789 0.24057,0.15763 0.59083,0.657299 0.59083,0.842866 0,0.166018 -0.22795,0.02274 -0.37498,-0.235691 l -0.16759,-0.294568 0.0498,0.321347 c 0.15532,1.0016 0.20745,1.190335 0.39442,1.428032 0.23786,0.302386 0.26103,0.446797 0.0715,0.445761 -0.16184,-8.57e-4 -0.61591,-0.643572 -0.61591,-0.871748 0,-0.240974 -0.12172,-0.319905 -0.28472,-0.184632 -0.0796,0.0661 -0.14375,0.32558 -0.14375,0.581885 0,0.441974 -0.10597,0.654895 -0.25285,0.50802 z m 5.67714,-0.107116 c -0.0377,-0.03768 -0.0685,-0.269904 -0.0685,-0.516065 0,-0.297775 -0.0657,-0.506976 -0.19615,-0.625075 -0.21246,-0.192279 -0.33943,-0.138298 -0.33943,0.144311 0,0.269274 -0.68519,1.016614 -0.84278,0.91922 -0.0972,-0.06008 -0.0595,-0.17656 0.14305,-0.442168 0.15127,-0.198327 0.32185,-0.607436 0.37907,-0.909132 0.0572,-0.301694 0.13151,-0.593011 0.16511,-0.647368 0.0336,-0.05436 0.0133,-0.09883 -0.0451,-0.09883 -0.0584,0 -0.13682,0.0964 -0.17422,0.214232 -0.0374,0.117827 -0.13704,0.214231 -0.22145,0.214231 -0.10396,0 -0.15345,0.120905 -0.15345,0.374905 0,0.261838 -0.0485,0.374905 -0.16067,0.374905 -0.12635,0 -0.16068,-0.148772 -0.16068,-0.696252 0,-0.54748 0.0343,-0.696252 0.16068,-0.696252 0.0946,0 0.16067,0.09786 0.16067,0.238066 v 0.238064 l 0.16718,-0.238677 c 0.24965,-0.356432 0.75503,-0.588723 0.99798,-0.458704 0.10955,0.05863 0.23216,0.07361 0.27248,0.0333 0.0403,-0.04032 0.0429,0.0058 0.006,0.102514 -0.0958,0.249653 0.13219,0.621021 0.38126,0.621021 0.11575,0 0.21046,0.04173 0.21046,0.09273 0,0.051 -0.19281,0.05747 -0.42846,0.01438 -0.48728,-0.0891 -0.56898,0.05387 -0.21423,0.374905 0.16276,0.147297 0.21423,0.329913 0.21423,0.76009 0,0.532626 -0.0971,0.767432 -0.25285,0.61165 z m -7.92657,-0.428463 c -0.0377,-0.03768 -0.0685,-0.269904 -0.0685,-0.516065 0,-0.297775 -0.0657,-0.506976 -0.19615,-0.625075 -0.21247,-0.192279 -0.33943,-0.138298 -0.33943,0.144311 0,0.269275 -0.6852,1.016614 -0.84278,0.919221 -0.0972,-0.06009 -0.0595,-0.17656 0.14305,-0.442169 0.15127,-0.198327 0.32185,-0.607436 0.37906,-0.909132 0.0572,-0.301694 0.13152,-0.59301 0.16511,-0.647367 0.0336,-0.05436 0.0133,-0.09883 -0.0451,-0.09883 -0.0584,0 -0.13682,0.0964 -0.17422,0.214231 -0.0641,0.201887 -0.3749,0.310456 -0.3749,0.13095 0,-0.331938 0.80672,-0.934403 1.10033,-0.821735 0.0824,0.03163 0.22931,0.224097 0.3264,0.427705 0.11512,0.241403 0.25167,0.370196 0.3925,0.370196 0.11878,0 0.21597,0.047 0.21597,0.104438 0,0.13545 -0.67046,0.0074 -0.77495,-0.148061 -0.0459,-0.06819 -0.0794,-0.02337 -0.0803,0.107358 -8.6e-4,0.123425 0.0948,0.311653 0.21259,0.418285 0.16276,0.147297 0.21423,0.329914 0.21423,0.76009 0,0.532627 -0.0971,0.767433 -0.25285,0.61165 z m 2.39517,-2.484995 c 0,-0.203465 0.24453,-0.373912 0.36443,-0.254016 0.1537,0.153699 0.054,0.456788 -0.1502,0.456788 -0.13879,0 -0.21423,-0.07141 -0.21423,-0.202772 z m 5.03444,-0.104804 c 0,-0.261168 0.13483,-0.358861 0.37049,-0.268431 0.24781,0.09509 0.15675,0.408569 -0.13058,0.449562 -0.18027,0.02572 -0.23991,-0.01931 -0.23991,-0.181131 z m -7.92657,-0.430774 c 0,-0.233993 0.2233,-0.352488 0.42701,-0.226592 0.19902,0.122999 0.0496,0.429363 -0.20941,0.429363 -0.14209,0 -0.2176,-0.07037 -0.2176,-0.202771 z m 6.74829,-0.814829 c 0,-0.609705 0.025,-0.696252 0.20112,-0.696252 0.2893,0 0.42657,-0.212996 0.5472,-0.849056 0.0584,-0.30801 0.13369,-0.604491 0.16729,-0.658848 0.0336,-0.05436 0.0133,-0.09883 -0.0451,-0.09883 -0.0584,0 -0.13517,0.0912 -0.17054,0.202666 -0.0545,0.171828 -0.33942,0.325995 -0.61248,0.33145 -0.0403,8.57e-4 -0.0885,-0.131093 -0.10711,-0.293106 -0.0243,-0.210912 -0.10234,-0.304289 -0.27491,-0.328797 -0.13255,-0.01883 -0.24101,-0.10609 -0.24101,-0.193919 0,-0.119002 0.10222,-0.151219 0.40121,-0.126445 0.35082,0.02907 0.40872,0.0736 0.46113,0.354593 0.0524,0.280744 0.0693,0.293823 0.13424,0.103513 0.0815,-0.238856 0.59624,-0.585534 0.86943,-0.585534 0.095,0 0.25383,0.170209 0.35303,0.378243 0.10439,0.218908 0.28415,0.40429 0.42673,0.440075 0.1355,0.03401 0.24636,0.09646 0.24636,0.138785 0,0.118471 -0.6859,-0.007 -0.77495,-0.141754 -0.0465,-0.07037 -0.0794,-0.02728 -0.0803,0.105312 -8.5e-4,0.123425 0.0969,0.313577 0.21732,0.422559 0.17788,0.160985 0.21304,0.304969 0.18745,0.767644 -0.0388,0.700826 -0.23319,0.797185 -0.27997,0.13876 -0.0339,-0.477032 -0.28299,-0.905413 -0.4621,-0.794714 -0.051,0.03154 -0.0928,0.142237 -0.0928,0.245983 0,0.103746 -0.16871,0.385725 -0.37491,0.626621 -0.27755,0.324256 -0.3749,0.537879 -0.3749,0.822648 0,0.270507 -0.0477,0.384657 -0.16067,0.384657 -0.12635,0 -0.16068,-0.148772 -0.16068,-0.696253 z m -16.74352,-1.193893 c -0.10849,-0.108492 -0.0897,-1.407865 0.0213,-1.476498 0.20343,-0.125721 0.34378,0.260167 0.31233,0.858703 -0.0299,0.569701 -0.15332,0.798141 -0.33366,0.617795 z m 7.81721,-0.859158 c -0.12495,-0.124957 -0.0769,-0.439154 0.0762,-0.497895 0.16506,-0.06334 0.38796,0.115624 0.38796,0.311479 0,0.07029 -0.0762,0.157049 -0.16943,0.192809 -0.2098,0.08051 -0.20779,0.08055 -0.29474,-0.0064 z m -6.49835,-0.517726 c 0,-0.126341 0.14877,-0.160673 0.69625,-0.160673 0.54748,0 0.69625,0.03433 0.69625,0.160673 0,0.126342 -0.14877,0.160674 -0.69625,0.160674 -0.54748,0 -0.69625,-0.03433 -0.69625,-0.160674 z m 2.46366,0 c 0,-0.126341 0.14877,-0.160673 0.69625,-0.160673 0.54748,0 0.69626,0.03433 0.69626,0.160673 0,0.126342 -0.14878,0.160674 -0.69626,0.160674 -0.54748,0 -0.69625,-0.03433 -0.69625,-0.160674 z m 2.46366,0 c 0,-0.126341 0.14878,-0.160673 0.69626,-0.160673 0.54748,0 0.69625,0.03433 0.69625,0.160673 0,0.126342 -0.14877,0.160674 -0.69625,0.160674 -0.54748,0 -0.69626,-0.03433 -0.69626,-0.160674 z m 2.49005,0.02678 c 0.028,-0.08477 0.30637,-0.145514 0.75874,-0.165567 0.58674,-0.02601 0.71449,-0.0021 0.71449,0.133894 0,0.133764 -0.14574,0.165568 -0.75873,0.165568 -0.55918,0 -0.7471,-0.03522 -0.7145,-0.133895 z m 2.54439,-0.02678 c 0,-0.126341 0.14877,-0.160673 0.69625,-0.160673 0.54748,0 0.69626,0.03433 0.69626,0.160673 0,0.126342 -0.14878,0.160674 -0.69626,0.160674 -0.54748,0 -0.69625,-0.03433 -0.69625,-0.160674 z m 2.46366,0 c 0,-0.126341 0.14877,-0.160673 0.69625,-0.160673 0.54748,0 0.69626,0.03433 0.69626,0.160673 0,0.126342 -0.14878,0.160674 -0.69626,0.160674 -0.54748,0 -0.69625,-0.03433 -0.69625,-0.160674 z m 4.24893,-0.446315 c -0.11247,-0.112468 -0.0834,-0.444135 0.046,-0.524079 0.0646,-0.03991 0.19298,0.003 0.28537,0.09542 0.13837,0.138374 0.14369,0.19723 0.0302,0.334021 -0.14933,0.179936 -0.24989,0.206261 -0.36151,0.09464 z m -11.35718,-0.53849 c -0.0377,-0.03768 -0.0685,-0.245803 -0.0685,-0.462508 0,-0.245673 -0.0738,-0.460748 -0.19589,-0.571283 -0.26392,-0.238851 -0.33969,-0.223349 -0.33969,0.0695 0,0.296642 -0.67538,0.990139 -0.85572,0.87868 -0.0881,-0.05443 -0.0634,-0.14402 0.0845,-0.306611 0.30955,-0.340382 0.41526,-0.598892 0.48814,-1.193751 0.0542,-0.442775 0.0445,-0.493817 -0.0562,-0.294568 -0.10258,0.202889 -0.41047,0.347275 -0.41047,0.192492 0,-0.197564 0.28391,-0.589146 0.53446,-0.737146 0.44783,-0.264543 0.62721,-0.220457 0.82956,0.203874 0.12615,0.264523 0.27353,0.400501 0.47855,0.441505 0.16295,0.03259 0.27507,0.09355 0.24917,0.135467 -0.069,0.111559 -0.73936,-0.0044 -0.83149,-0.143874 -0.0465,-0.07037 -0.0794,-0.02728 -0.0803,0.105312 -8.5e-4,0.123425 0.0948,0.311653 0.2126,0.418285 0.15738,0.142431 0.21423,0.329914 0.21423,0.706532 0,0.485687 -0.10142,0.709527 -0.25285,0.558093 z m 7.71233,0 c -0.0377,-0.03768 -0.0685,-0.245803 -0.0685,-0.462508 0,-0.245861 -0.0737,-0.460752 -0.19614,-0.571517 -0.21167,-0.191555 -0.33944,-0.138425 -0.33944,0.141146 0,0.09645 -0.16454,0.334846 -0.36565,0.529767 -0.4547,0.440719 -0.72297,0.348626 -0.33333,-0.114431 0.14882,-0.176865 0.29669,-0.450413 0.3286,-0.607884 0.0319,-0.157472 0.0997,-0.44297 0.15062,-0.634439 0.099,-0.37223 -0.0411,-0.493162 -0.15514,-0.133895 -0.0568,0.178894 -0.37491,0.319511 -0.37491,0.165713 0,-0.216995 0.30119,-0.607272 0.58775,-0.761594 0.42974,-0.231431 0.67315,-0.149048 0.8221,0.278253 0.0818,0.234629 0.20172,0.345374 0.42165,0.389359 0.16904,0.03381 0.28614,0.09577 0.26024,0.137682 -0.069,0.111559 -0.73935,-0.0044 -0.83149,-0.143874 -0.0465,-0.07037 -0.0794,-0.02728 -0.0803,0.105312 -8.6e-4,0.123425 0.0948,0.311653 0.21259,0.418285 0.15738,0.142431 0.21423,0.329914 0.21423,0.706532 0,0.485687 -0.10142,0.709527 -0.25285,0.558093 z m 2.67789,-1.071157 c -0.16003,-0.160032 -0.0623,-1.024492 0.14574,-1.288954 0.22979,-0.292133 0.2815,-0.564807 0.10711,-0.564807 -0.0589,0 -0.10711,0.04258 -0.10711,0.09463 0,0.1288 -0.52633,0.221227 -0.59814,0.105038 -0.0316,-0.05112 0.0646,-0.139359 0.21379,-0.196078 0.15229,-0.0579 0.30066,-0.220302 0.3383,-0.37031 0.10846,-0.432103 0.30878,-0.533546 0.63349,-0.32079 0.24057,0.15763 0.59083,0.657299 0.59083,0.842866 0,0.166018 -0.22795,0.02274 -0.37498,-0.235691 l -0.16759,-0.294568 0.0498,0.321347 c 0.15533,1.001601 0.20746,1.190335 0.39443,1.428032 0.23786,0.302386 0.26103,0.446797 0.0715,0.445761 -0.16184,-8.56e-4 -0.61592,-0.643572 -0.61592,-0.871748 0,-0.240974 -0.12171,-0.319905 -0.28471,-0.184632 -0.0797,0.0661 -0.14375,0.32558 -0.14375,0.581886 0,0.441973 -0.10597,0.654894 -0.25285,0.50802 z m -4.89705,-1.962897 c -0.2108,-0.234544 -0.35175,-0.426443 -0.31324,-0.426443 0.0692,0 0.35914,0.305977 0.63435,0.669474 0.24966,0.329733 0.0745,0.197185 -0.32111,-0.243031 z m 1.01141,0.26915 c 0.39066,-0.203742 0.48982,-0.204966 0.22246,-0.0027 -0.11436,0.0865 -0.28023,0.158502 -0.3686,0.160013 -0.0884,0.0015 -0.0226,-0.06926 0.14614,-0.157267 z m -9.145,-0.401024 -0.34049,-0.455242 0.35827,0.401688 c 0.37246,0.417601 0.66229,0.494471 1.08834,0.288654 0.22601,-0.109181 0.2269,-0.10736 0.026,0.05356 -0.38288,0.306751 -0.75845,0.210992 -1.13216,-0.288658 z m 2.18219,0.294568 c -0.084,-0.218826 0.0396,-0.509459 0.19468,-0.457774 0.0694,0.02313 0.17783,0.124918 0.24096,0.226189 0.0871,0.139759 0.0761,0.208806 -0.0459,0.286551 -0.22531,0.143633 -0.31856,0.13048 -0.38973,-0.05497 z m 2.20221,-0.241011 c 0.0535,-0.386172 0.0572,-0.389288 0.0953,-0.08068 0.0218,0.176549 0.0956,0.356568 0.16388,0.400044 0.0767,0.04881 0.0403,0.07967 -0.0953,0.08068 -0.19231,0.0014 -0.21261,-0.04812 -0.16389,-0.400044 z m 0.67796,0.334122 c 0.11185,-0.03297 0.18745,-0.160102 0.18745,-0.315196 0,-0.326689 -0.18976,-0.337983 -0.31801,-0.01893 -0.0541,0.134599 -0.0991,0.170069 -0.10202,0.08034 -0.009,-0.269429 0.17214,-0.464299 0.36284,-0.391122 0.26206,0.100563 0.17824,0.650293 -0.10348,0.678624 -0.16699,0.01679 -0.1729,0.0094 -0.0268,-0.03372 z m 0.63611,0.0013 c 0.0995,-0.0297 0.20516,-0.135383 0.23486,-0.23486 0.0392,-0.131168 0.048,-0.122339 0.0321,0.03214 -0.0128,0.124848 -0.11001,0.222048 -0.23486,0.23486 -0.15447,0.01585 -0.1633,0.007 -0.0321,-0.03214 z m 4.19605,-0.09438 c -0.084,-0.218826 0.0396,-0.509459 0.19468,-0.457774 0.0694,0.02313 0.17783,0.124918 0.24096,0.226189 0.0871,0.139759 0.076,0.208806 -0.0459,0.286551 -0.22531,0.143633 -0.31856,0.13048 -0.38973,-0.05497 z m -13.68645,-0.268386 c 0.0138,-0.466325 0.11901,-0.502325 0.17083,-0.05845 0.0259,0.222294 -0.002,0.3804 -0.068,0.380404 -0.0618,4e-6 -0.1081,-0.144874 -0.10285,-0.321951 z m 0.51362,0.167527 c -0.0935,-0.243676 -3.2e-4,-0.538277 0.17433,-0.55092 0.0932,-0.0067 0.10379,0.0071 0.0256,0.0334 -0.20547,0.06897 -0.16316,0.541461 0.0536,0.598096 0.17568,0.04591 0.17547,0.04977 -0.003,0.06141 -0.10495,0.0068 -0.21748,-0.05706 -0.25007,-0.141991 z m 0.64165,-0.0027 c -0.0332,-0.08643 -0.0355,-0.218983 -0.005,-0.294568 0.0304,-0.07559 0.059,-0.02897 0.0637,0.103582 0.005,0.146444 0.076,0.24101 0.18059,0.24101 0.11971,0 0.1504,-0.05709 0.10077,-0.187452 -0.0544,-0.142928 -0.0416,-0.157866 0.0542,-0.06289 0.0691,0.06851 0.0932,0.176962 0.0536,0.24101 -0.10383,0.167998 -0.37715,0.143156 -0.4477,-0.04069 z m 8.1007,-0.05709 c 0,-0.05891 0.051,-0.107115 0.11344,-0.107115 0.0624,0 0.0836,0.0482 0.0472,0.107115 -0.0364,0.05891 -0.0875,0.107116 -0.11344,0.107116 -0.026,0 -0.0472,-0.0482 -0.0472,-0.107116 z m -8.34656,-0.169599 c 0.005,-0.124785 0.0305,-0.150166 0.0647,-0.06472 0.0309,0.07732 0.0271,0.169711 -0.008,0.205305 -0.0356,0.03559 -0.0609,-0.02767 -0.0563,-0.140589 z m 9.31061,-0.04463 c 0.0884,-0.05711 0.23297,-0.101186 0.32134,-0.09795 0.10595,0.0039 0.0877,0.03725 -0.0536,0.09795 -0.29447,0.126538 -0.46359,0.126538 -0.26778,0 z m -8.1656,-0.12516 c 0.0622,-0.06224 0.1764,-0.0921 0.25368,-0.06634 0.0802,0.02674 0.0317,0.0753 -0.11318,0.113173 -0.17817,0.04659 -0.21999,0.03265 -0.1405,-0.04684 z m 7.38722,0.0048 c 0.0727,-0.0732 0.15909,-0.106116 0.19207,-0.07314 0.033,0.03298 -0.0265,0.09287 -0.13211,0.1331 -0.15266,0.05813 -0.16496,0.04583 -0.06,-0.05996 z m 1.39429,-0.05765 c 0.0736,-0.02971 0.19415,-0.02971 0.26779,0 0.0736,0.02971 0.0134,0.05403 -0.13389,0.05403 -0.14729,0 -0.20754,-0.02431 -0.1339,-0.05403 z m -9.5266,-0.109347 c 0.0773,-0.03094 0.16971,-0.02714 0.2053,0.0085 0.0356,0.03559 -0.0277,0.06091 -0.14059,0.05626 -0.12478,-0.0051 -0.15016,-0.03052 -0.0647,-0.06471 z m 1.28539,0 c 0.0773,-0.03094 0.16971,-0.02714 0.2053,0.0085 0.0356,0.03559 -0.0277,0.06091 -0.14059,0.05626 -0.12478,-0.0051 -0.15016,-0.03052 -0.0647,-0.06471 z m 0.42176,-0.104885 c 0.0737,-0.02971 0.19415,-0.02971 0.26779,0 0.0737,0.02971 0.0134,0.05403 -0.13389,0.05403 -0.14729,0 -0.20754,-0.02431 -0.1339,-0.05403 z m 13.95183,-0.453178 c 0,-0.203465 0.24453,-0.373912 0.36443,-0.254016 0.1537,0.153699 0.054,0.456788 -0.1502,0.456788 -0.13879,0 -0.21423,-0.07141 -0.21423,-0.202772 z m 19.75139,31.078875 c -0.0555,-0.178526 -0.0525,-0.178526 0.0622,0 0.11221,0.174529 0.49986,0.187453 5.6229,0.187453 3.0263,0 5.57862,-0.02926 5.67181,-0.06502 0.0932,-0.03576 0.16943,-0.174919 0.16943,-0.309241 0,-0.134323 0.15666,-0.474575 0.34813,-0.756116 0.33346,-0.490327 0.72077,-0.771057 1.38164,-1.001436 l 0.30543,-0.106475 -10e-4,-3.995632 c -8.5e-4,-2.197598 -0.0304,-4.103499 -0.0657,-4.235336 l -0.0643,-0.239702 -3.92435,-0.02809 -3.92435,-0.02809 -0.0213,-2.195872 -0.0213,-2.195872 -0.29641,-0.214232 c -1.48975,-1.076707 -2.28708,-2.501896 -2.28418,-4.082825 0.003,-1.551196 0.81309,-2.991356 2.283,-4.057969 l 0.29523,-0.214231 0.0225,-2.195872 0.0225,-2.195872 3.92435,-0.02809 3.92435,-0.02809 0.0643,-0.239702 c 0.0353,-0.131837 0.0649,-2.037739 0.0657,-4.235336 l 0.001,-3.995633 -0.30543,-0.106475 c -0.66087,-0.230379 -1.04818,-0.511109 -1.38164,-1.001435 -0.19147,-0.281541 -0.34813,-0.621793 -0.34813,-0.756116 0,-0.134322 -0.0762,-0.273482 -0.16943,-0.309241 -0.0932,-0.03576 -5.48592,-0.06502 -11.98385,-0.06502 -9.50367,0 -11.83679,0.02697 -11.92885,0.137895 -0.18032,0.217274 -0.17528,14.364443 0.005,14.507125 0.0751,0.05941 0.34909,0.135061 0.60878,0.168117 1.20371,0.153219 2.73605,1.288311 3.29263,2.439026 0.42988,0.888776 0.49548,1.178645 0.49548,2.189338 0,1.010694 -0.0656,1.300563 -0.49548,2.189338 -0.55658,1.150715 -2.08892,2.285808 -3.29263,2.439026 -0.25969,0.03306 -0.53242,0.107696 -0.60606,0.165868 -0.19081,0.150722 -0.19604,14.328048 -0.005,14.518731 0.097,0.09703 1.65836,0.128539 6.37002,0.128539 5.89507,0 6.23825,-0.0104 6.1832,-0.187453 z m -8.85237,-12.40665 c -0.14139,-0.14319 -0.0859,-1.068454 0.0769,-1.283792 0.0865,-0.114359 0.1588,-0.325593 0.16067,-0.469409 0.003,-0.226242 -0.0146,-0.239086 -0.13049,-0.09531 -0.17453,0.216619 -0.48482,0.321572 -0.56537,0.191236 -0.0349,-0.05645 0.06,-0.149556 0.2108,-0.206901 0.15083,-0.05734 0.27424,-0.167035 0.27424,-0.243755 0,-0.07672 0.0756,-0.247406 0.16797,-0.379302 0.16309,-0.232843 0.177,-0.234473 0.47896,-0.0561 0.24566,0.145115 0.53134,0.603934 0.53134,0.853366 0,0.147411 -0.20308,-0.01342 -0.30816,-0.244058 -0.0706,-0.154896 -0.14695,-0.263005 -0.16971,-0.240241 -0.0909,0.09084 0.23376,1.460602 0.4036,1.703075 0.21582,0.308128 0.22901,0.426005 0.0475,0.424208 -0.18211,-0.0018 -0.61591,-0.690501 -0.61591,-0.977815 0,-0.223551 -0.008,-0.22519 -0.20885,-0.04334 -0.13436,0.121603 -0.22031,0.360252 -0.24101,0.669246 -0.0177,0.264136 -0.0683,0.443635 -0.1125,0.398887 z m 0.13389,-3.038573 c 0,-0.11435 0.0427,-0.234325 0.095,-0.26661 0.13045,-0.08062 0.3683,0.224408 0.28283,0.362712 -0.11725,0.18971 -0.37781,0.123433 -0.37781,-0.0961 z m 4.56736,-5.43643 c -0.16003,-0.160032 -0.0623,-1.024491 0.14573,-1.288953 0.2298,-0.292134 0.28151,-0.564807 0.10712,-0.564807 -0.0589,0 -0.10712,0.04258 -0.10712,0.09463 0,0.1288 -0.52632,0.221227 -0.59813,0.105037 -0.0316,-0.05112 0.0646,-0.139358 0.21379,-0.196077 0.15229,-0.0579 0.30065,-0.220303 0.3383,-0.370311 0.10846,-0.432102 0.30878,-0.533545 0.63349,-0.320789 0.24057,0.157629 0.59083,0.657299 0.59083,0.842866 0,0.166017 -0.22795,0.02274 -0.37498,-0.235691 l -0.16759,-0.294568 0.0498,0.321347 c 0.15533,1.0016 0.20746,1.190335 0.39443,1.428032 0.23786,0.302386 0.26103,0.446797 0.0715,0.445761 -0.16184,-8.57e-4 -0.61592,-0.643573 -0.61592,-0.871748 0,-0.240974 -0.12171,-0.319906 -0.28471,-0.184632 -0.0796,0.0661 -0.14375,0.32558 -0.14375,0.581885 0,0.441974 -0.10597,0.654895 -0.25285,0.50802 z m 2.77007,-2.282223 c -0.28903,-0.457852 -0.52726,-0.528137 -1.07904,-0.31835 -0.15929,0.06056 -0.31173,0.088 -0.33875,0.06098 -0.0974,-0.09743 0.81526,-0.304798 1.06531,-0.242039 0.15291,0.03838 0.32872,0.216632 0.43643,0.442511 0.18816,0.394581 0.36012,0.455126 0.75324,0.265218 0.22601,-0.109181 0.2269,-0.10736 0.026,0.05356 -0.3358,0.269032 -0.57363,0.196881 -0.86323,-0.261879 z m 1.75892,0.02678 c 0.0535,-0.386173 0.0571,-0.389289 0.0953,-0.08068 0.0218,0.176549 0.0956,0.356569 0.16388,0.400044 0.0767,0.04881 0.0403,0.07967 -0.0953,0.08068 -0.19231,0.0014 -0.21261,-0.04812 -0.16389,-0.400044 z m 0.67796,0.334121 c 0.11185,-0.03297 0.18745,-0.160102 0.18745,-0.315196 0,-0.326689 -0.18976,-0.337982 -0.31801,-0.01892 -0.0541,0.134598 -0.0991,0.170068 -0.10202,0.08034 -0.009,-0.269429 0.17214,-0.464299 0.36284,-0.391122 0.26206,0.100564 0.17824,0.650293 -0.10348,0.678624 -0.16699,0.01679 -0.1729,0.0094 -0.0268,-0.03372 z m 0.63611,0.0013 c 0.0995,-0.0297 0.20516,-0.135383 0.23486,-0.234859 0.0392,-0.131169 0.048,-0.122339 0.0321,0.03213 -0.0128,0.124848 -0.11001,0.222048 -0.23486,0.23486 -0.15447,0.01585 -0.1633,0.007 -0.0321,-0.03214 z m -0.23442,-0.255049 c 0,-0.05891 0.051,-0.107115 0.11343,-0.107115 0.0624,0 0.0837,0.0482 0.0472,0.107115 -0.0364,0.05891 -0.0875,0.107116 -0.11344,0.107116 -0.026,0 -0.0472,-0.0482 -0.0472,-0.107116 z m 0.18566,-0.334639 c 0.0727,-0.0732 0.15909,-0.106116 0.19207,-0.07314 0.033,0.03298 -0.0265,0.09288 -0.1321,0.1331 -0.15267,0.05813 -0.16497,0.04583 -0.06,-0.05996 z m -5.64857,-0.510826 c 0,-0.203465 0.24454,-0.373912 0.36444,-0.254016 0.1537,0.153699 0.054,0.456787 -0.1502,0.456787 -0.13879,0 -0.21424,-0.07141 -0.21424,-0.202771 z m -5.68798,-5.173471 c -0.0255,-0.580706 0.0375,-1.012626 0.17985,-1.234385 0.0838,-0.130483 0.15235,-0.344553 0.15235,-0.475714 0,-0.207997 -0.0171,-0.217235 -0.1339,-0.0723 -0.17453,0.216619 -0.48482,0.321572 -0.56537,0.191236 -0.0349,-0.05645 0.06,-0.149556 0.2108,-0.206902 0.15083,-0.05735 0.27424,-0.167035 0.27424,-0.243754 0,-0.07672 0.0756,-0.247407 0.16797,-0.379302 0.16309,-0.232843 0.177,-0.234473 0.47896,-0.0561 0.24566,0.145115 0.53134,0.603934 0.53134,0.853366 0,0.14741 -0.20308,-0.01343 -0.30816,-0.244058 -0.0706,-0.154897 -0.14695,-0.263005 -0.16971,-0.240241 -0.0909,0.09084 0.23376,1.460602 0.4036,1.703074 0.21582,0.308128 0.22901,0.426006 0.0475,0.424209 -0.18211,-0.0018 -0.61591,-0.690502 -0.61591,-0.977815 0,-0.22555 -0.006,-0.226674 -0.21424,-0.03846 -0.15075,0.136429 -0.21423,0.329914 -0.21423,0.652975 0,0.472445 -0.20565,0.786908 -0.22508,0.344168 z m 0.22508,-2.972461 c 0,-0.114351 0.0427,-0.234326 0.095,-0.26661 0.13045,-0.08062 0.3683,0.224408 0.28283,0.362712 -0.11725,0.18971 -0.37781,0.123432 -0.37781,-0.0961 z m 13.79474,-1.049458 c 0.31127,-0.02171 0.79329,-0.02148 1.07116,5.36e-4 0.27786,0.02199 0.0232,0.03974 -0.56595,0.03946 -0.58914,-3.21e-4 -0.81648,-0.01827 -0.50521,-0.03997 z m -0.23507,-0.457081 c 0.0138,-0.466325 0.11901,-0.502324 0.17083,-0.05845 0.0259,0.222294 -0.002,0.3804 -0.068,0.380404 -0.0618,5e-6 -0.1081,-0.144874 -0.10286,-0.321951 z m 0.51363,0.167527 c -0.0935,-0.243675 -3.2e-4,-0.538277 0.17432,-0.55092 0.0932,-0.0067 0.1038,0.0071 0.0256,0.0334 -0.20547,0.06898 -0.16316,0.541462 0.0536,0.598096 0.17568,0.04591 0.17547,0.04977 -0.003,0.06141 -0.10495,0.0068 -0.21748,-0.05706 -0.25007,-0.141991 z m 0.74563,-0.04147 c 0.22854,-0.252537 0.22502,-0.418621 -0.0102,-0.480085 -0.14106,-0.03686 -0.12781,-0.05206 0.0536,-0.06141 0.17142,-0.0088 0.24101,0.0476 0.24101,0.195484 0,0.114351 -0.0571,0.243171 -0.12679,0.286268 -0.0872,0.05386 -0.062,0.103709 0.0803,0.159467 0.16981,0.0665 0.15107,0.08246 -0.10405,0.08864 -0.29478,0.0071 -0.30183,-0.0028 -0.13389,-0.188358 z m -0.34985,-0.187944 c 0.005,-0.124784 0.0305,-0.150166 0.0647,-0.06472 0.0309,0.07732 0.0271,0.169711 -0.008,0.205305 -0.0356,0.03559 -0.0609,-0.02767 -0.0563,-0.140589 z m 8.44992,33.596743 c 0.12041,-0.224989 0.15066,-1.171237 0.0462,-1.443581 -0.15333,-0.399594 -1.07026,0.124152 -1.49943,0.856477 -0.37791,0.644859 -0.25317,0.794294 0.66302,0.794294 0.56205,0 0.69852,-0.03578 0.79026,-0.20719 z m 0,-10.925802 c 0.118,-0.220491 0.1542,-3.42285 0.0434,-3.836429 -0.0628,-0.234123 -0.10403,-0.24101 -1.4446,-0.24101 h -1.38001 l -4.3e-4,-2.597556 c -3.2e-4,-2.400565 -0.0165,-2.623957 -0.21266,-2.945682 -0.16438,-0.269603 -0.29113,-0.351747 -0.56196,-0.364176 -0.33986,-0.0156 -0.3411,-0.01733 -0.044,-0.06175 0.214,-0.03199 0.38272,0.02663 0.56236,0.195395 l 0.25666,0.241095 V 39.64655 38.181817 h 1.38001 c 1.34057,0 1.38185,-0.0069 1.4446,-0.241011 0.11083,-0.413579 0.0746,-3.615938 -0.0434,-3.836428 -0.10629,-0.198593 -0.26169,-0.20719 -3.74529,-0.20719 -3.48359,0 -3.63899,0.0086 -3.74528,0.20719 -0.0736,0.137581 -0.11088,2.928906 -0.11088,8.308509 0,5.379603 0.0373,8.170928 0.11088,8.30851 0.10629,0.198592 0.26169,0.207189 3.74528,0.207189 3.4836,0 3.639,-0.0086 3.74529,-0.207189 z m -5.97195,-8.060805 c -0.17575,-0.17575 -0.16333,-0.354391 0.0362,-0.519955 0.23752,-0.197129 0.58096,0.136482 0.41362,0.401779 -0.15045,0.238506 -0.29222,0.275753 -0.44979,0.118176 z m -0.78399,-1.25598 c 0.0874,-0.05535 0.12486,-0.187774 0.0904,-0.319601 -0.0324,-0.123799 -0.0204,-0.248851 0.0266,-0.277893 0.047,-0.02904 0.10509,0.115514 0.12911,0.32124 0.0374,0.320212 0.0121,0.37381 -0.17584,0.372406 -0.16841,-0.0013 -0.18476,-0.02364 -0.0702,-0.09615 z m 0.58813,-0.05663 c -0.0943,-0.245825 0.001,-0.541835 0.17456,-0.541835 0.10132,0 0.17141,0.126572 0.19277,0.348126 0.0252,0.261259 -0.009,0.348126 -0.13725,0.348126 -0.094,0 -0.19749,-0.06949 -0.23008,-0.154417 z m 0.28021,-0.220488 c 0,-0.147284 -0.0482,-0.267789 -0.10712,-0.267789 -0.0589,0 -0.10711,0.120505 -0.10711,0.267789 0,0.147284 0.0482,0.26779 0.10711,0.26779 0.0589,0 0.10712,-0.120506 0.10712,-0.26779 z m 0.36248,0.220488 c -0.0935,-0.243675 -3.2e-4,-0.538276 0.17433,-0.550919 0.0932,-0.0068 0.10379,0.0071 0.0255,0.0334 -0.0736,0.02472 -0.1339,0.167076 -0.1339,0.316342 0,0.197234 0.0439,0.254548 0.16068,0.209739 0.0884,-0.03391 0.16067,-0.01497 0.16067,0.0421 0,0.163151 -0.32141,0.12111 -0.38733,-0.05066 z m 0.90282,-0.454333 c 0.0773,-0.03094 0.16972,-0.02714 0.20531,0.0084 0.0356,0.03559 -0.0277,0.06091 -0.14059,0.05626 -0.12478,-0.0051 -0.15016,-0.03052 -0.0647,-0.06471 z m 0.42847,-0.107116 c 0.0773,-0.03094 0.16971,-0.02714 0.2053,0.0085 0.0356,0.03559 -0.0277,0.06091 -0.14059,0.05626 -0.12478,-0.0051 -0.15016,-0.03052 -0.0647,-0.06471 z m -22.3223,6.006634 c 0.14543,-0.05581 0.16943,-0.326562 0.16943,-1.911481 0,-1.710427 -0.0158,-1.860747 -0.21423,-2.04034 -0.11783,-0.106633 -0.21423,-0.299441 -0.21423,-0.428463 0,-0.129022 0.0964,-0.32183 0.21423,-0.428463 0.19845,-0.179593 0.21423,-0.329913 0.21423,-2.04034 0,-2.094697 0.0154,-2.060714 -0.83786,-1.854718 -2.0013,0.483186 -3.44677,2.296334 -3.44677,4.323521 0,1.982636 1.3666,3.754363 3.30907,4.290042 0.61677,0.170086 0.60228,0.168465 0.80613,0.09024 z m 1.31019,-0.0844 c 1.54971,-0.412626 2.71968,-1.561918 3.23596,-3.178774 0.0672,-0.21038 0.12214,-0.713293 0.12214,-1.117583 0,-2.03526 -1.42962,-3.827653 -3.44676,-4.321379 -0.85288,-0.208755 -0.83787,-0.241949 -0.83787,1.85305 0,1.710427 0.0158,1.860746 0.21423,2.04034 0.11783,0.106632 0.21423,0.299441 0.21423,0.428463 0,0.129022 -0.0964,0.32183 -0.21423,0.428463 -0.19847,0.179612 -0.21423,0.329913 -0.21423,2.042873 0,2.150221 -0.0353,2.080652 0.92653,1.824547 z M 153.4318,46.02804 c 0.0439,-0.530953 0.32855,-0.549065 0.42083,-0.02678 0.0364,0.206198 0.0637,-1.408572 0.0605,-3.588376 -0.003,-2.179805 -0.0235,-3.707192 -0.0453,-3.394193 -0.0324,0.465503 -0.0726,0.562806 -0.22119,0.534575 -0.1364,-0.02592 -0.1896,-0.167626 -0.21366,-0.569089 l -0.032,-0.534575 h -0.96247 c -0.73888,0 -0.98612,0.03733 -1.06426,0.160673 -0.14292,0.225581 -0.13749,7.344514 0.006,7.612258 0.0969,0.181029 0.23132,0.20719 1.06469,0.20719 h 0.9538 z m -0.0203,-2.222651 c 0,-0.624841 0.022,-0.696252 0.21423,-0.696252 0.19226,0 0.21423,0.07141 0.21423,0.696252 0,0.624841 -0.022,0.696252 -0.21423,0.696252 -0.19226,0 -0.21423,-0.07141 -0.21423,-0.696252 z m -0.46708,-0.02076 c -0.0377,-0.03768 -0.0685,-0.269904 -0.0685,-0.516065 0,-0.297775 -0.0656,-0.506976 -0.19615,-0.625075 -0.21246,-0.192279 -0.33943,-0.138298 -0.33943,0.144311 0,0.269274 -0.68519,1.016614 -0.84278,0.91922 -0.0972,-0.06009 -0.0595,-0.17656 0.14305,-0.442168 0.15127,-0.198327 0.32185,-0.607436 0.37907,-0.909132 0.0572,-0.301694 0.13151,-0.59301 0.16511,-0.647367 0.0336,-0.05436 0.0133,-0.09883 -0.0451,-0.09883 -0.0584,0 -0.13682,0.0964 -0.17422,0.214231 -0.0568,0.178894 -0.3749,0.319511 -0.3749,0.165713 0,-0.216995 0.30119,-0.607272 0.58775,-0.761594 0.42591,-0.229368 0.67302,-0.149388 0.81732,0.264534 0.0602,0.172793 0.17845,0.340624 0.26271,0.372955 0.12229,0.04693 0.15319,-0.07014 0.15319,-0.580548 0,-0.567922 0.0239,-0.639333 0.21423,-0.639333 0.19189,0 0.21423,0.07141 0.21423,0.684792 0,0.466645 -0.0448,0.701989 -0.14068,0.738777 -0.20063,0.07699 -0.75532,-0.04129 -0.8485,-0.180923 -0.0461,-0.06912 -0.0794,-0.02505 -0.0803,0.106478 -8.5e-4,0.123425 0.0948,0.311653 0.21259,0.418285 0.16276,0.147297 0.21423,0.329914 0.21423,0.76009 0,0.532627 -0.0971,0.767433 -0.25284,0.61165 z m -0.42555,-2.889213 c -0.12496,-0.124957 -0.0769,-0.439154 0.0762,-0.497895 0.16505,-0.06334 0.38795,0.115624 0.38795,0.31148 0,0.07028 -0.0762,0.157048 -0.16943,0.192808 -0.2098,0.08051 -0.20779,0.08055 -0.29473,-0.0064 z m 51.32923,5.34686 c 0.13779,-0.258899 0.14381,-7.391113 0.006,-7.647753 -0.0968,-0.180888 -0.2113,-0.194854 -1.20078,-0.146474 -0.60158,0.02941 -1.15402,0.05385 -1.22767,0.0543 -0.10075,6.43e-4 -0.13389,0.375021 -0.13389,1.512596 v 1.511778 l 0.29457,-0.05057 c 0.16201,-0.02781 0.39097,-0.08481 0.5088,-0.126672 0.13927,-0.04948 0.12052,-0.01862 -0.0536,0.08817 -0.14729,0.09035 -0.37625,0.165985 -0.5088,0.168072 l -0.24101,0.0038 v 2.34762 c 0,1.77787 0.0325,2.36073 0.13389,2.401646 0.0736,0.02972 0.62627,0.05783 1.22806,0.06248 0.93802,0.0073 1.10841,-0.01829 1.19393,-0.178995 z m -1.63046,-2.1363 c -0.16003,-0.160032 -0.0623,-1.024491 0.14573,-1.288953 0.2298,-0.292134 0.28151,-0.564808 0.10712,-0.564808 -0.0589,0 -0.10712,0.04258 -0.10712,0.09463 0,0.128801 -0.52632,0.221228 -0.59813,0.105038 -0.0316,-0.05112 0.0646,-0.139358 0.21379,-0.196077 0.15229,-0.0579 0.30066,-0.220303 0.3383,-0.370311 0.10846,-0.432103 0.30878,-0.533546 0.63349,-0.320789 0.24057,0.157629 0.59083,0.657298 0.59083,0.842865 0,0.166018 -0.22795,0.02274 -0.37498,-0.23569 l -0.16759,-0.294569 0.0498,0.321347 c 0.15533,1.001601 0.20746,1.190336 0.39443,1.428033 0.23786,0.302385 0.26103,0.446797 0.0715,0.445761 -0.16184,-8.57e-4 -0.61592,-0.643573 -0.61592,-0.871749 0,-0.240974 -0.12171,-0.319905 -0.28471,-0.184632 -0.0796,0.0661 -0.14375,0.325581 -0.14375,0.581886 0,0.441973 -0.10597,0.654895 -0.25285,0.50802 z m 0.14573,-3.020573 c 0,-0.203465 0.24454,-0.373912 0.36444,-0.254016 0.1537,0.153699 0.054,0.456787 -0.1502,0.456787 -0.13879,0 -0.21424,-0.07141 -0.21424,-0.202771 z m -6.40957,1.327486 c 0,-2.331015 -0.0393,-3.756367 -0.10422,-3.778001 -0.0573,-0.01911 -0.39295,0.232569 -0.74584,0.55928 -1.90402,1.762795 -1.91051,4.624267 -0.0146,6.43268 0.34932,0.333194 0.68677,0.588593 0.74988,0.567553 0.0787,-0.02623 0.11476,-1.215018 0.11476,-3.781512 z m -45.00596,0 v -1.553178 h -0.40704 c -0.22388,0 -0.46489,0.05784 -0.53558,0.128539 -0.1777,0.177695 -0.1777,2.671583 0,2.849278 0.0707,0.0707 0.3117,0.128539 0.53558,0.128539 h 0.40704 z m 54.28624,1.424639 c 0.0858,-0.08581 0.12853,-0.559382 0.12853,-1.424639 0,-0.865257 -0.0427,-1.338829 -0.12853,-1.424639 -0.0707,-0.0707 -0.31171,-0.128539 -0.53558,-0.128539 h -0.40704 v 1.553178 1.553178 h 0.40704 c 0.22387,0 0.46488,-0.05784 0.53558,-0.128539 z M 152.2999,24.408211 c 0.18397,-0.136822 0.43544,-0.452828 0.55884,-0.702234 0.30189,-0.61018 0.1852,-0.734721 -0.68843,-0.734721 -0.56204,0 -0.69852,0.03578 -0.79025,0.207189 -0.12041,0.224989 -0.15067,1.171238 -0.0462,1.443582 0.084,0.218978 0.51123,0.124422 0.966,-0.213816 z m 51.60518,0.214577 c 0.10475,-0.27297 0.0747,-1.219053 -0.0459,-1.444343 -0.0917,-0.171408 -0.22821,-0.207189 -0.79026,-0.207189 -0.91619,0 -1.04093,0.149435 -0.66302,0.794294 0.35234,0.601221 0.76175,0.905375 1.36525,1.014247 0.0379,0.0068 0.0981,-0.06382 0.13389,-0.157009 z m 8.47789,35.95302 c -0.0341,-0.0551 0.0919,-0.11535 0.28,-0.133895 0.18805,-0.01854 0.36239,-0.09607 0.38742,-0.172283 0.0327,-0.0996 -0.0303,-0.119538 -0.22411,-0.0709 -0.21244,0.05332 -0.3074,0.01 -0.44782,-0.204315 -0.30631,-0.467477 0.0448,-0.991481 0.57204,-0.853618 0.20306,0.0531 0.23155,0.13546 0.23155,0.66933 0,0.334828 -0.0578,0.666621 -0.12854,0.737317 -0.15251,0.152511 -0.58257,0.170701 -0.67054,0.02836 z m 0.67197,-0.9442 c 0.0299,-0.310336 0.004,-0.348126 -0.23897,-0.348126 -0.19968,0 -0.29009,0.06996 -0.33821,0.261701 -0.0857,0.341506 0.0259,0.508329 0.31271,0.467456 0.17362,-0.02474 0.23923,-0.119276 0.26447,-0.381031 z m -2.44367,-0.133895 v -0.74981 h 0.48835 c 0.29828,0 0.46257,0.04169 0.42214,0.107116 -0.0364,0.05891 -0.20797,0.107116 -0.38123,0.107116 -0.24018,0 -0.31502,0.04929 -0.31502,0.207444 0,0.153768 0.0901,0.218623 0.34812,0.250647 l 0.34813,0.0432 -0.34813,0.01714 c -0.32318,0.01592 -0.34812,0.04401 -0.34812,0.392048 0,0.206198 -0.0482,0.374905 -0.10712,0.374905 -0.0612,0 -0.10712,-0.321347 -0.10712,-0.74981 z m 1.21038,0.214232 c 0,-0.324026 0.0201,-0.456581 0.0446,-0.294569 0.0245,0.162013 0.0245,0.427124 0,0.589137 -0.0245,0.162012 -0.0446,0.02946 -0.0446,-0.294568 z m 1.80939,0.420429 c 0.0211,-0.06333 0.0842,-0.11515 0.14015,-0.11515 0.056,0 0.11903,0.05182 0.14014,0.11515 0.0211,0.06333 -0.0419,0.115149 -0.14014,0.115149 -0.0982,0 -0.16126,-0.05182 -0.14015,-0.115149 z m 1.61299,-5.36e-4 c 0.26468,-0.154162 0.27007,-1.062577 0.006,-1.062577 -0.15796,0 -0.15453,-0.02013 0.0268,-0.157267 0.33085,-0.250247 0.3686,-0.201786 0.3686,0.473292 0,0.494017 0.0422,0.661928 0.18745,0.746552 0.14724,0.08576 0.084,0.109181 -0.29457,0.109181 -0.37862,0 -0.44181,-0.02342 -0.29457,-0.109181 z m -3.45448,-1.276819 c 0,-0.05891 0.051,-0.107116 0.11343,-0.107116 0.0624,0 0.0837,0.0482 0.0472,0.107116 -0.0364,0.05891 -0.0875,0.107116 -0.11344,0.107116 -0.026,0 -0.0472,-0.0482 -0.0472,-0.107116 z m -36.41934,-37.70473 c -0.36929,-0.466267 -0.58564,-0.517471 -1.32222,-0.312942 -0.22645,0.06288 -0.43504,0.09101 -0.46355,0.0625 -0.0953,-0.09532 1.11673,-0.315003 1.37264,-0.248792 0.13885,0.03592 0.36996,0.239391 0.51358,0.452152 0.26801,0.397046 0.42202,0.429449 1.02426,0.215504 0.13927,-0.04948 0.12053,-0.01862 -0.0536,0.08817 -0.44248,0.271446 -0.70222,0.209227 -1.07115,-0.256594 z m 3.02602,0.354624 c 0.10309,-0.02694 0.2718,-0.02694 0.3749,0 0.1031,0.02694 0.0187,0.04899 -0.18745,0.04899 -0.2062,0 -0.29055,-0.02205 -0.18745,-0.04899 z m 0.82712,-0.152519 c 0.14562,-0.05811 0.30154,-0.163513 0.34648,-0.23422 0.0633,-0.09952 0.0821,-0.09916 0.0834,0.0016 0.002,0.145034 -0.33598,0.355592 -0.55367,0.345104 -0.0775,-0.0037 -0.0218,-0.05434 0.12383,-0.112451 z m -7.75334,-0.416934 c 0.0138,-0.466325 0.11902,-0.502324 0.17084,-0.05845 0.0259,0.222294 -0.002,0.3804 -0.068,0.380405 -0.0618,4e-6 -0.1081,-0.144874 -0.10286,-0.321952 z m 0.6427,0 c 0.0138,-0.466325 0.11901,-0.502324 0.17083,-0.05845 0.0259,0.222294 -0.002,0.3804 -0.068,0.380405 -0.0618,4e-6 -0.10809,-0.144874 -0.10285,-0.321952 z m 0.54807,0.247538 c -0.0283,-0.04745 -0.0449,-0.206772 -0.0368,-0.354057 0.0104,-0.189125 0.0761,-0.267789 0.22379,-0.267789 0.27585,0 0.31452,0.620964 0.0419,0.673747 -0.0976,0.0189 -0.20064,-0.0045 -0.22897,-0.0519 z m 0.35288,-0.139825 c 0,-0.05891 -0.0723,-0.107116 -0.16067,-0.107116 -0.0884,0 -0.16068,0.0482 -0.16068,0.107116 0,0.05891 0.0723,0.107116 0.16068,0.107116 0.0884,0 0.16067,-0.0482 0.16067,-0.107116 z m -0.0536,-0.321347 c 0.0364,-0.05891 -0.0118,-0.107116 -0.10711,-0.107116 -0.0953,0 -0.14353,0.0482 -0.10712,0.107116 0.0364,0.05891 0.0846,0.107115 0.10712,0.107115 0.0225,0 0.0707,-0.0482 0.10711,-0.107115 z m 6.31924,-6.43e-4 c -0.10696,-0.118188 -0.17469,-0.233973 -0.1505,-0.257298 0.0242,-0.02333 0.13058,0.07337 0.23643,0.214888 0.23376,0.312533 0.18175,0.338203 -0.0859,0.04241 z m -0.16008,-0.497861 c 0,-0.117536 0.26743,-0.376138 0.53557,-0.517892 0.0884,-0.04672 0.0643,0.0062 -0.0536,0.117602 -0.11783,0.111398 -0.27449,0.272007 -0.34813,0.356909 -0.0736,0.0849 -0.13389,0.104424 -0.13389,0.04338 z m 1.24136,-0.466134 c 0.0138,-0.466325 0.11901,-0.502325 0.17083,-0.05845 0.0259,0.222294 -0.002,0.3804 -0.068,0.380404 -0.0618,4e-6 -0.10809,-0.144874 -0.10285,-0.321951 z m 0.61656,0.126057 c 0.22854,-0.252537 0.22502,-0.418621 -0.0102,-0.480085 -0.14106,-0.03686 -0.1278,-0.05206 0.0536,-0.06141 0.17143,-0.0088 0.24101,0.0476 0.24101,0.195484 0,0.11435 -0.0571,0.243171 -0.12678,0.286268 -0.0872,0.05387 -0.062,0.103708 0.0803,0.159466 0.16982,0.0665 0.15107,0.08246 -0.10405,0.08864 -0.29478,0.0071 -0.30183,-0.0028 -0.13389,-0.188357 z m 0.53871,0.03875 c -0.0332,-0.08643 -0.0354,-0.218983 -0.005,-0.294569 0.0304,-0.07559 0.059,-0.02897 0.0637,0.103582 0.005,0.146445 0.076,0.241011 0.18059,0.241011 0.11971,0 0.1504,-0.05709 0.10077,-0.187453 -0.0544,-0.142927 -0.0416,-0.157866 0.0542,-0.06289 0.0691,0.06851 0.0932,0.176963 0.0536,0.241011 -0.10383,0.167998 -0.37715,0.143156 -0.4477,-0.04069 z m -14.3305,-0.593267 c 0.0138,-0.466325 0.11901,-0.502325 0.17083,-0.05845 0.0259,0.222294 -0.002,0.3804 -0.068,0.380404 -0.0618,4e-6 -0.1081,-0.144874 -0.10285,-0.321951 z m 0.67823,-0.07974 c 0.0535,-0.386173 0.0572,-0.389289 0.0953,-0.08068 0.0218,0.176549 0.0956,0.356569 0.16388,0.400044 0.0767,0.04881 0.0403,0.07967 -0.0953,0.08068 -0.19231,0.0014 -0.21261,-0.04812 -0.16389,-0.400044 z m 0.75994,0.329201 c -8.6e-4,-0.06932 -0.086,-0.148085 -0.1891,-0.175026 -0.17852,-0.04666 -0.17852,-0.04958 0,-0.06141 0.1031,-0.0068 0.18746,-0.06347 0.18746,-0.125863 0,-0.06239 -0.0482,-0.08365 -0.10712,-0.04724 -0.15871,0.09809 -0.12985,-0.0085 0.0406,-0.149933 0.11768,-0.09767 0.15797,-0.06906 0.19805,0.140633 0.0277,0.144782 0.0101,0.326609 -0.039,0.404059 -0.0604,0.0952 -0.0898,0.09999 -0.0909,0.01478 z m 13.04639,-0.214921 c 0.0773,-0.03094 0.16971,-0.02714 0.2053,0.0085 0.0356,0.03559 -0.0277,0.06091 -0.14058,0.05626 -0.12479,-0.0051 -0.15017,-0.03052 -0.0647,-0.06471 z m -12.03043,-0.238224 0.53557,-0.06351 -0.0132,-0.412823 c -0.009,-0.266887 0.0193,-0.361552 0.0787,-0.267789 0.13246,0.209045 0.11587,0.563517 -0.0334,0.712747 -0.0707,0.0707 -0.34786,0.120966 -0.61592,0.111711 l -0.48737,-0.01683 z m 15.68103,-0.107742 c 0.0874,-0.05535 0.12486,-0.187774 0.0904,-0.319601 -0.0324,-0.123799 -0.0204,-0.248852 0.0266,-0.277894 0.047,-0.02904 0.10509,0.115515 0.12911,0.32124 0.0374,0.320213 0.0121,0.37381 -0.17583,0.372406 -0.16841,-0.0013 -0.18476,-0.02364 -0.0702,-0.09615 z m 0.547,-0.0093 c 0,-0.134207 0.11367,-0.134207 0.32134,0 0.12993,0.08396 0.11456,0.104149 -0.0803,0.105476 -0.13256,9.02e-4 -0.24101,-0.04656 -0.24101,-0.105476 z m 0.96568,0.02678 c -9e-4,-0.07364 -0.0739,-0.133894 -0.16232,-0.133894 -0.21797,0 -0.20206,-0.143575 0.0402,-0.362823 0.19095,-0.172803 0.20339,-0.168669 0.25161,0.08359 0.0279,0.14596 0.0105,0.328752 -0.0386,0.406202 -0.0679,0.107012 -0.0897,0.108674 -0.0909,0.0069 z m -0.002,-0.348126 c 0,-0.05891 -0.0213,-0.107116 -0.0472,-0.107116 -0.026,0 -0.077,0.0482 -0.11344,0.107116 -0.0364,0.05891 -0.0152,0.107116 0.0472,0.107116 0.0624,0 0.11344,-0.0482 0.11344,-0.107116 z m -0.70328,0.02213 c 0.05,-0.157429 0.0156,-0.232936 -0.12242,-0.268778 -0.14986,-0.03893 -0.1391,-0.05257 0.0491,-0.06227 0.17142,-0.0088 0.24101,0.0476 0.24101,0.195485 0,0.11435 -0.0534,0.240892 -0.11859,0.281203 -0.0791,0.04889 -0.0955,4.28e-4 -0.0491,-0.14564 z m -2.25258,-0.263136 c -0.20232,-0.238958 -0.20223,-0.239533 0.0102,-0.06754 0.11783,0.09541 0.28654,0.200062 0.37491,0.232554 0.13637,0.05014 0.13483,0.06036 -0.0102,0.06753 -0.094,0.0046 -0.26267,-0.1 -0.3749,-0.232553 z M 170.0247,17.971404 c -0.0118,-0.257286 0.41053,-0.644462 0.81317,-0.745517 0.24718,-0.06204 0.24145,-0.07645 -0.23164,-0.58222 -0.6413,-0.685608 -0.62381,-0.774321 0.0237,-0.120187 0.27984,0.282701 0.6293,0.597247 0.77659,0.698991 0.2422,0.167313 0.24404,0.173716 0.0193,0.06701 -0.34524,-0.163916 -1.21728,0.264003 -1.31924,0.647365 -0.0645,0.242681 -0.0722,0.245921 -0.0819,0.03455 z m 4.56977,0.103919 c 0.13324,-0.02562 0.32605,-0.02465 0.42846,0.0022 0.10241,0.02681 -0.007,0.04777 -0.24226,0.04658 -0.23565,-0.0012 -0.31945,-0.02313 -0.1862,-0.04875 z m -1.07241,-0.102298 c 0.0736,-0.02971 0.19415,-0.02971 0.26779,0 0.0736,0.02972 0.0134,0.05403 -0.13389,0.05403 -0.14729,0 -0.20754,-0.02431 -0.1339,-0.05403 z m 10.26608,-0.228015 c 0.0786,-0.441487 -0.092,-0.660072 -0.53167,-0.681135 -0.31622,-0.01515 -0.31879,-0.01852 -0.0457,-0.06016 0.59925,-0.09138 0.87857,0.308774 0.61395,0.879578 -0.0749,0.161609 -0.0839,0.127643 -0.0366,-0.138282 z m -10.79496,0.118668 c 0.0773,-0.03094 0.16971,-0.02714 0.2053,0.0085 0.0356,0.03559 -0.0277,0.06091 -0.14059,0.05626 -0.12478,-0.0051 -0.15016,-0.03052 -0.0647,-0.06472 z m 5.91308,-0.328512 c 0.001,-0.126815 0.028,-0.145994 0.0831,-0.05929 0.0448,0.07049 0.39354,0.145554 0.77495,0.166813 l 0.69347,0.03865 -0.77659,0.02064 c -0.6766,0.01798 -0.77637,-0.0035 -0.77495,-0.166814 z m 2.36384,-0.172943 c 0.0245,-0.02148 0.16513,-0.09644 0.31242,-0.166582 0.2525,-0.120254 0.25592,-0.118024 0.0599,0.03905 -0.17063,0.136707 -0.51928,0.256143 -0.37228,0.127534 z m 8.66744,-0.259393 c 0,-0.05892 0.29799,-0.15962 0.6622,-0.223775 0.77152,-0.135901 0.94586,-0.257332 0.7539,-0.52511 -0.37164,-0.518431 -0.39091,-0.657344 -0.12971,-0.935373 0.13782,-0.146702 0.29688,-0.26673 0.35347,-0.26673 0.0566,0 -0.0241,0.0999 -0.17935,0.222006 -0.33837,0.26616 -0.35116,0.411284 -0.068,0.771264 0.39264,0.499162 0.28781,0.645441 -0.58914,0.822127 -0.23565,0.04748 -0.51282,0.121515 -0.61591,0.164523 -0.1057,0.04409 -0.18746,0.03148 -0.18746,-0.02893 z m -8.03368,-0.05124 c 0,-0.02361 0.20486,-0.205727 0.45525,-0.404708 0.25038,-0.198981 0.38722,-0.277102 0.30408,-0.173601 -0.1566,0.194948 -0.75933,0.653993 -0.75933,0.578309 z m 0.72973,-0.151951 c 0.0773,-0.03094 0.16971,-0.02714 0.20531,0.0085 0.0356,0.0356 -0.0277,0.06091 -0.14059,0.05626 -0.12479,-0.0051 -0.15017,-0.03052 -0.0647,-0.06472 z m -16.6353,-0.671608 c -0.0382,-0.173974 -0.16971,-0.443745 -0.29222,-0.59949 -0.20528,-0.260971 -0.26979,-0.278838 -0.82274,-0.227884 l -0.6,0.05529 0.56562,-0.114101 c 0.51996,-0.10489 0.58583,-0.09511 0.81602,0.121139 0.2657,0.249618 0.64473,1.081365 0.49278,1.081365 -0.0495,0 -0.12125,-0.142343 -0.15946,-0.316317 z m 17.01024,-0.424816 c 0.12721,-0.232249 0.24757,-0.405994 0.26747,-0.386101 0.0519,0.05185 -0.28032,0.673358 -0.39911,0.746779 -0.0548,0.03388 0.004,-0.128429 0.13164,-0.360678 z m -3.77942,0.104303 c -0.27771,-0.518912 -2.04447,-5.532874 -2.01599,-5.721274 0.0172,-0.11357 0.48896,1.05796 1.04843,2.6034 0.55947,1.545439 1.04711,2.858259 1.08365,2.917378 0.0542,0.08778 1.48977,-0.372826 2.90998,-0.933719 0.13625,-0.05381 0.17042,-0.140436 0.11974,-0.303618 -0.039,-0.125578 -0.11304,-0.244492 -0.16454,-0.264252 -0.0515,-0.01976 -0.0696,-0.0748 -0.0402,-0.122313 0.0984,-0.159262 -0.30703,-1.073536 -0.47684,-1.075231 -0.12115,-0.0012 -0.12945,-0.02381 -0.0316,-0.08597 0.19222,-0.122079 -1.2823,-4.1553935 -1.50433,-4.1148505 -0.22101,0.04036 -2.97836,1.072115 -3.04601,1.139771 -0.17814,0.1781405 -2.0496,5.5454165 -1.9907,5.7092735 0.0379,0.105593 0.0299,0.156585 -0.0178,0.113315 -0.0478,-0.04327 -0.14526,0.0013 -0.2167,0.09895 -0.11813,0.16156 -0.2789,0.123684 -1.778,-0.418884 -1.48035,-0.535787 -1.64892,-0.622182 -1.65597,-0.84876 -0.004,-0.13874 0.0249,-0.300456 0.065,-0.35937 0.0401,-0.05891 0.2076,-0.464795 0.37232,-0.901958 l 0.29949,-0.794843 -0.29011,-0.249536 c -0.15955,-0.137244 -0.24109,-0.249535 -0.18118,-0.249535 0.0599,0 0.19571,0.09317 0.30181,0.207047 0.18752,0.201286 0.21188,0.154351 0.87554,-1.687073 0.37546,-1.0417655 0.71547,-1.9310225 0.75557,-1.9761255 0.0401,-0.0451 0.82275,0.189079 1.73922,0.520406 l 1.66631,0.602413 1.64154,-0.601097 c 0.90285,-0.330604 1.6773,-0.564786 1.72099,-0.520406 0.0437,0.04438 0.41496,1.011749 0.82505,2.1497105 0.41008,1.13796 0.76251,2.085695 0.78319,2.106076 0.0866,0.0854 0.64863,-0.0907 0.69772,-0.218635 0.0294,-0.07653 -0.0519,-0.281564 -0.18057,-0.455619 -0.28032,-0.379152 -0.21961,-0.671669 0.19409,-0.935224 l 0.29039,-0.184999 -0.31268,0.334076 c -0.32701,0.349385 -0.31953,0.4648 0.0647,0.998597 0.15733,0.21858 -0.0437,0.517779 -0.34793,0.517779 -0.32861,0 -0.33476,0.177144 -0.0354,1.020282 0.16651,0.469056 0.24757,0.848382 0.19199,0.898438 -0.0529,0.04765 -0.74693,0.318476 -1.54226,0.601838 -0.79534,0.283362 -1.50295,0.5583 -1.57249,0.610974 -0.0836,0.06329 -0.16675,0.02042 -0.24534,-0.126428 z m -4.39147,-0.389758 c 0.0579,-0.152228 0.0805,-0.316818 0.0502,-0.365756 -0.0302,-0.04894 -0.0129,-0.105146 0.0385,-0.124906 0.0977,-0.03755 1.99052,-5.1172155 1.92625,-5.1695305 -0.0203,-0.01648 -0.71164,-0.273176 -1.53643,-0.570433 -1.00526,-0.362299 -1.52362,-0.501862 -1.57241,-0.423356 -0.04,0.06441 -0.37364,0.955363 -0.74135,1.9798905 -0.5577,1.553854 -0.64333,1.880703 -0.51635,1.970866 0.12347,0.08767 0.11829,0.09727 -0.0274,0.05079 -0.14379,-0.04587 -0.24595,0.12599 -0.51205,0.861418 -0.18284,0.505293 -0.31354,0.937614 -0.29044,0.960714 0.0539,0.05389 2.8829,1.09558 2.99319,1.102142 0.0456,0.0027 0.13034,-0.119612 0.18821,-0.27184 z m -1.22456,-1.951717 c -0.39526,-0.177565 -0.40784,-0.197616 -0.23336,-0.372096 0.1575,-0.157493 0.16267,-0.206168 0.0354,-0.333397 -0.10593,-0.105929 -0.20332,-0.118568 -0.33703,-0.04374 -0.10343,0.05788 -0.21008,0.08321 -0.23701,0.05628 -0.0269,-0.02693 0.0919,-0.10729 0.26398,-0.178583 0.24984,-0.103487 0.36599,-0.273779 0.57603,-0.844565 0.25711,-0.698676 0.27177,-0.71494 0.6444,-0.71494 0.20971,0 0.4163,-0.03446 0.45908,-0.07657 0.0633,-0.06234 0.40699,0.05304 0.56917,0.191092 0.0826,0.07029 -0.6726,1.891465 -0.80545,1.942446 -0.0784,0.03009 -0.14256,0.170054 -0.14256,0.311035 0,0.31103 -0.20445,0.327287 -0.79269,0.06303 z m 0.57845,-0.177436 c 0,-0.08608 0.0908,-0.242732 0.20169,-0.348126 0.23164,-0.220082 0.80774,-1.744803 0.65926,-1.744803 -0.0542,0 -0.1265,0.04532 -0.16074,0.100718 -0.0383,0.06202 -0.1869,0.05727 -0.38669,-0.01238 -0.17845,-0.06221 -0.35676,-0.08079 -0.39625,-0.0413 -0.0395,0.03949 -0.17941,0.368964 -0.31092,0.732163 -0.17958,0.49595 -0.20701,0.680359 -0.11018,0.740682 0.0998,0.0622 0.0982,0.12997 -0.007,0.300352 -0.11999,0.193593 -0.10712,0.231782 0.10712,0.317826 0.3451,0.138602 0.40417,0.132006 0.40417,-0.04513 z m -10.50034,1.864739 c -0.0647,-0.120915 -0.10256,-0.292673 -0.0841,-0.381685 0.0185,-0.08901 0.0866,0.0099 0.15147,0.219845 0.13254,0.429046 0.10765,0.488851 -0.0674,0.16184 z m 28.59441,-0.181839 c 0.0535,-0.386173 0.0572,-0.389289 0.0953,-0.08068 0.0218,0.176549 0.0956,0.356569 0.16388,0.400044 0.0767,0.04881 0.0403,0.07967 -0.0953,0.08068 -0.19231,0.0014 -0.21261,-0.04812 -0.16389,-0.400044 z m 0.63251,0.15377 c 0.28182,-0.299988 0.28867,-0.364498 0.0454,-0.428058 -0.169,-0.04416 -0.16962,-0.05021 -0.006,-0.06141 0.27257,-0.0187 0.34463,0.190162 0.14263,0.413376 -0.16805,0.185693 -0.16703,0.20123 0.0163,0.248614 0.12257,0.03168 0.0787,0.05518 -0.1177,0.06297 l -0.31324,0.01243 z m 0.55425,-0.126991 c 0,-0.303495 0.0408,-0.374905 0.21423,-0.374905 0.17343,0 0.21423,0.07141 0.21423,0.374905 0,0.303494 -0.0408,0.374905 -0.21423,0.374905 -0.17342,0 -0.21423,-0.07141 -0.21423,-0.374905 z m 0.32135,0.160673 c 0,-0.05891 -0.0482,-0.107115 -0.10712,-0.107115 -0.0589,0 -0.10711,0.0482 -0.10711,0.107115 0,0.05891 0.0482,0.107116 0.10711,0.107116 0.0589,0 0.10712,-0.0482 0.10712,-0.107116 z m 0,-0.321347 c 0,-0.05891 -0.0482,-0.107115 -0.10712,-0.107115 -0.0589,0 -0.10711,0.0482 -0.10711,0.107115 0,0.05891 0.0482,0.107116 0.10711,0.107116 0.0589,0 0.10712,-0.0482 0.10712,-0.107116 z m -23.98546,0.258863 c 0.005,-0.124783 0.0305,-0.150165 0.0647,-0.06471 0.0309,0.07732 0.0271,0.169711 -0.008,0.205305 -0.0356,0.03559 -0.0609,-0.02767 -0.0563,-0.14059 z m 13.59523,-0.355434 c 0,-0.111233 0.20376,-0.272259 0.26412,-0.208723 0.0196,0.02063 -0.0318,0.09966 -0.11425,0.175623 -0.0824,0.07597 -0.14987,0.09086 -0.14987,0.0331 z m -21.32744,-0.75103 c 0.0874,-0.05535 0.12487,-0.187774 0.0904,-0.319601 -0.0324,-0.123799 -0.0204,-0.248851 0.0266,-0.277894 0.047,-0.02904 0.10509,0.115515 0.12911,0.321241 0.0374,0.320213 0.0121,0.373809 -0.17583,0.372405 -0.16841,-0.0013 -0.18476,-0.02364 -0.0703,-0.09615 z m 0.64269,0 c 0.0874,-0.05535 0.12487,-0.187774 0.0904,-0.319601 -0.0324,-0.123799 -0.0204,-0.248851 0.0266,-0.277894 0.047,-0.02904 0.10509,0.115515 0.1291,0.321241 0.0374,0.320213 0.0121,0.373809 -0.17583,0.372405 -0.16841,-0.0013 -0.18476,-0.02364 -0.0702,-0.09615 z m 0.58709,-0.05935 c -0.0332,-0.08643 -0.0354,-0.218982 -0.005,-0.294568 0.0304,-0.07559 0.059,-0.02897 0.0637,0.103582 0.005,0.146444 0.076,0.241011 0.18059,0.241011 0.11971,0 0.1504,-0.05709 0.10077,-0.187453 -0.0544,-0.142928 -0.0416,-0.157866 0.0542,-0.06289 0.0691,0.06851 0.0932,0.176963 0.0536,0.24101 -0.10383,0.167998 -0.37715,0.143156 -0.4477,-0.04069 z m 16.45573,-0.539112 c 0,-0.150986 -0.0557,-0.256109 -0.12781,-0.24101 -0.13121,0.02749 -0.57737,-0.955103 -0.69048,-1.520697 -0.0552,-0.27578 -0.0271,-0.32586 0.21679,-0.387076 0.1711,-0.04294 0.28015,-0.144665 0.28015,-0.26132 0,-0.179903 0.48971,-0.402929 0.61331,-0.27932 0.14545,0.145443 0.65167,1.887432 0.6028,2.074314 -0.0311,0.118814 -0.004,0.248412 0.0599,0.287995 0.21034,0.129995 0.12279,0.247759 -0.31418,0.422599 -0.57306,0.229291 -0.64053,0.219233 -0.64053,-0.09549 z m 0.70814,-0.494291 c 0.0127,-0.388804 -0.49423,-2.022187 -0.6278,-2.02265 -0.0442,-1.5e-4 -0.0803,0.07621 -0.0803,0.1697 0,0.09349 -0.14461,0.224561 -0.32135,0.291273 -0.38254,0.144394 -0.38317,0.150554 -0.0963,0.937374 0.14458,0.396533 0.29779,0.636272 0.42846,0.670442 0.11681,0.03055 0.2034,0.147195 0.2034,0.273999 0,0.183992 0.0402,0.205942 0.24101,0.131652 0.18088,-0.06691 0.24398,-0.179639 0.2529,-0.45179 z m -17.00981,0.474677 c 0.0773,-0.03094 0.16971,-0.02714 0.2053,0.0085 0.0356,0.03559 -0.0277,0.06091 -0.14059,0.05626 -0.12478,-0.0051 -0.15016,-0.03052 -0.0647,-0.06472 z m 4.72469,-1.185438 c 0.0535,-0.386172 0.0572,-0.389288 0.0953,-0.08068 0.0218,0.176549 0.0956,0.356569 0.16389,0.400043 0.0767,0.04881 0.0403,0.07967 -0.0953,0.08069 -0.19231,0.0014 -0.21261,-0.04812 -0.16389,-0.400044 z m 0.63976,0.303893 c 0.0874,-0.05535 0.12487,-0.187774 0.0904,-0.319601 -0.0324,-0.123799 -0.0204,-0.248851 0.0266,-0.277894 0.047,-0.02904 0.10509,0.115515 0.12911,0.321241 0.0374,0.320213 0.0121,0.373809 -0.17583,0.372405 -0.16841,-0.0013 -0.18476,-0.02364 -0.0703,-0.09615 z m 0.547,-0.0093 c 0,-0.134208 0.11367,-0.134208 0.32134,0 0.12993,0.08396 0.11456,0.104149 -0.0803,0.105475 -0.13256,9.02e-4 -0.24101,-0.04656 -0.24101,-0.105475 z m 0.26076,-0.299222 c 0.05,-0.157428 0.0156,-0.232936 -0.12242,-0.268777 -0.14986,-0.03892 -0.1391,-0.05257 0.0491,-0.06227 0.17142,-0.0088 0.24101,0.0476 0.24101,0.195484 0,0.114351 -0.0534,0.240892 -0.11859,0.281203 -0.0791,0.04889 -0.0954,3.86e-4 -0.0491,-0.14564 z m 0.70328,-0.02212 c 0.0884,-0.05711 0.23297,-0.101186 0.32135,-0.09795 0.10594,0.0039 0.0877,0.03725 -0.0536,0.09795 -0.29447,0.126538 -0.4636,0.126538 -0.26779,0 z m 16.56917,-0.09172 c -0.18144,-0.07153 -0.17841,-0.09074 0.0452,-0.28704 0.1318,-0.115708 0.20653,-0.153572 0.16607,-0.08414 -0.0453,0.07781 0.0195,0.144124 0.16904,0.172865 0.23059,0.04432 0.22934,0.04743 -0.0252,0.06286 -0.21421,0.01298 -0.23564,0.037 -0.10712,0.120063 0.1847,0.119358 0.0387,0.128424 -0.24799,0.0154 z m -15.95326,-0.08634 c 0.0737,-0.02971 0.19415,-0.02971 0.26779,0 0.0736,0.02972 0.0134,0.05403 -0.13389,0.05403 -0.14729,0 -0.20754,-0.02431 -0.1339,-0.05403 z m 16.71675,-0.216463 c 0.0773,-0.03094 0.16971,-0.02714 0.2053,0.0085 0.0356,0.03559 -0.0277,0.06091 -0.14059,0.05626 -0.12478,-0.0051 -0.15016,-0.03052 -0.0647,-0.06472 z m 0.53558,-0.107116 c 0.0773,-0.03094 0.16971,-0.02714 0.2053,0.0085 0.0356,0.03559 -0.0277,0.06091 -0.14059,0.05626 -0.12478,-0.0051 -0.15016,-0.03052 -0.0647,-0.06472 z m 0.53558,-0.107115 c 0.0773,-0.03094 0.16971,-0.02714 0.2053,0.0085 0.0356,0.03559 -0.0277,0.06091 -0.14059,0.05626 -0.12478,-0.0051 -0.15016,-0.03052 -0.0647,-0.06472 z m 0.53557,-0.107116 c 0.0773,-0.03094 0.16972,-0.02714 0.20531,0.0085 0.0356,0.03559 -0.0277,0.06091 -0.14059,0.05626 -0.12478,-0.0051 -0.15017,-0.03052 -0.0647,-0.06472 z m -5.66553,-0.435627 c 0.0535,-0.386173 0.0572,-0.389289 0.0953,-0.08069 0.0218,0.176549 0.0956,0.356569 0.16389,0.400043 0.0767,0.04881 0.0403,0.07967 -0.0953,0.08068 -0.19231,0.0014 -0.21261,-0.04812 -0.16389,-0.400043 z m 0.63251,0.153769 c 0.28182,-0.299987 0.28867,-0.364497 0.0454,-0.428058 -0.169,-0.04416 -0.16962,-0.05021 -0.006,-0.06141 0.27257,-0.0187 0.34463,0.190162 0.14262,0.413376 -0.16804,0.185693 -0.16703,0.201229 0.0163,0.248614 0.12257,0.03168 0.0787,0.05518 -0.1177,0.06297 l -0.31325,0.01243 z m 0.64269,0 c 0.28183,-0.299987 0.28868,-0.364497 0.0454,-0.428058 -0.16899,-0.04416 -0.16962,-0.05021 -0.006,-0.06141 0.27257,-0.0187 0.34464,0.190162 0.14263,0.413376 -0.16805,0.185693 -0.16703,0.201229 0.0163,0.248614 0.12258,0.03168 0.0787,0.05518 -0.1177,0.06297 l -0.31324,0.01243 z m 4.92591,0.174742 c 0.0773,-0.03094 0.16971,-0.02714 0.20531,0.0085 0.0356,0.03559 -0.0277,0.06091 -0.14059,0.05626 -0.12479,-0.0051 -0.15017,-0.03052 -0.0647,-0.06471 z m 0.53558,-0.107115 c 0.0773,-0.03094 0.16971,-0.02714 0.20531,0.0085 0.0356,0.03559 -0.0277,0.06091 -0.14059,0.05626 -0.12479,-0.0051 -0.15017,-0.03052 -0.0647,-0.06472 z m 1.18987,-0.328512 c 0.0535,-0.386173 0.0571,-0.389289 0.0953,-0.08068 0.0218,0.176549 0.0956,0.356569 0.16388,0.400044 0.0767,0.04881 0.0403,0.07967 -0.0953,0.08068 -0.19231,0.0014 -0.21261,-0.04812 -0.16389,-0.400044 z m 0.6427,0 c 0.0535,-0.386173 0.0571,-0.389289 0.0953,-0.08068 0.0218,0.176549 0.0956,0.356569 0.16389,0.400044 0.0767,0.04881 0.0403,0.07967 -0.0953,0.08068 -0.19231,0.0014 -0.21262,-0.04812 -0.16389,-0.400044 z m 0.5852,0.247267 c -0.0943,-0.245825 0.001,-0.541835 0.17456,-0.541835 0.10132,0 0.17141,0.126572 0.19277,0.348126 0.0252,0.261259 -0.009,0.348126 -0.13726,0.348126 -0.094,0 -0.19748,-0.06949 -0.23007,-0.154417 z m 0.28021,-0.220488 c 0,-0.147284 -0.0482,-0.267789 -0.10712,-0.267789 -0.0589,0 -0.10711,0.120505 -0.10711,0.267789 0,0.147284 0.0482,0.267789 0.10711,0.267789 0.0589,0 0.10712,-0.120505 0.10712,-0.267789 z"
       id="path2099" /></g></svg>
