<?xml version="1.0" encoding="UTF-8" standalone="no"?>
<!-- Created with Inkscape (http://www.inkscape.org/) -->

<svg
   width="225mm"
   height="90mm"
   viewBox="0 0 225 90"
   version="1.1"
   style="background-color: #000000;"
   id="svg1"
   inkscape:version="1.2.2 (b0a8486541, 2022-12-01)"
   sodipodi:docname="mug_10_Max_la_Cour_Christensen.svg"
   xml:space="preserve"
   xmlns:inkscape="http://www.inkscape.org/namespaces/inkscape"
   xmlns:sodipodi="http://sodipodi.sourceforge.net/DTD/sodipodi-0.dtd"
   xmlns="http://www.w3.org/2000/svg"
   xmlns:svg="http://www.w3.org/2000/svg"><sodipodi:namedview
     id="namedview1"
     pagecolor="#ffffff"
     bordercolor="#000000"
     borderopacity="0.25"
     inkscape:showpageshadow="2"
     inkscape:pageopacity="0.0"
     inkscape:pagecheckerboard="0"
     inkscape:deskcolor="#d1d1d1"
     inkscape:document-units="mm"
     inkscape:zoom="2.0059484"
     inkscape:cx="549.36608"
     inkscape:cy="205.13987"
     inkscape:window-width="1854"
     inkscape:window-height="1131"
     inkscape:window-x="66"
     inkscape:window-y="32"
     inkscape:window-maximized="1"
     inkscape:current-layer="layer1"
     showgrid="false" /><defs
     id="defs1" /><g
     inkscape:label="Layer 1"
     inkscape:groupmode="layer"
     id="layer1">[[[BACKGROUND]]][[[BACKGROUND]]]<text
   xml:space="preserve"
   style="font-style:normal;font-variant:normal;font-weight:normal;font-stretch:normal;font-size:6.35px;font-family:'Noto Looped Lao';-inkscape-font-specification:'Noto Looped Lao';text-align:center;writing-mode:lr-tb;direction:ltr;text-anchor:middle;fill:#000000;fill-opacity:1;stroke-width:0.264583"
   x="51.913441"
   y="13.795106"
   id="text1"><tspan
     sodipodi:role="line"
     id="tspan1"
     style="font-style:normal;font-variant:normal;font-weight:normal;font-stretch:normal;font-size:6.35px;font-family:FreeSerif;-inkscape-font-specification:FreeSerif;fill:#000000;fill-opacity:1;stroke-width:0.264583"
     x="51.913441"
     y="13.795106">Think BIG</tspan><tspan
     sodipodi:role="line"
     style="font-style:normal;font-variant:normal;font-weight:normal;font-stretch:normal;font-size:6.35px;font-family:FreeSerif;-inkscape-font-specification:FreeSerif;fill:#000000;fill-opacity:1;stroke-width:0.264583"
     x="51.913441"
     y="21.851667"
     id="tspan2">Take CHANCES</tspan><tspan
     sodipodi:role="line"
     style="font-style:normal;font-variant:normal;font-weight:normal;font-stretch:normal;font-size:6.35px;font-family:FreeSerif;-inkscape-font-specification:FreeSerif;fill:#000000;fill-opacity:1;stroke-width:0.264583"
     x="51.913441"
     y="29.90823"
     id="tspan13">Test against REALITY</tspan><tspan
     sodipodi:role="line"
     style="font-style:normal;font-variant:normal;font-weight:normal;font-stretch:normal;font-size:6.35px;font-family:FreeSerif;-inkscape-font-specification:FreeSerif;fill:#000000;fill-opacity:1;stroke-width:0.264583"
     x="51.913441"
     y="37.964794"
     id="tspan5">Fail FAST</tspan><tspan
     sodipodi:role="line"
     style="font-style:normal;font-variant:normal;font-weight:normal;font-stretch:normal;font-size:6.35px;font-family:FreeSerif;-inkscape-font-specification:FreeSerif;fill:#000000;fill-opacity:1;stroke-width:0.264583"
     x="51.913441"
     y="46.021355"
     id="tspan23">Try AGAIN</tspan><tspan
     sodipodi:role="line"
     style="font-style:normal;font-variant:normal;font-weight:normal;font-stretch:normal;font-size:6.35px;font-family:FreeSerif;-inkscape-font-specification:FreeSerif;fill:#000000;fill-opacity:1;stroke-width:0.264583"
     x="51.913441"
     y="54.077919"
     id="tspan3">Do it RIGHT</tspan><tspan
     sodipodi:role="line"
     style="font-style:normal;font-variant:normal;font-weight:normal;font-stretch:normal;font-size:6.35px;font-family:FreeSerif;-inkscape-font-specification:FreeSerif;fill:#000000;fill-opacity:1;stroke-width:0.264583"
     x="51.913441"
     y="62.13448"
     id="tspan24">Disrupt EVERYTHING</tspan><tspan
     sodipodi:role="line"
     style="font-style:normal;font-variant:normal;font-weight:normal;font-stretch:normal;font-size:6.35px;font-family:FreeSerif;-inkscape-font-specification:FreeSerif;fill:#000000;fill-opacity:1;stroke-width:0.264583"
     x="51.913441"
     y="70.19104"
     id="tspan12" /><tspan
     sodipodi:role="line"
     style="font-style:normal;font-variant:normal;font-weight:normal;font-stretch:normal;font-size:6.35px;font-family:FreeSerif;-inkscape-font-specification:FreeSerif;fill:#000000;fill-opacity:1;stroke-width:0.264583"
     x="51.913441"
     y="78.12854"
     id="tspan22" /></text><text
   xml:space="preserve"
   style="font-size:7.05556px;font-family:'Abyssinica SIL';-inkscape-font-specification:'Abyssinica SIL';text-align:center;writing-mode:lr-tb;direction:ltr;text-anchor:middle;fill:#000000;fill-opacity:1;stroke-width:0.264583"
   x="177.96748"
   y="83.575027"
   id="text6"><tspan
     sodipodi:role="line"
     id="tspan6"
     style="font-style:normal;font-variant:normal;font-weight:normal;font-stretch:normal;font-family:FreeSerif;-inkscape-font-specification:FreeSerif;text-align:center;text-anchor:middle;fill:#000000;fill-opacity:1;stroke-width:0.264583"
     x="177.96748"
     y="83.575027">Max la Cour Christensen</tspan></text><text
   xml:space="preserve"
   style="font-size:3.175px;font-family:'Abyssinica SIL';-inkscape-font-specification:'Abyssinica SIL';text-align:center;writing-mode:lr-tb;direction:ltr;text-anchor:middle;fill:#000000;fill-opacity:1;stroke-width:0.264583"
   x="15.705943"
   y="-121.59789"
   id="text7"
   transform="rotate(90)"><tspan
     sodipodi:role="line"
     style="font-style:normal;font-variant:normal;font-weight:normal;font-stretch:normal;font-size:3.175px;font-family:FreeSerif;-inkscape-font-specification:FreeSerif;text-align:start;text-anchor:start;fill:#000000;fill-opacity:1;stroke-width:0.264583"
     x="15.705943"
     y="-121.59789"
     id="tspan11">multiply by -1 for no reason</tspan><tspan
     sodipodi:role="line"
     style="font-style:normal;font-variant:normal;font-weight:normal;font-stretch:normal;font-size:3.175px;font-family:FreeSerif;-inkscape-font-specification:FreeSerif;text-align:start;text-anchor:start;fill:#000000;fill-opacity:1;stroke-width:0.264583"
     x="15.705943"
     y="-117.58112"
     id="tspan8">invert matrices without reason</tspan><tspan
     sodipodi:role="line"
     style="font-style:normal;font-variant:normal;font-weight:normal;font-stretch:normal;font-size:3.175px;font-family:FreeSerif;-inkscape-font-specification:FreeSerif;text-align:start;text-anchor:start;fill:#000000;fill-opacity:1;stroke-width:0.264583"
     x="15.705943"
     y="-113.56435"
     id="tspan9">use the words røvlogik or Titanic</tspan><tspan
     sodipodi:role="line"
     style="font-style:normal;font-variant:normal;font-weight:normal;font-stretch:normal;font-size:3.175px;font-family:FreeSerif;-inkscape-font-specification:FreeSerif;text-align:start;text-anchor:start;fill:#000000;fill-opacity:1;stroke-width:0.264583"
     x="15.705943"
     y="-109.54758"
     id="tspan33">accept the mediocre</tspan><tspan
     sodipodi:role="line"
     style="font-style:normal;font-variant:normal;font-weight:normal;font-stretch:normal;font-size:3.175px;font-family:FreeSerif;-inkscape-font-specification:FreeSerif;text-align:start;text-anchor:start;fill:#000000;fill-opacity:1;stroke-width:0.264583"
     x="15.705943"
     y="-105.53081"
     id="tspan36">be afraid of complexity nor simplicity</tspan><tspan
     sodipodi:role="line"
     style="font-style:normal;font-variant:normal;font-weight:normal;font-stretch:normal;font-size:3.175px;font-family:FreeSerif;-inkscape-font-specification:FreeSerif;text-align:start;text-anchor:start;fill:#000000;fill-opacity:1;stroke-width:0.264583"
     x="15.705943"
     y="-101.51404"
     id="tspan15">purspone it </tspan><tspan
     sodipodi:role="line"
     style="font-style:normal;font-variant:normal;font-weight:normal;font-stretch:normal;font-size:3.175px;font-family:FreeSerif;-inkscape-font-specification:FreeSerif;text-align:start;text-anchor:start;fill:#000000;fill-opacity:1;stroke-width:0.264583"
     x="15.705943"
     y="-97.545288"
     id="tspan10" /></text><text
   xml:space="preserve"
   style="font-size:7.05556px;font-family:'Abyssinica SIL';-inkscape-font-specification:'Abyssinica SIL';text-align:center;writing-mode:lr-tb;direction:ltr;text-anchor:middle;fill:#000000;fill-opacity:1;stroke-width:0.264583"
   x="112.20755"
   y="10.999269"
   id="text29"><tspan
     sodipodi:role="line"
     style="font-style:normal;font-variant:normal;font-weight:normal;font-stretch:normal;font-family:FreeSerif;-inkscape-font-specification:FreeSerif;fill:#000000;fill-opacity:1;stroke-width:0.264583"
     x="112.20755"
     y="10.999269"
     id="tspan29">don't</tspan></text><text
   xml:space="preserve"
   style="font-size:3.175px;font-family:'Abyssinica SIL';-inkscape-font-specification:'Abyssinica SIL';text-align:start;writing-mode:lr-tb;direction:ltr;text-anchor:start;fill:#000000;fill-opacity:1;stroke-width:0.264583"
   x="112.33543"
   y="80.293289"
   id="text34"><tspan
     sodipodi:role="line"
     id="tspan34"
     style="font-style:normal;font-variant:normal;font-weight:normal;font-stretch:normal;font-family:FreeSerif;-inkscape-font-specification:FreeSerif;text-align:center;text-anchor:middle;fill:#000000;fill-opacity:1;stroke-width:0.264583"
     x="112.33543"
     y="80.293289">Veo Labs</tspan><tspan
     sodipodi:role="line"
     style="font-style:normal;font-variant:normal;font-weight:normal;font-stretch:normal;font-family:FreeSerif;-inkscape-font-specification:FreeSerif;text-align:center;text-anchor:middle;fill:#000000;fill-opacity:1;stroke-width:0.264583"
     x="112.33543"
     y="84.310059"
     id="tspan35">2025</tspan></text><path
   style="fill:#000000;fill-opacity:1;stroke-width:0.135774"
   d="m 177.1039,74.020001 c -0.27354,-0.27355 -0.0267,-0.430312 0.27866,-0.176926 0.19768,0.164056 0.47658,0.08307 0.47658,-0.138379 0,-0.06792 -0.0939,-0.08745 -0.20871,-0.04337 -0.30629,0.117536 -0.7417,-0.343517 -0.7417,-0.785393 0,-0.477962 0.4602,-0.806653 0.98437,-0.70308 0.35603,0.07032 0.37336,0.110437 0.37336,0.862896 0,0.839333 -0.21022,1.215832 -0.67887,1.215832 -0.13868,0 -0.35634,-0.104201 -0.48369,-0.231542 z m 0.73031,-1.091092 c -0.0258,-0.2245 -0.13727,-0.390102 -0.28056,-0.417275 -0.18451,-0.03496 -0.2376,0.04817 -0.2376,0.372213 0,0.331234 0.0578,0.417276 0.28056,0.417276 0.2258,0 0.27219,-0.07264 0.2376,-0.372214 z m -2.98928,0.541937 c -0.0512,-0.207017 -0.0477,-0.726785 0.0117,-1.561405 0.0141,-0.192392 0.14577,-0.237606 0.69547,-0.237606 0.3734,0 0.67887,0.06109 0.67887,0.135768 0,0.07467 -0.24437,0.135783 -0.54308,0.135783 -0.45259,0 -0.5431,0.04526 -0.5431,0.271545 0,0.219827 0.0905,0.271547 0.47521,0.271547 0.26136,0 0.47521,0.06108 0.47521,0.135768 0,0.07466 -0.21385,0.135768 -0.47521,0.135768 -0.45258,0 -0.47521,0.02267 -0.47521,0.475209 0,0.494643 -0.19636,0.650835 -0.29873,0.237612 z m 1.61123,0.147081 c -0.0497,-0.04976 -0.0905,-0.385819 -0.0905,-0.746754 0,-0.492805 0.0506,-0.65624 0.20365,-0.65624 0.15635,0 0.20367,0.17349 0.20367,0.746756 0,0.691801 -0.0915,0.881476 -0.31681,0.656238 z m 2.08186,-0.113144 c 0,-0.112019 0.0917,-0.203664 0.20365,-0.203664 0.11205,0 0.20366,0.09165 0.20366,0.203664 0,0.112018 -0.0917,0.203661 -0.20366,0.203661 -0.11205,0 -0.20365,-0.09166 -0.20365,-0.203661 z m 2.0366,-0.489739 c 0,-0.539084 -0.0424,-0.677136 -0.19039,-0.620338 -0.33447,0.128357 -0.36474,-0.08158 -0.0588,-0.40731 0.16305,-0.173558 0.3469,-0.315566 0.40856,-0.315566 0.0616,0 0.11217,0.458242 0.11217,1.018307 0,0.58835 -0.0573,1.018307 -0.13573,1.018307 -0.0747,0 -0.13572,-0.312029 -0.13572,-0.6934 z m 1.02801,0.480035 c -0.55841,-0.558407 0.0862,-1.609268 0.771,-1.257029 0.25308,0.130167 0.32942,0.51997 0.10185,0.51997 -0.0747,0 -0.13573,-0.06108 -0.13573,-0.135768 0,-0.07468 -0.12225,-0.135768 -0.27155,-0.135768 -0.21,0 -0.27155,0.09051 -0.27155,0.39931 0,0.498719 0.25372,0.67332 0.49632,0.341545 0.12942,-0.176918 0.22608,-0.208532 0.32756,-0.107049 0.10151,0.101469 0.0784,0.209569 -0.0781,0.366075 -0.28053,0.280537 -0.66438,0.2841 -0.93974,0.0087 z m -5.15017,-1.51013 c -0.15291,-0.152914 -0.0931,-0.313119 0.11675,-0.313119 0.11205,0 0.20365,0.05748 0.20365,0.127767 0,0.171208 -0.21202,0.293827 -0.32049,0.185354 z M 201.0765,63.43734 v -0.726583 h 0.47518 c 0.26138,0 0.47522,0.06108 0.47522,0.135768 0,0.07467 -0.15274,0.135768 -0.33943,0.135768 -0.18669,0 -0.33944,0.06108 -0.33944,0.135768 0,0.07467 0.15275,0.135768 0.33944,0.135768 0.18669,0 0.33943,0.06109 0.33943,0.135768 0,0.07468 -0.15783,0.13577 -0.35074,0.13577 -0.51281,0 -0.33266,0.327519 0.19476,0.354047 0.53208,0.02679 0.79204,-0.333958 0.55708,-0.772997 -0.19046,-0.355871 -0.0304,-0.543466 0.19774,-0.231609 0.15722,0.215032 0.18527,0.215595 0.39298,0.0079 0.31371,-0.313689 0.46376,-0.09778 0.16302,0.234536 -0.23816,0.263156 -0.23816,0.281609 0,0.544756 0.31444,0.347451 0.15417,0.527341 -0.19129,0.21471 -0.23815,-0.21552 -0.27048,-0.21678 -0.38341,-0.015 -0.0833,0.149115 -0.35081,0.233596 -0.82694,0.261288 l -0.7036,0.04089 z m -47.11357,-0.115594 v -0.74676 h 0.46721 c 0.25695,0 0.50494,0.06108 0.55109,0.135782 0.049,0.0792 -0.0891,0.135768 -0.3314,0.135768 -0.27869,0 -0.41534,0.06701 -0.41534,0.203655 0,0.12673 0.12829,0.203664 0.33943,0.203664 0.18668,0 0.33943,0.05568 0.33943,0.123824 0,0.06815 -0.15275,0.10705 -0.33943,0.08656 -0.2142,-0.02348 -0.33943,0.03099 -0.33943,0.147727 0,0.115043 0.15404,0.184992 0.40732,0.184992 0.22402,0 0.40732,0.06108 0.40732,0.135769 0,0.07467 -0.2444,0.135768 -0.54311,0.135768 h -0.54309 z m 1.22197,0 c 0,-0.410716 0.0552,-0.74676 0.12239,-0.74676 0.0674,0 0.2496,0.198573 0.40502,0.441267 0.15544,0.242698 0.29126,0.395439 0.30186,0.339435 0.0117,-0.05598 0.0346,-0.16293 0.0532,-0.237603 0.0186,-0.07468 0.0415,-0.218612 0.0509,-0.319858 0.0127,-0.138253 0.30157,-0.186239 1.16005,-0.192715 1.2996,-0.0098 1.75206,0.176738 1.48642,0.612849 -0.11581,0.190066 -0.11346,0.307949 0.009,0.476284 0.14097,0.192803 0.19723,0.130111 0.40728,-0.454025 0.13404,-0.372748 0.30593,-0.656976 0.38202,-0.631618 0.17783,0.05929 0.68112,1.332566 0.57047,1.443216 -0.0461,0.04608 -0.16186,-0.02311 -0.25732,-0.153649 -0.21252,-0.290635 -0.61886,-0.312788 -0.61886,-0.0337 0,0.301891 -0.5838,0.251283 -0.78314,-0.06792 -0.0933,-0.149357 -0.22303,-0.271554 -0.28837,-0.271554 -0.0654,0 -0.15074,0.122195 -0.18981,0.271554 -0.13151,0.502936 -0.36797,0.28482 -0.36797,-0.339437 0,-0.452585 -0.0528,-0.610982 -0.20366,-0.610982 -0.1514,0 -0.20366,0.15966 -0.20366,0.622297 0,0.806091 -0.32174,0.751979 -0.3816,-0.06416 -0.0322,-0.439984 -0.0929,-0.564935 -0.25829,-0.532547 -0.14657,0.02866 -0.22275,0.204924 -0.23663,0.547399 -0.0186,0.459659 -0.14527,0.77972 -0.2523,0.637681 -0.0234,-0.03114 -0.17619,-0.232832 -0.33943,-0.448261 l -0.2968,-0.391687 v 0.425635 c 0,0.234092 -0.0611,0.425628 -0.13573,0.425628 -0.0747,0 -0.13573,-0.336043 -0.13573,-0.746753 z m 4.48054,-0.0679 c 0,-0.07468 -0.027,-0.135769 -0.0599,-0.135769 -0.0329,0 -0.0976,0.06108 -0.14378,0.135769 -0.0462,0.07468 -0.0192,0.135768 0.0599,0.135768 0.079,0 0.14379,-0.06108 0.14379,-0.135768 z m -1.18086,-0.201803 c 0.0148,-0.07362 -0.0802,-0.154503 -0.21083,-0.179672 -0.14862,-0.02859 -0.2376,0.03796 -0.2376,0.177811 0,0.236224 0.40127,0.237884 0.44843,0.0015 z m 1.85973,0.277708 c 0,-0.415124 0.0479,-0.754776 0.10655,-0.754776 0.0586,0 0.2266,0.198574 0.37338,0.441266 l 0.26687,0.441268 0.0426,-0.441268 c 0.0704,-0.729779 0.29689,-0.496692 0.29689,0.305495 0,0.410709 -0.056,0.746755 -0.12449,0.746755 -0.0684,0 -0.2498,-0.168019 -0.40301,-0.373378 -0.26435,-0.354301 -0.2788,-0.358181 -0.28288,-0.07591 -0.002,0.163613 -0.0654,0.335241 -0.14008,0.381391 -0.0844,0.05208 -0.13573,-0.202245 -0.13573,-0.67085 z m 1.33116,0.395192 c -0.31564,-0.692754 0.5153,-1.502619 0.97429,-0.949577 0.0974,0.117423 0.12954,0.257842 0.0713,0.312044 -0.0582,0.05418 -0.13306,0.02214 -0.16645,-0.07113 -0.0914,-0.255855 -0.41754,-0.203745 -0.57583,0.09199 -0.28339,0.529554 0.22976,0.933286 0.65965,0.518988 0.14242,-0.137256 0.16688,-0.117789 0.12786,0.101834 -0.0343,0.193998 -0.17366,0.283679 -0.48742,0.314019 -0.364,0.03519 -0.4673,-0.01928 -0.60348,-0.318132 z m 1.34055,0.241715 c -0.0328,-0.05598 -0.0499,-0.376769 -0.0377,-0.712812 0.0212,-0.588515 0.0388,-0.612596 0.47637,-0.654814 0.2499,-0.02409 0.51992,0.02168 0.60003,0.101833 0.10374,0.103697 0.0205,0.145664 -0.2888,0.145664 -0.29569,0 -0.43448,0.06505 -0.43448,0.203655 0,0.12673 0.12829,0.203664 0.33943,0.203664 0.18668,0 0.33942,0.05702 0.33942,0.126785 0,0.06972 -0.15274,0.09908 -0.33942,0.06522 -0.24015,-0.04352 -0.33943,-0.0015 -0.33943,0.144763 0,0.138714 0.13348,0.206318 0.40732,0.206318 0.22402,0 0.40732,0.06108 0.40732,0.135769 0,0.156245 -1.03981,0.187477 -1.12998,0.03392 z m 40.5044,-0.577039 c 0,-0.373378 0.0611,-0.678865 0.13572,-0.678865 0.0747,0 0.13573,0.305487 0.13573,0.678865 0,0.373377 -0.0611,0.678872 -0.13573,0.678872 -0.0747,0 -0.13572,-0.305495 -0.13572,-0.678872 z m 0.81463,0.135768 c 0,-0.392235 -0.0565,-0.543091 -0.20365,-0.543091 -0.11206,0 -0.20366,-0.06108 -0.20366,-0.135768 0,-0.07467 0.27494,-0.135768 0.61098,-0.135768 0.33604,0 0.61098,0.06108 0.61098,0.135768 0,0.07468 -0.12225,0.135768 -0.27154,0.135768 -0.22629,0 -0.27155,0.09052 -0.27155,0.543091 0,0.298705 -0.0611,0.543099 -0.13573,0.543099 -0.0747,0 -0.13572,-0.244394 -0.13572,-0.543099 z m -41.41104,-4.00107 c 0,-0.362833 -0.0468,-0.453003 -0.20366,-0.39279 -0.11205,0.043 -0.20366,0.0086 -0.20366,-0.07641 0,-0.085 0.0935,-0.190456 0.20787,-0.234325 0.16311,-0.06259 0.1035,-0.181248 -0.27737,-0.551038 -0.26691,-0.259194 -0.52157,-0.652743 -0.56593,-0.87455 -0.0443,-0.221801 -0.263,-0.585641 -0.48589,-0.808521 -0.36545,-0.365446 -0.42744,-0.38516 -0.63129,-0.200685 -0.12436,0.112512 -0.45097,0.298547 -0.72587,0.413413 -1.72585,0.721105 -3.63135,-0.504139 -3.63135,-2.334973 0,-1.660311 1.12048,-2.696921 2.79954,-2.59001 0.70135,0.04465 0.94929,0.128694 1.37046,0.464455 0.97672,0.778655 1.3018,2.031182 0.81015,3.121627 l -0.24714,0.548178 0.40689,0.435564 c 0.22377,0.239564 0.4453,0.610532 0.49227,0.824371 0.047,0.213839 0.32639,0.611791 0.62097,0.884328 0.48497,0.448718 0.53556,0.559135 0.53556,1.168923 0,0.370369 -0.0611,0.673401 -0.13573,0.673401 -0.0747,0 -0.13572,-0.211932 -0.13572,-0.470953 z m -2.71315,-3.081163 c 1.51693,-0.838681 1.58256,-3.040477 0.11945,-4.008695 -1.47495,-0.976074 -3.40854,-0.132175 -3.7269,1.626558 -0.18322,1.012109 0.70678,2.404845 1.67279,2.617707 0.20399,0.04494 0.43199,0.102759 0.50666,0.12847 0.24289,0.08361 0.9395,-0.09397 1.42796,-0.364034 z m -2.14077,-0.587749 c -0.24269,-0.10549 -0.44126,-0.251157 -0.44126,-0.323715 0,-0.07257 0.1904,-0.03691 0.4231,0.07915 0.56153,0.280124 1.3083,0.284648 1.85111,0.01125 0.2427,-0.122266 0.44127,-0.167441 0.44127,-0.100415 0,0.218386 -0.78876,0.536309 -1.31706,0.530869 -0.28374,-0.0029 -0.71447,-0.09162 -0.95716,-0.197112 z m -0.22477,-2.053379 c -0.0492,-0.128441 -0.0329,-0.290148 0.0362,-0.359344 0.2102,-0.2102 0.62984,-0.04967 0.62984,0.240957 0,0.350071 -0.54027,0.446109 -0.66603,0.118393 z m 1.70327,0.03834 c -0.11041,-0.133045 -0.10537,-0.241956 0.019,-0.411993 0.14689,-0.200887 0.2028,-0.20644 0.42708,-0.04247 0.15912,0.116344 0.22521,0.27433 0.17237,0.412002 -0.10338,0.269466 -0.41236,0.290665 -0.61837,0.04248 z m 4.01527,6.070628 c -0.20368,-0.203672 -0.0829,-0.324713 0.24268,-0.243015 0.26066,0.06544 0.33944,0.03249 0.33944,-0.141723 0,-0.140928 -0.09,-0.211663 -0.23761,-0.186666 -0.25946,0.04398 -0.30549,-0.02095 -0.30549,-0.430507 0,-0.219633 0.0844,-0.268011 0.44127,-0.253056 0.31911,0.01334 0.35668,0.03482 0.13573,0.07732 -0.38267,0.07369 -0.39505,0.25641 -0.0239,0.353454 0.43574,0.113953 0.3137,0.826583 -0.15085,0.880756 -0.18949,0.02213 -0.38806,-0.0029 -0.44127,-0.05658 z m 1.04349,-0.106452 c -0.0401,-0.104904 -0.0536,-0.395117 -0.0298,-0.644922 0.0363,-0.379944 0.10373,-0.46114 0.41213,-0.496702 0.29906,-0.03445 0.38515,0.02318 0.456,0.305495 0.14699,0.585617 -0.0353,1.026871 -0.42416,1.026871 -0.1876,0 -0.37403,-0.08583 -0.4143,-0.190742 z m 0.55693,-0.533389 c 0,-0.53016 -0.26403,-0.508503 -0.31517,0.02588 -0.0318,0.330597 0.006,0.439377 0.13572,0.396002 0.0987,-0.03287 0.1794,-0.222732 0.1794,-0.421861 z m 16.58792,0.624512 c -0.0348,-0.05726 -0.0448,-0.267907 -0.0223,-0.468185 0.0299,-0.266863 -0.009,-0.344591 -0.14989,-0.290966 -0.23574,0.09046 -0.24929,-0.114515 -0.0226,-0.34123 0.13363,-0.133649 0.0802,-0.237011 -0.26113,-0.504053 -0.23782,-0.186126 -0.46996,-0.521322 -0.52055,-0.751655 -0.0503,-0.228646 -0.27323,-0.622921 -0.49559,-0.876171 l -0.40429,-0.460457 -0.5413,0.358212 c -1.73262,1.14659 -4.05508,-0.05425 -4.05508,-2.096715 0,-1.55009 1.05034,-2.615599 2.57838,-2.615599 0.72509,0 1.52095,0.317861 1.93093,0.771218 0.64767,0.716213 0.8344,2.068424 0.40261,2.91539 l -0.24752,0.485458 0.43851,0.417224 c 0.24117,0.229471 0.48275,0.618741 0.53684,0.865043 0.0547,0.249093 0.30817,0.64 0.57116,0.880891 0.40009,0.366466 0.47608,0.530334 0.49409,1.065524 0.0199,0.590307 -0.0865,0.886183 -0.23225,0.646071 z m -2.78911,-3.37589 c 0.83362,-0.421555 1.43927,-1.587355 1.2762,-2.456548 -0.20969,-1.117797 -1.30989,-2.078608 -2.38015,-2.078608 -0.61375,0 -1.5635,0.476687 -1.90485,0.956068 -0.72566,1.019102 -0.68519,2.089211 0.11276,2.978897 0.80256,0.894894 1.87417,1.116981 2.89609,0.600191 z m -2.16135,-0.711388 c -0.56929,-0.303588 -0.42992,-0.473978 0.14908,-0.182254 0.5353,0.269701 1.28415,0.263487 1.84296,-0.01531 0.2327,-0.116098 0.4231,-0.151547 0.4231,-0.07878 0,0.2083 -0.88988,0.526334 -1.4552,0.520068 -0.28245,-0.0029 -0.71442,-0.112816 -0.95994,-0.243758 z m -0.0147,-1.91131 c -0.25829,-0.163554 -0.0854,-0.554723 0.24512,-0.554723 0.35037,0 0.48518,0.232592 0.2789,0.481161 -0.1894,0.228194 -0.2634,0.23858 -0.52402,0.07355 z m 1.5278,-0.08124 c -0.12618,-0.328975 0.20247,-0.629863 0.50891,-0.465851 0.31299,0.167508 0.33531,0.476475 0.0426,0.588828 -0.33486,0.128498 -0.46619,0.0992 -0.55146,-0.122981 z m 4.12153,6.095158 c -0.20367,-0.203671 -0.0829,-0.324713 0.24269,-0.243014 0.26381,0.06619 0.33944,0.03301 0.33944,-0.149026 0,-0.167335 -0.0775,-0.213951 -0.27142,-0.163238 -0.3277,0.08569 -0.45512,-0.08255 -0.33918,-0.447841 0.0639,-0.201367 0.19604,-0.265617 0.51792,-0.251847 0.31943,0.01361 0.35245,0.03384 0.1266,0.07732 -0.38267,0.07369 -0.39505,0.25641 -0.0239,0.353453 0.43575,0.113953 0.3137,0.826585 -0.15085,0.880757 -0.18949,0.02213 -0.38806,-0.0029 -0.44127,-0.05658 z m 1.07996,-0.006 c -0.16498,-0.164987 -0.0938,-1.095533 0.096,-1.252939 0.45204,-0.375163 0.95228,0.46636 0.63245,1.063939 -0.1448,0.270577 -0.54338,0.373999 -0.72838,0.189 z m 0.52523,-0.324525 c 0.11833,-0.191416 -0.0427,-0.806931 -0.21101,-0.806931 -0.0733,0 -0.1332,0.213846 -0.1332,0.475209 0,0.462527 0.16505,0.621592 0.3442,0.331722 z m 22.33005,-0.06019 c 0,-0.261368 -0.0458,-0.467975 -0.10174,-0.459134 -0.26784,0.04231 -0.32338,-0.0346 -0.16384,-0.226821 0.14788,-0.178209 0.10818,-0.271681 -0.25721,-0.605412 -0.23766,-0.217066 -0.47001,-0.584141 -0.51633,-0.815718 -0.0463,-0.231579 -0.26084,-0.597677 -0.47671,-0.813557 l -0.39249,-0.392506 -0.48508,0.329186 c -1.74074,1.181298 -4.12366,-0.02469 -4.12366,-2.0869 0,-1.520253 1.07151,-2.600366 2.57969,-2.600366 1.25603,0 2.24498,0.771932 2.57422,2.009337 0.16147,0.606832 0.1297,0.851228 -0.217,1.669091 -0.20376,0.48065 -0.20066,0.49385 0.21316,0.907659 0.23096,0.230955 0.4567,0.603808 0.50164,0.828564 0.0456,0.227789 0.31523,0.624685 0.60937,0.896816 0.47643,0.440816 0.5276,0.553499 0.5276,1.161568 0,0.370369 -0.0611,0.673401 -0.13573,0.673401 -0.0747,0 -0.13572,-0.213845 -0.13572,-0.475208 z m -2.71315,-3.073735 c 1.67218,-0.935641 1.55731,-3.408241 -0.19532,-4.204252 -1.46095,-0.663525 -3.00957,0.166353 -3.39281,1.818168 -0.21922,0.94476 0.5812,2.237976 1.61707,2.612704 0.63388,0.229297 1.29135,0.153707 1.97106,-0.22662 z m -2.14076,-0.590923 c -0.24271,-0.105479 -0.44128,-0.26332 -0.44128,-0.350743 0,-0.108479 0.0539,-0.116192 0.16972,-0.02424 0.0933,0.07407 0.40234,0.209658 0.68664,0.301268 0.4305,0.138717 0.62767,0.130323 1.17958,-0.0502 0.86613,-0.283297 0.99414,-0.266106 0.40799,0.05478 -0.56205,0.307715 -1.38812,0.33623 -2.00265,0.06911 z m -0.16479,-2.031902 c -0.20355,-0.245258 -0.0729,-0.481159 0.26661,-0.481159 0.31245,0 0.4357,0.17538 0.32536,0.462962 -0.1035,0.269663 -0.37631,0.278051 -0.59197,0.01817 z m 1.62441,-0.006 c -0.12492,-0.150504 -0.13573,-0.258166 -0.036,-0.357987 0.22327,-0.22327 0.6468,-0.0778 0.6468,0.222146 0,0.337296 -0.3746,0.420594 -0.61093,0.135838 z m 4.03413,6.093364 c -0.20368,-0.203669 -0.0829,-0.324713 0.24269,-0.243021 0.26064,0.06544 0.33943,0.03249 0.33943,-0.141717 0,-0.140928 -0.09,-0.211663 -0.2376,-0.186666 -0.25945,0.04398 -0.30549,-0.02095 -0.30549,-0.430507 0,-0.21963 0.0844,-0.26801 0.44126,-0.253055 0.3191,0.01334 0.35669,0.03482 0.13573,0.07734 -0.38269,0.07369 -0.39508,0.256409 -0.024,0.353453 0.43575,0.113953 0.3137,0.826583 -0.15084,0.880756 -0.18948,0.02213 -0.38806,-0.0029 -0.44128,-0.05658 z m 1.07185,-0.130476 c -0.20521,-0.534814 -0.006,-1.278746 0.34236,-1.278746 0.42673,0 0.69803,0.995268 0.36271,1.330585 -0.23001,0.230018 -0.60756,0.202258 -0.70507,-0.05186 z m 0.57113,-0.498044 c -0.0234,-0.242699 -0.10362,-0.441268 -0.17832,-0.441268 -0.0747,0 -0.15493,0.198569 -0.17832,0.441268 -0.0322,0.334431 0.0117,0.44126 0.17832,0.44126 0.16738,0 0.21055,-0.106827 0.17832,-0.44126 z m -36.49789,-4.516628 c 0,-0.173699 -0.57072,-0.201466 -4.14111,-0.201466 -2.67022,0 -4.1411,-0.04825 -4.1411,-0.135768 0,-0.08756 1.47088,-0.135782 4.1411,-0.135782 3.68732,0 4.14111,-0.02357 4.14111,-0.21497 0,-0.118238 0.0459,-0.192647 0.10185,-0.165362 1.01882,0.496391 1.02772,0.516165 0.37338,0.828203 -0.40881,0.194944 -0.47521,0.198456 -0.47521,0.02514 z m 22.9458,0 c 0,-0.173774 -0.57859,-0.201466 -4.209,-0.201466 -2.71548,0 -4.209,-0.04817 -4.209,-0.135768 0,-0.08759 1.49352,-0.135782 4.209,-0.135782 3.6508,0 4.209,-0.02702 4.209,-0.203655 0,-0.279748 0.13783,-0.254985 0.58863,0.10576 l 0.38498,0.308083 -0.48681,0.232141 c -0.41658,0.198652 -0.4868,0.203079 -0.4868,0.0307 z m -42.49184,-9.427533 -0.17772,-1.894276 -0.53497,0.272919 c -0.29424,0.150106 -0.5919,0.253948 -0.66145,0.230761 -0.12169,-0.0406 -2.57152,-5.043638 -2.56602,-5.240428 10e-4,-0.05299 0.55135,-0.351689 1.22195,-0.66378 l 1.21929,-0.567434 v -1.842557 c 0,-1.256572 -0.0478,-1.84255 -0.15029,-1.84255 -0.0826,0 -0.11323,-0.09166 -0.068,-0.203664 0.0454,-0.112007 0.11943,-0.295303 0.16482,-0.407317 0.0713,-0.176439 -0.2371,-0.203664 -2.30816,-0.203664 h -2.39057 v -3.869551 -3.86956 h 2.37603 2.37607 V 23.87956 c 0,-0.909183 -0.05,-1.357737 -0.15163,-1.357737 -0.14655,0 -0.12141,-0.216787 0.0829,-0.712812 0.0911,-0.221411 -0.079,-0.237605 -2.49641,-0.237605 h -2.59423 v -1.15408 -1.15408 h 2.57972 2.57969 V 15.66524 12.067234 h 11.06556 c 10.073,0 11.06559,-0.01957 11.06559,-0.218191 0,-0.140063 0.073,-0.188677 0.20365,-0.135768 0.11205,0.04533 0.29531,0.119501 0.40733,0.164828 0.17531,0.07091 0.20367,-0.184295 0.20367,-1.832952 V 8.1297261 h 4.07322 4.07321 v 1.9008349 c 0,1.732139 0.0853,2.176131 0.33943,1.765061 0.12969,-0.209764 0.47521,-0.160402 0.47521,0.06792 0,0.179183 1.19934,0.203661 9.97938,0.203661 h 9.97938 v 3.598007 3.598006 h 2.58499 2.585 l -0.0393,1.188021 -0.0393,1.188021 -2.17237,0.02829 c -1.19481,0.01554 -2.34197,0.03084 -2.54924,0.03392 -0.37477,0.0061 -0.3757,0.008 -0.16624,0.412985 0.18802,0.363591 0.18839,0.407325 0.005,0.407325 -0.17182,0 -0.20714,0.230889 -0.20714,1.354533 v 1.35453 l 2.33825,0.03716 2.33826,0.03716 0.008,3.665896 c 0.005,2.016247 -0.0152,3.742274 -0.0447,3.835617 -0.0399,0.127236 -0.6452,0.169714 -2.41827,0.169714 h -2.36501 l 0.21064,0.407326 c 0.18801,0.363586 0.18839,0.40732 0.005,0.40732 -0.17252,0 -0.20713,0.238256 -0.20713,1.425626 v 1.425624 h 1.4256 1.42564 v 2.980256 2.980248 l -0.73701,0.04074 -0.737,0.04074 0.66911,1.751321 c 0.36802,0.963227 0.66913,1.772775 0.66913,1.799003 0,0.0262 -1.31361,0.04766 -2.91914,0.04766 -2.24841,0 -2.91759,-0.03902 -2.91238,-0.169721 0.005,-0.09333 0.30296,-0.902894 0.66499,-1.799005 l 0.65826,-1.629288 -0.66501,-0.04106 -0.665,-0.04104 v -2.301062 c 0,-1.903739 -0.0335,-2.301062 -0.19397,-2.301062 -0.21221,0 -0.62068,0.357409 -0.62068,0.543092 0,0.245416 -0.44244,0.542566 -0.79039,0.530852 l -0.36368,-0.01221 0.40731,-0.125312 c 0.22572,-0.06942 0.52936,-0.321253 0.68102,-0.564793 0.15052,-0.241717 0.41019,-0.459015 0.57704,-0.482878 0.26178,-0.03745 0.30335,-0.125817 0.30335,-0.644923 v -0.601541 h 1.42562 1.42563 v -1.425627 c 0,-1.187368 -0.0347,-1.425625 -0.20716,-1.425625 -0.18547,0 -0.18556,-0.04173 -7.4e-4,-0.398929 l 0.2063,-0.398935 -2.54492,-0.04413 -2.54489,-0.04413 -0.30888,0.341222 c -0.16987,0.187673 -0.37085,0.417601 -0.44662,0.510944 -0.0758,0.09334 -0.30336,0.162488 -0.50578,0.153655 l -0.36802,-0.01606 0.36548,-0.08576 c 0.20609,-0.04833 0.5042,-0.293016 0.68353,-0.560973 0.17493,-0.26137 0.45343,-0.494736 0.61889,-0.518597 l 0.3008,-0.04337 v -3.724338 -3.724339 h 2.44391 2.44394 v -1.357743 c 0,-1.126518 -0.0353,-1.357737 -0.20715,-1.357737 -0.18548,0 -0.18557,-0.04173 -7.5e-4,-0.398784 l 0.20623,-0.398794 -0.44035,-0.04248 c -0.24216,-0.02334 -1.45968,-0.01193 -2.70556,0.02543 l -2.26528,0.06792 -0.31881,0.475207 c -0.22784,0.339564 -0.43387,0.485257 -0.72179,0.510427 l -0.40293,0.0352 0.43248,-0.194695 c 0.23787,-0.107084 0.52966,-0.382593 0.64841,-0.612257 0.11875,-0.229665 0.30602,-0.417568 0.41612,-0.417568 0.16067,0 0.20017,-0.227686 0.20017,-1.154082 v -1.15408 h 2.57969 2.57972 v -3.498716 -3.49868 l -9.84361,2.85e-4 c -7.85171,2.33e-4 -9.84361,0.03505 -9.84361,0.172221 0,0.208541 -0.19975,0.219894 -0.55203,0.03136 -0.25355,-0.135698 -0.26262,-0.0779 -0.26262,1.675387 0,1.809088 0.001,1.816517 0.34217,1.971823 0.18818,0.08574 0.40111,0.310967 0.47317,0.500483 0.19033,0.500596 0.48305,0.551436 0.85627,0.148725 0.17829,-0.192375 0.3639,-0.31004 0.41246,-0.261467 0.14336,0.143345 0.1008,1.400788 -0.0475,1.400788 -0.0747,0 -0.14286,-0.229117 -0.15152,-0.509151 -0.008,-0.28004 -0.0448,-0.396984 -0.0802,-0.259891 -0.0499,0.193217 -0.14556,0.230002 -0.42553,0.163621 -0.19865,-0.04713 -0.42227,-0.186224 -0.49695,-0.309164 -0.29495,-0.485601 -0.76567,-0.872269 -0.96757,-0.794797 -0.11475,0.04405 -1.02996,0.08009 -2.0337,0.08009 h -1.82568 l 0.2224,0.339437 c 0.20198,0.30824 0.17222,0.400751 -0.11428,0.355507 -0.056,-0.0088 -0.10186,0.50326 -0.10186,1.138008 v 1.154072 h 2.6476 2.6476 v 1.089552 c 0,1.041983 0.0151,1.095286 0.34504,1.22074 0.18977,0.07219 0.44945,0.316376 0.57703,0.542716 0.1332,0.236275 0.40547,0.462872 0.63932,0.532083 0.3806,0.112628 0.38504,0.121213 0.068,0.130701 -0.44245,0.01334 -0.59344,-0.09655 -0.86708,-0.630597 l -0.22609,-0.441266 h -2.84486 -2.84484 l 0.16521,0.362593 c 0.13052,0.286427 0.12982,0.374368 -0.002,0.418642 -0.1186,0.03955 -0.16811,0.452832 -0.16811,1.40246 v 1.346426 h 2.30816 2.30816 v 3.704018 3.70401 l 0.39135,0.147735 c 0.21527,0.08125 0.47539,0.32376 0.57805,0.538919 0.12703,0.266098 0.30574,0.404924 0.55904,0.434153 0.40852,0.04713 0.51873,0.296467 0.1311,0.296467 -0.32655,0 -0.84486,-0.377632 -0.84486,-0.615551 0,-0.450595 -0.54974,-0.539511 -3.08325,-0.498697 l -2.47228,0.03985 0.13628,0.358646 c 0.1035,0.271951 0.0917,0.383628 -0.0483,0.461986 -0.13742,0.07689 -0.18185,0.444231 -0.17365,1.43448 l 0.0117,1.331142 1.45733,0.03857 1.45733,0.03858 v 0.590554 c 0,0.475532 0.0526,0.604334 0.2704,0.661267 0.1487,0.03888 0.37783,0.261198 0.50915,0.494021 0.13938,0.247015 0.4084,0.473529 0.64608,0.543865 l 0.40732,0.120539 -0.36353,0.01221 c -0.24715,0.0083 -0.45313,-0.107271 -0.64344,-0.36113 -0.45387,-0.605368 -0.55821,-0.712813 -0.69228,-0.712813 -0.0724,0 -0.14315,0.978078 -0.16437,2.274212 l -0.0372,2.274211 -0.72446,0.04142 c -0.61765,0.03534 -0.71111,0.07536 -0.63383,0.271546 0.0498,0.126561 0.32364,0.841088 0.60841,1.587844 0.28476,0.74676 0.56124,1.464663 0.61441,1.595346 0.0902,0.221937 -0.0967,0.237604 -2.83703,0.237604 -1.86243,0 -2.93367,-0.04953 -2.93367,-0.135571 0,-0.07458 0.29837,-0.899396 0.66305,-1.832953 l 0.66307,-1.697366 h -0.66307 -0.66305 v -2.986987 -2.987024 h 1.42562 1.42563 v -1.425625 c 0,-1.187368 -0.0345,-1.425625 -0.20714,-1.425625 -0.18527,0 -0.18508,-0.0427 0.001,-0.404182 l 0.209,-0.404183 -2.41185,-0.03707 -2.41184,-0.03707 v -3.801673 -3.801676 l 2.47788,-0.037 2.47786,-0.037 V 23.8766 c 0,-1.123771 -0.0354,-1.354675 -0.20714,-1.354675 -0.18491,0 -0.18454,-0.04376 0.005,-0.407325 0.20414,-0.394755 0.2011,-0.407461 -0.0983,-0.411843 -0.16993,-0.0022 -1.31709,-0.01778 -2.54924,-0.03392 l -2.24028,-0.02942 -0.0393,-1.188021 -0.0393,-1.188022 h 2.5171 2.5171 v -1.154073 c 0,-0.850852 -0.0447,-1.145165 -0.16972,-1.120138 -0.17737,0.03549 -0.18435,-0.07724 -0.0294,-0.47521 0.0854,-0.219428 -0.054,-0.237604 -1.8229,-0.237604 h -1.91536 v -1.968742 c 0,-1.794897 -0.0837,-2.246769 -0.33943,-1.832944 -0.11972,0.193631 -0.47521,0.168236 -0.47522,-0.03392 0,-0.134462 -2.23487,-0.166733 -10.76008,-0.155365 -5.91803,0.0079 -10.83645,0.02318 -10.9298,0.03391 -0.13081,0.01508 -0.16971,0.813002 -0.16971,3.481828 v 3.462232 h 2.5797 2.57972 v 1.071474 c 0,1.017422 0.0164,1.075595 0.32547,1.153165 0.17902,0.04494 0.4519,0.295949 0.6064,0.557815 0.33862,0.573903 0.47494,0.589407 0.90329,0.102748 l 0.32864,-0.373377 0.005,0.780697 c 0.005,0.851609 -0.25729,1.102967 -0.28301,0.271544 -0.008,-0.280032 -0.0442,-0.399686 -0.0789,-0.265902 -0.081,0.311971 -0.5579,0.192518 -0.88268,-0.221103 -0.64134,-0.816797 -0.43135,-0.768899 -3.37088,-0.768899 h -2.71898 l 0.20716,0.400579 c 0.25714,0.497249 0.25747,0.549838 0.005,0.549838 -0.16746,0 -0.20366,0.241378 -0.20366,1.357736 v 1.357743 h 2.44393 2.44393 v 3.711987 3.711994 l 0.33291,0.151675 c 0.1831,0.08343 0.42907,0.337627 0.54658,0.56489 0.15075,0.29153 0.3126,0.413209 0.54963,0.413209 0.18477,0 0.33595,0.06769 0.33595,0.150496 0,0.222357 -0.71935,0.01823 -0.88254,-0.250435 -0.0747,-0.12294 -0.25797,-0.349319 -0.40732,-0.503058 -0.25806,-0.26564 -0.3981,-0.277556 -2.8178,-0.239787 l -2.54624,0.03978 0.20079,0.38828 c 0.17691,0.34213 0.17697,0.397413 4.9e-4,0.465146 -0.1612,0.06184 -0.20031,0.395791 -0.20031,1.710408 0,0.978401 0.0534,1.633551 0.13334,1.633551 0.0733,0 0.65552,-0.241259 1.29378,-0.536135 l 1.16047,-0.536134 1.31447,2.633075 c 1.00122,2.005555 1.38525,2.650838 1.61141,2.707607 0.16331,0.04098 0.42336,0.288775 0.57785,0.550647 0.21223,0.359697 0.37169,0.476124 0.6521,0.476124 0.2563,0 0.32759,0.04359 0.23034,0.140818 -0.22598,0.225972 -0.82451,-0.07812 -1.06354,-0.540338 -0.2871,-0.555196 -0.7219,-0.640421 -1.42839,-0.279996 l -0.57326,0.29246 1.0555,0.972577 c 0.58053,0.53492 1.19801,1.084683 1.3722,1.221693 0.17417,0.137003 0.31668,0.310267 0.31668,0.385031 0,0.128526 -4.86928,2.559842 -5.12668,2.559842 -0.0667,0 -0.20112,-0.852427 -0.29886,-1.894275 z m 2.66733,0.565694 c 1.18099,-0.581371 2.21856,-1.101191 2.30574,-1.155161 0.10268,-0.06355 -0.13615,-0.370931 -0.67887,-0.873386 -0.46056,-0.426396 -1.05776,-0.979669 -1.32714,-1.229512 l -0.48977,-0.454242 -1.18835,0.585661 -1.18835,0.585663 0.0898,1.561399 c 0.0844,1.4662 0.16267,2.036607 0.2798,2.036607 0.0275,0 1.01619,-0.47566 2.19717,-1.057029 z m 24.75683,-1.556619 -0.6476,-1.663229 -1.35438,-0.0385 -1.35436,-0.03842 -0.55921,1.464084 c -0.30756,0.805257 -0.59831,1.571019 -0.64613,1.701697 -0.0809,0.221141 0.0966,0.237605 2.56119,0.237605 h 2.64812 z m 24.96214,0.950417 c -0.15652,-0.392047 -0.4455,-1.155776 -0.64218,-1.69717 l -0.35759,-0.984359 -1.35847,6.75e-4 -1.35852,6.83e-4 -0.56888,1.458878 c -0.31289,0.802388 -0.60966,1.565803 -0.65946,1.696487 -0.0844,0.221283 0.0921,0.237606 2.56958,0.237606 h 2.66013 L 204.9968,45.29788 Z m -50.96184,-2.839544 c 1.22982,-0.598097 2.23602,-1.113889 2.23602,-1.146215 0,-0.06154 -2.31003,-4.845049 -2.37212,-4.91201 -0.0622,-0.06709 -4.95965,2.325818 -4.95965,2.423283 0,0.05118 0.5186,1.174319 1.15245,2.495787 1.02799,2.143167 1.18244,2.393175 1.42988,2.314636 0.15255,-0.0484 1.28361,-0.577392 2.51342,-1.175481 z m 26.57352,-0.09126 c 0.21783,-0.02041 0.2376,-0.253813 0.2376,-2.805633 v -2.78337 h -2.78337 -2.78336 l 3e-5,2.817311 3e-5,2.817311 2.54572,-0.0116 c 1.40016,-0.0067 2.65266,-0.02168 2.78335,-0.03392 z m 23.9641,-0.0109 0.84858,-0.01137 v -2.786177 -2.786175 l -2.74943,0.03677 -2.74942,0.03677 -0.0368,2.744476 -0.0368,2.744467 1.3266,0.0448 c 0.72963,0.02461 1.60154,0.03198 1.93757,0.01635 0.33605,-0.01561 0.99285,-0.03355 1.45958,-0.03985 z M 156.0183,32.534962 c 0.009,-0.09335 0.0299,-1.71245 0.0435,-3.598013 l 0.0247,-3.428293 h -4.79559 -4.79558 v 3.598013 3.598006 h 4.75208 c 3.70112,0 4.75625,-0.03752 4.77091,-0.169713 z m -5.93849,-0.969974 c -2.40217,-1.118539 -1.7931,-4.609072 0.85907,-4.923181 1.01406,-0.120104 2.05116,0.381489 2.55048,1.233535 0.32076,0.547315 0.36166,0.741628 0.31393,1.491256 -0.0697,1.095233 -0.4695,1.721981 -1.39451,2.186317 -0.83899,0.42114 -1.44371,0.424277 -2.32897,0.01207 z m 2.24636,-0.214266 c 0.56464,-0.288055 1.13655,-0.910676 1.01587,-1.105933 -0.0407,-0.06588 -0.0142,-0.119823 0.059,-0.119823 0.20315,0 0.32428,-0.754957 0.22011,-1.371672 -0.10995,-0.650296 -0.75025,-1.439147 -1.38286,-1.703467 -1.1737,-0.490404 -2.55965,-0.03452 -3.11909,1.02594 -1.10827,2.100804 1.0961,4.351865 3.20701,3.27495 z m -1.42465,-0.400662 c 0.0427,-0.06896 0.26229,-0.165925 0.48822,-0.215551 0.39988,-0.08783 1.39813,-0.966812 1.29236,-1.137961 -0.0723,-0.116906 0.30924,-0.624158 0.40065,-0.532743 0.12745,0.127502 -0.20974,0.842973 -0.58808,1.247606 -0.37298,0.398913 -1.06804,0.763976 -1.45458,0.763976 -0.11889,0 -0.18117,-0.05644 -0.13854,-0.125326 z m -1.05241,-1.454006 c -0.0524,-0.05238 -0.0952,-0.207221 -0.0952,-0.344126 0,-0.176799 0.10104,-0.24892 0.34888,-0.24892 0.28373,0 0.34078,0.0568 0.3055,0.304105 -0.0429,0.300984 -0.37535,0.472755 -0.55916,0.288941 z m 1.16848,-1.148723 c -0.23528,-0.235286 -0.0563,-0.530513 0.32167,-0.530513 0.26868,0 0.32582,0.05973 0.29097,0.304097 -0.0489,0.342018 -0.37609,0.46297 -0.61264,0.226416 z m 31.86514,0.759338 v -3.598013 h -4.75208 -4.75209 v 3.598013 3.598006 h 4.75209 4.75208 z m -5.46782,2.467437 c -1.68616,-0.524488 -2.41344,-2.390226 -1.50405,-3.858438 1.32613,-2.141027 4.56314,-1.389343 4.77021,1.107712 0.10994,1.324837 -0.66237,2.432173 -1.93945,2.781012 -0.64259,0.175531 -0.66681,0.174975 -1.32671,-0.03031 z m 1.99423,-0.510006 c 0.8355,-0.572499 1.27235,-1.667088 1.02781,-2.575285 -0.30969,-1.150096 -1.59565,-2.032038 -2.66925,-1.830626 -1.14476,0.214754 -2.07947,1.284825 -2.07947,2.38059 0,0.857658 0.69769,1.872109 1.55527,2.261358 0.58372,0.264949 1.59543,0.154683 2.16564,-0.236037 z m -1.7537,-0.389721 c -0.50989,-0.118842 -1.0657,-0.411497 -0.96768,-0.509517 0.0406,-0.0406 0.33321,0.02987 0.65019,0.156708 0.63406,0.253702 1.31776,0.197758 1.86075,-0.152243 0.24983,-0.16104 0.30799,-0.166352 0.26152,-0.02386 -0.12407,0.380108 -1.15143,0.68122 -1.80478,0.528953 z m -0.69517,-2.240082 c -0.10432,-0.271973 0.0505,-0.481708 0.35573,-0.481708 0.31244,0 0.4357,0.175381 0.32536,0.462955 -0.10373,0.270195 -0.57958,0.283297 -0.68109,0.01877 z m 1.62928,0 c -0.10443,-0.271973 0.0505,-0.481708 0.35573,-0.481708 0.31245,0 0.43571,0.175381 0.32535,0.462955 -0.10373,0.270195 -0.57955,0.283297 -0.68108,0.01877 z m 28.86825,0.672372 v -3.598013 h -4.75207 -4.75209 v 3.598013 3.598006 h 4.75209 4.75207 z m -5.43095,2.488059 c -2.7685,-0.786707 -2.39798,-4.869083 0.46347,-5.106381 1.33256,-0.110507 2.44056,0.667885 2.78289,1.955007 0.35325,1.328328 -0.44796,2.707157 -1.80772,3.110963 -0.75971,0.225613 -0.78446,0.226303 -1.43864,0.04045 z m 1.70787,-0.36949 c 1.79323,-0.814457 1.84187,-3.447488 0.0796,-4.311186 -0.62265,-0.305166 -1.74577,-0.332954 -1.92612,-0.04766 -0.0709,0.112008 -0.12968,0.155682 -0.13081,0.09704 -7.6e-4,-0.05862 -0.12603,-0.0403 -0.27743,0.04074 -0.15144,0.08105 -0.23366,0.214836 -0.18268,0.2973 0.0534,0.08649 0.0309,0.111784 -0.0532,0.0598 -0.19753,-0.122083 -0.67567,0.510681 -0.86606,1.146141 -0.20986,0.700416 0.0479,1.601088 0.62976,2.20016 0.73538,0.757194 1.76794,0.953202 2.72693,0.517646 z m -1.36843,-0.523829 c -0.47422,-0.10501 -1.1542,-0.466421 -1.08578,-0.577108 0.0362,-0.05862 0.29303,0.0091 0.57061,0.150677 0.27759,0.141521 0.66217,0.257317 0.85461,0.257317 0.19244,0 0.57702,-0.115793 0.8546,-0.257317 0.27759,-0.141521 0.5369,-0.205217 0.57624,-0.141552 0.16072,0.260035 -1.19568,0.695224 -1.77028,0.567983 z m -0.78479,-2.244802 c -0.10772,-0.280544 0.10256,-0.537651 0.39373,-0.481573 0.36073,0.06949 0.33417,0.57728 -0.0329,0.629659 -0.15852,0.02259 -0.32088,-0.04405 -0.36081,-0.148086 z m 1.61227,-0.04435 c -0.0492,-0.128442 -0.0329,-0.290155 0.0362,-0.359344 0.21018,-0.210199 0.62985,-0.04968 0.62985,0.240959 0,0.350068 -0.54029,0.4461 -0.66603,0.118378 z M 156.40686,20.41718 v -1.018301 h -5.09152 -5.09152 v 1.018301 1.018308 h 5.09152 5.09152 z m -8.96107,0 c 0,-0.384693 0.0517,-0.475209 0.27154,-0.475209 0.14935,0 0.27155,0.06109 0.27155,0.135768 0,0.07468 0.14914,0.13577 0.33143,0.13577 0.18228,0 0.36917,-0.06108 0.41533,-0.13577 0.13124,-0.212374 0.61097,-0.159064 0.61097,0.06792 0,0.112019 0.0546,0.203663 0.12128,0.203663 0.0667,0 0.15641,-0.09166 0.19939,-0.203663 0.12913,-0.336524 0.35785,-0.229793 0.36367,0.169715 l 0.006,0.373377 0.20254,-0.373377 c 0.11147,-0.20536 0.25664,-0.373378 0.32271,-0.373378 0.066,0 0.18148,0.168018 0.25648,0.373378 l 0.13629,0.373377 0.0117,-0.373377 c 0.008,-0.304895 0.073,-0.373378 0.35017,-0.373378 0.18667,0 0.33942,0.06859 0.33942,0.152402 0,0.105877 0.0617,0.101224 0.20194,-0.01523 0.30601,-0.253963 0.61271,-0.06258 0.61271,0.382404 0,0.389318 -0.007,0.392454 -0.84506,0.40434 -0.49534,0.0067 -0.88436,-0.05162 -0.94006,-0.14176 -0.0666,-0.107589 -0.14909,-0.111363 -0.27508,-0.01264 -0.0992,0.07763 -0.65729,0.142691 -1.24054,0.144567 -0.92163,0.0029 -1.05048,-0.02559 -0.98403,-0.217778 0.0639,-0.18497 0.0462,-0.182284 -0.10865,0.01643 -0.32211,0.413658 -0.6303,0.297479 -0.6303,-0.237605 z m 0.35143,-0.169032 c -0.14832,-0.148319 -0.25002,0.08756 -0.14353,0.332893 0.10092,0.232629 0.10831,0.232419 0.16455,-0.0045 0.0325,-0.136527 0.023,-0.284182 -0.0211,-0.328119 z m 1.00629,0.296791 c 0,-0.116415 -0.062,-0.173294 -0.13797,-0.126379 -0.076,0.0469 -0.10291,0.142151 -0.0599,0.21167 0.11639,0.188323 0.19786,0.153211 0.19786,-0.08528 z m 2.7155,0.07591 c 0,-0.07468 -0.0611,-0.135768 -0.13572,-0.135768 -0.0747,0 -0.13573,0.06108 -0.13573,0.135768 0,0.07467 0.0611,0.135768 0.13573,0.135768 0.0747,0 0.13572,-0.06108 0.13572,-0.135768 z m -2.30816,-0.331422 c 0,-0.03294 -0.0611,-0.09764 -0.13572,-0.143787 -0.0747,-0.04615 -0.13573,-0.01921 -0.13573,0.05988 0,0.07908 0.0611,0.143788 0.13573,0.143788 0.0747,0 0.13572,-0.02694 0.13572,-0.05988 z m 2.24027,-0.07591 c 0.0462,-0.07468 0.0192,-0.135768 -0.0599,-0.135768 -0.079,0 -0.14379,0.06108 -0.14379,0.135768 0,0.07467 0.027,0.135782 0.0599,0.135782 0.0329,0 0.0976,-0.06108 0.14379,-0.135782 z m 1.16983,0.237603 -0.0157,-0.50915 h 0.74675 c 0.41151,0 0.74677,0.06147 0.74677,0.136933 0,0.08173 0.10807,0.0694 0.26815,-0.03055 0.38066,-0.237725 0.6819,0.0529 0.44614,0.430423 -0.1252,0.200594 -0.1245,0.273445 0.002,0.325327 0.0907,0.03677 -0.002,0.07166 -0.20856,0.07758 -0.43133,0.01235 -0.46169,-0.074 -0.1479,-0.420691 0.12394,-0.137018 0.18699,-0.287574 0.14008,-0.334574 -0.047,-0.04698 -0.19427,0.105748 -0.32729,0.339414 -0.17862,0.313787 -0.33946,0.425072 -0.61522,0.425711 -0.32455,7.43e-4 -0.37338,-0.05245 -0.37338,-0.406463 0,-0.264139 -0.0688,-0.407326 -0.19565,-0.407326 -0.29723,0 -0.38349,0.242459 -0.11147,0.313412 0.21087,0.05501 0.21224,0.06431 0.0117,0.07817 -0.12519,0.0086 -0.25559,0.122672 -0.28973,0.253355 -0.0341,0.130673 -0.0692,0.0084 -0.0779,-0.271554 z m 1.27409,-0.03392 c 0,-0.136906 -0.0763,-0.274376 -0.16972,-0.305487 -0.10748,-0.03588 -0.16972,0.07619 -0.16972,0.305487 0,0.229304 0.0622,0.341319 0.16972,0.305494 0.0933,-0.03114 0.16972,-0.168588 0.16972,-0.305494 z m 29.39506,0.06792 v -0.950413 h -5.00912 c -3.8867,0 -5.02173,0.03805 -5.06545,0.169714 -0.047,0.141753 -0.0407,0.800769 0.0149,1.561399 0.009,0.132498 1.11428,0.169721 5.03605,0.169721 h 5.02364 z m -8.14228,0.357169 c -0.20718,-0.207183 -0.16965,-0.761605 0.0574,-0.84875 0.10854,-0.04165 0.33461,0.02041 0.50234,0.137873 0.27797,0.19471 0.33475,0.194103 0.64142,-0.0067 0.31593,-0.207016 0.34966,-0.204135 0.55318,0.0472 0.21524,0.265796 0.21832,0.2657 0.44503,-0.015 0.22711,-0.281218 0.2283,-0.280761 0.23433,0.09073 0.007,0.466346 0.21941,0.48792 0.33335,0.03392 0.10244,-0.408535 0.30113,-0.440683 0.41945,-0.06792 0.11287,0.355698 0.33943,0.349394 0.33943,-0.0094 0,-0.418462 0.57358,-0.297134 0.68652,0.14522 l 0.0867,0.339437 0.0546,-0.339437 c 0.03,-0.186688 0.14356,-0.339434 0.25221,-0.339434 0.10866,0 0.24003,0.152746 0.29195,0.339434 l 0.0945,0.339437 0.0141,-0.373378 c 0.0117,-0.30415 0.0765,-0.373384 0.35298,-0.373384 0.37916,0 0.47554,0.266082 0.10186,0.281099 -0.21997,0.0088 -0.22048,0.01635 -0.007,0.101833 0.20498,0.08197 0.19359,0.128049 -0.10174,0.412031 -0.18292,0.17586 -0.3326,0.244748 -0.3326,0.153093 0,-0.130632 -0.0441,-0.130113 -0.20367,0.0022 -0.15618,0.129621 -0.24831,0.131965 -0.39522,0.01008 -0.13883,-0.115207 -0.21718,-0.117577 -0.28453,-0.0086 -0.1096,0.177429 -0.77069,0.127515 -0.91145,-0.06882 -0.064,-0.08927 -0.18944,-0.07941 -0.3637,0.02852 -0.20858,0.129256 -0.28044,0.129256 -0.33284,0 -0.047,-0.115828 -0.0701,-0.109429 -0.0776,0.02153 -0.008,0.149453 -0.0506,0.153169 -0.21266,0.01877 -0.12099,-0.100368 -0.29792,-0.124498 -0.44125,-0.06019 -0.35101,0.157543 -0.7107,0.174795 -0.79515,0.03812 -0.0407,-0.06581 -0.14502,-0.07568 -0.23188,-0.02198 -0.24408,0.150856 -0.61479,0.147209 -0.76955,-0.0076 z m 0.22154,-0.526889 c -0.0376,-0.09334 -0.0684,-0.01696 -0.0684,0.16972 0,0.186689 0.0309,0.263059 0.0684,0.169715 0.0376,-0.09333 0.0376,-0.246092 0,-0.339435 z m 0.41015,0.144259 c -0.0434,-0.108315 -0.0755,-0.07614 -0.0819,0.08204 -0.006,0.143127 0.0263,0.223317 0.0713,0.178201 0.045,-0.0451 0.0499,-0.162224 0.0117,-0.260236 z m 0.54311,0 c -0.0434,-0.108315 -0.0755,-0.07614 -0.0819,0.08204 -0.006,0.143127 0.0263,0.223317 0.0713,0.178201 0.045,-0.0451 0.0499,-0.162224 0.0117,-0.260236 z m 2.85749,0.214979 c -0.045,-0.0451 -0.16223,-0.04998 -0.26023,-0.01067 -0.1083,0.04337 -0.0762,0.07551 0.0819,0.08202 0.14311,0.006 0.22332,-0.02618 0.1782,-0.07129 z m -2.40716,-0.32529 c 0,-0.07468 -0.0647,-0.135783 -0.14378,-0.135783 -0.079,0 -0.10596,0.06108 -0.0599,0.135783 0.0462,0.07467 0.11088,0.135768 0.14379,0.135768 0.0329,0 0.0599,-0.06108 0.0599,-0.135768 z m 4.20899,0.135768 c 0,-0.447076 0.0466,-0.543099 0.26354,-0.543099 0.14494,0 0.30313,0.06409 0.35152,0.14237 0.0601,0.09732 0.1486,0.09206 0.27957,-0.01666 0.25296,-0.209952 0.5289,0.01591 0.56593,0.463194 0.0312,0.377024 -0.30853,0.585144 -0.58314,0.357236 -0.12128,-0.100638 -0.20118,-0.101341 -0.26236,-0.0022 -0.0484,0.0783 -0.20658,0.142361 -0.35152,0.142361 -0.21695,0 -0.26354,-0.09602 -0.26354,-0.543091 z m 0.5431,0 c 0,-0.150863 -0.0905,-0.271552 -0.20365,-0.271552 -0.11311,0 -0.20367,0.120694 -0.20367,0.271552 0,0.150857 0.0905,0.271547 0.20367,0.271547 0.11311,0 0.20365,-0.120695 0.20365,-0.271547 z m 0.55406,0.08109 c -0.12141,-0.146256 -0.11734,-0.206793 0.0172,-0.26083 0.12043,-0.04833 0.12464,-0.07376 0.0141,-0.08109 -0.089,-0.006 -0.19948,0.05034 -0.24562,0.125059 -0.10292,0.166533 0.032,0.407319 0.2283,0.407319 0.0954,0 0.0908,-0.06447 -0.0141,-0.190457 z m 25.78609,-0.08109 V 19.5347 h -5.09153 -5.09153 v 0.950416 0.950417 h 5.09153 5.09153 z m -8.20224,0.442025 c -0.16189,-0.161871 -0.0741,-0.860133 0.11734,-0.933607 0.10854,-0.04164 0.33244,0.01891 0.49754,0.13452 0.27267,0.190987 0.33629,0.188984 0.69429,-0.02184 0.37476,-0.220675 0.40097,-0.219917 0.53306,0.01545 0.13181,0.234851 0.15221,0.235511 0.39819,0.01292 0.24896,-0.225313 0.25925,-0.220321 0.25925,0.125859 0,0.455931 0.2147,0.46973 0.3273,0.02102 0.0469,-0.186689 0.13531,-0.339436 0.19659,-0.339436 0.14216,0 0.42718,0.619686 0.42444,0.922862 -0.001,0.19862 -0.0204,0.2025 -0.13166,0.02754 -0.10713,-0.168401 -0.17728,-0.174074 -0.40523,-0.03278 -0.22154,0.137313 -0.27611,0.137313 -0.27777,0 -0.001,-0.115442 -0.0448,-0.104799 -0.13376,0.03278 -0.0877,0.135768 -0.13236,0.147089 -0.13376,0.03392 -0.002,-0.200631 -0.4923,-0.229328 -0.61188,-0.03588 -0.0876,0.141717 -0.443,0.125213 -0.69505,-0.03227 -0.083,-0.05185 -0.18976,-0.05523 -0.23739,-0.0076 -0.11875,0.118672 -0.72327,0.174952 -0.82171,0.07649 z m 0.28149,-0.611746 c -0.0376,-0.09333 -0.0685,-0.01696 -0.0685,0.169721 0,0.186688 0.0308,0.263058 0.0685,0.169715 0.0376,-0.09334 0.0376,-0.246092 0,-0.339436 z m 0.41015,0.14426 c -0.0434,-0.108315 -0.0755,-0.07614 -0.0819,0.08204 -0.006,0.143128 0.0263,0.223317 0.0713,0.178203 0.045,-0.0451 0.0499,-0.162226 0.0117,-0.260238 z m 0.5431,0 c -0.0434,-0.108315 -0.0755,-0.07614 -0.0821,0.08204 -0.006,0.143128 0.0263,0.223317 0.0713,0.178203 0.045,-0.0451 0.0499,-0.162226 0.0117,-0.260238 z m 0.45034,-0.110307 c 0,-0.07468 -0.0647,-0.135783 -0.14379,-0.135783 -0.079,0 -0.10596,0.06108 -0.0599,0.135783 0.0462,0.07467 0.11088,0.135768 0.14379,0.135768 0.0329,0 0.0599,-0.06108 0.0599,-0.135768 z m 1.90084,0.126322 c 0,-0.495342 0.0315,-0.548044 0.30548,-0.509151 0.20456,0.02904 0.32357,0.155539 0.36017,0.382826 l 0.0546,0.339429 0.0872,-0.339429 c 0.0481,-0.186696 0.17336,-0.339435 0.27865,-0.339435 0.10526,0 0.23391,0.152739 0.28582,0.339435 l 0.0945,0.339429 0.0141,-0.373378 c 0.0117,-0.304143 0.0765,-0.373378 0.35296,-0.373378 0.38743,0 0.45896,0.220407 0.10186,0.313727 -0.22628,0.05913 -0.22628,0.06288 0,0.07784 0.13068,0.0086 0.23761,0.07234 0.23761,0.141567 0,0.06918 -0.1069,0.153759 -0.23761,0.18791 -0.22628,0.05913 -0.22628,0.06281 0,0.07784 0.13068,0.0086 0.23761,0.07684 0.23761,0.151524 0,0.180251 -0.50291,0.174862 -0.61506,-0.0067 -0.0602,-0.09732 -0.1486,-0.09206 -0.27955,0.01666 -0.14638,0.12148 -0.23679,0.12148 -0.38315,0 -0.13096,-0.108678 -0.21942,-0.113941 -0.27957,-0.01666 -0.0484,0.07831 -0.20657,0.14237 -0.35152,0.14237 -0.21769,0 -0.26352,-0.09611 -0.26352,-0.552539 z m 0.54309,0.227631 c 0,-0.02934 -0.0917,-0.08852 -0.20366,-0.131516 -0.11206,-0.04299 -0.20364,-0.01899 -0.20364,0.05335 0,0.07234 0.0916,0.131516 0.20364,0.131516 0.11205,0 0.20366,-0.02402 0.20366,-0.05335 z m 2.67022,0.234393 c -0.14649,-0.146496 -0.10362,-0.835806 0.0582,-0.935837 0.0818,-0.05059 0.24543,0.0045 0.36353,0.122744 0.17489,0.174907 0.18561,0.278561 0.0578,0.559156 -0.15678,0.344103 -0.30888,0.424638 -0.47956,0.253935 z m 0.31681,-0.588349 c 0,-0.07467 -0.0611,-0.135783 -0.13573,-0.135783 -0.0747,0 -0.13573,0.06108 -0.13573,0.135783 0,0.07466 0.0611,0.135768 0.13573,0.135768 0.0747,0 0.13573,-0.06109 0.13573,-0.135768 z m -1.22196,0.06792 c 0,-0.416377 0.042,-0.47521 0.33943,-0.47521 0.38743,0 0.45896,0.220405 0.10185,0.313726 -0.21958,0.05741 -0.21898,0.06326 0.008,0.07784 0.13503,0.0086 0.20724,0.07784 0.16033,0.153738 -0.0469,0.07589 -0.14215,0.102841 -0.21167,0.05987 -0.0695,-0.04299 -0.12647,0.01711 -0.12647,0.133565 0,0.116414 -0.0611,0.211671 -0.13572,0.211671 -0.0747,0 -0.13573,-0.213848 -0.13573,-0.475209 z M 181.93236,12.202863 V 8.4011957 h -3.80166 -3.80167 v 3.8016673 3.80167 h 3.80167 3.80166 z M 158.8508,42.819875 c 0,-0.351667 -0.0584,-0.475209 -0.22471,-0.475209 -0.20207,0 -0.19995,-0.02731 0.0211,-0.271546 0.38263,-0.422814 0.47521,-0.330241 0.47521,0.47521 0,0.410717 -0.0611,0.746753 -0.13572,0.746753 -0.0747,0 -0.13573,-0.213838 -0.13573,-0.475208 z m 0.68889,0.283642 c -0.10009,-0.120567 -0.10971,-0.222041 -0.0261,-0.273767 0.0731,-0.04516 0.17135,-0.02011 0.21827,0.05584 0.14492,0.234483 0.34079,0.152455 0.34079,-0.142707 0,-0.222304 -0.0587,-0.262097 -0.28175,-0.191273 -0.24569,0.07797 -0.27612,0.04 -0.2376,-0.29634 0.035,-0.30647 0.12084,-0.394606 0.41752,-0.428734 0.20535,-0.02364 0.37337,0.0222 0.37337,0.101833 0,0.07964 -0.1374,0.148928 -0.30549,0.153985 l -0.30548,0.0091 0.30548,0.14733 c 0.53257,0.256845 0.35691,1.056255 -0.23207,1.056255 -0.0594,0 -0.1796,-0.08621 -0.26705,-0.191574 z m 1.44954,0.113554 c -0.056,-0.05666 -0.10185,-0.271035 -0.10185,-0.476395 0,-0.205359 -0.0758,-0.398651 -0.16851,-0.429545 -0.12028,-0.04007 -0.099,-0.125634 0.0744,-0.299026 0.32953,-0.329523 0.38807,-0.22577 0.33939,0.601594 -0.0229,0.388512 -0.0874,0.660029 -0.1434,0.603372 z m 33.97744,-3.379962 c 0,-0.362842 -0.0468,-0.453003 -0.20367,-0.392798 -0.29916,0.114797 -0.2485,-0.188895 0.059,-0.353446 0.39895,-0.213508 0.41624,-0.19114 0.41624,0.538318 0,0.373385 -0.0611,0.678872 -0.13573,0.678872 -0.0747,0 -0.13572,-0.211925 -0.13572,-0.470946 z m 0.6102,0.333919 c -0.13909,-0.225175 0.0332,-0.333057 0.2476,-0.155042 0.2053,0.170396 0.36415,0.07691 0.36415,-0.214304 0,-0.10535 -0.10549,-0.17168 -0.2376,-0.14931 -0.25945,0.04398 -0.30549,-0.02095 -0.30549,-0.430507 0,-0.211204 0.0905,-0.271545 0.40732,-0.271545 0.46762,0 0.56472,0.26711 0.10186,0.280152 l -0.3055,0.0086 0.31461,0.126167 c 0.46659,0.187109 0.36986,0.858566 -0.13208,0.916649 -0.19829,0.02296 -0.40298,-0.02694 -0.45486,-0.110859 z m 1.15485,0.06476 c 0,-0.03978 0.0886,-0.28413 0.19673,-0.543099 0.18532,-0.443519 0.18138,-0.470849 -0.068,-0.470849 -0.14553,0 -0.26461,-0.06108 -0.26461,-0.135769 0,-0.07467 0.21894,-0.135768 0.48653,-0.135768 0.26758,0 0.46179,0.04585 0.43155,0.101833 -0.0301,0.05598 -0.16677,0.361499 -0.30345,0.678865 -0.1367,0.317374 -0.30033,0.57704 -0.36368,0.57704 -0.0633,0 -0.11522,-0.03249 -0.11522,-0.07227 z m -12.89852,-0.53874 c 0,-0.351667 -0.0584,-0.475208 -0.22472,-0.475208 -0.20207,0 -0.19995,-0.02731 0.0211,-0.271545 0.38265,-0.422815 0.47522,-0.330243 0.47522,0.475209 0,0.410717 -0.0611,0.746753 -0.13573,0.746753 -0.0747,0 -0.13573,-0.213845 -0.13573,-0.475209 z m 0.68891,0.283636 c -0.10865,-0.130968 -0.11393,-0.219415 -0.0166,-0.279559 0.0783,-0.0484 0.14236,-0.02325 0.14236,0.05583 0,0.07908 0.0961,0.143787 0.21361,0.143787 0.13095,0 0.19532,-0.09197 0.16637,-0.237603 -0.0309,-0.155188 -0.14862,-0.223452 -0.33949,-0.196805 -0.25843,0.0361 -0.28056,-0.0029 -0.19134,-0.339436 0.0741,-0.279163 0.19777,-0.391657 0.46531,-0.423197 0.20043,-0.02364 0.36441,0.0222 0.36441,0.101833 0,0.07964 -0.12226,0.144792 -0.27156,0.144792 -0.14935,0 -0.27154,0.06108 -0.27154,0.135768 0,0.07468 0.0936,0.135769 0.20792,0.135769 0.1144,0 0.24421,0.09458 0.28856,0.210138 0.0614,0.160103 0.1586,0.09543 0.40795,-0.271544 0.39773,-0.585288 0.58907,-0.613054 0.58907,-0.08548 0,0.217921 0.0299,0.477588 0.0666,0.57704 0.0925,0.251764 -0.17098,0.633479 -0.30406,0.440457 -0.16863,-0.244553 -0.68737,-0.318117 -0.76767,-0.108866 -0.0939,0.244606 -0.54579,0.242842 -0.74976,-0.0029 z m 1.48346,-0.55518 c 0,-0.112019 -0.024,-0.203664 -0.0533,-0.203664 -0.0293,0 -0.0886,0.09166 -0.13151,0.203664 -0.043,0.112018 -0.019,0.203654 0.0533,0.203654 0.0723,0 0.13151,-0.09164 0.13151,-0.203654 z m -27.56209,-5.295163 c 0,-0.261363 -0.0611,-0.475208 -0.13574,-0.475208 -0.22415,0 -0.15368,-0.195034 0.13574,-0.375817 0.2592,-0.161873 0.27154,-0.135587 0.27154,0.578324 0,0.411355 -0.0611,0.74791 -0.13572,0.74791 -0.0747,0 -0.13573,-0.213846 -0.13573,-0.475209 z m 0.76938,0.384694 c -0.0497,-0.04976 -0.0905,-0.179463 -0.0905,-0.288175 0,-0.162713 0.037,-0.166931 0.20941,-0.02386 0.14882,0.123501 0.25149,0.131725 0.35477,0.02844 0.20989,-0.209884 0.025,-0.427182 -0.29276,-0.34408 -0.28237,0.07384 -0.35257,-0.134323 -0.18899,-0.560576 0.0902,-0.235309 0.66699,-0.294375 0.79839,-0.08178 0.0524,0.08465 0.17208,0.07686 0.32946,-0.02139 0.61243,-0.382471 0.9858,0.480882 0.38879,0.899037 l -0.30175,0.211362 h 0.30175 c 0.16598,0 0.30176,0.06108 0.30176,0.135768 0,0.07468 -0.21384,0.135769 -0.47521,0.135769 -0.56369,0 -0.59225,-0.114235 -0.13573,-0.543099 0.32795,-0.308076 0.45402,-0.678863 0.23083,-0.678863 -0.0598,0 -0.17505,0.06641 -0.25623,0.147598 -0.10631,0.106299 -0.17313,0.106299 -0.23883,0 -0.12253,-0.198215 -0.75406,-0.189164 -0.75406,0.01078 0,0.08712 0.0386,0.119823 0.0858,0.07263 0.14681,-0.14681 0.59314,0.173309 0.59314,0.425426 0,0.430815 -0.58238,0.75248 -0.8599,0.474953 z m 26.11385,-0.373378 c 0,-0.255141 -0.0758,-0.489174 -0.16851,-0.52006 -0.12253,-0.04081 -0.10666,-0.118013 0.0581,-0.28287 0.34289,-0.342888 0.38188,-0.289804 0.38188,0.520067 0,0.410711 -0.0611,0.746756 -0.13574,0.746756 -0.0747,0 -0.13573,-0.208751 -0.13573,-0.463893 z m 0.69668,0.281684 c -0.19387,-0.233582 -0.0311,-0.405157 0.20136,-0.212247 0.22669,0.188136 0.47123,0.0394 0.36981,-0.224923 -0.0502,-0.130603 -0.17309,-0.173189 -0.34372,-0.119037 -0.22691,0.07205 -0.25924,0.02807 -0.22153,-0.30145 0.035,-0.306462 0.12099,-0.394599 0.41754,-0.428728 0.20535,-0.02364 0.37338,0.02222 0.37338,0.101833 0,0.07964 -0.13741,0.148927 -0.3055,0.153977 l -0.30549,0.0091 0.29757,0.143802 c 0.37786,0.182599 0.48669,0.464464 0.30815,0.798077 -0.16205,0.302776 -0.57209,0.34396 -0.79157,0.07949 z m 1.08618,0 c -0.19385,-0.233582 -0.0311,-0.405157 0.20136,-0.212247 0.097,0.08045 0.243,0.105033 0.32458,0.05463 0.2378,-0.146962 -0.10303,-0.45813 -0.41296,-0.377069 -0.30531,0.07983 -0.31527,0.04803 -0.13418,-0.428336 0.0939,-0.246926 0.23216,-0.348276 0.47521,-0.348276 0.18852,0 0.3428,0.06108 0.3428,0.135782 0,0.07466 -0.12226,0.135768 -0.27156,0.135768 -0.14935,0 -0.27154,0.06108 -0.27154,0.135768 0,0.07468 0.0459,0.12854 0.10185,0.119698 0.43854,-0.06927 0.65928,0.287589 0.43602,0.704782 -0.16205,0.302779 -0.5721,0.343968 -0.79158,0.07952 z m 5.95626,-0.293 c 0,-0.351668 -0.0584,-0.475208 -0.22472,-0.475208 -0.20206,0 -0.19995,-0.02731 0.0211,-0.271547 0.38266,-0.422814 0.47521,-0.330243 0.47521,0.475208 0,0.410711 -0.0611,0.746756 -0.13572,0.746756 -0.0747,0 -0.13573,-0.213846 -0.13573,-0.475209 z m 0.6889,0.283634 c -0.10866,-0.130967 -0.11393,-0.219412 -0.0165,-0.279559 0.0783,-0.04841 0.14238,-0.02326 0.14238,0.05584 0,0.07908 0.0961,0.143788 0.21361,0.143788 0.13095,0 0.19533,-0.09198 0.16636,-0.237605 -0.0325,-0.163238 -0.14777,-0.2233 -0.36842,-0.191904 -0.25281,0.03595 -0.30268,-0.0022 -0.23425,-0.18082 0.0478,-0.124595 0.0868,-0.313179 0.0868,-0.419084 0,-0.123432 0.14621,-0.192557 0.40732,-0.192557 0.22403,0 0.40732,0.06108 0.40732,0.135782 0,0.07468 -0.12225,0.135768 -0.27155,0.135768 -0.14934,0 -0.27154,0.05395 -0.27154,0.119936 0,0.06597 0.12226,0.151891 0.27154,0.190943 0.33206,0.08684 0.37454,0.706735 0.0568,0.828669 -0.31608,0.121284 -0.41357,0.103252 -0.58984,-0.109158 z m 1.03091,0.10106 c -0.0497,-0.04976 -0.0905,-0.351158 -0.0905,-0.669725 0,-0.459089 0.056,-0.596994 0.27032,-0.665004 0.14869,-0.0472 0.32374,-0.05276 0.38903,-0.01249 0.19505,0.120553 0.2957,1.064833 0.13431,1.259386 -0.15717,0.189367 -0.55218,0.238692 -0.70308,0.08778 z m 0.55723,-0.342267 c -0.0839,-0.251756 -0.3762,-0.29351 -0.3762,-0.05373 0,0.118237 0.0967,0.214978 0.21496,0.214978 0.11819,0 0.1908,-0.07256 0.16124,-0.161235 z M 195.2382,33.51936 c 0,-0.07467 -0.0611,-0.135768 -0.13572,-0.135768 -0.0747,0 -0.13573,0.06108 -0.13573,0.135768 0,0.07467 0.0611,0.135768 0.13573,0.135768 0.0747,0 0.13572,-0.06108 0.13572,-0.135768 z M 159.2128,23.245801 c -0.17954,-0.179551 -0.0846,-0.31296 0.20001,-0.281264 0.15979,0.01778 0.31762,-0.04405 0.35075,-0.137382 0.0384,-0.108256 -0.0702,-0.169715 -0.29996,-0.169715 -0.29588,0 -0.35245,-0.05456 -0.31682,-0.305493 0.0311,-0.218732 0.14942,-0.31769 0.41677,-0.348448 0.20536,-0.02364 0.37337,0.0222 0.37337,0.101833 0,0.07964 -0.1374,0.148665 -0.30548,0.153399 -0.29091,0.0081 -0.29253,0.01403 -0.034,0.122912 0.14934,0.06288 0.37788,0.242285 0.50782,0.398711 0.2743,0.330175 0.64625,0.376649 0.64625,0.08075 0,-0.112019 -0.0686,-0.203664 -0.15239,-0.203664 -0.10432,0 -0.0981,-0.06544 0.0193,-0.206941 0.22303,-0.268726 0.0655,-0.426124 -0.2031,-0.203101 -0.16994,0.141017 -0.20694,0.13494 -0.20694,-0.03399 0,-0.283035 0.41696,-0.41913 0.63035,-0.205743 0.20205,0.202058 0.28534,0.919546 0.13502,1.162839 -0.13109,0.212014 -0.52751,0.213575 -0.73819,0.0029 -0.12674,-0.126715 -0.19912,-0.126715 -0.32583,0 -0.17753,0.17752 -0.55289,0.216518 -0.697,0.07241 z m 26.9285,-0.38043 c 0,-0.362843 -0.0468,-0.453011 -0.20368,-0.3928 -0.33071,0.126912 -0.23246,-0.172324 0.13573,-0.41362 l 0.33944,-0.222409 v 0.749884 c 0,0.412444 -0.0611,0.74989 -0.13573,0.74989 -0.0747,0 -0.13573,-0.211925 -0.13573,-0.470945 z m 0.62794,0.262525 c -0.0592,-0.154525 -0.001,-0.198409 0.22309,-0.169714 0.16667,0.02131 0.31753,-0.02245 0.33523,-0.09707 0.0177,-0.07466 -0.0887,-0.137508 -0.23648,-0.139628 -0.14778,-0.0022 -0.26919,-0.04795 -0.26981,-0.101833 -0.007,-0.62358 0.005,-0.641072 0.40622,-0.641072 0.46881,0 0.56224,0.263561 0.10185,0.287296 -0.27733,0.01433 -0.28046,0.022 -0.034,0.08359 0.14937,0.0373 0.3093,0.127685 0.35543,0.200813 0.0462,0.07316 0.12197,-0.01884 0.16854,-0.204391 0.0466,-0.185548 0.17685,-0.372732 0.2895,-0.415964 0.39935,-0.153243 0.57776,0.05044 0.59027,0.673732 0.0141,0.682233 -0.2291,0.895598 -0.69098,0.607168 -0.19334,-0.12075 -0.3111,-0.126813 -0.41647,-0.02146 -0.21684,0.216848 -0.73034,0.178449 -0.82241,-0.06154 z m 1.68021,-0.266788 c 0,-0.112019 -0.0574,-0.203664 -0.12772,-0.203664 -0.17122,0 -0.29383,0.212023 -0.18536,0.320497 0.1529,0.152904 0.3131,0.09312 0.3131,-0.116837 z m 0,-0.610982 c 0,-0.07467 -0.0574,-0.135782 -0.12772,-0.135782 -0.0702,0 -0.16553,0.06108 -0.21168,0.135782 -0.0462,0.07468 0.0117,0.135769 0.12773,0.135769 0.11639,0 0.21166,-0.06108 0.21166,-0.135769 z m 4.61632,0.615245 c 0,-0.362843 -0.0468,-0.453011 -0.20367,-0.3928 -0.11205,0.04301 -0.20365,0.01996 -0.20365,-0.0511 0,-0.192339 0.48298,-0.593511 0.58806,-0.488445 0.14511,0.145107 0.10479,1.403293 -0.0449,1.403293 -0.0747,0 -0.13573,-0.211925 -0.13573,-0.470945 z m 0.63985,0.386659 c -0.20367,-0.20367 -0.0829,-0.324712 0.24268,-0.243016 0.26064,0.06544 0.33943,0.03249 0.33943,-0.141723 0,-0.157392 -0.0936,-0.213899 -0.3055,-0.184436 -0.25257,0.03512 -0.29908,-0.01486 -0.26861,-0.288574 0.0478,-0.429162 0.0707,-0.445844 0.52776,-0.383538 l 0.38579,0.0526 -0.32943,0.139179 -0.32942,0.139179 0.30547,0.07988 c 0.24117,0.06304 0.29624,0.160612 0.26154,0.46336 -0.0339,0.295048 -0.12338,0.392745 -0.38845,0.423653 -0.18948,0.02206 -0.38805,-0.0029 -0.44126,-0.05658 z m 1.07996,-0.006 c -0.18327,-0.183266 -0.083,-0.332696 0.1696,-0.252545 0.14307,0.04541 0.30526,0.0095 0.36041,-0.07973 0.0604,-0.0976 0.0427,-0.126686 -0.0442,-0.07294 -0.43241,0.267238 -0.79111,-0.457138 -0.4134,-0.834838 0.21472,-0.214717 0.31804,-0.205645 0.57412,0.05044 0.25249,0.2525 0.2811,0.886549 0.0504,1.117228 -0.17751,0.177518 -0.55288,0.216517 -0.69698,0.07241 z m 0.52045,-0.837275 c 0,-0.245567 -0.26573,-0.200737 -0.31845,0.05373 -0.0293,0.141574 0.0216,0.203647 0.13573,0.165579 0.10045,-0.03346 0.18267,-0.132175 0.18267,-0.219303 z m -10.57301,-4.710589 c -0.26553,-0.69193 0.11639,-1.405785 0.61045,-1.141324 0.2151,0.115137 0.26116,0.258918 0.22816,0.712543 -0.0363,0.499576 -0.0844,0.573311 -0.39736,0.609602 -0.23199,0.02693 -0.38571,-0.0361 -0.44125,-0.180821 z m 0.5683,-0.50539 c -0.0234,-0.242699 -0.10362,-0.441268 -0.17833,-0.441268 -0.0747,0 -0.15491,0.198569 -0.17832,0.441268 -0.0322,0.33443 0.0117,0.441266 0.17832,0.441266 0.16739,0 0.21056,-0.106838 0.17833,-0.441266 z m -28.9434,-5.626961 c -0.0477,-0.04772 -0.0868,-0.385646 -0.0868,-0.750873 V 10.15092 l 0.57704,0.04173 c 0.56101,0.04059 0.57705,0.05494 0.57705,0.516962 0,0.261362 0.0469,0.547361 0.10396,0.635543 0.0573,0.08819 0.0447,0.197058 -0.0279,0.241933 -0.0726,0.04487 -0.23337,-0.07308 -0.35726,-0.262165 -0.26863,-0.409976 -0.46556,-0.443908 -0.46556,-0.08023 0,0.283387 -0.17894,0.462684 -0.3205,0.321126 z m 0.86358,-0.991981 c 0,-0.07467 -0.12225,-0.135768 -0.27153,-0.135768 -0.14936,0 -0.27156,0.06108 -0.27156,0.135768 0,0.07468 0.12226,0.135768 0.27156,0.135768 0.14934,0 0.27153,-0.06108 0.27153,-0.135768 z m 0.5431,0.335299 v -0.742625 h 0.47521 c 0.26137,0 0.47521,0.06108 0.47521,0.135783 0,0.07467 -0.15275,0.135768 -0.33943,0.135768 -0.1867,0 -0.33944,0.06108 -0.33944,0.135768 0,0.07468 0.15274,0.135768 0.33944,0.135768 0.18668,0 0.33943,0.06108 0.33943,0.135768 0,0.07467 -0.15275,0.135769 -0.33943,0.135769 -0.21121,0 -0.33944,0.07695 -0.33944,0.203664 0,0.136652 0.13671,0.203661 0.41534,0.203661 0.57464,0 0.38741,0.222889 -0.20596,0.245199 l -0.48093,0.0181 z m 1.90084,0.0044 c 0,-0.473947 0.0513,-0.731009 0.13573,-0.67887 0.0747,0.04615 0.13573,0.351644 0.13573,0.67887 0,0.327227 -0.0611,0.632715 -0.13573,0.678873 -0.0844,0.05216 -0.13573,-0.204924 -0.13573,-0.678873 z m 0.50821,0.666611 c -0.0555,-0.05545 -0.10091,-0.396198 -0.10091,-0.757126 0,-0.651901 0.002,-0.656245 0.44805,-0.656245 0.24642,0 0.52137,0.0733 0.61097,0.162931 0.18364,0.183625 0.21355,0.769146 0.0522,1.023049 -0.12843,0.202281 -0.86888,0.368911 -1.01041,0.227391 z m 0.75475,-0.478435 c 0.19094,-0.303236 0.0236,-0.663384 -0.30829,-0.663384 -0.22576,0 -0.2758,0.08801 -0.2758,0.48516 0,0.3773 0.0496,0.475411 0.22305,0.441267 0.12267,-0.02417 0.28515,-0.142512 0.36104,-0.263043 z m 1.2828,0.411932 c -0.27653,-0.161069 -0.32524,-0.933366 -0.0747,-1.183937 0.21763,-0.217615 0.71771,-0.206966 0.90548,0.01928 0.19578,0.235908 0.03,0.404256 -0.20558,0.208743 -0.27332,-0.226829 -0.59128,-0.03549 -0.59128,0.355802 0,0.433358 0.38076,0.609368 0.61759,0.285481 0.12605,-0.17231 0.19774,-0.190561 0.27267,-0.06934 0.0592,0.09575 -0.002,0.240995 -0.14871,0.347555 -0.29548,0.216068 -0.45424,0.223526 -0.77548,0.03639 z m 1.35774,0 c -0.27653,-0.161069 -0.32525,-0.933366 -0.0747,-1.183937 0.38779,-0.3877797 1.19481,-0.03271 1.19481,0.525643 0,0.295724 -0.45517,0.807079 -0.71281,0.800813 -0.0933,-0.0022 -0.27664,-0.06641 -0.40733,-0.142519 z m 0.70754,-0.386613 c 0.19606,-0.366323 0.0312,-0.711718 -0.31613,-0.661943 -0.29512,0.04231 -0.43785,0.382577 -0.30533,0.727927 0.10713,0.279057 0.45668,0.241942 0.62146,-0.06597 z m 0.54837,-0.213495 c 0,-0.724632 0.0117,-0.746693 0.37338,-0.744675 0.49513,0.0029 0.67291,0.131166 0.7817,0.564554 0.11182,0.445747 -0.31152,0.926876 -0.81564,0.926876 -0.32093,0 -0.33944,-0.04074 -0.33944,-0.746755 z m 0.79014,0.25226 c 0.18062,-0.322746 0.0343,-0.727468 -0.26288,-0.727468 -0.20172,0 -0.25571,0.100333 -0.25571,0.475208 0,0.51475 0.29216,0.65687 0.51859,0.25226 z m 0.5676,-0.25226 v -0.746734 h 0.54311 c 0.29869,0 0.54308,0.06108 0.54308,0.135782 0,0.07468 -0.18329,0.135769 -0.40732,0.135769 -0.22402,0 -0.40733,0.06108 -0.40733,0.135768 0,0.07467 0.15275,0.135768 0.33944,0.135768 0.18669,0 0.33944,0.06108 0.33944,0.135768 0,0.07468 -0.15275,0.135768 -0.33944,0.135768 -0.21121,0 -0.33944,0.07695 -0.33944,0.203664 0,0.136654 0.1367,0.203663 0.41535,0.203663 0.24231,0 0.38036,0.05658 0.3314,0.135768 -0.0462,0.07467 -0.29414,0.135768 -0.55109,0.135768 h -0.4672 z m 1.39168,0.659346 c -0.18562,-0.07764 -0.23631,-0.455682 -0.0611,-0.455682 0.0598,0 0.18195,0.0733 0.27155,0.162923 0.12576,0.125718 0.19973,0.126125 0.32407,0.0015 0.12437,-0.124358 0.0606,-0.196181 -0.27891,-0.314553 -0.33614,-0.117176 -0.43031,-0.221807 -0.39875,-0.443054 0.0261,-0.183011 0.15653,-0.305966 0.35428,-0.334003 0.35272,-0.04998 0.74499,0.209788 0.62063,0.411012 -0.0517,0.08356 -0.136,0.0779 -0.22931,-0.01538 -0.18511,-0.185091 -0.50063,-0.192549 -0.50063,-0.01179 0,0.07468 0.11463,0.135768 0.25493,0.135768 0.14022,0 0.33523,0.09676 0.43338,0.21504 0.33059,0.398336 -0.24957,0.874099 -0.79015,0.647969 z m 18.83862,-0.659506 V 10.15046 l 0.50917,0.04217 c 0.4801,0.03978 0.50997,0.06927 0.52358,0.517344 0.008,0.261362 0.0602,0.582128 0.11639,0.712813 0.15513,0.361654 -0.13601,0.285615 -0.38984,-0.101833 -0.26576,-0.405586 -0.48771,-0.440128 -0.48771,-0.07589 0,0.144943 -0.0611,0.301292 -0.13573,0.34745 -0.0844,0.05216 -0.13572,-0.204982 -0.13572,-0.679059 z m 0.81466,-0.339248 c 0,-0.07468 -0.12226,-0.135768 -0.27155,-0.135768 -0.14936,0 -0.27155,0.06108 -0.27155,0.135768 0,0.07467 0.12225,0.135768 0.27155,0.135768 0.14935,0 0.27155,-0.06108 0.27155,-0.135768 z m 0.613,0.975066 c -0.0384,-0.03841 -0.0699,-0.365219 -0.0699,-0.726147 v -0.656245 h 0.54309 c 0.29871,0 0.54311,0.06108 0.54311,0.135782 0,0.07468 -0.1833,0.135769 -0.40732,0.135769 -0.22404,0 -0.40733,0.06108 -0.40733,0.135768 0,0.07467 0.15274,0.135768 0.33944,0.135768 0.18668,0 0.33942,0.06108 0.33942,0.135768 0,0.07468 -0.15274,0.135768 -0.33942,0.135768 -0.21122,0 -0.33944,0.07695 -0.33944,0.203664 0,0.136654 0.1367,0.203663 0.41535,0.203663 0.22843,0 0.38011,0.05695 0.33706,0.126631 -0.081,0.130925 -0.83037,0.157474 -0.95405,0.03377 z m 2.37401,-0.635632 c 0,-0.727363 0.009,-0.74676 0.38017,-0.74676 0.4988,0 0.70604,0.225762 0.70604,0.769138 0,0.470443 -0.28245,0.724377 -0.80572,0.724377 -0.24945,0 -0.28049,-0.08259 -0.28049,-0.746755 z m 0.78931,-0.03505 c 0.0356,-0.367884 -0.005,-0.440148 -0.2376,-0.440148 -0.23075,0 -0.28014,0.08555 -0.28014,0.485159 0,0.388693 0.0474,0.476215 0.23759,0.440156 0.15649,-0.02964 0.25213,-0.195281 0.28015,-0.485167 z m 1.20047,0.533517 c -0.26985,-0.298172 -0.28867,-0.698525 -0.0483,-1.027253 0.23266,-0.318169 0.95635,-0.250256 1.02202,0.0959 0.0403,0.212224 0.009,0.223256 -0.21846,0.08041 -0.54421,-0.339864 -0.99587,0.284331 -0.50221,0.694029 0.16876,0.140063 0.25506,0.126912 0.47521,-0.07234 0.23828,-0.215639 0.269,-0.218326 0.269,-0.02348 0,0.207919 -0.37963,0.50103 -0.64891,0.50103 -0.068,0 -0.22476,-0.111726 -0.34835,-0.248296 z m 1.43479,0.03693 c -0.54626,-0.382616 -0.29739,-1.282155 0.35473,-1.282155 0.20648,0 0.44871,0.0733 0.53833,0.162931 0.23067,0.230686 0.20206,0.864735 -0.0504,1.117227 -0.26846,0.268453 -0.46156,0.268911 -0.84263,0.0022 z m 0.62659,-0.179448 c 0.1,-0.06333 0.16099,-0.260943 0.13572,-0.439189 -0.0342,-0.242407 -0.13095,-0.324082 -0.3834,-0.324082 -0.38389,0 -0.52894,0.37096 -0.26799,0.685393 0.18776,0.226234 0.26351,0.23768 0.51561,0.07789 z m 0.65568,0.300294 c -0.0497,-0.04976 -0.0905,-0.385827 -0.0905,-0.746754 0,-0.651902 0.002,-0.656247 0.44807,-0.656247 0.54157,0 0.77391,0.205644 0.77391,0.684987 0,0.566707 -0.78477,1.064706 -1.13145,0.718014 z m 0.76513,-0.468065 c 0.19093,-0.303236 0.0236,-0.663383 -0.30827,-0.663383 -0.22579,0 -0.27583,0.08801 -0.27583,0.48516 0,0.377301 0.0496,0.475411 0.22306,0.441268 0.12267,-0.02417 0.28514,-0.142513 0.36104,-0.263045 z m 0.56449,0.439947 c -0.0342,-0.03428 -0.0624,-0.357709 -0.0624,-0.718636 v -0.656246 h 0.54308 c 0.29872,0 0.54311,0.06108 0.54311,0.135782 0,0.07468 -0.18329,0.135769 -0.40732,0.135769 -0.22402,0 -0.40732,0.06108 -0.40732,0.135768 0,0.07468 0.1833,0.135769 0.40732,0.135769 0.22403,0 0.40732,0.06108 0.40732,0.135768 0,0.07467 -0.18329,0.135768 -0.40732,0.135768 -0.27155,0 -0.40732,0.06792 -0.40732,0.203664 0,0.135768 0.13573,0.203662 0.40732,0.203662 0.22403,0 0.40732,0.06304 0.40732,0.140035 0,0.133088 -0.89236,0.14432 -1.02379,0.01292 z m 1.35546,-0.07391 c -0.14485,-0.105912 -0.21661,-0.239307 -0.15948,-0.296444 0.0571,-0.05712 0.17619,-0.0316 0.26456,0.0568 0.0884,0.08835 0.24008,0.160663 0.33717,0.160663 0.297,0 0.19622,-0.270773 -0.14974,-0.402305 -0.43279,-0.164552 -0.54938,-0.378923 -0.34199,-0.628811 0.24051,-0.289788 0.85767,-0.189877 0.91786,0.148582 0.039,0.219617 0.0147,0.23909 -0.12786,0.101833 -0.20361,-0.196218 -0.52913,-0.226153 -0.52913,-0.0487 0,0.06655 0.146,0.157708 0.32446,0.202493 0.41308,0.103685 0.53852,0.42337 0.27107,0.690833 -0.25836,0.258346 -0.46886,0.262263 -0.80697,0.015 z m -7.93501,-0.622087 c 0,-0.373376 0.0611,-0.678871 0.13573,-0.678871 0.0747,0 0.13573,0.305495 0.13573,0.678871 0,0.373377 -0.0611,0.678873 -0.13573,0.678873 -0.0747,0 -0.13573,-0.305496 -0.13573,-0.678873 z m -30.82067,0.271553 c 0,-0.07468 0.12225,-0.135782 0.27154,-0.135782 0.14936,0 0.27155,0.06108 0.27155,0.135782 0,0.07467 -0.12225,0.135768 -0.27155,0.135768 -0.14935,0 -0.27154,-0.06108 -0.27154,-0.135768 z m 30.07392,0 c -0.0476,-0.077 0.0666,-0.135782 0.26354,-0.135782 0.19109,0 0.34745,0.06108 0.34745,0.135782 0,0.07467 -0.11861,0.135768 -0.26354,0.135768 -0.14494,0 -0.30129,-0.06108 -0.34745,-0.135768 z m -33.3325,-2.3130478 c 0,-0.3612886 -0.0692,-0.5739251 -0.20366,-0.6255098 -0.38851,-0.1490764 -0.20083,-0.3206444 0.35075,-0.3206444 0.38619,0 0.53553,0.051479 0.49218,0.1697137 -0.0342,0.093335 -0.13095,0.1544423 -0.21498,0.1357823 -0.0955,-0.021239 -0.15275,0.1948603 -0.15275,0.5770312 0,0.336046 -0.0611,0.6109897 -0.13572,0.6109897 -0.0747,0 -0.13573,-0.2463172 -0.13573,-0.5473615 z m 0.81464,-0.1357682 c 0,-0.7504758 0.15397,-0.9034108 0.75711,-0.75203 0.30622,0.076855 0.34375,0.1480273 0.30517,0.5788562 -0.0274,0.3056367 0.02,0.5131651 0.12577,0.5493049 0.0933,0.031975 0.16972,-0.01008 0.16972,-0.09337 0,-0.083302 0.0931,-0.3741491 0.20678,-0.6463407 0.24242,-0.5801994 0.40066,-0.4965058 0.76723,0.4058031 l 0.23278,0.573018 0.007,-0.6369169 c 0.009,-0.7867878 0.18552,-0.9211952 0.50298,-0.3837849 0.28834,0.4881077 0.40496,0.5189049 0.39471,0.104236 -0.005,-0.1680177 0.0534,-0.3360366 0.12814,-0.3733778 0.0796,-0.039782 0.15275,0.227009 0.17681,0.6449318 0.0489,0.8481948 -0.17705,0.9523664 -0.5888,0.2715445 l -0.26689,-0.4412665 -0.0425,0.4412665 c -0.0321,0.3339432 -0.10748,0.4412678 -0.30977,0.4412678 -0.14694,0 -0.30237,-0.091659 -0.34534,-0.203664 -0.0429,-0.1120189 -0.19575,-0.2036617 -0.33944,-0.2036617 -0.1437,0 -0.29645,0.091659 -0.33944,0.2036617 -0.11182,0.2914259 -0.56011,0.2513608 -0.75946,-0.067901 -0.0933,-0.1493471 -0.24655,-0.2715445 -0.34061,-0.2715445 -0.094,0 -0.17099,0.1221951 -0.17099,0.2715445 0,0.1493554 -0.0611,0.271554 -0.13573,0.271554 -0.0747,0 -0.13573,-0.3074159 -0.13573,-0.6831332 z m 0.81464,-0.3351727 c 0,-0.1131441 -0.1207,-0.203664 -0.27153,-0.203664 -0.15086,0 -0.27156,0.09051 -0.27156,0.203664 0,0.113144 0.12071,0.2036616 0.27156,0.2036616 0.15085,0 0.27153,-0.09051 0.27153,-0.2036616 z m 3.17299,0.8174574 c -0.0461,-0.1200068 -0.0374,-0.2613777 0.0195,-0.3141627 0.0569,-0.052745 0.13054,-0.019586 0.16386,0.073773 0.0689,0.1929322 0.58108,0.2345586 0.58108,0.047201 0,-0.067385 -0.18329,-0.1863882 -0.40731,-0.2644838 -0.42763,-0.1490693 -0.51823,-0.39823 -0.2444,-0.6720579 0.22421,-0.2242088 0.58425,-0.2041504 0.79021,0.044048 0.20829,0.2509553 0.0585,0.4517734 -0.16792,0.2252684 -0.18939,-0.1893982 -0.51367,-0.2134933 -0.51367,-0.038187 0,0.067385 0.18776,0.1879483 0.41724,0.2679427 0.32528,0.1134136 0.40756,0.2135625 0.37337,0.4545501 -0.0339,0.2382647 -0.14519,0.3188592 -0.48606,0.3517136 -0.30896,0.029795 -0.46742,-0.023114 -0.52592,-0.1755755 z m 1.19815,-0.498127 c 0.0393,-0.6878533 0.0624,-0.7290367 0.43144,-0.7712093 0.21445,-0.024532 0.45579,0.021309 0.5363,0.1018332 0.10467,0.1046697 0.0419,0.1463828 -0.22019,0.1463828 -0.43428,0 -0.48814,0.2080993 -0.0815,0.3144627 0.15687,0.041059 0.24656,0.1371302 0.19931,0.2135684 -0.0472,0.076445 -0.17073,0.1064396 -0.27441,0.066646 -0.12042,-0.046216 -0.20465,0.037824 -0.23324,0.2328989 -0.0246,0.1678841 -0.1245,0.3315274 -0.22206,0.3636527 -0.13431,0.044271 -0.16721,-0.1177176 -0.13572,-0.6682298 z m 1.25535,0.3661892 c -0.25841,-0.3943972 -0.15941,-0.8262904 0.23818,-1.0390723 0.34589,-0.18512 0.92405,0.039242 0.92405,0.3586537 0,0.118013 0.0627,0.175824 0.13937,0.1284566 0.0767,-0.047353 0.12253,-0.1862382 0.10186,-0.3085857 -0.0431,-0.2558172 0.30546,-0.3627889 0.78783,-0.2417249 0.33461,0.08397 0.45901,0.5238513 0.19442,0.6873739 -0.0824,0.050882 -0.0502,0.2115571 0.0835,0.4153336 0.17483,0.2668245 0.18096,0.3323597 0.0312,0.3323597 -0.10256,0 -0.26294,-0.1221963 -0.3562,-0.271554 -0.0933,-0.1493483 -0.23017,-0.2715446 -0.30421,-0.2715446 -0.0741,0 -0.13461,0.1221951 -0.13461,0.2715446 0,0.1493553 -0.0611,0.271554 -0.13572,0.271554 -0.13741,0 -0.18425,-0.1718154 -0.14816,-0.5430986 0.0117,-0.113695 -0.10678,-0.038727 -0.26678,0.1697138 -0.36286,0.4727694 -0.85997,0.4902397 -1.15459,0.04059 z m 0.82278,-0.413975 c 0,-0.3168034 -0.0604,-0.4073175 -0.27155,-0.4073175 -0.20848,0 -0.28162,0.1049627 -0.31488,0.4519375 -0.0389,0.4047599 -0.009,0.4472853 0.27154,0.4073256 0.24944,-0.035339 0.31489,-0.12927 0.31489,-0.4519456 z m 1.33097,-0.2696845 c 0.0148,-0.073691 -0.0802,-0.1545114 -0.21084,-0.179672 -0.14861,-0.028588 -0.2376,0.037965 -0.2376,0.1778119 0,0.2362147 0.40125,0.2378815 0.44844,0.00152 z m 0.60381,0.9380655 c -0.12071,-0.1217193 -0.1377,-1.1982652 -0.0206,-1.315262 0.17189,-0.1718833 0.4494,0.077043 0.53858,0.4830958 l 0.0932,0.4245029 0.22056,-0.4546473 c 0.31858,-0.6567115 0.48633,-0.5850098 0.53314,0.2278798 0.025,0.4342866 -0.0148,0.7128123 -0.10186,0.7128123 -0.13362,0 -0.20036,-0.1936002 -0.15559,-0.4513608 0.0117,-0.061536 -0.0431,-0.073234 -0.11973,-0.02588 -0.0765,0.047271 -0.13909,0.1740283 -0.13909,0.2816376 0,0.3461309 -0.37436,0.2082412 -0.48253,-0.1777345 l -0.10455,-0.3733777 -0.0798,0.3855185 c -0.0439,0.2120305 -0.12561,0.339315 -0.18163,0.2828613 z m 1.5543,-0.6344308 c 0.0405,-0.7052733 0.0457,-0.7128146 0.48231,-0.7128146 0.2427,0 0.44076,0.059356 0.44016,0.1319225 -5.5e-4,0.072566 -0.12197,0.133663 -0.26979,0.1357681 -0.14778,0.00223 -0.25421,0.063939 -0.23651,0.1374115 0.0177,0.073456 0.13909,0.1154297 0.26979,0.0933 0.13447,-0.022739 0.2376,0.0442 0.2376,0.154256 0,0.1138473 -0.12169,0.1877678 -0.29342,0.1782526 -0.1614,-0.00903 -0.31924,0.060118 -0.35076,0.1534612 -0.0376,0.1114679 0.0863,0.1697138 0.36132,0.1697138 0.23026,0 0.41865,0.061079 0.41865,0.1357681 0,0.074675 -0.24759,0.1357823 -0.55019,0.1357823 h -0.55019 z m 1.22197,0 c 0.0377,-0.6559402 0.0695,-0.7161153 0.39735,-0.7541316 0.44724,-0.051854 0.79777,0.2867492 0.79777,0.7706174 0,0.4920858 -0.22907,0.6963265 -0.78101,0.6963265 h -0.45516 z m 0.90151,0.049311 c 0.0454,-0.3203607 -0.1578,-0.5523371 -0.4871,-0.5563739 -0.10443,-0.00152 -0.16972,0.1842562 -0.16972,0.4825777 0,0.4249378 0.0376,0.4793051 0.3055,0.4412583 0.20245,-0.02874 0.32095,-0.1526935 0.35132,-0.3674621 z m 16.31493,0.052522 c 0,-0.4628569 -0.0513,-0.6109803 -0.21168,-0.6109803 -0.11639,0 -0.1765,-0.056883 -0.13348,-0.1264628 0.043,-0.069565 0.53286,-0.12468 1.08861,-0.1225046 1.11092,0.00445 1.47476,0.19859 1.19906,0.6400745 -0.10608,0.169872 -0.10022,0.2954018 0.0213,0.4617469 0.14681,0.2007584 0.18611,0.1648729 0.32421,-0.2960992 0.0865,-0.2885062 0.24559,-0.5979475 0.35368,-0.6876517 0.16191,-0.1343652 0.23071,-0.081298 0.39053,0.3012096 0.33411,0.7996213 0.38952,1.0516479 0.23123,1.0516479 -0.0822,0 -0.18435,-0.091647 -0.22734,-0.2036617 -0.0429,-0.1120188 -0.18728,-0.203664 -0.32064,-0.203664 -0.13334,0 -0.27766,0.091659 -0.32066,0.203664 -0.11158,0.2907333 -0.53449,0.251614 -0.73402,-0.067924 -0.0933,-0.1493483 -0.26072,-0.2715458 -0.37209,-0.2715458 -0.11205,0 -0.20253,0.1213676 -0.20253,0.2715458 0,0.1493565 -0.0611,0.2715528 -0.13572,0.2715528 -0.0747,0 -0.13573,-0.2749449 -0.13573,-0.6109885 0,-0.5204663 -0.0403,-0.6109803 -0.27155,-0.6109803 -0.23132,0 -0.27155,0.09051 -0.27155,0.6109803 0,0.3360436 -0.0611,0.6109885 -0.13573,0.6109885 -0.0747,0 -0.13572,-0.2749449 -0.13572,-0.6109885 z m 1.69718,-0.4073186 c 0,-0.074675 -0.13741,-0.1552992 -0.3055,-0.179161 -0.2102,-0.029865 -0.30549,0.026033 -0.30549,0.179161 0,0.1531307 0.0953,0.2090147 0.30549,0.1791621 0.16802,-0.023864 0.3055,-0.1044821 0.3055,-0.1791621 z m 1.83845,0.2456197 0.006,-0.7887183 0.40181,0.4700829 0.4018,0.4700842 V 8.3621292 c 0,-0.2025365 0.0611,-0.368251 0.13573,-0.368251 0.0747,0 0.13572,0.3054949 0.13572,0.6788726 0,0.7697243 -0.12646,0.842965 -0.52747,0.3054855 -0.26433,-0.3542922 -0.27878,-0.3581731 -0.28288,-0.075894 -0.002,0.1636141 -0.0654,0.3352419 -0.14007,0.3813927 -0.0848,0.052382 -0.13377,-0.2123084 -0.13025,-0.7047986 z m 1.34952,0.565745 c -0.20829,-0.2509529 -0.0587,-0.4517734 0.1679,-0.2252743 0.17957,0.1795595 0.64946,0.2191078 0.64946,0.054632 0,-0.058301 -0.1833,-0.1751922 -0.40732,-0.2597566 -0.26737,-0.1009189 -0.40732,-0.2479605 -0.40732,-0.4279396 0,-0.3013515 0.37854,-0.482886 0.72761,-0.3489287 0.24052,0.092304 0.31022,0.4637653 0.0871,0.4637653 -0.0747,0 -0.13573,-0.061079 -0.13573,-0.1357823 0,-0.074675 -0.0917,-0.1357694 -0.20365,-0.1357694 -0.32746,0 -0.23413,0.2587299 0.1259,0.3491022 0.18129,0.045478 0.36564,0.1766022 0.40966,0.2913497 0.18804,0.4899843 -0.65821,0.8027263 -1.01353,0.3745769 z m 1.22468,-0.5398178 v -0.746755 h 0.47521 c 0.26136,0 0.47521,0.061079 0.47521,0.1357681 0,0.074675 -0.15275,0.1357682 -0.33945,0.1357682 -0.18669,0 -0.33943,0.061079 -0.33943,0.1357694 0,0.074664 0.12225,0.1357823 0.27156,0.1357823 0.14934,0 0.27154,0.061079 0.27154,0.1357682 0,0.074675 -0.12225,0.1357681 -0.27154,0.1357681 -0.19914,0 -0.27156,0.090511 -0.27156,0.3394358 0,0.1866871 -0.0611,0.3394345 -0.13572,0.3394345 -0.0747,0 -0.13573,-0.3360436 -0.13573,-0.7467602 z m 1.24911,0.5838306 c -0.39973,-0.3997315 -0.0468,-1.3305861 0.5046,-1.3305861 0.29819,0 0.69021,0.4160016 0.69021,0.7324287 0,0.6542513 -0.75881,1.0341413 -1.19481,0.5981574 z m 0.86019,-0.3953044 c 0.11229,-0.3537391 -0.20485,-0.7087006 -0.52381,-0.5863074 -0.2238,0.085881 -0.31484,0.6048807 -0.13726,0.7824745 0.19134,0.1913404 0.5741,0.077758 0.66103,-0.1961671 z m 0.49726,-0.1545783 c 0.0372,-0.6463183 0.0727,-0.7165197 0.38059,-0.7525176 0.18676,-0.021837 0.4617,0.050811 0.61098,0.1614515 0.23632,0.1751254 0.24846,0.2387231 0.0939,0.4916064 -0.13867,0.2268508 -0.14184,0.3334392 -0.0146,0.4867575 0.0896,0.1079633 0.11847,0.24065 0.064,0.2948532 -0.0545,0.054175 -0.21038,-0.038949 -0.34661,-0.2069424 -0.30671,-0.3783147 -0.54357,-0.3931056 -0.54357,-0.033921 0,0.1493554 -0.0644,0.271554 -0.14289,0.271554 -0.087,0 -0.12688,-0.2785245 -0.10185,-0.7128135 z m 0.78778,-0.3054948 c 0,-0.1131441 -0.1207,-0.2036617 -0.27155,-0.2036617 -0.15085,0 -0.27154,0.090511 -0.27154,0.2036617 0,0.113144 0.1207,0.203664 0.27154,0.203664 0.15087,0 0.27155,-0.090511 0.27155,-0.203664 z m 0.5431,0.3474506 c 0,-0.8001769 0.22268,-1.0146068 0.4442,-0.4277451 0.19932,0.5280451 0.30594,0.5285339 0.48943,0.00223 0.20501,-0.5881311 0.42411,-0.3683189 0.42411,0.4255239 0,0.6465657 -0.26202,0.9875697 -0.28074,0.3653629 l -0.009,-0.3054948 -0.14733,0.3054948 c -0.19461,0.4035069 -0.32558,0.385406 -0.49113,-0.067901 l -0.13643,-0.3733848 -0.0117,0.3733848 c -0.0192,0.6695578 -0.28226,0.3923402 -0.28226,-0.2974799 z m 1.62928,-0.075906 V 7.8581042 h 0.4672 c 0.25696,0 0.50496,0.061079 0.55112,0.1357682 0.049,0.079223 -0.0891,0.1357682 -0.33142,0.1357682 -0.27723,0 -0.41535,0.067162 -0.41535,0.202064 0,0.1142459 0.10326,0.1880023 0.23761,0.169715 0.13068,-0.017781 0.25011,0.02874 0.26538,0.1034272 0.0152,0.074675 -0.0917,0.1166604 -0.23761,0.0933 -0.16824,-0.026935 -0.26538,0.035199 -0.26538,0.1697138 0,0.1452588 0.12857,0.2121946 0.40733,0.2121946 0.22402,0 0.40732,0.061079 0.40732,0.1357682 0,0.074675 -0.24439,0.1357823 -0.54309,0.1357823 h -0.54311 z m 1.22197,0 c 0,-0.706021 0.0185,-0.7467543 0.33943,-0.7467543 0.35921,0 0.88254,0.4249085 0.88254,0.7165431 0,0.3758451 -0.42456,0.7769726 -0.82234,0.7769726 -0.39389,0 -0.39963,-0.010666 -0.39963,-0.7467614 z m 0.7893,0.035046 c -0.0279,-0.2898858 -0.12366,-0.4555241 -0.28013,-0.4851657 -0.19038,-0.036019 -0.23762,0.051479 -0.23762,0.4401566 0,0.399612 0.0494,0.4851598 0.28014,0.4851598 0.23416,0 0.27318,-0.072272 0.23761,-0.4401507 z"
   id="path2039" /></g></svg>
