<?xml version="1.0" encoding="UTF-8" standalone="no"?>
<!-- Created with Inkscape (http://www.inkscape.org/) -->

<svg
   width="225mm"
   height="90mm"
   viewBox="0 0 225 90"
   version="1.1"
   style="background-color: #000000;"
   id="svg1"
   inkscape:version="1.2.2 (b0a8486541, 2022-12-01)"
   sodipodi:docname="mug_22_Patrick_Kasting.svg"
   xml:space="preserve"
   xmlns:inkscape="http://www.inkscape.org/namespaces/inkscape"
   xmlns:sodipodi="http://sodipodi.sourceforge.net/DTD/sodipodi-0.dtd"
   xmlns="http://www.w3.org/2000/svg"
   xmlns:svg="http://www.w3.org/2000/svg"><sodipodi:namedview
     id="namedview1"
     pagecolor="#ffffff"
     bordercolor="#000000"
     borderopacity="0.25"
     inkscape:showpageshadow="2"
     inkscape:pageopacity="0.0"
     inkscape:pagecheckerboard="0"
     inkscape:deskcolor="#d1d1d1"
     inkscape:document-units="mm"
     inkscape:zoom="1.4184197"
     inkscape:cx="549.90775"
     inkscape:cy="200.57533"
     inkscape:window-width="1854"
     inkscape:window-height="1131"
     inkscape:window-x="66"
     inkscape:window-y="32"
     inkscape:window-maximized="1"
     inkscape:current-layer="layer1"
     showgrid="false" /><defs
     id="defs1" /><g
     inkscape:label="Layer 1"
     inkscape:groupmode="layer"
     id="layer1">[[[BACKGROUND]]][[[BACKGROUND]]]<text
   xml:space="preserve"
   style="font-style:normal;font-variant:normal;font-weight:normal;font-stretch:normal;font-size:6.35px;font-family:'Noto Looped Lao';-inkscape-font-specification:'Noto Looped Lao';text-align:center;writing-mode:lr-tb;direction:ltr;text-anchor:middle;fill:#000000;fill-opacity:1;stroke-width:0.264583"
   x="51.913441"
   y="13.795106"
   id="text1"><tspan
     sodipodi:role="line"
     id="tspan1"
     style="font-style:normal;font-variant:normal;font-weight:normal;font-stretch:normal;font-size:6.35px;font-family:FreeSerif;-inkscape-font-specification:FreeSerif;fill:#000000;fill-opacity:1;stroke-width:0.264583"
     x="51.913441"
     y="13.795106">Think BIG</tspan><tspan
     sodipodi:role="line"
     style="font-style:normal;font-variant:normal;font-weight:normal;font-stretch:normal;font-size:6.35px;font-family:FreeSerif;-inkscape-font-specification:FreeSerif;fill:#000000;fill-opacity:1;stroke-width:0.264583"
     x="51.913441"
     y="21.851667"
     id="tspan2">Take CHANCES</tspan><tspan
     sodipodi:role="line"
     style="font-style:normal;font-variant:normal;font-weight:normal;font-stretch:normal;font-size:6.35px;font-family:FreeSerif;-inkscape-font-specification:FreeSerif;fill:#000000;fill-opacity:1;stroke-width:0.264583"
     x="51.913441"
     y="29.90823"
     id="tspan13">Test against REALITY</tspan><tspan
     sodipodi:role="line"
     style="font-style:normal;font-variant:normal;font-weight:normal;font-stretch:normal;font-size:6.35px;font-family:FreeSerif;-inkscape-font-specification:FreeSerif;fill:#000000;fill-opacity:1;stroke-width:0.264583"
     x="51.913441"
     y="37.964794"
     id="tspan5">Fail FAST</tspan><tspan
     sodipodi:role="line"
     style="font-style:normal;font-variant:normal;font-weight:normal;font-stretch:normal;font-size:6.35px;font-family:FreeSerif;-inkscape-font-specification:FreeSerif;fill:#000000;fill-opacity:1;stroke-width:0.264583"
     x="51.913441"
     y="46.021355"
     id="tspan23">Try AGAIN</tspan><tspan
     sodipodi:role="line"
     style="font-style:normal;font-variant:normal;font-weight:normal;font-stretch:normal;font-size:6.35px;font-family:FreeSerif;-inkscape-font-specification:FreeSerif;fill:#000000;fill-opacity:1;stroke-width:0.264583"
     x="51.913441"
     y="54.077919"
     id="tspan3">Do it RIGHT</tspan><tspan
     sodipodi:role="line"
     style="font-style:normal;font-variant:normal;font-weight:normal;font-stretch:normal;font-size:6.35px;font-family:FreeSerif;-inkscape-font-specification:FreeSerif;fill:#000000;fill-opacity:1;stroke-width:0.264583"
     x="51.913441"
     y="62.13448"
     id="tspan24">Disrupt EVERYTHING</tspan><tspan
     sodipodi:role="line"
     style="font-style:normal;font-variant:normal;font-weight:normal;font-stretch:normal;font-size:6.35px;font-family:FreeSerif;-inkscape-font-specification:FreeSerif;fill:#000000;fill-opacity:1;stroke-width:0.264583"
     x="51.913441"
     y="70.19104"
     id="tspan12" /><tspan
     sodipodi:role="line"
     style="font-style:normal;font-variant:normal;font-weight:normal;font-stretch:normal;font-size:6.35px;font-family:FreeSerif;-inkscape-font-specification:FreeSerif;fill:#000000;fill-opacity:1;stroke-width:0.264583"
     x="51.913441"
     y="78.12854"
     id="tspan22" /></text><text
   xml:space="preserve"
   style="font-size:7.05556px;font-family:'Abyssinica SIL';-inkscape-font-specification:'Abyssinica SIL';text-align:center;writing-mode:lr-tb;direction:ltr;text-anchor:middle;fill:#000000;fill-opacity:1;stroke-width:0.264583"
   x="177.96748"
   y="83.575027"
   id="text6"><tspan
     sodipodi:role="line"
     id="tspan6"
     style="font-style:normal;font-variant:normal;font-weight:normal;font-stretch:normal;font-family:FreeSerif;-inkscape-font-specification:FreeSerif;text-align:center;text-anchor:middle;fill:#000000;fill-opacity:1;stroke-width:0.264583"
     x="177.96748"
     y="83.575027">Patrick Kasting</tspan></text><text
   xml:space="preserve"
   style="font-size:3.175px;font-family:'Abyssinica SIL';-inkscape-font-specification:'Abyssinica SIL';text-align:center;writing-mode:lr-tb;direction:ltr;text-anchor:middle;fill:#000000;fill-opacity:1;stroke-width:0.264583"
   x="15.705943"
   y="-121.59789"
   id="text7"
   transform="rotate(90)"><tspan
     sodipodi:role="line"
     style="font-style:normal;font-variant:normal;font-weight:normal;font-stretch:normal;font-size:3.175px;font-family:FreeSerif;-inkscape-font-specification:FreeSerif;text-align:start;text-anchor:start;fill:#000000;fill-opacity:1;stroke-width:0.264583"
     x="15.705943"
     y="-121.59789"
     id="tspan11">multiply by -1 for no reason</tspan><tspan
     sodipodi:role="line"
     style="font-style:normal;font-variant:normal;font-weight:normal;font-stretch:normal;font-size:3.175px;font-family:FreeSerif;-inkscape-font-specification:FreeSerif;text-align:start;text-anchor:start;fill:#000000;fill-opacity:1;stroke-width:0.264583"
     x="15.705943"
     y="-117.58112"
     id="tspan8">invert matrices without reason</tspan><tspan
     sodipodi:role="line"
     style="font-style:normal;font-variant:normal;font-weight:normal;font-stretch:normal;font-size:3.175px;font-family:FreeSerif;-inkscape-font-specification:FreeSerif;text-align:start;text-anchor:start;fill:#000000;fill-opacity:1;stroke-width:0.264583"
     x="15.705943"
     y="-113.56435"
     id="tspan9">use the words røvlogik or Titanic</tspan><tspan
     sodipodi:role="line"
     style="font-style:normal;font-variant:normal;font-weight:normal;font-stretch:normal;font-size:3.175px;font-family:FreeSerif;-inkscape-font-specification:FreeSerif;text-align:start;text-anchor:start;fill:#000000;fill-opacity:1;stroke-width:0.264583"
     x="15.705943"
     y="-109.54758"
     id="tspan33">accept the mediocre</tspan><tspan
     sodipodi:role="line"
     style="font-style:normal;font-variant:normal;font-weight:normal;font-stretch:normal;font-size:3.175px;font-family:FreeSerif;-inkscape-font-specification:FreeSerif;text-align:start;text-anchor:start;fill:#000000;fill-opacity:1;stroke-width:0.264583"
     x="15.705943"
     y="-105.53081"
     id="tspan36">be afraid of complexity nor simplicity</tspan><tspan
     sodipodi:role="line"
     style="font-style:normal;font-variant:normal;font-weight:normal;font-stretch:normal;font-size:3.175px;font-family:FreeSerif;-inkscape-font-specification:FreeSerif;text-align:start;text-anchor:start;fill:#000000;fill-opacity:1;stroke-width:0.264583"
     x="15.705943"
     y="-101.51404"
     id="tspan15">purspone it </tspan><tspan
     sodipodi:role="line"
     style="font-style:normal;font-variant:normal;font-weight:normal;font-stretch:normal;font-size:3.175px;font-family:FreeSerif;-inkscape-font-specification:FreeSerif;text-align:start;text-anchor:start;fill:#000000;fill-opacity:1;stroke-width:0.264583"
     x="15.705943"
     y="-97.545288"
     id="tspan10" /></text><text
   xml:space="preserve"
   style="font-size:7.05556px;font-family:'Abyssinica SIL';-inkscape-font-specification:'Abyssinica SIL';text-align:center;writing-mode:lr-tb;direction:ltr;text-anchor:middle;fill:#000000;fill-opacity:1;stroke-width:0.264583"
   x="112.20755"
   y="10.999269"
   id="text29"><tspan
     sodipodi:role="line"
     style="font-style:normal;font-variant:normal;font-weight:normal;font-stretch:normal;font-family:FreeSerif;-inkscape-font-specification:FreeSerif;fill:#000000;fill-opacity:1;stroke-width:0.264583"
     x="112.20755"
     y="10.999269"
     id="tspan29">don't</tspan></text><text
   xml:space="preserve"
   style="font-size:3.175px;font-family:'Abyssinica SIL';-inkscape-font-specification:'Abyssinica SIL';text-align:start;writing-mode:lr-tb;direction:ltr;text-anchor:start;fill:#000000;fill-opacity:1;stroke-width:0.264583"
   x="112.33543"
   y="80.293289"
   id="text34"><tspan
     sodipodi:role="line"
     id="tspan34"
     style="font-style:normal;font-variant:normal;font-weight:normal;font-stretch:normal;font-family:FreeSerif;-inkscape-font-specification:FreeSerif;text-align:center;text-anchor:middle;fill:#000000;fill-opacity:1;stroke-width:0.264583"
     x="112.33543"
     y="80.293289">Veo Labs</tspan><tspan
     sodipodi:role="line"
     style="font-style:normal;font-variant:normal;font-weight:normal;font-stretch:normal;font-family:FreeSerif;-inkscape-font-specification:FreeSerif;text-align:center;text-anchor:middle;fill:#000000;fill-opacity:1;stroke-width:0.264583"
     x="112.33543"
     y="84.310059"
     id="tspan35">2025</tspan></text><path
   style="fill:#000000;fill-opacity:1;stroke-width:0.187111"
   d="m 191.68167,73.905275 -5.42624,-2.795264 -1.25447,0.673294 c -0.68998,0.370315 -2.37396,1.339231 -3.74223,2.153156 l -2.48775,1.479862 -0.84198,-0.48358 c -0.4631,-0.265965 -1.42429,-0.809672 -2.13595,-1.208259 -1.82912,-1.024412 -1.81911,-1.012422 -1.75536,-2.105266 0.0507,-0.86741 0.11687,-0.991207 0.74967,-1.399672 l 0.69415,-0.448093 -0.0112,-2.132562 -0.0112,-2.132563 -1.29562,-0.65247 c -1.1864,-0.597456 -1.50422,-0.667987 -3.7699,-0.836557 -4.80914,-0.357823 -10.12148,-0.843793 -11.43822,-1.046353 l -0.73103,-0.112459 0.11999,1.55599 c 0.0849,1.100955 0.20293,1.602403 0.4036,1.714712 0.34346,0.192197 0.37376,0.955037 0.0487,1.224841 -0.85076,0.706077 -2.38463,0.252799 -2.38463,-0.70469 0,-0.302045 0.1463,-0.655143 0.32746,-0.790418 0.20979,-0.156649 0.35004,-0.560813 0.39035,-1.124842 l 0.0629,-0.880346 -0.59469,0.17055 c -0.81111,0.232629 -1.71754,0.03799 -1.6431,-0.352919 0.0317,-0.166248 0.2672,-0.32928 0.52342,-0.362294 0.25622,-0.03296 0.57112,-0.196448 0.69975,-0.363209 0.3486,-0.451882 0.29098,0.06865 -0.0683,0.616923 -0.34558,0.527387 -0.33484,0.533337 0.46138,0.255774 0.50636,-0.176519 0.58924,-0.295632 0.58924,-0.846718 0,-0.616852 -0.0538,-0.665857 -1.41242,-1.284981 l -1.41243,-0.643666 0.0558,-1.175938 0.0559,-1.175948 1.30978,-0.672901 1.30979,-0.672882 0.0562,-1.283976 c 0.031,-0.706188 0.15656,-1.404888 0.2792,-1.552654 0.18687,-0.225172 0.15126,-0.245914 -0.21998,-0.128088 -0.30485,0.09678 -0.40304,0.07598 -0.31495,-0.06654 0.0704,-0.113933 0.24938,-0.207152 0.39766,-0.207152 0.31294,0 0.3638,-0.481046 0.0701,-0.662591 -0.10975,-0.06784 -0.31757,0.03246 -0.4618,0.22285 -0.14428,0.190399 -0.26496,0.245905 -0.26825,0.123335 -0.002,-0.122561 0.0837,-0.278287 0.19342,-0.346054 0.10962,-0.06773 -0.41661,-0.472674 -1.16946,-0.899823 l -1.36879,-0.776607 -0.0538,-1.50745 c -0.0517,-1.448375 -0.0755,-1.520283 -0.60811,-1.83492 l -0.55436,-0.327461 -0.005,-10.514425 c -0.002,-5.782937 -0.0542,-13.342985 -0.11362,-16.800096 l -0.10813,-6.285671 0.51976,-0.408856 c 0.48641,-0.382605 0.52113,-0.504443 0.54091,-1.897411 0.0112,-0.818709 0.10725,-1.574623 0.21238,-1.679817 0.10526,-0.105193 1.66007,-0.6874257 3.45524,-1.2938567 4.90692,-1.657585 12.82185,-4.4062481 14.30355,-4.9672521 l 1.3098,-0.4959306 1.83085,0.5018201 c 1.28515,0.3522441 1.88924,0.6109135 2.02676,0.8678635 0.10775,0.2013222 0.18058,1.0533562 0.16185,1.8934014 -0.0186,0.8400537 -0.0256,1.8840437 -0.0154,2.3199957 l 0.0186,0.7926487 1.45011,0.704247 c 1.42842,0.693727 1.4503,0.715003 1.46295,1.423401 0.0127,0.713775 0.0243,0.724519 1.54369,1.438687 1.47896,0.695192 1.53079,0.741272 1.53079,1.361401 0,0.608351 0.0609,0.668259 1.16698,1.147948 1.28194,0.555959 1.44549,0.71668 1.44971,1.424657 0.002,0.410977 0.18606,0.559889 1.30089,1.055237 1.29651,0.576059 1.29809,0.577667 1.35656,1.392606 0.0579,0.80706 0.0704,0.820597 1.16395,1.253453 0.96416,0.381672 1.1674,0.406345 1.59045,0.193123 0.79281,-0.39959 0.88417,-0.395852 0.41174,0.01688 -0.24611,0.215001 -0.41451,0.416294 -0.37421,0.447308 0.0403,0.03105 0.38789,0.245573 0.77242,0.476795 0.38453,0.231232 1.05814,0.8291 1.4969,1.328599 l 0.79774,0.908174 0.0342,-1.783685 c 0.0281,-1.472264 0.12424,-2.000727 0.5505,-3.026879 0.28399,-0.683755 0.53408,-1.270075 0.55574,-1.302939 0.0216,-0.03286 0.36335,0.04331 0.75929,0.169403 0.86429,0.275111 2.12488,1.613458 2.22286,2.359936 0.0378,0.288306 0.12868,2.903795 0.20186,5.812202 0.10213,4.060426 0.19123,5.336292 0.38357,5.495916 0.3062,0.254146 0.33515,0.610703 0.0345,0.424877 -0.13491,-0.08342 -0.16518,-0.05125 -0.0807,0.08553 0.0745,0.120488 0.20701,0.174821 0.29451,0.120738 0.34545,-0.213503 0.65681,1.3593 0.64792,3.273114 -0.007,1.708963 -0.0799,2.147317 -0.55268,3.368006 l -0.54361,1.403331 -0.002,4.397113 c -0.002,2.418417 0.0159,6.563555 0.0381,9.211425 l 0.0406,4.814321 0.79523,0.403158 c 0.98397,0.498855 1.06944,0.626863 1.07301,1.606905 0.002,0.915933 -0.0965,0.998202 -3.81513,3.139538 l -2.22754,1.28275 4.28579,2.141196 c 2.35715,1.177656 4.32406,2.177115 4.3709,2.221033 0.0468,0.04391 0.11861,0.605748 0.15958,1.248529 l 0.0744,1.168693 -2.97163,1.901461 c -1.63441,1.045799 -3.09551,1.937481 -3.24689,1.981511 -0.1514,0.04401 -2.71707,-1.177807 -5.7015,-2.715205 z m 5.36436,1.485963 -0.0618,-0.982585 -4.38201,-2.292469 -4.38203,-2.29247 -0.86545,0.538673 -0.86546,0.538673 3.06398,1.592915 c 6.3521,3.30233 7.37004,3.828109 7.46111,3.853637 0.0514,0.01437 0.0657,-0.415942 0.0317,-0.956374 z m 6.17375,-3.651279 c 0.0698,-1.09437 0.0667,-1.095296 -1.1392,-0.334073 -0.74526,0.470463 -1.05471,0.951308 -0.46711,0.725815 0.23334,-0.08955 0.28259,-0.003 0.23389,0.409319 -0.0496,0.419901 -0.33774,0.69874 -1.46502,1.417491 -0.77184,0.492111 -1.46648,0.899973 -1.54367,0.906334 -0.22881,0.01889 -0.15961,-1.016956 0.0843,-1.26077 0.39286,-0.392846 -0.11224,-0.241815 -0.83599,0.249986 -0.66201,0.44985 -0.69832,0.527226 -0.69832,1.488092 v 1.013569 l 2.8842,-1.815543 2.88422,-1.815524 z m -24.7014,2.668694 c 0.0154,-0.257282 0.0365,-0.553859 0.0468,-0.659063 0.01,-0.105206 -0.33914,-0.404676 -0.77652,-0.665495 l -0.79521,-0.474212 v 0.741824 c 0,0.635074 0.0875,0.795926 0.60811,1.117768 0.80251,0.496132 0.88373,0.490736 0.91683,-0.06081 z m 4.7985,-1.991471 c 2.13076,-1.252569 5.81072,-3.433633 8.17768,-4.846802 2.36694,-1.413179 5.33499,-3.176192 6.59567,-3.917806 l 2.29211,-1.348387 v -0.749031 -0.74903 l -0.70166,0.416443 c -0.38592,0.229042 -1.92258,1.128783 -3.41479,1.99942 -1.4922,0.870628 -6.01649,3.533291 -10.05394,5.917034 l -7.34084,4.33407 -0.002,0.721695 c -0.002,0.574732 0.0556,0.699092 0.28584,0.610731 0.159,-0.06101 2.03247,-1.135767 4.16323,-2.388337 z m 18.04255,0.382375 c -0.0743,-0.06622 -1.62471,-0.874315 -3.44539,-1.795725 -2.31755,-1.172881 -3.25226,-1.566854 -3.11678,-1.313703 0.13456,0.251442 0.1325,0.422615 -0.007,0.561929 -0.14238,0.142379 0.43145,0.533468 1.98339,1.351794 2.37813,1.253966 2.71119,1.558975 2.34415,2.146723 -0.46013,0.73678 -0.21115,0.726147 1.072,-0.04572 0.71751,-0.43164 1.24376,-0.838989 1.16946,-0.905239 z m -2.66194,0.207122 c 0,-0.05217 -0.94774,-0.580009 -2.10501,-1.172893 -1.15727,-0.592882 -3.0395,-1.572714 -4.18273,-2.177405 l -2.07857,-1.099427 -0.89575,0.557547 -0.8958,0.557548 4.27943,2.197939 4.27945,2.197948 0.79992,-0.483168 c 0.43993,-0.265743 0.79953,-0.525879 0.79906,-0.578089 z M 176.6192,62.809214 176.5257,51.77112 175.77725,51.383881 c -0.51326,-0.265553 -0.7673,-0.530573 -0.80846,-0.843452 -0.1095,-0.832125 -1.34331,-1.33711 -1.34331,-0.549799 0,0.205826 0.078,0.374224 0.17341,0.374224 0.22244,0 0.76215,1.07572 0.76215,1.519058 0,0.423981 -0.54517,0.726277 -1.30977,0.726277 -1.31023,0 -1.65141,-0.680117 -0.87455,-1.743264 0.23937,-0.327591 0.44437,-0.848224 0.45551,-1.156953 0.0166,-0.460583 -0.007,-0.494171 -0.13114,-0.187112 -0.0833,0.205816 -0.12411,0.422404 -0.0909,0.481308 0.0607,0.107278 -2.33254,1.348206 -4.17715,2.165869 l -0.98233,0.435438 v 0.932324 c 0,0.891442 0.0327,0.951038 0.74699,1.35892 0.41085,0.234619 0.74746,0.468685 0.74799,0.52014 0,0.05145 -0.45603,0.332356 -1.01464,0.62423 l -1.01563,0.530674 -1.83505,-0.946194 -1.83506,-0.946193 -1.45243,0.687977 c -1.64326,0.778388 -1.79526,1.094944 -0.89107,1.855774 0.30875,0.259785 0.56131,0.594975 0.56131,0.74487 0,0.481399 -0.88157,1.191083 -1.47955,1.191083 -0.70667,0 -1.51422,-0.359379 -1.51422,-0.673876 0,-0.57607 -0.28212,-0.346245 -0.29537,0.240598 -0.031,1.371985 -1.0144,1.119808 -1.0144,-0.260105 0,-0.459076 -0.0748,-0.806618 -0.1661,-0.772317 -0.52018,0.195342 -2.06441,1.012393 -2.06292,1.091486 0,0.05145 0.88054,0.508162 1.95459,1.014906 l 1.95281,0.921359 2.29493,-1.076602 c 1.2622,-0.59213 4.94722,-2.401854 8.18893,-4.021593 5.80946,-2.902749 5.89567,-2.954195 6.00971,-3.586977 0.0638,-0.354285 0.12543,0.322315 0.13746,1.50979 0.0125,1.183476 -0.0567,2.275857 -0.15262,2.427512 -0.0959,0.151646 -0.10613,0.320045 -0.0226,0.374214 0.24412,0.15855 0.46335,8.679526 0.21944,8.528775 -0.11213,-0.06925 -0.20373,-0.480413 -0.20373,-0.913682 0,-0.767673 -0.028,-0.80318 -1.09965,-1.392295 -0.60478,-0.332487 -1.15208,-0.604522 -1.21621,-0.604522 -0.0641,0 -0.11661,0.450043 -0.11661,1.000072 v 1.000082 l 1.39692,0.637143 1.39692,0.637155 0.006,4.063691 0.006,4.063693 0.51456,0.270166 c 0.28302,0.14859 0.51455,0.256538 0.51455,0.239865 0,-0.01668 -0.0421,-4.997444 -0.0935,-11.068404 z M 170.25743,52.31722 c 0,-0.461911 0.36097,-1.016806 0.66147,-1.016806 0.38927,0 0.33924,0.243513 -0.10738,0.522443 -0.20983,0.131032 -0.3303,0.32106 -0.26776,0.422284 0.0626,0.101222 0.19215,0.135605 0.28794,0.07637 0.0958,-0.0592 0.17418,-0.01849 0.17418,0.09055 0,0.108988 -0.16841,0.198148 -0.37423,0.198148 -0.21488,0 -0.37421,-0.124745 -0.37421,-0.29297 z m 1.12266,-0.620502 c 0,-0.102907 0.0843,-0.23915 0.18711,-0.302748 0.10288,-0.06361 0.18711,-0.03145 0.18711,0.07146 0,0.102908 -0.0843,0.239151 -0.18711,0.302758 -0.10288,0.06361 -0.18711,0.03145 -0.18711,-0.07146 z m 4.11645,20.853558 c 0,-0.495227 -0.12436,-0.73067 -0.54344,-1.029106 -0.7254,-0.516534 -0.76641,-0.499699 -0.76601,0.314698 2e-4,0.565134 0.10039,0.762055 0.51456,1.01201 0.73309,0.442434 0.79489,0.419299 0.79489,-0.297602 z m 6.89827,-1.539458 c 2.02044,-1.199887 4.59972,-2.743769 5.73173,-3.43085 1.13203,-0.687083 3.32123,-1.969541 4.86489,-2.849917 1.54368,-0.880375 3.80964,-2.194169 5.03549,-2.919543 l 2.2288,-1.318849 -0.66868,-0.318879 -0.66873,-0.318878 -1.41895,0.728478 -1.41896,0.728479 -0.70247,-0.374595 c -0.61919,-0.330185 -0.7028,-0.45776 -0.70519,-1.075889 -0.003,-0.385713 0.0616,-0.701295 0.14032,-0.701295 0.0787,0 0.14305,0.291745 0.14305,0.64831 0,0.462635 0.11012,0.707254 0.38461,0.854135 0.21151,0.113209 0.44307,0.179324 0.51455,0.146922 0.0714,-0.03246 0.0865,-3.763718 0.0335,-8.291814 -0.0531,-4.528085 -0.11624,-7.075143 -0.14034,-5.660115 -0.0266,1.561237 -0.11736,2.572786 -0.23091,2.572786 -0.10813,0 -0.17384,0.49358 -0.15566,1.169445 l 0.0315,1.169446 0.12424,-1.122673 0.12423,-1.122662 0.0315,1.450113 c 0.0174,0.803654 -0.0471,1.450104 -0.14461,1.450104 -0.28526,0 -0.35986,-0.242226 -0.42099,-1.366928 -0.0317,-0.585317 -0.12099,-1.064504 -0.19815,-1.064865 -0.0772,-2.42e-4 -0.15954,1.7886 -0.18301,3.975462 l -0.0427,3.976116 -0.0548,-3.789004 c -0.0301,-2.083951 -0.0981,-3.789004 -0.15101,-3.789004 -0.0529,0 -0.30381,0.135988 -0.55745,0.302186 -0.25367,0.166207 -0.46067,0.229363 -0.46003,0.140339 0,-0.08905 0.25327,-0.305291 0.56134,-0.480594 l 0.56015,-0.318747 v -2.789204 -2.789215 l -1.1624,-0.381107 -1.1624,-0.381119 -1.31374,1.216318 c -0.72254,0.668963 -1.82031,1.47953 -2.43948,1.801253 -0.97188,0.504996 -1.31756,0.584401 -2.52909,0.580933 -1.11767,-0.003 -1.62236,-0.105055 -2.47922,-0.500401 -1.19366,-0.550723 -1.45697,-0.404666 -0.39743,0.220478 0.37316,0.220176 0.6312,0.447579 0.57346,0.505347 -0.0578,0.05778 -0.29764,-0.02985 -0.53301,-0.19471 -0.63294,-0.443329 -0.69403,-0.390093 -0.75591,0.658722 l -0.0566,0.958464 -2.77939,1.427199 -2.77938,1.427199 0.1115,5.800443 c 0.0613,3.190252 0.11225,7.795432 0.113,10.233738 l 0.002,4.433283 0.7952,0.476614 c 0.43738,0.262135 0.82616,0.477418 0.86393,0.478383 0.0378,9.95e-4 1.72181,-0.979951 3.74224,-2.179838 z m -5.13008,1.07412 c 0.0584,-0.09457 0.64677,-0.474223 1.30741,-0.843672 0.66065,-0.369451 1.23954,-0.818326 1.28641,-0.9975 0.0669,-0.255744 0.09,-0.239865 0.107,0.07387 0.0166,0.305019 -0.28516,0.581989 -1.27401,1.169445 -1.31344,0.780317 -1.61856,0.908154 -1.42676,0.597838 z m 2.53238,-3.50295 c -0.12853,-1.031387 0.0235,-2.818318 0.17693,-2.078995 l 0.10676,0.514352 0.64722,-0.395057 0.64727,-0.39507 -0.53498,-0.280295 c -0.29423,-0.154158 -0.62759,-0.293884 -0.74078,-0.310497 -0.11325,-0.01658 -0.22691,-0.09156 -0.25263,-0.166439 -0.14835,-0.432062 0.0538,-0.420233 0.93555,0.05477 l 0.98236,0.529185 0.81813,-0.486162 c 0.96972,-0.57623 0.97986,-0.563888 -1.35294,-1.644009 -1.57685,-0.730106 -1.60169,-0.752026 -1.58146,-1.396636 0.0178,-0.569869 0.0307,-0.587015 0.0993,-0.132069 0.0644,0.42755 0.29485,0.629395 1.26456,1.107587 1.12813,0.556302 1.21421,0.570995 1.76946,0.302085 l 0.58364,-0.282668 -1.86715,-0.918465 -1.86714,-0.918475 0.0332,-4.958439 c 0.027,-4.022759 0.0436,-4.313035 0.0887,-1.538233 l 0.0554,3.420218 3.64443,1.794799 c 2.5202,1.241143 3.64354,1.888819 3.64158,2.09957 -0.003,0.195814 -0.0521,0.229774 -0.14033,0.09497 -0.12641,-0.19285 -6.79663,-3.626021 -7.04493,-3.626021 -0.0601,0 -0.10925,0.379228 -0.10925,0.842727 v 0.842728 l 3.06139,1.527368 3.06141,1.527368 0.59804,-0.425842 c 0.32893,-0.234216 0.64933,-0.374555 0.71201,-0.311872 0.0627,0.06272 0.0789,0.140821 0.036,0.173665 -0.0869,0.06654 -5.48602,3.158564 -6.5721,3.763757 -0.65454,0.364758 -0.69674,0.444566 -0.74844,1.415663 -0.0534,1.004754 -0.0571,1.010774 -0.15132,0.254446 z m 4.45277,-4.707699 c -0.68812,-0.03467 -1.22097,0.03226 -1.39293,0.174991 -0.23807,0.197565 -0.19051,0.276609 0.3275,0.544493 0.58954,0.304858 0.62739,0.300114 1.39293,-0.174993 l 0.78692,-0.488351 z m -1.81837,-1.53563 c -2.22915,-1.153516 -3.06727,-1.467912 -2.5254,-0.947339 0.4286,0.411721 4.15109,2.237938 4.57176,2.242852 0.29589,0.003 -0.45611,-0.472624 -2.04636,-1.295513 z m 5.40135,3.209296 c -0.36536,-0.295853 -0.43294,-0.537769 -0.45736,-1.637225 -0.0159,-0.709555 -0.0872,-1.469098 -0.15864,-1.687888 -0.10188,-0.312023 -0.0395,-0.421459 0.28942,-0.507467 0.23591,-0.06171 0.54517,9.85e-4 0.70693,0.143203 0.24749,0.217614 0.69181,0.01111 3.1878,-1.482163 1.59511,-0.954264 2.99688,-1.824338 3.11502,-1.933502 0.15515,-0.143363 0.24123,-0.09739 0.30999,0.165555 0.0523,0.200207 0.0169,0.315612 -0.0789,0.256447 -0.0958,-0.0592 -1.19718,0.504183 -2.44764,1.251867 -1.25048,0.747694 -2.15366,1.395068 -2.00707,1.438616 0.59677,0.177282 0.70601,0.577075 0.43422,1.589065 -0.14374,0.535186 -0.21464,1.194923 -0.15761,1.466073 0.22221,1.056021 -1.75374,1.732973 -2.73621,0.937419 z m 1.45924,0.04693 c -0.0622,-0.06222 -0.22358,-0.06885 -0.35863,-0.01477 -0.14928,0.05969 -0.10488,0.104081 0.113,0.113059 0.19722,0.008 0.30776,-0.03608 0.24558,-0.09829 z m 0.20986,-0.466584 c 0.65787,-0.229332 0.6641,-0.240668 0.40225,-0.729936 -0.27806,-0.519578 -1.21295,-0.437379 -1.51849,0.133515 -0.20256,0.378486 -0.19765,0.47992 0.0302,0.624029 0.34669,0.219323 0.38019,0.218467 1.08609,-0.02763 z m -1.74837,-1.027147 -0.28088,-0.732107 0.11499,0.654883 c 0.12361,0.703866 0.25027,1.00579 0.37117,0.884897 0.0414,-0.0416 -0.0508,-0.405016 -0.20533,-0.807673 z m 0.65362,-0.475849 c 0,-0.207102 0.12865,-0.505197 0.2859,-0.66243 0.2377,-0.237715 0.34017,-0.24487 0.60811,-0.04242 0.27341,0.20657 0.28681,0.203706 0.0883,-0.01879 -0.32716,-0.366867 -0.29415,-0.516251 0.16875,-0.763985 0.39063,-0.209051 0.3992,-0.190468 0.28779,0.62231 -0.0778,0.567326 -0.0333,0.949188 0.13747,1.182832 0.22752,0.311161 0.27399,0.240508 0.47335,-0.719755 0.25421,-1.22457 0.16563,-1.480204 -0.47282,-1.364437 -0.90949,0.164921 -1.22968,0.334366 -1.38262,0.731715 -0.15147,0.393541 -0.1612,0.390555 -0.35746,-0.110013 -0.20817,-0.530914 -0.47486,-0.657425 -0.68139,-0.32324 -0.16435,0.265924 0.46191,2.081327 0.67301,1.950868 0.0944,-0.0583 0.17156,-0.275493 0.17156,-0.482595 z m -8.79423,0.398625 c 0,-0.308728 0.0663,-0.561327 0.14732,-0.561327 0.081,0 0.16656,0.252599 0.19007,0.561327 0.0235,0.308738 -0.0428,0.561336 -0.14731,0.561336 -0.1045,0 -0.19008,-0.252598 -0.19008,-0.561336 z m -2.33457,-8.750308 c 0.10526,-0.07558 0.33879,-0.369017 0.51887,-0.652028 0.23901,-0.37559 0.26311,-0.519587 0.0893,-0.533205 -0.34075,-0.02663 0.61504,-0.314627 1.11834,-0.336918 0.4962,-0.02201 0.52979,0.149906 0.12645,0.647253 -0.28623,0.352939 -0.29189,0.350888 -0.20076,-0.07257 0.0716,-0.332537 0.027,-0.410113 -0.18853,-0.327441 -0.15529,0.05959 -0.31753,0.108339 -0.36057,0.108339 -0.0429,0 -0.0783,0.08915 -0.0783,0.198147 0,0.108988 0.095,0.139365 0.21138,0.06754 0.12832,-0.0793 0.17734,-0.02854 0.12474,0.129284 -0.0477,0.142962 -0.19891,0.259934 -0.33612,0.259934 -0.13723,0 -0.28849,0.116979 -0.33614,0.259935 -0.0578,0.173273 -0.006,0.210428 0.15367,0.111423 0.15753,-0.09739 0.19429,-0.07406 0.10675,0.06754 -0.0734,0.118827 -0.36009,0.214739 -0.63701,0.213162 -0.27693,-10e-4 -0.41737,-0.06473 -0.31208,-0.140329 z m 1.2119,-0.12643 c 0,-0.160438 0.0841,-0.291713 0.18711,-0.291713 0.10288,0 0.18714,0.0792 0.18714,0.176067 0,0.09688 -0.0843,0.228117 -0.18714,0.291713 -0.10288,0.06362 -0.18711,-0.01558 -0.18711,-0.176067 z m 1.15222,-3.846821 c 0,-0.257281 0.0426,-0.362527 0.0944,-0.233886 0.0519,0.128632 0.0519,0.339129 0,0.467771 -0.0518,0.128641 -0.0944,0.02341 -0.0944,-0.233885 z m 12.36658,-0.317452 c -0.26842,-0.100947 -0.32061,-0.618109 -0.0624,-0.618109 0.0944,0 0.21052,0.105255 0.25823,0.233895 0.0629,0.169626 0.18282,0.14052 0.43659,-0.105967 0.24429,-0.237291 0.26852,-0.321993 0.0803,-0.280668 -0.43093,0.09467 -0.44947,-0.548219 -0.0224,-0.776768 0.2576,-0.137877 0.3855,-0.142058 0.3855,-0.01266 0,0.106542 -0.0843,0.193695 -0.18712,0.193695 -0.10288,0 -0.1843,0.105255 -0.18087,0.233895 0.004,0.128631 0.17393,0.03246 0.3789,-0.213624 0.50934,-0.611617 0.67519,-0.361229 0.24536,0.370406 -0.39644,0.67475 -0.98548,1.106249 -1.33215,0.97587 z m -8.09256,-2.325021 c 0,-0.334587 -0.045,-0.359853 -0.28521,-0.160439 -0.15683,0.130168 -0.33347,0.188388 -0.39249,0.129374 -0.15276,-0.152781 0.90756,-1.438576 1.09221,-1.324457 0.0842,0.05195 0.096,0.18675 0.0262,0.299471 -0.0697,0.112735 -0.14507,0.439098 -0.16758,0.725274 -0.034,0.431419 0.0431,0.533245 0.45105,0.596069 0.43056,0.06632 0.41606,0.0793 -0.11612,0.103807 -0.50387,0.02321 -0.60811,-0.04001 -0.60811,-0.369099 z m 16.99985,23.147714 c -0.0365,-0.02944 -1.72368,-0.898284 -3.74941,-1.930677 -2.10172,-1.071145 -3.59527,-1.73645 -3.47855,-1.549548 0.26647,0.426665 7.14119,3.965674 7.22796,3.720844 0.0365,-0.102858 0.0365,-0.211131 0,-0.240619 z m 1.21689,-0.860798 0.88864,-0.563566 -4.17323,-2.082303 c -2.29529,-1.145265 -4.25745,-2.082604 -4.36036,-2.082955 -0.10288,-5.03e-4 -0.51596,0.195926 -0.91792,0.436202 l -0.73081,0.436867 0.43048,0.291773 c 0.49612,0.336274 7.71482,4.118545 7.87085,4.123952 0.0571,0.002 0.50359,-0.250005 0.99235,-0.55997 z m -26.63675,-0.184881 c 0,-0.647615 0.0112,-0.642138 -0.63694,-0.305762 l -0.4926,0.255563 0.42443,0.295953 c 0.60497,0.421843 0.70511,0.386939 0.70511,-0.245754 z m 19.08534,-0.762507 c 0,-0.258679 -1.53651,-2.231266 -1.738,-2.231266 -0.21194,0 -1.62963,0.820769 -1.61599,0.935551 0.0198,0.166238 2.68834,1.477782 3.02655,1.487489 0.1801,0.005 0.32744,-0.08111 0.32744,-0.191774 z m -2.85519,-1.967099 c 0.4545,-0.266347 0.78145,-0.529176 0.72655,-0.58407 -0.10138,-0.101459 -1.80069,0.825844 -1.80069,0.982675 0,0.173474 0.2671,0.07437 1.07414,-0.398605 z m -33.10844,-1.480395 c 0.0445,-0.284969 0.0161,-0.312537 -0.11837,-0.115606 -0.1418,0.207554 -0.20042,0.183836 -0.29691,-0.120138 -0.14763,-0.465137 -0.85627,-0.703524 -0.85627,-0.288055 0,0.172088 -0.10776,0.241825 -0.27468,0.177766 -0.43263,-0.166017 -0.56977,0.280819 -0.1749,0.569858 0.53133,0.388928 1.64814,0.243694 1.72109,-0.223825 z m -0.71017,-2.058222 c 0,-0.412395 -0.09,-0.654882 -0.24309,-0.654882 -0.16766,0 -0.21936,0.203252 -0.16664,0.654882 0.042,0.360195 0.15143,0.654892 0.2431,0.654892 0.0916,0 0.16663,-0.294697 0.16663,-0.654892 z m -2.3389,-0.841995 c 0.0637,-0.102907 0.0265,-0.187112 -0.0825,-0.187112 -0.109,0 -0.19815,0.08422 -0.19815,0.187112 0,0.102908 0.0372,0.187113 0.0825,0.187113 0.0454,0 0.13456,-0.08422 0.19815,-0.187113 z m 16.96231,-0.748327 c -0.0586,-0.843984 -0.10875,-0.935681 -0.51243,-0.935681 -0.64937,0 -10.8285,-0.721202 -12.1012,-0.85738 -1.05441,-0.112822 -1.0758,-0.105867 -0.99624,0.324264 0.0447,0.241755 0.0875,0.653194 0.0951,0.914305 0.01,0.354235 0.12074,0.482152 0.43493,0.50394 0.23154,0.01608 1.93661,0.163133 3.78899,0.326828 3.8099,0.336678 7.26738,0.593708 8.51356,0.632903 l 0.842,0.02653 z m -14.71202,0.223121 c -0.0576,-0.05758 -0.2086,-1.09e-4 -0.3355,0.127768 -0.18342,0.184789 -0.16193,0.206277 0.10475,0.104743 0.18454,-0.07024 0.28836,-0.174891 0.23076,-0.232508 z m 0.83706,-0.893641 c 0,-0.42971 -0.20744,-0.579265 -1.87111,-1.34901 -1.57346,-0.727996 -1.8711,-0.933882 -1.8711,-1.294267 0,-0.235704 -0.0898,-0.428555 -0.19935,-0.428555 -0.12311,0 -0.17127,0.334869 -0.12597,0.875551 l 0.0734,0.875543 1.85675,0.885782 c 1.0212,0.487186 1.91991,0.893088 1.99708,0.902013 0.0772,0.009 0.14034,-0.201252 0.14034,-0.467057 z m 16.65808,-0.465689 -0.0988,-0.948977 -3.82604,-1.965893 -3.826,-1.965893 -0.90224,0.422586 c -0.49625,0.232426 -0.83743,0.486844 -0.75822,0.565385 0.15662,0.155253 9.24948,4.828311 9.41124,4.836663 0.0543,0.003 0.0543,-0.421931 0,-0.943871 z m -3.01457,-0.220469 c -0.0429,-0.02573 -1.13045,-0.566884 -2.41685,-1.20258 -1.94028,-0.958826 -2.54834,-1.17233 -3.56799,-1.252791 l -1.22909,-0.09698 -0.26687,0.691455 c -0.14677,0.380304 -0.29058,0.740368 -0.31958,0.800135 -0.0291,0.0598 0.2021,0.07126 0.51361,0.02553 0.34109,-0.05004 0.56638,-1.91e-4 0.56638,0.125223 0,0.122186 -0.34819,0.208348 -0.842,0.208348 -0.86002,0 -1.01301,-0.128379 -0.6206,-0.520793 0.41064,-0.410637 -0.01,-0.460937 -0.51746,-0.0619 -0.27658,0.217554 -0.65494,0.39555 -0.8408,0.39555 -0.36896,0 -0.65778,-0.325974 -0.46216,-0.521588 0.0673,-0.06733 0.19137,-0.01099 0.27562,0.125324 0.18131,0.293351 0.66414,0.08573 1.21416,-0.52196 0.35855,-0.396224 0.79001,-0.549085 0.577,-0.204448 -0.0637,0.102908 -0.0229,0.187112 0.0908,0.187112 0.39854,0 0.0913,-0.656389 -0.37041,-0.791292 -0.3566,-0.104194 -0.91976,0.08372 -2.38568,0.796176 -1.05534,0.512925 -1.91884,0.960897 -1.91884,0.995509 0,0.03457 0.39995,0.08071 0.88877,0.102395 0.48883,0.02171 3.28848,0.229131 6.22145,0.460916 4.77943,0.377711 5.67792,0.420997 5.41063,0.260628 z m -13.68816,-0.367791 c -0.1105,-0.331442 -3.51046,-1.868529 -3.51046,-1.587047 0,0.12646 0.73673,0.578382 1.63721,1.004264 1.81775,0.859701 1.98269,0.911018 1.87325,0.582783 z m 39.01017,-0.941993 1.12293,-0.608109 -0.11562,-4.022889 c -0.0637,-2.212592 -0.11624,-4.638315 -0.11686,-5.390492 0,-0.996272 -0.0607,-1.330859 -0.22015,-1.232308 -0.144,0.08895 -0.18081,0.03598 -0.10751,-0.154892 0.083,-0.216226 0.0189,-0.265974 -0.25181,-0.195222 -0.1997,0.05226 -0.40829,0.168037 -0.46346,0.257352 -0.0552,0.08935 0.0312,0.111872 0.19213,0.05016 0.21542,-0.08271 0.26092,-0.02995 0.17267,0.200006 -0.0659,0.171736 -0.23255,0.26899 -0.37034,0.216117 -0.13778,-0.05287 -0.30841,-0.002 -0.37917,0.11201 -0.0899,0.145545 0.0808,0.174158 0.56769,0.09518 0.44477,-0.07216 0.67291,-0.04281 0.63153,0.08141 -0.0667,0.199865 -1.831,0.390867 -1.831,0.198217 0,-0.059 0.18723,-0.306647 0.4161,-0.550251 0.32615,-0.347179 0.36252,-0.476031 0.16824,-0.596099 -0.16155,-0.0998 0.0518,-0.198137 0.61303,-0.282276 l 0.86086,-0.129093 v -3.251939 c 0,-1.941009 -0.0745,-3.298028 -0.18499,-3.366258 -0.10775,-0.06664 -0.13637,0.01236 -0.0684,0.189272 0.081,0.211152 -0.24164,0.651858 -1.05972,1.44743 l -1.17624,1.143848 0.12124,4.035292 c 0.0667,2.219405 0.12161,5.908732 0.12199,8.198509 0,2.289775 0.0533,4.163228 0.11736,4.163228 0.064,0 0.62193,-0.273654 1.23957,-0.608119 z m -22.31261,-0.289367 c 0,-0.484695 -0.18538,-0.615848 -2.51421,-1.778932 -2.25447,-1.125948 -2.56372,-1.233082 -2.99378,-1.037145 -0.26377,0.120188 -0.47359,0.268154 -0.4663,0.328817 0.0139,0.114644 5.58683,2.979923 5.83394,2.999441 0.0772,0.006 0.14035,-0.224387 0.14035,-0.512181 z m -17.64922,-0.909631 c -0.0677,-0.06774 -0.0293,-0.236116 0.0853,-0.374224 0.13102,-0.157877 0.13785,-0.251102 0.0184,-0.251102 -0.22782,0 -0.43782,0.478293 -0.27951,0.636592 0.0616,0.0615 0.15394,0.111848 0.20538,0.111848 0.0514,0 0.0382,-0.05537 -0.0296,-0.12311 z m 17.62191,-0.33517 c -0.11749,-0.10759 -5.39055,-2.722602 -5.48997,-2.722602 -0.0528,0 -0.0961,0.0802 -0.0961,0.178328 0,0.256026 5.50653,3.001642 5.58604,2.785275 0.0365,-0.0992 0.0365,-0.207635 0,-0.241001 z m -14.45665,-0.163907 c 0.43353,-0.372907 0.47328,-0.486534 0.27823,-0.795221 -0.21467,-0.339672 -0.22254,-0.336215 -0.13868,0.06091 0.0489,0.231544 0.0126,0.420997 -0.0807,0.420997 -0.0933,0 -0.16958,-0.08915 -0.16958,-0.198157 0,-0.111636 -0.10213,-0.13441 -0.2339,-0.05217 -0.12864,0.0803 -0.54933,0.15064 -0.93492,0.156348 -0.60587,0.009 -0.68568,-0.03788 -0.58806,-0.34547 0.074,-0.233242 0.0416,-0.311743 -0.0941,-0.227835 -0.37833,0.233814 -0.23707,1.041549 0.21383,1.222781 0.70692,0.284146 1.21852,0.213272 1.74795,-0.242136 z m 5.86122,0.178218 c -0.043,-0.03839 -0.35161,-0.208931 -0.68605,-0.379028 -0.58775,-0.298899 -0.60811,-0.296568 -0.60811,0.06974 0,0.311713 0.12186,0.379028 0.68606,0.379028 0.37733,0 0.65099,-0.03135 0.6081,-0.06975 z m -1.6684,-0.420937 c 0,-0.216729 -0.0669,-0.250678 -0.23389,-0.118677 -0.12863,0.101697 -0.36018,0.231664 -0.51455,0.288809 -0.15997,0.0592 -0.0594,0.110262 0.23389,0.118677 0.35597,0.01024 0.51455,-0.0788 0.51455,-0.288809 z m 10.29114,-0.779773 v -0.896235 l -1.8357,-0.903199 -1.83566,-0.903199 -0.82121,0.418957 -0.82122,0.418947 2.61012,1.353591 c 1.43555,0.744479 2.63114,1.365694 2.65687,1.380488 0.0257,0.01477 0.0468,-0.376415 0.0468,-0.86935 z m -17.40136,0.334907 c 0,-0.102908 -0.0371,-0.187112 -0.0825,-0.187112 -0.0454,0 -0.13456,0.08422 -0.19817,0.187112 -0.0637,0.102908 -0.0265,0.187112 0.0825,0.187112 0.109,0 0.19816,-0.08422 0.19816,-0.187112 z m 2.58712,-0.432544 c 0.0559,-0.29519 0.0159,-0.308729 -0.31066,-0.104806 -0.30219,0.188731 -0.43238,0.186529 -0.67082,-0.01136 -0.2467,-0.204749 -0.29586,-0.200287 -0.29586,0.02683 0,0.406314 0.21272,0.545367 0.73984,0.48369 0.28021,-0.03276 0.49942,-0.193615 0.5375,-0.394354 z m -1.09023,-0.702861 c 0,-0.273865 -0.28103,-0.205524 -0.71981,0.175022 -0.621,0.538592 -0.49236,0.862496 0.15848,0.399047 0.30873,-0.219835 0.56133,-0.478172 0.56133,-0.574069 z m 0.58805,-0.64839 c 0,-1.197335 -0.17425,-1.494263 -0.76662,-1.306247 -0.40059,0.127133 -0.44344,0.564039 -0.0553,0.564039 0.31899,0 0.38258,0.135908 0.43774,0.935561 0.10289,1.49159 0.38419,1.350044 0.38419,-0.193353 z m 9.56273,0.920093 c 0.3501,-0.123484 0.45159,-0.446072 0.14034,-0.446072 -0.10288,0 -0.18711,-0.126309 -0.18711,-0.280668 0,-0.362696 -0.0537,-0.356335 -0.97958,0.116018 l -0.77756,0.396676 0.55113,0.242147 c 0.3031,0.133183 0.63532,0.207322 0.73822,0.16477 0.10288,-0.04252 0.33447,-0.129344 0.51456,-0.192871 z m -10.90162,-0.627375 c 0.19899,-0.480463 0.17212,-0.695394 -0.19883,-1.590452 -0.3877,-0.935319 -0.73432,-1.335533 -0.73432,-0.847804 0,0.102908 0.0662,0.187112 0.14701,0.187112 0.16908,0 0.23807,0.439389 0.28644,1.824399 0.0389,1.11612 0.16838,1.226609 0.4997,0.426745 z m -0.79673,0.255362 c -0.0622,-0.0622 -0.22355,-0.06885 -0.35864,-0.01477 -0.14924,0.05969 -0.10488,0.104069 0.11312,0.113058 0.19725,0.008 0.30775,-0.03608 0.24559,-0.09829 z m 1.54757,-0.751041 c 0,-0.15436 -0.0843,-0.228629 -0.18711,-0.165022 -0.10289,0.06362 -0.18712,0.241935 -0.18712,0.396304 0,0.154369 0.0843,0.228629 0.18712,0.165032 0.10288,-0.06361 0.18711,-0.241945 0.18711,-0.396314 z m 8.37056,-0.02472 c 0.86942,-0.357431 0.97054,-0.503568 0.47045,-0.679967 -0.18008,-0.06352 -0.43269,-0.164559 -0.56135,-0.224519 -0.15572,-0.07257 -0.23387,0.05679 -0.23387,0.387349 0,0.407753 -0.0752,0.48571 -0.421,0.436596 -0.54915,-0.07799 -0.65832,-0.79908 -0.20217,-1.335001 0.22711,-0.266788 0.24275,-0.325701 0.0464,-0.174851 -0.23538,0.180912 -0.3695,0.171887 -0.65487,-0.04401 -0.48993,-0.370697 -0.63954,-0.349461 -0.63954,0.09075 0,0.484031 -0.56512,0.493799 -0.69112,0.01199 -0.0906,-0.346607 -0.12273,-0.348949 -0.74117,-0.05406 l -0.64642,0.308255 1.5539,0.79307 c 0.85467,0.436184 1.63723,0.797293 1.73906,0.802458 0.10176,0.005 0.54356,-0.137947 0.98164,-0.318044 z m 7.48956,-1.475661 c 0.0526,-0.654872 0.0378,-1.190671 -0.0328,-1.190671 -0.0707,0 -0.37378,0.126862 -0.67362,0.281914 -0.48795,0.252337 -0.77836,0.821744 -0.95367,1.869865 -0.0171,0.102908 0.25402,0.326145 0.60273,0.496091 0.79986,0.389782 0.9228,0.220367 1.05748,-1.457199 z m -17.35701,1.542464 c 0,-0.0405 -0.13066,-0.123685 -0.29038,-0.184971 -0.16651,-0.06391 -0.24164,-0.03256 -0.17607,0.07357 0.10987,0.177795 0.46645,0.26297 0.46645,0.111436 z m 6.68923,-2.211999 c 0.24416,-0.201202 0.31936,-0.934635 0.11661,-1.137376 -0.0645,-0.06453 -0.35443,0.005 -0.64427,0.155234 -0.33698,0.174258 -0.56892,0.204699 -0.64323,0.08442 -0.16839,-0.272436 0.0638,-0.881188 0.3828,-1.003589 0.39121,-0.150138 0.34448,0.384697 -0.0539,0.616743 -0.44956,0.261855 0.0132,0.252036 0.59394,-0.01256 0.43964,-0.200307 0.56262,-0.702579 0.24886,-1.016332 -0.0888,-0.08875 -5.81437,2.383785 -6.08632,2.628333 -0.0281,0.02532 -0.004,0.169313 0.0539,0.320013 0.0719,0.187504 0.28854,0.247061 0.68627,0.18869 0.44968,-0.06602 0.65526,0.01296 0.90896,0.34936 0.18033,0.239062 0.28609,0.543548 0.23501,0.676641 -0.0879,0.229152 3.70514,-1.440666 4.20132,-1.849543 z m -4.25678,0.712127 c 0,-0.276929 0.1289,-0.54603 0.29142,-0.60839 0.16029,-0.0615 0.24711,-0.227273 0.19299,-0.368355 -0.0577,-0.150399 0.0235,-0.256518 0.19638,-0.256518 0.19851,0 0.25563,0.102059 0.1749,0.312487 -0.0659,0.171866 -0.0174,0.375942 0.10825,0.453509 0.17738,0.109638 0.17286,0.207715 -0.0203,0.440484 -0.1367,0.164701 -0.29192,0.256046 -0.34496,0.203001 -0.0531,-0.05306 -0.20946,-0.003 -0.34757,0.111935 -0.19935,0.165444 -0.25112,0.10603 -0.25112,-0.288156 z m 13.19474,0.248096 c 0.0692,-0.314909 0.0838,-0.61452 0.0326,-0.665796 -0.0513,-0.05125 -0.45573,0.09176 -0.89878,0.317722 l -0.80552,0.410948 0.64705,0.318285 c 0.78034,0.383812 0.8635,0.352878 1.0247,-0.381159 z m -8.23257,-1.298056 c 0.0152,-0.203735 -0.0419,-0.370415 -0.12646,-0.370415 -0.0845,0 -0.13665,0.206499 -0.11575,0.458887 0.0433,0.523779 0.20137,0.466061 0.24223,-0.08844 z m 1.29876,0.366244 c -0.0677,-0.1094 0,-0.340948 0.15121,-0.514563 0.2834,-0.326285 0.37543,-1.024493 0.11374,-0.862767 -0.0812,0.05026 -0.0999,0.216016 -0.0414,0.368425 0.0724,0.188831 -0.0792,0.341772 -0.47597,0.480092 -0.60998,0.212639 -0.74365,0.444303 -0.34838,0.603787 0.41609,0.167906 0.72694,0.129113 0.60082,-0.07498 z m -3.54782,-2.079417 c 0.9262,-0.410515 2.23131,-0.994544 2.90022,-1.297845 0.66892,-0.303301 2.37113,-1.075197 3.7827,-1.715314 1.41154,-0.640129 2.56932,-1.229656 2.57277,-1.310067 0.0198,-0.462151 -0.85548,-0.212639 -3.49526,0.996203 -3.67881,1.684671 -9.55052,4.295557 -9.66034,4.295557 -0.17043,0 -0.30709,-7.729312 -0.41349,-23.388906 -0.09,-13.252283 -0.0652,-16.241583 0.13703,-16.496714 0.13587,-0.171374 2.47834,-1.12233 5.20547,-2.113236 2.72717,-0.9909157 6.4402,-2.3452427 8.25122,-3.0096317 1.81103,-0.6644004 3.42487,-1.2079879 3.58631,-1.2079879 0.17644,0 0.40583,0.3172401 0.57501,0.7952211 l 0.2815,0.7952208 0.0149,-1.3565569 c 0.007,-0.7461058 -0.0147,-1.3565573 -0.0507,-1.3565573 -0.036,0 -2.37253,0.8315723 -5.19235,1.8479456 -2.81978,1.0163616 -7.01351,2.5063646 -9.31935,3.3111233 l -4.19243,1.463189 0.12436,10.020554 c 0.0683,5.511303 0.12916,13.767449 0.13505,18.346991 0.006,4.579552 0.0596,9.476475 0.11936,10.882066 l 0.1085,2.55561 1.42284,-0.655234 c 0.78253,-0.360385 2.1806,-0.991117 3.1068,-1.401631 z m 4.11644,1.904094 c 0.0637,-0.102908 0.0265,-0.187112 -0.0825,-0.187112 -0.109,0 -0.19815,0.08422 -0.19815,0.187112 0,0.102908 0.0371,0.187112 0.0825,0.187112 0.0455,0 0.13457,-0.08422 0.19815,-0.187112 z m -9.08112,-7.157012 c -0.0194,-7.687172 -0.15408,-11.713106 -0.37976,-11.347977 -0.199,0.322004 -3.08108,-0.885913 -3.44729,-1.444797 -0.2319,-0.353943 -0.28395,-1.892446 -0.32632,-9.645949 -0.0483,-8.840838 -0.065,-9.227645 -0.40032,-9.292166 -0.34012,-0.06542 -0.34781,0.398233 -0.27491,16.613988 0.0778,17.314237 0.0645,17.017619 0.76515,17.031931 0.0772,10e-4 0.15922,-1.828488 0.18227,-4.066808 0.041,-3.968317 0.0433,-3.991613 0.0981,-0.93556 0.0308,1.723767 0.0833,3.134121 0.11637,3.134121 0.0332,0 0.32474,-0.131937 0.64797,-0.29318 0.32929,-0.164268 0.69159,-0.228026 0.82398,-0.145012 0.12994,0.08151 0.38421,0.123846 0.56499,0.09407 0.59905,-0.09859 0.58444,0.50384 -0.0275,1.129658 -0.32008,0.32739 -0.59174,0.768719 -0.60367,0.980735 -0.0179,0.315712 -0.0372,0.326215 -0.10725,0.05798 -0.0607,-0.232348 -0.27377,-0.327451 -0.73353,-0.327451 h -0.64794 l 0.0536,1.824337 0.0536,1.824338 1.77756,0.98169 c 0.97766,0.539939 1.80125,0.981991 1.83023,0.982333 0.029,5.02e-4 0.0446,-3.22001 0.0347,-7.156368 z m -3.27328,2.658141 c -0.14338,-0.231976 0.24146,-0.746559 0.54253,-0.725474 0.13257,0.009 0.12411,0.04984 -0.0229,0.109151 -0.12864,0.05185 -0.23389,0.211021 -0.23389,0.353581 0,0.164881 0.11337,0.215725 0.31135,0.139716 0.20936,-0.0803 0.26704,-0.04773 0.1761,0.0994 -0.16791,0.271644 -0.61151,0.285181 -0.77319,0.02362 z m -0.8138,-10.657066 c -0.0317,-1.099727 0.0208,-1.683998 0.15125,-1.683998 0.1269,0 0.19984,0.614592 0.19984,1.683998 0,0.926204 -0.068,1.683999 -0.15127,1.683999 -0.0833,0 -0.17311,-0.757795 -0.19982,-1.683999 z m 0.0134,-3.648665 c 0.004,-0.308737 0.0457,-0.412384 0.0931,-0.230326 0.0474,0.182046 0.0443,0.434655 -0.007,0.561326 -0.0513,0.126681 -0.09,-0.02231 -0.0863,-0.331 z m 12.13806,18.236762 c 0.28321,-0.151575 0.36192,-0.395721 0.36192,-1.122672 0,-0.615395 0.079,-0.930887 0.23388,-0.934655 0.12866,-0.003 0.0848,-0.09246 -0.0973,-0.198529 -0.18217,-0.106054 -0.49791,-0.139917 -0.70166,-0.07528 -0.31861,0.101123 -0.37043,0.285995 -0.37043,1.321192 0,1.282055 0.0152,1.308789 0.57361,1.00992 z m 8.11769,-0.948685 c 0.10875,-0.102383 0.0499,-0.167404 -0.15138,-0.167404 -0.18103,0 -0.27769,-0.08322 -0.21482,-0.184961 0.0629,-0.101734 0.005,-0.151123 -0.1293,-0.10975 -0.13398,0.0414 -0.52614,0.124283 -0.87146,0.184238 -0.51538,0.08945 -0.60793,0.05709 -0.51668,-0.180641 0.0637,-0.165946 0.0321,-0.24083 -0.0739,-0.175343 -0.32688,0.202026 -0.19759,0.66049 0.23602,0.836939 0.45362,0.18459 1.43239,0.06915 1.72144,-0.203082 z m -4.89717,-0.629928 c 0.98483,-0.460222 1.84494,-0.924696 1.91138,-1.032172 0.0664,-0.107477 0.19334,-0.150559 0.28203,-0.09578 0.0888,0.05477 0.22218,0.001 0.29663,-0.119414 0.0845,-0.136822 0.0543,-0.168942 -0.0805,-0.08553 -0.11887,0.07347 -0.21602,0.04433 -0.21602,-0.06463 0,-0.108989 -0.16344,-0.198157 -0.36317,-0.198157 -0.5604,0 -0.67907,-0.396666 -0.22794,-0.761957 0.22221,-0.179925 0.40529,-0.43994 0.40686,-0.577807 0.002,-0.207092 0.0308,-0.206539 0.16374,0.003 0.11299,0.178229 0.19921,0.191776 0.28964,0.04542 0.46531,-0.752861 -2.47103,0.320174 -3.02156,1.104189 -0.12461,0.177355 -0.48241,0.428485 -0.79522,0.55806 -0.47494,0.19672 -0.56879,0.339935 -0.56879,0.867794 0,0.347702 0.0945,0.632189 0.21001,0.632189 0.1451,0 0.13802,0.08673 -0.0229,0.280668 -0.33096,0.398756 -0.25603,0.374756 1.73593,-0.556091 z m -1.26918,0.08663 c -0.16876,-0.273019 0.0631,-0.881731 0.38238,-1.004282 0.36503,-0.140078 0.3532,0.332687 -0.0159,0.639083 -0.23126,0.191927 -0.24067,0.271281 -0.0468,0.394275 0.17081,0.108327 0.17669,0.154831 0.0198,0.15684 -0.12261,0.001 -0.27536,-0.08211 -0.3395,-0.185916 z m -7.75698,-19.020214 -0.0199,-17.48162 -0.66608,-0.927148 c -0.36634,-0.509931 -0.71361,-0.927149 -0.77172,-0.927149 -0.0581,0 -0.0502,2.631247 0.0176,5.847227 0.0678,3.215969 0.1421,10.267726 0.16505,15.670568 0.0231,5.402834 0.0684,11.533844 0.10101,13.624458 l 0.0593,3.801124 0.56721,-1.062914 0.56722,-1.062925 -0.0198,-17.481621 z m 1.82814,18.486416 c 1.30613,-0.603245 3.19724,-1.457952 4.20253,-1.899351 1.74991,-0.768348 1.81442,-0.817291 1.51466,-1.148532 -0.17221,-0.190287 -0.38527,-0.345983 -0.47347,-0.345983 -0.0883,0 -0.74917,0.39155 -1.46887,0.870114 -1.21531,0.808126 -1.33214,0.848718 -1.64024,0.569899 -0.30629,-0.277191 -0.45568,-0.255171 -1.94871,0.287251 -1.44974,0.526673 -1.66211,0.665937 -2.05296,1.346175 -0.52302,0.910244 -0.73985,1.41723 -0.60612,1.41723 0.0542,0 1.16709,-0.493559 2.47318,-1.096803 z m 4.86463,0.624078 c -0.0576,-0.05758 -0.16226,0.04624 -0.23251,0.23077 -0.10151,0.266668 -0.08,0.288166 0.10475,0.104743 0.12787,-0.126923 0.18538,-0.277905 0.12777,-0.335512 z m 9.56123,-1.577015 0.0317,-1.488415 -0.58582,-0.302939 c -0.32222,-0.166619 -0.6121,-0.275682 -0.6442,-0.242366 -0.10613,0.110174 -0.13856,0.607908 -0.11612,1.785373 0.0204,1.066442 0.0652,1.186751 0.53675,1.442625 0.28299,0.153536 0.56661,0.282519 0.63021,0.286639 0.0637,0.004 0.12996,-0.66229 0.14743,-1.480917 z m 5.59352,-2.224069 c 0.0517,-0.866888 0.0139,-0.96559 -0.46292,-1.215494 -0.49586,-0.259794 -0.6179,-0.222469 -2.72253,0.832546 l -2.20339,1.104533 v 1.511439 1.511448 l 2.66635,-1.400486 2.66632,-1.400486 z m -3.85183,1.833071 c -0.40965,-0.164449 -0.41546,-0.195232 -0.13839,-0.731031 0.34965,-0.676168 0.91291,-1.008263 1.43111,-0.843804 0.38158,0.121113 0.38162,0.123285 0.0144,0.524925 -0.20279,0.221825 -0.42617,0.592763 -0.49638,0.824316 -0.14034,0.462776 -0.18737,0.475861 -0.81076,0.225594 z m 0.77797,-0.795663 c 0.20519,-0.274829 0.32023,-0.552542 0.25563,-0.617135 -0.13332,-0.133323 -1.07372,0.821151 -1.07372,1.089789 0,0.298205 0.42656,0.05175 0.81809,-0.472654 z m 1.51865,-0.202177 c -0.51553,-0.7868 0.11462,-2.141267 0.75059,-1.613428 0.42711,0.354467 0.36784,1.624192 -0.0872,1.867705 -0.30258,0.161925 -0.42029,0.116817 -0.66344,-0.254277 z m 0.81646,-0.504895 c 0.0651,-0.446967 0.0609,-0.448223 -0.32303,-0.100673 -0.21391,0.193564 -0.34107,0.429328 -0.2826,0.52392 0.18319,0.296426 0.53685,0.04924 0.60563,-0.423247 z m -0.25422,-0.923441 c -0.16193,-0.261974 -0.45884,0.09447 -0.46367,0.556674 -0.002,0.228448 0.0474,0.223664 0.29993,-0.02884 0.16685,-0.16682 0.24035,-0.403862 0.16374,-0.527849 z m -7.42154,3.650695 c 0.0649,-0.370806 0.0631,-0.370876 -0.21171,-0.007 -0.23581,0.312296 -0.32222,0.329834 -0.57814,0.117429 -0.16553,-0.137345 -0.30094,-0.169253 -0.30094,-0.07086 0,0.566713 0.99099,0.530865 1.09079,-0.03949 z m -0.3935,-1.231011 c -0.11125,-1.227253 -0.18503,-1.402385 -0.5068,-1.203515 -0.15144,0.09357 -0.14662,0.203704 0.0176,0.40152 0.12436,0.149907 0.21201,0.647616 0.19469,1.106009 -0.0196,0.520403 0.0491,0.833441 0.18307,0.833441 0.14919,0 0.18318,-0.346776 0.1115,-1.137455 z m -5.55471,0.385209 c 0.40753,-0.207916 0.74098,-0.420123 0.74098,-0.47158 0,-0.08382 -1.47703,0.605848 -1.6684,0.779051 -0.20712,0.187424 0.26253,0.03176 0.92742,-0.307471 z m 4.63527,-0.900104 c 0.0341,-0.34329 -0.0733,-0.766388 -0.2569,-1.012383 -0.23714,-0.317702 -0.28629,-0.337009 -0.19805,-0.07779 0.32758,0.962375 0.33631,1.24453 0.0419,1.357453 -0.40361,0.154881 -0.38369,0.428314 0.027,0.369429 0.21718,-0.03115 0.34716,-0.245583 0.38595,-0.636721 z m -10.16253,-0.273372 1.3098,-0.793834 -0.002,-2.990556 c 0,-1.644814 -0.027,-9.031911 -0.0573,-16.415792 l -0.0552,-13.425234 h -1.19042 c -0.65472,0 -1.33545,-0.05567 -1.51271,-0.123672 -0.30308,-0.116305 -0.31535,0.377027 -0.20578,8.279673 0.0642,4.621842 0.118,12.423906 0.11987,17.337914 0.002,4.914008 0.0665,8.932485 0.14368,8.929953 0.0772,-0.003 0.72975,-0.361834 1.45012,-0.798448 z m 9.63624,0.211684 c 0,-0.206759 -0.13496,-0.198147 -0.57363,0.03658 -0.53785,0.287845 -0.44385,0.58405 0.10588,0.333593 0.25726,-0.11723 0.46777,-0.283825 0.46777,-0.370215 z m 2.99378,-0.531296 c 0,-0.623707 -0.0832,-1.122672 -0.18712,-1.122672 -0.10288,0 -0.18711,0.08422 -0.18711,0.187112 0,0.102907 -0.0815,0.187112 -0.18122,0.187112 -0.0996,0 -0.13277,-0.126299 -0.0735,-0.280668 0.0593,-0.154369 0.25808,-0.280669 0.4419,-0.280669 0.30598,0 0.67261,-0.512431 0.49422,-0.69079 -0.0417,-0.04172 -0.6752,0.192077 -1.40773,0.519608 -1.32873,0.59413 -1.73821,1.106743 -0.88408,1.106743 0.45876,0 0.67492,0.308065 0.67492,0.961901 0,0.203485 0.0835,0.318337 0.18564,0.255232 0.10213,-0.06311 0.33363,-0.02854 0.51456,0.07679 0.55502,0.323209 0.60957,0.240869 0.60957,-0.919742 z m -1.20577,0.01688 c -0.1075,-0.173997 0.0539,-0.765323 0.20898,-0.765323 0.0472,0 0.25414,0.09005 0.45985,0.200167 0.29865,0.159837 0.32926,0.254066 0.1519,0.46778 -0.25141,0.302909 -0.66349,0.351813 -0.82073,0.09739 z m 21.25238,-1.568222 c -0.03,-1.358024 -0.09,-2.504757 -0.13365,-2.548303 -0.0435,-0.04351 -0.0792,1.127696 -0.0792,2.602764 0,1.475058 0.0601,2.621789 0.13361,2.548294 0.0734,-0.07347 0.10912,-1.24473 0.0792,-2.602755 z m 0.48745,-1.387884 c -0.0361,-0.698931 -0.0659,-0.176177 -0.0662,1.161667 0,1.337844 0.0291,1.909702 0.0657,1.27078 0.0363,-0.638912 0.0367,-1.733515 0,-2.432447 z M 167.3766,45.125753 c -0.0491,-1.080562 -0.0945,-7.711311 -0.10101,-14.735008 l -0.0125,-12.770362 h -1.30977 -1.30976 v 6.611705 c 0,3.636433 0.0558,10.66221 0.12398,15.61283 l 0.12399,9.001127 1.28685,-0.877822 1.28684,-0.877813 z m -2.09347,-12.069234 c 0.53143,-0.573427 0.60771,-0.834467 0.24975,-0.854597 -0.36878,-0.0207 0.46744,-0.333271 0.93089,-0.347913 0.36984,-0.01161 0.40363,0.05468 0.30269,0.594953 -0.15097,0.808157 -0.25692,0.900053 -1.18002,1.023871 l -0.78695,0.105555 z m 1.0729,-0.191132 c 0,-0.344245 -0.38146,-0.290146 -0.58076,0.08231 -0.18193,0.339913 -0.16156,0.365421 0.18831,0.235985 0.21575,-0.0798 0.39235,-0.223041 0.39245,-0.318275 z m 0.0657,-0.65031 c 0.0637,-0.102908 0.0265,-0.187112 -0.0825,-0.187112 -0.10901,0 -0.19817,0.08422 -0.19817,0.187112 0,0.102908 0.0372,0.187112 0.0825,0.187112 0.0455,0 0.13458,-0.08422 0.19818,-0.187112 z m -2.01275,0.46778 c -0.0951,-15.045827 -0.10463,-15.359439 -0.48667,-16.185122 -0.23425,-0.506211 -0.35868,-0.655455 -0.31202,-0.374224 0.0427,0.257282 0.13166,7.532391 0.19777,16.166932 0.0874,11.420438 0.1795,15.795059 0.33779,16.051084 0.20488,0.331271 0.22183,0.332346 0.28893,0.01819 0.0392,-0.183544 0.0276,-7.238135 -0.0258,-15.676851 z m 13.14585,15.06245 c 0.36019,-0.197192 0.5862,-0.362063 0.50225,-0.366374 -0.0839,-0.004 -0.3227,0.08322 -0.53058,0.194428 -0.20786,0.111249 -0.41302,0.167193 -0.45588,0.124321 -0.0429,-0.04291 0.46953,-0.364545 1.13869,-0.71485 l 1.21664,-0.636902 0.0125,-2.247315 c 0.006,-1.236017 0.002,-4.120757 -0.007,-6.410533 -0.0129,-2.767666 0.0459,-4.163228 0.17517,-4.163228 0.10688,0 0.19442,-0.201624 0.19442,-0.448061 0,-1.309072 1.51732,-4.855688 2.82679,-6.607354 0.80422,-1.075818 0.84503,-1.177475 0.4727,-1.177475 -0.40777,0 -1.57057,1.631075 -2.50968,3.520336 -0.72014,1.448776 -0.88663,1.98541 -0.98691,3.180895 l -0.12062,1.438103 -0.0282,-1.917884 c -0.0156,-1.054844 -0.0694,-1.917893 -0.11987,-1.917893 -0.0503,0 -0.64141,0.220107 -1.31339,0.489127 l -1.22182,0.489126 0.0504,8.679374 c 0.0547,9.423129 0.10913,8.961138 -0.988,8.393802 -0.69724,-0.360556 -0.73139,-0.197996 -0.0375,0.178448 0.6717,0.364405 0.94172,0.351913 1.73077,-0.0801 z m -7.64171,-0.608109 1.11378,-0.795221 -0.0874,-13.14532 c -0.0481,-7.229935 -0.0159,-13.1012 0.0713,-13.047271 0.0873,0.05396 0.17003,5.548327 0.18393,12.20977 0.0139,6.661442 0.0403,12.479885 0.0586,12.929876 0.0281,0.689534 0.13282,0.894878 0.6661,1.306005 l 0.63278,0.48783 -0.0833,-12.456649 -0.0833,-12.45666 -0.52867,-0.918023 c -0.8879,-1.54181 -0.86173,-1.526705 -2.278,-1.31504 l -1.2467,0.186318 0.11849,4.689569 c 0.0652,2.579268 0.11949,8.836437 0.12073,13.904814 0,5.068377 0.0529,9.215223 0.11512,9.215223 0.0622,0 0.61412,-0.357842 1.2267,-0.795221 z m -14.37833,0.392545 c 0.55637,-0.293472 1.26098,-1.065778 1.0764,-1.179847 -0.0824,-0.05095 -0.29536,0.06804 -0.47317,0.264538 -0.17777,0.196459 -0.43311,0.315029 -0.56739,0.263503 -0.1343,-0.05155 -0.29918,-0.005 -0.36639,0.104031 -0.0769,0.124396 -0.002,0.152028 0.1989,0.07458 0.21784,-0.08362 0.27755,-0.05287 0.18578,0.09568 -0.0744,0.120401 -0.3555,0.218901 -0.62465,0.218901 h -0.48935 l 0.43947,-0.46777 c 0.24168,-0.257282 0.5651,-0.46778 0.71868,-0.46778 0.15357,0 0.22701,-0.05227 0.16321,-0.11603 -0.0638,-0.06382 -0.33409,-0.06131 -0.60061,0.006 -0.54743,0.137395 -0.90185,0.825461 -0.61107,1.18632 0.23361,0.289883 0.4282,0.293632 0.95019,0.01829 z M 168.2502,33.945867 c -0.0638,-11.367945 -0.12461,-13.923757 -0.3449,-14.504911 -0.14708,-0.387994 -0.26741,-0.768358 -0.26741,-0.845241 0,-0.07689 0.48414,-0.324909 1.07588,-0.551176 2.05621,-0.786247 8.00652,-3.073108 9.26202,-3.559632 1.21353,-0.470262 1.263,-0.514201 1.263,-1.121707 0,-0.347763 0.0872,-0.795151 0.19368,-0.994202 0.1065,-0.199062 0.15883,-0.361923 0.11624,-0.361923 -0.095,0 -5.35666,1.990767 -9.29119,3.515392 -1.59514,0.618109 -3.27913,1.254789 -3.74223,1.414847 l -0.842,0.29101 0.88876,0.009 c 0.79646,0.008 0.88806,0.05267 0.88176,0.429931 -0.004,0.231553 0.0445,6.987447 0.10738,15.013114 0.10963,13.982852 0.1557,15.065013 0.64172,15.065013 0.0742,0 0.10001,-6.209753 0.0574,-13.799449 z m 8.28966,12.349335 c -0.0522,-0.797552 -0.0978,-4.672847 -0.10138,-8.611736 l -0.006,-7.161644 -0.49902,-0.189736 c -0.37232,-0.141545 -0.5373,-0.12849 -0.64973,0.05145 -0.33852,0.541618 -0.0808,-1.331432 0.33894,-2.463672 0.5874,-1.584523 0.51517,-3.243496 -0.19838,-4.555653 -0.54466,-1.00162 -0.59921,-1.199767 -0.25481,-0.925671 0.16469,0.131063 1.36891,-0.277764 4.06967,-1.381633 5.55689,-2.271232 5.36849,-2.169838 5.45808,-2.937179 l 0.0759,-0.649627 -0.94263,0.376204 c -0.9523,0.380074 -9.68525,3.756693 -10.20462,3.945655 -0.15436,0.05619 0.0413,0.08784 0.43481,0.07034 l 0.71547,-0.03186 0.093,11.788009 c 0.0512,6.483406 0.14076,11.914318 0.19906,12.068678 0.077,0.203995 0.14495,0.152881 0.24868,-0.187112 0.10613,-0.347682 0.14748,-0.193103 0.16135,0.602138 0.0169,0.965892 0.0688,1.097055 0.53322,1.349071 0.283,0.153524 0.53909,0.282517 0.56908,0.286638 0.03,0.004 0.0125,-0.645064 -0.0403,-1.442626 z m -1.15898,-3.508326 c 0,-1.23494 0.0307,-1.715786 0.0673,-1.068562 0.0367,0.647224 0.0363,1.657627 0,2.245334 -0.037,0.587708 -0.0671,0.05818 -0.0667,-1.176772 z m -0.25853,-7.952232 c 0,-2.298348 0.0373,-4.14155 0.0828,-4.096003 0.13699,0.137003 0.17826,8.01375 0.0427,8.149324 -0.0691,0.06905 -0.12547,-1.754971 -0.12547,-4.053321 z m -3.74223,11.753296 c 0,-0.272466 -0.26826,-0.152931 -0.93556,0.416887 l -0.65489,0.559236 0.79522,-0.411861 c 0.43738,-0.226529 0.79523,-0.480443 0.79523,-0.564262 z m 8.91661,-0.731764 c -0.32326,-0.264377 -0.35675,-0.376707 -0.16918,-0.567447 0.18868,-0.191815 0.2339,-0.176288 0.2339,0.0803 0,0.390918 0.36874,0.409671 0.85302,0.04331 0.35151,-0.265873 0.34854,-0.274898 -0.0925,-0.280658 -0.25064,-0.003 -0.67165,-0.195402 -0.93556,-0.426956 -0.2639,-0.231553 -0.41743,-0.344546 -0.34112,-0.251101 0.0763,0.09347 0.0627,0.261845 -0.0301,0.374224 -0.26174,0.316607 -0.0154,1.232138 0.3343,1.242439 0.16807,0.005 -0.17854,0.2589 -0.77026,0.564331 -1.46897,0.758217 -1.36706,0.876516 0.12236,0.142047 1.19264,-0.588119 1.1964,-0.59244 0.79522,-0.920525 z m -5.94111,0.23487 0.44953,-0.355009 -0.13665,-11.764673 c -0.0752,-6.470572 -0.15111,-11.778532 -0.16884,-11.795476 -0.0176,-0.01698 -0.43215,0.01457 -0.92098,0.07005 l -0.88879,0.100898 v 5.822895 c 1.8e-4,3.202583 0.0558,8.787011 0.12374,12.409826 l 0.12336,6.586942 0.48438,-0.360235 c 0.26642,-0.198127 0.68668,-0.519989 0.93393,-0.715242 z m 14.15615,0.292788 c 0.51656,-0.261763 1.51984,-1.015287 2.22943,-1.674481 l 1.29019,-1.198541 -0.42514,-0.425147 c -0.23382,-0.233835 -0.54242,-0.705795 -0.68574,-1.048814 -0.21089,-0.504754 -0.4622,-0.699113 -1.3181,-1.019338 -0.97684,-0.365491 -1.083,-0.372596 -1.39181,-0.09317 -0.18389,0.166399 -0.69381,0.408686 -1.13317,0.538422 -0.94261,0.278317 -1.70546,0.07789 -2.36418,-0.621154 l -0.42246,-0.448323 v 2.490958 c 0,1.370024 -0.0542,2.436738 -0.12049,2.370468 -0.0662,-0.06624 -0.1483,-1.280147 -0.18229,-2.697517 -0.038,-1.583438 -0.16706,-2.901684 -0.33477,-3.419041 -0.25783,-0.795312 -0.27366,-0.623124 -0.28548,3.1057 l -0.0126,3.947694 0.70167,0.296387 c 1.17042,0.494382 1.22509,0.504382 2.38932,0.436996 0.73046,-0.04231 1.45644,-0.232478 2.06556,-0.541145 z m -3.41456,-3.78407 c 0,-0.617464 0.036,-0.847511 0.0775,-0.511205 0.0416,0.336304 0.0408,0.841501 -0.002,1.122662 -0.0427,0.28117 -0.0768,0.006 -0.0757,-0.611457 z m -10.24395,3.504307 c -0.0627,-0.06272 -0.25941,0.03809 -0.43704,0.224136 -0.30877,0.323281 -0.30376,0.328295 0.11399,0.114033 0.24036,-0.12326 0.38572,-0.275442 0.32301,-0.338164 z m 7.37931,0.04924 c 0,-0.416485 -0.0406,-0.444012 -0.36033,-0.244347 -0.33382,0.208498 -0.33726,0.242538 -0.0467,0.463418 0.4151,0.315632 0.40709,0.319944 0.40709,-0.219071 z m -0.38982,-0.585084 c 0.25677,-0.224659 -0.35224,-0.01598 -0.65031,0.222769 -0.34248,0.274376 -0.3365,0.278276 0.10463,0.06824 0.2573,-0.122523 0.50287,-0.253473 0.54574,-0.290979 z m 1.27913,-9.236671 c -0.0606,-5.600046 -0.0337,-9.542665 0.0652,-9.542665 0.0931,0 0.17958,1.689908 0.1937,3.788994 0.0141,2.083951 0.0608,3.578506 0.10401,3.321224 0.0431,-0.257271 0.17364,-0.762477 0.28993,-1.122662 0.11624,-0.360194 0.20629,-1.244288 0.20001,-1.964667 -0.0112,-1.252026 -0.006,-1.266317 0.10563,-0.324044 l 0.11699,0.985731 0.89384,-1.328689 0.8938,-1.328699 -0.0517,-2.621347 -0.0518,-2.621337 -0.50701,0.399168 c -0.42722,0.336336 -0.47953,0.471518 -0.33233,0.858707 0.20597,0.541729 0.18126,2.785525 -0.0345,3.125269 -0.0823,0.129625 -0.15091,-0.598322 -0.1525,-1.617649 -0.002,-1.841412 -0.005,-1.851161 -0.37709,-1.514675 -0.29426,0.266307 -0.38093,0.60235 -0.40567,1.572674 l -0.0315,1.233996 -0.10888,-1.117425 -0.10887,-1.117416 -0.57445,0.743192 c -1.51912,1.96547 -1.40647,1.124079 -1.39406,10.410507 0.01,7.336787 0.0454,8.321843 0.30966,8.572975 0.27324,0.259653 0.28839,-0.443943 0.17854,-8.2907 -0.0788,-5.629219 -0.0566,-8.535195 0.0648,-8.460191 0.11712,0.07235 0.18877,3.241265 0.19554,8.644721 0.006,4.691761 0.0562,8.604099 0.11188,8.694088 0.46312,0.749332 0.50582,-0.23485 0.40701,-9.37908 z m 1.74941,-7.306686 0.0191,-0.832648 0.1555,0.654892 c 0.0909,0.383229 0.083,0.728619 -0.0191,0.832638 -0.1085,0.110487 -0.1674,-0.137345 -0.15549,-0.654882 z m -0.92517,-0.177756 c 0,-0.257281 0.0426,-0.362535 0.0944,-0.233895 0.0518,0.128641 0.0518,0.33914 0,0.46778 -0.0518,0.128641 -0.0944,0.02341 -0.0944,-0.233885 z m -1.71355,-0.935561 c 0,-0.102907 0.0843,-0.187112 0.1871,-0.187112 0.10288,0 0.18711,0.08422 0.18711,0.187112 0,0.102908 -0.0843,0.187113 -0.18711,0.187113 -0.10288,0 -0.1871,-0.08422 -0.1871,-0.187113 z m -1.57709,16.122702 c 0,-0.18867 -0.10364,-0.343038 -0.23047,-0.343038 -0.1655,0 -0.17871,0.09668 -0.0468,0.343038 0.10101,0.18867 0.20467,0.343039 0.23046,0.343039 0.0257,0 0.0468,-0.154369 0.0468,-0.343039 z m 1.01574,-7.459498 c 0,-5.42043 -0.0596,-7.742908 -0.19531,-7.607213 -0.12956,0.129555 -0.19122,2.701668 -0.1832,7.639635 0.0112,6.811379 0.0477,7.770115 0.29599,7.770115 0.0455,0 0.0825,-3.511139 0.0825,-7.802537 z m 12.4429,7.209322 c -0.2058,-0.114183 -0.50462,-0.30108 -0.66406,-0.415309 -0.15941,-0.114232 -0.0915,-0.01819 0.15077,0.213302 0.24233,0.231544 0.54117,0.418435 0.66408,0.415309 0.12286,-0.003 0.0551,-0.09909 -0.15079,-0.213302 z m 2.87477,-0.669787 c 0.67388,-0.678841 0.70375,-0.728709 0.12643,-0.211151 -0.41573,0.372686 -0.92425,0.770075 -1.13008,0.883089 -0.20581,0.113009 -0.2627,0.208026 -0.12643,0.211151 0.1363,0.003 0.64483,-0.394264 1.13008,-0.883089 z m -0.72298,0.109413 c 0,-0.208368 -0.81114,7.44e-4 -0.90086,0.232257 -0.0323,0.08352 -0.20079,0.106554 -0.37425,0.05115 -0.25047,-0.08 -0.26168,-0.06252 -0.0546,0.08493 0.29894,0.21282 1.32967,-0.07277 1.32967,-0.368375 z M 181.1099,36.761871 c 0,-4.427123 -0.0627,-6.617142 -0.18602,-6.493858 -0.19765,0.197635 -0.2305,0.643606 -0.13657,1.853493 0.032,0.41165 -0.007,0.8392 -0.0865,0.950122 -0.0795,0.110924 -0.0632,0.485519 0.0362,0.832438 0.10762,0.375249 0.11212,0.673284 0.0112,0.735755 -0.0935,0.05778 -0.21916,0.356746 -0.27939,0.664449 -0.0602,0.307703 -0.0599,0.454213 0,0.325572 0.0606,-0.128641 0.18742,-0.233885 0.28177,-0.233885 0.25684,0 0.20671,0.513719 -0.0624,0.639295 -0.1871,0.08734 -0.1871,0.130982 0,0.218297 0.17542,0.08191 0.22399,0.865239 0.19434,3.134112 l -0.0396,3.024967 -0.10501,-2.993782 -0.105,-2.993783 -0.0994,2.33889 -0.0994,2.338891 -0.0163,-2.396557 c -0.009,-1.318107 -0.0677,-2.447793 -0.13024,-2.510406 -0.0627,-0.06262 -0.11387,1.078985 -0.11387,2.536888 0,1.642421 0.0712,2.650743 0.18711,2.650743 0.10288,0 0.1871,0.247634 0.1871,0.550291 0,0.302658 0.0843,0.602331 0.18711,0.665937 0.10288,0.06361 0.18713,0.27907 0.18713,0.478815 0,0.199756 0.0421,0.36318 0.0935,0.36318 0.0515,0 0.0935,-3.005943 0.0935,-6.679864 z m 14.16498,6.404201 c 0.80138,-0.229845 2.27156,-2.632142 2.77639,-4.536739 0.38845,-1.46549 0.38106,-4.726393 -0.0126,-5.555995 -0.61288,-1.291554 -1.65551,-1.295514 -2.9005,-0.01111 -0.33854,0.34929 -0.68057,0.594883 -0.76006,0.545758 -0.0795,-0.04914 -0.20547,0.009 -0.27995,0.129747 -0.0894,0.14471 -0.0538,0.168659 0.10488,0.07054 0.16017,-0.09899 0.2114,-0.0618 0.15365,0.111411 -0.0477,0.142972 -0.17786,0.259935 -0.28934,0.259935 -0.1115,0 -0.27287,0.07669 -0.35864,0.170339 -0.0924,0.100997 -0.0477,0.10754 0.10975,0.01608 0.18963,-0.110087 0.23283,-0.0785 0.15091,0.110337 -1.19471,2.754018 -1.45665,4.119982 -1.22791,6.403326 0.13722,1.369915 0.49649,2.110955 1.14965,2.371273 0.40317,0.160679 0.56085,0.150992 1.38373,-0.08503 z m -0.21317,-2.585851 c 0.0703,-0.18453 0.1749,-0.288376 0.23251,-0.23077 0.0576,0.05759 1.2e-4,0.208589 -0.12777,0.335512 -0.1848,0.183423 -0.20628,0.161926 -0.10476,-0.104743 z m 2.34955,-2.943201 c 0.28329,-0.837833 0.44278,-1.000473 0.27106,-0.276397 -0.0733,0.308729 -0.21365,0.643606 -0.31207,0.744177 -0.0984,0.10056 -0.08,-0.109938 0.041,-0.46778 z m -0.94347,-2.350217 c 0.009,-0.217975 0.0533,-0.262306 0.113,-0.113046 0.0541,0.135074 0.0474,0.296458 -0.0149,0.358627 -0.0622,0.0622 -0.10638,-0.04835 -0.0983,-0.245583 z m 0.95033,-0.07799 c 0,-0.257281 0.0425,-0.362526 0.0944,-0.233895 0.0518,0.128641 0.0518,0.339139 0,0.46778 -0.0519,0.128641 -0.0944,0.02341 -0.0944,-0.233885 z m -0.74539,7.442211 c -0.10288,-0.102908 -0.28763,-0.124981 -0.4105,-0.04904 -0.16972,0.104906 -0.16454,0.174439 0.0216,0.289442 0.31917,0.197283 0.63279,0.003 0.38894,-0.240388 z m -16.2834,-0.005 c -0.1416,-0.141616 -0.27811,-0.151897 -0.39986,-0.03015 -0.12173,0.121774 -0.0483,0.195173 0.21499,0.215011 0.30117,0.02271 0.34682,-0.02291 0.18487,-0.184881 z m 12.23561,-0.339722 c 0.19198,-0.310648 0.0196,-0.353723 -0.24897,-0.0622 -0.13269,0.143987 -0.15871,0.261794 -0.0578,0.261794 0.10088,0 0.23896,-0.08985 0.30678,-0.199554 z m 4.8141,-0.127887 c 1.02376,-1.134099 2.1323,-4.411988 1.6051,-4.746102 -0.41227,-0.261262 -0.44467,-0.215675 -0.71316,1.003881 -0.1416,0.643193 -0.57374,1.772077 -0.96033,2.508636 -0.63959,1.218629 -0.71727,1.561036 -0.35412,1.561036 0.0698,0 0.25994,-0.147355 0.42251,-0.327451 z m -0.42469,-0.233544 c 0,-0.102908 0.0843,-0.187112 0.18712,-0.187112 0.10288,0 0.18711,0.08422 0.18711,0.187112 0,0.102908 -0.0843,0.187112 -0.18711,0.187112 -0.10288,0 -0.18712,-0.08422 -0.18712,-0.187112 z m -16.84001,0.187112 c 0,-0.102908 -0.0891,-0.187112 -0.19815,-0.187112 -0.109,0 -0.14611,0.08422 -0.0825,0.187112 0.0637,0.102908 0.15277,0.187112 0.19815,0.187112 0.0453,0 0.0825,-0.08422 0.0825,-0.187112 z m 11.78801,0.115368 c 0,-0.03949 -0.16853,-0.115793 -0.37449,-0.169654 -0.20597,-0.05386 -0.32729,-0.02161 -0.26962,0.07176 0.10076,0.162962 0.64411,0.245573 0.64411,0.09789 z m 0.1871,-0.377741 c 0,-0.0414 -0.25259,-0.163304 -0.56132,-0.270929 -0.64978,-0.226519 -0.76691,-0.09859 -0.14034,0.153243 0.47391,0.190488 0.70166,0.228688 0.70166,0.117691 z m -12.32178,-1.073668 c -0.12818,-0.445429 -0.18584,-0.510403 -0.19778,-0.222941 -0.0188,0.455087 0.17314,1.057105 0.29757,0.932676 0.0446,-0.04462 0,-0.363993 -0.0998,-0.709735 z m 12.21888,0.600822 c -0.0978,-0.09558 -0.43036,-0.222679 -0.73911,-0.282356 -0.52531,-0.101522 -0.51931,-0.09126 0.0935,0.159645 0.80521,0.329662 0.86962,0.341903 0.64553,0.12271 z m 6.8389,-0.828626 c 0,-0.237735 -0.0864,-0.131587 -0.3592,0.441166 -0.21005,0.441078 -0.20615,0.447048 0.0683,0.104569 0.16003,-0.199755 0.29098,-0.445348 0.29098,-0.545738 z m -10.91786,0.212558 c 0.26167,-0.261664 0.16892,-0.330035 -0.95507,-0.704078 -1.49561,-0.497708 -1.89003,-0.881932 -2.15009,-2.094512 -0.62784,-2.927493 0.28412,-6.007314 2.30325,-7.778477 0.80682,-0.707746 1.2557,-0.749162 2.47146,-0.228026 0.48768,0.209051 0.95478,0.356406 1.03798,0.327451 0.33568,-0.116817 -0.65809,-1.271403 -1.4059,-1.633417 -1.09953,-0.532271 -1.79517,-0.35935 -2.88968,0.718289 -1.83874,1.810428 -2.77395,4.560919 -2.60334,7.656689 0.11612,2.106684 0.40322,2.931825 1.27574,3.665992 0.55421,0.466363 0.73803,0.516442 1.62538,0.442856 0.55341,-0.04594 1.12997,-0.212469 1.29027,-0.372767 z m 4.0997,0.05989 c -0.14004,-0.226608 -1.2276,-0.597837 -1.2276,-0.419037 0,0.07769 0.23153,0.232749 0.51455,0.344587 0.66738,0.263713 0.84123,0.281864 0.71305,0.07447 z m -0.0208,-0.741333 c -0.0978,-0.08884 -0.4514,-0.252889 -0.78587,-0.364495 -0.69732,-0.232679 -0.86262,0.06161 -0.18711,0.33313 0.55092,0.221443 1.2053,0.242548 0.97298,0.03135 z m -2.32954,-0.586873 c -0.15437,-0.0998 -0.36488,-0.181383 -0.46779,-0.181383 -0.10288,0 -0.0608,0.08161 0.0935,0.181383 0.15438,0.0998 0.36488,0.181384 0.46779,0.181384 0.10288,0 0.0608,-0.08161 -0.0935,-0.181384 z m 2.24533,-0.0621 c 0,-0.137103 -0.2947,-0.339722 -0.65489,-0.450263 -0.83839,-0.257312 -0.87379,0.06111 -0.0467,0.420575 0.75485,0.328094 0.70167,0.325843 0.70167,0.02964 z m -1.5998,-0.111923 c -0.16193,-0.158599 -1.76553,-0.787271 -4.34709,-1.704209 -0.54366,-0.193101 -0.94268,-0.27704 -0.88673,-0.186529 0.0558,0.09045 0.62704,0.339772 1.26911,0.55392 0.64207,0.214156 1.79889,0.638821 2.57073,0.943701 1.56302,0.617394 1.64725,0.641152 1.39398,0.393117 z m 0.10288,-0.532041 c 0,-0.184086 -5.43144,-2.157708 -5.56648,-2.022685 -0.0553,0.05528 0.0591,0.162219 0.2538,0.237724 1.84164,0.713706 5.06088,1.906819 5.17234,1.91697 0.0772,0.007 0.14034,-0.05236 0.14034,-0.132009 z m 1.684,-0.313741 c 0,-0.137144 -0.20267,-0.300206 -0.45041,-0.362385 -0.24771,-0.0622 -0.58451,-0.164511 -0.74843,-0.227414 -0.59742,-0.229252 -0.29993,0.504272 0.3082,0.759976 0.6499,0.273261 0.89064,0.227262 0.89064,-0.170177 z M 186.1618,38.20267 c -0.15436,-0.0998 -0.36486,-0.181384 -0.46777,-0.181384 -0.10288,0 -0.0608,0.08161 0.0935,0.181384 0.15435,0.0998 0.36486,0.181373 0.46777,0.181373 0.10288,0 0.0608,-0.08161 -0.0935,-0.181373 z m 4.30356,-0.09357 c 0,-0.154368 -0.10525,-0.282929 -0.23389,-0.285692 -0.12863,-0.003 -1.39163,-0.454374 -2.80667,-1.003599 -1.68955,-0.655778 -2.57277,-0.916607 -2.57277,-0.759785 0,0.131334 0.56834,0.45359 1.26301,0.716117 1.61071,0.608732 4.24248,1.588975 4.30354,1.602934 0.0257,0.006 0.0468,-0.115618 0.0468,-0.269975 z m 1.87404,-1.075889 c 0.26511,-1.145305 1.14458,-2.980798 1.80334,-3.763708 0.25309,-0.300757 0.39225,-0.602954 0.30927,-0.671534 -0.30433,-0.251514 -1.14588,-0.541719 -1.25487,-0.432736 -0.23395,0.233945 -0.0925,0.381882 0.49587,0.518724 0.39756,0.09246 0.49815,0.169434 0.29049,0.222327 -0.17471,0.04452 -0.48854,-0.01061 -0.6974,-0.122323 -0.33076,-0.177021 -0.45188,-0.103632 -0.93927,0.569186 -0.62334,0.860505 -1.31079,2.537891 -1.45232,3.543732 -0.0828,0.58837 -0.0356,0.681374 0.44072,0.868877 0.29341,0.115481 0.58822,0.218931 0.65512,0.229876 0.0669,0.01099 0.224,-0.422143 0.34905,-0.962425 z m -0.79815,-0.08222 c -0.18008,-0.04703 -0.32745,-0.16656 -0.32745,-0.265543 0,-0.103644 0.17856,-0.08704 0.42101,0.03909 0.70172,0.3651 0.6759,0.42756 -0.0935,0.226479 z m 1.263,-3.613239 c -0.14635,-0.236809 0.10138,-0.236809 0.46778,0 0.24187,0.156308 0.23693,0.181776 -0.0358,0.184248 -0.17404,0.001 -0.36843,-0.08131 -0.43205,-0.184248 z m -2.25844,4.137641 c 0.17055,-0.275945 -0.2506,-0.502191 -2.94434,-1.581709 -2.09774,-0.840668 -2.60319,-0.983198 -2.68945,-0.758398 -0.0584,0.152248 -0.0645,0.318367 -0.0139,0.369129 0.10076,0.10071 5.20545,2.102503 5.4159,2.123799 0.0712,0.007 0.17541,-0.06161 0.23182,-0.152821 z m 8.69861,-1.546454 c -0.10176,-0.190217 -0.26635,-0.345852 -0.36563,-0.345852 -0.29235,0 -0.20696,0.404756 0.14692,0.696308 0.31184,0.25695 0.31184,0.26489 0,0.166832 -0.23248,-0.07307 -0.32746,-4.93e-4 -0.32746,0.249804 0,0.194016 0.10526,0.388695 0.2339,0.432625 0.31542,0.107715 0.54333,-0.767936 0.31227,-1.199717 z M 180.233,35.026504 c 0.19407,-0.249602 0.18083,-0.253191 -0.10551,-0.02864 -0.24553,0.19257 -0.31902,0.496775 -0.29372,1.216219 l 0.0337,0.959429 0.0718,-0.930807 c 0.0394,-0.51194 0.17168,-1.059246 0.29374,-1.216218 z m 11.59114,-1.351642 c 0.28423,-0.48351 0.59997,-0.930526 0.70166,-0.993379 0.41423,-0.256005 0.0971,-0.472805 -1.733,-1.185174 -1.05484,-0.410575 -2.22912,-0.879159 -2.60954,-1.041296 -0.38042,-0.162148 -0.73613,-0.22285 -0.79048,-0.134903 -0.0884,0.143054 2.77117,1.424777 4.33558,1.943311 0.33446,0.110861 0.60811,0.272758 0.60811,0.359782 0,0.08704 -0.31575,0.02352 -0.70166,-0.141073 -0.38593,-0.164619 -1.56399,-0.64256 -2.61792,-1.06209 -1.87182,-0.745082 -1.92511,-0.75479 -2.29674,-0.418485 -0.49632,0.449177 -1.49472,2.484657 -1.54679,3.153468 -0.0395,0.505851 0.0463,0.557477 2.67226,1.610281 l 2.71289,1.087669 0.37443,-1.149496 c 0.20594,-0.632229 0.60696,-1.545106 0.8912,-2.028615 z m -3.88478,1.260086 c -0.30873,-0.141364 -0.43504,-0.260879 -0.28065,-0.265593 0.15436,-0.005 0.49115,0.111761 0.74842,0.258839 0.59563,0.340497 0.2713,0.34518 -0.46777,0.007 z m 11.10915,0.07116 c -0.15487,-0.09618 -0.28432,-0.079 -0.32628,0.04331 -0.0383,0.11151 0.0459,0.274517 0.18712,0.362224 0.15484,0.09618 0.28428,0.079 0.32627,-0.04331 0.0383,-0.111511 -0.046,-0.274518 -0.18711,-0.362234 z m 0.52601,-0.393662 c -0.0597,-0.149263 -0.10401,-0.104919 -0.11312,0.113058 -0.007,0.197242 0.0361,0.307753 0.0983,0.245583 0.0622,-0.0622 0.0688,-0.223563 0.0147,-0.358636 z m -42.1496,0.108626 c 0.22257,-0.08543 0.29598,-0.38134 0.29598,-1.193314 0,-1.129637 -0.12298,-1.342356 -0.95954,-1.660431 -0.44582,-0.169504 -0.47315,-0.149164 -0.38925,0.289743 0.0533,0.278899 -0.0125,0.535417 -0.16034,0.626913 -0.35788,0.221192 -0.54911,0.04381 -0.54911,-0.509287 0,-0.425328 0.0352,-0.450564 0.31072,-0.22285 0.28446,0.235081 0.28856,0.221162 0.0482,-0.16463 -0.27955,-0.448917 -1.34721,-0.899983 -1.66511,-0.703494 -0.24813,0.153344 -0.24679,1.699766 0.003,2.164401 0.24854,0.464393 1.34027,1.056925 1.29261,0.701564 -0.077,-0.574461 0.0307,-0.899038 0.29814,-0.899038 0.39401,0 0.55421,0.505348 0.26908,0.848899 -0.12908,0.155544 -0.20167,0.301824 -0.16125,0.325069 0.0403,0.02321 0.24182,0.14255 0.44764,0.265141 0.44728,0.266386 0.53546,0.27897 0.92025,0.131314 z m 41.83468,-0.07357 c 0,-0.102908 -0.18946,-0.185816 -0.42101,-0.184248 -0.34045,0.002 -0.36729,0.03758 -0.14034,0.184248 0.36278,0.234438 0.56135,0.234438 0.56135,0 z m -18.714,-0.619154 c 0.002,-0.08322 -0.0813,-0.0993 -0.18425,-0.03578 -0.10288,0.06361 -0.18581,0.258025 -0.18425,0.432052 0.002,0.272669 0.028,0.277603 0.18425,0.03578 0.0998,-0.15437 0.18267,-0.348787 0.18425,-0.432042 z m 18.43331,0.05778 c -0.0637,-0.102908 -0.2159,-0.185816 -0.33848,-0.184248 -0.13389,0.002 -0.11087,0.07528 0.0578,0.184248 0.35948,0.232307 0.42422,0.232307 0.28066,0 z m -18.43045,-0.464826 c 0,-0.02784 -0.10825,-0.140469 -0.24058,-0.250277 -0.18111,-0.150318 -0.24056,-0.115006 -0.24056,0.142943 0,0.202277 0.0986,0.304788 0.24056,0.250276 0.13234,-0.05076 0.24058,-0.115094 0.24058,-0.142942 z m -0.0528,-1.731092 c -0.043,-0.284428 -0.0793,-0.09618 -0.0808,0.418423 -0.002,0.514553 0.0338,0.747262 0.0782,0.517127 0.0445,-0.230127 0.0457,-0.651134 0.003,-0.93555 z m 14.74106,0.699091 c 0.18628,-0.205824 0.29658,-0.374224 0.24514,-0.374224 -0.0514,0 -0.24597,0.1684 -0.43224,0.374224 -0.18625,0.205826 -0.29655,0.374224 -0.24511,0.374224 0.0514,0 0.24596,-0.168398 0.43221,-0.374224 z m -0.36282,-0.355792 c -0.14422,-0.233372 -1.2276,-0.595184 -1.2276,-0.409982 0,0.08271 0.27363,0.238096 0.60811,0.34538 0.33447,0.107291 0.63413,0.203675 0.66594,0.214178 0.0318,0.01061 0.0112,-0.05679 -0.0464,-0.149576 z m 3.63729,0.01161 c 0,-0.251242 -0.89924,-0.591366 -1.56348,-0.591366 -0.3357,0 -0.77379,0.130942 -0.97355,0.290989 -0.35085,0.281091 -0.34931,0.284266 0.0456,0.09357 0.58483,-0.282528 1.61058,-0.243564 2.03474,0.07729 0.43115,0.326104 0.45678,0.333361 0.45678,0.129545 z m -6.33967,-0.651767 c -0.70991,-0.269753 -0.91184,-0.420303 -0.73448,-0.547658 0.17158,-0.12321 0.13556,-0.139856 -0.12074,-0.05577 -0.38081,0.124952 -2.5851,-0.600009 -2.45713,-0.808116 0.0401,-0.06513 -0.17154,-0.136107 -0.47023,-0.157695 -0.29873,-0.02161 -0.54312,-0.008 -0.54312,0.03105 0,0.03869 0.98934,0.457057 2.19857,0.929782 1.2092,0.472714 2.32081,0.937328 2.47029,1.032492 0.14944,0.09518 0.35367,0.122373 0.45379,0.06051 0.10014,-0.0619 -0.25847,-0.279945 -0.79698,-0.484554 z m -34.26281,-7.657873 c -0.002,-4.450901 -0.0581,-8.952806 -0.12349,-10.004234 l -0.11874,-1.911662 -1.23584,-0.394938 c -0.6797,-0.217211 -1.46738,-0.468232 -1.7504,-0.557817 l -0.51455,-0.162893 v 3.458418 3.458407 l 0.39518,-0.211504 c 0.21736,-0.116317 0.59829,-0.172679 0.84646,-0.125233 0.24822,0.04743 0.49888,0.009 0.55704,-0.08482 0.13004,-0.210398 0.63375,0.178961 0.63375,0.48986 0,0.263492 -0.85769,1.094552 -1.43654,1.391893 -0.2241,0.115119 -0.53986,0.1585 -0.70166,0.09638 -0.26105,-0.100199 -0.29423,0.279522 -0.29423,3.36868 0,3.19213 0.0272,3.481331 0.32744,3.478708 0.1801,-10e-4 0.42094,-0.06473 0.53523,-0.140329 0.31773,-0.210207 0.8575,-1.353703 0.63902,-1.353703 -0.10563,0 -0.19192,-0.06583 -0.19192,-0.146348 0,-0.08051 0.31577,-0.143647 0.70167,-0.14034 0.59592,0.005 0.6924,0.0624 0.64011,0.380244 -0.14567,0.885561 -1.17605,1.590452 -2.32489,1.590452 -0.23916,0 -0.28312,0.346195 -0.27437,2.159759 0.009,1.775183 0.0573,2.141798 0.27335,2.058875 0.30579,-0.117341 2.1388,0.443037 2.02932,0.620401 -0.0404,0.06563 0.14906,0.132822 0.4213,0.149213 0.27225,0.01638 0.57947,0.163736 0.68276,0.327441 0.10325,0.163705 0.21044,0.297643 0.2382,0.297643 0.0277,0 0.0483,-3.641651 0.0457,-8.092561 z m -3.13486,-3.268541 c -0.12863,-0.04613 -0.2339,-0.203153 -0.2339,-0.348938 0,-0.303422 0.6555,-1.013519 0.93556,-1.013519 0.33857,0 0.19509,0.328486 -0.1871,0.428434 -0.20581,0.05386 -0.37422,0.237724 -0.37422,0.408656 0,0.225644 0.10251,0.278255 0.37422,0.192016 0.20581,-0.06533 0.3742,-0.07397 0.3742,-0.01919 0,0.180279 -0.65006,0.438133 -0.88876,0.352537 z m 40.74348,11.270058 c 0,-0.08121 -1.25003,-0.657394 -1.42619,-0.657394 -0.27505,0 0.0226,0.338838 0.44385,0.505307 0.57382,0.22674 0.98234,0.289985 0.98234,0.152087 z m 2.84311,-5.095873 c -0.0315,-2.750069 -0.0779,-5.02091 -0.10338,-5.046328 -0.0255,-0.02542 -0.547,0.157726 -1.15909,0.406948 l -1.11292,0.453127 0.0245,2.768702 c 0.0134,1.522775 0.0345,3.319062 0.0468,3.991734 l 0.0223,1.223042 1.16946,0.59006 c 0.64318,0.324535 1.16944,0.595183 1.16944,0.601455 0,0.006 -0.0257,-2.238671 -0.0571,-4.98874 z m -4.20396,4.251367 c 0.26169,-0.205825 0.66992,-0.374224 0.90725,-0.374224 0.4772,0 0.75383,-0.282225 0.45666,-0.465891 -0.10463,-0.06463 -0.19016,-0.305372 -0.19016,-0.534954 0,-0.691727 -0.51096,-2.433462 -1.0573,-3.604093 -0.28284,-0.606079 -0.55325,-1.186159 -0.60091,-1.289072 -0.0477,-0.102908 0.0728,-0.06081 0.26763,0.09357 0.46078,0.365028 -0.68211,-1.095859 -1.25716,-1.606955 -1.7124,-1.521982 -4.40741,-2.064875 -6.31556,-1.272227 -0.79333,0.329551 -0.67049,0.524252 0.15027,0.238136 0.9188,-0.320295 3.68389,-0.123334 4.70795,0.335341 0.85522,0.383058 2.57004,1.844869 2.38328,2.031639 -0.0547,0.05467 -0.39694,-0.198076 -0.76056,-0.561697 -0.36361,-0.363611 -0.74934,-0.661124 -0.85718,-0.661124 -0.10787,0 -0.22879,0.399953 -0.26879,0.888778 -0.0728,0.888345 -0.0728,0.888285 -0.0682,-0.116668 0.004,-0.904535 -0.0461,-1.03203 -0.50085,-1.270268 -0.68203,-0.357369 -2.71376,-0.522823 -3.35392,-0.27314 -0.49029,0.191242 -0.51628,0.26489 -0.55171,1.56189 l -0.0372,1.361191 -0.0644,-1.348879 -0.0644,-1.34888 -0.45975,0.209464 c -0.45831,0.20883 -0.45973,0.218056 -0.45973,2.999693 v 2.790208 l 0.48678,-0.382887 c 1.4153,-1.113285 3.43581,-0.338848 4.2897,1.64419 0.13145,0.3053 0.54561,0.579487 1.30976,0.867139 1.41967,0.534402 1.3475,0.531015 1.90848,0.08975 z m -3.18225,-3.482789 c -0.45562,-0.455639 0.40831,-1.756329 1.16658,-1.756329 0.46029,0 0.50095,0.417399 0.075,0.770841 -0.27545,0.228608 -0.2926,0.206518 -0.16386,-0.210971 l 0.14378,-0.466314 -0.49101,0.45362 c -0.70121,0.647787 -0.65281,1.028856 0.11124,0.876043 0.38057,-0.07608 0.53555,-0.05517 0.421,0.05689 -0.25716,0.251633 -1.10246,0.436514 -1.2628,0.276185 z m -3.84045,-0.5401 c 0.004,-0.308738 0.0457,-0.412385 0.0931,-0.230337 0.0474,0.182057 0.0443,0.434654 -0.007,0.561336 -0.0513,0.126681 -0.09,-0.02231 -0.0863,-0.330999 z m 3.02146,-2.806671 c 0,-0.82329 0.0336,-1.136822 0.073,-0.696721 0.0395,0.440093 0.0389,1.113688 -0.002,1.496887 -0.0402,0.383199 -0.0725,0.02311 -0.0719,-0.800166 z m 3.14629,1.029106 c 0,-0.257271 0.0425,-0.362526 0.0944,-0.233885 0.0519,0.128641 0.0519,0.339139 0,0.46778 -0.0518,0.128641 -0.0944,0.02342 -0.0944,-0.233895 z m -4.86489,-2.245334 c 0,-0.257271 0.0425,-0.362526 0.0944,-0.233885 0.0519,0.128641 0.0519,0.339139 0,0.46778 -0.0518,0.128641 -0.0944,0.02341 -0.0944,-0.233895 z m 6.70645,8.2329 c -0.15436,-0.0998 -0.36486,-0.181384 -0.46776,-0.181384 -0.10289,0 -0.0608,0.08161 0.0935,0.181384 0.15437,0.0998 0.36486,0.181373 0.46777,0.181373 0.10288,0 0.0608,-0.08161 -0.0935,-0.181373 z m -18.80467,-1.309785 c -0.0637,-0.102907 -0.25803,-0.185816 -0.43203,-0.184247 -0.27268,0.002 -0.27761,0.02794 -0.0358,0.184247 0.36645,0.23681 0.61414,0.23681 0.4678,0 z m 1.91718,-0.333943 c 0.43699,-0.176519 0.79486,-0.37936 0.79522,-0.450755 0,-0.07136 -0.38215,0.03959 -0.85008,0.246538 -0.46797,0.207001 -0.9463,0.344536 -1.063,0.305633 -0.11675,-0.03889 0.28721,-0.269251 0.89757,-0.5119 0.61038,-0.242649 1.14519,-0.469449 1.18848,-0.504002 0.0433,-0.03457 -0.12162,-0.275984 -0.3663,-0.536512 -0.40741,-0.43365 -0.44039,-0.607546 -0.39026,-2.057488 l 0.0548,-1.58379 h -1.13854 -1.13855 l 0.007,0.701665 c 0.007,0.657114 0.0699,0.731374 0.97472,1.169446 0.53141,0.257272 1.00439,0.594078 1.05104,0.748438 0.07,0.231825 0.0348,0.239432 -0.2023,0.04371 -0.2477,-0.204358 -0.34558,-0.0807 -0.71228,0.899822 -0.2338,0.625204 -0.44836,1.348708 -0.47683,1.607779 -0.0563,0.51393 -0.10613,0.516784 1.3679,-0.07859 z m 1.72862,-0.258578 c 0.002,-0.171514 0.066,-0.339914 0.1432,-0.374215 0.0772,-0.03427 0.30654,-0.399178 0.50963,-0.810818 0.49177,-0.996614 1.07303,-1.802027 2.40344,-3.330239 0.60906,-0.699615 1.06615,-1.313261 1.01573,-1.363653 -0.13906,-0.139082 -2.48454,2.455763 -2.84701,3.149711 -0.17485,0.334746 -0.6049,1.155927 -0.95566,1.824849 -0.3508,0.668923 -0.63714,1.342517 -0.63637,1.496886 0.002,0.249483 0.0216,0.249483 0.18279,0 0.0998,-0.154369 0.18269,-0.420997 0.18425,-0.592521 z m 15.72022,-2.993773 c 0,-2.075378 -0.0451,-3.728251 -0.10038,-3.673066 -0.0552,0.05518 -0.10164,1.353281 -0.10339,2.884639 -0.004,4.087672 0.007,4.561833 0.11013,4.561833 0.0514,0 0.0935,-1.698028 0.0935,-3.773406 z m -18.67695,1.898246 0.50196,-1.496254 -0.55211,-0.285501 c -0.43683,-0.225895 -0.56967,-0.235302 -0.63631,-0.04502 -0.0463,0.13224 -0.28782,0.811121 -0.53664,1.508636 l -0.45241,1.268206 0.49323,0.267975 c 0.27125,0.147385 0.53531,0.270287 0.58677,0.273121 0.0514,0.003 0.31943,-0.668159 0.59551,-1.491107 z m 4.13368,-2.135599 c 0.28745,-0.410313 0.31067,-0.500401 0.0817,-0.316667 -0.18993,0.152339 -0.32014,0.175856 -0.32014,0.05778 0,-0.197021 0.35194,-0.493338 0.59251,-0.498865 0.0687,-0.001 0.19492,-0.0795 0.28068,-0.173193 0.0905,-0.099 0.0579,-0.113933 -0.078,-0.03578 -0.39494,0.227272 -0.26011,-0.120326 0.25537,-0.65835 0.26907,-0.280879 0.58483,-0.488735 0.70166,-0.46191 0.11687,0.02683 0.14575,0.01224 0.0642,-0.03236 -0.0815,-0.04462 -0.0546,-0.193846 0.0598,-0.331672 0.16661,-0.20076 -3.07047,1.094713 -3.3596,1.344508 -0.1668,0.144097 1.01248,1.193082 1.24218,1.104933 0.33055,-0.126842 0.30262,0.03125 -0.10875,0.615325 -0.48736,0.691997 -1.14727,2.024023 -1.14618,2.313544 0,0.132732 0.30058,-0.342606 0.66683,-1.056311 0.36625,-0.713715 0.8467,-1.55571 1.06766,-1.871111 z m -1.27534,1.293907 0.49565,-0.845733 -0.36602,-0.510825 c -0.2013,-0.28094 -0.58475,-0.714941 -0.85208,-0.964425 l -0.48607,-0.453618 v 1.467991 c 0,1.103407 0.0769,1.552977 0.30968,1.810178 0.17032,0.188197 0.3307,0.342174 0.35642,0.342174 0.0257,0 0.26983,-0.380586 0.54242,-0.845742 z m 15.10541,-0.70039 c -0.18144,-0.47801 -0.39733,-0.936133 -0.47972,-1.018041 -0.0824,-0.08191 0.026,0.314155 0.24077,0.880175 0.21484,0.566009 0.39069,1.064191 0.39073,1.107075 5e-5,0.04291 0.0401,0.03789 0.0892,-0.01111 0.0489,-0.04894 -0.0596,-0.480132 -0.24089,-0.958143 z m -38.8131,-1.1202 c 0.27988,-0.349831 0.46898,-1.075889 0.28019,-1.075889 -0.0908,0 -0.3056,0.294698 -0.47734,0.654882 -0.30307,0.635526 -0.18173,0.894597 0.19715,0.421007 z m 38.5404,-2.625207 c -0.0393,-0.434273 -0.0708,-0.03176 -0.0703,0.894426 0,0.926193 0.0327,1.281504 0.0714,0.789573 0.0387,-0.491931 0.0382,-1.249736 0,-1.683999 z m 0.46613,0.395993 c 0.0317,-0.788698 -0.007,-1.394174 -0.0854,-1.345512 -0.0788,0.04864 -0.1317,0.862356 -0.11762,1.808207 0.0283,1.915321 0.1155,1.716902 0.20315,-0.462695 z m -9.97518,0.216841 c 0.24803,-0.20662 0.4103,-0.416355 0.36059,-0.466062 -0.0497,-0.04974 -0.2702,0.07709 -0.48995,0.281844 -0.21976,0.20474 -0.44871,0.372254 -0.50878,0.372254 -0.1937,0 -0.91875,0.748026 -0.73694,0.760297 0.0966,0.006 -0.0194,0.09005 -0.2574,0.185534 -0.24681,0.09899 -0.37789,0.26287 -0.30483,0.381089 0.0813,0.131555 0.37657,-0.03889 0.80724,-0.465931 0.37348,-0.370345 0.882,-0.842416 1.13007,-1.049025 z m -2.50925,-0.234468 c 0.30874,-0.10784 0.78542,-0.352005 1.05928,-0.542584 0.76421,-0.531808 2.44915,-1.276377 2.893,-1.278427 0.28997,-0.001 0.52364,-0.257362 0.8657,-0.948536 0.25768,-0.520693 0.37366,-0.906807 0.25773,-0.858023 -1.58117,0.665244 -6.12883,2.535791 -7.13393,2.934316 -0.72037,0.285643 -1.85707,0.770739 -2.52599,1.07798 l -1.21624,0.558633 0.80611,-0.0994 c 0.67224,-0.08292 0.85166,-0.03437 1.08023,0.291956 l 0.27412,0.391358 1.53935,-0.665585 c 0.84662,-0.366083 1.79193,-0.753825 2.10064,-0.861672 z m -3.27443,-0.556734 c 1.59511,-0.663816 4.10007,-1.698863 5.56655,-2.300117 1.46649,-0.601245 2.66635,-1.141155 2.66635,-1.199797 0,-0.150771 -2.65383,-1.16231 -2.76298,-1.053145 -0.0494,0.04944 -0.0426,0.213151 0.0152,0.363751 0.0653,0.170117 0.50017,0.323191 1.14827,0.404163 0.57375,0.07166 1.09481,0.213896 1.15795,0.316024 0.0748,0.120988 -0.17056,0.130772 -0.70415,0.02804 -1.27662,-0.245735 -2.23483,-0.171313 -3.25136,0.252528 -0.51456,0.214539 -2.40905,0.99563 -4.21,1.735746 -1.80095,0.740117 -3.34477,1.412024 -3.43071,1.493128 -0.21804,0.205765 0.41238,1.363381 0.68346,1.255022 0.12174,-0.04864 1.52635,-0.631546 3.12146,-1.295363 z m 5.63125,0.284005 c 0.29887,-0.17656 0.54341,-0.439469 0.54341,-0.584241 0,-0.223774 -0.0487,-0.224739 -0.325,-0.006 -1.12879,0.891862 -1.24072,1.19456 -0.21841,0.590673 z m 1.29185,-0.240327 c 0.15439,-0.0998 0.19649,-0.181384 0.0935,-0.181384 -0.10288,0 -0.3134,0.08161 -0.46776,0.181384 -0.15437,0.0998 -0.19647,0.181383 -0.0935,0.181383 0.10288,0 0.31341,-0.08161 0.46776,-0.181383 z m 10.81346,-1.032001 c 0.44163,-0.178539 0.76829,-0.35932 0.72587,-0.401721 -0.0425,-0.04241 -0.53004,0.137827 -1.08364,0.400515 -1.09209,0.518192 -0.9225,0.518775 0.35777,0.001 z M 183.3084,17.660743 c 1.41267,-0.503598 1.64759,-0.682691 0.93556,-0.713182 -0.23156,-0.01 -0.7999,-0.0414 -1.26301,-0.06995 -0.69549,-0.04291 -1.71248,0.288086 -5.84425,1.901744 -2.75122,1.074502 -5.0524,2.003801 -5.11372,2.065127 -0.0613,0.0613 0.0245,0.319119 0.19085,0.572904 l 0.30232,0.461408 4.71785,-1.867252 c 2.5948,-1.026985 5.32829,-2.084865 6.0744,-2.350839 z m 12.86813,2.86672 c 0.49781,-1.322558 0.4497,-1.586925 -0.29005,-1.594342 -0.24393,-0.002 -1.30472,2.011017 -1.30465,2.476355 5e-5,0.350265 0.34611,0.09075 0.45442,-0.340737 0.17329,-0.690449 0.58564,-0.450061 0.52222,0.304446 -0.0702,0.834749 0.0446,0.677636 0.61806,-0.845722 z m -0.90552,0.800155 c -0.0597,-0.149262 -0.10401,-0.10493 -0.113,0.113047 -0.007,0.197241 0.0361,0.307762 0.0983,0.245583 0.0622,-0.06222 0.0688,-0.223553 0.0148,-0.358627 z m 2.24154,-0.08322 c 0.34342,-0.143496 0.62195,-0.322919 0.61892,-0.398717 -0.006,-0.151032 -1.06372,-1.354045 -1.19049,-1.354045 -0.0432,0 -0.20393,0.357843 -0.35706,0.795221 -0.15318,0.437369 -0.34223,0.952284 -0.42015,1.144261 -0.15545,0.383037 0.0548,0.353923 1.34878,-0.18672 z m -9.29249,-0.06875 c -0.36275,-0.234437 -0.56131,-0.234437 -0.56131,0 0,0.102908 0.18943,0.185826 0.42099,0.184248 0.34043,-0.002 0.36729,-0.03758 0.14032,-0.184248 z m 0,-0.759493 c 0,-0.211895 -0.0843,-0.33322 -0.1871,-0.269623 -0.10288,0.06361 -0.18711,0.23697 -0.18711,0.385269 0,0.148288 0.0843,0.269623 0.18711,0.269623 0.10288,0 0.1871,-0.173373 0.1871,-0.385269 z m -8.88778,-2.761174 c 2.15672,-0.843381 2.79416,-1.1684 2.75274,-1.403452 -0.0296,-0.168247 0.0816,-0.568159 0.24744,-0.888686 0.29916,-0.578531 0.29817,-0.581787 -0.13317,-0.445147 -1.46934,0.465408 -12.12518,4.579552 -11.6886,4.512859 0.44568,-0.06803 0.59387,0.0199 0.89609,0.532151 l 0.3621,0.613708 2.37836,-0.911934 c 1.30811,-0.501558 3.64138,-1.405832 5.18504,-2.009499 z m -8.46732,1.097487 c 3.07756,-1.149606 10.1429,-3.818591 10.89978,-4.11747 0.64466,-0.254579 0.62585,-0.272015 -1.1312,-1.049056 l -1.0206,-0.451359 v 0.465419 c 0,0.409761 0.0839,0.467649 0.70169,0.484072 0.38589,0.01024 0.91216,0.09266 1.16942,0.183081 0.30897,0.108602 0.0125,0.13065 -0.87477,0.06493 -1.29007,-0.09558 -1.44362,-0.0597 -3.92934,0.918333 -1.42271,0.559789 -3.98713,1.548645 -5.6987,2.197447 l -3.11192,1.179636 0.18321,0.525618 c 0.10076,0.28909 0.21685,0.525608 0.25796,0.525608 0.0411,0 1.19061,-0.416826 2.55447,-0.926283 z m -15.21659,-0.119451 c 0.31662,-0.266427 0.57567,-0.61213 0.57567,-0.768237 0,-0.185373 -0.1883,-0.08221 -0.54283,0.2973 -0.49304,0.527789 -1.32828,0.799091 -1.32828,0.43144 0,-0.292457 0.45553,-0.598763 0.89047,-0.598763 0.24275,0 0.39392,-0.07679 0.33588,-0.17069 -0.14829,-0.239965 -1.06678,0.03718 -1.2886,0.388787 -0.25491,0.404102 -0.0245,0.904575 0.41625,0.904575 0.20113,0 0.6248,-0.217986 0.94144,-0.484412 z m 29.70573,-1.047568 c -0.0597,-0.149264 -0.10413,-0.104918 -0.113,0.113046 -0.007,0.197243 0.0361,0.307754 0.0983,0.245583 0.0622,-0.0622 0.0688,-0.223563 0.0147,-0.358635 z m -14.98591,-2.50531 c 3.07786,-1.191395 6.31178,-2.423764 7.18653,-2.738602 0.87475,-0.314838 1.65793,-0.632671 1.74045,-0.706289 0.12286,-0.109612 -0.88653,-0.195824 -2.67601,-0.228527 -0.23161,-0.004 -12.28541,4.474338 -12.51484,4.649872 -0.11262,0.08613 0.38175,1.189726 0.5329,1.189726 0.0742,0 2.65315,-0.974786 5.73097,-2.16618 z m 13.90311,1.523047 c -0.0451,-0.04502 -0.48002,-0.252498 -0.96673,-0.461128 -0.85899,-0.368204 -0.88496,-0.368958 -0.88496,-0.02552 0,0.19463 0.14737,0.392365 0.32745,0.43943 0.43614,0.113983 1.62791,0.150861 1.52424,0.04723 z m -18.69165,-1.398208 c 0.77181,-0.300507 2.45582,-0.93978 3.74223,-1.420616 1.28637,-0.480825 3.18292,-1.197324 4.21448,-1.592231 1.03159,-0.394897 2.10213,-0.77485 2.37898,-0.844325 0.49532,-0.124322 0.83063,-0.66819 0.62105,-1.007319 -0.0588,-0.09518 -0.0243,-0.3906447 0.0769,-0.6565597 0.23784,-0.625586 0.17339,-0.62046 -1.92011,0.152711 -2.14505,0.7922157 -11.52892,4.1918797 -12.66861,4.5896927 l -0.84201,0.293903 1.17762,0.05587 c 1.04167,0.04944 1.20176,0.108877 1.38661,0.514554 0.115,0.252246 0.2586,0.459086 0.31925,0.459639 0.0607,5.02e-4 0.74181,-0.24486 1.51365,-0.545367 z m 17.40133,-0.03909 c 0,-0.102908 -0.0841,-0.135072 -0.18709,-0.07146 -0.10289,0.06362 -0.18713,0.199835 -0.18713,0.302748 0,0.102908 0.0842,0.135074 0.18713,0.07146 0.10288,-0.06362 0.18709,-0.199835 0.18709,-0.302748 z m -18.43043,-2.038705 c 1.9553,-0.704449 5.44082,-1.960355 7.74561,-2.790902 2.30476,-0.8305467 4.22943,-1.5100927 4.27706,-1.5100927 0.11811,0 -0.11038,-0.873902 -0.42598,-1.6293361 l -0.25944,-0.6209433 -0.99085,0.3825159 c -0.54498,0.2103781 -2.75905,1.0225235 -4.9202,1.8047605 -2.16112,0.782236 -5.40284,1.9620827 -7.20377,2.6218697 -1.80096,0.659786 -3.389,1.238981 -3.52898,1.287091 -0.24227,0.08322 -0.10476,0.328305 0.97041,1.729124 0.10238,0.133313 0.31993,0.189373 0.48352,0.124558 0.16362,-0.06483 1.89729,-0.694199 3.85262,-1.398647 z m -10.66535,1.125235 c 0.0637,-0.102908 0.0265,-0.187112 -0.0825,-0.187112 -0.109,0 -0.19816,0.08422 -0.19816,0.187112 0,0.102908 0.0371,0.187112 0.0825,0.187112 0.0454,0 0.13456,-0.08422 0.19817,-0.187112 z m 25.85559,-1.719084 c -0.0597,-0.149272 -0.10401,-0.10493 -0.113,0.113047 -0.007,0.197241 0.0361,0.307762 0.0983,0.245583 0.0622,-0.06222 0.0688,-0.223563 0.0147,-0.358627 z m -15.2838,-3.2798767 c 6.77552,-2.3909096 10.91903,-3.86453 11.55604,-4.109862 0.35489,-0.1366607 0.16929,-0.2340361 -1.15315,-0.604964 l -1.57612,-0.4420818 -5.20861,1.7888603 c -2.86475,0.9838715 -7.11434,2.4468485 -9.44357,3.2510745 l -4.23498,1.4622327 1.61542,0.504273 c 0.88847,0.277341 1.78379,0.457479 1.98962,0.400304 0.2058,-0.05718 3.11072,-1.069608 6.45535,-2.2498367 z m 13.74059,1.7456557 c -1.08856,-0.483258 -1.39127,-0.534302 -1.39127,-0.234579 0,0.29926 0.2724,0.393268 1.3098,0.452041 l 0.65487,0.03708 z m -22.67517,43.72205 c -0.29725,-0.106628 -0.30265,-0.657545 -0.009,-0.950846 0.26615,-0.266156 0.89812,-0.300256 0.89812,-0.04845 0,0.276838 -0.37352,0.436413 -0.38016,0.162419 -0.004,-0.149093 -0.11537,-0.100099 -0.28566,0.125092 -0.25123,0.332356 -0.24711,0.381451 0.0403,0.482283 0.176,0.0617 0.2414,0.157514 0.14531,0.21283 -0.096,0.05527 -0.27995,0.06282 -0.40857,0.01668 z M 191.04805,20.54627 c -0.20149,-0.24278 -0.10438,-0.493409 0.19116,-0.493409 0.0825,0 0.0948,0.147355 0.0273,0.327451 -0.10862,0.289844 -0.0855,0.297141 0.2015,0.06361 0.17832,-0.145133 0.27925,-0.381049 0.22427,-0.524272 -0.0549,-0.143223 -0.029,-0.216528 0.0579,-0.162901 0.0868,0.05366 0.35308,-0.110399 0.59182,-0.364506 0.52983,-0.563979 0.94451,-0.622671 0.44457,-0.06292 -0.35416,0.396545 -0.3536,0.398204 0.088,0.260618 0.30539,-0.09518 0.40439,-0.07367 0.3164,0.06875 -0.0704,0.113933 -0.28114,0.207152 -0.46829,0.207152 -0.18713,0 -0.4489,0.130901 -0.58167,0.290889 -0.41614,0.501397 -0.8668,0.662078 -1.09291,0.38963 z"
   id="path28504" /></g></svg>
