<?xml version="1.0" encoding="UTF-8" standalone="no"?>
<!-- Created with Inkscape (http://www.inkscape.org/) -->

<svg
   width="225mm"
   height="90mm"
   viewBox="0 0 225 90"
   version="1.1"
   style="background-color: #000000;"
   id="svg1"
   inkscape:version="1.2.2 (b0a8486541, 2022-12-01)"
   sodipodi:docname="mug_22_Patrick_Kasting.svg"
   xml:space="preserve"
   xmlns:inkscape="http://www.inkscape.org/namespaces/inkscape"
   xmlns:sodipodi="http://sodipodi.sourceforge.net/DTD/sodipodi-0.dtd"
   xmlns="http://www.w3.org/2000/svg"
   xmlns:svg="http://www.w3.org/2000/svg"><sodipodi:namedview
     id="namedview1"
     pagecolor="#ffffff"
     bordercolor="#000000"
     borderopacity="0.25"
     inkscape:showpageshadow="2"
     inkscape:pageopacity="0.0"
     inkscape:pagecheckerboard="0"
     inkscape:deskcolor="#d1d1d1"
     inkscape:document-units="mm"
     inkscape:zoom="0.42115075"
     inkscape:cx="-430.96207"
     inkscape:cy="274.24859"
     inkscape:window-width="1854"
     inkscape:window-height="1131"
     inkscape:window-x="66"
     inkscape:window-y="32"
     inkscape:window-maximized="1"
     inkscape:current-layer="layer1"
     showgrid="false" /><defs
     id="defs1" /><g
     inkscape:label="Layer 1"
     inkscape:groupmode="layer"
     id="layer1"><rect
       style="fill:#000000;fill-opacity:1;stroke-width:0.213856"
       id="rect1"
       width="225.0"
       height="90.0"
       x="0"
       y="0" /><text
       xml:space="preserve"
       style="font-size:6.35px;font-family:'Abyssinica SIL';-inkscape-font-specification:'Abyssinica SIL';text-align:center;writing-mode:lr-tb;direction:ltr;text-anchor:middle;fill:#ffffff;stroke-width:0.264583"
       x="51.913441"
       y="13.795106"
       id="text1"><tspan
         sodipodi:role="line"
         id="tspan1"
         style="font-size:6.35px;stroke-width:0.264583"
         x="51.913441"
         y="13.795106">Think BIG</tspan><tspan
         sodipodi:role="line"
         style="font-size:6.35px;stroke-width:0.264583"
         x="51.913441"
         y="21.732605"
         id="tspan2">Take CHANCES</tspan><tspan
         sodipodi:role="line"
         style="font-size:6.35px;stroke-width:0.264583"
         x="51.913441"
         y="29.670105"
         id="tspan13">Test against REALITY</tspan><tspan
         sodipodi:role="line"
         style="font-size:6.35px;stroke-width:0.264583"
         x="51.913441"
         y="37.607605"
         id="tspan5">Fail FAST</tspan><tspan
         sodipodi:role="line"
         style="font-size:6.35px;stroke-width:0.264583"
         x="51.913441"
         y="45.545105"
         id="tspan23">Try AGAIN</tspan><tspan
         sodipodi:role="line"
         style="font-size:6.35px;stroke-width:0.264583"
         x="51.913441"
         y="53.482605"
         id="tspan3">Do it RIGHT</tspan><tspan
         sodipodi:role="line"
         style="font-size:6.35px;stroke-width:0.264583"
         x="51.913441"
         y="61.420105"
         id="tspan24">Disrupt EVERYTHING</tspan><tspan
         sodipodi:role="line"
         style="font-size:6.35px;stroke-width:0.264583"
         x="51.913441"
         y="69.357605"
         id="tspan12" /><tspan
         sodipodi:role="line"
         style="font-size:6.35px;stroke-width:0.264583"
         x="51.913441"
         y="77.295105"
         id="tspan22" /></text><text
       xml:space="preserve"
       style="font-size:7.05556px;font-family:'Abyssinica SIL';-inkscape-font-specification:'Abyssinica SIL';text-align:center;writing-mode:lr-tb;direction:ltr;text-anchor:middle;fill:#ffffff;stroke-width:0.264583"
       x="175.90259"
       y="72.352333"
       id="text6"><tspan
         sodipodi:role="line"
         id="tspan6"
         style="text-align:center;text-anchor:middle;stroke-width:0.264583"
         x="175.90259"
         y="72.352333">Patrick Kasting</tspan></text><text
       xml:space="preserve"
       style="font-size:3.175px;font-family:'Abyssinica SIL';-inkscape-font-specification:'Abyssinica SIL';text-align:center;writing-mode:lr-tb;direction:ltr;text-anchor:middle;fill:#ffffff;stroke-width:0.264583"
       x="15.705943"
       y="-121.59789"
       id="text7"
       transform="rotate(90)"><tspan
         sodipodi:role="line"
         style="font-size:3.175px;text-align:start;text-anchor:start;stroke-width:0.264583"
         x="15.705943"
         y="-121.59789"
         id="tspan11">multiply by -1 for no reason</tspan><tspan
         sodipodi:role="line"
         style="font-size:3.175px;text-align:start;text-anchor:start;stroke-width:0.264583"
         x="15.705943"
         y="-117.62914"
         id="tspan8">invert matrices without reason</tspan><tspan
         sodipodi:role="line"
         style="font-size:3.175px;text-align:start;text-anchor:start;stroke-width:0.264583"
         x="15.705943"
         y="-113.66039"
         id="tspan9">use the words røvlogik or Titanic</tspan><tspan
         sodipodi:role="line"
         style="font-size:3.175px;text-align:start;text-anchor:start;stroke-width:0.264583"
         x="15.705943"
         y="-109.69164"
         id="tspan33">accept the mediocre</tspan><tspan
         sodipodi:role="line"
         style="font-size:3.175px;text-align:start;text-anchor:start;stroke-width:0.264583"
         x="15.705943"
         y="-105.72289"
         id="tspan36">be afraid of complexity nor simplicity</tspan><tspan
         sodipodi:role="line"
         style="font-size:3.175px;text-align:start;text-anchor:start;stroke-width:0.264583"
         x="15.705943"
         y="-101.75414"
         id="tspan15">purspone it </tspan><tspan
         sodipodi:role="line"
         style="font-size:3.175px;text-align:start;text-anchor:start;stroke-width:0.264583"
         x="15.705943"
         y="-97.785393"
         id="tspan10" /></text><text
       xml:space="preserve"
       style="font-size:7.05556px;font-family:'Abyssinica SIL';-inkscape-font-specification:'Abyssinica SIL';text-align:center;writing-mode:lr-tb;direction:ltr;text-anchor:middle;fill:#ffffff;stroke-width:0.264583"
       x="112.40353"
       y="10.999269"
       id="text29"><tspan
         sodipodi:role="line"
         style="stroke-width:0.264583"
         x="112.40353"
         y="10.999269"
         id="tspan29">don't</tspan></text><text
       xml:space="preserve"
       style="font-size:3.175px;font-family:'Abyssinica SIL';-inkscape-font-specification:'Abyssinica SIL';text-align:start;writing-mode:lr-tb;direction:ltr;text-anchor:start;fill:#ffffff;stroke-width:0.264583"
       x="112.46899"
       y="83.071396"
       id="text34"><tspan
         sodipodi:role="line"
         id="tspan34"
         style="text-align:center;text-anchor:middle;stroke-width:0.264583"
         x="112.46899"
         y="83.071396">Veo Labs</tspan><tspan
         sodipodi:role="line"
         style="text-align:center;text-anchor:middle;stroke-width:0.264583"
         x="112.46899"
         y="87.040146"
         id="tspan35">2025</tspan></text><path
       style="fill:#ffffff;fill-opacity:1;stroke-width:0.149859"
       d="m 184.86004,62.1881 -4.34593,-2.238756 -1.00472,0.539248 c -0.55261,0.296589 -1.90133,1.072604 -2.99719,1.724485 l -1.99247,1.185237 -0.67435,-0.387304 c -0.3709,-0.213014 -1.14073,-0.648475 -1.7107,-0.967707 -1.46496,-0.820463 -1.45695,-0.81086 -1.40589,-1.68613 0.0406,-0.694718 0.0936,-0.793868 0.60042,-1.121012 l 0.55595,-0.358882 -0.009,-1.707992 -0.009,-1.707992 -1.03768,-0.52257 c -0.9502,-0.478509 -1.20474,-0.534998 -3.01935,-0.670007 -3.85169,-0.286584 -8.1064,-0.675803 -9.16099,-0.838035 l -0.58549,-0.09007 0.0961,1.246209 c 0.068,0.881766 0.16253,1.283381 0.32325,1.373331 0.27508,0.153932 0.29935,0.764899 0.039,0.980988 -0.68138,0.565504 -1.90987,0.202469 -1.90987,-0.564394 0,-0.241911 0.11717,-0.524711 0.26226,-0.633054 0.16803,-0.125462 0.28035,-0.449161 0.31264,-0.900898 l 0.0504,-0.705078 -0.47629,0.136595 c -0.64963,0.186315 -1.3756,0.03043 -1.31598,-0.282656 0.0254,-0.13315 0.214,-0.263724 0.41921,-0.290165 0.20521,-0.0264 0.45742,-0.157338 0.56044,-0.290898 0.2792,-0.361917 0.23305,0.05498 -0.0547,0.4941 -0.27678,0.42239 -0.26818,0.427155 0.36952,0.204852 0.40555,-0.141376 0.47193,-0.236775 0.47193,-0.678145 0,-0.494044 -0.0431,-0.533292 -1.13122,-1.029155 l -1.13123,-0.515519 0.0447,-0.941821 0.0448,-0.941829 1.04902,-0.538934 1.04902,-0.538918 0.045,-1.02835 c 0.0248,-0.565593 0.12539,-1.125189 0.22361,-1.243537 0.14967,-0.180342 0.12115,-0.196955 -0.17618,-0.102587 -0.24416,0.07751 -0.3228,0.06085 -0.25225,-0.05329 0.0564,-0.09125 0.19973,-0.16591 0.31849,-0.16591 0.25064,0 0.29137,-0.385275 0.0561,-0.530676 -0.0879,-0.05433 -0.25434,0.026 -0.36986,0.178483 -0.11555,0.152492 -0.21221,0.196948 -0.21484,0.09878 -0.002,-0.09816 0.067,-0.222883 0.15491,-0.277158 0.0878,-0.05425 -0.33367,-0.37857 -0.93663,-0.720678 l -1.09628,-0.621993 -0.0431,-1.207332 c -0.0414,-1.160019 -0.0605,-1.217611 -0.48704,-1.469607 l -0.44399,-0.262267 -0.004,-8.421113 c -0.002,-4.631615 -0.0434,-10.686537 -0.091,-13.455373 l -0.0866,-5.03426 0.41628,-0.327457 c 0.38957,-0.306433 0.41738,-0.404014 0.43322,-1.519657 0.009,-0.655712 0.0859,-1.261132 0.1701,-1.345383 0.0843,-0.08425 1.32957,-0.550566 2.76734,-1.036263 3.93,-1.3275785 10.26915,-3.5290106 11.45586,-3.978325 l 1.04903,-0.3971958 1.46635,0.4019126 c 1.02929,0.2821164 1.51311,0.4892868 1.62325,0.6950807 0.0863,0.1612415 0.14463,0.8436447 0.12963,1.5164451 -0.0149,0.6728085 -0.0205,1.5089514 -0.0123,1.8581094 l 0.0149,0.634841 1.16141,0.564039 c 1.14404,0.555613 1.16156,0.572653 1.17169,1.140017 0.0102,0.57167 0.0195,0.580275 1.23636,1.152259 1.18452,0.556787 1.22603,0.593693 1.22603,1.090361 0,0.487234 0.0488,0.535215 0.93464,0.919403 1.02672,0.445274 1.15771,0.573997 1.16109,1.141023 0.002,0.329156 0.14902,0.448421 1.0419,0.84515 1.03839,0.461372 1.03965,0.46266 1.08648,1.115353 0.0464,0.646383 0.0564,0.657225 0.93222,1.003904 0.77221,0.305685 0.93498,0.325446 1.27381,0.154674 0.63497,-0.320036 0.70814,-0.317042 0.32977,0.01352 -0.19712,0.172197 -0.33199,0.333414 -0.29971,0.358254 0.0323,0.02487 0.31066,0.196682 0.61864,0.38187 0.30797,0.185196 0.84747,0.664035 1.19888,1.064089 l 0.63892,0.727366 0.0274,-1.428572 c 0.0225,-1.179152 0.0995,-1.602403 0.4409,-2.424259 0.22745,-0.547627 0.42775,-1.017217 0.4451,-1.043538 0.0173,-0.02632 0.29101,0.03469 0.60812,0.135677 0.69222,0.220339 1.70184,1.292235 1.78031,1.890097 0.0303,0.230908 0.10306,2.32568 0.16167,4.655054 0.0818,3.252038 0.15316,4.273892 0.30721,4.401737 0.24524,0.203548 0.26842,0.489118 0.0276,0.340288 -0.10805,-0.06681 -0.1323,-0.04105 -0.0646,0.0685 0.0597,0.0965 0.16579,0.140016 0.23587,0.0967 0.27668,-0.170997 0.52605,1.088678 0.51893,2.621471 -0.006,1.368727 -0.064,1.719809 -0.44265,2.697472 l -0.43538,1.123942 -0.002,3.521694 c -0.002,1.936936 0.0127,5.25682 0.0305,7.377527 l 0.0325,3.85584 0.63691,0.322894 c 0.78807,0.399538 0.85653,0.502061 0.85939,1.286987 0.002,0.73358 -0.0773,0.79947 -3.05558,2.514489 l -1.78406,1.027368 3.43253,1.714906 c 1.88787,0.943197 3.46319,1.743674 3.5007,1.778849 0.0375,0.03517 0.095,0.48515 0.12781,0.99996 l 0.0596,0.936018 -2.38001,1.5229 c -1.30902,0.837592 -2.47923,1.551749 -2.60047,1.587013 -0.12126,0.03525 -2.17613,-0.943318 -4.56639,-2.174636 z m 4.29637,1.190123 -0.0495,-0.786962 -3.5096,-1.836063 -3.50961,-1.836063 -0.69315,0.431429 -0.69316,0.431429 2.45398,1.275782 c 5.08746,2.644871 5.90274,3.065973 5.97568,3.086418 0.0412,0.01151 0.0526,-0.333132 0.0254,-0.76597 z m 4.94462,-2.924347 c 0.0559,-0.876493 0.0534,-0.877234 -0.91239,-0.267563 -0.59689,0.376799 -0.84473,0.761913 -0.37412,0.581313 0.18689,-0.07172 0.22633,-0.0024 0.18733,0.327828 -0.0397,0.336303 -0.2705,0.559628 -1.17335,1.135283 -0.61818,0.394137 -1.17452,0.720798 -1.23634,0.725893 -0.18326,0.01513 -0.12784,-0.814491 0.0675,-1.009764 0.31464,-0.314635 -0.0899,-0.193672 -0.66956,0.200216 -0.53021,0.36029 -0.55929,0.422261 -0.55929,1.191829 v 0.811778 l 2.30999,-1.454088 2.31,-1.454072 z m -19.78361,2.137385 c 0.0123,-0.20606 0.0292,-0.443592 0.0375,-0.527851 0.008,-0.08426 -0.27162,-0.324109 -0.62192,-0.533002 l -0.63689,-0.379801 v 0.594135 c 0,0.508637 0.0701,0.637465 0.48704,0.895232 0.64274,0.397357 0.70779,0.393035 0.7343,-0.0487 z m 3.84317,-1.59499 c 1.70655,-1.003196 4.65387,-2.750033 6.54959,-3.881855 1.89571,-1.13183 4.27285,-2.543845 5.28254,-3.137812 l 1.83578,-1.079937 V 52.29676 51.696854 l -0.56197,0.333534 c -0.30909,0.183442 -1.53981,0.904054 -2.73494,1.601356 -1.19512,0.697295 -4.81867,2.82985 -8.05231,4.739015 l -5.87935,3.471202 -0.002,0.578013 c -0.002,0.460309 0.0445,0.55991 0.22894,0.489141 0.12734,-0.04886 1.62782,-0.909648 3.33437,-1.912844 z m 14.45047,0.306248 c -0.0595,-0.05304 -1.30125,-0.700248 -2.75945,-1.438215 -1.85615,-0.939373 -2.60477,-1.25491 -2.49626,-1.052159 0.10777,0.201383 0.10612,0.338477 -0.006,0.450055 -0.11403,0.114033 0.34555,0.42726 1.58852,1.082666 1.90467,1.004315 2.17142,1.2486 1.87745,1.719333 -0.36852,0.590095 -0.16911,0.581579 0.85858,-0.03662 0.57466,-0.345705 0.99614,-0.671955 0.93663,-0.725015 z m -2.13198,0.165886 c 0,-0.04178 -0.75905,-0.464535 -1.68592,-0.939382 -0.92687,-0.474846 -2.43437,-1.259603 -3.34999,-1.743907 l -1.66475,-0.880542 -0.71742,0.446545 -0.71745,0.446546 3.42744,1.760352 3.42745,1.76036 0.64067,-0.386974 c 0.35234,-0.212837 0.64035,-0.421182 0.63997,-0.462998 z m -17.68273,-8.167257 -0.0749,-8.840525 -0.59944,-0.310144 c -0.41108,-0.212684 -0.61454,-0.424941 -0.64751,-0.675529 -0.0877,-0.666458 -1.07587,-1.070906 -1.07587,-0.44034 0,0.164848 0.0625,0.29972 0.13889,0.29972 0.17815,0 0.61041,0.861555 0.61041,1.216629 0,0.339571 -0.43663,0.581683 -1.04901,0.581683 -1.04937,0 -1.32263,-0.544713 -0.70043,-1.396198 0.19171,-0.262371 0.3559,-0.679352 0.36482,-0.926616 0.0133,-0.368886 -0.006,-0.395787 -0.10503,-0.14986 -0.0667,0.16484 -0.0994,0.338308 -0.0728,0.385485 0.0486,0.08592 -1.86815,1.079792 -3.34552,1.734667 l -0.78676,0.348747 v 0.746708 c 0,0.713965 0.0262,0.761696 0.59827,1.088373 0.32906,0.187909 0.59865,0.375375 0.59908,0.416586 0,0.04121 -0.36524,0.266187 -0.81264,0.499952 l -0.81343,0.425022 -1.46971,-0.757816 -1.46972,-0.757816 -1.16326,0.551008 c -1.31611,0.623419 -1.43785,0.876952 -0.71367,1.486309 0.24728,0.208064 0.44956,0.476521 0.44956,0.596574 0,0.385557 -0.70606,0.953951 -1.18499,0.953951 -0.56598,0 -1.21275,-0.287831 -1.21275,-0.539715 0,-0.46138 -0.22596,-0.277311 -0.23657,0.192698 -0.0248,1.098837 -0.81244,0.896866 -0.81244,-0.208321 0,-0.367679 -0.0599,-0.646029 -0.13303,-0.618557 -0.41662,0.156452 -1.65341,0.810836 -1.65222,0.874183 0,0.04121 0.70524,0.406992 1.56545,0.812849 l 1.56403,0.737926 1.83803,-0.862262 c 1.01091,-0.474243 3.96228,-1.92367 6.5586,-3.220936 4.65286,-2.324842 4.72191,-2.366046 4.81324,-2.872848 0.0511,-0.28375 0.10046,0.258146 0.1101,1.209207 0.01,0.947858 -0.0454,1.822758 -0.12224,1.94422 -0.0768,0.121455 -0.085,0.256327 -0.0181,0.299712 0.19552,0.126984 0.3711,6.951523 0.17575,6.830785 -0.0898,-0.05546 -0.16317,-0.384768 -0.16317,-0.731777 0,-0.614838 -0.0224,-0.643276 -0.88072,-1.115104 -0.48437,-0.266292 -0.92271,-0.484168 -0.97407,-0.484168 -0.0513,0 -0.0934,0.360444 -0.0934,0.800968 v 0.800976 l 1.11881,0.510295 1.11881,0.510304 0.005,3.254653 0.005,3.254654 0.41212,0.216379 c 0.22667,0.119007 0.41211,0.205464 0.41211,0.19211 0,-0.01336 -0.0337,-4.002505 -0.0749,-8.864801 z M 167.70114,44.898 c 0,-0.369949 0.28911,-0.81437 0.52978,-0.81437 0.31177,0 0.2717,0.195032 -0.086,0.41843 -0.16806,0.104945 -0.26454,0.25714 -0.21445,0.338211 0.0501,0.08107 0.15389,0.108608 0.23061,0.06117 0.0767,-0.04741 0.1395,-0.01481 0.1395,0.07252 0,0.08729 -0.13488,0.158699 -0.29972,0.158699 -0.1721,0 -0.29971,-0.09991 -0.29971,-0.234643 z m 0.89915,-0.496966 c 0,-0.08242 0.0675,-0.191538 0.14986,-0.242474 0.0824,-0.05095 0.14986,-0.02519 0.14986,0.05723 0,0.08242 -0.0675,0.191539 -0.14986,0.242482 -0.0824,0.05095 -0.14986,0.02519 -0.14986,-0.05723 z m 3.29691,16.701833 c 0,-0.396632 -0.0996,-0.585201 -0.43525,-0.824222 -0.58098,-0.413697 -0.61382,-0.400214 -0.6135,0.252045 1.6e-4,0.452622 0.0804,0.610338 0.41211,0.81053 0.58714,0.35435 0.63664,0.335821 0.63664,-0.238353 z m 5.5249,-1.232968 c 1.61819,-0.961002 3.68396,-2.197513 4.5906,-2.747804 0.90665,-0.550292 2.66001,-1.577426 3.89634,-2.282528 1.23635,-0.705102 3.05118,-1.757333 4.03298,-2.338293 l 1.78507,-1.05628 -0.53556,-0.255393 -0.53559,-0.255393 -1.13645,0.583446 -1.13646,0.583446 -0.56262,-0.300017 c -0.49591,-0.264449 -0.56288,-0.366625 -0.56479,-0.861691 -0.002,-0.308921 0.0493,-0.561674 0.11238,-0.561674 0.063,0 0.11457,0.233661 0.11457,0.519238 0,0.370529 0.0882,0.566447 0.30804,0.684086 0.1694,0.09067 0.35486,0.143622 0.41211,0.117671 0.0572,-0.026 0.0693,-3.014401 0.0268,-6.641001 -0.0425,-3.626591 -0.0931,-5.666556 -0.1124,-4.533245 -0.0213,1.250411 -0.094,2.060571 -0.18494,2.060571 -0.0866,0 -0.13923,0.395313 -0.12467,0.936621 l 0.0252,0.936621 0.0995,-0.89916 0.0995,-0.899152 0.0252,1.161411 c 0.0139,0.643655 -0.0377,1.161403 -0.11582,1.161403 -0.22847,0 -0.28822,-0.194001 -0.33718,-1.094787 -0.0254,-0.468786 -0.0969,-0.852572 -0.1587,-0.852861 -0.0618,-1.94e-4 -0.12778,1.432508 -0.14657,3.183989 l -0.0342,3.184513 -0.0439,-3.034653 c -0.0241,-1.669058 -0.0786,-3.034653 -0.12095,-3.034653 -0.0424,0 -0.24332,0.108914 -0.44646,0.242024 -0.20317,0.133117 -0.36896,0.183699 -0.36845,0.112399 0,-0.07132 0.20285,-0.244511 0.44959,-0.384913 l 0.44863,-0.255288 v -2.233903 -2.233911 l -0.93098,-0.305233 -0.93098,-0.305242 -1.05219,0.974162 c -0.57869,0.535779 -1.4579,1.184971 -1.9538,1.442642 -0.77839,0.404457 -1.05525,0.468053 -2.02558,0.465276 -0.89515,-0.0024 -1.29936,-0.08414 -1.98563,-0.400777 -0.95602,-0.44108 -1.1669,-0.324101 -0.31831,0.176583 0.29887,0.176342 0.50554,0.358471 0.45929,0.404738 -0.0463,0.04628 -0.23838,-0.02391 -0.42689,-0.155945 -0.50693,-0.355067 -0.55586,-0.31243 -0.60542,0.527577 l -0.0453,0.767644 -2.22604,1.143059 -2.22603,1.143058 0.0893,4.645636 c 0.0491,2.555106 0.0899,6.243443 0.0905,8.196308 l 0.002,3.550663 0.63689,0.381725 c 0.3503,0.209947 0.66168,0.382369 0.69193,0.383142 0.0303,7.97e-4 1.37901,-0.784853 2.9972,-1.745855 z m -4.10874,0.860274 c 0.0468,-0.07574 0.51801,-0.37981 1.04712,-0.675706 0.52912,-0.295897 0.99276,-0.655406 1.0303,-0.798908 0.0536,-0.204828 0.0721,-0.19211 0.0857,0.05916 0.0133,0.244293 -0.22839,0.466121 -1.02037,0.936621 -1.05195,0.624964 -1.29632,0.72735 -1.14271,0.478815 z m 2.02821,-2.805549 c -0.10294,-0.826049 0.0188,-2.257221 0.14171,-1.665089 l 0.0855,0.41195 0.51837,-0.316406 0.5184,-0.316415 -0.42847,-0.224492 c -0.23565,-0.123466 -0.50264,-0.235374 -0.5933,-0.24868 -0.0907,-0.01328 -0.18173,-0.07333 -0.20233,-0.133303 -0.11882,-0.346043 0.0431,-0.336569 0.74929,0.04387 l 0.78678,0.42383 0.65525,-0.389372 c 0.77666,-0.461509 0.78478,-0.451624 -1.08358,-1.316704 -1.26292,-0.58475 -1.28281,-0.602306 -1.26661,-1.118581 0.0143,-0.456414 0.0246,-0.470146 0.0795,-0.105775 0.0516,0.342429 0.23615,0.504089 1.0128,0.887078 0.90353,0.445548 0.97247,0.457316 1.41718,0.241943 l 0.46744,-0.226392 -1.49542,-0.735608 -1.49541,-0.735616 0.0266,-3.971266 c 0.0216,-3.22187 0.0349,-3.454355 0.071,-1.231987 l 0.0444,2.739288 2.91886,1.437474 c 2.01846,0.994044 2.91815,1.512775 2.91658,1.681567 -0.002,0.15683 -0.0417,0.184029 -0.11239,0.07606 -0.10124,-0.154456 -5.44349,-2.904119 -5.64236,-2.904119 -0.0481,0 -0.0875,0.303728 -0.0875,0.674949 v 0.67495 l 2.4519,1.223285 2.45192,1.223285 0.47897,-0.341061 c 0.26345,-0.187586 0.52006,-0.299985 0.57026,-0.249782 0.0502,0.05023 0.0632,0.112785 0.0288,0.13909 -0.0696,0.05329 -4.39381,2.529727 -5.26366,3.014433 -0.52423,0.292138 -0.55803,0.356057 -0.59944,1.133819 -0.0428,0.804718 -0.0457,0.80954 -0.12119,0.203789 z m 3.56627,-3.770446 c -0.55112,-0.02777 -0.97789,0.02584 -1.11561,0.140152 -0.19067,0.158232 -0.15258,0.221539 0.2623,0.43609 0.47217,0.244164 0.50248,0.240365 1.11561,-0.140153 l 0.63025,-0.391126 z m -1.45635,-1.229902 c -1.78535,-0.923863 -2.45661,-1.175666 -2.02262,-0.758734 0.34327,0.329752 3.32465,1.792388 3.66157,1.796324 0.23698,0.0024 -0.3653,-0.37853 -1.63895,-1.03759 z m 4.326,2.570359 c -0.29262,-0.236952 -0.34675,-0.430705 -0.36631,-1.311271 -0.0127,-0.56829 -0.0698,-1.176616 -0.12705,-1.351847 -0.0816,-0.249903 -0.0316,-0.337551 0.2318,-0.406436 0.18894,-0.04942 0.43663,7.89e-4 0.56618,0.114693 0.19822,0.174289 0.55408,0.0089 2.55315,-1.18708 1.27754,-0.76428 2.40023,-1.461131 2.49485,-1.548562 0.12426,-0.114821 0.1932,-0.078 0.24827,0.132595 0.0419,0.160348 0.0135,0.252777 -0.0632,0.205391 -0.0767,-0.04741 -0.95883,0.403805 -1.96034,1.002633 -1.00152,0.598836 -1.72489,1.117325 -1.60748,1.152203 0.47796,0.141987 0.56545,0.462185 0.34777,1.272699 -0.11512,0.428636 -0.17191,0.957026 -0.12623,1.174193 0.17797,0.845778 -1.40459,1.387956 -2.19146,0.750789 z m 1.16872,0.03759 c -0.0498,-0.04983 -0.17907,-0.05514 -0.28723,-0.01183 -0.11956,0.04781 -0.084,0.08336 0.0905,0.09055 0.15796,0.0064 0.24649,-0.0289 0.19669,-0.07872 z m 0.16808,-0.373692 c 0.52689,-0.183675 0.53188,-0.192754 0.32216,-0.584614 -0.2227,-0.416135 -0.97146,-0.350301 -1.21617,0.106934 -0.16223,0.303133 -0.1583,0.384373 0.0242,0.499791 0.27767,0.175658 0.3045,0.174973 0.86986,-0.02213 z m -1.40029,-0.822653 -0.22496,-0.586352 0.0921,0.524502 c 0.099,0.563734 0.20044,0.805548 0.29727,0.708724 0.0332,-0.03332 -0.0407,-0.324382 -0.16445,-0.646874 z m 0.52349,-0.381113 c 0,-0.16587 0.10304,-0.404617 0.22898,-0.530547 0.19038,-0.190388 0.27245,-0.196119 0.48704,-0.03397 0.21898,0.165444 0.22971,0.16315 0.0707,-0.01505 -0.26203,-0.293828 -0.23559,-0.413471 0.13515,-0.611884 0.31286,-0.167431 0.31973,-0.152548 0.2305,0.498415 -0.0623,0.454377 -0.0267,0.760214 0.1101,0.947342 0.18222,0.249212 0.21944,0.192626 0.37911,-0.576459 0.2036,-0.980771 0.13265,-1.185511 -0.37869,-1.092792 -0.72842,0.132087 -0.98486,0.267797 -1.10735,0.586038 -0.12132,0.315191 -0.12911,0.3128 -0.2863,-0.08811 -0.16672,-0.425215 -0.38032,-0.526539 -0.54573,-0.258887 -0.13163,0.212982 0.36995,1.666957 0.53902,1.562471 0.0756,-0.04669 0.13741,-0.220645 0.13741,-0.386515 z m -7.04339,0.319263 c 0,-0.247263 0.0531,-0.449572 0.11799,-0.449572 0.0649,0 0.1334,0.202309 0.15223,0.449572 0.0188,0.247272 -0.0343,0.44958 -0.11798,0.44958 -0.0837,0 -0.15224,-0.202308 -0.15224,-0.44958 z m -1.86978,-7.008213 c 0.0843,-0.06053 0.27134,-0.29555 0.41557,-0.522216 0.19142,-0.300814 0.21072,-0.416143 0.0715,-0.42705 -0.27291,-0.02133 0.49259,-0.251988 0.89569,-0.269841 0.39741,-0.01763 0.42432,0.120061 0.10128,0.518392 -0.22925,0.282672 -0.23378,0.28103 -0.16079,-0.05812 0.0573,-0.266332 0.0216,-0.328464 -0.151,-0.262251 -0.12437,0.04773 -0.25431,0.08677 -0.28878,0.08677 -0.0344,0 -0.0627,0.0714 -0.0627,0.158698 0,0.08729 0.0761,0.111619 0.1693,0.05409 0.10277,-0.06351 0.14203,-0.02286 0.0999,0.103545 -0.0382,0.1145 -0.15931,0.208184 -0.2692,0.208184 -0.10991,0 -0.23105,0.09369 -0.26922,0.208185 -0.0463,0.138776 -0.005,0.168534 0.12308,0.08924 0.12617,-0.078 0.15561,-0.05932 0.0855,0.05409 -0.0588,0.09517 -0.2884,0.171987 -0.51019,0.170724 -0.2218,-8.05e-4 -0.33428,-0.05184 -0.24995,-0.112391 z m 0.97062,-0.101259 c 0,-0.128497 0.0674,-0.233636 0.14986,-0.233636 0.0824,0 0.14988,0.06343 0.14988,0.141014 0,0.07759 -0.0675,0.182701 -0.14988,0.233636 -0.0824,0.05095 -0.14986,-0.01248 -0.14986,-0.141014 z m 0.92283,-3.08096 c 0,-0.206059 0.0341,-0.290351 0.0756,-0.187321 0.0416,0.103022 0.0416,0.271612 0,0.374642 -0.0415,0.10303 -0.0756,0.01875 -0.0756,-0.187321 z m 9.90452,-0.25425 c -0.21498,-0.08085 -0.25678,-0.49505 -0.05,-0.49505 0.0756,0 0.16861,0.0843 0.20682,0.187329 0.0504,0.135855 0.14642,0.112544 0.34967,-0.08487 0.19565,-0.190049 0.21506,-0.257888 0.0643,-0.22479 -0.34513,0.07582 -0.35998,-0.439075 -0.0179,-0.622122 0.20632,-0.110427 0.30875,-0.113776 0.30875,-0.01014 0,0.08533 -0.0675,0.155132 -0.14986,0.155132 -0.0824,0 -0.14761,0.0843 -0.14486,0.187329 0.003,0.103022 0.1393,0.026 0.30346,-0.171094 0.40794,-0.48985 0.54077,-0.289312 0.19651,0.296662 -0.31751,0.540415 -0.78928,0.886007 -1.06693,0.781585 z m -6.48142,-1.862134 c 0,-0.267974 -0.036,-0.28821 -0.22842,-0.128497 -0.12561,0.104253 -0.26708,0.150882 -0.31435,0.103617 -0.12235,-0.122364 0.72687,-1.152171 0.87476,-1.060772 0.0674,0.04161 0.0769,0.14957 0.021,0.23985 -0.0558,0.09029 -0.11619,0.351678 -0.13422,0.580879 -0.0272,0.345528 0.0345,0.427082 0.36125,0.477398 0.34484,0.05312 0.33323,0.06351 -0.093,0.08314 -0.40355,0.01859 -0.48704,-0.03204 -0.48704,-0.295615 z m 13.61536,18.539247 c -0.0292,-0.02358 -1.38051,-0.719445 -3.00294,-1.546299 -1.68329,-0.857892 -2.87949,-1.390741 -2.78601,-1.24105 0.21342,0.341721 5.71946,3.17615 5.78895,2.980063 0.0292,-0.08238 0.0292,-0.169097 0,-0.192714 z m 0.97462,-0.689422 0.71172,-0.451366 -3.34238,-1.667738 c -1.83832,-0.917255 -3.40984,-1.66798 -3.49226,-1.668261 -0.0824,-4.03e-4 -0.41324,0.156919 -0.73517,0.349359 l -0.58531,0.349891 0.34477,0.233684 c 0.39735,0.269326 6.17888,3.298586 6.30385,3.302917 0.0457,0.0016 0.40333,-0.200232 0.79478,-0.448486 z M 171.8972,59.668966 c 0,-0.518682 0.009,-0.514295 -0.51013,-0.244888 l -0.39453,0.204683 0.33993,0.237032 c 0.48453,0.337858 0.56473,0.309903 0.56473,-0.196827 z m 15.28565,-0.6107 c 0,-0.207179 -1.23061,-1.787044 -1.39198,-1.787044 -0.16975,0 -1.30519,0.657362 -1.29427,0.749292 0.0159,0.133142 2.15312,1.183571 2.424,1.191346 0.14424,0.004 0.26225,-0.06496 0.26225,-0.153594 z m -2.28675,-1.57547 c 0.36401,-0.21332 0.62587,-0.423823 0.5819,-0.467788 -0.0812,-0.08126 -1.44219,0.661427 -1.44219,0.787035 0,0.138937 0.21392,0.05956 0.86029,-0.319247 z m -26.5169,-1.185664 c 0.0356,-0.228235 0.0129,-0.250314 -0.0948,-0.09259 -0.11357,0.166232 -0.16052,0.147236 -0.2378,-0.09622 -0.11824,-0.372533 -0.6858,-0.56346 -0.6858,-0.230706 0,0.137827 -0.0863,0.19368 -0.21999,0.142374 -0.3465,-0.132964 -0.45634,0.224911 -0.14008,0.456406 0.42555,0.311496 1.32001,0.195177 1.37844,-0.179264 z m -0.56878,-1.648452 c 0,-0.330291 -0.0721,-0.524502 -0.1947,-0.524502 -0.13428,0 -0.17568,0.162787 -0.13346,0.524502 0.0336,0.288484 0.12128,0.52451 0.1947,0.52451 0.0734,0 0.13346,-0.236026 0.13346,-0.52451 z m -1.87325,-0.674362 c 0.051,-0.08242 0.0212,-0.14986 -0.0661,-0.14986 -0.0873,0 -0.1587,0.06745 -0.1587,0.14986 0,0.08242 0.0298,0.14986 0.0661,0.14986 0.0364,0 0.10777,-0.06745 0.1587,-0.14986 z m 13.58529,-0.599343 c -0.0469,-0.675956 -0.0871,-0.749397 -0.41041,-0.749397 -0.52009,0 -8.67266,-0.577618 -9.69198,-0.686685 -0.84449,-0.09036 -0.86162,-0.08479 -0.7979,0.259707 0.0358,0.193624 0.0701,0.52315 0.0762,0.732276 0.008,0.283711 0.0967,0.386161 0.34834,0.403611 0.18544,0.01288 1.55105,0.130655 3.03464,0.26176 3.05139,0.269649 5.82052,0.475507 6.8186,0.506899 l 0.67437,0.02125 z m -11.78301,0.1787 c -0.0461,-0.04612 -0.16707,-8.8e-5 -0.26871,0.10233 -0.1469,0.148 -0.12969,0.16521 0.0839,0.08389 0.1478,-0.05626 0.23095,-0.140072 0.18482,-0.186218 z m 0.67041,-0.715727 c 0,-0.344159 -0.16614,-0.463939 -1.49859,-1.080436 -1.2602,-0.58306 -1.49859,-0.747956 -1.49859,-1.036592 0,-0.188778 -0.0719,-0.343234 -0.15966,-0.343234 -0.0986,0 -0.13717,0.2682 -0.10089,0.701238 l 0.0588,0.701231 1.48709,0.709432 c 0.81789,0.390193 1.53767,0.715284 1.59948,0.722432 0.0618,0.0072 0.1124,-0.161185 0.1124,-0.374071 z m 13.34163,-0.372975 -0.0791,-0.760046 -3.06431,-1.574504 -3.06429,-1.574504 -0.72261,0.338453 c -0.39745,0.186153 -0.67071,0.389919 -0.60727,0.452823 0.12544,0.124344 7.40801,3.867045 7.53756,3.873734 0.0435,0.0024 0.0435,-0.337929 0,-0.755956 z m -2.4144,-0.176576 c -0.0344,-0.02061 -0.90539,-0.454023 -1.93568,-0.963159 -1.55399,-0.767934 -2.04099,-0.938931 -2.85764,-1.003373 l -0.98439,-0.07767 -0.21374,0.553793 c -0.11755,0.30459 -0.23273,0.592969 -0.25596,0.640837 -0.0233,0.04789 0.16187,0.05707 0.41136,0.02045 0.27318,-0.04008 0.45362,-1.53e-4 0.45362,0.100293 0,0.09786 -0.27887,0.166868 -0.67437,0.166868 -0.6888,0 -0.81133,-0.10282 -0.49704,-0.417109 0.32888,-0.328883 -0.008,-0.369169 -0.41444,-0.04958 -0.22152,0.174241 -0.52455,0.3168 -0.67341,0.3168 -0.2955,0 -0.52682,-0.261076 -0.37015,-0.417745 0.0539,-0.05393 0.15327,-0.0088 0.22075,0.100373 0.14521,0.234948 0.53192,0.06866 0.97243,-0.418043 0.28717,-0.31734 0.63273,-0.439768 0.46213,-0.163745 -0.051,0.08242 -0.0183,0.14986 0.0727,0.14986 0.31919,0 0.0731,-0.525709 -0.29667,-0.633754 -0.2856,-0.08345 -0.73664,0.06705 -1.91071,0.637666 -0.84524,0.410807 -1.53682,0.769592 -1.53682,0.797313 0,0.02769 0.32032,0.06464 0.71182,0.08201 0.39151,0.01739 2.63378,0.183513 4.98283,0.369152 3.82789,0.302513 4.5475,0.337181 4.33343,0.20874 z M 158.3741,51.993829 c -0.0885,-0.265455 -2.81157,-1.496524 -2.81157,-1.271082 0,0.101283 0.59006,0.463232 1.31126,0.804325 1.45586,0.688544 1.58796,0.729644 1.50031,0.466757 z m 31.24365,-0.754452 0.89937,-0.487041 -0.0926,-3.221974 c -0.051,-1.772088 -0.0931,-3.714875 -0.0936,-4.317301 0,-0.797925 -0.0486,-1.065899 -0.17632,-0.986969 -0.11533,0.07124 -0.14481,0.02882 -0.0861,-0.124054 0.0665,-0.173178 0.0151,-0.213022 -0.20168,-0.156356 -0.15994,0.04186 -0.327,0.134583 -0.37119,0.206116 -0.0442,0.07156 0.025,0.0896 0.15388,0.04017 0.17253,-0.06624 0.20897,-0.02399 0.13829,0.160187 -0.0528,0.137545 -0.18625,0.215437 -0.29661,0.17309 -0.11035,-0.04234 -0.24701,-0.0016 -0.30368,0.08971 -0.072,0.116569 0.0647,0.139485 0.45467,0.07623 0.35622,-0.05779 0.53894,-0.03429 0.5058,0.0652 -0.0534,0.160074 -1.46647,0.313049 -1.46647,0.158754 0,-0.04725 0.14996,-0.245597 0.33326,-0.440702 0.26122,-0.278059 0.29035,-0.381258 0.13475,-0.477422 -0.12939,-0.07993 0.0415,-0.15869 0.49098,-0.226078 l 0.68947,-0.103392 v -2.604512 c 0,-1.554574 -0.0597,-2.641425 -0.14816,-2.696071 -0.0863,-0.05337 -0.10922,0.0099 -0.0548,0.15159 0.0649,0.169114 -0.19353,0.52208 -0.84874,1.159262 l -0.94206,0.91612 0.0971,3.231907 c 0.0534,1.777545 0.0974,4.732366 0.0977,6.566272 0,1.833905 0.0427,3.334373 0.094,3.334373 0.0513,0 0.49811,-0.219172 0.99278,-0.487049 z m -17.8704,-0.23176 c 0,-0.388197 -0.14847,-0.493239 -2.01366,-1.424765 -1.80563,-0.901784 -2.05331,-0.987589 -2.39775,-0.830661 -0.21125,0.09626 -0.3793,0.214768 -0.37346,0.263353 0.0111,0.09182 4.47455,2.386652 4.67246,2.402284 0.0618,0.0048 0.11241,-0.179714 0.11241,-0.410211 z M 157.6119,50.279084 c -0.0542,-0.05425 -0.0235,-0.189108 0.0683,-0.29972 0.10493,-0.126445 0.1104,-0.20111 0.0147,-0.20111 -0.18246,0 -0.35065,0.38307 -0.22386,0.509853 0.0493,0.04926 0.12329,0.08958 0.16449,0.08958 0.0412,0 0.0306,-0.04435 -0.0237,-0.0986 z m 14.11358,-0.268441 c -0.0941,-0.08617 -4.31735,-2.180561 -4.39698,-2.180561 -0.0423,0 -0.077,0.06423 -0.077,0.142825 0,0.205054 4.41024,2.404047 4.47392,2.230756 0.0292,-0.07945 0.0292,-0.166297 0,-0.19302 z m -11.57849,-0.131275 c 0.34722,-0.298665 0.37906,-0.38967 0.22284,-0.636901 -0.17193,-0.272047 -0.17823,-0.269278 -0.11107,0.04878 0.0392,0.185446 0.0101,0.337181 -0.0646,0.337181 -0.0747,0 -0.13582,-0.0714 -0.13582,-0.158706 0,-0.08941 -0.0818,-0.10765 -0.18733,-0.04178 -0.10303,0.06431 -0.43997,0.120649 -0.74879,0.125221 -0.48525,0.0072 -0.54917,-0.03034 -0.47098,-0.276691 0.0593,-0.186806 0.0333,-0.249678 -0.0754,-0.182475 -0.30301,0.187264 -0.18987,0.834187 0.17126,0.979338 0.56618,0.227575 0.97592,0.170812 1.39995,-0.193929 z m 4.69432,0.142737 c -0.0344,-0.03075 -0.28161,-0.167335 -0.54947,-0.303568 -0.47073,-0.239391 -0.48704,-0.237524 -0.48704,0.05586 0,0.249654 0.0976,0.303567 0.54947,0.303567 0.30221,0 0.52139,-0.02511 0.48704,-0.05586 z m -1.33624,-0.337133 c 0,-0.173581 -0.0536,-0.200771 -0.18733,-0.09505 -0.10302,0.08145 -0.28847,0.185542 -0.41211,0.23131 -0.12812,0.04741 -0.0476,0.08831 0.18733,0.09505 0.2851,0.0082 0.41211,-0.06311 0.41211,-0.23131 z m 8.24228,-0.624529 v -0.717804 l -1.47023,-0.723381 -1.4702,-0.723382 -0.65772,0.335547 -0.65772,0.335539 2.09047,1.084106 c 1.14975,0.596261 2.10731,1.093798 2.12792,1.105647 0.0206,0.01183 0.0375,-0.301475 0.0375,-0.696272 z m -13.93693,0.268231 c 0,-0.08242 -0.0297,-0.14986 -0.0661,-0.14986 -0.0364,0 -0.10777,0.06745 -0.15872,0.14986 -0.051,0.08242 -0.0212,0.14986 0.0661,0.14986 0.0873,0 0.15871,-0.06745 0.15871,-0.14986 z m 2.07205,-0.346429 c 0.0448,-0.236421 0.0127,-0.247264 -0.24881,-0.08394 -0.24203,0.151156 -0.3463,0.149393 -0.53727,-0.0091 -0.19758,-0.163986 -0.23696,-0.160412 -0.23696,0.02149 0,0.325421 0.17037,0.43679 0.59255,0.387392 0.22442,-0.02624 0.39999,-0.155068 0.43049,-0.315842 z m -0.87318,-0.562929 c 0,-0.219341 -0.22508,-0.164606 -0.5765,0.140177 -0.49737,0.431364 -0.39434,0.690782 0.12693,0.319601 0.24726,-0.176068 0.44957,-0.382973 0.44957,-0.459778 z m 0.47098,-0.519302 c 0,-0.958958 -0.13956,-1.196771 -0.614,-1.046187 -0.32083,0.101822 -0.35515,0.451745 -0.0443,0.451745 0.25548,0 0.30641,0.10885 0.35059,0.7493 0.0824,1.19463 0.3077,1.081265 0.3077,-0.154858 z m 7.65889,0.736912 c 0.2804,-0.0989 0.36168,-0.357264 0.1124,-0.357264 -0.0824,0 -0.14986,-0.101162 -0.14986,-0.22479 0,-0.290487 -0.043,-0.285392 -0.78456,0.09292 l -0.62275,0.317702 0.4414,0.193938 c 0.24276,0.106668 0.50884,0.166047 0.59125,0.131966 0.0824,-0.03405 0.26788,-0.103593 0.41212,-0.154472 z m -8.73122,-0.502471 c 0.15937,-0.384808 0.13785,-0.556949 -0.15925,-1.27381 -0.31051,-0.749107 -0.58812,-1.069642 -0.58812,-0.679015 0,0.08242 0.053,0.14986 0.11774,0.14986 0.13542,0 0.19067,0.351911 0.22941,1.46118 0.0312,0.893912 0.13486,0.982404 0.40022,0.341785 z m -0.63811,0.204522 c -0.0498,-0.04982 -0.17905,-0.05514 -0.28724,-0.01183 -0.11953,0.04781 -0.084,0.08335 0.0906,0.09055 0.15798,0.0064 0.24648,-0.0289 0.19669,-0.07872 z m 1.23946,-0.601517 c 0,-0.123628 -0.0675,-0.183111 -0.14986,-0.132168 -0.0824,0.05095 -0.14986,0.193769 -0.14986,0.317404 0,0.123636 0.0675,0.183112 0.14986,0.132176 0.0824,-0.05095 0.14986,-0.193776 0.14986,-0.317412 z m 6.70407,-0.0198 c 0.69633,-0.28627 0.77732,-0.403313 0.37679,-0.544593 -0.14423,-0.05087 -0.34655,-0.131797 -0.44959,-0.179819 -0.12472,-0.05812 -0.18731,0.04548 -0.18731,0.310232 0,0.326573 -0.0602,0.38901 -0.33718,0.349674 -0.43982,-0.06246 -0.52726,-0.639992 -0.16192,-1.069216 0.18189,-0.213674 0.19442,-0.260858 0.0372,-0.14004 -0.18852,0.144894 -0.29594,0.137666 -0.52449,-0.03525 -0.39239,-0.296895 -0.51222,-0.279887 -0.51222,0.07268 0,0.387666 -0.45261,0.395489 -0.55352,0.0096 -0.0726,-0.277601 -0.0983,-0.279477 -0.59361,-0.0433 l -0.51773,0.246885 1.24454,0.635178 c 0.68451,0.349344 1.31127,0.63856 1.39283,0.642697 0.0815,0.004 0.43534,-0.110483 0.7862,-0.254725 z m 5.99847,-1.181872 c 0.0421,-0.524494 0.0303,-0.953621 -0.0263,-0.953621 -0.0566,0 -0.29937,0.101605 -0.53951,0.225788 -0.39081,0.202099 -0.6234,0.658143 -0.76381,1.497594 -0.0137,0.08242 0.20345,0.261213 0.48274,0.397325 0.64061,0.31218 0.73908,0.176494 0.84694,-1.167086 z m -13.90141,1.235375 c 0,-0.03244 -0.10465,-0.09906 -0.23257,-0.148145 -0.13336,-0.05119 -0.19353,-0.02608 -0.14102,0.05892 0.088,0.142398 0.37359,0.210615 0.37359,0.08925 z m 5.35747,-1.771613 c 0.19555,-0.161145 0.25578,-0.748559 0.0934,-0.910936 -0.0517,-0.05168 -0.28387,0.004 -0.51601,0.124328 -0.26989,0.139565 -0.45565,0.163946 -0.51517,0.06761 -0.13486,-0.218197 0.0511,-0.705753 0.30659,-0.803785 0.31333,-0.120247 0.2759,0.308108 -0.0432,0.493956 -0.36006,0.209722 0.0106,0.201858 0.47569,-0.01006 0.35212,-0.160428 0.45061,-0.562703 0.19932,-0.813991 -0.0711,-0.07108 -4.65679,1.909198 -4.8746,2.105059 -0.0225,0.02028 -0.003,0.135605 0.0432,0.256302 0.0576,0.150174 0.2311,0.197874 0.54964,0.151124 0.36016,-0.05288 0.52481,0.01038 0.728,0.279806 0.14443,0.191467 0.22913,0.435333 0.18822,0.541929 -0.0704,0.18353 2.96749,-1.153845 3.36488,-1.481319 z m -3.4093,0.57035 c 0,-0.221795 0.10324,-0.437321 0.2334,-0.487266 0.12838,-0.04926 0.19792,-0.182025 0.15457,-0.295019 -0.0462,-0.120456 0.0188,-0.205448 0.15728,-0.205448 0.15899,0 0.20474,0.08174 0.14008,0.250274 -0.0528,0.137649 -0.0139,0.301096 0.0867,0.36322 0.14207,0.08781 0.13845,0.166361 -0.0163,0.352788 -0.10948,0.131911 -0.2338,0.20507 -0.27628,0.162586 -0.0425,-0.0425 -0.16776,-0.0024 -0.27837,0.08965 -0.15966,0.132506 -0.20113,0.08492 -0.20113,-0.230787 z m 10.56781,0.198703 c 0.0554,-0.252214 0.0671,-0.492176 0.0261,-0.533243 -0.0411,-0.04105 -0.365,0.07349 -0.71984,0.254467 l -0.64515,0.329132 0.51823,0.254918 c 0.62498,0.307399 0.69158,0.282624 0.82069,-0.305274 z m -6.59355,-1.039627 c 0.0122,-0.163173 -0.0336,-0.296669 -0.10129,-0.296669 -0.0677,0 -0.10944,0.165387 -0.0927,0.367527 0.0347,0.4195 0.16128,0.373273 0.194,-0.07083 z m 1.04019,0.293329 c -0.0542,-0.08762 0,-0.273069 0.1211,-0.412119 0.22698,-0.261325 0.30069,-0.820527 0.0911,-0.690999 -0.065,0.04025 -0.08,0.173009 -0.0332,0.295075 0.058,0.151237 -0.0634,0.273729 -0.38121,0.384511 -0.48854,0.170305 -0.5956,0.355847 -0.27902,0.483579 0.33325,0.134478 0.58221,0.103408 0.4812,-0.06005 z m -2.84149,-1.665427 c 0.7418,-0.328786 1.78708,-0.796541 2.32282,-1.039458 0.53574,-0.242917 1.89906,-0.861136 3.0296,-1.373813 1.13052,-0.512686 2.0578,-0.984844 2.06056,-1.049246 0.0159,-0.370142 -0.68516,-0.170305 -2.79939,0.797869 -2.9464,1.349271 -7.64911,3.440357 -7.73707,3.440357 -0.1365,0 -0.24595,-6.190487 -0.33117,-18.73242 -0.0721,-10.613893 -0.0522,-13.008055 0.10975,-13.212392 0.10882,-0.137255 1.98493,-0.898886 4.16912,-1.692513 2.18422,-0.793635 5.15802,-1.8783296 6.60849,-2.4104461 1.45047,-0.5321246 2.74301,-0.9674897 2.87231,-0.9674897 0.14131,0 0.32503,0.2540811 0.46053,0.636901 l 0.22546,0.636901 0.0119,-1.086481 c 0.006,-0.5975646 -0.0118,-1.086481 -0.0406,-1.086481 -0.0288,0 -1.90018,0.6660149 -4.15861,1.4800386 -2.25839,0.8140156 -5.61719,2.0073742 -7.46396,2.6519142 l -3.35776,1.171883 0.0996,8.025567 c 0.0547,4.414061 0.10344,11.026495 0.10816,14.694298 0.005,3.667811 0.0477,7.589808 0.0956,8.715561 l 0.0869,2.046815 1.13956,-0.524784 c 0.62674,-0.288636 1.74647,-0.793796 2.48827,-1.122581 z m 3.2969,1.525009 c 0.051,-0.08242 0.0212,-0.14986 -0.0661,-0.14986 -0.0873,0 -0.1587,0.06745 -0.1587,0.14986 0,0.08242 0.0297,0.14986 0.0661,0.14986 0.0364,0 0.10778,-0.06745 0.1587,-0.14986 z m -7.27316,-5.732126 c -0.0155,-6.156737 -0.12341,-9.38115 -0.30416,-9.088714 -0.15938,0.257896 -2.46767,-0.709537 -2.76097,-1.157153 -0.18573,-0.283477 -0.22742,-1.51568 -0.26135,-7.725542 -0.0387,-7.08072 -0.0521,-7.390518 -0.32062,-7.442193 -0.27241,-0.0524 -0.27857,0.318949 -0.22018,13.306317 0.0623,13.867154 0.0517,13.62959 0.61282,13.641052 0.0618,8.05e-4 0.12752,-1.464455 0.14598,-3.257149 0.0328,-3.178267 0.0347,-3.196925 0.0786,-0.7493 0.0247,1.380583 0.0667,2.510151 0.0932,2.510151 0.0266,0 0.26009,-0.10567 0.51897,-0.234811 0.26373,-0.131564 0.5539,-0.182629 0.65993,-0.116142 0.10407,0.06528 0.30772,0.09919 0.45251,0.07534 0.47978,-0.07896 0.46808,0.403531 -0.022,0.904755 -0.25636,0.26221 -0.47393,0.615675 -0.48349,0.785481 -0.0143,0.252857 -0.0298,0.261269 -0.0859,0.04644 -0.0486,-0.18609 -0.21926,-0.262259 -0.58749,-0.262259 h -0.51894 l 0.0429,1.461131 0.0429,1.461131 1.42367,0.786246 c 0.78302,0.432443 1.44264,0.786487 1.46585,0.786761 0.0232,4.02e-4 0.0357,-2.57894 0.0278,-5.73161 z m -2.62161,2.128933 c -0.11483,-0.185792 0.19339,-0.597927 0.43452,-0.58104 0.10618,0.0072 0.0994,0.03992 -0.0183,0.08742 -0.10303,0.04153 -0.18733,0.169009 -0.18733,0.283187 0,0.132055 0.0908,0.172776 0.24937,0.1119 0.16768,-0.06431 0.21387,-0.03823 0.14104,0.07961 -0.13448,0.217562 -0.48977,0.228404 -0.61926,0.01892 z m -0.65178,-8.535356 c -0.0254,-0.880783 0.0167,-1.348732 0.12114,-1.348732 0.10163,0 0.16005,0.492233 0.16005,1.348732 0,0.741806 -0.0545,1.348732 -0.12115,1.348732 -0.0667,0 -0.13865,-0.606926 -0.16004,-1.348732 z m 0.0107,-2.922254 c 0.003,-0.247271 0.0366,-0.330283 0.0746,-0.184471 0.038,0.145803 0.0355,0.34812 -0.006,0.449572 -0.0411,0.10146 -0.0721,-0.01787 -0.0691,-0.265101 z m 9.7215,14.606014 c 0.22683,-0.121398 0.28987,-0.316937 0.28987,-0.89916 0,-0.492876 0.0633,-0.745557 0.18731,-0.748575 0.10305,-0.0024 0.0679,-0.07405 -0.0779,-0.159004 -0.1459,-0.08494 -0.39878,-0.112061 -0.56197,-0.06029 -0.25518,0.08099 -0.29668,0.229056 -0.29668,1.058156 0,1.026812 0.0122,1.048223 0.45941,0.808856 z m 6.50154,-0.759812 c 0.0871,-0.082 0.04,-0.134076 -0.12124,-0.134076 -0.14499,0 -0.2224,-0.06665 -0.17205,-0.148137 0.0504,-0.08148 0.004,-0.121036 -0.10356,-0.0879 -0.1073,0.03316 -0.42139,0.09954 -0.69796,0.147558 -0.41277,0.07164 -0.4869,0.04572 -0.41381,-0.144677 0.051,-0.132908 0.0257,-0.192883 -0.0592,-0.140434 -0.2618,0.161805 -0.15825,0.528993 0.18903,0.670313 0.36331,0.14784 1.14722,0.05538 1.37872,-0.16265 z m -3.92219,-0.504516 c 0.78876,-0.368597 1.47763,-0.740599 1.53084,-0.826677 0.0532,-0.08608 0.15485,-0.120585 0.22588,-0.07671 0.0711,0.04387 0.17795,8.05e-4 0.23758,-0.09564 0.0677,-0.109582 0.0435,-0.135307 -0.0645,-0.0685 -0.0952,0.05884 -0.17301,0.0355 -0.17301,-0.05176 0,-0.08729 -0.1309,-0.158706 -0.29087,-0.158706 -0.44883,0 -0.54387,-0.317694 -0.18256,-0.610259 0.17797,-0.144104 0.3246,-0.352353 0.32586,-0.462772 0.002,-0.165862 0.0247,-0.165419 0.13114,0.0024 0.0905,0.142745 0.15955,0.153595 0.23198,0.03638 0.37267,-0.602974 -1.97908,0.256431 -2.42,0.884357 -0.0998,0.142045 -0.38637,0.343178 -0.6369,0.446956 -0.38039,0.157555 -0.45555,0.272257 -0.45555,0.695025 0,0.278478 0.0757,0.506327 0.1682,0.506327 0.11621,0 0.11054,0.06946 -0.0183,0.22479 -0.26507,0.319368 -0.20506,0.300146 1.39032,-0.445379 z m -1.0165,0.06938 c -0.13516,-0.218664 0.0505,-0.706188 0.30625,-0.80434 0.29236,-0.11219 0.28288,0.266452 -0.0127,0.511848 -0.18522,0.153716 -0.19276,0.217272 -0.0375,0.315779 0.1368,0.08676 0.14151,0.124006 0.0159,0.125615 -0.0982,8.05e-4 -0.22054,-0.06576 -0.27191,-0.148902 z m -6.21265,-15.233489 -0.0159,-14.001213 -0.53347,-0.742563 c -0.29341,-0.408409 -0.57154,-0.742563 -0.61808,-0.742563 -0.0465,0 -0.0402,2.107393 0.0141,4.683105 0.0543,2.575704 0.11381,8.22353 0.13219,12.550723 0.0185,4.327186 0.0548,9.237576 0.0809,10.911971 l 0.0475,3.04436 0.45429,-0.851299 0.45429,-0.851308 -0.0159,-14.001213 z m 1.46418,14.805964 c 1.04609,-0.483145 2.5607,-1.167689 3.36585,-1.52121 1.40152,-0.615378 1.45319,-0.654577 1.21311,-0.919871 -0.13793,-0.152403 -0.30857,-0.277102 -0.37921,-0.277102 -0.0707,0 -0.60002,0.313597 -1.17643,0.696884 -0.97336,0.647236 -1.06693,0.679747 -1.31369,0.456438 -0.24531,-0.222005 -0.36496,-0.204369 -1.56074,0.230062 -1.16111,0.421818 -1.3312,0.533356 -1.64424,1.078166 -0.41889,0.729024 -0.59255,1.135074 -0.48545,1.135074 0.0434,0 0.93474,-0.395296 1.9808,-0.878441 z m 3.89613,0.499831 c -0.0461,-0.04612 -0.12995,0.03703 -0.18622,0.184826 -0.0813,0.213577 -0.0641,0.230795 0.0839,0.08389 0.10241,-0.101654 0.14847,-0.222577 0.10233,-0.268715 z m 7.65769,-1.263048 0.0254,-1.192087 -0.46919,-0.242627 c -0.25807,-0.133447 -0.49024,-0.220797 -0.51595,-0.194114 -0.085,0.08824 -0.11097,0.48688 -0.093,1.429924 0.0163,0.854125 0.0522,0.950482 0.42989,1.155414 0.22665,0.122968 0.4538,0.226272 0.50474,0.229572 0.051,0.0032 0.10409,-0.530435 0.11808,-1.186082 z m 4.47991,-1.78128 c 0.0414,-0.6943 0.0111,-0.773351 -0.37076,-0.973502 -0.39714,-0.208072 -0.49488,-0.178178 -2.1805,0.666795 l -1.76472,0.884632 v 1.210527 1.210535 l 2.13551,-1.121664 2.13548,-1.121664 z m -3.08497,1.468126 c -0.32809,-0.131709 -0.33275,-0.156364 -0.11084,-0.585491 0.28004,-0.54155 0.73116,-0.807528 1.14619,-0.675811 0.30561,0.097 0.30565,0.09874 0.0115,0.420418 -0.16241,0.177662 -0.34132,0.47475 -0.39755,0.660203 -0.1124,0.370642 -0.15007,0.381122 -0.64935,0.180681 z m 0.62308,-0.637255 c 0.16434,-0.220114 0.25648,-0.442537 0.20474,-0.49427 -0.10678,-0.10678 -0.85995,0.657668 -0.85995,0.872823 0,0.238836 0.34163,0.04145 0.65521,-0.378553 z m 1.21631,-0.161926 c -0.4129,-0.630156 0.0918,-1.714963 0.60115,-1.292211 0.34208,0.283896 0.29461,1.300832 -0.0698,1.495864 -0.24234,0.129688 -0.33661,0.09356 -0.53135,-0.203653 z m 0.65391,-0.404376 c 0.0521,-0.35798 0.0488,-0.358986 -0.25872,-0.08063 -0.17132,0.155028 -0.27317,0.343854 -0.22634,0.419613 0.14672,0.237411 0.42997,0.03944 0.48506,-0.338984 z m -0.20361,-0.739593 c -0.12969,-0.209818 -0.36749,0.07566 -0.37136,0.445846 -0.002,0.182966 0.038,0.179135 0.24022,-0.0231 0.13363,-0.133608 0.1925,-0.323457 0.13114,-0.42276 z m -5.94399,2.92388 c 0.052,-0.296983 0.0505,-0.297039 -0.16956,-0.0056 -0.18886,0.250121 -0.25807,0.264167 -0.46304,0.09405 -0.13257,-0.110001 -0.24102,-0.135557 -0.24102,-0.05675 0,0.453886 0.79369,0.425175 0.87362,-0.03163 z m -0.31516,-0.98593 c -0.0891,-0.98292 -0.14819,-1.123185 -0.4059,-0.963908 -0.12129,0.07494 -0.11743,0.163149 0.0141,0.321582 0.0996,0.120062 0.1698,0.518682 0.15593,0.885814 -0.0157,0.416796 0.0393,0.667512 0.14662,0.667512 0.11949,0 0.14671,-0.277737 0.0893,-0.911 z m -4.44882,0.308518 c 0.32639,-0.166522 0.59346,-0.336481 0.59346,-0.377693 0,-0.06713 -1.18297,0.48523 -1.33624,0.62395 -0.16589,0.15011 0.21026,0.02544 0.74278,-0.246257 z m 3.71243,-0.720903 c 0.0273,-0.274944 -0.0587,-0.613808 -0.20575,-0.810828 -0.18993,-0.254451 -0.22929,-0.269914 -0.15862,-0.0623 0.26236,0.770776 0.26935,0.996757 0.0336,1.087198 -0.32326,0.124046 -0.3073,0.343041 0.0216,0.29588 0.17394,-0.02495 0.27804,-0.19669 0.30911,-0.509957 z m -8.13927,-0.218946 1.04903,-0.63579 -0.002,-2.395168 c 0,-1.317349 -0.0216,-7.233752 -0.0459,-13.14758 l -0.0442,-10.752411 h -0.95342 c -0.52437,0 -1.06957,-0.04459 -1.21154,-0.09905 -0.24274,-0.09315 -0.25257,0.301965 -0.16481,6.631277 0.0514,3.701682 0.0945,9.950437 0.096,13.886117 0.002,3.935681 0.0533,7.154121 0.11508,7.152093 0.0618,-0.0024 0.58446,-0.289796 1.16141,-0.639485 z m 7.71776,0.16954 c 0,-0.165596 -0.10809,-0.158698 -0.45942,0.0293 -0.43077,0.230538 -0.35549,0.467772 0.0848,0.267178 0.20604,-0.09389 0.37464,-0.227318 0.37464,-0.296509 z m 2.39775,-0.425521 c 0,-0.499533 -0.0666,-0.89916 -0.14986,-0.89916 -0.0824,0 -0.14986,0.06745 -0.14986,0.14986 0,0.08242 -0.0653,0.14986 -0.14514,0.14986 -0.0798,0 -0.10634,-0.101154 -0.0589,-0.22479 0.0475,-0.123635 0.2067,-0.22479 0.35392,-0.22479 0.24506,0 0.5387,-0.410412 0.39583,-0.553261 -0.0334,-0.03341 -0.54078,0.153836 -1.12747,0.416159 -1.06419,0.475845 -1.39215,0.886402 -0.70807,0.886402 0.36743,0 0.54055,0.246733 0.54055,0.770397 0,0.162973 0.0669,0.254959 0.14868,0.204418 0.0818,-0.05055 0.26721,-0.02286 0.41212,0.0615 0.44452,0.258862 0.48821,0.192915 0.48821,-0.736631 z m -0.96571,0.01352 c -0.0861,-0.139356 0.0432,-0.612955 0.16737,-0.612955 0.0378,0 0.20355,0.07212 0.3683,0.160316 0.23919,0.128015 0.26371,0.203484 0.12166,0.37465 -0.20136,0.242603 -0.5314,0.281771 -0.65733,0.078 z m 17.02125,-1.256005 c -0.024,-1.087656 -0.0721,-2.006086 -0.10704,-2.040963 -0.0348,-0.03485 -0.0634,0.903184 -0.0634,2.084581 0,1.18139 0.0481,2.099819 0.10701,2.040956 0.0588,-0.05884 0.0874,-0.996918 0.0634,-2.084574 z m 0.39041,-1.111571 c -0.0289,-0.559781 -0.0528,-0.141102 -0.053,0.930391 0,1.071494 0.0233,1.529501 0.0526,1.017781 0.0291,-0.511711 0.0294,-1.38839 0,-1.948172 z m -22.49976,-0.343411 c -0.0393,-0.865434 -0.0757,-6.17607 -0.0809,-11.801423 l -0.01,-10.227917 h -1.04901 -1.049 v 5.295384 c 0,2.912458 0.0447,8.539476 0.0993,12.50448 l 0.0993,7.209097 1.03065,-0.703057 1.03065,-0.70305 z m -1.67665,-9.666372 c 0.42563,-0.459264 0.48672,-0.668334 0.20003,-0.684456 -0.29536,-0.01658 0.37438,-0.26692 0.74556,-0.278647 0.29621,-0.0093 0.32327,0.04379 0.24243,0.476504 -0.12092,0.647261 -0.20577,0.720862 -0.94509,0.820029 l -0.63028,0.08454 z m 0.8593,-0.15308 c 0,-0.275709 -0.30552,-0.232381 -0.46514,0.06592 -0.14571,0.27224 -0.12939,0.292669 0.15082,0.189003 0.1728,-0.06391 0.31424,-0.178636 0.31432,-0.25491 z m 0.0526,-0.52084 c 0.051,-0.08242 0.0212,-0.14986 -0.0661,-0.14986 -0.0873,0 -0.15871,0.06745 -0.15871,0.14986 0,0.08242 0.0298,0.14986 0.0661,0.14986 0.0364,0 0.10778,-0.06745 0.15872,-0.14986 z m -1.61203,0.37465 c -0.0762,-12.050361 -0.0838,-12.301536 -0.38978,-12.962834 -0.18761,-0.40543 -0.28727,-0.524961 -0.2499,-0.29972 0.0342,0.20606 0.10545,6.032771 0.1584,12.948265 0.07,9.146749 0.14376,12.650429 0.27054,12.855482 0.16409,0.265318 0.17766,0.266179 0.2314,0.01457 0.0314,-0.147002 0.0221,-5.797098 -0.0207,-12.555754 z m 10.52865,12.063674 c 0.28848,-0.157933 0.46949,-0.28998 0.40226,-0.293433 -0.0672,-0.0032 -0.25846,0.06665 -0.42495,0.15572 -0.16648,0.0891 -0.33079,0.133906 -0.36512,0.09957 -0.0344,-0.03437 0.37605,-0.291968 0.91199,-0.572531 l 0.97442,-0.510102 0.01,-1.799898 c 0.005,-0.989939 0.002,-3.300357 -0.006,-5.134263 -0.0103,-2.216653 0.0368,-3.334373 0.1403,-3.334373 0.0856,0 0.15571,-0.161483 0.15571,-0.358857 0,-1.048449 1.21524,-3.888971 2.26401,-5.291899 0.64411,-0.861634 0.67679,-0.943052 0.37859,-0.943052 -0.32659,0 -1.25789,1.306345 -2.01003,2.819474 -0.57677,1.16034 -0.71011,1.590136 -0.79043,2.547612 l -0.0966,1.151792 -0.0226,-1.536053 c -0.0125,-0.844836 -0.0556,-1.536061 -0.096,-1.536061 -0.0403,0 -0.51371,0.176286 -1.05191,0.391747 l -0.97857,0.391746 0.0404,6.951402 c 0.0438,7.547083 0.0874,7.177069 -0.7913,6.722684 -0.55843,-0.288773 -0.58578,-0.158577 -0.03,0.142921 0.53797,0.291856 0.75423,0.281851 1.38619,-0.06415 z m -6.12033,-0.487041 0.89204,-0.636901 -0.07,-10.528224 c -0.0385,-5.790531 -0.0127,-10.492889 0.0571,-10.449697 0.0699,0.04322 0.13618,4.443714 0.14731,9.778933 0.0111,5.335219 0.0323,9.995271 0.0469,10.355674 0.0225,0.552255 0.10638,0.716717 0.53349,1.045993 l 0.5068,0.390708 -0.0667,-9.976661 -0.0667,-9.97667 -0.42342,-0.735254 c -0.71113,-1.234852 -0.69017,-1.222754 -1.82447,-1.053229 l -0.9985,0.149224 0.0949,3.755925 c 0.0522,2.065763 0.0957,7.077195 0.0967,11.136511 0,4.059317 0.0424,7.380569 0.0922,7.380569 0.0498,0 0.49185,-0.286599 0.98247,-0.636901 z m -11.51575,0.314394 c 0.4456,-0.235045 1.00993,-0.853593 0.8621,-0.944952 -0.066,-0.04081 -0.23656,0.05449 -0.37897,0.211871 -0.14238,0.157346 -0.34688,0.25231 -0.45443,0.211042 -0.10756,-0.04129 -0.23961,-0.004 -0.29344,0.08332 -0.0616,0.09963 -0.002,0.121761 0.1593,0.05973 0.17447,-0.06697 0.22229,-0.04234 0.14879,0.07663 -0.0596,0.09643 -0.28472,0.17532 -0.50029,0.17532 h -0.39192 l 0.35197,-0.374642 c 0.19357,-0.20606 0.4526,-0.37465 0.5756,-0.37465 0.123,0 0.18182,-0.04186 0.13072,-0.09293 -0.0511,-0.05111 -0.26758,-0.0491 -0.48104,0.0048 -0.43844,0.110041 -0.7223,0.661121 -0.48941,0.950136 0.1871,0.232171 0.34295,0.235173 0.76102,0.01465 z m 10.1839,-10.879469 c -0.0511,-9.104707 -0.0998,-11.151683 -0.27623,-11.617136 -0.1178,-0.310748 -0.21417,-0.615386 -0.21417,-0.676962 0,-0.06158 0.38775,-0.260223 0.86168,-0.441443 1.64684,-0.629713 6.41251,-2.461284 7.41805,-2.850946 0.97193,-0.376638 1.01155,-0.411829 1.01155,-0.898387 0,-0.278527 0.0698,-0.636845 0.15512,-0.796267 0.0853,-0.159431 0.12721,-0.289868 0.0931,-0.289868 -0.0761,0 -4.29021,1.594426 -7.44141,2.815514 -1.27757,0.49505 -2.62629,1.004974 -2.99719,1.133166 l -0.67437,0.233073 0.71182,0.0072 c 0.63789,0.0064 0.71125,0.04218 0.70621,0.344337 -0.003,0.185453 0.0356,5.596319 0.086,12.02416 0.0878,11.199013 0.1247,12.065727 0.51396,12.065727 0.0594,0 0.0801,-4.973456 0.046,-11.052123 z m 6.63928,9.890712 c -0.0418,-0.638768 -0.0783,-3.742532 -0.0812,-6.89723 l -0.005,-5.735836 -0.39967,-0.151961 c -0.2982,-0.113365 -0.43033,-0.102909 -0.52038,0.04121 -0.27112,0.433787 -0.0647,-1.066358 0.27146,-1.973181 0.47046,-1.269061 0.41261,-2.59775 -0.15888,-3.64867 -0.43623,-0.802208 -0.47992,-0.960906 -0.20408,-0.74138 0.1319,0.10497 1.09637,-0.222464 3.25944,-1.106564 4.45057,-1.819054 4.29968,-1.737846 4.37143,-2.352418 l 0.0608,-0.520293 -0.75496,0.301306 c -0.76271,0.304405 -7.75702,3.008775 -8.17299,3.160116 -0.12363,0.045 0.0331,0.07035 0.34824,0.05634 l 0.57303,-0.02552 0.0745,9.44114 c 0.041,5.192628 0.11274,9.542303 0.15943,9.665931 0.0617,0.163382 0.11609,0.122444 0.19917,-0.14986 0.085,-0.278462 0.11812,-0.154658 0.12923,0.482259 0.0135,0.773593 0.0551,0.878643 0.42706,1.080485 0.22666,0.122959 0.43176,0.226271 0.45578,0.229571 0.024,0.0032 0.01,-0.516638 -0.0323,-1.155414 z m -0.92824,-2.809855 c 0,-0.989077 0.0246,-1.374191 0.0539,-0.855823 0.0294,0.518369 0.0291,1.327611 0,1.798312 -0.0296,0.470701 -0.0537,0.0466 -0.0534,-0.942489 z m -0.20706,-6.369026 c 0,-1.840771 0.0299,-3.317011 0.0663,-3.280532 0.10972,0.109727 0.14277,6.418296 0.0342,6.526879 -0.0553,0.0553 -0.10049,-1.405575 -0.10049,-3.246347 z m -2.99719,9.413338 c 0,-0.218221 -0.21485,-0.122484 -0.7493,0.333889 l -0.52451,0.447898 0.6369,-0.329864 c 0.3503,-0.181429 0.63691,-0.384792 0.63691,-0.451923 z m 7.14141,-0.586078 c -0.25891,-0.211742 -0.28573,-0.301708 -0.1355,-0.454474 0.15111,-0.153627 0.18733,-0.141191 0.18733,0.06431 0,0.31309 0.29533,0.32811 0.68319,0.03469 0.28153,-0.212941 0.27915,-0.220169 -0.0741,-0.224782 -0.20074,-0.0024 -0.53793,-0.1565 -0.7493,-0.341954 -0.21136,-0.185453 -0.33432,-0.27595 -0.2732,-0.201109 0.0611,0.07486 0.0502,0.209714 -0.0241,0.29972 -0.20963,0.253574 -0.0123,0.986832 0.26774,0.995082 0.13461,0.004 -0.14299,0.207356 -0.61691,0.451979 -1.17651,0.607264 -1.09489,0.702011 0.098,0.113767 0.9552,-0.471031 0.95821,-0.474492 0.6369,-0.737258 z m -4.7583,0.18811 0.36003,-0.28433 -0.10944,-9.42245 c -0.0602,-5.182349 -0.12103,-9.43355 -0.13523,-9.447121 -0.0141,-0.0136 -0.34611,0.01167 -0.73762,0.0561 l -0.71184,0.08081 v 4.663618 c 1.4e-4,2.564982 0.0447,7.037609 0.0991,9.93916 l 0.0988,5.275551 0.38795,-0.288516 c 0.21338,-0.158682 0.54997,-0.416465 0.74799,-0.572845 z m 11.33781,0.234497 c 0.41372,-0.209649 1.21725,-0.813154 1.78557,-1.341109 l 1.03333,-0.959924 -0.3405,-0.340505 c -0.18727,-0.187281 -0.43443,-0.565279 -0.54922,-0.840006 -0.1689,-0.404263 -0.37018,-0.559927 -1.05568,-0.816399 -0.78236,-0.292725 -0.86738,-0.298416 -1.11471,-0.07462 -0.14728,0.133271 -0.55568,0.327321 -0.90757,0.431228 -0.75495,0.222907 -1.36592,0.06238 -1.8935,-0.497489 l -0.33835,-0.359066 v 1.995034 c 0,1.097267 -0.0434,1.951609 -0.0965,1.898533 -0.053,-0.05305 -0.11878,-1.025283 -0.146,-2.16047 -0.0304,-1.268192 -0.1338,-2.323989 -0.26812,-2.738346 -0.2065,-0.636973 -0.21918,-0.499066 -0.22864,2.487388 l -0.0101,3.16175 0.56197,0.237379 c 0.9374,0.395956 0.98119,0.403965 1.91363,0.349995 0.58504,-0.03389 1.16648,-0.186194 1.65433,-0.433409 z m -2.73476,-3.030701 c 0,-0.494534 0.0288,-0.678781 0.0621,-0.40943 0.0333,0.26935 0.0327,0.673967 -0.002,0.899152 -0.0342,0.225192 -0.0615,0.0048 -0.0606,-0.489722 z m -8.20449,2.806636 c -0.0502,-0.05023 -0.20776,0.03051 -0.35003,0.179513 -0.24729,0.258919 -0.24328,0.262935 0.0913,0.09133 0.19251,-0.09872 0.30893,-0.220604 0.2587,-0.270839 z m 5.91017,0.03944 c 0,-0.333567 -0.0325,-0.355614 -0.28859,-0.1957 -0.26736,0.166988 -0.27012,0.194251 -0.0374,0.371156 0.33245,0.252793 0.32604,0.256247 0.32604,-0.175456 z m -0.31221,-0.4686 c 0.20565,-0.179932 -0.28211,-0.0128 -0.52084,0.178418 -0.2743,0.219751 -0.26951,0.222874 0.0838,0.05465 0.20607,-0.09813 0.40275,-0.203009 0.43709,-0.233048 z m 1.02447,-7.397747 c -0.0485,-4.485135 -0.027,-7.64282 0.0522,-7.64282 0.0746,0 0.14383,1.353465 0.15514,3.034645 0.0113,1.669058 0.0487,2.866063 0.0833,2.660003 0.0345,-0.206051 0.13907,-0.610676 0.23221,-0.899152 0.0931,-0.288483 0.16522,-0.996563 0.16019,-1.573522 -0.009,-1.002761 -0.005,-1.014207 0.0846,-0.25953 l 0.0937,0.789482 0.71588,-1.064161 0.71586,-1.064169 -0.0414,-2.099464 -0.0415,-2.099457 -0.40607,0.319698 c -0.34216,0.269375 -0.38406,0.377644 -0.26616,0.687748 0.16496,0.433876 0.14517,2.230956 -0.0276,2.50306 -0.0659,0.103818 -0.12087,-0.479202 -0.12214,-1.295592 -0.002,-1.474806 -0.004,-1.482614 -0.30202,-1.213119 -0.23567,0.213288 -0.30509,0.482429 -0.3249,1.259571 l -0.0252,0.988321 -0.0872,-0.894958 -0.0872,-0.89495 -0.46008,0.59523 c -1.21668,1.574166 -1.12646,0.900287 -1.11652,8.337885 0.008,5.876109 0.0364,6.665051 0.24801,6.866185 0.21884,0.207959 0.23098,-0.355558 0.143,-6.640108 -0.0631,-4.508501 -0.0453,-6.835928 0.0519,-6.775856 0.0938,0.05795 0.15118,2.595963 0.15661,6.923648 0.005,3.75768 0.045,6.891113 0.0896,6.963186 0.37092,0.600148 0.40512,-0.188094 0.32598,-7.511804 z m 1.40112,-5.852001 0.0153,-0.666877 0.12454,0.52451 c 0.0728,0.306932 0.0665,0.583559 -0.0153,0.666869 -0.0869,0.08849 -0.13407,-0.110001 -0.12453,-0.524502 z m -0.74098,-0.142367 c 0,-0.206059 0.0341,-0.290358 0.0756,-0.187329 0.0415,0.10303 0.0415,0.271621 0,0.37465 -0.0415,0.10303 -0.0756,0.01875 -0.0756,-0.187321 z m -1.3724,-0.7493 c 0,-0.08242 0.0675,-0.14986 0.14985,-0.14986 0.0824,0 0.14986,0.06745 0.14986,0.14986 0,0.08242 -0.0675,0.14986 -0.14986,0.14986 -0.0824,0 -0.14985,-0.06745 -0.14985,-0.14986 z m -1.26311,12.912841 c 0,-0.151108 -0.083,-0.274743 -0.18458,-0.274743 -0.13255,0 -0.14313,0.07743 -0.0375,0.274743 0.0809,0.151108 0.16392,0.274743 0.18458,0.274743 0.0206,0 0.0375,-0.123635 0.0375,-0.274743 z m 0.81352,-5.97439 c 0,-4.34128 -0.0477,-6.201377 -0.15643,-6.092697 -0.10376,0.103762 -0.15315,2.163794 -0.14672,6.118664 0.009,5.455305 0.0382,6.223166 0.23706,6.223166 0.0364,0 0.0661,-2.812108 0.0661,-6.249133 z m 9.96565,5.774021 c -0.16483,-0.09145 -0.40416,-0.241138 -0.53185,-0.332625 -0.12768,-0.09149 -0.0733,-0.01457 0.12075,0.170836 0.19408,0.185446 0.43343,0.335129 0.53187,0.332625 0.0984,-0.0024 0.0441,-0.07936 -0.12077,-0.170836 z m 2.30243,-0.536439 c 0.53972,-0.543691 0.56364,-0.583631 0.10126,-0.169113 -0.33296,0.298488 -0.74024,0.616761 -0.90509,0.707275 -0.16484,0.09051 -0.2104,0.16661 -0.10126,0.169113 0.10916,0.0024 0.51645,-0.31577 0.90509,-0.707275 z m -0.57904,0.08763 c 0,-0.166884 -0.64965,5.96e-4 -0.72151,0.186017 -0.0259,0.06689 -0.16081,0.08534 -0.29974,0.04097 -0.2006,-0.06407 -0.20958,-0.05007 -0.0437,0.06802 0.23943,0.17045 1.06495,-0.05828 1.06495,-0.295035 z m -12.13861,-5.175351 c 0,-3.545729 -0.0502,-5.299738 -0.14898,-5.200999 -0.1583,0.158288 -0.18461,0.515471 -0.10938,1.484482 0.0256,0.329695 -0.006,0.672124 -0.0693,0.760963 -0.0637,0.08884 -0.0506,0.388857 0.029,0.666708 0.0862,0.300541 0.0898,0.53924 0.009,0.589274 -0.0749,0.04628 -0.17553,0.285722 -0.22377,0.532164 -0.0482,0.246443 -0.048,0.363784 0,0.260754 0.0485,-0.10303 0.15011,-0.187321 0.22567,-0.187321 0.20571,0 0.16556,0.411443 -0.05,0.512018 -0.14985,0.06995 -0.14985,0.104905 0,0.174837 0.1405,0.0656 0.1794,0.692979 0.15565,2.510143 l -0.0317,2.422728 -0.0841,-2.397752 -0.0841,-2.397752 -0.0796,1.873242 -0.0796,1.873242 -0.0131,-1.919428 c -0.007,-1.055685 -0.0542,-1.960463 -0.10431,-2.01061 -0.0502,-0.05015 -0.0912,0.86417 -0.0912,2.03182 0,1.315432 0.057,2.123008 0.14986,2.123008 0.0824,0 0.14985,0.198333 0.14985,0.440734 0,0.242402 0.0675,0.482413 0.14986,0.533356 0.0824,0.05095 0.14987,0.22351 0.14987,0.383488 0,0.159986 0.0337,0.290874 0.0749,0.290874 0.0412,0 0.0749,-2.407491 0.0749,-5.349973 z m 11.34488,5.129192 c 0.64184,-0.184085 1.81932,-2.10811 2.22364,-3.633522 0.31112,-1.173726 0.3052,-3.785418 -0.0101,-4.449855 -0.49086,-1.034419 -1.32591,-1.03759 -2.32304,-0.0089 -0.27114,0.27975 -0.54507,0.476448 -0.60874,0.437103 -0.0637,-0.03936 -0.16456,0.0072 -0.22421,0.103916 -0.0716,0.1159 -0.0431,0.135081 0.084,0.0565 0.12828,-0.07928 0.16931,-0.0495 0.12306,0.08923 -0.0382,0.114508 -0.14245,0.208185 -0.23174,0.208185 -0.0893,0 -0.21854,0.06142 -0.28724,0.136426 -0.074,0.08089 -0.0382,0.08613 0.0879,0.01288 0.15188,-0.08817 0.18648,-0.06287 0.12087,0.08837 -0.95686,2.205722 -1.16665,3.299737 -0.98345,5.128491 0.1099,1.097179 0.39765,1.690686 0.92077,1.899177 0.3229,0.12869 0.44919,0.120931 1.10824,-0.0681 z m -0.17073,-2.071035 c 0.0563,-0.147792 0.14008,-0.230964 0.18622,-0.184826 0.0461,0.04612 10e-5,0.167061 -0.10233,0.268715 -0.14801,0.146905 -0.16521,0.129688 -0.0839,-0.08389 z m 1.88178,-2.357241 c 0.22689,-0.671029 0.35463,-0.801289 0.2171,-0.221369 -0.0587,0.247264 -0.17112,0.515471 -0.24994,0.596019 -0.0788,0.08054 -0.0641,-0.08805 0.0328,-0.37465 z m -0.75563,-1.882313 c 0.007,-0.174579 0.0427,-0.210084 0.0905,-0.09054 0.0433,0.108182 0.038,0.237436 -0.0119,0.287228 -0.0498,0.04982 -0.0852,-0.03872 -0.0787,-0.19669 z m 0.76113,-0.06246 c 0,-0.206059 0.034,-0.290351 0.0756,-0.187329 0.0415,0.10303 0.0415,0.27162 0,0.37465 -0.0416,0.10303 -0.0756,0.01875 -0.0756,-0.187321 z m -0.59699,5.960545 c -0.0824,-0.08242 -0.23037,-0.100099 -0.32878,-0.03928 -0.13593,0.08402 -0.13178,0.13971 0.0173,0.231817 0.25563,0.158006 0.50681,0.0024 0.31151,-0.192529 z m -13.04155,-0.004 c -0.11341,-0.113422 -0.22274,-0.121656 -0.32025,-0.02415 -0.0975,0.09753 -0.0387,0.156316 0.17219,0.172205 0.24121,0.01819 0.27777,-0.01835 0.14806,-0.148073 z m 9.79963,-0.272087 c 0.15376,-0.248801 0.0157,-0.2833 -0.1994,-0.04982 -0.10628,0.115321 -0.12712,0.209674 -0.0463,0.209674 0.0808,0 0.19139,-0.07196 0.24571,-0.159825 z m 3.85566,-0.102426 c 0.81994,-0.908312 1.70778,-3.533607 1.28554,-3.801203 -0.33019,-0.209247 -0.35614,-0.172736 -0.57117,0.804019 -0.11341,0.51514 -0.45952,1.419275 -0.76914,2.009193 -0.51226,0.976013 -0.57447,1.25025 -0.28362,1.25025 0.0559,0 0.20819,-0.118018 0.33839,-0.262259 z m -0.34014,-0.187048 c 0,-0.08242 0.0675,-0.14986 0.14987,-0.14986 0.0824,0 0.14986,0.06745 0.14986,0.14986 0,0.08242 -0.0675,0.14986 -0.14986,0.14986 -0.0824,0 -0.14987,-0.06745 -0.14987,-0.14986 z m -13.48734,0.14986 c 0,-0.08242 -0.0714,-0.14986 -0.1587,-0.14986 -0.0873,0 -0.11702,0.06745 -0.0661,0.14986 0.051,0.08242 0.12236,0.14986 0.1587,0.14986 0.0363,0 0.0661,-0.06745 0.0661,-0.14986 z m 9.44114,0.0924 c 0,-0.03163 -0.13497,-0.09274 -0.29993,-0.135878 -0.16496,-0.04314 -0.26213,-0.01731 -0.21594,0.05747 0.0807,0.130518 0.51587,0.196682 0.51587,0.0784 z m 0.14985,-0.302537 c 0,-0.03316 -0.2023,-0.130792 -0.44956,-0.21699 -0.52042,-0.181421 -0.61423,-0.07896 -0.1124,0.122734 0.37956,0.152564 0.56196,0.183159 0.56196,0.09426 z m -9.86864,-0.859912 c -0.10266,-0.356749 -0.14884,-0.408787 -0.1584,-0.178556 -0.0151,0.364484 0.13867,0.846647 0.23832,0.74699 0.0357,-0.03574 0,-0.291526 -0.0799,-0.568434 z m 9.78623,0.481205 c -0.0783,-0.07655 -0.34468,-0.178346 -0.59196,-0.226142 -0.42073,-0.08131 -0.41592,-0.07309 0.0749,0.127861 0.6449,0.26403 0.69649,0.273834 0.51701,0.09828 z m 5.47735,-0.663656 c 0,-0.190404 -0.0692,-0.105389 -0.28769,0.353335 -0.16823,0.353264 -0.16511,0.358045 0.0547,0.08375 0.12817,-0.159986 0.23305,-0.356684 0.23305,-0.437087 z m -8.74423,0.17024 c 0.20957,-0.209569 0.13529,-0.264328 -0.76493,-0.563903 -1.19785,-0.39862 -1.51374,-0.706349 -1.72203,-1.677517 -0.50284,-2.34466 0.22756,-4.811321 1.8447,-6.229864 0.64619,-0.566841 1.0057,-0.600011 1.97942,-0.182628 0.39059,0.167431 0.76469,0.285449 0.83133,0.262259 0.26885,-0.09356 -0.52707,-1.01828 -1.126,-1.308221 -0.88063,-0.426301 -1.43777,-0.287807 -2.31438,0.575285 -1.47266,1.449991 -2.22168,3.652888 -2.08504,6.132323 0.093,1.687265 0.32294,2.348129 1.02175,2.936131 0.44388,0.373515 0.5911,0.413624 1.30179,0.354688 0.44323,-0.03679 0.905,-0.170168 1.03339,-0.298553 z m 3.28349,0.04797 c -0.11216,-0.181493 -0.9832,-0.478814 -0.9832,-0.335611 0,0.06222 0.18544,0.186411 0.41211,0.275983 0.53451,0.211211 0.67375,0.225748 0.57109,0.05964 z m -0.0167,-0.593741 c -0.0783,-0.07115 -0.36153,-0.202542 -0.62941,-0.291928 -0.55849,-0.186355 -0.69088,0.04934 -0.14986,0.266807 0.44124,0.177356 0.96534,0.194259 0.77927,0.02511 z m -1.86575,-0.470033 c -0.12364,-0.07993 -0.29224,-0.145272 -0.37466,-0.145272 -0.0824,0 -0.0487,0.06536 0.0749,0.145272 0.12365,0.07993 0.29224,0.145272 0.37466,0.145272 0.0824,0 0.0487,-0.06536 -0.0749,-0.145272 z m 1.79831,-0.04974 c 0,-0.109807 -0.23603,-0.272087 -0.52451,-0.36062 -0.67148,-0.206084 -0.69983,0.04894 -0.0374,0.336843 0.60456,0.262774 0.56197,0.260971 0.56197,0.02374 z m -1.2813,-0.08964 c -0.12969,-0.127024 -1.41403,-0.630534 -3.48163,-1.364919 -0.43542,-0.154657 -0.755,-0.221884 -0.71019,-0.149393 0.0447,0.07244 0.5022,0.272127 1.01644,0.44364 0.51424,0.17152 1.44075,0.511639 2.05893,0.75582 1.25184,0.494478 1.3193,0.513506 1.11645,0.314852 z m 0.0824,-0.426117 c 0,-0.147437 -4.3501,-1.728131 -4.45825,-1.61999 -0.0443,0.04427 0.0473,0.129923 0.20327,0.190396 1.47499,0.571614 4.05331,1.527191 4.14258,1.535321 0.0618,0.0056 0.1124,-0.04194 0.1124,-0.105727 z m 1.34873,-0.251279 c 0,-0.10984 -0.16232,-0.240438 -0.36074,-0.290238 -0.19839,-0.04982 -0.46814,-0.131758 -0.59942,-0.182138 -0.47848,-0.18361 -0.24022,0.403877 0.24684,0.608673 0.52051,0.218857 0.71332,0.182016 0.71332,-0.136297 z m -4.7955,-0.232188 c -0.12363,-0.07993 -0.29222,-0.145272 -0.37464,-0.145272 -0.0824,0 -0.0487,0.06536 0.0749,0.145272 0.12362,0.07993 0.29222,0.145264 0.37464,0.145264 0.0824,0 0.0487,-0.06536 -0.0749,-0.145264 z m 3.44677,-0.07494 c 0,-0.123635 -0.0843,-0.226601 -0.18733,-0.228814 -0.10302,-0.0024 -1.11457,-0.363913 -2.24789,-0.803793 -1.35318,-0.525219 -2.06056,-0.73412 -2.06056,-0.60852 0,0.105187 0.45519,0.363285 1.01156,0.573546 1.29004,0.48754 3.39785,1.272627 3.44675,1.283807 0.0206,0.0048 0.0375,-0.0926 0.0375,-0.216226 z m 1.50094,-0.861691 c 0.21233,-0.917287 0.9167,-2.387352 1.44431,-3.014393 0.2027,-0.24088 0.31416,-0.482912 0.2477,-0.537839 -0.24374,-0.20144 -0.91775,-0.433868 -1.00504,-0.346583 -0.18737,0.187369 -0.0741,0.305854 0.39715,0.415452 0.31841,0.07405 0.39897,0.135701 0.23265,0.178064 -0.13992,0.03566 -0.39127,-0.0085 -0.55855,-0.09797 -0.26491,-0.141778 -0.36192,-0.083 -0.75227,0.455867 -0.49924,0.689188 -1.04983,2.032624 -1.16318,2.838212 -0.0663,0.471232 -0.0285,0.54572 0.35298,0.695893 0.23499,0.09249 0.47111,0.175344 0.52469,0.18411 0.0536,0.0088 0.1794,-0.338099 0.27956,-0.770816 z m -0.63925,-0.06585 c -0.14423,-0.03767 -0.26226,-0.1334 -0.26226,-0.212676 0,-0.08301 0.14301,-0.06971 0.33719,0.03131 0.56202,0.292412 0.54134,0.342437 -0.0749,0.181389 z m 1.01155,-2.893881 c -0.11721,-0.189663 0.0812,-0.189663 0.37465,0 0.19372,0.125189 0.18976,0.145586 -0.0287,0.147566 -0.13939,8.05e-4 -0.29508,-0.06512 -0.34603,-0.147566 z m -1.80881,3.31388 c 0.1366,-0.221007 -0.20071,-0.40221 -2.35815,-1.266807 -1.6801,-0.6733 -2.08492,-0.787454 -2.15401,-0.607409 -0.0468,0.121937 -0.0517,0.254983 -0.0111,0.295639 0.0807,0.08066 4.1691,1.683917 4.33765,1.700973 0.057,0.0056 0.14049,-0.04934 0.18567,-0.122396 z m 6.96681,-1.238571 c -0.0815,-0.152347 -0.21332,-0.276997 -0.29284,-0.276997 -0.23414,0 -0.16575,0.324174 0.11767,0.557681 0.24976,0.205794 0.24976,0.212153 0,0.133617 -0.18619,-0.05852 -0.26226,-3.95e-4 -0.26226,0.200071 0,0.155389 0.0843,0.31131 0.18733,0.346494 0.25262,0.08627 0.43516,-0.615048 0.2501,-0.960866 z m -15.22645,-0.72277 c 0.15544,-0.199909 0.14483,-0.202783 -0.0845,-0.02294 -0.19665,0.154231 -0.25551,0.397872 -0.23524,0.974082 l 0.027,0.768417 0.0575,-0.745493 c 0.0316,-0.410018 0.1375,-0.848361 0.23526,-0.974082 z m 9.28347,-1.082544 c 0.22764,-0.387248 0.48052,-0.745268 0.56197,-0.795608 0.33176,-0.205037 0.0778,-0.378674 -1.38798,-0.949218 -0.84483,-0.328834 -1.78533,-0.704128 -2.09001,-0.833985 -0.30468,-0.129866 -0.58957,-0.178483 -0.6331,-0.108045 -0.0708,0.114573 2.21946,1.141119 3.47241,1.556418 0.26787,0.08879 0.48704,0.218455 0.48704,0.288153 0,0.06971 -0.25289,0.01884 -0.56197,-0.112987 -0.30909,-0.131845 -1.25261,-0.514633 -2.09672,-0.850639 -1.49916,-0.596744 -1.54184,-0.604519 -1.83948,-0.335169 -0.39751,0.359751 -1.19714,1.989988 -1.23884,2.525646 -0.0316,0.405141 0.0371,0.446489 2.14024,1.289691 l 2.17278,0.871125 0.29989,-0.920643 c 0.16494,-0.506359 0.48612,-1.237492 0.71377,-1.624739 z m -3.11136,1.009216 c -0.24727,-0.11322 -0.34843,-0.208941 -0.22478,-0.212716 0.12363,-0.004 0.39337,0.08951 0.59942,0.207307 0.47705,0.272707 0.21729,0.276458 -0.37464,0.0056 z m 8.89743,0.05699 c -0.12403,-0.07703 -0.22771,-0.06327 -0.26132,0.03469 -0.0307,0.08931 0.0368,0.219864 0.14987,0.290109 0.12401,0.07703 0.22768,0.06327 0.26131,-0.03469 0.0307,-0.08931 -0.0368,-0.219864 -0.14986,-0.290117 z m 0.42129,-0.315288 c -0.0478,-0.119546 -0.0833,-0.08403 -0.0906,0.09055 -0.006,0.157973 0.0289,0.246482 0.0787,0.19669 0.0498,-0.04982 0.0551,-0.179054 0.0118,-0.287236 z m -33.75806,0.087 c 0.17826,-0.06842 0.23706,-0.305419 0.23706,-0.955738 0,-0.904738 -0.0985,-1.075107 -0.76851,-1.329856 -0.35706,-0.135758 -0.37895,-0.119467 -0.31175,0.232058 0.0427,0.223373 -0.01,0.428821 -0.12842,0.502101 -0.28663,0.177155 -0.43979,0.03509 -0.43979,-0.407893 0,-0.34065 0.0282,-0.360862 0.24886,-0.178483 0.22783,0.188279 0.23111,0.177131 0.0386,-0.131854 -0.22389,-0.359542 -1.07899,-0.720806 -1.3336,-0.563436 -0.19873,0.122815 -0.19766,1.361361 0.002,1.733492 0.19906,0.371937 1.07344,0.846502 1.03527,0.56189 -0.0617,-0.460092 0.0246,-0.720049 0.23878,-0.720049 0.31557,0 0.44387,0.404738 0.21551,0.679892 -0.10338,0.124577 -0.16152,0.241734 -0.12915,0.260351 0.0323,0.01859 0.19368,0.11417 0.35852,0.212354 0.35823,0.213352 0.42886,0.22343 0.73704,0.105171 z m 33.50584,-0.05892 c 0,-0.08242 -0.15174,-0.148822 -0.33719,-0.147566 -0.27267,0.0016 -0.29417,0.0301 -0.1124,0.147566 0.29055,0.187764 0.44959,0.187764 0.44959,0 z m -14.98824,-0.495887 c 0.002,-0.06665 -0.0651,-0.07953 -0.14757,-0.02866 -0.0824,0.05095 -0.14882,0.206655 -0.14757,0.346035 0.002,0.218383 0.0224,0.222335 0.14757,0.02866 0.0799,-0.123636 0.1463,-0.279347 0.14757,-0.346027 z m 14.76343,0.04628 c -0.051,-0.08242 -0.17292,-0.148822 -0.27109,-0.147566 -0.10724,0.0016 -0.0888,0.06029 0.0463,0.147566 0.28791,0.186057 0.33976,0.186057 0.22478,0 z M 175.94328,29.92426 c 0,-0.0223 -0.0867,-0.112503 -0.19268,-0.200449 -0.14506,-0.120392 -0.19267,-0.09211 -0.19267,0.114484 0,0.162006 0.079,0.244108 0.19267,0.200449 0.10599,-0.04065 0.19268,-0.09218 0.19268,-0.114484 z m -0.0423,-1.38645 c -0.0344,-0.227801 -0.0635,-0.07703 -0.0647,0.33512 -0.002,0.412111 0.0271,0.59849 0.0626,0.414172 0.0356,-0.184311 0.0366,-0.5215 0.002,-0.749292 z m 11.80627,0.55991 c 0.1492,-0.164847 0.23754,-0.29972 0.19634,-0.29972 -0.0412,0 -0.197,0.134873 -0.34619,0.29972 -0.14917,0.164848 -0.23751,0.29972 -0.19631,0.29972 0.0412,0 0.19699,-0.134872 0.34616,-0.29972 z m -0.29058,-0.284958 c -0.11551,-0.18691 -0.9832,-0.476689 -0.9832,-0.328359 0,0.06624 0.21915,0.190694 0.48704,0.276619 0.26788,0.08593 0.50788,0.163125 0.53336,0.171537 0.0255,0.0085 0.009,-0.04548 -0.0372,-0.119797 z m 2.91314,0.0093 c 0,-0.201222 -0.72021,-0.473631 -1.25221,-0.473631 -0.26886,0 -0.61973,0.104873 -0.77972,0.233056 -0.281,0.225129 -0.27977,0.227672 0.0365,0.07494 0.4684,-0.22628 1.28993,-0.195073 1.62965,0.0619 0.34531,0.26118 0.36584,0.266992 0.36584,0.103754 z m -5.07751,-0.522007 c -0.56857,-0.216048 -0.7303,-0.336625 -0.58825,-0.438625 0.13742,-0.09868 0.10857,-0.112012 -0.0967,-0.04467 -0.305,0.100076 -2.07044,-0.480553 -1.96794,-0.647228 0.0321,-0.05216 -0.13739,-0.10901 -0.37662,-0.1263 -0.23925,-0.01731 -0.43499,-0.0064 -0.43499,0.02487 0,0.03099 0.79238,0.366062 1.76086,0.744672 0.96846,0.378602 1.85876,0.750716 1.97848,0.826934 0.11969,0.07623 0.28326,0.09801 0.36345,0.04846 0.0802,-0.04958 -0.20701,-0.224211 -0.63831,-0.388085 z m -27.44138,-6.133289 c -0.002,-3.564773 -0.0465,-7.170396 -0.0989,-8.012496 l -0.0951,-1.53107 -0.9898,-0.31631 c -0.54438,-0.173967 -1.17524,-0.375012 -1.40191,-0.446762 l -0.41211,-0.130462 v 2.769883 2.769874 l 0.3165,-0.169395 c 0.17409,-0.09316 0.47918,-0.138301 0.67794,-0.100301 0.1988,0.03799 0.39956,0.0072 0.44614,-0.06793 0.10415,-0.16851 0.50758,0.143332 0.50758,0.392334 0,0.211034 -0.68694,0.876638 -1.15054,1.114782 -0.17949,0.0922 -0.43238,0.126944 -0.56197,0.07719 -0.20908,-0.08025 -0.23565,0.223872 -0.23565,2.698011 0,2.556611 0.0218,2.788235 0.26225,2.786134 0.14424,-8.05e-4 0.33713,-0.05184 0.42867,-0.112391 0.25447,-0.168357 0.68678,-1.084195 0.5118,-1.084195 -0.0846,0 -0.15371,-0.05272 -0.15371,-0.117212 0,-0.06448 0.2529,-0.115048 0.56197,-0.112399 0.47728,0.004 0.55455,0.04998 0.51267,0.304541 -0.11667,0.709255 -0.94191,1.27381 -1.86203,1.27381 -0.19154,0 -0.22675,0.277271 -0.21974,1.729773 0.007,1.421763 0.0459,1.715389 0.21893,1.648975 0.24491,-0.09398 1.71298,0.354833 1.6253,0.496886 -0.0324,0.05256 0.11938,0.106378 0.33742,0.119506 0.21805,0.01312 0.46411,0.131138 0.54683,0.262251 0.0827,0.131113 0.16855,0.238385 0.19078,0.238385 0.0222,0 0.0387,-2.916636 0.0366,-6.481417 z m -2.51074,-2.617809 c -0.10302,-0.03695 -0.18733,-0.162707 -0.18733,-0.279468 0,-0.243014 0.52499,-0.811738 0.7493,-0.811738 0.27116,0 0.15625,0.263088 -0.14985,0.343137 -0.16484,0.04314 -0.29972,0.190396 -0.29972,0.327297 0,0.180721 0.0821,0.222858 0.29972,0.153788 0.16483,-0.05232 0.2997,-0.05924 0.2997,-0.01537 0,0.144387 -0.52064,0.350905 -0.71182,0.28235 z m 32.63188,9.026308 c 0,-0.06504 -1.00116,-0.526514 -1.14225,-0.526514 -0.22029,0 0.0181,0.271379 0.35548,0.404706 0.45958,0.181598 0.78677,0.232252 0.78677,0.121808 z m 2.27708,-4.081338 c -0.0252,-2.202559 -0.0624,-4.0213 -0.0828,-4.041657 -0.0204,-0.02036 -0.4381,0.126324 -0.92833,0.325929 l -0.89135,0.362914 0.0196,2.217482 c 0.0107,1.219607 0.0276,2.658272 0.0375,3.197022 l 0.0179,0.979547 0.93663,0.472585 c 0.51513,0.259924 0.93662,0.476689 0.93662,0.481712 0,0.0048 -0.0206,-1.792975 -0.0457,-3.995534 z m -3.367,3.404964 c 0.20959,-0.164847 0.53655,-0.29972 0.72663,-0.29972 0.38219,0 0.60375,-0.226037 0.36574,-0.373137 -0.0838,-0.05176 -0.1523,-0.244575 -0.1523,-0.42845 0,-0.554011 -0.40923,-1.948985 -0.8468,-2.886556 -0.22653,-0.485415 -0.44311,-0.950007 -0.48128,-1.032431 -0.0382,-0.08242 0.0583,-0.0487 0.21435,0.07494 0.36904,0.292355 -0.54631,-0.877685 -1.00687,-1.287027 -1.37148,-1.218971 -3.52994,-1.65378 -5.0582,-1.01894 -0.63539,0.263941 -0.537,0.419879 0.12035,0.190726 0.73588,-0.256528 2.95047,-0.09878 3.77065,0.268578 0.68495,0.306795 2.05837,1.477575 1.90879,1.627161 -0.0438,0.04379 -0.31791,-0.158641 -0.60914,-0.449869 -0.29122,-0.29122 -0.60015,-0.529501 -0.68652,-0.529501 -0.0864,0 -0.18324,0.320326 -0.21528,0.711831 -0.0583,0.711485 -0.0583,0.711437 -0.0546,-0.09344 0.003,-0.724452 -0.0369,-0.826564 -0.40113,-1.017371 -0.54625,-0.286221 -2.17348,-0.418735 -2.68619,-0.218761 -0.39268,0.153168 -0.4135,0.212153 -0.44187,1.250934 l -0.0298,1.090192 -0.0516,-1.080331 -0.0516,-1.080332 -0.36822,0.167762 c -0.36707,0.167254 -0.3682,0.174643 -0.3682,2.402485 v 2.234707 l 0.38986,-0.306658 c 1.13353,-0.891642 2.75178,-0.271387 3.43567,1.316849 0.10528,0.244518 0.43698,0.464117 1.049,0.694501 1.13703,0.428008 1.07923,0.425295 1.52852,0.07188 z m -2.5487,-2.789402 c -0.36491,-0.364926 0.32702,-1.406662 0.93433,-1.406662 0.36865,0 0.40122,0.334299 0.0601,0.617374 -0.22061,0.183095 -0.23435,0.165403 -0.13124,-0.168969 l 0.11516,-0.373475 -0.39326,0.363309 c -0.5616,0.518819 -0.52284,0.824021 0.0891,0.701632 0.3048,-0.06093 0.42892,-0.04419 0.33718,0.04556 -0.20596,0.201536 -0.88297,0.349609 -1.01139,0.2212 z m -3.07585,-0.432572 c 0.003,-0.247271 0.0366,-0.330283 0.0746,-0.184479 0.038,0.145811 0.0355,0.348119 -0.006,0.44958 -0.0411,0.10146 -0.0721,-0.01787 -0.0691,-0.265101 z m 2.41992,-2.247892 c 0,-0.659382 0.0269,-0.910493 0.0585,-0.558011 0.0316,0.352475 0.0312,0.891964 -0.002,1.198872 -0.0322,0.306908 -0.0581,0.01851 -0.0576,-0.640861 z m 2.51989,0.824222 c 0,-0.206051 0.034,-0.290351 0.0756,-0.187321 0.0416,0.10303 0.0416,0.27162 0,0.37465 -0.0415,0.10303 -0.0756,0.01876 -0.0756,-0.187329 z m -3.89634,-1.798312 c 0,-0.206051 0.034,-0.290351 0.0756,-0.187321 0.0416,0.10303 0.0416,0.27162 0,0.37465 -0.0415,0.10303 -0.0756,0.01875 -0.0756,-0.187329 z m 5.37127,6.593816 c -0.12363,-0.07993 -0.29222,-0.145272 -0.37464,-0.145272 -0.0824,0 -0.0487,0.06536 0.0749,0.145272 0.12363,0.07993 0.29222,0.145264 0.37464,0.145264 0.0824,0 0.0487,-0.06536 -0.0749,-0.145264 z m -15.06086,-1.04902 c -0.051,-0.08242 -0.20666,-0.148822 -0.34602,-0.147566 -0.21839,0.0016 -0.22234,0.02238 -0.0287,0.147566 0.29349,0.189663 0.49187,0.189663 0.37466,0 z m 1.53549,-0.267459 c 0.34999,-0.141376 0.63661,-0.303833 0.6369,-0.361014 0,-0.05715 -0.30607,0.03171 -0.68084,0.197455 -0.3748,0.165789 -0.7579,0.275942 -0.85137,0.244784 -0.0935,-0.03115 0.23003,-0.215646 0.71888,-0.409986 0.48886,-0.19434 0.91719,-0.375986 0.95186,-0.40366 0.0347,-0.02769 -0.0974,-0.221039 -0.29337,-0.429698 -0.3263,-0.347315 -0.35271,-0.48659 -0.31256,-1.647864 l 0.0439,-1.268474 h -0.91187 -0.91187 l 0.006,0.561971 c 0.006,0.526289 0.056,0.585765 0.78067,0.936621 0.42561,0.206052 0.80442,0.475804 0.84179,0.599432 0.0561,0.185671 0.0279,0.191764 -0.16203,0.03501 -0.19838,-0.163672 -0.27678,-0.06463 -0.57047,0.720677 -0.18725,0.500733 -0.3591,1.080195 -0.3819,1.287687 -0.0451,0.411612 -0.085,0.413898 1.09557,-0.06294 z m 1.38447,-0.207098 c 0.002,-0.137367 0.0529,-0.27224 0.11469,-0.299712 0.0618,-0.02745 0.24551,-0.319706 0.40817,-0.649393 0.39386,-0.798199 0.8594,-1.443262 1.92494,-2.667223 0.4878,-0.560329 0.85389,-1.051805 0.81351,-1.092164 -0.11138,-0.111393 -1.9899,1.966846 -2.2802,2.522636 -0.14004,0.268102 -0.48447,0.925794 -0.7654,1.461541 -0.28096,0.535747 -0.51029,1.075236 -0.50968,1.198872 0.002,0.199813 0.0173,0.199813 0.1464,0 0.0799,-0.123636 0.14632,-0.337181 0.14757,-0.474557 z m 12.59049,-2.397744 c 0,-1.662192 -0.0361,-2.985995 -0.0804,-2.941797 -0.0442,0.04419 -0.0814,1.083857 -0.0828,2.310338 -0.003,3.273859 0.006,3.65362 0.0882,3.65362 0.0412,0 0.0749,-1.359969 0.0749,-3.022161 z m -14.95857,1.520325 0.40203,-1.198365 -0.44219,-0.228661 c -0.34986,-0.180922 -0.45626,-0.188456 -0.50963,-0.03606 -0.0371,0.105912 -0.23052,0.649635 -0.4298,1.208282 l -0.36234,1.01572 0.39503,0.214624 c 0.21725,0.118042 0.42874,0.216475 0.46995,0.218745 0.0412,0.0024 0.25584,-0.535135 0.47695,-1.194243 z m 3.31071,-1.710423 c 0.23022,-0.328624 0.24882,-0.400777 0.0654,-0.253622 -0.15211,0.12201 -0.2564,0.140845 -0.2564,0.04628 0,-0.157796 0.28187,-0.395119 0.47455,-0.399546 0.055,-8.05e-4 0.15611,-0.06367 0.2248,-0.138712 0.0725,-0.07929 0.0464,-0.09125 -0.0625,-0.02866 -0.31631,0.182025 -0.20832,-0.09637 0.20453,-0.527279 0.2155,-0.224959 0.4684,-0.391433 0.56197,-0.369949 0.0936,0.02149 0.11673,0.0098 0.0514,-0.02592 -0.0653,-0.03574 -0.0437,-0.155253 0.0479,-0.265639 0.13344,-0.160791 -2.45917,0.876767 -2.69074,1.07683 -0.13359,0.115409 0.81091,0.955552 0.99488,0.884953 0.26474,-0.101589 0.24237,0.02503 -0.0871,0.49282 -0.39033,0.554228 -0.91886,1.621061 -0.91799,1.852942 0,0.106306 0.24074,-0.274397 0.53407,-0.846011 0.29334,-0.571622 0.67813,-1.245984 0.8551,-1.498592 z m -1.02143,1.036303 0.39697,-0.677356 -0.29315,-0.409125 c -0.16122,-0.225008 -0.46833,-0.572604 -0.68244,-0.772418 l -0.3893,-0.363308 v 1.17573 c 0,0.88373 0.0616,1.243795 0.24803,1.44979 0.13641,0.150729 0.26486,0.274051 0.28546,0.274051 0.0206,0 0.21611,-0.304815 0.43443,-0.677364 z m 12.09808,-0.560949 c -0.14532,-0.382844 -0.31823,-0.749759 -0.38421,-0.81536 -0.066,-0.0656 0.0208,0.25161 0.19283,0.704941 0.17207,0.453323 0.31291,0.852322 0.31294,0.886668 4e-5,0.03437 0.0321,0.03035 0.0714,-0.0089 0.0392,-0.0392 -0.0477,-0.384543 -0.19293,-0.767387 z m -31.08582,-0.89718 c 0.22416,-0.280184 0.37561,-0.861691 0.22441,-0.861691 -0.0727,0 -0.24476,0.236027 -0.38231,0.524502 -0.24273,0.508999 -0.14555,0.716492 0.1579,0.337189 z M 187.2923,21.41295 c -0.0315,-0.347814 -0.0567,-0.02544 -0.0563,0.716355 0,0.741798 0.0262,1.02637 0.0572,0.632377 0.031,-0.393992 0.0306,-1.000926 0,-1.348732 z m 0.37333,0.317155 c 0.0254,-0.631677 -0.006,-1.116609 -0.0684,-1.077635 -0.0631,0.03896 -0.10548,0.69067 -0.0942,1.448212 0.0227,1.534001 0.0925,1.375085 0.1627,-0.370577 z m -7.98923,0.17367 c 0.19865,-0.165484 0.32862,-0.333463 0.2888,-0.373274 -0.0398,-0.03984 -0.2164,0.06174 -0.3924,0.225732 -0.17601,0.163978 -0.35938,0.298142 -0.40749,0.298142 -0.15514,0 -0.73584,0.599102 -0.59022,0.60893 0.0774,0.0048 -0.0155,0.07212 -0.20616,0.148596 -0.19767,0.07928 -0.30265,0.210535 -0.24414,0.305218 0.0651,0.105364 0.3016,-0.03115 0.64653,-0.373169 0.29912,-0.296613 0.7064,-0.6747 0.90508,-0.840175 z m -2.00968,-0.187788 c 0.24727,-0.08637 0.62905,-0.281924 0.84839,-0.434561 0.61206,-0.425931 1.96155,-1.022264 2.31703,-1.023906 0.23224,-8.05e-4 0.41939,-0.206124 0.69335,-0.759692 0.20638,-0.417029 0.29927,-0.726271 0.20642,-0.6872 -1.26638,0.532801 -4.90865,2.030942 -5.71364,2.350125 -0.57695,0.228774 -1.48735,0.617293 -2.02309,0.863365 l -0.9741,0.447415 0.64562,-0.07961 c 0.5384,-0.06641 0.6821,-0.02753 0.86517,0.23383 l 0.21954,0.313443 1.23288,-0.533074 c 0.67807,-0.2932 1.43518,-0.603746 1.68243,-0.690122 z m -2.62253,-0.445894 c 1.27754,-0.531657 3.28379,-1.360637 4.45831,-1.842188 1.17453,-0.481543 2.13551,-0.913963 2.13551,-0.96093 0,-0.120754 -2.12548,-0.930906 -2.2129,-0.843475 -0.0396,0.0396 -0.0341,0.170715 0.0122,0.291332 0.0523,0.136249 0.40059,0.258847 0.91966,0.323699 0.45952,0.05739 0.87684,0.171311 0.92741,0.253107 0.0599,0.0969 -0.1366,0.104736 -0.56396,0.02246 -1.02246,-0.196811 -1.7899,-0.137206 -2.60405,0.202253 -0.41211,0.171826 -1.92943,0.79741 -3.37183,1.390177 -1.4424,0.592767 -2.67886,1.130905 -2.74769,1.195862 -0.17463,0.164799 0.33028,1.091946 0.54739,1.00516 0.0975,-0.03896 1.22247,-0.505812 2.50001,-1.03747 z m 4.51013,0.227463 c 0.23937,-0.141409 0.43522,-0.351976 0.43522,-0.467925 0,-0.179223 -0.039,-0.179996 -0.26029,-0.0048 -0.90406,0.714302 -0.99371,0.956736 -0.17493,0.473076 z m 1.03466,-0.192481 c 0.12365,-0.07993 0.15737,-0.145272 0.0749,-0.145272 -0.0824,0 -0.25101,0.06536 -0.37464,0.145272 -0.12363,0.07993 -0.15735,0.145272 -0.0749,0.145272 0.0824,0 0.25102,-0.06536 0.37464,-0.145272 z m 8.66061,-0.82654 c 0.35371,-0.142994 0.61533,-0.287783 0.58136,-0.321743 -0.034,-0.03397 -0.42452,0.110387 -0.8679,0.320777 -0.87467,0.415025 -0.73884,0.415492 0.28654,8.05e-4 z M 178.1538,17.141264 c 1.13142,-0.403337 1.31957,-0.546774 0.7493,-0.571195 -0.18546,-0.008 -0.64065,-0.03316 -1.01156,-0.05602 -0.55702,-0.03437 -1.37154,0.230731 -4.68072,1.523126 -2.20348,0.86058 -4.04652,1.604866 -4.09563,1.653982 -0.0491,0.0491 0.0196,0.255586 0.15285,0.458845 l 0.24213,0.369547 3.77858,-1.495502 c 2.0782,-0.822523 4.26748,-1.66979 4.86505,-1.882812 z m 10.30622,2.295986 c 0.3987,-1.05925 0.36017,-1.270985 -0.2323,-1.276925 -0.19537,-0.0016 -1.04497,1.610645 -1.04491,1.983339 4e-5,0.280531 0.2772,0.07268 0.36395,-0.2729 0.13879,-0.552988 0.46904,-0.360459 0.41825,0.243834 -0.0562,0.668559 0.0357,0.542726 0.49501,-0.677348 z m -0.72524,0.640853 c -0.0478,-0.119546 -0.0833,-0.08404 -0.0905,0.09054 -0.006,0.157973 0.0289,0.24649 0.0787,0.19669 0.0498,-0.04983 0.0551,-0.179046 0.0119,-0.287228 z m 1.79527,-0.06665 c 0.27505,-0.114927 0.49813,-0.258629 0.4957,-0.319336 -0.005,-0.120963 -0.85194,-1.084469 -0.95347,-1.084469 -0.0346,0 -0.16333,0.2866 -0.28598,0.636901 -0.12268,0.350293 -0.27409,0.762694 -0.3365,0.91645 -0.1245,0.306779 0.0439,0.283461 1.08025,-0.149546 z m -7.44245,-0.05506 c -0.29053,-0.187763 -0.44956,-0.187763 -0.44956,0 0,0.08242 0.15172,0.14883 0.33718,0.147566 0.27265,-0.0016 0.29416,-0.0301 0.11238,-0.147566 z m 0,-0.608286 c 0,-0.169709 -0.0675,-0.266879 -0.14985,-0.215944 -0.0824,0.05095 -0.14986,0.189792 -0.14986,0.308566 0,0.118766 0.0675,0.215944 0.14986,0.215944 0.0824,0 0.14985,-0.138856 0.14985,-0.308566 z m -7.11832,-2.211453 c 1.72734,-0.675473 2.23788,-0.935784 2.2047,-1.124039 -0.0237,-0.134751 0.0654,-0.455045 0.19818,-0.711758 0.2396,-0.463352 0.23881,-0.46596 -0.10666,-0.356523 -1.17681,0.37275 -9.71118,3.667811 -9.36152,3.614396 0.35695,-0.05449 0.47564,0.01594 0.71769,0.426205 l 0.29001,0.491525 1.90485,-0.730377 c 1.04768,-0.401703 2.91642,-1.125946 4.15275,-1.609429 z m -6.78156,0.878989 c 2.46485,-0.920732 8.12355,-3.05835 8.72975,-3.297725 0.51631,-0.203895 0.50125,-0.21786 -0.90599,-0.8402 l -0.81741,-0.361498 v 0.372759 c 0,0.328182 0.0672,0.374545 0.56199,0.387698 0.30906,0.0082 0.73056,0.07421 0.9366,0.146632 0.24746,0.08698 0.01,0.104639 -0.70061,0.052 -1.03323,-0.07655 -1.15621,-0.04781 -3.14705,0.735503 -1.13947,0.448341 -3.19334,1.240326 -4.56415,1.759958 l -2.49237,0.944783 0.14673,0.420973 c 0.0807,0.231535 0.17368,0.420965 0.20661,0.420965 0.0329,0 0.95357,-0.33384 2.0459,-0.74187 z m -12.18713,-0.09567 c 0.25359,-0.213384 0.46106,-0.490261 0.46106,-0.615289 0,-0.148467 -0.15081,-0.06584 -0.43476,0.238111 -0.39488,0.422712 -1.06383,0.64 -1.06383,0.345545 0,-0.234232 0.36484,-0.479556 0.71319,-0.479556 0.19442,0 0.31549,-0.0615 0.26901,-0.136707 -0.11877,-0.192191 -0.8544,0.02978 -1.03206,0.311383 -0.20416,0.32365 -0.0196,0.724484 0.33338,0.724484 0.16109,0 0.50041,-0.174587 0.75401,-0.387971 z m 23.79163,-0.839008 c -0.0478,-0.119547 -0.0834,-0.08403 -0.0905,0.09054 -0.006,0.157974 0.0289,0.246483 0.0787,0.19669 0.0498,-0.04982 0.0551,-0.179054 0.0118,-0.287235 z m -12.00237,-2.006529 c 2.46509,-0.954201 5.05517,-1.941218 5.75577,-2.193375 0.70059,-0.252157 1.32785,-0.506713 1.39394,-0.565674 0.0984,-0.08779 -0.71003,-0.156838 -2.14324,-0.18303 -0.1855,-0.0032 -9.83952,3.583544 -10.02327,3.724131 -0.0902,0.06898 0.30575,0.952864 0.42681,0.952864 0.0594,0 2.12493,-0.780716 4.58999,-1.734916 z M 178.925,16.29426 c -0.0361,-0.03606 -0.38446,-0.202228 -0.77427,-0.369322 -0.68797,-0.294898 -0.70877,-0.295502 -0.70877,-0.02044 0,0.155881 0.11803,0.314249 0.26226,0.351944 0.34931,0.09129 1.30381,0.120826 1.22078,0.03783 z m -14.97034,-1.119839 c 0.61815,-0.240679 1.96689,-0.75268 2.99719,-1.137786 1.03027,-0.385098 2.54923,-0.95895 3.37542,-1.275235 0.82621,-0.316277 1.68362,-0.620585 1.90535,-0.676229 0.39671,-0.09957 0.66526,-0.53516 0.49741,-0.806772 -0.0471,-0.07623 -0.0195,-0.312872 0.0616,-0.525846 0.19049,-0.501038 0.13887,-0.496933 -1.53783,0.122308 -1.718,0.634494 -9.23364,3.357321 -10.14643,3.675933 l -0.67437,0.23539 0.94317,0.04475 c 0.83428,0.0396 0.9625,0.0872 1.11055,0.412111 0.0921,0.202027 0.20711,0.367687 0.25569,0.36813 0.0486,4.02e-4 0.59412,-0.196111 1.2123,-0.43679 z m 13.93691,-0.03131 c 0,-0.08242 -0.0674,-0.108181 -0.14985,-0.05723 -0.0824,0.05095 -0.14987,0.16005 -0.14987,0.242474 0,0.08242 0.0674,0.108182 0.14987,0.05723 0.0824,-0.05095 0.14985,-0.16005 0.14985,-0.242474 z m -14.76113,-1.63282 c 1.56602,-0.564201 4.35761,-1.570069 6.20354,-2.235263 1.84591,-0.665194 3.3874,-1.209449 3.42554,-1.209449 0.0946,0 -0.0884,-0.6999185 -0.34117,-1.3049527 l -0.20779,-0.4973198 -0.79358,0.3063606 c -0.43648,0.1684939 -2.20975,0.8189498 -3.94064,1.4454519 -1.73086,0.626501 -4.32719,1.571453 -5.76957,2.099883 -1.44241,0.52843 -2.71429,0.992313 -2.8264,1.030845 -0.19404,0.06665 -0.0839,0.262943 0.77721,1.384873 0.082,0.106772 0.25624,0.151671 0.38726,0.09976 0.13104,-0.05192 1.51956,-0.555991 3.0856,-1.120191 z m -8.54199,0.901212 c 0.051,-0.08242 0.0212,-0.14986 -0.0661,-0.14986 -0.0873,0 -0.15871,0.06745 -0.15871,0.14986 0,0.08242 0.0297,0.14986 0.0661,0.14986 0.0364,0 0.10777,-0.06745 0.15872,-0.14986 z m 20.70801,-1.376832 c -0.0478,-0.119554 -0.0833,-0.08404 -0.0905,0.09054 -0.006,0.157973 0.0289,0.24649 0.0787,0.19669 0.0498,-0.04983 0.0551,-0.179054 0.0118,-0.287228 z m -12.24095,-2.626888 c 5.42658,-1.9149053 8.74516,-3.0951434 9.25535,-3.2916324 0.28424,-0.109453 0.13559,-0.1874417 -0.92357,-0.4845216 l -1.26233,-0.3540682 -4.17163,1.4327174 c -2.29441,0.7879925 -5.69795,1.9597065 -7.56345,2.6038198 l -3.39184,1.171118 1.2938,0.403877 c 0.71159,0.222126 1.42866,0.3664 1.59351,0.320608 0.16483,-0.0458 2.49141,-0.85666 5.17016,-1.801918 z m 11.00498,1.398114 c -0.87184,-0.387046 -1.11428,-0.427928 -1.11428,-0.187877 0,0.239681 0.21817,0.314973 1.04903,0.362045 l 0.52449,0.0297 z m -18.16078,35.017449 c -0.23807,-0.0854 -0.2424,-0.526635 -0.007,-0.761543 0.21316,-0.213167 0.71931,-0.240478 0.71931,-0.0388 0,0.221723 -0.29915,0.349528 -0.30447,0.130083 -0.003,-0.11941 -0.0924,-0.08017 -0.22879,0.100188 -0.20121,0.266187 -0.19791,0.305508 0.0323,0.386265 0.14096,0.04942 0.19334,0.126155 0.11638,0.170458 -0.0769,0.04427 -0.22421,0.05031 -0.32723,0.01336 z m 28.45286,-27.371031 c -0.16138,-0.194445 -0.0836,-0.395176 0.1531,-0.395176 0.0661,0 0.0759,0.118018 0.0219,0.262259 -0.087,0.232139 -0.0685,0.237983 0.16138,0.05095 0.14282,-0.116239 0.22365,-0.305186 0.17962,-0.419895 -0.044,-0.114709 -0.0232,-0.17342 0.0464,-0.130469 0.0695,0.04298 0.28278,-0.08842 0.47399,-0.291937 0.42435,-0.451697 0.75647,-0.498704 0.35606,-0.05039 -0.28365,0.317597 -0.2832,0.318926 0.0705,0.208732 0.24459,-0.07623 0.32388,-0.059 0.25341,0.05506 -0.0564,0.09125 -0.22517,0.16591 -0.37506,0.16591 -0.14988,0 -0.35953,0.10484 -0.46587,0.232976 -0.33329,0.401574 -0.69423,0.530265 -0.87532,0.312059 z"
       id="path28504" /></g></svg>
