<?xml version="1.0" encoding="UTF-8" standalone="no"?>
<!-- Created with Inkscape (http://www.inkscape.org/) -->

<svg
   width="225mm"
   height="90mm"
   viewBox="0 0 225 90"
   version="1.1"
   style="background-color: #000000;"
   id="svg1"
   inkscape:version="1.2.2 (b0a8486541, 2022-12-01)"
   sodipodi:docname="mug_12_Keld_Reinicke.svg"
   xml:space="preserve"
   xmlns:inkscape="http://www.inkscape.org/namespaces/inkscape"
   xmlns:sodipodi="http://sodipodi.sourceforge.net/DTD/sodipodi-0.dtd"
   xmlns="http://www.w3.org/2000/svg"
   xmlns:svg="http://www.w3.org/2000/svg"><sodipodi:namedview
     id="namedview1"
     pagecolor="#ffffff"
     bordercolor="#000000"
     borderopacity="0.25"
     inkscape:showpageshadow="2"
     inkscape:pageopacity="0.0"
     inkscape:pagecheckerboard="0"
     inkscape:deskcolor="#d1d1d1"
     inkscape:document-units="mm"
     inkscape:zoom="0.5955971"
     inkscape:cx="-257.72456"
     inkscape:cy="66.32"
     inkscape:window-width="1854"
     inkscape:window-height="1131"
     inkscape:window-x="66"
     inkscape:window-y="32"
     inkscape:window-maximized="1"
     inkscape:current-layer="layer1"
     showgrid="false" /><defs
     id="defs1" /><g
     inkscape:label="Layer 1"
     inkscape:groupmode="layer"
     id="layer1"><rect
       style="fill:#000000;fill-opacity:1;stroke-width:0.213856"
       id="rect1"
       width="225.0"
       height="90.0"
       x="0"
       y="0" /><text
       xml:space="preserve"
       style="font-size:6.35px;font-family:'Abyssinica SIL';-inkscape-font-specification:'Abyssinica SIL';text-align:center;writing-mode:lr-tb;direction:ltr;text-anchor:middle;fill:#ffffff;stroke-width:0.264583"
       x="51.913441"
       y="13.795106"
       id="text1"><tspan
         sodipodi:role="line"
         id="tspan1"
         style="font-size:6.35px;stroke-width:0.264583"
         x="51.913441"
         y="13.795106">Think BIG</tspan><tspan
         sodipodi:role="line"
         style="font-size:6.35px;stroke-width:0.264583"
         x="51.913441"
         y="21.732605"
         id="tspan2">Take CHANCES</tspan><tspan
         sodipodi:role="line"
         style="font-size:6.35px;stroke-width:0.264583"
         x="51.913441"
         y="29.670105"
         id="tspan13">Test against REALITY</tspan><tspan
         sodipodi:role="line"
         style="font-size:6.35px;stroke-width:0.264583"
         x="51.913441"
         y="37.607605"
         id="tspan5">Fail FAST</tspan><tspan
         sodipodi:role="line"
         style="font-size:6.35px;stroke-width:0.264583"
         x="51.913441"
         y="45.545105"
         id="tspan23">Try AGAIN</tspan><tspan
         sodipodi:role="line"
         style="font-size:6.35px;stroke-width:0.264583"
         x="51.913441"
         y="53.482605"
         id="tspan3">Do it RIGHT</tspan><tspan
         sodipodi:role="line"
         style="font-size:6.35px;stroke-width:0.264583"
         x="51.913441"
         y="61.420105"
         id="tspan24">Disrupt EVERYTHING</tspan><tspan
         sodipodi:role="line"
         style="font-size:6.35px;stroke-width:0.264583"
         x="51.913441"
         y="69.357605"
         id="tspan12" /><tspan
         sodipodi:role="line"
         style="font-size:6.35px;stroke-width:0.264583"
         x="51.913441"
         y="77.295105"
         id="tspan22" /></text><text
       xml:space="preserve"
       style="font-size:7.05556px;font-family:'Abyssinica SIL';-inkscape-font-specification:'Abyssinica SIL';text-align:center;writing-mode:lr-tb;direction:ltr;text-anchor:middle;fill:#ffffff;stroke-width:0.264583"
       x="175.90259"
       y="72.352333"
       id="text6"><tspan
         sodipodi:role="line"
         id="tspan6"
         style="text-align:center;text-anchor:middle;stroke-width:0.264583"
         x="175.90259"
         y="72.352333">Keld Reinicke</tspan></text><text
       xml:space="preserve"
       style="font-size:3.175px;font-family:'Abyssinica SIL';-inkscape-font-specification:'Abyssinica SIL';text-align:center;writing-mode:lr-tb;direction:ltr;text-anchor:middle;fill:#ffffff;stroke-width:0.264583"
       x="15.705943"
       y="-121.59789"
       id="text7"
       transform="rotate(90)"><tspan
         sodipodi:role="line"
         style="font-size:3.175px;text-align:start;text-anchor:start;stroke-width:0.264583"
         x="15.705943"
         y="-121.59789"
         id="tspan11">multiply by -1 for no reason</tspan><tspan
         sodipodi:role="line"
         style="font-size:3.175px;text-align:start;text-anchor:start;stroke-width:0.264583"
         x="15.705943"
         y="-117.62914"
         id="tspan8">invert matrices without reason</tspan><tspan
         sodipodi:role="line"
         style="font-size:3.175px;text-align:start;text-anchor:start;stroke-width:0.264583"
         x="15.705943"
         y="-113.66039"
         id="tspan9">use the words røvlogik or Titanic</tspan><tspan
         sodipodi:role="line"
         style="font-size:3.175px;text-align:start;text-anchor:start;stroke-width:0.264583"
         x="15.705943"
         y="-109.69164"
         id="tspan33">accept the mediocre</tspan><tspan
         sodipodi:role="line"
         style="font-size:3.175px;text-align:start;text-anchor:start;stroke-width:0.264583"
         x="15.705943"
         y="-105.72289"
         id="tspan36">be afraid of complexity nor simplicity</tspan><tspan
         sodipodi:role="line"
         style="font-size:3.175px;text-align:start;text-anchor:start;stroke-width:0.264583"
         x="15.705943"
         y="-101.75414"
         id="tspan15">purspone it </tspan><tspan
         sodipodi:role="line"
         style="font-size:3.175px;text-align:start;text-anchor:start;stroke-width:0.264583"
         x="15.705943"
         y="-97.785393"
         id="tspan10" /></text><text
       xml:space="preserve"
       style="font-size:7.05556px;font-family:'Abyssinica SIL';-inkscape-font-specification:'Abyssinica SIL';text-align:center;writing-mode:lr-tb;direction:ltr;text-anchor:middle;fill:#ffffff;stroke-width:0.264583"
       x="112.40353"
       y="10.999269"
       id="text29"><tspan
         sodipodi:role="line"
         style="stroke-width:0.264583"
         x="112.40353"
         y="10.999269"
         id="tspan29">don't</tspan></text><text
       xml:space="preserve"
       style="font-size:3.175px;font-family:'Abyssinica SIL';-inkscape-font-specification:'Abyssinica SIL';text-align:start;writing-mode:lr-tb;direction:ltr;text-anchor:start;fill:#ffffff;stroke-width:0.264583"
       x="112.46899"
       y="83.071396"
       id="text34"><tspan
         sodipodi:role="line"
         id="tspan34"
         style="text-align:center;text-anchor:middle;stroke-width:0.264583"
         x="112.46899"
         y="83.071396">Veo Labs</tspan><tspan
         sodipodi:role="line"
         style="text-align:center;text-anchor:middle;stroke-width:0.264583"
         x="112.46899"
         y="87.040146"
         id="tspan35">2025</tspan></text><path
       style="fill:#ffffff;fill-opacity:1;stroke-width:0.216613"
       d="m 156.07205,62.13672 c 0,-0.129985 0.33821,-0.631452 0.75158,-1.114379 0.41336,-0.482927 0.7026,-0.957277 0.64275,-1.054124 -0.0966,-0.156363 0.97642,-0.844361 1.31694,-0.844361 0.0734,0 -0.29812,0.56049 -0.82558,1.245529 -0.52746,0.685033 -1.01825,1.416107 -1.09064,1.624594 -0.14282,0.411337 -0.79505,0.528437 -0.79505,0.142741 z m -1.3875,-0.380358 c -0.0624,-0.10091 0.17558,-0.460307 0.52875,-0.798675 0.35317,-0.338362 0.64213,-0.739749 0.64213,-0.891976 0,-0.24833 0.63664,-0.725242 0.96815,-0.725242 0.19594,0 -0.30115,0.8729 -1.01769,1.787058 -0.63985,0.816324 -0.91136,0.968582 -1.12134,0.628835 z m 0.48043,-1.697411 c 0.15637,-0.06257 0.3432,-0.05484 0.41518,0.01708 0.072,0.07197 -0.0559,0.12317 -0.28431,0.113769 -0.25234,-0.01037 -0.30366,-0.06172 -0.13087,-0.130869 z m -13.82261,-0.675986 c 0,-0.09577 0.33971,-0.503376 0.7549,-0.9058 0.4152,-0.402424 0.70824,-0.778335 0.65122,-0.835364 -0.057,-0.05704 0.0969,-0.244212 0.34217,-0.415967 0.77795,-0.544897 0.68635,-0.138727 -0.25156,1.115404 -0.80099,1.071071 -1.49673,1.555304 -1.49673,1.041727 z m 1.29968,-0.03807 c 0,-0.116716 0.41427,-0.424527 0.92061,-0.684033 0.50633,-0.2595 0.79876,-0.513296 0.64984,-0.563985 -0.40923,-0.139295 -0.32457,-0.661864 0.14821,-0.914891 0.23045,-0.123329 0.86404,-0.224232 1.40799,-0.224232 1.44621,0 1.27168,0.484245 -0.47314,1.312812 -1.37525,0.653066 -1.43189,0.70802 -0.95314,0.924877 0.41174,0.186494 0.54832,0.160292 0.71475,-0.137123 0.11317,-0.202215 0.39587,-0.367669 0.62822,-0.367669 0.52343,0 0.53798,0.189478 0.0434,0.564919 -0.43993,0.333951 -3.08674,0.410544 -3.08674,0.08933 z m 3.58729,-1.975249 c 0.0664,-0.107407 -0.1053,-0.195279 -0.38151,-0.195279 -0.27622,0 -0.62014,0.188837 -0.76428,0.41964 -0.24611,0.394078 -0.22287,0.405968 0.38151,0.195279 0.35398,-0.123396 0.6979,-0.312234 0.76428,-0.41964 z m 9.4116,0.931179 c -0.002,-0.585588 0.47882,-1.583074 0.95426,-1.977653 0.29188,-0.242241 0.14518,-0.463655 -1.13768,-1.717127 -0.81002,-0.791458 -1.61335,-1.666298 -1.78516,-1.944075 l -0.31238,-0.50506 -1.40578,0.491254 c -1.53782,0.537399 -3.90733,0.6642 -4.66735,0.249776 -0.39184,-0.21366 -0.54993,-0.120584 -1.30993,0.771197 -0.47537,0.5578 -1.14289,1.384378 -1.48337,1.836846 -0.34049,0.452473 -0.82326,0.928714 -1.07282,1.058314 -0.40429,0.209945 -0.39472,0.167699 0.0878,-0.387569 0.29784,-0.342761 0.59279,-0.672789 0.65544,-0.733386 0.55812,-0.539901 1.46694,-1.922937 1.34424,-2.04565 -0.0852,-0.08517 0.0149,-0.249861 0.22241,-0.365985 0.54596,-0.305535 0.47205,-0.552846 -0.39194,-1.31144 -1.88371,-1.653913 -2.06883,-3.916273 -0.46951,-5.737794 0.79901,-0.910034 2.66831,-2.202098 4.18893,-2.895416 l 1.109,-0.50564 0.11489,-1.676211 c 0.0921,-1.344083 0.25688,-1.942592 0.83147,-3.020642 0.85949,-1.612576 2.20992,-3.017916 3.35941,-3.496018 2.56507,-1.066874 3.56695,-1.433249 7.09253,-2.593657 2.1278,-0.700346 4.90586,-1.518896 6.17347,-1.819001 1.26761,-0.300106 3.32823,-0.829501 4.57917,-1.176428 1.25094,-0.346927 3.93153,-1.035237 5.95686,-1.529572 2.02533,-0.494341 3.85817,-0.99252 4.07299,-1.107064 0.5203,-0.277442 1.88386,-2.429693 1.88386,-2.973492 0,-0.23697 0.0975,-0.491089 0.21661,-0.564723 0.529,-0.326936 0.16086,1.230686 -0.53539,2.265318 -0.55445,0.823907 -0.65404,1.089562 -0.37907,1.011213 1.40921,-0.401558 3.43431,-0.835565 5.71238,-1.224238 1.45586,-0.248397 2.73057,-0.503267 2.83269,-0.566383 0.10212,-0.06312 1.43287,-0.117028 2.95721,-0.119803 l 2.77154,-0.0049 0.70459,-1.076275 c 0.38752,-0.59195 0.75177,-1.029093 0.80944,-0.971424 0.11151,0.111512 -0.35055,1.018746 -0.92755,1.821191 -0.28465,0.395878 -0.29438,0.503694 -0.0531,0.588241 2.38528,0.835876 2.87087,1.104326 4.02661,2.226013 1.23652,1.200086 1.2671,1.214648 2.65889,1.26643 5.56881,0.207175 6.54198,5.667607 1.43819,8.0697 -0.75215,0.353998 -0.85774,0.498167 -0.9136,1.247421 -0.22341,2.99624 -1.16441,5.057629 -2.83432,6.208929 -0.45714,0.315161 -1.56223,0.881264 -2.45575,1.258004 -0.89353,0.376741 -1.73065,0.770435 -1.86027,0.874877 -0.12962,0.104448 -1.15311,0.47377 -2.27444,0.820722 -1.78006,0.550784 -2.9916,0.981069 -4.63811,1.64727 -0.23827,0.09641 -0.53325,0.197475 -0.6555,0.224593 -0.12226,0.02709 -0.86377,0.305943 -1.64781,0.61961 -0.78405,0.313667 -1.95121,0.72332 -2.59369,0.910346 -0.64249,0.187019 -1.65554,0.56138 -2.25123,0.83191 -0.59568,0.27053 -1.57044,0.615383 -2.16612,0.766341 -1.96086,0.496922 -3.76674,1.065825 -4.37929,1.379602 -0.33154,0.169833 -1.72378,0.615828 -3.09386,0.991092 -1.37008,0.375265 -3.27085,0.917508 -4.22395,1.204985 -3.20324,0.966178 -4.10247,1.168705 -7.30305,1.644836 -3.05341,0.454236 -3.24743,0.459092 -4.61495,0.115581 -0.78514,-0.197219 -1.52966,-0.295463 -1.65449,-0.218321 -0.12482,0.07715 -0.45967,0.640072 -0.74411,1.25094 -0.36439,0.782606 -0.51777,0.963537 -0.51927,0.61254 z m 3.25495,-2.308346 c -0.14398,-0.173482 -0.1953,-0.423008 -0.11404,-0.554493 0.0988,-0.159805 0.23769,-0.116076 0.41902,0.131912 0.15356,0.210012 0.38364,0.301521 0.53026,0.210903 0.14245,-0.08804 0.51189,0.0055 0.82097,0.208145 0.5583,0.365815 0.56127,0.364589 0.45553,-0.188526 -0.0918,-0.480432 -0.0534,-0.528339 0.28073,-0.349538 0.54638,0.292413 0.61816,0.263289 0.52634,-0.213538 -0.0569,-0.295554 0.012,-0.385013 0.23181,-0.300685 0.45084,0.173 1.07265,-0.371458 0.69664,-0.609978 -0.20173,-0.127965 -0.15879,-0.180137 0.1522,-0.184896 0.3087,-0.0049 0.35298,-0.05753 0.15407,-0.183749 -0.33385,-0.211812 -0.0653,-1.083474 0.47082,-1.528449 0.18981,-0.157523 0.29169,-0.372837 0.2264,-0.478474 -0.0653,-0.105638 -0.0288,-0.19207 0.0811,-0.19207 0.1099,0 0.18482,-0.219322 0.16647,-0.487381 -0.0189,-0.27574 -0.15594,-0.460923 -0.31565,-0.426454 -0.15526,0.03349 -0.23868,-0.06397 -0.18537,-0.216613 0.0533,-0.152649 0.24116,-0.252625 0.41743,-0.222177 0.17628,0.03044 0.33055,-0.06703 0.34284,-0.216613 0.0123,-0.149586 0.073,-0.591908 0.135,-0.98293 0.071,-0.448099 0.032,-0.661076 -0.10566,-0.576034 -0.12008,0.07421 -0.0754,-0.207127 0.0993,-0.625199 0.17469,-0.418072 0.27208,-0.805666 0.21643,-0.861315 -0.0556,-0.05564 -0.13594,-0.527638 -0.17841,-1.048859 -0.11486,-1.409604 -1.58312,-5.411712 -2.33272,-6.358442 -0.0943,-0.119138 -0.38682,-0.502906 -0.64998,-0.852829 l -0.47847,-0.636216 -0.15874,0.527913 -0.15874,0.527906 0.0329,-0.541529 c 0.0181,-0.297842 -0.0945,-0.774022 -0.25016,-1.05818 -0.22345,-0.407824 -0.32309,-0.453444 -0.47309,-0.216607 -0.1497,0.236385 -0.19071,0.217027 -0.19332,-0.09126 -0.005,-0.553346 -1.33749,-1.742274 -1.56016,-1.391741 -0.11774,0.18536 -0.17044,0.147713 -0.17275,-0.12339 -0.002,-0.238783 -0.29472,-0.511881 -0.7545,-0.703994 -1.10713,-0.462582 -1.10912,-0.406286 -0.0225,0.634911 0.54462,0.521824 0.98698,1.033577 0.98302,1.137219 -0.004,0.103643 -0.19892,-0.04167 -0.43323,-0.322933 -0.23431,-0.281261 -0.42602,-0.463064 -0.42602,-0.404011 0,0.05905 -0.36021,-0.222579 -0.80047,-0.625845 -0.44026,-0.40326 -0.95201,-0.730104 -1.13722,-0.726316 -0.28432,0.0061 -0.27773,0.05167 0.0423,0.294646 0.20849,0.158267 0.37907,0.367114 0.37907,0.464095 0,0.09699 -0.23341,-0.04295 -0.51868,-0.310934 -0.31254,-0.293621 -0.57322,-0.399033 -0.65591,-0.265241 -0.0755,0.122121 0.0688,0.332298 0.32062,0.467066 0.25182,0.134768 0.40381,0.299074 0.33775,0.365131 -0.0661,0.06605 -0.3634,-0.03935 -0.66077,-0.234164 -0.66922,-0.438485 -0.79345,-0.444231 -0.63425,-0.02934 0.0906,0.236172 -0.0253,0.324923 -0.42455,0.324923 -0.53149,0 -1.20166,0.470158 -1.25709,0.881923 -0.0149,0.110627 -0.0392,0.302173 -0.0542,0.425655 -0.0149,0.123481 -0.17328,0.327625 -0.35199,0.453656 -0.28308,0.199635 -0.28075,0.215228 0.0181,0.12106 0.21699,-0.06839 0.34539,0.02355 0.34955,0.250331 0.008,0.426503 -0.33113,0.899956 -0.64431,0.899956 -0.12301,0 -0.0472,-0.194956 0.1684,-0.433226 0.21564,-0.238276 0.28199,-0.433226 0.14745,-0.433226 -0.41291,0 -0.89559,1.154771 -0.65923,1.577132 0.11461,0.204808 0.13044,0.373873 0.0352,0.375697 -0.0953,0.0018 -0.027,0.09781 0.15169,0.213301 0.17871,0.115484 0.21501,0.21147 0.0807,0.213294 -0.13434,0.0018 -0.37803,-0.16161 -0.54154,-0.363185 -0.25319,-0.312136 -0.25216,-0.339302 0.007,-0.183145 0.20806,0.125397 0.25468,0.103185 0.14749,-0.07026 -0.18271,-0.295621 -0.56003,-0.123365 -0.56003,0.255663 0,0.354657 0.82258,0.843056 1.14603,0.680433 0.14407,-0.07244 0.0675,0.02556 -0.17022,0.217827 -0.36577,0.295835 -0.38338,0.379694 -0.11458,0.545818 0.17467,0.107956 0.2463,0.267571 0.15917,0.354706 -0.0871,0.08713 -0.29533,-0.0288 -0.46265,-0.257615 -0.19667,-0.268962 -0.22599,-0.464388 -0.0829,-0.552797 0.14694,-0.09081 0.14836,-0.181822 0.004,-0.270896 -0.29151,-0.180162 -0.54842,0.530493 -0.28647,0.792446 0.11373,0.113727 0.15481,0.342224 0.0913,0.507769 -0.0719,0.187293 -0.004,0.263001 0.17938,0.20044 1.55282,-0.529408 4.81208,-1.164379 5.44743,-1.06128 1.03783,0.168419 2.22558,1.195072 2.80036,2.420536 0.5474,1.167088 0.78296,3.974497 0.4207,5.013711 -0.19533,0.560295 -0.17526,0.654744 0.13972,0.657587 0.31456,0.0031 0.32103,0.03288 0.0447,0.20759 -0.25733,0.16269 -0.26836,0.25903 -0.0542,0.473233 0.32126,0.321263 0.36008,0.697424 0.0523,0.507226 -0.12152,-0.0751 -0.21661,0.09529 -0.21661,0.388119 0,0.732873 -0.41505,1.862485 -1.01001,2.748898 -0.27846,0.414857 -0.50628,0.920253 -0.50628,1.123115 0,0.59447 0.4015,1.480115 0.671,1.480115 0.18084,0 0.17722,-0.08588 -0.0133,-0.315436 z m 4.1374,-3.837967 c 0.15346,-0.277076 0.25019,-0.601254 0.21495,-0.720392 -0.0353,-0.119132 0.0118,-0.140685 0.10466,-0.04789 0.33292,0.332926 0.25522,0.815072 -0.16783,1.041483 -0.40127,0.214752 -0.41168,0.196011 -0.15178,-0.273208 z m -2.41237,-2.994825 c 0.1787,-0.11549 0.47113,-0.209975 0.64984,-0.209975 0.28881,0 0.28881,0.0233 0,0.209975 -0.17871,0.11549 -0.47114,0.209976 -0.64984,0.209976 -0.28882,0 -0.28882,-0.0233 0,-0.209976 z m 2.92427,0 c 0.0736,-0.119138 0.17686,-0.216613 0.2294,-0.216613 0.0525,0 0.0955,0.09748 0.0955,0.216613 0,0.119138 -0.10322,0.216613 -0.2294,0.216613 -0.12616,0 -0.16915,-0.09748 -0.0955,-0.216613 z m -1.7329,-0.433226 c 0.0736,-0.119138 0.27433,-0.216613 0.44601,-0.216613 0.17168,0 0.31214,0.09748 0.31214,0.216613 0,0.119138 -0.20071,0.216613 -0.44602,0.216613 -0.2453,0 -0.38576,-0.09748 -0.31213,-0.216613 z m 1.50048,-0.329571 c 0.44515,-0.336782 0.69391,-0.283249 0.45794,0.09855 -0.0785,0.127062 -0.30761,0.227923 -0.50907,0.224135 -0.32159,-0.0061 -0.31535,-0.04545 0.0511,-0.322684 z m 0.25692,-0.793129 c 0.0626,-0.101221 0.20449,-0.127966 0.31539,-0.05942 0.28341,0.17516 0.2515,0.243468 -0.11375,0.243468 -0.17346,0 -0.2642,-0.08282 -0.20164,-0.184048 z m -0.74844,-4.942463 c 0,-0.297842 0.0492,-0.419682 0.10925,-0.270761 0.0601,0.148921 0.0601,0.392608 0,0.541529 -0.0601,0.148921 -0.10925,0.02709 -0.10925,-0.270768 z m -1.00896,-1.299671 c -0.0736,-0.119138 -0.0306,-0.216613 0.0955,-0.216613 0.12617,0 0.2294,0.09748 0.2294,0.216613 0,0.119132 -0.043,0.216613 -0.0955,0.216613 -0.0525,0 -0.15577,-0.09748 -0.2294,-0.216613 z m -5.0904,-0.541536 c 0.29428,-0.354589 0.86645,-0.441413 0.86645,-0.131479 0,0.199415 -0.51278,0.456402 -0.91069,0.456402 -0.13649,0 -0.11904,-0.128186 0.0442,-0.324923 z m 1.29967,-0.301746 c 0,-0.240235 0.6664,-0.512052 0.83703,-0.341413 0.0688,0.06885 -0.0182,0.215869 -0.19346,0.326698 -0.40503,0.256157 -0.64357,0.261611 -0.64357,0.0147 z m 1.46214,-0.599857 c 0.14892,-0.06009 0.39261,-0.06009 0.54154,0 0.14892,0.06009 0.0271,0.109255 -0.27077,0.109255 -0.29784,0 -0.41969,-0.04917 -0.27077,-0.109255 z m 1.35383,-0.289765 c 0,-0.119138 0.15197,-0.216613 0.33771,-0.216613 0.18573,0 0.27746,0.09748 0.20382,0.216613 -0.0736,0.119132 -0.22559,0.216613 -0.3377,0.216613 -0.11211,0 -0.20383,-0.09748 -0.20383,-0.216613 z m -8.33043,-2.367924 c -0.0686,-0.110988 0.0712,-0.339046 0.31076,-0.506805 0.2395,-0.16776 0.38735,-0.353138 0.32854,-0.411947 -0.0588,-0.05881 0.0548,-0.106931 0.25262,-0.106931 0.26224,0 0.19693,0.129667 -0.24135,0.479139 -0.4323,0.344706 -0.51799,0.5121 -0.30539,0.596635 0.18632,0.07409 0.20018,0.123818 0.0375,0.134597 -0.14189,0.0094 -0.3141,-0.0737 -0.38269,-0.184688 z m 5.54091,18.251058 c -0.25536,-0.439119 -0.31702,-0.298568 -0.10799,0.246146 0.0743,0.19359 0.1807,0.306353 0.23647,0.250581 0.0558,-0.05576 -0.002,-0.279296 -0.12848,-0.496727 z m 7.26486,-1.298274 c 0.45693,-0.66345 1.04343,-1.755183 1.30334,-2.426087 0.25991,-0.670905 0.47935,-1.024872 0.48766,-0.786602 0.008,0.238276 -0.2978,1.066819 -0.68023,1.841213 -0.93942,1.902274 -0.95871,1.976061 -0.25485,0.974756 0.33498,-0.476546 0.82702,-1.451308 1.09342,-2.16613 0.2664,-0.714822 0.48516,-1.104722 0.48614,-0.866452 0.001,0.238276 -0.13577,0.819398 -0.30388,1.291387 -0.1681,0.471989 -0.27405,0.889762 -0.23542,0.928391 0.10541,0.105406 0.94535,-2.116977 1.10502,-2.923765 0.0766,-0.387197 0.2206,-0.703994 0.31992,-0.703994 0.0993,0 0.0907,0.268059 -0.0192,0.595684 -0.10988,0.327631 -0.35277,1.158749 -0.53975,1.846936 -0.18698,0.688187 -0.65338,1.662948 -1.03645,2.166129 -1.03275,1.356602 -1.14029,1.681708 -0.23097,0.698265 0.71588,-0.774223 1.0435,-1.36596 2.03879,-3.68242 0.15357,-0.357408 0.32113,-0.534495 0.37236,-0.393517 0.10915,0.300392 -1.29778,3.427404 -1.8375,4.08396 -0.20364,0.247732 -0.0625,0.122158 0.31366,-0.279059 0.80981,-0.863743 2.14889,-3.33764 2.44774,-4.522078 0.20842,-0.82606 0.21019,-0.822345 0.11661,0.244242 -0.065,0.740475 -0.0295,0.980289 0.11209,0.758149 0.11391,-0.178704 0.20915,-0.471135 0.21164,-0.649839 0.006,-0.461551 0.4506,-2.006453 0.54868,-1.908375 0.19002,0.190021 -0.64738,3.201976 -1.22316,4.399421 -0.34371,0.714822 -0.47052,1.104728 -0.28181,0.866452 0.5765,-0.727908 1.35827,-2.383353 1.62415,-3.439258 0.26527,-1.053514 0.73955,-1.432469 0.50764,-0.405621 -0.17553,0.777237 -1.25552,3.142319 -1.83621,4.021142 l -0.45605,0.690189 0.50658,-0.587119 c 0.82641,-0.957778 2.27707,-3.904494 2.57286,-5.226219 0.3516,-1.571159 0.52392,-1.441626 0.22601,0.169895 -0.24049,1.300983 -0.70084,2.445188 -1.38223,3.435634 -0.23011,0.334488 -0.37328,0.653261 -0.31816,0.708392 0.19709,0.197085 1.22873,-1.61706 1.71993,-3.024498 0.56959,-1.632061 0.9642,-1.959479 0.49912,-0.414131 -0.40572,1.348104 -0.26731,1.432078 0.20312,0.123237 0.62937,-1.750992 0.79535,-2.008643 0.66596,-1.033735 -0.11244,0.847174 -0.10787,0.854403 0.20548,0.324916 0.17627,-0.297842 0.32394,-0.755098 0.32816,-1.016129 0.004,-0.261025 0.0946,-0.528328 0.20089,-0.594007 0.22904,-0.141557 -0.10527,1.474289 -0.43092,2.082778 -0.1226,0.229082 -0.18764,0.581988 -0.14454,0.784234 0.0467,0.219212 0.27422,-0.113428 0.56331,-0.82365 0.46355,-1.138806 0.48023,-1.154344 0.37782,-0.352235 -0.12604,0.987195 0.0108,0.917398 0.44558,-0.227331 l 0.31466,-0.828415 -0.10056,0.866452 c -0.0904,0.778969 -0.0761,0.811772 0.14116,0.324916 0.33987,-0.761467 0.37192,-0.78421 0.60158,-0.426954 0.16585,0.258005 0.23238,0.21779 0.34953,-0.211288 0.13459,-0.492944 0.15673,-0.500503 0.31723,-0.108303 0.10232,0.250032 0.13347,-0.06323 0.0765,-0.769746 -0.085,-1.05488 -0.0721,-1.104514 0.11288,-0.433226 0.11489,0.416981 0.15745,1.148048 0.0946,1.624601 -0.0929,0.704603 -0.0685,0.792732 0.13089,0.47183 0.1495,-0.240607 0.20143,-0.916934 0.13307,-1.732904 l -0.11213,-1.338282 0.26114,1.516291 c 0.24992,1.4511 0.57403,1.563399 0.57403,0.198897 0,-0.2881 0.11073,-0.52382 0.24606,-0.52382 0.37582,0 0.0729,1.705769 -0.55512,3.125817 -0.29708,0.67174 -0.46113,1.172517 -0.36456,1.112835 0.21421,-0.132394 1.44341,-3.013901 1.66952,-3.913729 l 0.16328,-0.649839 0.15004,0.758142 0.15004,0.758149 0.0536,-0.758149 c 0.0365,-0.515187 0.0897,-0.619311 0.16602,-0.324916 l 0.11238,0.433226 0.19099,-0.433226 c 0.12859,-0.291705 0.15119,-0.117454 0.0692,0.533397 -0.14365,1.140087 0.12316,1.025225 0.31161,-0.134145 0.0712,-0.438296 0.2418,-0.83432 0.37902,-0.880056 0.32173,-0.107248 -2.2e-4,1.396054 -0.57967,2.705743 -0.22636,0.511728 -0.33966,0.885974 -0.25179,0.831666 0.13454,-0.08315 0.8213,-1.501307 1.58508,-3.273218 0.10271,-0.238276 0.27281,-0.969344 0.37801,-1.6246 0.16378,-1.020156 0.19491,-1.076153 0.2166,-0.389638 0.0139,0.44095 -0.12002,1.35972 -0.29766,2.041715 -0.39991,1.535343 -0.26664,1.790645 0.1931,0.369926 l 0.33889,-1.047242 -0.0908,1.083065 -0.0908,1.083065 0.31792,-0.864396 c 0.17486,-0.475424 0.39625,-1.498917 0.49199,-2.274439 0.12773,-1.034688 0.222,-1.3003 0.35412,-0.99781 0.10326,0.236416 0.0783,0.790738 -0.0585,1.299678 -0.14816,0.55118 -0.16176,0.965421 -0.0359,1.093228 0.12702,0.128985 0.20265,0.06836 0.20265,-0.162458 0,-0.202533 0.0975,-0.368242 0.21661,-0.368242 0.30185,0 0.25754,0.443078 -0.1083,1.083064 -0.17026,0.297842 -0.30957,0.639011 -0.30957,0.758149 0,0.381822 0.61715,-0.837499 0.86075,-1.70062 0.12949,-0.458787 0.28678,-0.782813 0.34954,-0.72005 0.0628,0.06276 -0.0411,0.648088 -0.23084,1.300727 -0.56728,1.951365 -0.39166,2.017892 0.32165,0.121841 0.36489,-0.969906 0.42223,-1.039428 0.33806,-0.409886 -0.0558,0.416981 -0.16103,0.953099 -0.23395,1.191375 -0.0729,0.23827 0.0721,-0.0055 0.32224,-0.541536 0.25015,-0.536118 0.51061,-1.63272 0.5788,-2.436891 0.0682,-0.804177 0.21712,-1.462142 0.33098,-1.462142 0.12042,0 0.15374,0.430371 0.0797,1.028916 -0.07,0.565901 -0.12919,1.254223 -0.13144,1.529602 -0.002,0.275386 -0.14972,0.782295 -0.32769,1.126465 -0.17798,0.344169 -0.31929,0.75245 -0.31402,0.907289 0.0164,0.480816 0.91871,-1.393578 1.22012,-2.534446 l 0.28614,-1.083065 -0.0958,1.299678 c -0.11584,1.572136 0.26025,1.142411 0.54711,-0.625144 0.17846,-1.09956 0.17925,-1.097334 0.10712,0.300222 -0.0683,1.322512 -0.0553,1.368535 0.21388,0.758148 0.1576,-0.357414 0.35366,-1.212507 0.43569,-1.900212 0.16335,-1.369346 0.40848,-1.781366 0.48243,-0.810863 0.0528,0.692488 -0.39342,2.517297 -0.91275,3.733024 -0.59704,1.397617 -0.35931,1.203106 0.43582,-0.356596 0.4208,-0.825426 0.90588,-1.995137 1.07796,-2.599356 l 0.31287,-1.098578 -0.12613,1.083064 c -0.0694,0.595685 -0.16954,1.326753 -0.22259,1.624595 -0.0566,0.317675 0.0925,0.138592 0.3607,-0.433226 0.25143,-0.536118 0.51032,-1.535245 0.57531,-2.220279 0.065,-0.685039 0.18579,-1.245529 0.26843,-1.245529 0.1829,0 -0.0663,1.923498 -0.41676,3.216911 -0.39933,1.473739 -0.12304,1.283547 0.49154,-0.338381 0.38958,-1.028111 0.56083,-1.299281 0.56923,-0.90131 0.007,0.313075 -0.13552,0.922302 -0.31582,1.353832 -0.1803,0.431524 -0.23858,0.784595 -0.1295,0.784595 0.19959,0 0.62608,-1.002599 0.80007,-1.880812 0.0515,-0.260056 0.18884,-0.698699 0.30516,-0.974756 0.16935,-0.401917 0.18813,-0.329284 0.0942,0.364522 -0.0645,0.476546 -0.1683,1.109944 -0.23069,1.407535 -0.15424,0.735717 0.0644,0.473838 0.46544,-0.55736 l 0.3306,-0.850175 -0.0919,0.866451 -0.0919,0.866452 0.43992,-1.02891 c 0.24196,-0.565901 0.52282,-1.028916 0.62413,-1.028916 0.21151,0 -0.0228,0.677767 -0.67847,1.963133 -0.25108,0.492145 -0.41661,0.934705 -0.36786,0.983455 0.0487,0.04874 0.46088,-0.704604 0.91585,-1.674119 0.68027,-1.449636 0.78264,-1.834118 0.57631,-2.164513 -0.2987,-0.478297 -0.33414,-1.846905 -0.0523,-2.02107 0.19683,-0.121651 0.30496,1.035761 0.27215,2.913114 -0.0144,0.825035 0.0203,0.909357 0.22626,0.548954 0.13382,-0.234189 0.31419,-0.72157 0.40083,-1.083065 l 0.15753,-0.657257 0.0221,0.688254 c 0.0129,0.399032 -0.2906,1.288306 -0.72212,2.116203 -0.40936,0.785369 -0.64373,1.365789 -0.52081,1.289819 0.36108,-0.223153 1.69603,-3.15596 1.83898,-4.040121 0.0722,-0.446763 0.21022,-0.812297 0.30664,-0.812297 0.337,0 -0.0698,1.637106 -0.7802,3.13975 -0.39398,0.833338 -0.68157,1.549905 -0.63911,1.592365 0.0914,0.0914 1.31246,-2.211512 1.99084,-3.754694 0.2625,-0.597155 0.48183,-0.97938 0.48738,-0.849389 0.0229,0.537692 -0.60476,2.208907 -1.15968,3.087469 -0.32692,0.51759 -0.5587,0.97678 -0.51506,1.020424 0.24276,0.242754 2.02596,-3.189867 2.35755,-4.538215 0.20815,-0.846405 0.38216,-1.343974 0.38668,-1.105698 0.024,1.263923 -0.78586,3.53159 -1.7793,4.982098 l -0.44507,0.649839 0.45665,-0.396787 c 0.71783,-0.623716 1.944,-3.152476 2.24963,-4.639466 0.15305,-0.744605 0.35625,-1.353826 0.45154,-1.353826 0.0953,0 0.16981,0.0731 0.16556,0.162458 -0.0163,0.343108 -0.60518,2.573343 -0.82935,3.140885 -0.38636,0.978208 -0.0843,0.674028 0.38563,-0.388356 0.456,-1.030856 0.79196,-2.400081 0.70195,-2.860838 -0.0291,-0.148921 0.0489,-0.270762 0.17322,-0.270762 0.26308,0 0.26386,0.03233 0.0302,1.239666 -0.0974,0.503115 -0.096,0.864647 0.003,0.803397 0.0991,-0.06124 0.2443,-0.594727 0.32267,-1.185518 0.0784,-0.590785 0.22927,-1.074158 0.33532,-1.074158 0.10606,0 0.14231,0.219316 0.0806,0.487375 -0.0618,0.268059 -0.25348,1.111865 -0.42605,1.87512 -0.17257,0.763254 -0.60726,1.859856 -0.96596,2.436891 -0.35872,0.577041 -0.55985,1.049158 -0.44696,1.049158 0.19573,0 1.88819,-3.097577 2.18953,-4.007337 0.11897,-0.359183 0.14719,-0.330187 0.16509,0.169663 0.0119,0.331584 -0.22374,1.087024 -0.52359,1.678749 -0.29985,0.591725 -0.50443,1.07586 -0.45462,1.07586 0.22366,0 1.02892,-1.652425 1.57547,-3.232955 0.32911,-0.951701 0.6321,-1.696635 0.67333,-1.655408 0.0412,0.04124 -0.0822,0.681379 -0.27424,1.422562 -0.19206,0.741176 -0.29499,1.401801 -0.22875,1.468047 0.0662,0.06624 0.12767,-0.01763 0.13651,-0.186421 0.009,-0.168778 0.20508,-0.696777 0.4361,-1.173323 0.37372,-0.770904 0.40664,-0.794794 0.29857,-0.216613 -0.0668,0.357414 -0.16905,0.844789 -0.22721,1.083065 -0.16787,0.68776 0.69193,-1.063701 1.07709,-2.194088 0.19189,-0.563181 0.3489,-1.2503 0.3489,-1.526918 0,-0.276618 0.0975,-0.502944 0.21661,-0.502944 0.32103,0 0.26012,0.886218 -0.10964,1.595202 -0.17797,0.341248 -0.32358,0.747436 -0.32358,0.902647 0,0.15521 -0.19149,0.728926 -0.42553,1.274915 -0.23404,0.545995 -0.38166,0.992715 -0.32804,0.992715 0.17062,0 1.49694,-2.673593 1.77304,-3.57411 l 0.26566,-0.866452 -0.0965,0.974761 c -0.0894,0.903092 -0.0795,0.926976 0.13547,0.324917 0.41397,-1.159615 0.30011,-4.585226 -0.21961,-6.606693 -0.78948,-3.070728 -1.07574,-3.681352 -1.72957,-3.689307 -0.52573,-0.0064 -0.53826,-0.02812 -0.17504,-0.303534 0.36933,-0.280035 0.35281,-0.340406 -0.29489,-1.078105 -0.37738,-0.429804 -0.91896,-0.839896 -1.20353,-0.911322 -0.28457,-0.07142 -0.5174,-0.198714 -0.5174,-0.282871 0,-0.08415 -0.33293,-0.31177 -0.73985,-0.505817 -0.71383,-0.340406 -0.75212,-0.336105 -1.08907,0.122341 -0.34819,0.47374 -0.34887,0.473783 -0.22845,0.01342 0.241,-0.921424 -1.21677,-0.808319 -1.51052,0.117204 -0.0723,0.227741 -0.37131,0.571258 -0.6645,0.763365 -0.51534,0.337654 -0.5331,0.331968 -0.5331,-0.170719 0,-0.503358 0.47015,-1.113768 0.68916,-0.894758 0.0592,0.05924 0.29398,-0.110481 0.52159,-0.377223 0.40824,-0.478388 0.40816,-0.480609 -0.005,-0.163788 -0.38214,0.292498 -0.40646,0.286111 -0.27233,-0.07152 0.13183,-0.351466 0.0797,-0.344542 -0.4968,0.06593 -0.35426,0.252253 -0.74049,0.623918 -0.8583,0.825932 -0.11781,0.202008 -0.21716,0.277491 -0.22078,0.167735 -0.004,-0.109755 0.15473,-0.377814 0.3519,-0.595684 0.20179,-0.222976 0.25255,-0.396128 0.11611,-0.396128 -0.1333,0 -0.48957,0.363789 -0.79171,0.808423 -0.30214,0.44464 -0.54934,0.668598 -0.54934,0.497691 0,-0.170902 0.31155,-0.632172 0.69233,-1.025037 0.38078,-0.39287 0.58148,-0.714303 0.44601,-0.714303 -0.13548,0 -0.30755,0.09906 -0.38238,0.220145 -0.0748,0.121078 -0.25117,0.147774 -0.39186,0.0593 -0.3732,-0.234641 -1.63478,-0.285019 -1.76731,-0.07058 -0.0624,0.101013 -0.29236,0.136891 -0.51094,0.07973 -0.502,-0.131279 -1.57046,0.753798 -2.44574,2.025969 -0.36518,0.530774 -0.71922,0.909796 -0.78674,0.842269 -0.0675,-0.06752 0.34017,-0.71891 0.90599,-1.447519 0.56581,-0.72861 0.91731,-1.255876 0.78111,-1.171694 -0.1362,0.08418 -0.49242,0.179924 -0.79158,0.212763 -0.61939,0.06799 -1.91054,1.22397 -2.39004,2.139836 -0.17732,0.338698 -0.37336,0.564871 -0.43562,0.502602 -0.15324,-0.153246 1.19546,-2.093179 1.45524,-2.093179 0.11341,0 0.20621,-0.09284 0.20621,-0.206321 0,-0.113477 -0.3168,-0.156016 -0.70399,-0.09453 -0.3872,0.06148 -0.85021,0.119944 -1.02891,0.129918 -0.17871,0.0099 -0.50669,0.142638 -0.72886,0.29481 -0.22217,0.152173 -0.52911,0.228643 -0.68208,0.169944 -0.15298,-0.05869 -0.33684,-0.01177 -0.40858,0.104313 -0.0717,0.11607 -0.32529,0.160085 -0.56344,0.09781 -0.23998,-0.06276 -0.43301,-0.0065 -0.43301,0.126092 0,0.131626 -0.17058,0.225026 -0.37907,0.207554 -0.85383,-0.07155 -1.26422,0.06027 -1.53433,0.492768 -0.2358,0.37757 -0.23544,0.428723 0.002,0.297756 0.15771,-0.08697 -0.0788,0.153619 -0.52555,0.534636 -0.44676,0.381023 -0.80922,0.80752 -0.80545,0.947766 0.004,0.140246 0.24746,-0.01848 0.54153,-0.352765 0.29408,-0.334275 0.53469,-0.510606 0.53469,-0.391858 0,0.118747 -0.0975,0.276148 -0.21662,0.349782 -0.11913,0.07363 -0.21661,0.237532 -0.21661,0.364222 0,0.352601 0.63291,-0.244681 0.98904,-0.933375 0.37595,-0.726998 0.39195,-0.914652 0.0606,-0.709844 -0.15618,0.09653 -0.19123,0.05936 -0.0933,-0.09905 0.0862,-0.139483 0.24075,-0.201697 0.34342,-0.138239 0.10268,0.06345 0.24791,0.01629 0.32274,-0.104771 0.0748,-0.121084 0.22577,-0.220151 0.33542,-0.220151 0.10966,0 -0.10878,0.437167 -0.48539,0.971479 -0.64853,0.920076 -0.75529,1.568073 -0.15193,0.922181 0.15463,-0.165533 0.49189,-0.260684 0.74947,-0.211446 0.37132,0.07098 0.60883,-0.138831 1.14668,-1.012957 0.3731,-0.60636 0.73375,-1.102483 0.80146,-1.102483 0.13853,0 -0.008,0.27796 -0.58783,1.116508 -0.43205,0.624613 -0.48968,0.833009 -0.23036,0.833009 0.092,0 0.34484,-0.329559 0.56176,-0.732362 0.42556,-0.790219 1.65363,-1.834887 1.65363,-1.406675 0,0.152685 0.17551,0.09783 0.43323,-0.135396 0.23827,-0.215637 0.43322,-0.321336 0.43322,-0.234891 1e-4,0.255578 -1.78216,2.292711 -2.00576,2.292711 -0.11283,0 0.10339,-0.351399 0.48049,-0.780892 0.37709,-0.429492 0.62436,-0.842159 0.54947,-0.917044 -0.14647,-0.146468 -1.62346,1.463064 -1.62346,1.769154 0,0.101342 0.18649,0.346097 0.41441,0.543902 0.22792,0.197799 0.48286,0.593708 0.56653,0.879788 0.12216,0.417706 0.085,0.494378 -0.18883,0.389308 -0.18752,-0.07196 -0.75925,0.09583 -1.27052,0.372867 -0.51126,0.277039 -1.46569,0.67612 -2.12094,0.886852 -0.65525,0.210732 -1.55468,0.513894 -1.99873,0.673698 -0.70978,0.255437 -4.69398,0.888981 -6.58271,1.046754 -0.37128,0.03099 -0.77515,0.118248 -0.89749,0.193858 -0.50779,0.313832 -0.46966,-0.915946 0.0576,-1.859411 0.56651,-1.013586 1.40661,-1.916799 1.40661,-1.512283 0,0.130571 -0.097,0.297318 -0.21545,0.370555 -0.34887,0.215606 -0.69851,0.975475 -0.44885,0.975475 0.26278,0 2.04683,-2.372085 1.89685,-2.522061 -0.0581,-0.05814 -0.35921,0.167784 -0.66911,0.501997 -0.49767,0.536729 -0.82321,0.493561 -0.40099,-0.0532 0.21189,-0.274368 -0.32422,0.300355 -1.58704,1.701345 -0.67219,0.745746 -0.96651,0.964293 -0.86547,0.642658 0.21492,-0.684105 0.0291,-0.606494 -0.51859,0.216613 -0.34357,0.516347 -0.43196,0.574082 -0.33159,0.216613 0.18678,-0.66523 -0.0236,-0.612839 -0.43488,0.108304 -0.32928,0.577346 -0.33545,0.579011 -0.20028,0.05417 0.1685,-0.654256 0.74281,-1.339545 0.74281,-0.886346 0,0.232822 0.0637,0.23672 0.32493,0.01989 0.1787,-0.148317 0.32491,-0.367139 0.32491,-0.486277 0,-0.120827 -0.14367,-0.09737 -0.32491,0.05308 -0.18125,0.150422 -0.32493,0.173879 -0.32493,0.05307 0,-0.30041 0.58649,-0.75974 0.70158,-0.549466 0.0516,0.09433 0.0622,0.0446 0.0236,-0.110518 -0.0411,-0.164849 0.0325,-0.218437 0.17728,-0.12899 0.13761,0.08505 0.18885,0.05796 0.11535,-0.06094 -0.0727,-0.117692 0.0103,-0.213984 0.1844,-0.213984 0.2704,0 0.26648,0.07657 -0.0268,0.524229 -0.6037,0.921357 -0.18156,0.74854 0.64979,-0.26601 0.44178,-0.539144 0.70499,-0.980258 0.58491,-0.980258 -0.12008,0 -0.27956,0.09907 -0.35439,0.220146 -0.0748,0.121078 -0.22006,0.168229 -0.32273,0.104771 -0.10268,-0.06345 -0.24889,-0.0147 -0.32492,0.108309 -0.076,0.123024 -0.22899,0.167601 -0.33989,0.09905 -0.11091,-0.06855 -0.31908,-0.05204 -0.46262,0.03666 -0.14353,0.08871 -0.55139,0.193083 -0.90636,0.231943 -0.35496,0.03886 -0.83914,0.240094 -1.07594,0.447178 -0.2368,0.20709 -0.3593,0.254687 -0.27222,0.105766 0.10034,-0.171621 0.0262,-0.270768 -0.20255,-0.270768 -0.25227,0 -0.31787,0.112104 -0.21796,0.37247 0.0786,0.204858 0.0737,0.303181 -0.011,0.218492 -0.0847,-0.08469 -0.28703,-0.04356 -0.44964,0.09139 -0.23632,0.196127 -0.26956,0.163148 -0.16567,-0.164337 0.23621,-0.744544 -1.31672,1.151373 -1.86483,2.276696 -0.29131,0.598118 -0.60934,1.09127 -0.70673,1.095901 -0.30147,0.01434 0.0886,-0.92018 0.81021,-1.941098 1.06836,-1.511472 1.10742,-1.593597 0.63851,-1.34265 -0.22286,0.119272 -0.47785,0.22882 -0.56662,0.243431 -0.92583,0.15238 -1.49123,0.319505 -1.58294,0.467895 -0.0609,0.09855 -0.24396,0.128051 -0.4068,0.06556 -0.16284,-0.06249 -0.35779,-0.01373 -0.43323,0.108303 -0.0754,0.122061 -0.25588,0.178466 -0.40098,0.125349 -0.41504,-0.151917 -0.69967,0.12996 -1.53834,1.523477 -0.90462,1.503083 -1.06017,1.321018 -0.20803,-0.243486 0.3164,-0.580902 0.45074,-0.941965 0.29852,-0.802353 -0.15221,0.139611 -0.4074,0.20371 -0.56706,0.142436 -0.18112,-0.0695 -0.62821,0.405346 -1.18868,1.262452 -0.8905,1.361806 -0.99884,0.989995 -0.13619,-0.467352 l 0.44878,-0.758149 -0.46801,0.407701 c -0.2574,0.224233 -0.67657,0.838542 -0.93149,1.365137 -0.25492,0.526589 -0.50678,0.914146 -0.55969,0.861236 -0.079,-0.07903 0.22294,-0.85976 0.75816,-1.960235 0.0515,-0.105931 -0.0183,-0.123403 -0.15516,-0.0388 -0.13685,0.08458 -0.50585,0.658642 -0.81999,1.275678 -0.31414,0.617042 -0.61325,0.998804 -0.66469,0.84837 -0.0514,-0.15044 0.17588,-0.735296 0.50516,-1.299678 0.40038,-0.686259 0.47307,-0.923254 0.21945,-0.715481 -0.20858,0.170871 -0.62055,0.755727 -0.9155,1.299678 -0.47614,0.87811 -0.59798,0.730104 -0.19743,-0.23982 0.23895,-0.578602 -0.53358,-0.344761 -0.8941,0.27064 -0.27537,0.470049 -0.29433,0.475857 -0.18129,0.05551 0.10505,-0.390619 0.052,-0.450015 -0.31588,-0.353809 -0.24317,0.06359 -0.44213,0.217974 -0.44213,0.343072 0,0.125098 0.0635,0.163983 0.14105,0.08641 0.0776,-0.07757 0.25999,0.02166 0.40537,0.220456 0.23724,0.32444 0.29961,0.296335 0.60843,-0.274135 0.18925,-0.349593 0.34651,-0.489419 0.34945,-0.310708 0.003,0.178704 -0.0815,0.462167 -0.18772,0.629914 -0.14123,0.223073 0.0196,0.44669 0.599,0.832533 1.0882,0.724747 3.0338,2.636056 3.40983,3.349731 0.19837,0.376479 0.42629,0.543586 0.63315,0.464205 0.17777,-0.06822 0.32322,-0.01037 0.32322,0.128545 0,0.138916 -0.0975,0.192327 -0.21662,0.118699 -0.11913,-0.07363 -0.21661,-0.03642 -0.21661,0.08274 0,0.119138 0.0785,0.265143 0.17449,0.324453 0.096,0.0593 0.44581,0.67429 0.77743,1.366613 0.33161,0.692329 0.68506,1.417358 0.78544,1.611185 0.10039,0.193821 0.25076,0.729939 0.33416,1.191368 0.0834,0.461429 0.25673,1.033919 0.38518,1.272189 0.12845,0.238276 0.20658,0.564858 0.17361,0.72573 -0.0329,0.160878 0.044,0.228234 0.17117,0.149677 0.1385,-0.0856 0.22977,0.05759 0.22778,0.357335 -0.002,0.35969 -0.0551,0.418359 -0.18791,0.20889 -0.35187,-0.555183 -0.0734,1.844574 0.29722,2.561233 0.3424,0.662119 0.34293,0.802121 0.008,2.143484 -0.19699,0.78931 -0.506,1.662881 -0.68669,1.941275 -0.18069,0.278399 -0.2799,0.554804 -0.22047,0.614242 0.0594,0.05942 0.22134,-0.103588 0.35978,-0.36227 0.13844,-0.258677 0.30045,-0.421592 0.36002,-0.36202 0.1619,0.161903 -0.34467,1.019191 -1.0414,1.762424 -0.33896,0.361581 -0.61674,0.742464 -0.61729,0.846399 -0.002,0.336849 0.59183,-0.291119 1.44174,-1.525167 z m 0.29341,-1.274001 c 0.002,-0.113178 0.15166,-0.595684 0.33303,-1.072236 l 0.32977,-0.866452 -0.13328,0.866452 c -0.11843,0.769941 -0.53821,1.619946 -0.52952,1.072236 z m 0.66748,-2.371914 c -0.0153,-0.465022 0.32375,-1.136811 0.48882,-0.968484 0.055,0.05613 -0.0292,0.394463 -0.18724,0.751871 -0.22232,0.502864 -0.29053,0.551858 -0.30158,0.216613 z m 0.84886,-0.703987 c -0.002,-0.268059 0.0942,-0.487381 0.2133,-0.487381 0.2714,0 0.2714,0.229876 0,0.649839 -0.1698,0.262745 -0.21062,0.231657 -0.2133,-0.162458 z m 0.66363,0.03611 c 0.0104,-0.252344 0.0617,-0.303674 0.13087,-0.130875 0.0626,0.156369 0.0548,0.343199 -0.0171,0.41518 -0.072,0.07197 -0.12317,-0.05594 -0.11376,-0.284305 z m 1.28589,0.0722 c 0.002,-0.148921 0.0978,-0.41698 0.21329,-0.595684 0.16363,-0.253192 0.21072,-0.193424 0.2133,0.270768 0.002,0.327625 -0.0942,0.595684 -0.2133,0.595684 -0.11913,0 -0.21512,-0.121847 -0.21329,-0.270768 z m -3.37708,-1.558128 c -0.17005,-0.677523 0.0276,-0.988317 0.62473,-0.982253 l 0.4746,0.0049 -0.49795,0.383159 c -0.32985,0.253814 -0.44999,0.508117 -0.3559,0.753329 0.0781,0.203594 0.0847,0.37017 0.0147,0.37017 -0.07,0 -0.18713,-0.238148 -0.26018,-0.529218 z m 6.12131,0.36676 c -0.0517,-0.08935 -0.0156,-0.357414 0.0803,-0.595684 0.15215,-0.378211 0.17622,-0.357579 0.1895,0.162458 0.015,0.587668 -0.0863,0.750395 -0.2698,0.433226 z m 1.60181,-0.830349 c 0.0104,-0.252344 0.0617,-0.303668 0.13087,-0.130869 0.0626,0.156364 0.0549,0.343194 -0.0171,0.415174 -0.072,0.07197 -0.12318,-0.05594 -0.11377,-0.284305 z m 1.96661,-0.30687 c 0,-0.297843 0.0492,-0.419689 0.10927,-0.270768 0.0601,0.148921 0.0601,0.392614 0,0.541535 -0.0601,0.148921 -0.10927,0.02709 -0.10927,-0.270767 z m 1.24766,0.343199 c -0.18683,-0.186824 0.0383,-1.426264 0.25902,-1.426264 0.21494,0 0.21694,0.299428 0.007,1.045955 -0.078,0.277435 -0.19773,0.448575 -0.266,0.380309 z m -2.45526,-0.530737 c -0.0933,-0.150983 -0.11116,-0.333006 -0.0396,-0.404511 0.19386,-0.193857 0.40523,0.09127 0.30053,0.405383 -0.0734,0.220115 -0.1244,0.219944 -0.26087,-6.1e-4 z m 1.82324,-0.24568 c 0,-0.238276 0.0884,-0.433226 0.19634,-0.433226 0.10798,0 0.14535,0.19495 0.083,0.433226 -0.0623,0.238276 -0.15066,0.433226 -0.19634,0.433226 -0.0457,0 -0.083,-0.19495 -0.083,-0.433226 z m -8.77282,0 c 0.59622,-0.256206 0.80819,-0.256206 0.64984,0 -0.0736,0.119138 -0.34745,0.209762 -0.60847,0.201386 -0.45756,-0.0147 -0.45905,-0.0219 -0.0414,-0.201386 z m 10.93895,-0.276033 c 0,-0.310665 0.0838,-0.616627 0.18617,-0.679902 0.10238,-0.06328 0.15876,0.134523 0.12527,0.439564 -0.0834,0.759796 -0.31144,0.935773 -0.31144,0.240338 z m 0.64984,0.01214 c 0,-0.520202 0.23445,-1.035797 0.471,-1.035797 0.11496,0 0.14215,0.218052 0.0608,0.48738 -0.19739,0.653341 -0.53178,0.998194 -0.53178,0.548417 z m -10.39742,-0.03788 c 0,-0.04685 0.14622,-0.141235 0.32492,-0.209817 0.17871,-0.06857 0.32492,-0.03026 0.32492,0.08513 0,0.115399 -0.14621,0.209817 -0.32492,0.209817 -0.1787,0 -0.32492,-0.03831 -0.32492,-0.08513 z m 11.53074,-0.564712 c 0,-0.41698 0.0446,-0.587558 0.0991,-0.379071 0.0545,0.208487 0.0545,0.549655 0,0.758142 -0.0545,0.208493 -0.0991,0.03789 -0.0991,-0.379071 z m 0.8333,0.306871 c 0.0104,-0.252344 0.0617,-0.303668 0.13087,-0.130869 0.0626,0.156363 0.0549,0.343193 -0.0171,0.415174 -0.072,0.07198 -0.12317,-0.05594 -0.11377,-0.284305 z m -11.06436,-0.103185 c 0,-0.151739 0.0616,-0.214337 0.13678,-0.139099 0.0752,0.07523 0.31893,0.03929 0.54154,-0.07983 0.27409,-0.146694 0.40474,-0.14423 0.40474,0.0076 0,0.123329 -0.0895,0.224238 -0.19889,0.224238 -0.10939,0 -0.35309,0.05918 -0.54153,0.13148 -0.20192,0.07748 -0.34264,0.01818 -0.34264,-0.144413 z m 13.26801,-0.745215 c 0.002,-0.476552 0.0468,-0.645996 0.0986,-0.376546 0.0518,0.269444 0.0498,0.65935 -0.004,0.866446 -0.0542,0.207102 -0.0966,-0.01336 -0.0942,-0.4899 z m -11.64341,0.381145 c 0.33489,-0.346543 1.19137,-0.553181 1.19137,-0.28744 0,0.127172 -0.13824,0.231211 -0.3072,0.231211 -0.16897,0 -0.48576,0.06309 -0.704,0.140191 -0.27066,0.09562 -0.32793,0.06893 -0.18017,-0.08396 z m 13.13927,-0.489455 c 0,-0.297842 0.0492,-0.419688 0.10926,-0.270761 0.0601,0.148921 0.0601,0.392608 0,0.541529 -0.0601,0.148921 -0.10926,0.02709 -0.10926,-0.270768 z m 1.11082,-0.541529 c 0.002,-0.595684 0.0437,-0.813664 0.0935,-0.484404 0.0498,0.329266 0.0484,0.816647 -0.003,1.083065 -0.0514,0.266424 -0.0922,-0.0031 -0.0905,-0.598661 z m -12.6255,0.564705 c 0,-0.208346 0.5268,-0.460715 0.93832,-0.449514 0.13918,0.0037 0.0638,0.150007 -0.16742,0.324922 -0.47733,0.361032 -0.7709,0.408482 -0.7709,0.124592 z m 8.86503,0.139289 c -0.15934,-0.53607 -0.15097,-1.028917 0.0175,-1.028917 0.11839,0 0.21525,0.243694 0.21525,0.541536 0,0.430188 -0.1539,0.752511 -0.2327,0.487381 z m 3.31992,-0.920607 c 0.002,-0.476552 0.0468,-0.645996 0.0986,-0.376546 0.0518,0.269444 0.0498,0.65935 -0.004,0.866452 -0.0542,0.207096 -0.0966,-0.01336 -0.0942,-0.489906 z m -10.57651,0.13445 c 0.15885,-0.257017 0.99092,-0.463295 0.99092,-0.245651 0,0.179625 -0.52752,0.436117 -0.89695,0.436117 -0.11643,0 -0.15871,-0.08571 -0.094,-0.190466 z m 1.64076,-0.459372 c 0.1787,-0.11549 0.47113,-0.209976 0.64984,-0.209976 0.28881,0 0.28881,0.0233 0,0.209976 -0.17871,0.115489 -0.47114,0.209981 -0.64984,0.209981 -0.28882,0 -0.28882,-0.0233 0,-0.209981 z m 11.00105,-0.649839 c 0.0525,-0.357408 0.13305,-0.649839 0.1791,-0.649839 0.0461,0 0.0837,0.292431 0.0837,0.649839 0,0.357414 -0.0806,0.649839 -0.17909,0.649839 -0.0985,0 -0.13618,-0.292425 -0.0837,-0.649839 z m -9.37646,0.216613 c 0.23828,-0.102386 0.57944,-0.186159 0.75815,-0.186159 0.2048,0 0.16476,0.06882 -0.10831,0.186159 -0.23827,0.102392 -0.57944,0.186165 -0.75814,0.186165 -0.20481,0 -0.16477,-0.06882 0.1083,-0.186165 z m 10.11473,-0.54153 c 0.004,-0.357414 0.053,-0.4774 0.10788,-0.266643 0.0549,0.210756 0.0513,0.503187 -0.008,0.649838 -0.0594,0.146652 -0.10427,-0.0258 -0.0999,-0.383195 z m -8.27352,0.03172 c 0.29785,-0.157748 0.63254,-0.23697 0.74377,-0.17605 0.22109,0.121096 -0.4403,0.431585 -0.96038,0.450838 -0.17871,0.0067 -0.0812,-0.117033 0.21661,-0.274788 z m 13.039,-0.464936 c 0.004,-0.357415 0.053,-0.477401 0.10789,-0.266644 0.0549,0.210756 0.0513,0.503187 -0.008,0.649839 -0.0594,0.146651 -0.10427,-0.02581 -0.0998,-0.383195 z m -11.73932,0.1375 c 0,-0.254619 0.84051,-0.560563 1.02718,-0.373891 0.16657,0.166569 0.0546,0.25798 -0.5398,0.440693 -0.28039,0.08618 -0.48738,0.05783 -0.48738,-0.0668 z m 1.7329,-0.679036 c 0.17871,-0.115484 0.51987,-0.204619 0.75815,-0.198067 l 0.43322,0.0119 -0.43322,0.186165 c -0.23828,0.102386 -0.57944,0.191521 -0.75815,0.198067 -0.28881,0.01062 -0.28881,-0.01141 0,-0.198067 z m 8.66452,-0.216613 c 0,-0.119132 0.0975,-0.216613 0.21661,-0.216613 0.11914,0 0.21661,0.09748 0.21661,0.216613 0,0.119138 -0.0975,0.216613 -0.21661,0.216613 -0.11914,0 -0.21661,-0.09747 -0.21661,-0.216613 z m 0.90065,-0.216613 c 0,-0.297842 0.0492,-0.419682 0.10925,-0.270761 0.0601,0.148921 0.0601,0.392608 0,0.541529 -0.0601,0.148921 -0.10925,0.02709 -0.10925,-0.270768 z m -7.61598,-0.08154 c 0.29766,-0.173927 0.58197,-0.275471 0.63179,-0.225648 0.13449,0.134487 -0.0282,0.236928 -0.63146,0.397623 l -0.54153,0.144254 z m 8.27385,-0.459989 c 0.004,-0.357414 0.053,-0.4774 0.10788,-0.266644 0.0549,0.210756 0.0513,0.503187 -0.008,0.649839 -0.0594,0.146652 -0.10427,-0.0258 -0.0999,-0.383195 z m 1.50826,0.108303 c 0,-0.297842 0.0492,-0.419682 0.10925,-0.270761 0.0601,0.148921 0.0601,0.392608 0,0.541529 -0.0601,0.148921 -0.10925,0.02709 -0.10925,-0.270768 z m -8.59578,0.0087 c 0.0766,-0.123915 0.39343,-0.225294 0.70409,-0.225294 0.67899,0 0.60044,0.103752 -0.22949,0.303125 -0.40262,0.09672 -0.56592,0.06994 -0.4746,-0.07783 z m 9.26167,-0.441907 c 0,-0.41698 0.0446,-0.587564 0.0991,-0.379077 0.0545,0.208493 0.0545,0.549655 0,0.758148 -0.0545,0.208487 -0.0991,0.03789 -0.0991,-0.379071 z m -7.53921,-0.112958 c 0.22958,-0.173689 0.47044,-0.262764 0.53526,-0.197945 0.13596,0.135963 -0.41419,0.522617 -0.73606,0.517304 -0.11914,-0.0018 -0.0288,-0.145676 0.2008,-0.319359 z m 2.18194,0.112958 c 0.0736,-0.119138 0.17686,-0.216613 0.2294,-0.216613 0.0525,0 0.0955,0.09748 0.0955,0.216613 0,0.119132 -0.10323,0.216613 -0.2294,0.216613 -0.12617,0 -0.16915,-0.09748 -0.0955,-0.216613 z m 6.17346,-0.433226 c 0,-0.238276 0.0884,-0.433226 0.19634,-0.433226 0.10798,0 0.14536,0.19495 0.0831,0.433226 -0.0623,0.23827 -0.15067,0.433226 -0.19634,0.433226 -0.0457,0 -0.0831,-0.194956 -0.0831,-0.433226 z m 1.13332,-0.216613 c 0,-0.41698 0.0446,-0.587564 0.0991,-0.379077 0.0545,0.208493 0.0545,0.549655 0,0.758148 -0.0545,0.208487 -0.0991,0.03789 -0.0991,-0.379071 z m -8.71476,0.240094 c 0,-0.106223 0.23463,-0.25202 0.52141,-0.323995 0.28677,-0.07198 0.67667,-0.190448 0.86645,-0.26327 0.18977,-0.07282 0.34504,-0.03404 0.34504,0.08619 0,0.12023 -0.30698,0.325612 -0.68216,0.456402 -0.827,0.288294 -1.05074,0.297805 -1.05074,0.04466 z m 2.06865,-0.648979 c 0.11318,-0.105747 0.4487,-0.266021 0.74561,-0.356163 0.48318,-0.146694 0.50881,-0.126514 0.24424,0.192266 -0.16257,0.195895 -0.49809,0.356169 -0.74561,0.356169 -0.27217,0 -0.3687,-0.07599 -0.24424,-0.192272 z m 10.49489,-0.240954 c 0,-0.119138 0.10323,-0.216613 0.2294,-0.216613 0.12617,0 0.16915,0.09748 0.0955,0.216613 -0.0736,0.119132 -0.17686,0.216613 -0.2294,0.216613 -0.0525,0 -0.0955,-0.09748 -0.0955,-0.216613 z m -8.71467,-0.253106 c 0.12587,-0.125873 0.35673,-0.186239 0.513,-0.134146 0.16223,0.05405 0.064,0.152264 -0.22887,0.228863 -0.3603,0.09422 -0.44487,0.06603 -0.28413,-0.09472 z m 1.34984,-0.396733 c 0.1787,-0.11549 0.47113,-0.209981 0.64984,-0.209981 0.28881,0 0.28881,0.0233 0,0.209981 -0.17871,0.11549 -0.47114,0.209976 -0.64984,0.209976 -0.28882,0 -0.28882,-0.0233 0,-0.209976 z m 9.1711,-0.433226 c 0.0755,-0.297842 0.13867,-0.766609 0.14029,-1.041696 0.002,-0.275093 0.0903,-0.44619 0.19702,-0.380225 0.20636,0.127539 -0.0439,1.570446 -0.31541,1.818154 -0.0876,0.07991 -0.0974,-0.09839 -0.0219,-0.396233 z m -7.87143,0.13148 c 0,-0.04685 0.14622,-0.14124 0.32492,-0.209817 0.17871,-0.06858 0.32492,-0.03026 0.32492,0.08513 0,0.115398 -0.14621,0.209816 -0.32492,0.209816 -0.1787,0 -0.32492,-0.03831 -0.32492,-0.08513 z m 6.28177,-0.239789 c 0,-0.178704 0.0975,-0.324916 0.21662,-0.324916 0.11914,0 0.21661,0.146212 0.21661,0.324916 0,0.178704 -0.0975,0.324922 -0.21661,0.324922 -0.11914,0 -0.21662,-0.146218 -0.21662,-0.324922 z M 163.71023,38.61267 c 0.2014,-0.201398 0.43878,-0.293572 0.52752,-0.204833 0.0887,0.08873 0.0179,0.252027 -0.1573,0.362862 -0.52736,0.333512 -0.76172,0.233475 -0.37022,-0.158029 z m 32.70854,0 c 0.2014,-0.201398 0.43879,-0.293572 0.52753,-0.204833 0.0887,0.08873 0.0179,0.252027 -0.15731,0.362862 -0.52735,0.333512 -0.76172,0.233475 -0.37022,-0.158029 z m -31.6822,-0.280767 c 0,-0.149781 0.50939,-0.436117 0.77585,-0.436117 0.29557,0 0.0181,0.401655 -0.34263,0.495988 -0.23827,0.06231 -0.43322,0.03538 -0.43322,-0.05985 z m 32.80409,-0.09351 c 0.48152,-0.39234 0.7709,-0.439632 0.7709,-0.125989 0,0.119138 -0.0895,0.216613 -0.1989,0.216613 -0.10939,0 -0.37745,0.05667 -0.59569,0.125989 -0.36308,0.115288 -0.36108,0.0969 0.0237,-0.216613 z m 4.56163,0.09062 c 0.0736,-0.119138 0.17685,-0.216613 0.22939,-0.216613 0.0525,0 0.0955,0.09748 0.0955,0.216613 0,0.119138 -0.10323,0.216613 -0.2294,0.216613 -0.12616,0 -0.16915,-0.09748 -0.0955,-0.216613 z m -36.06605,-0.404036 c 0,-0.25462 0.84052,-0.560563 1.02719,-0.373892 0.16657,0.16657 0.0546,0.257981 -0.53981,0.440693 -0.28038,0.08619 -0.48738,0.05783 -0.48738,-0.0668 z m 32.70854,0.01196 c 0,-0.113977 0.20052,-0.259665 0.4456,-0.323757 0.28345,-0.07412 0.41486,-0.02422 0.36112,0.137195 -0.10372,0.311557 -0.80672,0.474131 -0.80672,0.186562 z m 1.29968,-0.474374 c 0,-0.119138 0.26806,-0.209762 0.59568,-0.201386 0.52786,0.01348 0.54636,0.03642 0.16247,0.201386 -0.59165,0.254241 -0.75815,0.254241 -0.75815,0 z m -32.49193,-0.08513 c 0,-0.04685 0.14622,-0.141234 0.32492,-0.209817 0.1787,-0.06857 0.32492,-0.03026 0.32492,0.08513 0,0.115398 -0.14622,0.209817 -0.32492,0.209817 -0.1787,0 -0.32492,-0.03831 -0.32492,-0.08513 z m 1.19137,-0.348092 c 0.0736,-0.119138 0.34744,-0.215125 0.60847,-0.213301 0.38584,0.0024 0.41383,0.04258 0.14967,0.213301 -0.42675,0.275788 -0.92858,0.275788 -0.75814,0 z m 5.19871,0 c -0.15834,-0.256206 0.0536,-0.256206 0.64984,0 0.41768,0.179485 0.4162,0.186708 -0.0414,0.201386 -0.26102,0.0084 -0.53483,-0.08225 -0.60846,-0.201386 z m 1.40798,0 c 0.42676,-0.275789 0.9286,-0.275789 0.75815,0 -0.0736,0.119138 -0.34744,0.215118 -0.60847,0.213294 -0.38584,-0.0024 -0.41383,-0.04258 -0.14968,-0.213294 z m 26.31847,0 c 0.0736,-0.119138 0.34744,-0.209762 0.60846,-0.201386 0.45757,0.0147 0.45905,0.0219 0.0414,0.201386 -0.59623,0.256205 -0.80819,0.256205 -0.64984,0 z m -24.85233,-0.253108 c 0.12587,-0.125873 0.35672,-0.186244 0.51299,-0.134151 0.16224,0.05405 0.064,0.152264 -0.22886,0.228863 -0.3603,0.09422 -0.44487,0.06603 -0.28413,-0.09471 z m -6.66485,-0.180125 c 0,-0.119138 0.20071,-0.216613 0.44602,-0.216613 0.2453,0 0.38576,0.09748 0.31213,0.216613 -0.0736,0.119138 -0.27433,0.216613 -0.44601,0.216613 -0.17168,0 -0.31214,-0.09747 -0.31214,-0.216613 z m 3.09214,-0.228863 c -0.0691,-0.264307 -0.23705,-0.399215 -0.41294,-0.331719 -0.16305,0.06257 -0.29645,0.02977 -0.29645,-0.07288 0,-0.364308 0.64147,-0.426082 0.83493,-0.0804 0.17108,0.305711 0.2158,0.290515 0.34524,-0.117302 0.0818,-0.257682 0.23163,-0.468512 0.333,-0.468512 0.10136,0 0.33848,-0.05917 0.52693,-0.131479 0.18845,-0.07232 0.34264,-0.02361 0.34264,0.108303 0,0.131882 -0.14371,0.239789 -0.31936,0.239789 -0.17565,0 -0.47057,0.292425 -0.6554,0.649839 -0.39602,0.765811 -0.5407,0.80813 -0.69859,0.204363 z m 4.48932,0.198769 c 0,-0.102587 0.18919,-0.186519 0.42044,-0.186519 0.23124,0 0.48068,-0.09748 0.55431,-0.216613 0.15869,-0.256755 0.75815,-0.292138 0.75815,-0.04478 0,0.09453 -0.38991,0.275935 -0.86645,0.403132 -0.47655,0.127197 -0.86645,0.147341 -0.86645,0.04478 z m 25.452,0.03008 c 0.0736,-0.119138 0.29871,-0.215125 0.50017,-0.213301 0.31566,0.0031 0.32138,0.03233 0.0414,0.213301 -0.42421,0.274141 -0.71096,0.274141 -0.54153,0 z m 1.46215,-0.107407 c -0.3432,-0.389796 -0.33965,-0.469646 0.0271,-0.610374 0.20217,-0.07758 0.29785,0.05417 0.29785,0.41005 0,0.288386 -0.0121,0.520634 -0.0271,0.516102 -0.0149,-0.0043 -0.14892,-0.146628 -0.29784,-0.315778 z m -33.19593,-0.325819 c 0.41996,-0.271402 0.64984,-0.271402 0.64984,0 0,0.119138 -0.21932,0.215118 -0.48738,0.213294 -0.39411,-0.0024 -0.4252,-0.0435 -0.16246,-0.213294 z m 8.23129,-0.175386 c 0,-0.116319 0.15436,-0.270725 0.34302,-0.34312 0.21096,-0.08095 0.30999,-0.03252 0.25723,0.125745 -0.10794,0.323806 -0.60025,0.502089 -0.60025,0.217375 z m 0.97476,-0.474453 c 0.0736,-0.119138 0.2256,-0.216613 0.3377,-0.216613 0.11211,0 0.20383,0.09748 0.20383,0.216613 0,0.119138 -0.15197,0.216613 -0.3377,0.216613 -0.18574,0 -0.27746,-0.09748 -0.20383,-0.216613 z m 22.24505,-0.541536 c 0.004,-0.357408 0.053,-0.4774 0.10788,-0.266643 0.0549,0.210762 0.0513,0.503187 -0.008,0.649839 -0.0594,0.146657 -0.10427,-0.02581 -0.0999,-0.383196 z m -29.8626,0 c 0,-0.178704 0.0812,-0.324916 0.18051,-0.324916 0.0993,0 0.18051,0.146212 0.18051,0.324916 0,0.17871 -0.0812,0.324923 -0.18051,0.324923 -0.0993,0 -0.18051,-0.146213 -0.18051,-0.324923 z m 2.31053,0.113294 c 0,-0.09409 0.19495,-0.222049 0.43323,-0.28436 0.23828,-0.06231 0.43323,-0.0363 0.43323,0.05777 0,0.09409 -0.19495,0.222048 -0.43323,0.284359 -0.23828,0.06231 -0.43323,0.0363 -0.43323,-0.05777 z m 6.28177,0.126495 c 0,-0.04685 0.14622,-0.141234 0.32493,-0.20981 0.1787,-0.06858 0.32491,-0.03026 0.32491,0.08513 0,0.115398 -0.14621,0.209817 -0.32491,0.209817 -0.17871,0 -0.32493,-0.03831 -0.32493,-0.08513 z m 19.49516,-0.131479 c 0,-0.119138 0.0975,-0.216613 0.21662,-0.216613 0.11914,0 0.21661,0.09748 0.21661,0.216613 0,0.119138 -0.0975,0.216613 -0.21661,0.216613 -0.11914,0 -0.21662,-0.09748 -0.21662,-0.216613 z m -18.41209,-0.193441 c 0,-0.270786 0.61148,-0.477095 0.74997,-0.253027 0.0627,0.101452 -0.0397,0.243406 -0.2274,0.31546 -0.45407,0.174245 -0.52257,0.166064 -0.52257,-0.06243 z m -5.63193,-0.239789 c 0.42421,-0.274147 0.71096,-0.274147 0.54153,0 -0.0736,0.119138 -0.2987,0.215118 -0.50016,0.213294 -0.31567,-0.0031 -0.32139,-0.03233 -0.0414,-0.213294 z m 6.88145,-0.2531 c 0.12588,-0.125874 0.35672,-0.186245 0.51299,-0.134152 0.16224,0.05405 0.0641,0.152264 -0.22885,0.228863 -0.36031,0.09422 -0.44488,0.06603 -0.28414,-0.09471 z m 14.39686,-0.396739 c 0,-0.41698 0.0446,-0.587564 0.0991,-0.379071 0.0545,0.208487 0.0545,0.549655 0,0.758142 -0.0545,0.208493 -0.0991,0.03789 -0.0991,-0.379071 z m 2.76571,-0.108309 c 0,-0.416974 0.0975,-0.758143 0.21662,-0.758143 0.11914,0 0.21661,0.341169 0.21661,0.758143 0,0.41698 -0.0975,0.758148 -0.21661,0.758148 -0.11914,0 -0.21662,-0.341168 -0.21662,-0.758148 z m -39.85676,0.367333 c 0,-0.217327 1.25348,-2.208541 1.39029,-2.208541 0.16716,0 -1.05322,2.354967 -1.22783,2.369352 -0.0893,0.0074 -0.16246,-0.065 -0.16246,-0.160811 z m 1.73673,0.130241 c -0.0119,-0.473111 1.46612,-3.107161 1.6438,-2.929481 0.055,0.05503 -0.29144,0.770941 -0.76995,1.590906 -0.47851,0.819966 -0.87174,1.422324 -0.87385,1.338575 z m 15.15907,-0.172652 c 0.42676,-0.275788 0.9286,-0.275788 0.75815,0 -0.0736,0.119138 -0.34744,0.215118 -0.60848,0.213294 -0.38583,-0.0024 -0.41382,-0.04258 -0.14967,-0.213294 z m 19.29565,-0.126355 c 0.0104,-0.252344 0.0617,-0.303674 0.13087,-0.130876 0.0626,0.15637 0.0548,0.3432 -0.0171,0.415181 -0.072,0.07197 -0.12318,-0.05594 -0.11377,-0.284305 z m -24.23552,-0.41518 c 0.004,-0.357408 0.053,-0.477401 0.10789,-0.266644 0.0549,0.210762 0.0513,0.503187 -0.008,0.649839 -0.0594,0.146657 -0.10427,-0.02581 -0.0999,-0.383195 z m 6.45616,0.312263 c 0,-0.103789 0.19495,-0.293047 0.43323,-0.420567 0.33859,-0.181205 0.43323,-0.164734 0.43323,0.07542 0,0.169004 -0.19496,0.358256 -0.43323,0.420567 -0.23828,0.06231 -0.43323,0.02837 -0.43323,-0.07542 z m 5.69986,-0.331743 c 0.814,-0.75478 0.64636,-1.076634 -0.52449,-1.006984 -0.69092,0.04112 -0.86245,-0.0024 -0.6265,-0.159146 0.17871,-0.118656 0.53627,-0.217229 0.79458,-0.219053 0.80156,-0.0055 1.15494,-0.245737 1.15494,-0.784637 0,-0.656446 0.37615,-0.680519 0.48405,-0.03099 0.12707,0.764938 -1.07086,2.761814 -1.65682,2.761814 -0.12693,0 0.0415,-0.252454 0.37424,-0.561015 z m -20.99199,-0.684508 c 0.51662,-1.006936 1.30594,-2.125542 1.17175,-1.660581 -0.15621,0.541248 -1.38081,2.688503 -1.53355,2.688973 -0.0914,2.19e-4 0.0714,-0.462491 0.3618,-1.028392 z m 2.95561,0.764322 c -0.021,-0.314753 1.08198,-2.614253 1.19819,-2.498043 0.066,0.06596 -0.1743,0.69017 -0.53391,1.387129 -0.35962,0.69696 -0.65854,1.196865 -0.66428,1.110914 z m 13.94837,-0.500448 c 0.47732,-0.361026 0.77089,-0.408476 0.77089,-0.124592 0,0.208347 -0.5268,0.460715 -0.93832,0.449515 -0.13917,-0.0037 -0.0638,-0.150007 0.16743,-0.324923 z m 18.69154,-0.08405 c -0.0942,-0.360299 -0.066,-0.444871 0.0947,-0.284134 0.12587,0.125873 0.18624,0.356725 0.13415,0.512997 -0.0541,0.162233 -0.15227,0.06404 -0.22886,-0.228863 z m -34.68185,-0.233975 c 0.19026,-0.752621 0.67847,-1.674344 0.98829,-1.865823 0.14274,-0.08822 0.0631,0.173659 -0.17707,0.581946 -0.24012,0.408293 -0.55168,0.986035 -0.69235,1.283877 l -0.25576,0.541536 z m 0.51889,0.367188 c -0.008,-0.394183 0.86062,-2.030978 1.27921,-2.409799 0.55898,-0.505865 0.57915,-0.293346 0.0456,0.480938 -0.22243,0.322806 -0.61069,0.92808 -0.86281,1.34506 -0.25211,0.41698 -0.46003,0.679689 -0.46204,0.583801 z m 2.37909,-0.224922 c 0,-0.09391 0.10971,-0.375741 0.2438,-0.626291 0.13408,-0.250544 0.25851,-0.747997 0.27648,-1.105442 0.0245,-0.487649 0.14332,-0.658056 0.47583,-0.68255 l 0.44315,-0.03264 -0.42341,0.881569 c -0.47668,0.992502 -1.01585,1.823326 -1.01585,1.565364 z m 14.51306,-0.14227 c 0,-0.119138 0.14622,-0.216613 0.32492,-0.216613 0.17871,0 0.32492,0.09748 0.32492,0.216613 0,0.119138 -0.14621,0.216613 -0.32492,0.216613 -0.1787,0 -0.32492,-0.09748 -0.32492,-0.216613 z m 19.31275,-0.433226 c 0,-0.297842 0.0492,-0.419688 0.10926,-0.270767 0.0601,0.148921 0.0601,0.392614 0,0.541535 -0.0601,0.148921 -0.10926,0.02709 -0.10926,-0.270768 z m 0.72394,-0.216613 c -0.0813,-0.25623 -0.0991,-0.514613 -0.0395,-0.574179 0.0595,-0.05954 0.17484,0.101336 0.25616,0.357566 0.0813,0.256231 0.0991,0.514614 0.0395,0.57418 -0.0595,0.05954 -0.17484,-0.101337 -0.25617,-0.357567 z m -33.03096,-0.812297 c 0.97047,-1.540137 1.24427,-1.845325 1.50887,-1.681793 0.13228,0.08175 0.40666,0.01842 0.60973,-0.14077 0.20307,-0.159176 0.11562,0.05173 -0.19433,0.468731 -0.30996,0.41698 -0.76849,1.148048 -1.01898,1.6246 -0.25048,0.476546 -0.45855,0.720233 -0.46238,0.541529 -0.004,-0.178704 0.23555,-0.749137 0.53196,-1.267631 0.2964,-0.518494 0.53892,-0.994912 0.53892,-1.058699 0,-0.201197 -1.33931,1.5455 -1.57615,2.055563 -0.12446,0.268059 -0.30722,0.48738 -0.40613,0.48738 -0.0989,0 0.1119,-0.463009 0.46849,-1.02891 z m 17.7739,0.253723 c 0.14053,-0.169333 0.39554,-0.307877 0.5667,-0.307877 0.43573,0 0.16862,0.356645 -0.37324,0.498343 -0.36864,0.0964 -0.40326,0.06232 -0.19346,-0.190466 z m 1.39384,-0.52449 c 0.0736,-0.119138 0.39618,-0.215119 0.71678,-0.213295 0.45591,0.0024 0.51211,0.04905 0.25798,0.213295 -0.428,0.276593 -1.14571,0.276593 -0.97476,0 z m 1.6246,-0.433226 c 0.4238,-0.273885 0.86645,-0.273885 0.86645,0 0,0.119138 -0.26806,0.215124 -0.59569,0.2133 -0.46419,-0.0024 -0.52396,-0.04966 -0.27076,-0.2133 z m -4.21719,-0.280108 c -0.0927,-0.21363 -0.10781,-0.449197 -0.0335,-0.523478 0.21997,-0.219974 0.39729,0.08901 0.29605,0.515864 -0.0898,0.378413 -0.10143,0.378754 -0.26252,0.0076 z m 5.62517,0.0635 c 0.0736,-0.119138 0.28009,-0.216613 0.45879,-0.216613 0.1787,0 0.26468,0.09748 0.19105,0.216613 -0.0736,0.119138 -0.28009,0.216613 -0.4588,0.216613 -0.1787,0 -0.26467,-0.09748 -0.19104,-0.216613 z m 1.40798,-0.216613 c 0,-0.119138 0.20071,-0.216613 0.44601,-0.216613 0.2453,0 0.38577,0.09748 0.31214,0.216613 -0.0736,0.119138 -0.27434,0.216613 -0.44601,0.216613 -0.17168,0 -0.31214,-0.09748 -0.31214,-0.216613 z m 1.73291,-0.433226 c 0.1787,-0.11549 0.47113,-0.209976 0.64983,-0.209976 0.28882,0 0.28882,0.0233 0,0.209976 -0.1787,0.11549 -0.47113,0.209982 -0.64983,0.209982 -0.28882,0 -0.28882,-0.0233 0,-0.209982 z m 1.62459,-0.433226 c 0.59549,-0.255888 0.93749,-0.255888 0.54153,0 -0.1787,0.11549 -0.47113,0.204625 -0.64984,0.198073 -0.21424,-0.0079 -0.17735,-0.07532 0.10831,-0.198073 z m 1.40527,-0.313588 c 0.29635,-0.164032 0.63104,-0.241241 0.74376,-0.171572 0.22132,0.136781 -0.42745,0.449941 -0.95766,0.462258 -0.1787,0.0043 -0.0824,-0.126654 0.2139,-0.290686 z m 1.4107,-0.336251 c 0.59165,-0.254241 0.75814,-0.254241 0.75814,0 0,0.119138 -0.26806,0.209762 -0.59568,0.201386 -0.52785,-0.01348 -0.54636,-0.03642 -0.16246,-0.201386 z m 1.40798,-0.19135 c 0,-0.255151 0.83678,-0.465132 0.9733,-0.244237 0.059,0.09547 -0.0464,0.23253 -0.23411,0.304583 -0.47987,0.184146 -0.73919,0.162971 -0.73919,-0.06033 z M 183.58188,27.75746 c 0,-0.09577 0.3572,-0.510038 0.79378,-0.920607 l 0.79378,-0.746484 -0.63132,0.915983 c -0.59426,0.862205 -0.95624,1.146535 -0.95624,0.751108 z m 4.90377,-0.584026 c 0.0686,-0.178704 0.22366,-0.324923 0.34464,-0.324923 0.12679,0 0.10573,0.137642 -0.0497,0.324923 -0.14831,0.178704 -0.30341,0.324916 -0.34465,0.324916 -0.0412,0 -0.0189,-0.146212 0.0497,-0.324916 z m 1.81123,0.01409 c 0,-0.204186 0.46301,-0.831709 1.02891,-1.394493 0.5659,-0.562783 0.81952,-0.774857 0.5636,-0.471275 -0.25592,0.303583 -0.71893,0.931106 -1.02891,1.394493 -0.34892,0.521605 -0.5636,0.701114 -0.5636,0.471275 z m 2.14386,-0.855635 c 0.56822,-0.779543 0.59804,-1.306071 0.0323,-0.569708 -0.22748,0.296061 -0.46754,0.484349 -0.53348,0.41842 -0.24606,-0.246073 1.3461,-1.524246 2.00211,-1.607269 0.92612,-0.11721 0.97594,0.09716 0.21936,0.943929 -0.78024,0.87323 -1.03661,0.81342 -0.28128,-0.06562 1.11194,-1.294034 0.31702,-0.753688 -1.25826,0.855313 l -0.63623,0.649838 z m -3.42242,-0.07909 c 0.42769,-0.55755 1.02519,-1.137214 1.17222,-1.137214 0.0706,0 -0.13183,0.341163 -0.44988,0.758143 -0.31804,0.41698 -0.6761,0.758142 -0.79569,0.758142 -0.11958,0 -0.0866,-0.170578 0.0733,-0.379071 z m 10.61001,-0.613736 c 0.0104,-0.252344 0.0617,-0.303668 0.13087,-0.130869 0.0626,0.156363 0.0549,0.343193 -0.0171,0.415174 -0.072,0.07198 -0.12318,-0.05594 -0.11377,-0.284305 z m -1.96661,-0.03721 c 0,-0.119138 0.14622,-0.33796 0.32492,-0.486271 0.18125,-0.150428 0.32492,-0.173884 0.32492,-0.05307 0,0.119138 -0.14622,0.33796 -0.32492,0.486271 -0.18125,0.150428 -0.32492,0.173884 -0.32492,0.05307 z m -39.8225,28.862934 c 0.16365,0.163654 1.48202,-2.620409 1.48202,-3.129654 0,-0.960236 -0.40966,-1.063756 -1.94043,-0.490321 -0.77939,0.291961 -1.63639,0.579713 -1.90445,0.639443 -0.4033,0.08986 -0.48245,0.244371 -0.45886,0.89565 l 0.0285,0.78704 0.15958,-0.758142 0.15959,-0.758148 0.0437,0.866451 c 0.0351,0.694953 0.0806,0.780703 0.2299,0.433226 0.17948,-0.417681 0.18671,-0.416193 0.20139,0.04136 0.0177,0.551095 0.36064,0.845497 0.52115,0.447361 0.0603,-0.149665 0.1174,-0.05857 0.12681,0.202478 0.0199,0.551626 0.36276,0.844899 0.52303,0.447361 0.0603,-0.149665 0.1174,-0.04087 0.12681,0.241784 0.0135,0.404608 0.0789,0.462594 0.3078,0.272647 0.15988,-0.132688 0.33691,-0.195036 0.3934,-0.138544 z m 10.79637,-0.32308 c 0.25451,-0.357415 0.41399,-0.649839 0.35443,-0.649839 -0.0596,0 -0.31654,0.292424 -0.57104,0.649839 -0.2545,0.357408 -0.41398,0.649838 -0.35442,0.649838 0.0596,0 0.31654,-0.29243 0.57103,-0.649838 z m -5.24054,-0.98049 c -0.0667,-0.06669 -0.18781,0.0535 -0.26916,0.267156 -0.11755,0.308713 -0.0927,0.333597 0.12126,0.121255 0.14804,-0.146932 0.2146,-0.32172 0.1479,-0.388411 z m 1.20755,0.211092 c 0.074,-0.192766 0.0376,-0.279718 -0.0851,-0.203826 -0.11777,0.07278 -0.21413,0.224061 -0.21413,0.336165 0,0.311587 0.15526,0.242925 0.29926,-0.132339 z m 11.13938,-1.294157 c -0.0667,-0.06669 -0.18781,0.0535 -0.26915,0.267156 -0.11756,0.308713 -0.0927,0.333598 0.12126,0.121261 0.14803,-0.146938 0.21459,-0.321726 0.14789,-0.388417 z m -26.71138,0.116515 c 0.0759,-0.122786 -0.011,-0.159097 -0.20383,-0.08513 -0.37526,0.144004 -0.44392,0.299264 -0.13234,0.299264 0.11211,0 0.26338,-0.09636 0.33617,-0.214136 z m 5.67313,-0.259708 c -0.0692,-0.172798 -0.12048,-0.121468 -0.13087,0.130876 -0.009,0.228344 0.0418,0.356279 0.11377,0.284299 0.072,-0.07198 0.0797,-0.258805 0.0171,-0.415175 z m 15.44815,-0.475411 c 0,-0.119138 -0.14311,-0.02739 -0.31803,0.203863 -0.17491,0.23126 -0.31802,0.51795 -0.31802,0.637082 0,0.119138 0.14311,0.02739 0.31802,-0.203856 0.17492,-0.231261 0.31803,-0.517951 0.31803,-0.637089 z m -22.47358,0.589181 c -0.14892,-0.06009 -0.39261,-0.06009 -0.54153,0 -0.14892,0.06009 -0.0271,0.109261 0.27076,0.109261 0.29785,0 0.41969,-0.04917 0.27077,-0.109261 z m 17.7081,-0.423636 c 0,-0.17871 -0.0975,-0.264679 -0.21661,-0.191051 -0.11914,0.07363 -0.21661,0.280089 -0.21661,0.458793 0,0.17871 0.0975,0.264679 0.21661,0.191045 0.11914,-0.07363 0.21661,-0.280083 0.21661,-0.458787 z M 149.15986,51.41064 c 0.36313,-0.437539 -0.0389,-0.360715 -0.66926,0.127874 -0.51463,0.39891 -0.51768,0.413649 -0.0613,0.296695 0.26415,-0.06769 0.59288,-0.258744 0.73051,-0.424569 z m 1.17042,0.350801 c 0.0761,-0.123122 -0.0116,-0.158902 -0.20629,-0.08419 -0.25704,0.09864 -0.30426,0.03282 -0.19598,-0.273245 0.11193,-0.316369 0.0839,-0.348952 -0.1303,-0.1513 -0.15012,0.138544 -0.20745,0.35786 -0.12741,0.487381 0.18142,0.293535 0.48567,0.303381 0.65998,0.02135 z m 1.29112,-0.607367 c 0.40047,-0.555066 0.4012,-0.569079 0.0136,-0.261562 -0.37373,0.296512 -0.39652,0.290229 -0.26067,-0.07187 0.0819,-0.218229 0.14886,-0.517779 0.14886,-0.665657 0,-0.179998 0.35433,-0.263643 1.07194,-0.253052 0.6768,0.01001 0.99619,0.09168 0.86645,0.221603 -0.11302,0.113184 -0.20224,0.308134 -0.19828,0.433226 0.004,0.125092 0.20603,-0.01147 0.44904,-0.30346 l 0.44183,-0.530897 -0.46719,-0.172823 c -0.79479,-0.294017 -2.13557,-0.394255 -2.27416,-0.170022 -0.0725,0.117301 -0.24522,0.213275 -0.38383,0.213275 -0.13862,0 -0.0408,-0.147993 0.21751,-0.328881 0.25825,-0.180882 0.58876,-0.302729 0.73448,-0.270762 0.14572,0.03197 0.38683,-0.176172 0.53582,-0.462527 l 0.27087,-0.520635 0.0755,0.628945 0.0754,0.628944 0.47499,-0.894941 c 0.30604,-0.576614 0.67386,-0.944857 1.03408,-1.035267 0.30749,-0.07717 0.5006,-0.234933 0.42913,-0.350582 -0.0715,-0.115642 0.0129,-0.210262 0.18747,-0.210262 0.21018,0 0.27936,0.145547 0.20477,0.430792 -0.062,0.236934 -0.1961,0.379217 -0.29809,0.316186 -0.10198,-0.06303 -0.33243,0.237221 -0.5121,0.667226 -0.29052,0.695312 -0.29069,0.83673 -0.002,1.277892 0.3903,0.595666 0.21318,1.227514 -0.29841,1.064519 -0.31017,-0.09882 -0.31528,-0.08178 -0.0362,0.120737 0.25111,0.182242 0.41315,0.1296 0.71336,-0.231755 0.27498,-0.33098 0.31591,-0.512387 0.1401,-0.621044 -0.31415,-0.194151 0.11294,-1.083608 0.50798,-1.057936 0.19835,0.01287 0.19647,0.04398 -0.008,0.126361 -0.14893,0.06009 -0.27077,0.236915 -0.27077,0.392943 0,0.375552 0.59538,0.593403 0.78467,0.287118 0.09,-0.145706 0.0501,-0.179656 -0.10136,-0.08606 -0.28316,0.175001 -0.30692,0.09591 -0.1186,-0.394823 0.0723,-0.188453 0.26726,-0.342638 0.43322,-0.342638 0.16596,0 0.30175,-0.09747 0.30175,-0.216613 0,-0.119138 0.10323,-0.216613 0.22939,-0.216613 0.12617,0 0.16916,0.09748 0.0955,0.216613 -0.0736,0.119138 -0.0306,0.216613 0.0955,0.216613 0.12616,0 0.2294,-0.243688 0.2294,-0.54153 0,-0.297842 0.0975,-0.541535 0.21661,-0.541535 0.11914,0 0.2002,-0.0731 0.18015,-0.162458 -0.0201,-0.08935 0.0397,-0.529072 0.13286,-0.977153 0.17062,-0.820942 0.52908,-1.294322 0.58196,-0.768538 0.0158,0.155955 0.10041,-0.05759 0.18818,-0.474594 l 0.15958,-0.758142 0.0285,0.703994 c 0.0157,0.387191 0.14224,0.703987 0.28123,0.703987 0.13899,0 0.18858,-0.06413 0.11019,-0.142527 -0.0784,-0.07839 -0.0373,-0.269353 0.0914,-0.424356 0.26281,-0.316675 0.0584,-1.599246 -0.25487,-1.599246 -0.10967,0 -0.1994,-0.104436 -0.1994,-0.232084 0,-0.343487 -0.50837,-0.789829 -0.79193,-0.695307 -0.1356,0.0452 -0.2322,-0.09318 -0.21468,-0.307511 0.024,-0.292992 -0.0965,-0.371623 -0.48536,-0.31687 -0.28446,0.04008 -0.59383,-0.05118 -0.68748,-0.202685 -0.13726,-0.222092 -0.23646,-0.220573 -0.5117,0.0079 -0.29002,0.240692 -0.3426,0.222287 -0.34922,-0.122237 -0.007,-0.341382 -0.0857,-0.310409 -0.49991,0.195609 -0.50446,0.616267 -1.00451,0.580451 -0.51933,-0.03721 0.29886,-0.380462 0.42496,-0.45656 -1.68459,1.016612 -0.56246,0.392791 -1.06109,0.675729 -1.10807,0.628755 -0.14356,-0.143559 0.81048,-1.24573 0.98497,-1.137897 0.0897,0.05545 0.16316,-0.04106 0.16316,-0.214551 0,-0.468999 -0.115,-0.402308 -1.02728,0.595709 -0.66552,0.728066 -0.80635,0.809869 -0.70105,0.407225 l 0.13176,-0.503877 -0.61733,0.404493 c -0.60784,0.398269 -0.61481,0.397934 -0.45384,-0.02154 0.0899,-0.234323 0.0852,-0.347812 -0.0104,-0.252204 -0.0957,0.09561 -0.17834,0.402186 -0.18375,0.681293 -0.008,0.422074 0.0556,0.472441 0.37907,0.299319 0.23414,-0.1253 0.38892,-0.128118 0.38892,-0.0071 0,0.279864 -0.58418,0.475619 -0.97351,0.326222 -0.17803,-0.06831 -0.26808,-0.235836 -0.20012,-0.372275 0.068,-0.136439 -0.0761,-0.02129 -0.32011,0.255833 -0.24402,0.277149 -0.53721,0.446099 -0.65152,0.375448 -0.11431,-0.07064 -0.36072,0.08982 -0.54758,0.356597 -0.3836,0.547666 -0.45949,0.17483 -0.11118,-0.546197 0.22447,-0.46468 0.22238,-0.465394 -0.11763,-0.0399 -0.19041,0.238276 -0.45996,0.433225 -0.59901,0.433225 -0.35394,0 -1.2819,1.432152 -1.15025,1.775224 0.0597,0.15543 0.0326,0.282596 -0.06,0.282596 -0.0926,0 -0.35763,0.146451 -0.58889,0.325454 -0.41403,0.320463 -0.41383,0.32322 0.0128,0.179881 0.42374,-0.142381 0.42444,-0.135548 0.0319,0.311855 -0.22072,0.251582 -0.35025,0.584905 -0.28787,0.740719 0.0738,0.184225 0.11942,0.150733 0.13054,-0.09577 0.0176,-0.390985 0.66693,-0.549149 0.66693,-0.162458 0,0.119138 -0.0871,0.216613 -0.19344,0.216613 -0.10639,0 -0.25199,0.152588 -0.32356,0.339082 -0.0998,0.260049 -0.0298,0.307237 0.30038,0.202454 0.33016,-0.10479 0.40018,-0.05759 0.30038,0.202447 -0.0976,0.254266 0.0111,0.339082 0.4346,0.339082 0.69378,0 0.72365,0.339485 0.0773,0.878677 -0.65627,0.547484 -0.15069,0.536173 0.54649,-0.0122 0.66274,-0.521306 0.68635,-0.52327 1.11679,-0.09283 0.18721,0.187214 0.34039,0.235952 0.34039,0.108309 0,-0.127648 0.1079,-0.23209 0.23979,-0.23209 0.13188,0 0.17952,0.157072 0.10585,0.349038 -0.0958,0.249758 -0.0408,0.313307 0.19344,0.223415 0.18005,-0.06909 0.32737,-0.01928 0.32737,0.110707 0,0.155901 0.11059,0.14456 0.32492,-0.03331 0.23523,-0.195218 0.32492,-0.200434 0.32492,-0.01891 0,0.183633 0.11597,0.18869 0.43323,0.01891 0.54389,-0.291082 0.59224,0.09536 0.0542,0.432805 -0.31549,0.197854 -0.28824,0.212996 0.16247,0.09028 l 0.54153,-0.147433 -0.42108,0.47133 c -0.26858,0.300624 -0.3078,0.425399 -0.10831,0.344506 0.17203,-0.06976 0.50318,-0.390748 0.73591,-0.713316 z m -3.78064,-1.800772 c 0,-0.274569 0.89541,-0.467987 1.12121,-0.242193 0.13712,0.137123 -0.0224,0.245426 -0.45503,0.308921 -0.3664,0.05381 -0.66618,0.02373 -0.66618,-0.06673 z m 2.27443,0.02294 c -0.0736,-0.119138 0.0239,-0.216613 0.21662,-0.216613 0.19277,0 0.29024,0.09748 0.21661,0.216613 -0.0736,0.119138 -0.1711,0.216613 -0.21661,0.216613 -0.0455,0 -0.14298,-0.09748 -0.21662,-0.216613 z m 4.5257,-0.775865 c 0.0723,-0.188446 0.13833,-0.456505 0.14671,-0.595684 0.008,-0.139172 0.0936,-0.05808 0.1895,0.180181 0.19308,0.479944 0.10476,0.758142 -0.24069,0.758142 -0.12485,0 -0.16784,-0.154186 -0.0955,-0.342639 z m -7.01674,-0.09059 c 0,-0.119138 0.0917,-0.216613 0.20382,-0.216613 0.11211,0 0.26408,0.09748 0.33771,0.216613 0.0736,0.119138 -0.0181,0.216613 -0.20383,0.216613 -0.18574,0 -0.3377,-0.09748 -0.3377,-0.216613 z m 4.07503,0.06864 c 0.15636,-0.06257 0.34319,-0.05491 0.41517,0.01708 0.072,0.07198 -0.0559,0.123177 -0.2843,0.11377 -0.25235,-0.01037 -0.30367,-0.06172 -0.13087,-0.13087 z m 3.54964,-0.447715 c 0.0511,-0.25842 0.25385,-0.366047 0.63698,-0.338143 0.41495,0.0302 0.62831,-0.104624 0.81545,-0.515376 0.29024,-0.637015 0.49361,-0.590785 0.32009,0.07276 -0.0641,0.245218 -0.45347,0.606494 -0.86521,0.802835 -0.93575,0.446232 -0.99964,0.444676 -0.90731,-0.02208 z m -8.27451,-0.175245 c 0,-0.185738 0.0975,-0.27746 0.21661,-0.203826 0.11914,0.07363 0.21661,0.225593 0.21661,0.337703 0,0.112104 -0.0975,0.203826 -0.21661,0.203826 -0.11914,0 -0.21661,-0.151965 -0.21661,-0.337703 z m -0.64984,-0.09552 c 0,-0.119138 0.10323,-0.216613 0.2294,-0.216613 0.12617,0 0.16915,0.09748 0.0955,0.216613 -0.0736,0.119138 -0.17686,0.216613 -0.2294,0.216613 -0.0525,0 -0.0955,-0.09748 -0.0955,-0.216613 z m 4.11565,0 c 0,-0.119138 0.0975,-0.216613 0.21661,-0.216613 0.11914,0 0.21661,0.09748 0.21661,0.216613 0,0.119138 -0.0975,0.216613 -0.21661,0.216613 -0.11914,0 -0.21661,-0.09748 -0.21661,-0.216613 z m -2.58226,-0.342968 c 0.0104,-0.252344 0.0617,-0.303668 0.13087,-0.130869 0.0626,0.156363 0.0549,0.343193 -0.0171,0.415174 -0.072,0.07197 -0.12318,-0.05594 -0.11377,-0.284305 z m 7.79807,-0.367822 c 0.01,-0.279753 0.0662,-0.357188 0.13452,-0.185304 0.0991,0.249293 0.14656,0.249293 0.3045,0 0.14906,-0.235275 0.18776,-0.222952 0.1904,0.06064 0.002,0.195743 -0.1429,0.412002 -0.32161,0.480585 -0.23102,0.08865 -0.31998,-0.01421 -0.30781,-0.355901 z m -2.29154,0.06094 c 0.0736,-0.119138 0.17686,-0.216613 0.2294,-0.216613 0.0525,0 0.0955,0.09748 0.0955,0.216613 0,0.119138 -0.10322,0.216613 -0.22939,0.216613 -0.12617,0 -0.16916,-0.09748 -0.0955,-0.216613 z m -2.81597,-0.216613 c 0.0736,-0.119138 0.23135,-0.216613 0.35049,-0.216613 0.11913,0 0.15637,0.09747 0.0827,0.216613 -0.0736,0.119138 -0.23135,0.216613 -0.35049,0.216613 -0.11914,0 -0.15637,-0.09748 -0.0827,-0.216613 z m 1.7329,0 c 0.0736,-0.119138 0.17687,-0.216613 0.2294,-0.216613 0.0525,0 0.0955,0.09747 0.0955,0.216613 0,0.119138 -0.10324,0.216613 -0.2294,0.216613 -0.12617,0 -0.16915,-0.09748 -0.0955,-0.216613 z m -4.98209,-0.216613 c 0.0736,-0.119138 0.23135,-0.216613 0.35049,-0.216613 0.11913,0 0.15637,0.09748 0.0827,0.216613 -0.0736,0.119138 -0.23134,0.216613 -0.35048,0.216613 -0.11914,0 -0.15637,-0.09748 -0.0827,-0.216613 z m 2.85207,-0.361019 c -0.0794,-0.07942 -0.14441,-0.245133 -0.14441,-0.368243 0,-0.135732 0.10089,-0.122939 0.25632,0.03252 0.14099,0.140978 0.20597,0.306688 0.14441,0.368243 -0.0616,0.06155 -0.1769,0.04691 -0.25632,-0.03252 z m 6.22117,-0.478859 c 0.017,-0.470768 0.11328,-0.64616 0.31298,-0.569927 0.15867,0.06058 0.37799,0.110127 0.48738,0.110127 0.10939,0 0.18759,0.26806 0.17377,0.595685 -0.0155,0.366491 -0.0632,0.449831 -0.12419,0.216613 -0.12425,-0.475436 -0.41879,-0.486649 -0.67672,-0.02575 -0.15016,0.268328 -0.19183,0.189728 -0.17322,-0.32674 z m -7.44864,0.190039 c 0,-0.119138 0.0975,-0.216613 0.21661,-0.216613 0.11914,0 0.21661,0.09748 0.21661,0.216613 0,0.119138 -0.0975,0.216613 -0.21661,0.216613 -0.11914,0 -0.21661,-0.09748 -0.21661,-0.216613 z m -2.05416,-0.656921 c 0.31049,-0.600431 0.75448,-0.708685 0.75448,-0.183963 0,0.119138 -0.0905,0.160707 -0.20102,0.09238 -0.11056,-0.06833 -0.26334,0.07213 -0.33952,0.312136 -0.0762,0.240002 -0.2319,0.436367 -0.34608,0.436367 -0.11416,0 -0.0547,-0.295615 0.13214,-0.65692 z m 7.14456,0.223695 c 0.0736,-0.119138 0.2256,-0.216613 0.3377,-0.216613 0.1121,0 0.20383,0.09747 0.20383,0.216613 0,0.119138 -0.15197,0.216613 -0.33771,0.216613 -0.18573,0 -0.27746,-0.09748 -0.20382,-0.216613 z m -5.63194,-0.433226 c -0.0736,-0.119138 -0.0306,-0.216612 0.0955,-0.216612 0.12617,0 0.2294,0.09747 0.2294,0.216612 0,0.119139 -0.043,0.216613 -0.0955,0.216613 -0.0525,0 -0.15577,-0.09747 -0.2294,-0.216613 z m 2.92428,-0.770929 c 0,-0.185738 0.0991,-0.276471 0.22014,-0.201642 0.12108,0.07483 0.16407,0.226795 0.0955,0.337703 -0.18569,0.300447 -0.31567,0.244426 -0.31567,-0.136061 z m 3.68241,0.121091 c 0.41997,-0.271396 0.64984,-0.271396 0.64984,0 0,0.119138 -0.21931,0.215124 -0.48737,0.2133 -0.39412,-0.0024 -0.42521,-0.0435 -0.16247,-0.2133 z m 2.29118,-0.02709 c 0.0644,-0.104246 0.30634,-0.189539 0.53758,-0.189539 0.23124,0 0.42044,0.08529 0.42044,0.189539 0,0.104247 -0.24192,0.189539 -0.53759,0.189539 -0.29567,0 -0.48486,-0.08529 -0.42043,-0.189539 z m 1.06633,-0.406152 c -0.0736,-0.119131 0.0181,-0.216612 0.20382,-0.216612 0.18574,0 0.33771,0.09748 0.33771,0.216612 0,0.119139 -0.0917,0.216613 -0.20383,0.216613 -0.11211,0 -0.26408,-0.09747 -0.3377,-0.216613 z m -2.3322,-0.460105 c 0.14693,-0.148036 0.32172,-0.214587 0.38841,-0.147896 0.0667,0.06669 -0.0535,0.187812 -0.26716,0.269157 -0.30871,0.117552 -0.33359,0.09267 -0.12125,-0.121261 z m -2.32499,-0.310824 c 0,-0.185738 0.0991,-0.276471 0.22016,-0.201642 0.12107,0.07483 0.16406,0.226795 0.0955,0.337703 -0.18568,0.300454 -0.31567,0.244426 -0.31567,-0.136061 z m 3.53308,0.04167 c 0.0635,-0.165539 0.006,-0.41033 -0.12752,-0.543988 -0.13365,-0.133657 -0.16781,-0.24301 -0.0759,-0.24301 0.18038,0 0.78599,0.554377 0.78599,0.719502 0,0.05533 -0.15706,0.160872 -0.34904,0.234542 -0.23999,0.09209 -0.31295,0.0399 -0.23353,-0.167046 z m -2.83991,-0.180479 c -0.41414,-0.414131 -0.30101,-0.635838 0.17329,-0.339631 0.43765,0.273318 0.57909,0.599564 0.25994,0.599564 -0.0953,0 -0.29027,-0.116966 -0.43323,-0.259933 z m 1.47296,-0.402686 c 0,-0.126172 0.0975,-0.169157 0.21662,-0.09552 0.11914,0.07363 0.21661,0.176861 0.21661,0.2294 0,0.05252 -0.0975,0.09552 -0.21661,0.09552 -0.11914,0 -0.21662,-0.103228 -0.21662,-0.229393 z m -7.96383,7.712213 c 0.0875,-0.124458 0.16063,-0.298025 0.16246,-0.385709 0.004,-0.200757 -1.91457,1.18672 -1.93279,1.397641 -0.0168,0.193894 1.55356,-0.703707 1.77033,-1.011932 z m 0.0575,0.965086 c 0.16944,-0.274148 -0.11732,-0.274148 -0.54153,0 -0.28001,0.180955 -0.27429,0.210439 0.0414,0.213294 0.20146,0.0018 0.42653,-0.09416 0.50016,-0.213294 z m 4.74876,0.02709 c 0.0644,-0.10424 -0.13518,-0.189532 -0.44357,-0.189532 -0.39629,0 -0.47453,0.0546 -0.26682,0.18622 0.3768,0.238751 0.56434,0.239624 0.71039,0.0031 z m 20.2634,-0.56861 c 0,-0.119132 -0.0945,-0.07039 -0.20998,0.10831 -0.11549,0.178704 -0.20998,0.422397 -0.20998,0.541529 0,0.119138 0.0945,0.0704 0.20998,-0.108303 0.11549,-0.178704 0.20998,-0.422398 0.20998,-0.541536 z m 1.84228,-0.09755 c 0.47635,-0.921155 0.40526,-1.110816 -0.10356,-0.276289 -0.4422,0.725279 -0.51066,0.915373 -0.32966,0.915373 0.0565,0 0.25145,-0.287587 0.43322,-0.639084 z m 0.41313,0.302912 c 0.074,-0.192766 0.0376,-0.279717 -0.0851,-0.203826 -0.11777,0.07279 -0.21413,0.224061 -0.21413,0.336172 0,0.31158 0.15526,0.242918 0.29926,-0.132346 z m -1.64077,-0.427705 c -0.0667,-0.06669 -0.18782,0.0535 -0.26916,0.267156 -0.11756,0.308713 -0.0927,0.333598 0.12126,0.121261 0.14803,-0.146938 0.21459,-0.321726 0.1479,-0.388417 z m -27.57631,0.114038 c 0.0736,-0.119138 0.0306,-0.216613 -0.0955,-0.216613 -0.12617,0 -0.2294,0.09748 -0.2294,0.216613 0,0.119138 0.043,0.216613 0.0955,0.216613 0.0525,0 0.15577,-0.09748 0.2294,-0.216613 z m 6.6067,-0.10831 c 0.15543,-0.187281 0.17648,-0.324916 0.0497,-0.324916 -0.12098,0 -0.27607,0.146212 -0.34465,0.324916 -0.0686,0.178711 -0.0909,0.324923 -0.0497,0.324923 0.0412,0 0.19633,-0.146212 0.34465,-0.324923 z m 3.24918,-0.108303 c 0,-0.119138 -0.043,-0.216613 -0.0955,-0.216613 -0.0525,0 -0.15576,0.09747 -0.22939,0.216613 -0.0736,0.119138 -0.0306,0.216613 0.0955,0.216613 0.12617,0 0.22939,-0.09748 0.22939,-0.216613 z m 21.11193,-0.772241 c 0.20338,-0.428577 0.33109,-0.817915 0.28381,-0.865195 -0.0473,-0.04728 -0.30148,0.35764 -0.5649,0.899828 -0.26341,0.542182 -0.39112,0.931521 -0.2838,0.865195 0.10731,-0.06633 0.36152,-0.47125 0.56489,-0.899828 z m -31.72595,0.555628 c 0,-0.119138 -0.043,-0.216613 -0.0955,-0.216613 -0.0525,0 -0.15576,0.09748 -0.22939,0.216613 -0.0736,0.119138 -0.0306,0.216613 0.0955,0.216613 0.12617,0 0.2294,-0.09748 0.2294,-0.216613 z m 30.53577,-0.541529 c 0,-0.119138 -0.0945,-0.0704 -0.20997,0.108303 -0.11549,0.178704 -0.20998,0.422397 -0.20998,0.541529 0,0.119138 0.0945,0.0704 0.20998,-0.108303 0.11549,-0.178704 0.20997,-0.422397 0.20997,-0.541529 z m -28.91817,-0.295811 c -0.14649,-0.146493 -1.18438,0.440266 -1.18438,0.66958 0,0.105736 0.28943,0.02129 0.64317,-0.187678 0.35375,-0.208962 0.59729,-0.425819 0.54121,-0.481902 z m 18.66588,-0.290027 c -0.32787,-0.525424 -0.42217,-0.319804 -0.23675,0.516194 0.13591,0.612771 0.18239,0.655225 0.31336,0.286251 0.0846,-0.23827 0.0501,-0.599369 -0.0766,-0.802445 z m 12.62313,0.260915 c -0.008,-0.214246 -0.0753,-0.17735 -0.19807,0.10831 -0.25589,0.595482 -0.25589,0.937493 0,0.541529 0.11549,-0.178704 0.20462,-0.471135 0.19807,-0.649839 z m -4.0971,0.191046 c 0,-0.119138 -0.0975,-0.15637 -0.21662,-0.08274 -0.11913,0.07363 -0.21661,0.231346 -0.21661,0.350484 0,0.119138 0.0975,0.156369 0.21661,0.08274 0.11914,-0.07363 0.21662,-0.231346 0.21662,-0.350484 z m -28.37633,-0.191051 c 0,-0.119138 -0.0975,-0.216613 -0.21661,-0.216613 -0.11914,0 -0.21661,0.09748 -0.21661,0.216613 0,0.119138 0.0975,0.216613 0.21661,0.216613 0.11914,0 0.21661,-0.09748 0.21661,-0.216613 z m 12.53842,-1.377826 c -0.0237,-0.437484 -0.0309,-0.439168 -0.12933,-0.03014 -0.0573,0.23827 -0.20318,0.530701 -0.32414,0.649839 -0.14849,0.146249 -0.16811,0.04069 -0.0604,-0.324922 0.0877,-0.297842 0.0831,-0.469037 -0.0104,-0.380432 -0.0935,0.08861 -0.18839,0.471031 -0.21093,0.84984 l -0.041,0.688736 0.40064,-0.494762 c 0.22035,-0.272122 0.38933,-0.703286 0.37551,-0.958144 z m -4.3007,0.499368 c 0.39209,-0.732635 0.12841,-0.92459 -0.29213,-0.212665 -0.21374,0.361843 -0.28907,0.657897 -0.16739,0.657897 0.12167,0 0.32847,-0.200355 0.45952,-0.445232 z m 34.97411,-0.989421 c 0.20476,-0.312514 0.26524,-0.502034 0.13438,-0.421165 -0.25006,0.154546 -0.75439,0.989366 -0.5977,0.989366 0.0501,0 0.25855,-0.255693 0.46332,-0.568201 z m -29.56522,0.02666 c 0,-0.17871 -0.0383,-0.324923 -0.0851,-0.324923 -0.0469,0 -0.14124,0.146213 -0.20981,0.324923 -0.0686,0.178704 -0.0303,0.324916 0.0851,0.324916 0.1154,0 0.20982,-0.146212 0.20982,-0.324916 z m -0.64984,-0.320115 c 0.17871,-0.112843 0.33586,-0.401229 0.34923,-0.640853 0.0134,-0.239631 -0.0597,-0.38375 -0.16246,-0.320268 -0.10273,0.06349 -0.18677,0.0122 -0.18677,-0.113965 0,-0.126172 -0.14621,-0.229399 -0.32491,-0.229399 -0.17871,0 -0.32493,0.103227 -0.32493,0.229399 0,0.126166 0.0873,0.175465 0.19392,0.109548 0.10665,-0.06592 0.25175,0.03087 0.32244,0.215082 0.0839,0.218553 0.0413,0.281041 -0.12242,0.179833 -0.16556,-0.102319 -0.20571,-0.03721 -0.118,0.191368 0.0731,0.190552 0.0166,0.393798 -0.12564,0.451656 -0.14223,0.0579 -0.16112,0.111409 -0.042,0.118986 0.11913,0.0076 0.36282,-0.07854 0.54152,-0.191387 z m 31.8421,-0.438034 c 0.12752,-0.238276 0.18311,-0.433225 0.12354,-0.433225 -0.0595,0 -0.21264,0.194949 -0.34016,0.433225 -0.12752,0.238277 -0.18312,0.433226 -0.12355,0.433226 0.0596,0 0.21265,-0.194949 0.34017,-0.433226 z m -30.82768,-0.69045 c -0.0691,-0.172799 -0.12047,-0.121474 -0.13087,0.13087 -0.009,0.228344 0.0418,0.356279 0.11377,0.284304 0.072,-0.07198 0.0797,-0.25881 0.0171,-0.415174 z M 153.581,42.228014 c 0.0736,-0.119132 0.0306,-0.216613 -0.0955,-0.216613 -0.12617,0 -0.2294,0.09748 -0.2294,0.216613 0,0.119138 0.043,0.216613 0.0955,0.216613 0.0525,0 0.15577,-0.09747 0.2294,-0.216613 z m 45.96159,-0.473837 c -0.0691,-0.172799 -0.12047,-0.121475 -0.13087,0.130869 -0.009,0.228345 0.0418,0.356286 0.11377,0.284305 0.072,-0.07198 0.0797,-0.25881 0.0171,-0.415174 z m 4.62822,-1.280052 c 0.24901,-0.488095 0.41559,-0.924597 0.37018,-0.970009 -0.0454,-0.04539 -0.29463,0.353943 -0.55383,0.887444 -0.59033,1.215087 -0.43072,1.286842 0.18365,0.08257 z m 1.63702,-5.487604 c -0.19038,-0.758539 0.20172,-1.639632 0.72966,-1.639632 0.24122,0 0.43858,-0.103228 0.43858,-0.2294 0,-0.126166 0.0901,-0.173707 0.20022,-0.105649 0.11012,0.06806 0.24503,-0.04801 0.29979,-0.257987 0.0758,-0.290485 0.10558,-0.265235 0.1247,0.105655 0.0138,0.26806 0.0982,0.487363 0.18759,0.487338 0.19915,-4.8e-5 0.1569,-1.873973 -0.0574,-2.545158 -0.1013,-0.31729 -0.0667,-0.48738 0.0991,-0.48738 0.14006,0 0.19442,-0.09747 0.12078,-0.216613 -0.0736,-0.119138 -0.0306,-0.216613 0.0955,-0.216613 0.29053,0 0.29913,0.364558 0.0127,0.541535 -0.36806,0.227472 -0.23881,0.506781 0.18341,0.396366 0.55829,-0.145998 0.36485,-1.154514 -0.22144,-1.154514 -0.23142,0 -0.36052,-0.09747 -0.28689,-0.216613 0.17138,-0.277283 -0.0268,-0.275484 -0.55089,0.0049 -0.33414,0.178826 -0.38966,0.157907 -0.28751,-0.108303 0.0696,-0.181462 0.2299,-0.329931 0.35615,-0.329931 0.12625,0 0.1729,-0.05661 0.10368,-0.125855 -0.0692,-0.06922 -0.32129,-0.02129 -0.56015,0.106571 -0.32047,0.171505 -0.45701,0.164331 -0.52092,-0.02739 -0.0569,-0.170767 -0.26252,-0.09593 -0.59985,0.21834 -0.28229,0.262989 -0.61671,0.475198 -0.74317,0.471574 -0.12645,-0.0037 -0.0593,-0.105943 0.14916,-0.227374 0.47134,-0.274532 0.49323,-0.632489 0.0387,-0.632489 -0.57779,0 -0.94309,0.516029 -0.68799,0.971863 0.1232,0.220145 0.35212,1.138025 0.5087,2.039726 0.15658,0.901707 0.38631,1.673338 0.5105,1.71473 0.12418,0.04142 0.22579,0.219108 0.22579,0.394914 0,0.175813 -0.0912,0.263283 -0.20269,0.194383 -0.12584,-0.07778 -0.12584,0.142674 0,0.581476 0.11148,0.388704 0.20269,0.731751 0.20269,0.762321 0,0.03056 0.0593,0.05558 0.13179,0.05558 0.0725,0 0.0723,-0.236922 -4.3e-4,-0.526497 z m 0.30179,-2.397774 c 0,-0.17871 0.0812,-0.324923 0.18051,-0.324923 0.0993,0 0.18051,0.146213 0.18051,0.324923 0,0.178704 -0.0812,0.324916 -0.18051,0.324916 -0.0993,0 -0.18051,-0.146212 -0.18051,-0.324916 z m -0.84935,-0.234665 c 0.0104,-0.252344 0.0617,-0.303668 0.13087,-0.130869 0.0626,0.156364 0.0549,0.343194 -0.0171,0.415174 -0.072,0.07197 -0.12317,-0.05594 -0.11377,-0.284305 z m 1.46849,-0.243144 c -0.43473,-0.06683 -0.54672,-0.185549 -0.46606,-0.494006 0.14886,-0.56922 0.87508,-0.459214 0.99157,0.150202 0.0522,0.273178 0.0841,0.482086 0.0708,0.464235 -0.0132,-0.01787 -0.28162,-0.07205 -0.59635,-0.120431 z m -1.05236,-0.713566 c 0,-0.119138 0.0975,-0.216612 0.21661,-0.216612 0.11914,0 0.21661,0.09747 0.21661,0.216612 0,0.119139 -0.0975,0.216613 -0.21661,0.216613 -0.11914,0 -0.21661,-0.09747 -0.21661,-0.216613 z m 0.32491,-1.732903 c 0.0736,-0.119138 0.17686,-0.216613 0.2294,-0.216613 0.0525,0 0.0955,0.09748 0.0955,0.216613 0,0.119138 -0.10323,0.216613 -0.2294,0.216613 -0.12617,0 -0.16915,-0.09748 -0.0955,-0.216613 z m 0.97476,5.198711 c 0,-0.119138 -0.043,-0.216613 -0.0955,-0.216613 -0.0525,0 -0.15576,0.09748 -0.2294,0.216613 -0.0736,0.119138 -0.0306,0.216613 0.0955,0.216613 0.12617,0 0.2294,-0.09747 0.2294,-0.216613 z m 1.29968,-0.866452 c 0,-0.119138 -0.043,-0.216613 -0.0955,-0.216613 -0.0525,0 -0.15577,0.09748 -0.2294,0.216613 -0.0736,0.119138 -0.0306,0.216613 0.0955,0.216613 0.12617,0 0.2294,-0.09748 0.2294,-0.216613 z m -33.79161,-2.05782 c 0,-0.17871 -0.0383,-0.324923 -0.0851,-0.324923 -0.0469,0 -0.14124,0.146213 -0.20981,0.324923 -0.0686,0.178704 -0.0303,0.324916 0.0851,0.324916 0.11539,0 0.20981,-0.146212 0.20981,-0.324916 z m 0.57669,-0.379077 c -0.0601,-0.148921 -0.10926,-0.02709 -0.10926,0.270767 0,0.297842 0.0492,0.419689 0.10926,0.270768 0.0601,-0.148921 0.0601,-0.392614 0,-0.541535 z m 1.21037,0.329675 c -0.14892,-0.05228 -0.27077,-0.281841 -0.27077,-0.510185 0,-0.501796 -0.33561,-0.548765 -0.51836,-0.07254 -0.2233,0.581934 -0.15218,0.686424 0.46421,0.681995 0.32762,-0.0024 0.47384,-0.04704 0.32492,-0.09927 z m 0.8585,-0.492134 c 0.0525,-0.357408 0.0148,-0.649838 -0.0837,-0.649838 -0.0985,0 -0.17909,0.29243 -0.17909,0.649838 0,0.357415 0.0377,0.649839 0.0837,0.649839 0.0461,0 0.12665,-0.292424 0.1791,-0.649839 z m 0.60364,-0.252716 c 0,-0.788742 -0.0946,-0.760161 -0.29858,0.09026 -0.0848,0.353626 -0.0532,0.595684 0.0778,0.595684 0.12141,0 0.22075,-0.30867 0.22075,-0.685942 z m 0.64984,-0.08499 c 0,-0.458793 -0.0877,-0.716725 -0.21662,-0.637052 -0.11914,0.07363 -0.21661,0.420549 -0.21661,0.770929 0,0.35038 0.0975,0.637052 0.21661,0.637052 0.11914,0 0.21662,-0.346915 0.21662,-0.770929 z m -2.01816,0.08048 c -0.0691,-0.172799 -0.12048,-0.121475 -0.13087,0.130869 -0.009,0.228345 0.0418,0.35628 0.11377,0.284305 0.072,-0.07198 0.0797,-0.25881 0.0171,-0.415174 z m 2.66799,-0.333195 c 0,-0.678987 -0.10375,-0.600436 -0.30313,0.229498 -0.0967,0.402613 -0.0699,0.565925 0.0778,0.474593 0.12391,-0.07658 0.22529,-0.393419 0.22529,-0.704091 z m 0.6528,0.427961 c 0.002,-0.208493 0.0657,-0.613638 0.14243,-0.900322 0.0904,-0.337666 0.0596,-0.471885 -0.0873,-0.381084 -0.27142,0.167747 -0.47923,1.660477 -0.23118,1.660477 0.0952,0 0.17445,-0.170584 0.17608,-0.379071 z m 0.64688,-0.861187 c 0,-0.958753 -0.11352,-0.871539 -0.28143,0.216204 -0.0752,0.487235 -0.0439,0.766299 0.0776,0.691207 0.11208,-0.06927 0.20378,-0.477607 0.20378,-0.907411 z m 0.94768,0.634228 c 0.0588,-0.09504 0.0173,-0.314357 -0.0922,-0.487375 -0.16096,-0.254449 -0.20508,-0.231773 -0.23083,0.11865 -0.0175,0.23827 -0.10364,0.09206 -0.19141,-0.324922 l -0.15959,-0.758143 -0.0285,0.667885 c -0.0356,0.83227 0.38362,1.299958 0.70256,0.783905 z m 2.20072,-0.710021 c 3.09894,-1.078252 2.99272,-1.918495 -0.15931,-1.260171 -1.34406,0.280718 -1.41311,0.330224 -1.55381,1.114086 -0.13013,0.725023 0.0139,0.737309 1.71312,0.146085 z m -1.34953,-0.181468 c 0.0949,-0.621935 0.36726,-0.832734 0.36726,-0.284268 0,0.251099 -0.0978,0.516968 -0.21727,0.590822 -0.12456,0.07698 -0.18856,-0.05381 -0.14999,-0.306554 z m 0.61807,-0.235384 c 0,-0.297842 0.0492,-0.419689 0.10926,-0.270768 0.0601,0.148927 0.0601,0.392614 0,0.541535 -0.0601,0.148922 -0.10926,0.02709 -0.10926,-0.270767 z m 0.55741,-0.233975 c 0.0766,-0.292907 0.17479,-0.391096 0.22887,-0.228863 0.0521,0.156272 -0.008,0.387124 -0.13415,0.512997 -0.16074,0.160744 -0.18893,0.07617 -0.0947,-0.284134 z m 0.49145,-0.186464 c 0,-0.112104 0.0975,-0.264076 0.21662,-0.337704 0.11913,-0.07363 0.21661,0.01812 0.21661,0.203827 0,0.185738 -0.0975,0.337703 -0.21661,0.337703 -0.11914,0 -0.21662,-0.09172 -0.21662,-0.203826 z m 0.75815,-0.2294 c -0.0736,-0.119138 -0.0306,-0.216613 0.0955,-0.216613 0.12617,0 0.2294,0.09747 0.2294,0.216613 0,0.119138 -0.043,0.216613 -0.0955,0.216613 -0.0525,0 -0.15577,-0.09748 -0.2294,-0.216613 z m -8.77282,0.898956 c 0,-0.299075 1.32075,-2.033156 1.45005,-1.903848 0.0652,0.06515 -0.19391,0.512863 -0.57569,0.994905 -0.38178,0.482043 -0.60711,0.876439 -0.50074,0.876439 0.36603,0 0.85868,-0.543939 1.47141,-1.624594 0.41615,-0.733978 0.49123,-0.982412 0.2329,-0.770777 -0.20964,0.171755 -0.56794,0.326045 -0.79622,0.342864 -0.22828,0.01678 -0.44341,0.07124 -0.47807,0.120938 -0.0346,0.04972 -0.30967,0.431524 -0.61114,0.848504 -0.85265,1.179374 -0.90173,1.299678 -0.5302,1.299678 0.18574,0 0.3377,-0.08285 0.3377,-0.184109 z m 5.63194,-0.370207 c 0,-0.185738 -0.0991,-0.276478 -0.22015,-0.201643 -0.12108,0.07483 -0.16407,0.226795 -0.0955,0.337704 0.18568,0.300447 0.31567,0.244425 0.31567,-0.136061 z m -2.97844,-0.296037 c 0.0894,-0.0088 0.16653,-0.13794 0.17149,-0.286861 0.01,-0.290991 1.50727,-2.079581 1.50727,-1.800168 0,0.09206 -0.29487,0.539681 -0.65526,0.994716 -0.3645,0.460215 -0.56146,0.885309 -0.44386,0.957991 0.11627,0.07186 0.55614,-0.408262 0.97749,-1.066935 0.42134,-0.658666 0.88914,-1.19609 1.03954,-1.194266 0.18373,0.0024 0.19699,0.05551 0.0404,0.162458 -0.29639,0.202399 -1.40393,1.84358 -1.30852,1.938987 0.1777,0.177698 0.78341,-0.235598 0.78341,-0.534538 0,-0.183115 0.36554,-0.656006 0.8123,-1.050872 0.7868,-0.695392 0.7953,-0.718135 0.27076,-0.724376 -0.69901,-0.0083 -2.76188,0.540316 -3.10628,0.826146 -0.14624,0.121365 -0.48835,0.616487 -0.76025,1.100274 l -0.49437,0.879617 0.5017,-0.09304 c 0.27594,-0.05118 0.57482,-0.100281 0.66416,-0.109133 z m -0.4787,-0.0629 c -0.0206,-0.368474 0.74122,-1.678139 1.04367,-1.794202 0.29083,-0.111604 0.2898,-0.07966 -0.008,0.261245 -0.18689,0.213611 -0.49433,0.680817 -0.68317,1.038232 -0.18885,0.357408 -0.34726,0.580036 -0.35203,0.494725 z m 26.4181,-0.698558 c 0,-0.05253 -0.0975,-0.155766 -0.21661,-0.229393 -0.11914,-0.07363 -0.21662,-0.03063 -0.21662,0.09552 0,0.126166 0.0975,0.229394 0.21662,0.229394 0.11913,0 0.21661,-0.04301 0.21661,-0.09552 z m -8.12298,-4.236694 c 0.0736,-0.119138 0.0306,-0.216612 -0.0955,-0.216612 -0.12616,0 -0.2294,0.09747 -0.2294,0.216612 0,0.119132 0.043,0.216613 0.0955,0.216613 0.0525,0 0.15576,-0.09748 0.2294,-0.216613 z m -54.69475,33.605793 c 0,-0.222628 0.65609,-0.529975 0.8077,-0.37837 0.0527,0.05271 -0.10744,0.204662 -0.35593,0.337642 -0.24863,0.133066 -0.45177,0.15138 -0.45177,0.04075 z m 40.08226,-35.934387 c 0.0169,-0.308708 1.71127,-2.044009 1.92336,-1.969801 0.28139,0.09844 -1.29709,2.132265 -1.65488,2.132265 -0.15255,0 -0.27336,-0.07311 -0.26848,-0.162464 z m 1.74787,-0.350332 c -0.18663,-0.224885 -0.16923,-0.359726 0.0723,-0.560179 0.36515,-0.303045 0.77031,-0.130729 0.77031,0.327613 0,0.476961 0.93252,0.376283 1.51159,-0.163196 0.55663,-0.518579 0.29743,-0.779641 -0.40227,-0.405169 -0.23705,0.126867 -0.4919,0.230662 -0.56633,0.230662 -0.30776,0 0.1875,-0.466352 0.93318,-0.878714 0.7713,-0.426521 0.77632,-0.436856 0.14843,-0.306011 -0.35741,0.07448 -0.82102,0.28968 -1.03024,0.47823 -0.51012,0.459715 -0.72032,0.201411 -0.3113,-0.382536 0.26251,-0.374783 0.56683,-0.474008 1.53838,-0.501565 1.23618,-0.03508 1.49594,0.110006 0.8471,0.473118 -0.34076,0.190698 -0.34063,0.227136 0.002,0.569757 0.45748,0.457481 0.32126,0.685057 -0.65398,1.092533 -0.96656,0.403857 -2.53353,0.417809 -2.85915,0.02544 z m 14.41771,-0.06414 c -0.084,-0.084 0.16578,-0.483043 0.55507,-0.886748 l 0.7078,-0.734021 -0.64983,0.127789 c -0.51652,0.101574 -0.45449,0.03721 0.30233,-0.313661 0.52371,-0.242797 0.99338,-0.400259 1.04373,-0.349905 0.10044,0.100428 -1.41128,2.156021 -1.65513,2.250611 -0.0832,0.03227 -0.21997,-0.01007 -0.30397,-0.09407 z m 1.64221,-0.321744 c -0.53244,-0.532446 0.80948,-2.137927 1.78084,-2.130594 0.74988,0.0055 1.05305,0.328809 0.89591,0.954916 -0.25049,0.998029 -2.05973,1.79269 -2.67675,1.175678 z m 1.78816,-0.835656 c 0.44893,-0.468579 0.55796,-0.717263 0.3887,-0.886523 -0.33872,-0.338722 -1.0669,0.10238 -1.47646,0.894368 -0.31069,0.600827 -0.30635,0.643421 0.0655,0.643421 0.21905,0 0.67905,-0.293071 1.02222,-0.651266 z m -19.82144,0.434653 c 0,-0.119138 0.13824,-0.216613 0.3072,-0.216613 0.16896,0 0.48576,-0.05667 0.70399,-0.125995 0.36309,-0.115282 0.36108,-0.09689 -0.0237,0.216613 -0.47431,0.386477 -0.9875,0.451949 -0.9875,0.125995 z m -18.60735,-6.016474 c 1.78246,-1.75719 2.36816,-2.586679 1.62515,-2.301556 -0.16666,0.06395 -0.36736,0.01214 -0.44602,-0.115106 -0.0963,-0.155833 0.36128,-0.231382 1.4015,-0.231382 h 1.5445 l -0.77357,0.729573 c -0.96478,0.9099 -0.97673,1.219943 -0.047,1.219943 0.68107,0 1.87064,-0.783978 1.87421,-1.235182 0.002,-0.342553 1.35043,-0.930904 2.12816,-0.929062 1.30486,0.0031 3.06918,0.26244 3.06918,0.451161 0,0.343597 -2.61434,3.114891 -3.49893,3.708989 -1.25317,0.841634 -2.8778,0.816543 -3.00346,-0.04637 -0.0986,-0.677267 0.0205,-0.866451 0.54554,-0.866451 0.39712,0 0.54153,0.115526 0.54153,0.433226 0,0.238276 -0.0975,0.433225 -0.21661,0.433225 -0.11914,0 -0.21661,0.09748 -0.21661,0.216613 0,0.541316 1.15035,0.163514 2.06266,-0.677425 0.53345,-0.491725 0.96962,-0.954733 0.96924,-1.02891 -4.3e-4,-0.07418 -0.49181,-0.135701 -1.0921,-0.136714 -0.67514,-0.0012 -1.15964,-0.112202 -1.27026,-0.291193 -0.14702,-0.237891 -0.29761,-0.227929 -0.84665,0.056 -0.85212,0.44065 -1.75745,0.440028 -2.38801,-0.0018 -0.48145,-0.337222 -0.53705,-0.306755 -1.97665,1.083064 -0.8147,0.786523 -1.57861,1.430047 -1.69758,1.430047 -0.11896,0 0.65136,-0.855373 1.71184,-1.900828 z m 7.76026,-0.906344 c 0.21357,-0.1143 0.55862,-0.467724 0.76676,-0.785393 0.31138,-0.475235 0.32641,-0.610545 0.0848,-0.763627 -0.67114,-0.425264 -1.44737,-0.20005 -2.11906,0.614822 -0.36608,0.444121 -0.66561,0.882765 -0.66561,0.974755 0,0.238258 1.46973,0.207426 1.93308,-0.04057 z m 4.457,0.443622 c 0.23828,-0.112946 0.64134,-0.212209 0.89569,-0.220579 0.25436,-0.0084 0.61807,-0.252697 0.80824,-0.542938 0.47039,-0.717903 1.22035,-2.061627 1.22035,-2.186536 0,-0.05594 -0.30868,-0.101721 -0.68594,-0.101721 -0.77789,0 -0.75783,-0.141753 0.041,-0.289582 0.29516,-0.0546 0.95497,-0.267705 1.46625,-0.473514 0.51127,-0.205809 0.98474,-0.319042 1.05215,-0.25163 0.0674,0.06742 -0.17349,0.640102 -0.53534,1.27264 -1.40056,2.448238 -1.39524,2.43198 -0.84869,2.590619 0.29468,0.08552 -0.0252,0.150282 -0.81433,0.164844 -0.71482,0.01318 -1.68958,0.07343 -2.16613,0.133865 -0.64767,0.08214 -0.75706,0.05802 -0.43323,-0.09547 z m 4.90219,-0.09328 c -0.2839,-0.342089 -0.11015,-0.575754 0.42815,-0.575754 0.51104,0 0.75868,0.43311 0.38351,0.67074 -0.40697,0.257767 -0.53094,0.24326 -0.81166,-0.09499 z m -21.9063,-0.142528 c -1.13834,-0.07395 -1.59808,-0.152215 -1.02891,-0.175147 0.66245,-0.02672 1.15165,-0.176477 1.37352,-0.420537 0.47018,-0.517212 1.83103,-2.716199 1.73832,-2.808922 -0.0411,-0.04112 -0.30014,-0.11818 -0.57558,-0.171225 -0.27543,-0.05307 -0.60542,-0.207157 -0.7333,-0.342474 -0.17058,-0.180503 -0.11713,-0.214123 0.20072,-0.126245 0.53922,0.149098 5.63455,0.471416 6.44422,0.407653 1.24414,-0.09798 0.58756,0.355767 -2.09864,1.450337 -0.1186,0.04832 -0.0461,-0.170993 0.16127,-0.487381 l 0.37692,-0.575253 h -1.29705 c -1.07536,0 -1.33668,0.07405 -1.5289,0.433226 -0.1974,0.368834 -0.16474,0.433226 0.21974,0.433226 0.24839,0 0.73366,-0.145853 1.0784,-0.324123 0.34473,-0.178271 0.67248,-0.250191 0.72832,-0.159829 0.0919,0.148701 -1.2581,1.78363 -1.47278,1.78363 -0.0497,0 -0.12148,-0.218322 -0.15955,-0.485167 -0.11766,-0.824742 -0.75272,-0.707532 -1.35753,0.250557 -0.6447,1.021278 -0.66122,1.101061 -0.22797,1.101061 0.1787,0 0.32491,0.09747 0.32491,0.216613 0,0.119138 -0.0244,0.197958 -0.0542,0.175148 -0.0298,-0.02282 -0.98017,-0.101617 -2.11197,-0.175148 z m 14.61551,-0.0095 c -0.17614,-0.285001 0.28374,-0.856966 0.68903,-0.856966 0.16785,0 0.36507,0.156053 0.43826,0.346781 0.2121,0.552724 -0.81399,1.017105 -1.12729,0.510185 z m -6.60083,-2.671654 c 0,-0.164117 0.15111,-0.4238 0.33579,-0.577077 0.27663,-0.229577 0.39565,-0.218828 0.67547,0.06101 0.18682,0.186824 0.27366,0.446507 0.19296,0.577078 -0.21347,0.34539 -1.20422,0.295206 -1.20422,-0.06101 z"
       id="path5247" /></g></svg>
