<?xml version="1.0" encoding="UTF-8" standalone="no"?>
<!-- Created with Inkscape (http://www.inkscape.org/) -->

<svg
   width="225mm"
   height="90mm"
   viewBox="0 0 225 90"
   version="1.1"
   style="background-color: #000000;"
   id="svg1"
   inkscape:version="1.2.2 (b0a8486541, 2022-12-01)"
   sodipodi:docname="mug_10_Max_la_Cour_Christensen.svg"
   xml:space="preserve"
   xmlns:inkscape="http://www.inkscape.org/namespaces/inkscape"
   xmlns:sodipodi="http://sodipodi.sourceforge.net/DTD/sodipodi-0.dtd"
   xmlns="http://www.w3.org/2000/svg"
   xmlns:svg="http://www.w3.org/2000/svg"><sodipodi:namedview
     id="namedview1"
     pagecolor="#ffffff"
     bordercolor="#000000"
     borderopacity="0.25"
     inkscape:showpageshadow="2"
     inkscape:pageopacity="0.0"
     inkscape:pagecheckerboard="0"
     inkscape:deskcolor="#d1d1d1"
     inkscape:document-units="mm"
     inkscape:zoom="2.3823884"
     inkscape:cx="670.96532"
     inkscape:cy="118.15874"
     inkscape:window-width="1854"
     inkscape:window-height="1131"
     inkscape:window-x="66"
     inkscape:window-y="32"
     inkscape:window-maximized="1"
     inkscape:current-layer="layer1"
     showgrid="false" /><defs
     id="defs1" /><g
     inkscape:label="Layer 1"
     inkscape:groupmode="layer"
     id="layer1"><rect
       style="fill:#000000;fill-opacity:1;stroke-width:0.213856"
       id="rect1"
       width="225.0"
       height="90.0"
       x="0"
       y="0" /><text
       xml:space="preserve"
       style="font-size:6.35px;font-family:'Abyssinica SIL';-inkscape-font-specification:'Abyssinica SIL';text-align:center;writing-mode:lr-tb;direction:ltr;text-anchor:middle;fill:#ffffff;stroke-width:0.264583"
       x="51.913441"
       y="13.795106"
       id="text1"><tspan
         sodipodi:role="line"
         id="tspan1"
         style="font-size:6.35px;stroke-width:0.264583"
         x="51.913441"
         y="13.795106">Think BIG</tspan><tspan
         sodipodi:role="line"
         style="font-size:6.35px;stroke-width:0.264583"
         x="51.913441"
         y="21.732605"
         id="tspan2">Take CHANCES</tspan><tspan
         sodipodi:role="line"
         style="font-size:6.35px;stroke-width:0.264583"
         x="51.913441"
         y="29.670105"
         id="tspan13">Test against REALITY</tspan><tspan
         sodipodi:role="line"
         style="font-size:6.35px;stroke-width:0.264583"
         x="51.913441"
         y="37.607605"
         id="tspan5">Fail FAST</tspan><tspan
         sodipodi:role="line"
         style="font-size:6.35px;stroke-width:0.264583"
         x="51.913441"
         y="45.545105"
         id="tspan23">Try AGAIN</tspan><tspan
         sodipodi:role="line"
         style="font-size:6.35px;stroke-width:0.264583"
         x="51.913441"
         y="53.482605"
         id="tspan3">Do it RIGHT</tspan><tspan
         sodipodi:role="line"
         style="font-size:6.35px;stroke-width:0.264583"
         x="51.913441"
         y="61.420105"
         id="tspan24">Disrupt EVERYTHING</tspan><tspan
         sodipodi:role="line"
         style="font-size:6.35px;stroke-width:0.264583"
         x="51.913441"
         y="69.357605"
         id="tspan12" /><tspan
         sodipodi:role="line"
         style="font-size:6.35px;stroke-width:0.264583"
         x="51.913441"
         y="77.295105"
         id="tspan22" /></text><text
       xml:space="preserve"
       style="font-size:7.05556px;font-family:'Abyssinica SIL';-inkscape-font-specification:'Abyssinica SIL';text-align:center;writing-mode:lr-tb;direction:ltr;text-anchor:middle;fill:#ffffff;stroke-width:0.264583"
       x="175.90259"
       y="72.352333"
       id="text6"><tspan
         sodipodi:role="line"
         id="tspan6"
         style="text-align:center;text-anchor:middle;stroke-width:0.264583"
         x="175.90259"
         y="72.352333">Max la Cour Christensen</tspan></text><text
       xml:space="preserve"
       style="font-size:3.175px;font-family:'Abyssinica SIL';-inkscape-font-specification:'Abyssinica SIL';text-align:center;writing-mode:lr-tb;direction:ltr;text-anchor:middle;fill:#ffffff;stroke-width:0.264583"
       x="15.705943"
       y="-121.59789"
       id="text7"
       transform="rotate(90)"><tspan
         sodipodi:role="line"
         style="font-size:3.175px;text-align:start;text-anchor:start;stroke-width:0.264583"
         x="15.705943"
         y="-121.59789"
         id="tspan11">multiply by -1 for no reason</tspan><tspan
         sodipodi:role="line"
         style="font-size:3.175px;text-align:start;text-anchor:start;stroke-width:0.264583"
         x="15.705943"
         y="-117.62914"
         id="tspan8">invert matrices without reason</tspan><tspan
         sodipodi:role="line"
         style="font-size:3.175px;text-align:start;text-anchor:start;stroke-width:0.264583"
         x="15.705943"
         y="-113.66039"
         id="tspan9">use the words røvlogik or Titanic</tspan><tspan
         sodipodi:role="line"
         style="font-size:3.175px;text-align:start;text-anchor:start;stroke-width:0.264583"
         x="15.705943"
         y="-109.69164"
         id="tspan33">accept the mediocre</tspan><tspan
         sodipodi:role="line"
         style="font-size:3.175px;text-align:start;text-anchor:start;stroke-width:0.264583"
         x="15.705943"
         y="-105.72289"
         id="tspan36">be afraid of complexity nor simplicity</tspan><tspan
         sodipodi:role="line"
         style="font-size:3.175px;text-align:start;text-anchor:start;stroke-width:0.264583"
         x="15.705943"
         y="-101.75414"
         id="tspan15">purspone it </tspan><tspan
         sodipodi:role="line"
         style="font-size:3.175px;text-align:start;text-anchor:start;stroke-width:0.264583"
         x="15.705943"
         y="-97.785393"
         id="tspan10" /></text><text
       xml:space="preserve"
       style="font-size:7.05556px;font-family:'Abyssinica SIL';-inkscape-font-specification:'Abyssinica SIL';text-align:center;writing-mode:lr-tb;direction:ltr;text-anchor:middle;fill:#ffffff;stroke-width:0.264583"
       x="112.40353"
       y="10.999269"
       id="text29"><tspan
         sodipodi:role="line"
         style="stroke-width:0.264583"
         x="112.40353"
         y="10.999269"
         id="tspan29">don't</tspan></text><text
       xml:space="preserve"
       style="font-size:3.175px;font-family:'Abyssinica SIL';-inkscape-font-specification:'Abyssinica SIL';text-align:start;writing-mode:lr-tb;direction:ltr;text-anchor:start;fill:#ffffff;stroke-width:0.264583"
       x="112.46899"
       y="83.071396"
       id="text34"><tspan
         sodipodi:role="line"
         id="tspan34"
         style="text-align:center;text-anchor:middle;stroke-width:0.264583"
         x="112.46899"
         y="83.071396">Veo Labs</tspan><tspan
         sodipodi:role="line"
         style="text-align:center;text-anchor:middle;stroke-width:0.264583"
         x="112.46899"
         y="87.040146"
         id="tspan35">2025</tspan></text><path
       style="fill:#ffffff;fill-opacity:1;stroke-width:0.115837"
       d="m 174.43329,64.715377 c -0.23337,-0.233382 -0.0228,-0.367125 0.23774,-0.150946 0.16865,0.139966 0.4066,0.07087 0.4066,-0.11806 0,-0.05795 -0.0801,-0.07461 -0.17806,-0.037 -0.26132,0.100277 -0.63279,-0.293075 -0.63279,-0.670066 0,-0.407778 0.39262,-0.688204 0.83982,-0.599839 0.30375,0.05999 0.31854,0.09422 0.31854,0.736188 0,0.716085 -0.17935,1.037299 -0.57919,1.037299 -0.11831,0 -0.30401,-0.0889 -0.41266,-0.197542 z m 0.62307,-0.930876 c -0.022,-0.191535 -0.11711,-0.33282 -0.23936,-0.356003 -0.15742,-0.02983 -0.20271,0.0411 -0.20271,0.317558 0,0.282595 0.0493,0.356003 0.23936,0.356003 0.19264,0 0.23222,-0.06197 0.20271,-0.317558 z m -2.55033,0.462359 c -0.0437,-0.176619 -0.0407,-0.620064 0.01,-1.332129 0.012,-0.164141 0.12437,-0.202716 0.59335,-0.202716 0.31857,0 0.57919,0.05212 0.57919,0.115832 0,0.06371 -0.20849,0.115845 -0.46334,0.115845 -0.38613,0 -0.46335,0.03861 -0.46335,0.231671 0,0.187548 0.0772,0.231673 0.40543,0.231673 0.22298,0 0.40543,0.05211 0.40543,0.115832 0,0.0637 -0.18245,0.115832 -0.40543,0.115832 -0.38612,0 -0.40543,0.01934 -0.40543,0.405429 0,0.42201 -0.16753,0.555267 -0.25486,0.202721 z m 1.37463,0.125483 c -0.0424,-0.04245 -0.0772,-0.329165 -0.0772,-0.6371 0,-0.420442 0.0432,-0.559878 0.17375,-0.559878 0.13339,0 0.17376,0.148015 0.17376,0.637102 0,0.590217 -0.0781,0.75204 -0.27029,0.559876 z m 1.77616,-0.09653 c 0,-0.09557 0.0782,-0.173758 0.17375,-0.173758 0.0956,0 0.17375,0.07819 0.17375,0.173758 0,0.09557 -0.0782,0.173756 -0.17375,0.173756 -0.0956,0 -0.17375,-0.0782 -0.17375,-0.173756 z m 1.73755,-0.417825 c 0,-0.459925 -0.0362,-0.577706 -0.16243,-0.529248 -0.28536,0.109509 -0.31119,-0.0696 -0.0502,-0.347501 0.1391,-0.148072 0.29596,-0.269228 0.34856,-0.269228 0.0526,0 0.0957,0.390954 0.0957,0.868779 0,0.501957 -0.0489,0.868779 -0.1158,0.868779 -0.0637,0 -0.11579,-0.266211 -0.11579,-0.591581 z m 0.87706,0.409546 c -0.47642,-0.47641 0.0735,-1.372963 0.65778,-1.072447 0.21592,0.111054 0.28105,0.443618 0.0869,0.443618 -0.0637,0 -0.1158,-0.05211 -0.1158,-0.115832 0,-0.06371 -0.1043,-0.115832 -0.23168,-0.115832 -0.17916,0 -0.23167,0.07722 -0.23167,0.340676 0,0.425487 0.21646,0.574449 0.42344,0.291392 0.11041,-0.150939 0.19288,-0.177911 0.27946,-0.09133 0.0866,0.08657 0.0669,0.178796 -0.0666,0.312321 -0.23934,0.239343 -0.56682,0.242383 -0.80175,0.0074 z m -4.39392,-1.288382 c -0.13046,-0.13046 -0.0794,-0.267141 0.0996,-0.267141 0.0956,0 0.17375,0.04904 0.17375,0.109006 0,0.146068 -0.18089,0.250681 -0.27343,0.158136 z m 21.00824,-7.292479 v -0.619892 h 0.40541 c 0.223,0 0.40544,0.05211 0.40544,0.115832 0,0.06371 -0.13031,0.115832 -0.28959,0.115832 -0.15928,0 -0.2896,0.05211 -0.2896,0.115832 0,0.06371 0.13032,0.115832 0.2896,0.115832 0.15928,0 0.28959,0.05212 0.28959,0.115832 0,0.06371 -0.13466,0.115833 -0.29924,0.115833 -0.43751,0 -0.28381,0.279426 0.16616,0.302059 0.45395,0.02286 0.67574,-0.28492 0.47528,-0.65949 -0.16249,-0.303615 -0.0259,-0.463664 0.1687,-0.1976 0.13414,0.183457 0.15807,0.183937 0.33528,0.0067 0.26764,-0.267627 0.39566,-0.08342 0.13908,0.200097 -0.20319,0.224514 -0.20319,0.240257 0,0.464764 0.26827,0.296431 0.13153,0.449906 -0.1632,0.183182 -0.20318,-0.183873 -0.23076,-0.184948 -0.32711,-0.0128 -0.0711,0.127219 -0.2993,0.199295 -0.70551,0.22292 l -0.60029,0.03489 z m -40.19541,-0.09862 v -0.637106 h 0.3986 c 0.21922,0 0.4308,0.05211 0.47017,0.115844 0.0418,0.06757 -0.076,0.115832 -0.28274,0.115832 -0.23776,0 -0.35435,0.05717 -0.35435,0.17375 0,0.108121 0.10945,0.173758 0.28959,0.173758 0.15927,0 0.28959,0.0475 0.28959,0.105642 0,0.05814 -0.13032,0.09133 -0.28959,0.07385 -0.18275,-0.02003 -0.28959,0.02644 -0.28959,0.126035 0,0.09815 0.13142,0.157828 0.34751,0.157828 0.19113,0 0.34751,0.05211 0.34751,0.115832 0,0.06371 -0.20851,0.115832 -0.46336,0.115832 h -0.46334 z m 1.04253,0 c 0,-0.350407 0.0471,-0.637106 0.10442,-0.637106 0.0575,0 0.21295,0.169415 0.34555,0.376471 0.13261,0.207061 0.24849,0.337373 0.25753,0.289593 0.01,-0.04776 0.0295,-0.139006 0.0454,-0.202714 0.0159,-0.06371 0.0354,-0.186511 0.0434,-0.27289 0.0108,-0.117952 0.25729,-0.158891 0.98971,-0.164416 1.10877,-0.0084 1.49479,0.150785 1.26815,0.522858 -0.0988,0.162157 -0.0968,0.26273 0.008,0.406346 0.12027,0.164492 0.16827,0.111006 0.34747,-0.387356 0.11436,-0.318013 0.26101,-0.560505 0.32593,-0.538871 0.15171,0.05058 0.5811,1.136892 0.4867,1.231294 -0.0393,0.03931 -0.13809,-0.01972 -0.21954,-0.131087 -0.18131,-0.247958 -0.52798,-0.266858 -0.52798,-0.02875 0,0.257562 -0.49808,0.214385 -0.66815,-0.05795 -0.0796,-0.127425 -0.19028,-0.231679 -0.24602,-0.231679 -0.0558,0 -0.12861,0.104252 -0.16194,0.231679 -0.1122,0.429085 -0.31394,0.242997 -0.31394,-0.289594 0,-0.386127 -0.045,-0.521265 -0.17375,-0.521265 -0.12917,0 -0.17376,0.136215 -0.17376,0.530919 0,0.687724 -0.27449,0.641558 -0.32556,-0.05474 -0.0275,-0.375377 -0.0793,-0.48198 -0.22037,-0.454348 -0.12504,0.02445 -0.19004,0.174833 -0.20188,0.467019 -0.0159,0.392163 -0.12394,0.665226 -0.21525,0.544044 -0.02,-0.02657 -0.15032,-0.198643 -0.28959,-0.382438 L 155.96418,55.4989 v 0.363135 c 0,0.199718 -0.0521,0.363129 -0.1158,0.363129 -0.0637,0 -0.1158,-0.286699 -0.1158,-0.6371 z m 3.82262,-0.05793 c 0,-0.06371 -0.023,-0.115832 -0.0511,-0.115832 -0.0281,0 -0.0833,0.05211 -0.12267,0.115832 -0.0394,0.06371 -0.0164,0.115832 0.0511,0.115832 0.0674,0 0.12268,-0.05211 0.12268,-0.115832 z m -1.00746,-0.17217 c 0.0126,-0.06281 -0.0684,-0.131816 -0.17987,-0.153289 -0.1268,-0.02439 -0.20271,0.03239 -0.20271,0.151701 0,0.201537 0.34234,0.202953 0.38258,0.0013 z m 1.58665,0.236929 c 0,-0.354167 0.0409,-0.643944 0.0909,-0.643944 0.05,0 0.19333,0.169415 0.31855,0.37647 l 0.22769,0.376472 0.0363,-0.376472 c 0.0601,-0.622618 0.25329,-0.423758 0.25329,0.260636 0,0.350401 -0.0478,0.637102 -0.10621,0.637102 -0.0584,0 -0.21312,-0.143347 -0.34383,-0.318551 -0.22553,-0.302276 -0.23786,-0.305586 -0.24134,-0.06476 -0.002,0.139588 -0.0558,0.286014 -0.11951,0.325387 -0.072,0.04443 -0.1158,-0.172547 -0.1158,-0.572342 z m 1.13569,0.337162 c -0.26929,-0.59103 0.43963,-1.281974 0.83122,-0.810141 0.0831,0.100181 0.11052,0.219981 0.0608,0.266224 -0.0497,0.04622 -0.11352,0.01889 -0.14201,-0.06069 -0.078,-0.218285 -0.35623,-0.173827 -0.49127,0.07848 -0.24178,0.451794 0.19602,0.796242 0.56278,0.44278 0.12151,-0.117102 0.14238,-0.100493 0.10909,0.08688 -0.0293,0.165512 -0.14816,0.242024 -0.41585,0.267909 -0.31055,0.03002 -0.39868,-0.01645 -0.51486,-0.271418 z m 1.1437,0.206222 c -0.028,-0.04776 -0.0426,-0.321444 -0.0322,-0.608143 0.0181,-0.502097 0.0331,-0.522642 0.40642,-0.558661 0.21321,-0.02055 0.44358,0.0185 0.51193,0.08688 0.0885,0.08847 0.0175,0.124275 -0.2464,0.124275 -0.25227,0 -0.37068,0.0555 -0.37068,0.17375 0,0.108121 0.10945,0.173758 0.28959,0.173758 0.15927,0 0.28958,0.04865 0.28958,0.108168 0,0.05948 -0.13031,0.08453 -0.28958,0.05564 -0.20489,-0.03713 -0.28959,-0.0013 -0.28959,0.123506 0,0.118346 0.11388,0.176023 0.34751,0.176023 0.19113,0 0.34751,0.05211 0.34751,0.115832 0,0.133302 -0.88712,0.159948 -0.96405,0.02894 z m 34.55674,-0.492307 c 0,-0.318551 0.0521,-0.57918 0.11579,-0.57918 0.0637,0 0.1158,0.260629 0.1158,0.57918 0,0.318551 -0.0521,0.579187 -0.1158,0.579187 -0.0637,0 -0.11579,-0.260636 -0.11579,-0.579187 z m 0.69501,0.115832 c 0,-0.334639 -0.0482,-0.463343 -0.17375,-0.463343 -0.0956,0 -0.17375,-0.05211 -0.17375,-0.115832 0,-0.06371 0.23457,-0.115832 0.52126,-0.115832 0.2867,0 0.52127,0.05211 0.52127,0.115832 0,0.06371 -0.1043,0.115832 -0.23167,0.115832 -0.19306,0 -0.23168,0.07723 -0.23168,0.463343 0,0.254843 -0.0521,0.463351 -0.1158,0.463351 -0.0637,0 -0.11579,-0.208508 -0.11579,-0.463351 z m -35.33025,-3.413553 c 0,-0.309555 -0.0399,-0.386484 -0.17375,-0.335113 -0.0956,0.03669 -0.17376,0.0073 -0.17376,-0.06519 0,-0.07252 0.0798,-0.162489 0.17735,-0.199916 0.13916,-0.0534 0.0883,-0.154634 -0.23664,-0.470124 -0.22772,-0.221134 -0.44498,-0.556894 -0.48283,-0.746131 -0.0378,-0.189232 -0.22438,-0.499646 -0.41454,-0.689798 -0.31179,-0.311784 -0.36468,-0.328603 -0.53859,-0.171216 -0.1061,0.09599 -0.38475,0.254708 -0.61929,0.352707 -1.47242,0.615218 -3.09812,-0.430111 -3.09812,-1.992106 0,-1.416511 0.95595,-2.300905 2.38846,-2.209693 0.59836,0.03809 0.80989,0.109797 1.16922,0.396255 0.8333,0.664317 1.11064,1.732923 0.69119,2.663247 l -0.21085,0.467684 0.34714,0.371606 c 0.19091,0.204386 0.37991,0.520881 0.41998,0.70332 0.0401,0.182439 0.27847,0.521956 0.52979,0.754473 0.41376,0.382829 0.45692,0.477032 0.45692,0.997279 0,0.315984 -0.0521,0.574519 -0.1158,0.574519 -0.0637,0 -0.11579,-0.180812 -0.11579,-0.401799 z m -2.31475,-2.628725 c 1.29419,-0.715529 1.35018,-2.594014 0.10191,-3.420059 -1.25837,-0.832747 -2.90803,-0.112766 -3.17964,1.387715 -0.15632,0.863491 0.603,2.051717 1.42716,2.233323 0.17403,0.03834 0.36855,0.08767 0.43226,0.109605 0.20722,0.07133 0.80154,-0.08017 1.21828,-0.310579 z m -1.82642,-0.501444 c -0.20705,-0.09 -0.37646,-0.214277 -0.37646,-0.276181 0,-0.06191 0.16244,-0.03149 0.36097,0.06753 0.47907,0.238991 1.11619,0.242851 1.57929,0.0096 0.20706,-0.104312 0.37648,-0.142854 0.37648,-0.08567 0,0.186318 -0.67294,0.457557 -1.12367,0.452916 -0.24207,-0.0025 -0.60955,-0.07817 -0.81661,-0.168168 z m -0.19176,-1.751861 c -0.042,-0.109581 -0.0281,-0.247543 0.0309,-0.306578 0.17933,-0.179334 0.53735,-0.04238 0.53735,0.205575 0,0.298666 -0.46093,0.380602 -0.56823,0.101008 z m 1.45316,0.03271 c -0.0942,-0.113509 -0.0899,-0.206427 0.0162,-0.351496 0.12532,-0.171389 0.17302,-0.176126 0.36437,-0.03623 0.13575,0.09926 0.19214,0.234047 0.14706,0.351503 -0.0882,0.229898 -0.35181,0.247984 -0.52757,0.03624 z m 3.42567,5.179217 c -0.17377,-0.173764 -0.0707,-0.277032 0.20704,-0.20733 0.22239,0.05583 0.2896,0.02772 0.2896,-0.120913 0,-0.120234 -0.0768,-0.180582 -0.20272,-0.159256 -0.22136,0.03752 -0.26063,-0.01787 -0.26063,-0.367291 0,-0.187382 0.072,-0.228656 0.37647,-0.215897 0.27225,0.01138 0.30431,0.02971 0.1158,0.06597 -0.32648,0.06287 -0.33704,0.218759 -0.0204,0.301553 0.37176,0.09722 0.26764,0.705208 -0.1287,0.751426 -0.16166,0.01888 -0.33107,-0.0025 -0.37647,-0.04827 z m 0.89026,-0.09082 c -0.0342,-0.0895 -0.0457,-0.337098 -0.0254,-0.550222 0.031,-0.324153 0.0885,-0.393426 0.35162,-0.423766 0.25514,-0.02939 0.32859,0.01978 0.38904,0.260636 0.1254,0.499625 -0.0301,0.876085 -0.36188,0.876085 -0.16005,0 -0.31911,-0.07323 -0.35346,-0.162733 z m 0.47515,-0.455066 c 0,-0.452312 -0.22526,-0.433835 -0.26889,0.02208 -0.0271,0.282052 0.005,0.374859 0.11579,0.337853 0.0842,-0.02804 0.15306,-0.190026 0.15306,-0.359915 z m 14.15215,0.532808 c -0.0297,-0.04885 -0.0382,-0.228567 -0.019,-0.399436 0.0255,-0.227677 -0.008,-0.293992 -0.12788,-0.248241 -0.20112,0.07718 -0.21268,-0.0977 -0.0193,-0.291124 0.114,-0.114024 0.0684,-0.202208 -0.22279,-0.430038 -0.2029,-0.158795 -0.40095,-0.444771 -0.44411,-0.641282 -0.0429,-0.195071 -0.23311,-0.531451 -0.42282,-0.747514 l -0.34492,-0.392843 -0.46182,0.305612 c -1.4782,0.978225 -3.45963,-0.04628 -3.45963,-1.788834 0,-1.322475 0.89611,-2.231524 2.19977,-2.231524 0.61862,0 1.29761,0.271186 1.64739,0.657972 0.55257,0.611044 0.71188,1.764697 0.34349,2.487294 l -0.21117,0.414174 0.37412,0.355959 c 0.20575,0.195775 0.41186,0.527885 0.45801,0.73802 0.0467,0.212516 0.26292,0.546022 0.48729,0.751541 0.34134,0.312654 0.40617,0.45246 0.42154,0.909062 0.017,0.503627 -0.0738,0.756056 -0.19815,0.551202 z m -2.37955,-2.880174 c 0.71121,-0.359654 1.22792,-1.354268 1.0888,-2.095829 -0.1789,-0.95366 -1.11755,-1.773385 -2.03065,-1.773385 -0.52363,0 -1.33392,0.40669 -1.62514,0.815679 -0.61911,0.869457 -0.58458,1.782431 0.0962,2.541476 0.68471,0.763488 1.59897,0.952963 2.47083,0.512059 z m -1.84398,-0.606928 c -0.4857,-0.259009 -0.36679,-0.404379 0.12719,-0.155492 0.45669,0.230098 1.09558,0.224797 1.57234,-0.01306 0.19853,-0.09905 0.36097,-0.129294 0.36097,-0.06721 0,0.177713 -0.75921,0.449047 -1.24152,0.443701 -0.24097,-0.0025 -0.60951,-0.09625 -0.81898,-0.207965 z m -0.0125,-1.630653 c -0.22036,-0.139538 -0.0729,-0.473268 0.20913,-0.473268 0.29892,0 0.41393,0.198438 0.23794,0.410507 -0.16159,0.194686 -0.22472,0.203547 -0.44707,0.06275 z m 1.30346,-0.06931 c -0.10765,-0.280669 0.17274,-0.537374 0.43418,-0.397446 0.26703,0.142911 0.28607,0.40651 0.0363,0.502365 -0.28569,0.109629 -0.39773,0.08463 -0.47048,-0.104923 z m 3.51632,5.200145 c -0.17376,-0.173764 -0.0707,-0.277032 0.20706,-0.20733 0.22507,0.05647 0.28959,0.02816 0.28959,-0.127143 0,-0.142763 -0.0661,-0.182534 -0.23156,-0.139268 -0.27958,0.07311 -0.38829,-0.07043 -0.28938,-0.38208 0.0545,-0.171798 0.16726,-0.226614 0.44187,-0.214866 0.27253,0.01161 0.3007,0.02887 0.10801,0.06597 -0.32648,0.06287 -0.33704,0.218759 -0.0204,0.301552 0.37177,0.09722 0.26764,0.705209 -0.1287,0.751427 -0.16166,0.01888 -0.33107,-0.0025 -0.37647,-0.04827 z m 0.92138,-0.0051 c -0.14075,-0.14076 -0.08,-0.934665 0.0819,-1.068958 0.38566,-0.320074 0.81244,0.39788 0.53958,0.907711 -0.12354,0.230845 -0.46359,0.319081 -0.62143,0.161247 z m 0.44811,-0.276872 c 0.10095,-0.163308 -0.0364,-0.688441 -0.18003,-0.688441 -0.0625,0 -0.11364,0.182445 -0.11364,0.405429 0,0.39461 0.14081,0.530318 0.29366,0.283012 z m 19.0511,-0.05135 c 0,-0.222989 -0.0391,-0.399257 -0.0868,-0.391715 -0.22851,0.0361 -0.27589,-0.02952 -0.13978,-0.193514 0.12617,-0.152041 0.0923,-0.231788 -0.21944,-0.516514 -0.20276,-0.185192 -0.40099,-0.498365 -0.44051,-0.695938 -0.0395,-0.197574 -0.22254,-0.509914 -0.40671,-0.694094 l -0.33486,-0.33487 -0.41385,0.280848 c -1.48513,1.007836 -3.51814,-0.02106 -3.51814,-1.78046 0,-1.297019 0.91417,-2.218528 2.20089,-2.218528 1.07159,0 1.91532,0.658581 2.19622,1.714286 0.13776,0.517725 0.11065,0.726234 -0.18514,1.424002 -0.17384,0.410071 -0.17119,0.421333 0.18186,0.774378 0.19705,0.197042 0.38964,0.515145 0.42798,0.706898 0.0389,0.19434 0.26894,0.532956 0.51989,0.765127 0.40647,0.376087 0.45013,0.472224 0.45013,0.991004 0,0.315984 -0.0521,0.574519 -0.1158,0.574519 -0.0637,0 -0.11579,-0.182444 -0.11579,-0.405429 z m -2.31475,-2.622388 c 1.42664,-0.798251 1.32864,-2.907775 -0.16664,-3.5869 -1.24642,-0.566093 -2.56764,0.141926 -2.89461,1.551189 -0.18703,0.806031 0.49586,1.909351 1.37962,2.229054 0.5408,0.195627 1.10173,0.131137 1.68163,-0.193343 z m -1.82641,-0.504152 c -0.20707,-0.08999 -0.37648,-0.224654 -0.37648,-0.29924 0,-0.09255 0.046,-0.09913 0.1448,-0.02068 0.0796,0.06319 0.34326,0.178872 0.58581,0.25703 0.36729,0.118347 0.5355,0.111186 1.00637,-0.04283 0.73895,-0.241698 0.84816,-0.227031 0.34808,0.04674 -0.47952,0.26253 -1.18429,0.286858 -1.70858,0.05896 z m -0.14059,-1.733537 c -0.17366,-0.209245 -0.0622,-0.410506 0.22746,-0.410506 0.26657,0 0.37172,0.149627 0.27758,0.394981 -0.0883,0.230065 -0.32105,0.237222 -0.50504,0.0155 z m 1.38588,-0.0051 c -0.10658,-0.128404 -0.1158,-0.220257 -0.0307,-0.30542 0.19049,-0.190485 0.55183,-0.06638 0.55183,0.189526 0,0.287768 -0.3196,0.358834 -0.52122,0.115892 z m 3.44176,5.198615 c -0.17377,-0.173762 -0.0707,-0.277032 0.20705,-0.207336 0.22237,0.05583 0.28959,0.02772 0.28959,-0.120907 0,-0.120234 -0.0768,-0.180582 -0.20271,-0.159256 -0.22135,0.03752 -0.26063,-0.01787 -0.26063,-0.367291 0,-0.18738 0.072,-0.228656 0.37646,-0.215897 0.27225,0.01138 0.30432,0.02971 0.1158,0.06598 -0.32649,0.06287 -0.33706,0.218758 -0.0205,0.301552 0.37177,0.09722 0.26764,0.705208 -0.12869,0.751426 -0.16166,0.01888 -0.33108,-0.0025 -0.37648,-0.04827 z m 0.91446,-0.111317 c -0.17508,-0.456282 -0.005,-1.090975 0.29209,-1.090975 0.36407,0 0.59553,0.849123 0.30945,1.135202 -0.19624,0.196242 -0.51835,0.172559 -0.60154,-0.04424 z m 0.48726,-0.424911 c -0.02,-0.207061 -0.0884,-0.376472 -0.15213,-0.376472 -0.0637,0 -0.13218,0.169411 -0.15214,0.376472 -0.0275,0.285323 0.01,0.376465 0.15214,0.376465 0.1428,0 0.17963,-0.09114 0.15213,-0.376465 z m -31.13854,-3.853407 c 0,-0.148193 -0.48691,-0.171882 -3.53303,-0.171882 -2.27812,0 -3.53302,-0.04117 -3.53302,-0.115832 0,-0.0747 1.2549,-0.115844 3.53302,-0.115844 3.14588,0 3.53303,-0.02011 3.53303,-0.183404 0,-0.100876 0.0392,-0.164359 0.0869,-0.14108 0.86921,0.423501 0.87681,0.440371 0.31855,0.70659 -0.34878,0.166318 -0.40543,0.169314 -0.40543,0.02145 z m 19.57644,0 c 0,-0.148257 -0.49363,-0.171882 -3.59095,-0.171882 -2.31674,0 -3.59095,-0.0411 -3.59095,-0.115832 0,-0.07473 1.27421,-0.115844 3.59095,-0.115844 3.11472,0 3.59095,-0.02305 3.59095,-0.17375 0,-0.23867 0.11759,-0.217543 0.5022,0.09023 l 0.32845,0.262844 -0.41533,0.198053 c -0.35541,0.169482 -0.41532,0.173259 -0.41532,0.02619 z m -36.25234,-8.043194 -0.15162,-1.616121 -0.45642,0.232844 c -0.25103,0.128064 -0.50498,0.216658 -0.56432,0.196876 -0.10382,-0.03464 -2.19392,-4.303031 -2.18923,-4.470924 0.001,-0.04521 0.47039,-0.300047 1.04252,-0.566311 l 1.04025,-0.484112 V 31.96568 c 0,-1.072057 -0.0408,-1.57199 -0.12822,-1.57199 -0.0705,0 -0.0966,-0.0782 -0.058,-0.173758 0.0387,-0.09556 0.1019,-0.251941 0.14062,-0.347507 0.0608,-0.15053 -0.20228,-0.173758 -1.96923,-0.173758 h -2.03954 v -3.301346 -3.301354 h 2.02714 2.02716 v -1.158371 c 0,-0.775679 -0.0427,-1.158367 -0.12936,-1.158367 -0.12503,0 -0.10358,-0.184954 0.0707,-0.608143 0.0777,-0.188899 -0.0674,-0.202715 -2.12984,-0.202715 h -2.21329 v -0.984615 -0.984615 h 2.20091 2.20089 v -3.069675 -3.069675 h 9.4407 c 8.59388,0 9.44072,-0.0167 9.44072,-0.186152 0,-0.119496 0.0623,-0.160972 0.17374,-0.115832 0.0956,0.03867 0.25195,0.101954 0.34752,0.140625 0.14957,0.0605 0.17376,-0.157233 0.17376,-1.563802 V 8.5004248 h 3.47511 3.4751 v 1.6217162 c 0,1.477793 0.0728,1.856589 0.28959,1.50588 0.11065,-0.178962 0.40543,-0.136848 0.40543,0.05795 0,0.152872 1.02323,0.173756 8.51401,0.173756 h 8.51401 v 3.069676 3.069675 h 2.20541 2.20542 l -0.0335,1.013572 -0.0335,1.013572 -1.85338,0.02414 c -1.01937,0.01326 -1.99808,0.02631 -2.17491,0.02894 -0.31974,0.0052 -0.32053,0.0068 -0.14183,0.352342 0.16041,0.310202 0.16073,0.347514 0.004,0.347514 -0.14659,0 -0.17672,0.196985 -0.17672,1.155633 v 1.155631 l 1.9949,0.0317 1.99491,0.0317 0.007,3.127596 c 0.004,1.720182 -0.013,3.192759 -0.0381,3.272396 -0.034,0.108552 -0.55046,0.144793 -2.06317,0.144793 h -2.01773 l 0.17971,0.347514 c 0.1604,0.310197 0.16072,0.347509 0.004,0.347509 -0.14719,0 -0.17672,0.203271 -0.17672,1.216287 v 1.216286 h 1.21627 1.2163 v 2.542635 2.542629 l -0.62879,0.03476 -0.62878,0.03476 0.57086,1.494157 c 0.31398,0.821787 0.57087,1.512461 0.57087,1.534837 0,0.02235 -1.12072,0.04066 -2.49049,0.04066 -1.91825,0 -2.48917,-0.03329 -2.48473,-0.144799 0.004,-0.07963 0.25848,-0.770313 0.56735,-1.534839 l 0.5616,-1.390044 -0.56736,-0.03503 -0.56735,-0.03501 v -1.963174 c 0,-1.624194 -0.0286,-1.963174 -0.16549,-1.963174 -0.18105,0 -0.52954,0.304927 -0.52954,0.463344 0,0.209379 -0.37747,0.462896 -0.67433,0.452902 l -0.31028,-0.01042 0.3475,-0.106911 c 0.19258,-0.05923 0.45163,-0.27408 0.58102,-0.481859 0.12842,-0.206223 0.34996,-0.391613 0.49231,-0.411972 0.22334,-0.03195 0.25881,-0.107342 0.25881,-0.550223 v -0.51321 h 1.21628 1.21629 v -1.216288 c 0,-1.013015 -0.0296,-1.216287 -0.17674,-1.216287 -0.15824,0 -0.15831,-0.0356 -6.3e-4,-0.34035 l 0.176,-0.340355 -2.17122,-0.03765 -2.1712,-0.03765 -0.26352,0.291117 c -0.14493,0.160115 -0.3164,0.35628 -0.38104,0.435917 -0.0647,0.07963 -0.25882,0.138628 -0.43151,0.131092 l -0.31398,-0.0137 0.31181,-0.07317 c 0.17583,-0.04123 0.43016,-0.249989 0.58316,-0.478599 0.14924,-0.222991 0.38685,-0.422089 0.52801,-0.442447 l 0.25663,-0.037 v -3.177457 -3.177457 h 2.08505 2.08507 v -1.158372 c 0,-0.9611 -0.0301,-1.158367 -0.17673,-1.158367 -0.15824,0 -0.15832,-0.0356 -6.4e-4,-0.340227 l 0.17595,-0.340235 -0.37569,-0.03624 c -0.2066,-0.01991 -1.24534,-0.01018 -2.30828,0.0217 l -1.93264,0.05795 -0.272,0.405427 c -0.19438,0.289703 -0.37016,0.414002 -0.6158,0.435476 l -0.34377,0.03003 0.36898,-0.166106 c 0.20294,-0.09136 0.45188,-0.326413 0.5532,-0.522353 0.10131,-0.195941 0.26108,-0.356253 0.35501,-0.356253 0.13708,0 0.17078,-0.194252 0.17078,-0.984616 v -0.984615 h 2.20089 2.20091 v -2.984979 -2.984934 l -8.39817,2.43e-4 c -6.69877,1.99e-4 -8.39818,0.0299 -8.39818,0.146932 0,0.177919 -0.17042,0.187605 -0.47097,0.02676 -0.21632,-0.115772 -0.22405,-0.06646 -0.22405,1.429373 0,1.543442 0.001,1.54978 0.29192,1.682281 0.16055,0.07315 0.34221,0.265304 0.40369,0.426992 0.16238,0.427088 0.41212,0.470463 0.73054,0.126886 0.15211,-0.164127 0.31046,-0.264514 0.35189,-0.223073 0.12231,0.122296 0.086,1.195096 -0.0405,1.195096 -0.0637,0 -0.12188,-0.195473 -0.12927,-0.434387 -0.007,-0.238919 -0.0382,-0.338691 -0.0684,-0.221729 -0.0426,0.164845 -0.12418,0.196229 -0.36304,0.139595 -0.16948,-0.04021 -0.36027,-0.158879 -0.42398,-0.263766 -0.25164,-0.414296 -0.65324,-0.744185 -0.82549,-0.678089 -0.0979,0.03758 -0.87872,0.06833 -1.73507,0.06833 h -1.5576 l 0.18974,0.289594 c 0.17232,0.262978 0.14693,0.341905 -0.0975,0.303305 -0.0478,-0.0075 -0.0869,0.429361 -0.0869,0.970903 v 0.984608 h 2.25883 2.25882 v 0.929562 c 0,0.888978 0.0129,0.934454 0.29438,1.041487 0.1619,0.06159 0.38345,0.269919 0.4923,0.463023 0.11364,0.201581 0.34593,0.394904 0.54544,0.453952 0.32471,0.09609 0.3285,0.103414 0.058,0.111509 -0.37748,0.01138 -0.5063,-0.08237 -0.73976,-0.538 L 180.4013,20.08414 h -2.42712 -2.42711 l 0.14095,0.30935 c 0.11136,0.244368 0.11076,0.319396 -0.002,0.357169 -0.10119,0.03374 -0.14343,0.386338 -0.14343,1.196523 v 1.148717 h 1.96923 1.96923 v 3.16012 3.160113 l 0.33389,0.126042 c 0.18366,0.06932 0.40558,0.276219 0.49317,0.459784 0.10837,0.227024 0.26084,0.345465 0.47695,0.370402 0.34853,0.04021 0.44256,0.252934 0.11185,0.252934 -0.2786,0 -0.7208,-0.322181 -0.7208,-0.525164 0,-0.384429 -0.46902,-0.460289 -2.63051,-0.425468 l -2.10925,0.034 0.11627,0.305983 c 0.0883,0.232017 0.0782,0.327296 -0.0412,0.394148 -0.11724,0.0656 -0.15515,0.379 -0.14815,1.223841 l 0.01,1.135677 1.24333,0.03291 1.24334,0.03291 v 0.503837 c 0,0.405705 0.0449,0.515594 0.23069,0.564167 0.12687,0.03317 0.32235,0.222844 0.43439,0.421479 0.11891,0.210743 0.34843,0.403996 0.55121,0.464004 l 0.34751,0.102839 -0.31015,0.01042 c -0.21086,0.0071 -0.38659,-0.09152 -0.54896,-0.308102 -0.38722,-0.516476 -0.47624,-0.608144 -0.59062,-0.608144 -0.0618,0 -0.12213,0.834457 -0.14024,1.940267 l -0.0317,1.940266 -0.61808,0.03534 c -0.52696,0.03015 -0.60669,0.06429 -0.54076,0.231672 0.0425,0.107977 0.27612,0.717583 0.51907,1.354685 0.24295,0.637106 0.47883,1.249592 0.52419,1.361086 0.077,0.189347 -0.0825,0.202714 -2.42044,0.202714 -1.58895,0 -2.50289,-0.04226 -2.50289,-0.115664 0,-0.06363 0.25456,-0.767329 0.56569,-1.563802 l 0.5657,-1.448125 h -0.5657 -0.56569 v -2.548388 -2.54841 h 1.21628 1.21629 v -1.216286 c 0,-1.013015 -0.0294,-1.216287 -0.17672,-1.216287 -0.15807,0 -0.1579,-0.03643 0.001,-0.344832 l 0.17831,-0.344832 -2.0577,-0.03163 -2.05768,-0.03163 V 26.39734 23.153902 l 2.11403,-0.03157 2.11401,-0.03157 v -1.155745 c 0,-0.958756 -0.0302,-1.155754 -0.17673,-1.155754 -0.15775,0 -0.15744,-0.03733 0.004,-0.347514 0.17416,-0.336789 0.17157,-0.347629 -0.0839,-0.351368 -0.14498,-0.0019 -1.12369,-0.01517 -2.17491,-0.02894 l -1.91132,-0.0251 -0.0335,-1.013572 -0.0335,-1.013573 h 2.14749 2.14749 v -0.984609 c 0,-0.725913 -0.0381,-0.977009 -0.1448,-0.955657 -0.15132,0.03028 -0.15728,-0.0659 -0.0251,-0.40543 0.0729,-0.187207 -0.0461,-0.202714 -1.55522,-0.202714 h -1.63411 v -1.679639 c 0,-1.531335 -0.0714,-1.916854 -0.28959,-1.563795 -0.10214,0.165198 -0.40543,0.143532 -0.40544,-0.02894 0,-0.114718 -1.9067,-0.14225 -9.18007,-0.132551 -5.04903,0.0067 -9.24523,0.01978 -9.32487,0.02893 -0.1116,0.01287 -0.14479,0.693621 -0.14479,2.970557 v 2.953838 h 2.2009 2.20091 v 0.914139 c 0,0.868024 0.014,0.917655 0.27768,0.983834 0.15273,0.03834 0.38554,0.252492 0.51736,0.475906 0.28889,0.489631 0.4052,0.502858 0.77065,0.08766 l 0.28038,-0.31855 0.004,0.666059 c 0.004,0.726559 -0.21951,0.941008 -0.24145,0.231671 -0.007,-0.238912 -0.0377,-0.340996 -0.0673,-0.226857 -0.0691,0.266161 -0.47598,0.164249 -0.75307,-0.188636 -0.54716,-0.696859 -0.36801,-0.655994 -2.8759,-0.655994 h -2.31972 l 0.17674,0.341758 c 0.21938,0.424233 0.21966,0.4691 0.004,0.4691 -0.14287,0 -0.17375,0.205934 -0.17375,1.158366 v 1.158372 h 2.08506 2.08506 v 3.166919 3.166925 l 0.28403,0.129403 c 0.15621,0.07118 0.36606,0.28805 0.46632,0.481942 0.12861,0.248721 0.2667,0.352533 0.46892,0.352533 0.15764,0 0.28662,0.05775 0.28662,0.128397 0,0.189706 -0.61372,0.01555 -0.75295,-0.213661 -0.0637,-0.104887 -0.22009,-0.298025 -0.34751,-0.429189 -0.22016,-0.226633 -0.33964,-0.2368 -2.40403,-0.204577 l -2.17235,0.03394 0.1713,0.331265 c 0.15094,0.291892 0.15099,0.339057 4.2e-4,0.396844 -0.13753,0.05276 -0.17089,0.337673 -0.17089,1.459252 0,0.834732 0.0456,1.39368 0.11376,1.39368 0.0625,0 0.55926,-0.205832 1.1038,-0.457409 l 0.99006,-0.457408 1.12146,2.246435 c 0.8542,1.711059 1.18184,2.261589 1.37479,2.310022 0.13933,0.03496 0.36119,0.246371 0.493,0.46979 0.18106,0.306879 0.31711,0.40621 0.55634,0.40621 0.21867,0 0.27949,0.03719 0.19652,0.12014 -0.1928,0.19279 -0.70344,-0.06665 -0.90737,-0.460995 -0.24494,-0.473671 -0.6159,-0.546381 -1.21865,-0.238881 l -0.48908,0.249515 0.90051,0.829764 c 0.49529,0.456372 1.0221,0.925408 1.17071,1.0423 0.14859,0.116885 0.27018,0.264707 0.27018,0.328493 0,0.109653 -4.15428,2.183955 -4.37388,2.183955 -0.0569,0 -0.17159,-0.727257 -0.25498,-1.61612 z m 2.27566,0.482627 c 1.00757,-0.496002 1.89279,-0.939492 1.96717,-0.985537 0.0876,-0.05422 -0.11616,-0.316464 -0.57919,-0.745138 -0.39293,-0.363784 -0.90244,-0.835815 -1.13226,-1.048971 l -0.41785,-0.387541 -1.01386,0.499663 -1.01385,0.499664 0.0766,1.332123 c 0.072,1.250904 0.13878,1.737552 0.23871,1.737552 0.0235,0 0.86697,-0.405814 1.87454,-0.901815 z m 21.12154,-1.328045 -0.55251,-1.419001 -1.1555,-0.03285 -1.15549,-0.03278 -0.47709,1.249098 c -0.2624,0.687013 -0.51046,1.340331 -0.55125,1.45182 -0.069,0.188669 0.0824,0.202715 2.1851,0.202715 h 2.25927 z m 21.2967,0.810858 c -0.13354,-0.334479 -0.38008,-0.986062 -0.54788,-1.447958 l -0.30508,-0.839816 -1.159,5.76e-4 -1.15903,5.83e-4 -0.48535,1.244656 c -0.26694,0.684566 -0.52013,1.335881 -0.56262,1.447375 -0.072,0.18879 0.0786,0.202716 2.19226,0.202716 h 2.26952 l -0.24282,-0.608145 z m -43.47861,-2.422586 c 1.04924,-0.510272 1.90769,-0.950325 1.90769,-0.977905 0,-0.0525 -1.97083,-4.133602 -2.0238,-4.19073 -0.0531,-0.05724 -4.23138,1.984295 -4.23138,2.067448 0,0.04366 0.44245,1.001882 0.98323,2.129306 0.87704,1.828464 1.00881,2.041761 1.21991,1.974755 0.13015,-0.04129 1.09513,-0.492608 2.14435,-1.002874 z m 22.67147,-0.07786 c 0.18584,-0.01741 0.20271,-0.216543 0.20271,-2.393654 v -2.37466 h -2.37466 -2.37465 l 2e-5,2.403617 3e-5,2.403617 2.17191,-0.0099 c 1.19456,-0.0057 2.26314,-0.0185 2.37464,-0.02894 z m 20.44521,-0.0093 0.72398,-0.0097 V 35.314363 32.93731 l -2.34571,0.03137 -2.34569,0.03137 -0.0314,2.341477 -0.0314,2.34147 1.1318,0.03822 c 0.62249,0.021 1.36637,0.02728 1.65306,0.01395 0.2867,-0.01332 0.84706,-0.02862 1.24525,-0.034 z m -41.42457,-8.379081 c 0.008,-0.07964 0.0255,-1.460994 0.0371,-3.069681 l 0.0211,-2.924882 h -4.0914 -4.0914 v 3.069681 3.069675 h 4.05428 c 3.15765,0 4.05785,-0.03201 4.07035,-0.144793 z m -5.06648,-0.827543 c -2.04944,-0.954293 -1.5298,-3.932276 0.73292,-4.200261 0.86516,-0.102468 1.74997,0.325471 2.17597,1.052403 0.27366,0.466947 0.30855,0.632727 0.26783,1.27228 -0.0595,0.934409 -0.40056,1.469125 -1.18974,1.865278 -0.71579,0.3593 -1.23171,0.361976 -1.98698,0.0103 z m 1.9165,-0.182803 c 0.48173,-0.245757 0.96966,-0.776952 0.8667,-0.943538 -0.0347,-0.05621 -0.0121,-0.102228 0.0503,-0.102228 0.17332,0 0.27667,-0.644099 0.18779,-1.170256 -0.0938,-0.554806 -0.64008,-1.227823 -1.1798,-1.45333 -1.00135,-0.418393 -2.18379,-0.02945 -2.66108,0.875291 -0.94553,1.792322 0.93515,3.712838 2.73609,2.794057 z m -1.21545,-0.341829 c 0.0364,-0.05883 0.22377,-0.14156 0.41653,-0.183899 0.34116,-0.07493 1.19283,-0.824846 1.10259,-0.970863 -0.0617,-0.09974 0.26383,-0.532507 0.34182,-0.454515 0.10873,0.108779 -0.17895,0.719191 -0.50173,1.064407 -0.31821,0.340337 -0.91121,0.651794 -1.24099,0.651794 -0.10143,0 -0.15457,-0.04815 -0.1182,-0.106923 z m -0.89788,-1.2405 c -0.0447,-0.04469 -0.0812,-0.176792 -0.0812,-0.293594 0,-0.150838 0.0862,-0.212369 0.29765,-0.212369 0.24207,0 0.29074,0.04846 0.26064,0.25945 -0.0366,0.256788 -0.32023,0.403336 -0.47705,0.246513 z m 0.9969,-0.980044 c -0.20073,-0.200737 -0.048,-0.452613 0.27444,-0.452613 0.22923,0 0.27798,0.05096 0.24824,0.259444 -0.0417,0.291796 -0.32086,0.394987 -0.52268,0.193169 z m 27.18607,0.647837 v -3.069681 h -4.05429 -4.05429 v 3.069681 3.069675 h 4.05429 4.05429 z m -4.66493,2.105118 c -1.43856,-0.447472 -2.05905,-2.039245 -1.28319,-3.291865 1.1314,-1.826639 3.89309,-1.185332 4.06975,0.945056 0.0938,1.130298 -0.56511,2.075033 -1.65466,2.372648 -0.54823,0.149756 -0.5689,0.149282 -1.1319,-0.02586 z m 1.7014,-0.435116 c 0.71282,-0.488434 1.08552,-1.422293 0.87689,-2.197131 -0.26422,-0.981216 -1.36135,-1.733653 -2.2773,-1.561817 -0.97666,0.18322 -1.77412,1.096162 -1.77412,2.031025 0,0.731719 0.59524,1.597208 1.32689,1.9293 0.49801,0.226044 1.36116,0.131969 1.84764,-0.201377 z m -1.49619,-0.332495 c -0.43501,-0.101391 -0.90921,-0.351073 -0.82558,-0.434699 0.0346,-0.03464 0.28428,0.02548 0.55471,0.133697 0.54096,0.216448 1.12426,0.168719 1.58752,-0.129888 0.21315,-0.137393 0.26277,-0.141925 0.22312,-0.02036 -0.10585,0.324293 -0.98235,0.58119 -1.53977,0.451282 z m -0.59309,-1.911148 c -0.089,-0.232037 0.0431,-0.410974 0.3035,-0.410974 0.26656,0 0.37172,0.149628 0.27758,0.394974 -0.0885,0.23052 -0.49447,0.241698 -0.58108,0.01601 z m 1.39004,0 c -0.0891,-0.232037 0.0431,-0.410974 0.30349,-0.410974 0.26657,0 0.37173,0.149628 0.27758,0.394974 -0.0885,0.23052 -0.49445,0.241698 -0.58107,0.01601 z m 24.62924,0.573641 v -3.069681 h -4.05428 -4.05429 v 3.069681 3.069675 h 4.05429 4.05428 z m -4.63347,2.122712 c -2.36198,-0.671187 -2.04586,-4.154107 0.39541,-4.35656 1.13689,-0.09428 2.08219,0.569813 2.37425,1.667934 0.30138,1.133276 -0.38218,2.309638 -1.54227,2.654149 -0.64816,0.192484 -0.66927,0.193073 -1.22739,0.03451 z m 1.45708,-0.315234 c 1.52992,-0.694862 1.57141,-2.941259 0.0679,-3.678132 -0.53122,-0.260355 -1.48942,-0.284063 -1.64329,-0.04066 -0.0605,0.09556 -0.11064,0.132821 -0.1116,0.08279 -6.5e-4,-0.05001 -0.10753,-0.03438 -0.23669,0.03476 -0.12921,0.06915 -0.19935,0.183289 -0.15586,0.253644 0.0456,0.07379 0.0264,0.09537 -0.0454,0.05102 -0.16852,-0.104156 -0.57645,0.435693 -0.73888,0.977842 -0.17905,0.597567 0.0409,1.365984 0.53728,1.877088 0.6274,0.646008 1.50834,0.813234 2.32651,0.441635 z m -1.16749,-0.44691 c -0.40458,-0.08959 -0.98471,-0.397932 -0.92634,-0.492365 0.0309,-0.05001 0.25,0.0078 0.48682,0.128551 0.23683,0.12074 0.56494,0.219533 0.72912,0.219533 0.16418,0 0.49229,-0.09879 0.72911,-0.219533 0.23683,-0.12074 0.45806,-0.175083 0.49163,-0.120766 0.13712,0.221851 -1.02011,0.593137 -1.51034,0.48458 z m -0.66955,-1.915175 c -0.0919,-0.239349 0.0875,-0.458703 0.33592,-0.410859 0.30776,0.05929 0.2851,0.492512 -0.0281,0.5372 -0.13524,0.01927 -0.27376,-0.03758 -0.30783,-0.126341 z m 1.37553,-0.03784 c -0.042,-0.109581 -0.0281,-0.247548 0.0309,-0.306578 0.17932,-0.179333 0.53736,-0.04238 0.53736,0.205577 0,0.298664 -0.46095,0.380595 -0.56823,0.100995 z M 156.7754,18.98359 v -0.868773 h -4.34388 -4.34388 v 0.868773 0.86878 h 4.34388 4.34388 z m -7.64523,0 c 0,-0.328204 0.0441,-0.405429 0.23167,-0.405429 0.12742,0 0.23168,0.05212 0.23168,0.115832 0,0.06371 0.12724,0.115833 0.28276,0.115833 0.15551,0 0.31496,-0.05211 0.35434,-0.115833 0.11197,-0.181189 0.52126,-0.135707 0.52126,0.05795 0,0.09557 0.0466,0.173757 0.10347,0.173757 0.0569,0 0.13344,-0.0782 0.17011,-0.173757 0.11017,-0.287109 0.3053,-0.19605 0.31027,0.144794 l 0.005,0.31855 0.1728,-0.31855 c 0.0951,-0.175205 0.21895,-0.318551 0.27532,-0.318551 0.0563,0 0.15483,0.143346 0.21882,0.318551 l 0.11628,0.31855 0.01,-0.31855 c 0.007,-0.260124 0.0623,-0.318551 0.29875,-0.318551 0.15926,0 0.28958,0.05852 0.28958,0.130023 0,0.09033 0.0526,0.08636 0.17228,-0.01299 0.26108,-0.216671 0.52274,-0.05339 0.52274,0.326252 0,0.33215 -0.006,0.334826 -0.72097,0.344966 -0.4226,0.0057 -0.7545,-0.04404 -0.80202,-0.120944 -0.0568,-0.09179 -0.1272,-0.09501 -0.23469,-0.01078 -0.0846,0.06623 -0.56077,0.121738 -1.05838,0.123339 -0.78629,0.0025 -0.89622,-0.02183 -0.83953,-0.1858 0.0545,-0.157809 0.0394,-0.155517 -0.0927,0.01402 -0.27481,0.352917 -0.53774,0.253797 -0.53774,-0.202715 z M 149.43,18.839379 c -0.12654,-0.12654 -0.21331,0.0747 -0.12245,0.284011 0.0861,0.19847 0.0924,0.198291 0.14038,-0.0038 0.0277,-0.116479 0.0196,-0.242453 -0.018,-0.279938 z m 0.85853,0.25321 c 0,-0.09932 -0.0529,-0.147847 -0.11771,-0.107821 -0.0648,0.04001 -0.0878,0.121277 -0.0511,0.180588 0.0993,0.16067 0.16881,0.130714 0.16881,-0.07276 z m 2.31675,0.06476 c 0,-0.06371 -0.0521,-0.115832 -0.11579,-0.115832 -0.0637,0 -0.1158,0.05211 -0.1158,0.115832 0,0.06371 0.0521,0.115832 0.1158,0.115832 0.0637,0 0.11579,-0.05211 0.11579,-0.115832 z m -1.96923,-0.282756 c 0,-0.0281 -0.0521,-0.0833 -0.11579,-0.122673 -0.0637,-0.03937 -0.1158,-0.01639 -0.1158,0.05109 0,0.06747 0.0521,0.122674 0.1158,0.122674 0.0637,0 0.11579,-0.02298 0.11579,-0.05109 z m 1.91131,-0.06476 c 0.0394,-0.06371 0.0164,-0.115832 -0.0511,-0.115832 -0.0674,0 -0.12268,0.05211 -0.12268,0.115832 0,0.06371 0.023,0.115844 0.0511,0.115844 0.0281,0 0.0833,-0.05211 0.12267,-0.115844 z m 0.99805,0.202714 -0.0134,-0.434387 h 0.6371 c 0.35108,0 0.63711,0.05244 0.63711,0.116826 0,0.06973 0.0922,0.05921 0.22878,-0.02606 0.32476,-0.202817 0.58177,0.04513 0.38063,0.36722 -0.10682,0.171139 -0.10622,0.233292 0.002,0.277556 0.0774,0.03137 -0.002,0.06114 -0.17793,0.06619 -0.368,0.01054 -0.3939,-0.06313 -0.12619,-0.358917 0.10574,-0.116898 0.15954,-0.245347 0.11951,-0.285445 -0.0401,-0.04008 -0.16574,0.09022 -0.27923,0.289574 -0.15239,0.267711 -0.28961,0.362655 -0.52488,0.3632 -0.27689,6.34e-4 -0.31855,-0.04475 -0.31855,-0.346778 0,-0.225353 -0.0587,-0.347514 -0.16692,-0.347514 -0.25359,0 -0.32718,0.206856 -0.0951,0.26739 0.1799,0.04693 0.18107,0.05487 0.01,0.06669 -0.10681,0.0073 -0.21806,0.104659 -0.24719,0.216152 -0.0291,0.111485 -0.059,0.0072 -0.0665,-0.231679 z m 1.08701,-0.02894 c 0,-0.116802 -0.0651,-0.234086 -0.1448,-0.260629 -0.0917,-0.03061 -0.1448,0.065 -0.1448,0.260629 0,0.195633 0.0531,0.2912 0.1448,0.260636 0.0796,-0.02657 0.1448,-0.143833 0.1448,-0.260636 z m 25.07869,0.05795 V 18.2307 h -4.27358 c -3.31598,0 -4.28434,0.03246 -4.32164,0.144793 -0.0401,0.120938 -0.0347,0.683184 0.0127,1.332123 0.008,0.113042 0.95066,0.144799 4.29656,0.144799 h 4.28597 z m -6.94667,0.304722 c -0.17676,-0.17676 -0.14474,-0.649771 0.049,-0.72412 0.0926,-0.03553 0.28547,0.01741 0.42857,0.117628 0.23716,0.166119 0.2856,0.165601 0.54724,-0.0057 0.26954,-0.176618 0.29831,-0.17416 0.47195,0.04027 0.18363,0.226767 0.18626,0.226685 0.37968,-0.0128 0.19376,-0.239924 0.19478,-0.239534 0.19992,0.07741 0.006,0.397868 0.18719,0.416274 0.2844,0.02894 0.0874,-0.348546 0.25691,-0.375973 0.35786,-0.05795 0.0963,0.303467 0.28959,0.298089 0.28959,-0.008 0,-0.357015 0.48935,-0.253503 0.58571,0.123896 l 0.074,0.289594 0.0466,-0.289594 c 0.0256,-0.159275 0.12248,-0.289592 0.21518,-0.289592 0.0927,0 0.20478,0.130317 0.24908,0.289592 l 0.0806,0.289594 0.012,-0.318551 c 0.01,-0.259489 0.0653,-0.318557 0.30115,-0.318557 0.32348,0 0.40571,0.227011 0.0869,0.239823 -0.18767,0.0075 -0.1881,0.01395 -0.006,0.08688 0.17488,0.06993 0.16517,0.109246 -0.0868,0.351528 -0.15606,0.150037 -0.28376,0.208809 -0.28376,0.130613 0,-0.11145 -0.0376,-0.111007 -0.17376,0.0019 -0.13325,0.110587 -0.21185,0.112587 -0.33719,0.0086 -0.11844,-0.09829 -0.18529,-0.100312 -0.24275,-0.0073 -0.0935,0.151375 -0.65752,0.108791 -0.77761,-0.05871 -0.0546,-0.07616 -0.16162,-0.06775 -0.31029,0.02433 -0.17796,0.110276 -0.23926,0.110276 -0.28397,0 -0.0401,-0.09882 -0.0598,-0.09336 -0.0662,0.01837 -0.007,0.127507 -0.0432,0.130677 -0.18143,0.01601 -0.10322,-0.08563 -0.25417,-0.106217 -0.37646,-0.05135 -0.29946,0.134409 -0.60634,0.149128 -0.67839,0.03252 -0.0347,-0.05615 -0.12372,-0.06457 -0.19783,-0.01875 -0.20824,0.128704 -0.52451,0.125593 -0.65655,-0.0065 z m 0.18901,-0.449521 c -0.0321,-0.07963 -0.0584,-0.01447 -0.0584,0.144799 0,0.159275 0.0264,0.224431 0.0584,0.144794 0.0321,-0.07963 0.0321,-0.209956 0,-0.289593 z m 0.34992,0.123076 c -0.037,-0.09241 -0.0644,-0.06496 -0.0699,0.06999 -0.005,0.12211 0.0224,0.190525 0.0608,0.152034 0.0384,-0.03848 0.0426,-0.138403 0.01,-0.222023 z m 0.46336,0 c -0.037,-0.09241 -0.0644,-0.06496 -0.0699,0.06999 -0.005,0.12211 0.0224,0.190525 0.0608,0.152034 0.0384,-0.03848 0.0426,-0.138403 0.01,-0.222023 z m 2.4379,0.183412 c -0.0384,-0.03848 -0.13841,-0.04264 -0.22202,-0.0091 -0.0924,0.037 -0.065,0.06442 0.0699,0.06998 0.1221,0.0051 0.19053,-0.02234 0.15203,-0.06082 z m -2.05369,-0.277525 c 0,-0.06371 -0.0552,-0.115844 -0.12267,-0.115844 -0.0674,0 -0.0904,0.05211 -0.0511,0.115844 0.0394,0.06371 0.0946,0.115832 0.12268,0.115832 0.0281,0 0.0511,-0.05211 0.0511,-0.115832 z m 3.59094,0.115832 c 0,-0.381427 0.0398,-0.46335 0.22484,-0.46335 0.12366,0 0.25862,0.05468 0.2999,0.121464 0.0513,0.08303 0.12678,0.07854 0.23852,-0.01421 0.21582,-0.179123 0.45124,0.01357 0.48283,0.395179 0.0266,0.321661 -0.26323,0.499221 -0.49751,0.304779 -0.10347,-0.08586 -0.17164,-0.08646 -0.22384,-0.0019 -0.0413,0.0668 -0.17624,0.121457 -0.2999,0.121457 -0.18509,0 -0.22484,-0.08192 -0.22484,-0.463344 z m 0.46335,0 c 0,-0.12871 -0.0772,-0.231677 -0.17375,-0.231677 -0.0965,0 -0.17376,0.102971 -0.17376,0.231677 0,0.128705 0.0772,0.231673 0.17376,0.231673 0.0965,0 0.17375,-0.102972 0.17375,-0.231673 z m 0.4727,0.06918 c -0.10358,-0.124779 -0.10011,-0.176427 0.0147,-0.222529 0.10275,-0.04123 0.10634,-0.06293 0.012,-0.06918 -0.0759,-0.0051 -0.17019,0.04295 -0.20956,0.106696 -0.0878,0.142079 0.0273,0.347508 0.19478,0.347508 0.0814,0 0.0775,-0.055 -0.012,-0.16249 z m 21.99966,-0.06918 v -0.810857 h -4.34389 -4.34389 v 0.810857 0.810858 h 4.34389 4.34389 z m -6.99782,0.377118 c -0.13812,-0.138102 -0.0632,-0.733831 0.10011,-0.796516 0.0926,-0.03553 0.28362,0.01613 0.42448,0.114767 0.23263,0.162943 0.28691,0.161234 0.59234,-0.01863 0.31973,-0.188271 0.34209,-0.187625 0.45479,0.01318 0.11245,0.200366 0.12986,0.200929 0.33972,0.01102 0.2124,-0.192228 0.22118,-0.187969 0.22118,0.107378 0,0.388982 0.18317,0.400755 0.27924,0.01793 0.04,-0.159275 0.11544,-0.289593 0.16772,-0.289593 0.12129,0 0.36445,0.528691 0.36212,0.787349 -10e-4,0.169455 -0.0174,0.172765 -0.11233,0.0235 -0.0914,-0.143673 -0.15125,-0.148513 -0.34573,-0.02797 -0.18901,0.11715 -0.23556,0.11715 -0.23698,0 -0.001,-0.09849 -0.0382,-0.08941 -0.11412,0.02797 -0.0748,0.115832 -0.11292,0.125491 -0.11412,0.02894 -0.002,-0.17117 -0.42001,-0.195653 -0.52203,-0.03061 -0.0747,0.120907 -0.37795,0.106827 -0.59299,-0.02753 -0.0708,-0.04424 -0.16189,-0.04712 -0.20253,-0.0065 -0.10131,0.101246 -0.61706,0.149262 -0.70105,0.06526 z m 0.24016,-0.521917 c -0.0321,-0.07963 -0.0584,-0.01447 -0.0584,0.144799 0,0.159275 0.0263,0.224431 0.0584,0.144794 0.0321,-0.07963 0.0321,-0.209956 0,-0.289593 z m 0.34992,0.123077 c -0.037,-0.09241 -0.0644,-0.06496 -0.0699,0.06999 -0.005,0.122111 0.0224,0.190525 0.0608,0.152035 0.0384,-0.03848 0.0426,-0.138404 0.01,-0.222024 z m 0.46335,0 c -0.037,-0.09241 -0.0644,-0.06496 -0.07,0.06999 -0.005,0.122111 0.0224,0.190525 0.0608,0.152035 0.0384,-0.03848 0.0426,-0.138404 0.01,-0.222024 z m 0.38421,-0.09411 c 0,-0.06371 -0.0552,-0.115844 -0.12267,-0.115844 -0.0674,0 -0.0904,0.05211 -0.0511,0.115844 0.0394,0.06371 0.0946,0.115832 0.12268,0.115832 0.0281,0 0.0511,-0.05211 0.0511,-0.115832 z m 1.62172,0.107773 c 0,-0.422606 0.0269,-0.467569 0.26063,-0.434387 0.17452,0.02478 0.27605,0.1327 0.30728,0.326612 l 0.0466,0.289587 0.0744,-0.289587 c 0.041,-0.159282 0.14791,-0.289593 0.23774,-0.289593 0.0898,0 0.19956,0.130311 0.24385,0.289593 l 0.0806,0.289587 0.012,-0.318551 c 0.01,-0.259483 0.0653,-0.318551 0.30113,-0.318551 0.33054,0 0.39157,0.188042 0.0869,0.267659 -0.19305,0.05045 -0.19305,0.05365 0,0.06641 0.11149,0.0073 0.20272,0.06172 0.20272,0.120779 0,0.05902 -0.0912,0.131181 -0.20272,0.160318 -0.19305,0.05045 -0.19305,0.05359 0,0.06641 0.11149,0.0073 0.20272,0.06556 0.20272,0.129274 0,0.153783 -0.42906,0.149185 -0.52474,-0.0057 -0.0514,-0.08303 -0.12678,-0.07854 -0.2385,0.01421 -0.12489,0.103642 -0.20202,0.103642 -0.32689,0 -0.11173,-0.09272 -0.1872,-0.09721 -0.23852,-0.01421 -0.0413,0.06681 -0.17624,0.121464 -0.2999,0.121464 -0.18573,0 -0.22483,-0.082 -0.22483,-0.471404 z m 0.46335,0.194206 c 0,-0.02503 -0.0782,-0.07552 -0.17376,-0.112204 -0.0956,-0.03668 -0.17374,-0.0162 -0.17374,0.04552 0,0.06172 0.0782,0.112204 0.17374,0.112204 0.0956,0 0.17376,-0.02049 0.17376,-0.04552 z m 2.27812,0.199975 c -0.12498,-0.124985 -0.0884,-0.713077 0.0497,-0.798419 0.0698,-0.04316 0.20939,0.0038 0.31015,0.10472 0.14921,0.149224 0.15835,0.237657 0.0493,0.47705 -0.13376,0.293575 -0.26352,0.362284 -0.40914,0.216647 z m 0.27029,-0.501956 c 0,-0.06371 -0.0521,-0.115845 -0.1158,-0.115845 -0.0637,0 -0.1158,0.05211 -0.1158,0.115845 0,0.0637 0.0521,0.115832 0.1158,0.115832 0.0637,0 0.1158,-0.05212 0.1158,-0.115832 z m -1.04253,0.05795 c 0,-0.355236 0.0358,-0.40543 0.28959,-0.40543 0.33054,0 0.39157,0.18804 0.0869,0.267658 -0.18734,0.04898 -0.18683,0.05397 0.007,0.06641 0.1152,0.0073 0.17681,0.06641 0.13679,0.131163 -0.04,0.06475 -0.12128,0.08774 -0.18059,0.05108 -0.0593,-0.03668 -0.1079,0.0146 -0.1079,0.113952 0,0.09932 -0.0521,0.180589 -0.11579,0.180589 -0.0637,0 -0.1158,-0.182446 -0.1158,-0.405429 z M 178.55274,11.975463 V 8.7320316 h -3.24343 -3.24343 v 3.2434314 3.243433 h 3.24343 3.24343 z m -19.69227,26.121212 c 0,-0.300028 -0.0498,-0.405429 -0.19171,-0.405429 -0.1724,0 -0.17059,-0.0233 0.018,-0.231672 0.32645,-0.360728 0.40543,-0.281749 0.40543,0.40543 0,0.350407 -0.0521,0.6371 -0.11579,0.6371 -0.0637,0 -0.1158,-0.182438 -0.1158,-0.405429 z m 0.58774,0.241992 c -0.0854,-0.102863 -0.0936,-0.189436 -0.0223,-0.233567 0.0624,-0.03853 0.14619,-0.01716 0.18622,0.04764 0.12364,0.200051 0.29075,0.130068 0.29075,-0.121752 0,-0.189661 -0.0501,-0.223611 -0.24038,-0.163187 -0.20961,0.06652 -0.23557,0.03413 -0.20271,-0.252825 0.0299,-0.261468 0.1031,-0.336662 0.35621,-0.365779 0.1752,-0.02017 0.31855,0.01894 0.31855,0.08688 0,0.06795 -0.11723,0.127059 -0.26063,0.131374 l -0.26063,0.0078 0.26063,0.125696 c 0.45436,0.21913 0.3045,0.901155 -0.198,0.901155 -0.0507,0 -0.15322,-0.07355 -0.22783,-0.163443 z m 1.23669,0.09688 c -0.0478,-0.04834 -0.0869,-0.231236 -0.0869,-0.406441 0,-0.175204 -0.0647,-0.340113 -0.14376,-0.366471 -0.10262,-0.03419 -0.0845,-0.107186 0.0635,-0.255117 0.28114,-0.281136 0.33108,-0.192618 0.28955,0.513256 -0.0195,0.331463 -0.0746,0.56311 -0.12234,0.514773 z m 28.98819,-2.883649 c 0,-0.309562 -0.0399,-0.386484 -0.17376,-0.335119 -0.25523,0.09794 -0.21201,-0.161158 0.0503,-0.301546 0.34037,-0.182157 0.35512,-0.163073 0.35512,0.459271 0,0.318557 -0.0521,0.579187 -0.1158,0.579187 -0.0637,0 -0.11579,-0.180806 -0.11579,-0.401793 z m 0.5206,0.284887 c -0.11867,-0.192111 0.0283,-0.284151 0.21124,-0.132276 0.17516,0.145375 0.31068,0.06562 0.31068,-0.182836 0,-0.08988 -0.09,-0.14647 -0.20271,-0.127385 -0.22135,0.03752 -0.26063,-0.01787 -0.26063,-0.367291 0,-0.180191 0.0772,-0.231672 0.34751,-0.231672 0.39895,0 0.48179,0.227888 0.0869,0.239015 l -0.26064,0.0073 0.26841,0.107641 c 0.39808,0.159634 0.31555,0.732494 -0.11268,0.782048 -0.16918,0.01959 -0.34381,-0.02298 -0.38807,-0.09458 z m 0.98527,0.05525 c 0,-0.03394 0.0756,-0.242408 0.16784,-0.46335 0.15811,-0.378393 0.15475,-0.40171 -0.058,-0.40171 -0.12416,0 -0.22576,-0.05211 -0.22576,-0.115832 0,-0.06371 0.18679,-0.115832 0.41509,-0.115832 0.22829,0 0.39398,0.03912 0.36818,0.08688 -0.0257,0.04776 -0.14228,0.308416 -0.25889,0.57918 -0.11663,0.270771 -0.25623,0.492308 -0.31028,0.492308 -0.054,0 -0.0983,-0.02772 -0.0983,-0.06166 z m -11.0045,-0.459631 c 0,-0.300028 -0.0498,-0.405429 -0.19172,-0.405429 -0.1724,0 -0.17059,-0.0233 0.018,-0.231671 0.32646,-0.360729 0.40544,-0.28175 0.40544,0.405429 0,0.350408 -0.0521,0.6371 -0.1158,0.6371 -0.0637,0 -0.1158,-0.182444 -0.1158,-0.405429 z m 0.58775,0.241987 c -0.0927,-0.111737 -0.0972,-0.187196 -0.0142,-0.238509 0.0668,-0.04129 0.12146,-0.01984 0.12146,0.04763 0,0.06747 0.082,0.122674 0.18224,0.122674 0.11172,0 0.16664,-0.07847 0.14194,-0.202714 -0.0264,-0.1324 -0.12679,-0.19064 -0.28964,-0.167906 -0.22048,0.0308 -0.23936,-0.0025 -0.16324,-0.289593 0.0632,-0.238171 0.16873,-0.334146 0.39698,-0.361055 0.171,-0.02017 0.3109,0.01894 0.3109,0.08688 0,0.06795 -0.1043,0.123531 -0.23168,0.123531 -0.12742,0 -0.23167,0.05211 -0.23167,0.115832 0,0.06371 0.0799,0.115832 0.17739,0.115832 0.0976,0 0.20835,0.08069 0.24619,0.179282 0.0524,0.136593 0.13531,0.08142 0.34805,-0.231671 0.33932,-0.499344 0.50257,-0.523033 0.50257,-0.07293 0,0.185922 0.0255,0.407459 0.0568,0.492308 0.0789,0.214795 -0.14587,0.540459 -0.25941,0.37578 -0.14387,-0.208643 -0.58644,-0.271405 -0.65495,-0.09288 -0.0801,0.208688 -0.46564,0.207183 -0.63966,-0.0025 z m 1.26563,-0.473658 c 0,-0.09557 -0.0205,-0.173758 -0.0455,-0.173758 -0.025,0 -0.0756,0.0782 -0.1122,0.173758 -0.0367,0.09557 -0.0162,0.17375 0.0455,0.17375 0.0617,0 0.1122,-0.07818 0.1122,-0.17375 z m -23.51488,-4.517621 c 0,-0.222985 -0.0521,-0.405429 -0.1158,-0.405429 -0.19124,0 -0.13112,-0.166395 0.1158,-0.320632 0.22114,-0.138103 0.23167,-0.115677 0.23167,0.493403 0,0.350952 -0.0521,0.638087 -0.11579,0.638087 -0.0637,0 -0.1158,-0.182445 -0.1158,-0.405429 z m 0.65641,0.328205 c -0.0424,-0.04245 -0.0772,-0.15311 -0.0772,-0.245859 0,-0.13882 0.0316,-0.142419 0.17866,-0.02036 0.12696,0.105366 0.21456,0.112383 0.30267,0.02426 0.17907,-0.179065 0.0213,-0.364455 -0.24977,-0.293556 -0.24091,0.063 -0.3008,-0.114599 -0.16124,-0.478261 0.077,-0.200756 0.56905,-0.251149 0.68116,-0.06977 0.0447,0.07222 0.14681,0.06557 0.28108,-0.01825 0.5225,-0.326309 0.84104,0.410269 0.3317,0.767022 l -0.25744,0.180326 h 0.25744 c 0.14161,0 0.25745,0.05211 0.25745,0.115832 0,0.06371 -0.18244,0.115832 -0.40543,0.115832 -0.48092,0 -0.50529,-0.09746 -0.1158,-0.46335 0.27979,-0.262838 0.38735,-0.579179 0.19693,-0.579179 -0.051,0 -0.14934,0.05666 -0.2186,0.125925 -0.0907,0.09069 -0.14771,0.09069 -0.20376,0 -0.10454,-0.169109 -0.64334,-0.161387 -0.64334,0.0092 0,0.07433 0.0329,0.102229 0.0732,0.06197 0.12525,-0.125253 0.50604,0.14786 0.50604,0.362956 0,0.367554 -0.49686,0.641986 -0.73363,0.405211 z m 22.27929,-0.318551 c 0,-0.217676 -0.0647,-0.417344 -0.14376,-0.443694 -0.10454,-0.03482 -0.091,-0.100684 0.0496,-0.241334 0.29254,-0.292538 0.3258,-0.247249 0.3258,0.443701 0,0.350402 -0.0521,0.637102 -0.1158,0.637102 -0.0637,0 -0.1158,-0.178098 -0.1158,-0.395775 z m 0.59438,0.240322 c -0.1654,-0.199283 -0.0265,-0.345664 0.17179,-0.181081 0.19341,0.16051 0.40204,0.03361 0.31551,-0.191895 -0.0428,-0.111426 -0.14767,-0.147758 -0.29325,-0.101558 -0.19359,0.06147 -0.22117,0.02395 -0.189,-0.257185 0.0299,-0.261461 0.10323,-0.336656 0.35623,-0.365774 0.1752,-0.02017 0.31855,0.01896 0.31855,0.08688 0,0.06795 -0.11723,0.127059 -0.26064,0.131367 l -0.26063,0.0078 0.25388,0.122686 c 0.32237,0.155786 0.41522,0.396262 0.2629,0.680887 -0.13826,0.258317 -0.48809,0.293453 -0.67534,0.06782 z m 0.92669,0 c -0.16539,-0.199283 -0.0265,-0.345664 0.17179,-0.181081 0.0828,0.06864 0.20732,0.08961 0.27692,0.04661 0.20288,-0.125382 -0.0879,-0.390858 -0.35232,-0.3217 -0.26048,0.06811 -0.26898,0.04098 -0.11448,-0.36544 0.0801,-0.210667 0.19807,-0.297135 0.40543,-0.297135 0.16084,0 0.29246,0.05211 0.29246,0.115844 0,0.0637 -0.1043,0.115832 -0.23168,0.115832 -0.12742,0 -0.23167,0.05211 -0.23167,0.115832 0,0.06371 0.0392,0.109665 0.0869,0.102121 0.37414,-0.0591 0.56247,0.24536 0.37199,0.601292 -0.13825,0.258319 -0.48809,0.29346 -0.67534,0.06784 z m 5.08164,-0.249976 c 0,-0.300029 -0.0498,-0.405429 -0.19172,-0.405429 -0.17239,0 -0.17059,-0.0233 0.018,-0.231673 0.32647,-0.360728 0.40543,-0.28175 0.40543,0.405429 0,0.350402 -0.0521,0.637102 -0.11579,0.637102 -0.0637,0 -0.1158,-0.182445 -0.1158,-0.405429 z m 0.58774,0.241985 c -0.0927,-0.111736 -0.0972,-0.187194 -0.0141,-0.238509 0.0668,-0.0413 0.12147,-0.01984 0.12147,0.04764 0,0.06747 0.082,0.122674 0.18225,0.122674 0.11172,0 0.16664,-0.07847 0.14193,-0.202715 -0.0277,-0.139268 -0.12607,-0.190511 -0.31432,-0.163725 -0.21569,0.03067 -0.25824,-0.0019 -0.19986,-0.154268 0.0408,-0.1063 0.0741,-0.267192 0.0741,-0.357546 0,-0.105307 0.12474,-0.164282 0.34751,-0.164282 0.19113,0 0.34751,0.05211 0.34751,0.115844 0,0.06371 -0.1043,0.115832 -0.23168,0.115832 -0.12741,0 -0.23166,0.04603 -0.23166,0.102324 0,0.05628 0.1043,0.129588 0.23166,0.162905 0.2833,0.07409 0.31955,0.602958 0.0485,0.706988 -0.26967,0.103474 -0.35284,0.08809 -0.50323,-0.09313 z m 0.87953,0.08622 c -0.0424,-0.04245 -0.0772,-0.299594 -0.0772,-0.571382 0,-0.391677 0.0478,-0.509332 0.23063,-0.567355 0.12685,-0.04027 0.2762,-0.04501 0.3319,-0.01066 0.16641,0.102851 0.25228,0.908473 0.11459,1.074458 -0.13409,0.161561 -0.4711,0.203643 -0.59984,0.07489 z m 0.47541,-0.292008 c -0.0716,-0.214788 -0.32096,-0.250411 -0.32096,-0.04584 0,0.100875 0.0825,0.183411 0.1834,0.183411 0.10083,0 0.16278,-0.06191 0.13756,-0.137559 z m -0.0893,-0.557462 c 0,-0.06371 -0.0521,-0.115832 -0.11579,-0.115832 -0.0637,0 -0.1158,0.05211 -0.1158,0.115832 0,0.06371 0.0521,0.115832 0.1158,0.115832 0.0637,0 0.11579,-0.05211 0.11579,-0.115832 z m -30.73543,-8.76499 c -0.15318,-0.153186 -0.0722,-0.267005 0.17064,-0.239963 0.13632,0.01517 0.27098,-0.03758 0.29924,-0.117209 0.0328,-0.09236 -0.0599,-0.144794 -0.25591,-0.144794 -0.25243,0 -0.3007,-0.04655 -0.2703,-0.260635 0.0265,-0.186613 0.12748,-0.27104 0.35557,-0.297282 0.17521,-0.02017 0.31855,0.01894 0.31855,0.08688 0,0.06795 -0.11723,0.126835 -0.26063,0.130874 -0.24819,0.0069 -0.24957,0.01197 -0.029,0.104864 0.12741,0.05365 0.32239,0.206708 0.43325,0.340164 0.23402,0.281692 0.55135,0.321342 0.55135,0.06889 0,-0.09557 -0.0585,-0.173758 -0.13001,-0.173758 -0.089,0 -0.0837,-0.05583 0.0165,-0.176554 0.19028,-0.229266 0.0559,-0.363552 -0.17328,-0.173277 -0.14498,0.12031 -0.17655,0.115125 -0.17655,-0.029 0,-0.241474 0.35573,-0.357585 0.53779,-0.175532 0.17238,0.172388 0.24344,0.78452 0.11519,0.992088 -0.11184,0.180882 -0.45005,0.182214 -0.62979,0.0025 -0.10813,-0.108108 -0.16988,-0.108108 -0.27799,0 -0.15146,0.151453 -0.4717,0.184724 -0.59465,0.06178 z m 22.97432,-0.324568 c 0,-0.309563 -0.0399,-0.386491 -0.17377,-0.335121 -0.28215,0.108276 -0.19833,-0.14702 0.1158,-0.352884 l 0.28959,-0.189751 v 0.639771 c 0,0.351881 -0.0521,0.639777 -0.1158,0.639777 -0.0637,0 -0.1158,-0.180806 -0.1158,-0.401792 z m 0.53573,0.223976 c -0.0505,-0.131835 -0.001,-0.169275 0.19033,-0.144793 0.1422,0.01818 0.27091,-0.01915 0.28601,-0.08282 0.0151,-0.0637 -0.0757,-0.117316 -0.20176,-0.119125 -0.12608,-0.0019 -0.22966,-0.04091 -0.23019,-0.08688 -0.006,-0.532013 0.004,-0.546937 0.34657,-0.546937 0.39997,0 0.47968,0.22486 0.0869,0.24511 -0.23661,0.01223 -0.23928,0.01877 -0.029,0.07132 0.12743,0.03182 0.26388,0.108935 0.30324,0.171325 0.0394,0.06242 0.10406,-0.01607 0.14379,-0.174378 0.0398,-0.158302 0.15088,-0.318 0.24699,-0.354884 0.34071,-0.130741 0.49292,0.04303 0.50359,0.574801 0.012,0.582054 -0.19546,0.764089 -0.58951,0.518012 -0.16495,-0.103019 -0.26542,-0.108192 -0.35532,-0.01831 -0.185,0.185006 -0.6231,0.152246 -0.70165,-0.0525 z m 1.43349,-0.227613 c 0,-0.09557 -0.049,-0.173758 -0.10897,-0.173758 -0.14607,0 -0.25068,0.18089 -0.15814,0.273435 0.13045,0.130452 0.26713,0.07945 0.26713,-0.09968 z m 0,-0.521265 c 0,-0.06371 -0.049,-0.115844 -0.10897,-0.115844 -0.0599,0 -0.14122,0.05211 -0.18059,0.115844 -0.0394,0.06371 0.01,0.115832 0.10897,0.115832 0.0993,0 0.18058,-0.05211 0.18058,-0.115832 z m 3.93846,0.524902 c 0,-0.309563 -0.0399,-0.386491 -0.17376,-0.335121 -0.0956,0.03669 -0.17375,0.01703 -0.17375,-0.0436 0,-0.164096 0.41206,-0.50636 0.50171,-0.416722 0.1238,0.1238 0.0894,1.197234 -0.0383,1.197234 -0.0637,0 -0.1158,-0.180806 -0.1158,-0.401792 z m 0.54589,0.329882 c -0.17376,-0.173763 -0.0707,-0.277031 0.20705,-0.207331 0.22237,0.05583 0.28959,0.02772 0.28959,-0.120913 0,-0.13428 -0.0799,-0.18249 -0.26064,-0.157353 -0.21549,0.02996 -0.25517,-0.01268 -0.22917,-0.2462 0.0408,-0.366144 0.0603,-0.380376 0.45026,-0.327219 l 0.32914,0.04488 -0.28105,0.118742 -0.28105,0.118742 0.26061,0.06815 c 0.20576,0.05378 0.25274,0.137027 0.22314,0.39532 -0.0289,0.251723 -0.10526,0.335074 -0.33141,0.361444 -0.16166,0.01882 -0.33107,-0.0025 -0.37647,-0.04827 z m 0.92138,-0.0051 c -0.15636,-0.156355 -0.0708,-0.283843 0.1447,-0.215461 0.12206,0.03874 0.26043,0.0081 0.30749,-0.06802 0.0515,-0.08327 0.0364,-0.108084 -0.0377,-0.06223 -0.36891,0.227997 -0.67494,-0.390012 -0.35269,-0.71225 0.18319,-0.183188 0.27134,-0.175448 0.48981,0.04303 0.21542,0.215423 0.23983,0.756368 0.043,0.953174 -0.15144,0.151451 -0.47169,0.184724 -0.59463,0.06178 z m 0.44403,-0.71433 c 0,-0.209508 -0.22671,-0.17126 -0.27169,0.04584 -0.025,0.120785 0.0184,0.173743 0.1158,0.141265 0.0857,-0.02855 0.15585,-0.112766 0.15585,-0.1871 z m -9.02047,-4.018886 c -0.22654,-0.590327 0.0993,-1.19936 0.52081,-0.973732 0.18352,0.09823 0.22281,0.220898 0.19466,0.607913 -0.031,0.426218 -0.072,0.489126 -0.33901,0.520088 -0.19793,0.02298 -0.32908,-0.0308 -0.37646,-0.154269 z m 0.48485,-0.431179 c -0.02,-0.207061 -0.0884,-0.376472 -0.15214,-0.376472 -0.0637,0 -0.13217,0.169411 -0.15214,0.376472 -0.0275,0.285323 0.01,0.376471 0.15214,0.376471 0.14281,0 0.17964,-0.09115 0.15214,-0.376471 z m -24.69335,-4.800698 c -0.0407,-0.04071 -0.0741,-0.329018 -0.0741,-0.640615 v -0.566536 l 0.49231,0.0356 c 0.47863,0.03463 0.49231,0.04687 0.49231,0.441051 0,0.222984 0.04,0.466987 0.0887,0.54222 0.0489,0.07524 0.0381,0.168122 -0.0238,0.206408 -0.0619,0.03828 -0.1991,-0.06235 -0.3048,-0.223669 -0.22918,-0.349775 -0.39719,-0.378725 -0.39719,-0.06845 0,0.241775 -0.15267,0.394744 -0.27344,0.273972 z m 0.73677,-0.846319 c 0,-0.06371 -0.1043,-0.115832 -0.23166,-0.115832 -0.12743,0 -0.23168,0.05211 -0.23168,0.115832 0,0.06371 0.1043,0.115832 0.23168,0.115832 0.12741,0 0.23166,-0.05211 0.23166,-0.115832 z m 0.46335,0.286064 v -0.633578 h 0.40543 c 0.22299,0 0.40543,0.05211 0.40543,0.115844 0,0.06371 -0.13032,0.115832 -0.28959,0.115832 -0.15928,0 -0.28959,0.05211 -0.28959,0.115832 0,0.06371 0.13031,0.115832 0.28959,0.115832 0.15927,0 0.28959,0.05211 0.28959,0.115832 0,0.06371 -0.13032,0.115832 -0.28959,0.115832 -0.18019,0 -0.28959,0.06565 -0.28959,0.173758 0,0.116586 0.11663,0.173756 0.35435,0.173756 0.49026,0 0.33052,0.19016 -0.17572,0.209194 l -0.41031,0.01544 z m 1.62172,0.0038 c 0,-0.404353 0.0438,-0.623668 0.1158,-0.579185 0.0637,0.03937 0.1158,0.300009 0.1158,0.579185 0,0.279177 -0.0521,0.539807 -0.1158,0.579187 -0.072,0.0445 -0.1158,-0.174833 -0.1158,-0.579187 z m 0.43359,0.568726 c -0.0474,-0.04731 -0.0861,-0.338021 -0.0861,-0.64595 0,-0.556176 0.002,-0.559882 0.38226,-0.559882 0.21024,0 0.44481,0.06254 0.52126,0.139006 0.15667,0.156662 0.18219,0.656205 0.0445,0.872825 -0.10957,0.172578 -0.7413,0.31474 -0.86204,0.194001 z m 0.64392,-0.408182 c 0.1629,-0.258709 0.0201,-0.565973 -0.26302,-0.565973 -0.19261,0 -0.2353,0.07509 -0.2353,0.413919 0,0.321898 0.0423,0.405602 0.19029,0.376472 0.10466,-0.02062 0.24328,-0.121586 0.30803,-0.224418 z m 1.09443,0.351444 c -0.23592,-0.137418 -0.27748,-0.796311 -0.0637,-1.010088 0.18567,-0.18566 0.61232,-0.176575 0.77252,0.01645 0.16703,0.201267 0.0256,0.344895 -0.1754,0.178091 -0.23318,-0.193521 -0.50445,-0.03028 -0.50445,0.303556 0,0.369724 0.32485,0.519889 0.5269,0.243561 0.10754,-0.147008 0.1687,-0.162579 0.23263,-0.05916 0.0505,0.08169 -0.002,0.205608 -0.12687,0.29652 -0.25209,0.184341 -0.38754,0.190704 -0.66161,0.03105 z m 1.15837,0 c -0.23592,-0.137418 -0.27749,-0.796311 -0.0637,-1.010088 0.33084,-0.330838 1.01936,-0.02791 1.01936,0.448458 0,0.2523 -0.38833,0.688568 -0.60814,0.683222 -0.0796,-0.0019 -0.23602,-0.05666 -0.34752,-0.121592 z m 0.60365,-0.329843 c 0.16727,-0.312532 0.0266,-0.607209 -0.26971,-0.564743 -0.25179,0.0361 -0.37356,0.326399 -0.2605,0.621038 0.0914,0.23808 0.38962,0.206415 0.53021,-0.05628 z m 0.46784,-0.182145 c 0,-0.618227 0.01,-0.637049 0.31856,-0.635327 0.42242,0.0025 0.5741,0.111905 0.66691,0.481655 0.0954,0.380293 -0.26577,0.790774 -0.69587,0.790774 -0.2738,0 -0.2896,-0.03476 -0.2896,-0.637102 z m 0.67412,0.215218 c 0.1541,-0.275354 0.0293,-0.620647 -0.22428,-0.620647 -0.1721,0 -0.21816,0.0856 -0.21816,0.405429 0,0.439164 0.24926,0.560415 0.44244,0.215218 z m 0.48425,-0.215218 v -0.637106 h 0.46336 c 0.25483,0 0.46334,0.05211 0.46334,0.115844 0,0.06371 -0.15638,0.115832 -0.34751,0.115832 -0.19113,0 -0.34752,0.05211 -0.34752,0.115832 0,0.06371 0.13032,0.115832 0.2896,0.115832 0.15927,0 0.28959,0.05211 0.28959,0.115832 0,0.06371 -0.13032,0.115832 -0.28959,0.115832 -0.1802,0 -0.2896,0.06565 -0.2896,0.173758 0,0.116587 0.11663,0.173757 0.35436,0.173757 0.20673,0 0.32451,0.04827 0.28274,0.115832 -0.0394,0.06371 -0.25095,0.115832 -0.47017,0.115832 h -0.3986 z m 1.18733,0.562528 c -0.15836,-0.06624 -0.20161,-0.38877 -0.0521,-0.38877 0.051,0 0.15523,0.06254 0.23167,0.138999 0.1073,0.107258 0.1704,0.107605 0.27649,0.0013 0.1061,-0.106097 0.0517,-0.167374 -0.23796,-0.268364 -0.28678,-0.09997 -0.36712,-0.189237 -0.3402,-0.377996 0.0223,-0.156138 0.13355,-0.261038 0.30226,-0.284958 0.30093,-0.04264 0.6356,0.178983 0.5295,0.350659 -0.0441,0.07129 -0.11603,0.06646 -0.19564,-0.01312 -0.15793,-0.157912 -0.42712,-0.164275 -0.42712,-0.01006 0,0.06371 0.0978,0.115832 0.2175,0.115832 0.11963,0 0.286,0.08255 0.36974,0.183463 0.28205,0.339845 -0.21292,0.745747 -0.67412,0.552822 z m 16.07236,-0.562687 v -0.65093 l 0.4344,0.03598 c 0.4096,0.03394 0.43509,0.0591 0.4467,0.441378 0.007,0.222983 0.0514,0.496648 0.0993,0.608143 0.13235,0.30855 -0.11604,0.243676 -0.3326,-0.08688 -0.22673,-0.346029 -0.41609,-0.375499 -0.41609,-0.06475 0,0.12366 -0.0521,0.257051 -0.1158,0.296431 -0.072,0.0445 -0.11579,-0.174883 -0.11579,-0.579346 z m 0.69503,-0.289433 c 0,-0.06371 -0.1043,-0.115832 -0.23167,-0.115832 -0.12743,0 -0.23168,0.05211 -0.23168,0.115832 0,0.06371 0.1043,0.115832 0.23168,0.115832 0.12742,0 0.23167,-0.05211 0.23167,-0.115832 z m 0.52299,0.831888 c -0.0328,-0.03277 -0.0596,-0.311591 -0.0596,-0.61952 v -0.559882 h 0.46334 c 0.25485,0 0.46336,0.05211 0.46336,0.115844 0,0.06371 -0.15638,0.115832 -0.34751,0.115832 -0.19114,0 -0.34752,0.05211 -0.34752,0.115832 0,0.06371 0.13032,0.115832 0.2896,0.115832 0.15927,0 0.28958,0.05211 0.28958,0.115832 0,0.06371 -0.13031,0.115832 -0.28958,0.115832 -0.1802,0 -0.2896,0.06565 -0.2896,0.173758 0,0.116587 0.11663,0.173757 0.35436,0.173757 0.19489,0 0.3243,0.04859 0.28757,0.108036 -0.0691,0.111701 -0.70844,0.134351 -0.81396,0.02881 z m 2.02541,-0.542296 c 0,-0.620557 0.008,-0.637106 0.32435,-0.637106 0.42555,0 0.60236,0.192611 0.60236,0.656198 0,0.401363 -0.24097,0.61801 -0.68741,0.61801 -0.21282,0 -0.2393,-0.07046 -0.2393,-0.637102 z m 0.67341,-0.0299 c 0.0304,-0.313864 -0.004,-0.375517 -0.20271,-0.375517 -0.19687,0 -0.23901,0.07299 -0.23901,0.413918 0,0.331618 0.0404,0.406288 0.20271,0.375524 0.13351,-0.02529 0.2151,-0.166606 0.23901,-0.413925 z m 1.02419,0.455175 c -0.23022,-0.254388 -0.24628,-0.595954 -0.0412,-0.876411 0.1985,-0.271449 0.81592,-0.213509 0.87195,0.08182 0.0344,0.181061 0.008,0.190473 -0.18638,0.0686 -0.4643,-0.289959 -0.84964,0.24258 -0.42847,0.592118 0.14398,0.119496 0.21761,0.108276 0.40543,-0.06172 0.20329,-0.183975 0.2295,-0.186267 0.2295,-0.02003 0,0.177388 -0.32388,0.427459 -0.55362,0.427459 -0.058,0 -0.19176,-0.09532 -0.2972,-0.211837 z m 1.22411,0.03151 c -0.46605,-0.326433 -0.25372,-1.093883 0.30264,-1.093883 0.17616,0 0.38282,0.06254 0.45928,0.139006 0.1968,0.196812 0.17239,0.737757 -0.043,0.953173 -0.22904,0.229034 -0.39378,0.229425 -0.7189,0.0019 z m 0.53458,-0.153098 c 0.0853,-0.05403 0.13735,-0.222626 0.11579,-0.374698 -0.0292,-0.206812 -0.11172,-0.276494 -0.3271,-0.276494 -0.32752,0 -0.45127,0.316488 -0.22864,0.58475 0.16019,0.193014 0.22482,0.202779 0.4399,0.06645 z m 0.5594,0.256199 c -0.0424,-0.04245 -0.0772,-0.329172 -0.0772,-0.637101 0,-0.556176 0.002,-0.559883 0.38227,-0.559883 0.46205,0 0.66027,0.175447 0.66027,0.584403 0,0.483492 -0.66953,0.908365 -0.96531,0.612581 z m 0.65278,-0.399334 c 0.16289,-0.258709 0.0201,-0.565972 -0.26301,-0.565972 -0.19263,0 -0.23532,0.07509 -0.23532,0.413919 0,0.321898 0.0423,0.405602 0.1903,0.376472 0.10466,-0.02062 0.24327,-0.121586 0.30803,-0.224419 z m 0.4816,0.375345 c -0.0292,-0.02925 -0.0532,-0.305183 -0.0532,-0.613112 v -0.559883 h 0.46334 c 0.25485,0 0.46336,0.05211 0.46336,0.115844 0,0.06371 -0.15638,0.115833 -0.34751,0.115833 -0.19113,0 -0.34751,0.05211 -0.34751,0.115832 0,0.06371 0.15638,0.115832 0.34751,0.115832 0.19113,0 0.34751,0.05211 0.34751,0.115832 0,0.06371 -0.15638,0.115832 -0.34751,0.115832 -0.23168,0 -0.34751,0.05795 -0.34751,0.173758 0,0.115832 0.1158,0.173756 0.34751,0.173756 0.19113,0 0.34751,0.05378 0.34751,0.119473 0,0.113545 -0.76133,0.123128 -0.87346,0.01102 z m 1.15642,-0.06306 c -0.12358,-0.09036 -0.1848,-0.204168 -0.13606,-0.252915 0.0487,-0.04873 0.15032,-0.02696 0.22571,0.04846 0.0754,0.07538 0.20483,0.137072 0.28766,0.137072 0.25339,0 0.16741,-0.231013 -0.12775,-0.343231 -0.36924,-0.140389 -0.46871,-0.323282 -0.29177,-0.536476 0.20519,-0.247236 0.73173,-0.161996 0.78308,0.126764 0.0333,0.187368 0.0125,0.203982 -0.10909,0.08688 -0.17371,-0.167406 -0.45143,-0.192945 -0.45143,-0.04155 0,0.05678 0.12456,0.13455 0.27682,0.172759 0.35242,0.08846 0.45944,0.361202 0.23126,0.589391 -0.22042,0.22041 -0.40001,0.223752 -0.68847,0.0128 z m -6.76983,-0.53074 c 0,-0.31855 0.0521,-0.579186 0.1158,-0.579186 0.0637,0 0.1158,0.260636 0.1158,0.579186 0,0.31855 -0.0521,0.579186 -0.1158,0.579186 -0.0637,0 -0.1158,-0.260636 -0.1158,-0.579186 z m -26.29497,0.231678 c 0,-0.06371 0.1043,-0.115844 0.23167,-0.115844 0.12743,0 0.23168,0.05211 0.23168,0.115844 0,0.06371 -0.1043,0.115832 -0.23168,0.115832 -0.12742,0 -0.23167,-0.05211 -0.23167,-0.115832 z m 25.65787,0 c -0.0406,-0.06569 0.0568,-0.115844 0.22484,-0.115844 0.16303,0 0.29643,0.05211 0.29643,0.115844 0,0.06371 -0.10119,0.115832 -0.22484,0.115832 -0.12366,0 -0.25705,-0.05211 -0.29643,-0.115832 z M 156.08038,9.0758983 c 0,-0.308237 -0.059,-0.4896502 -0.17375,-0.5336599 -0.33146,-0.1271866 -0.17134,-0.2735616 0.29924,-0.2735616 0.32949,0 0.4569,0.043924 0.41991,0.1447931 -0.0292,0.079632 -0.11172,0.1317646 -0.18341,0.1158441 -0.0815,-0.018118 -0.13032,0.1662472 -0.13032,0.4923002 0,0.2867003 -0.0521,0.521272 -0.11579,0.521272 -0.0637,0 -0.1158,-0.2101479 -0.1158,-0.4669867 z m 0.69502,-0.1158321 c 0,-0.6402762 0.13136,-0.7707547 0.64594,-0.6416018 0.26125,0.065574 0.29327,0.1262909 0.26036,0.4938569 -0.0234,0.2607569 0.0171,0.4378113 0.1073,0.4686452 0.0796,0.027279 0.1448,-0.00862 0.1448,-0.079656 0,-0.07107 0.0794,-0.3192094 0.17641,-0.5514329 0.20683,-0.4950029 0.34183,-0.4235984 0.65457,0.346215 l 0.1986,0.4888767 0.006,-0.5433919 c 0.008,-0.6712561 0.15828,-0.7859279 0.42912,-0.3274301 0.246,0.4164339 0.3455,0.442709 0.33675,0.088925 -0.004,-0.1433465 0.0456,-0.2866931 0.10933,-0.3185508 0.0679,-0.033937 0.13032,0.1936742 0.15084,0.5502294 0.0417,0.7236459 -0.15105,0.8125215 -0.50234,0.2316714 l -0.2277,-0.3764717 -0.0363,0.3764717 c -0.0274,0.2849065 -0.0917,0.3764717 -0.26428,0.3764717 -0.12537,0 -0.25797,-0.078195 -0.29463,-0.1737577 -0.0366,-0.095571 -0.16701,-0.1737566 -0.2896,-0.1737566 -0.1226,0 -0.25292,0.078195 -0.2896,0.1737566 -0.0954,0.2486324 -0.47786,0.2144504 -0.64794,-0.057934 -0.0796,-0.1274177 -0.21034,-0.2316713 -0.29059,-0.2316713 -0.0802,0 -0.14588,0.1042524 -0.14588,0.2316713 0,0.1274237 -0.0521,0.2316786 -0.1158,0.2316786 -0.0637,0 -0.1158,-0.2622753 -0.1158,-0.5828224 z m 0.69502,-0.2859567 c 0,-0.096529 -0.10298,-0.1737577 -0.23166,-0.1737577 -0.12871,0 -0.23168,0.077225 -0.23168,0.1737577 0,0.096529 0.10298,0.1737566 0.23168,0.1737566 0.1287,0 0.23166,-0.077225 0.23166,-0.1737566 z m 2.70707,0.6974223 c -0.0393,-0.1023844 -0.0319,-0.2229968 0.0166,-0.2680304 0.0485,-0.045001 0.11137,-0.016705 0.1398,0.06294 0.0588,0.1646018 0.49575,0.2001154 0.49575,0.040271 0,-0.057491 -0.15637,-0.1590192 -0.3475,-0.2256469 -0.36483,-0.1271806 -0.44213,-0.3397546 -0.20851,-0.5733731 0.19129,-0.1912864 0.49846,-0.1741733 0.67418,0.037577 0.1777,0.2141044 0.0499,0.3854348 -0.14327,0.1921893 -0.16158,-0.1615866 -0.43824,-0.1821437 -0.43824,-0.032583 0,0.057491 0.16019,0.1603508 0.35597,0.2285987 0.27752,0.096756 0.34772,0.1822023 0.31855,0.3878034 -0.0289,0.203278 -0.12387,0.2720384 -0.41469,0.3000678 -0.26359,0.025422 -0.39878,-0.019723 -0.44869,-0.1497938 z m 1.02221,-0.4249815 c 0.0335,-0.5868495 0.0532,-0.6219848 0.36809,-0.6579654 0.18296,-0.020932 0.38886,0.018178 0.45755,0.086877 0.0893,0.089296 0.0357,0.1248886 -0.18786,0.1248886 -0.37051,0 -0.41646,0.1775418 -0.0695,0.2682867 0.13384,0.035026 0.21036,0.1169936 0.17005,0.1822083 -0.0403,0.065215 -0.14566,0.090805 -0.23412,0.056856 -0.10274,-0.039433 -0.1746,0.032272 -0.19899,0.1987 -0.021,0.1432316 -0.10622,0.2828456 -0.18945,0.3102535 -0.11459,0.037769 -0.14266,-0.1004325 -0.11579,-0.5701075 z m 1.07102,0.3124173 c -0.22047,-0.3364831 -0.13601,-0.704958 0.2032,-0.8864945 0.2951,-0.1579367 0.78836,0.033481 0.78836,0.3059893 0,0.100684 0.0535,0.1500057 0.11891,0.1095932 0.0654,-0.040403 0.10454,-0.158891 0.0869,-0.2632729 -0.0368,-0.2182524 0.26061,-0.309517 0.67215,-0.2062297 0.28547,0.071645 0.39161,0.4469289 0.16587,0.58644 -0.0703,0.043409 -0.0428,0.1804923 0.0712,0.3543458 0.14916,0.2276443 0.15439,0.2835558 0.0266,0.2835558 -0.0875,0 -0.22433,-0.1042525 -0.3039,-0.2316786 -0.0796,-0.1274177 -0.19637,-0.2316714 -0.25954,-0.2316714 -0.0632,0 -0.11484,0.1042525 -0.11484,0.2316714 0,0.1274237 -0.0521,0.2316786 -0.11579,0.2316786 -0.11724,0 -0.1572,-0.1465858 -0.12641,-0.46335 0.01,-0.096996 -0.0911,-0.033038 -0.2276,0.1447931 -0.30958,0.4033479 -0.7337,0.418253 -0.98505,0.034631 z m 0.70196,-0.3531867 c 0,-0.2702841 -0.0515,-0.3475071 -0.23168,-0.3475071 -0.17786,0 -0.24026,0.089548 -0.26864,0.385575 -0.0332,0.3453252 -0.008,0.3816064 0.23167,0.3475142 0.21281,-0.030153 0.26865,-0.1102878 0.26865,-0.3855821 z m 1.13553,-0.2300835 c 0.0126,-0.062868 -0.0684,-0.1318233 -0.17988,-0.1532893 -0.12679,-0.024393 -0.20271,0.032392 -0.20271,0.1517014 0,0.2015297 0.34233,0.2029511 0.38259,0.00132 z m 0.51515,0.8003192 c -0.10299,-0.1038453 -0.11748,-1.0223114 -0.0176,-1.1221284 0.14665,-0.1466444 0.38341,0.06573 0.4595,0.4121577 l 0.0795,0.362169 0.18817,-0.3878872 c 0.2718,-0.5602799 0.41492,-0.4991067 0.45485,0.1944178 0.0213,0.3705166 -0.0126,0.6081431 -0.0869,0.6081431 -0.114,0 -0.17094,-0.1651718 -0.13274,-0.3850828 0.01,-0.052497 -0.0368,-0.062484 -0.10215,-0.022082 -0.0653,0.040331 -0.11867,0.1484742 -0.11867,0.2402825 0,0.2953042 -0.31939,0.1776627 -0.41167,-0.1516367 l -0.0892,-0.3185509 -0.0681,0.3289091 c -0.0375,0.1808959 -0.10717,0.2894904 -0.15496,0.2413266 z m 1.32606,-0.5412711 c 0.0346,-0.6017102 0.039,-0.6081443 0.41149,-0.6081443 0.20706,0 0.37604,0.050641 0.37553,0.1125511 -4.7e-4,0.06191 -0.10406,0.1140358 -0.23018,0.1158321 -0.12608,0.00192 -0.21688,0.054545 -0.20178,0.1172331 0.0151,0.062676 0.11867,0.098481 0.23018,0.079596 0.11472,-0.019399 0.20271,0.037709 0.20271,0.1316053 0,0.097127 -0.10382,0.1601963 -0.25034,0.1520786 -0.1377,-0.00766 -0.27236,0.051288 -0.29925,0.1309263 -0.0321,0.095104 0.0736,0.1447931 0.30826,0.1447931 0.19645,0 0.35718,0.052114 0.35718,0.1158321 0,0.063706 -0.21124,0.1158441 -0.4694,0.1158441 h -0.4694 z m 1.04254,0 c 0.0322,-0.5596212 0.0593,-0.6109607 0.339,-0.6433944 0.38157,-0.044235 0.68063,0.2446424 0.68063,0.65746 0,0.4198276 -0.19544,0.5940775 -0.66633,0.5940775 h -0.38832 z m 0.76913,0.042067 c 0.0387,-0.2733185 -0.13463,-0.4712317 -0.41557,-0.4746757 -0.0891,-0.00132 -0.1448,0.1572002 -0.1448,0.4117159 0,0.3625402 0.0321,0.4089246 0.26064,0.3764645 0.17272,-0.024524 0.27382,-0.1302725 0.29973,-0.3135047 z m 13.91925,0.04481 c 0,-0.3948913 -0.0438,-0.5212648 -0.1806,-0.5212648 -0.0993,0 -0.15058,-0.048534 -0.11388,-0.1078928 0.0367,-0.059347 0.45462,-0.1063721 0.92876,-0.104516 0.94779,0.00383 1.25821,0.1694289 1.02299,0.5460862 -0.0905,0.1449284 -0.0855,0.2520249 0.0182,0.3939441 0.12525,0.1712789 0.15878,0.140663 0.2766,-0.2526201 0.0738,-0.2461417 0.20953,-0.510145 0.30175,-0.5866771 0.13813,-0.1146346 0.19683,-0.069358 0.33318,0.2569801 0.28505,0.6822048 0.33232,0.897224 0.19728,0.897224 -0.0701,0 -0.15728,-0.078195 -0.19396,-0.1737565 -0.0366,-0.095571 -0.15978,-0.1737578 -0.27356,-0.1737578 -0.11376,0 -0.23689,0.078195 -0.27357,0.1737578 -0.0952,0.2480421 -0.45601,0.2146672 -0.62624,-0.057946 -0.0796,-0.1274177 -0.22243,-0.2316714 -0.31745,-0.2316714 -0.0956,0 -0.17279,0.103546 -0.17279,0.2316714 0,0.1274249 -0.0521,0.2316785 -0.11579,0.2316785 -0.0637,0 -0.1158,-0.2345716 -0.1158,-0.5212707 0,-0.4440419 -0.0344,-0.5212649 -0.23168,-0.5212649 -0.19735,0 -0.23167,0.077225 -0.23167,0.5212649 0,0.2866991 -0.0521,0.5212707 -0.1158,0.5212707 -0.0637,0 -0.11579,-0.2345716 -0.11579,-0.5212707 z m 1.44796,-0.3475083 c 0,-0.063706 -0.11723,-0.132495 -0.26064,-0.1528533 -0.17933,-0.025482 -0.26063,0.022213 -0.26063,0.1528533 0,0.1306449 0.0813,0.1783225 0.26063,0.1528534 0.14335,-0.020357 0.26064,-0.08914 0.26064,-0.1528534 z m 1.5685,0.2095528 0.005,-0.6729027 0.3428,0.4010559 0.3428,0.4010571 V 8.6986985 c 0,-0.1727961 0.0521,-0.3141776 0.1158,-0.3141776 0.0637,0 0.11579,0.260636 0.11579,0.5791868 0,0.6566985 -0.10789,0.7191841 -0.45001,0.2606288 -0.22552,-0.3022687 -0.23785,-0.3055797 -0.24134,-0.064748 -0.002,0.1395889 -0.0558,0.2860141 -0.11951,0.3253884 -0.0723,0.04469 -0.11412,-0.181133 -0.11112,-0.6013054 z m 1.15135,0.4826712 c -0.1777,-0.2141031 -0.0501,-0.3854348 0.14325,-0.1921953 0.1532,0.1531935 0.55409,0.1869336 0.55409,0.046606 0,-0.049743 -0.15638,-0.1494669 -0.34751,-0.2216138 -0.22811,-0.086099 -0.34751,-0.2115501 -0.34751,-0.3651016 0,-0.257101 0.32296,-0.4119781 0.62077,-0.297692 0.2052,0.078746 0.26467,0.3956661 0.0743,0.3956661 -0.0637,0 -0.1158,-0.052114 -0.1158,-0.1158441 0,-0.063706 -0.0782,-0.1158321 -0.17374,-0.1158321 -0.27938,0 -0.19975,0.2207372 0.10741,0.2978393 0.15467,0.038798 0.31195,0.1506703 0.34951,0.2485678 0.16042,0.418035 -0.56156,0.6848548 -0.86471,0.3195747 z M 186.893,8.9057869 V 8.2686852 h 0.40543 c 0.22298,0 0.40543,0.052114 0.40543,0.1158321 0,0.063706 -0.13032,0.1158321 -0.2896,0.1158321 -0.15928,0 -0.28959,0.052114 -0.28959,0.1158321 0,0.063706 0.1043,0.1158441 0.23168,0.1158441 0.12741,0 0.23167,0.052114 0.23167,0.1158321 0,0.063706 -0.1043,0.1158321 -0.23167,0.1158321 -0.1699,0 -0.23168,0.077225 -0.23168,0.2895934 0,0.1592742 -0.0521,0.2895922 -0.11579,0.2895922 -0.0637,0 -0.1158,-0.2866991 -0.1158,-0.6371065 z m 1.06569,0.4981008 c -0.34103,-0.3410347 -0.0399,-1.1352025 0.43051,-1.1352025 0.2544,0 0.58886,0.3549159 0.58886,0.624879 0,0.5581807 -0.64739,0.8822879 -1.01937,0.5103235 z m 0.73388,-0.3372579 c 0.0958,-0.3017957 -0.17477,-0.6046344 -0.44689,-0.5002143 -0.19094,0.073274 -0.26861,0.5160606 -0.11711,0.6675763 0.16325,0.1632439 0.4898,0.06634 0.56397,-0.167362 z m 0.42424,-0.1318795 c 0.0317,-0.5514137 0.062,-0.6113068 0.32471,-0.6420185 0.15933,-0.018633 0.3939,0.043349 0.52126,0.1377447 0.20162,0.1494094 0.21198,0.2036684 0.0801,0.4194181 -0.11831,0.1935401 -0.12102,0.2844778 -0.0125,0.415282 0.0764,0.09211 0.10107,0.2053136 0.0546,0.2515579 -0.0465,0.046223 -0.17949,-0.03323 -0.29571,-0.1765551 -0.26168,-0.3227636 -0.46376,-0.3353826 -0.46376,-0.028943 0,0.1274237 -0.0549,0.2316785 -0.1219,0.2316785 -0.0742,0 -0.10825,-0.2376264 -0.0869,-0.6081442 z m 0.67211,-0.260636 c 0,-0.096529 -0.10298,-0.1737565 -0.23168,-0.1737565 -0.1287,0 -0.23167,0.077225 -0.23167,0.1737565 0,0.096529 0.10298,0.1737577 0.23167,0.1737577 0.12872,0 0.23168,-0.077225 0.23168,-0.1737577 z m 0.46335,0.296431 c 0,-0.6826789 0.18998,-0.8656225 0.37897,-0.3649351 0.17005,0.450507 0.26102,0.4509237 0.41756,0.00192 0.17491,-0.5017698 0.36184,-0.3142351 0.36184,0.3630396 0,0.5516245 -0.22355,0.8425555 -0.23952,0.3117132 l -0.008,-0.260636 -0.1257,0.260636 c -0.16603,0.344256 -0.27777,0.3288133 -0.41901,-0.057934 l -0.1164,-0.3185568 -0.01,0.3185568 c -0.0164,0.5712404 -0.24081,0.3347288 -0.24081,-0.2537984 z m 1.39003,-0.06476 V 8.268684 h 0.3986 c 0.21923,0 0.43081,0.052114 0.47019,0.1158321 0.0418,0.067586 -0.076,0.1158321 -0.28275,0.1158321 -0.23652,0 -0.35436,0.057299 -0.35436,0.1723926 0,0.097475 0.0881,0.1603963 0.20272,0.1447943 0.11149,-0.015172 0.21338,0.024524 0.22641,0.088242 0.013,0.063706 -0.0782,0.099534 -0.20272,0.079596 -0.14353,-0.02298 -0.22641,0.030033 -0.22641,0.1447931 0,0.1239283 0.10969,0.181036 0.34752,0.181036 0.19112,0 0.34751,0.052114 0.34751,0.1158321 0,0.063706 -0.20851,0.1158441 -0.46335,0.1158441 h -0.46336 z m 1.04254,0 c 0,-0.6023497 0.0158,-0.6371017 0.28959,-0.6371017 0.30646,0 0.75295,0.3625151 0.75295,0.611326 0,0.320656 -0.36222,0.6628822 -0.70159,0.6628822 -0.33605,0 -0.34095,-0.0091 -0.34095,-0.6371065 z m 0.6734,0.029901 c -0.0238,-0.2473188 -0.1055,-0.3886356 -0.239,-0.413924 -0.16242,-0.030727 -0.20272,0.043924 -0.20272,0.3755233 0,0.3409329 0.0421,0.4139192 0.239,0.4139192 0.19978,0 0.23307,-0.061658 0.20272,-0.3755185 z"
       id="path2039" /></g></svg>
